<?xml version="1.0" encoding="UTF-8"?>
<svg width="164px" height="50px" viewBox="0 0 164 50" version="1.1" xmlns="http://www.w3.org/2000/svg" xmlns:xlink="http://www.w3.org/1999/xlink">
    <!-- Generator: Sketch 64 (93537) - https://sketch.com -->
    <title>CBS_logo</title>
    <desc>Created with Sketch.</desc>
    <g id="Cherapp" stroke="none" stroke-width="1" fill="none" fill-rule="evenodd">
        <g id="dashboard-v2-copy-7" transform="translate(-485.000000, -3470.000000)" fill="#000000" fill-rule="nonzero">
            <g id="Group-32" transform="translate(125.000000, 3450.000000)">
                <g id="CBS_logo" transform="translate(360.000000, 20.000000)">
                    <path d="M24.5368285,0 C10.8686214,0 0,11.2364352 0,24.9236541 C0,38.7607923 10.8686214,50 24.5368285,50 C38.2771571,50 49,38.7628123 49,24.9280168 C49.0023254,11.2407978 38.2771571,0 24.5368285,0 Z M24.5368285,10.5793561 C35.6970644,10.5793561 43.8726681,17.7154636 47.3275257,24.9280168 C43.8726681,32.2506671 35.6970644,39.4206439 24.5368285,39.4206439 C13.3044704,39.4206439 5.19432952,32.2483246 1.74179853,24.9280168 C5.19432952,17.7178061 13.3067969,10.5837187 24.5368285,10.5837187 L24.5368285,10.5793561 L24.5368285,10.5793561 Z M24.5368285,11.7136376 C17.2665056,11.7136376 11.3390218,17.6384846 11.3390218,24.9236541 C11.3390218,32.3189223 17.2665056,38.2121979 24.5368285,38.2121979 C31.8071517,38.2121979 37.6566443,32.3185998 37.6566443,24.9280168 C37.6566443,17.6428472 31.8071517,11.7136376 24.5368285,11.7136376 Z" id="path3003"></path>
                    <path d="M72.4520948,3 C59.8104588,3 51,12.6920336 51,24.4806015 L51,24.6228571 C51,36.5572479 59.9899564,46 72.131978,46 C80.0456057,46 84.7738981,43.1412679 89,38.5466667 L83.2336291,32.6926316 C80.0090492,35.6553975 77.1050205,37.5767419 72.4136808,37.5767419 C65.3594822,37.5767419 60.4541166,31.6028134 60.4541166,24.4806015 L60.4541166,24.3728321 C60.4541166,17.2483055 65.4671985,11.4232581 72.4136808,11.4232581 C76.5320678,11.4232581 79.7554785,13.1959558 82.9433899,16.1263158 L88.7097608,9.39719298 C84.8778501,5.60114902 80.2236296,3 72.4520948,3 Z" id="path3005"></path>
                    <path d="M93,4 L93,46 L113.156662,46 C122.699076,46 129,42.1663958 129,34.4923747 L129,34.3442266 C129,28.7150515 125.981775,25.8972124 121.076135,24.0348584 C124.099707,22.3549964 126.641288,19.7234879 126.641288,14.9716776 L126.641288,14.8627451 C126.641288,11.970949 125.681959,9.63221194 123.729136,7.69498911 C121.2999,5.32025447 117.503668,4 112.673499,4 L93,4 Z M102.061493,12.0784244 L111.27672,12.0784244 C115.220101,12.0784244 117.390922,13.6500985 117.390922,16.3921569 L117.390922,16.540305 C117.390922,19.6473475 114.775951,20.962963 110.648609,20.962963 L102.061493,20.9673133 L102.061493,12.0784244 L102.061493,12.0784244 Z M102.061493,28.6448732 L112.862372,28.6448732 C117.612352,28.6448732 119.749634,30.4010987 119.749634,33.2156863 L119.749634,33.3594771 C119.749634,36.4665196 117.246267,37.8910675 113.156662,37.8910675 L102.061493,37.8954179 L102.061493,28.6448732 L102.061493,28.6448732 Z" id="path3007"></path>
                    <path d="M147.249276,3 C138.763341,3 132.67291,8.01848859 132.67291,15.6177271 L132.67291,15.7304628 C132.67291,24.0281619 138.109305,26.3576867 146.488469,28.5042856 C153.45176,30.3202809 154.900571,31.4833374 154.900571,33.8115357 L154.900571,33.9589594 C154.900571,36.3942546 152.6136,37.8873651 148.878959,37.8873651 C144.090534,37.8873651 140.175007,35.9191135 136.438039,32.8272663 L131,39.3399213 C136.004288,43.8147186 142.386336,46 148.697403,46 L148.697403,45.9956709 C157.691653,45.9956709 164,41.3367947 164,33.0484087 L164,32.940009 C164,25.6294668 159.214802,22.6037667 150.763685,20.3873216 C143.584528,18.5294122 141.768009,17.6222651 141.768009,14.893617 L141.768009,14.7852173 C141.768009,12.7480435 143.618099,11.1126349 147.136884,11.1126349 C150.655669,11.1126349 154.282879,12.67386 157.98271,15.2535041 L162.733423,8.31158617 C158.525276,4.92871438 153.342162,3 147.249276,3 Z" id="path3009"></path>
                </g>
            </g>
        </g>
    </g>
</svg>