<svg width="65" height="64" viewBox="0 0 65 64" fill="none" xmlns="http://www.w3.org/2000/svg">
<path d="M61.75 51H3.75C3.15 51 2.75 50.6 2.75 50V46.9C2.75 45.3 4.05 44 5.65 44H59.75C61.35 44 62.65 45.3 62.65 46.9V50C62.75 50.6 62.35 51 61.75 51ZM4.75 49H60.75V46.9C60.75 46.4 60.35 46 59.85 46H5.65C5.15 46 4.75 46.4 4.75 46.9V49Z" fill="#9CAFC8"/>
<path d="M30.75 46H9.75C9.15 46 8.75 45.6 8.75 45V40.3C8.75 37.4 11.15 35 14.05 35H26.45C29.35 35 31.75 37.4 31.75 40.3V45C31.75 45.6 31.35 46 30.75 46ZM10.75 44H29.75V40.3C29.75 38.5 28.25 37 26.45 37H14.05C12.25 37 10.75 38.5 10.75 40.3V44Z" fill="#9CAFC8"/>
<path d="M55.75 46H34.75C34.15 46 33.75 45.6 33.75 45V40.3C33.75 37.4 36.15 35 39.05 35H51.45C54.35 35 56.75 37.4 56.75 40.3V45C56.75 45.6 56.35 46 55.75 46ZM35.75 44H54.75V40.3C54.75 38.5 53.25 37 51.45 37H39.05C37.25 37 35.75 38.5 35.75 40.3V44Z" fill="#9CAFC8"/>
<path d="M63.75 64H60.75C60.15 64 59.75 63.6 59.75 63V61C59.75 60.4 59.35 60 58.75 60H6.75C6.15 60 5.75 60.4 5.75 61V63C5.75 63.6 5.35 64 4.75 64H1.75C1.15 64 0.75 63.6 0.75 63V50C0.75 49.4 1.15 49 1.75 49H63.75C64.35 49 64.75 49.4 64.75 50V63C64.75 63.6 64.35 64 63.75 64ZM61.75 62H62.75V51H2.75V62H3.75V61C3.75 59.3 5.05 58 6.75 58H58.75C60.45 58 61.75 59.3 61.75 61V62Z" fill="#9CAFC8"/>
<path d="M59.75 46H5.75C5.15 46 4.75 45.6 4.75 45V33C4.75 32.4 5.15 32 5.75 32H9.15C10.25 30.1 14.15 24 19.15 24H46.45C51.35 24 55.35 30.1 56.45 32H59.75C60.35 32 60.75 32.4 60.75 33V45C60.75 45.6 60.35 46 59.75 46ZM6.75 44H58.75V34H55.75C55.35 34 55.05 33.8 54.85 33.5C53.75 31.4 50.15 26 46.35 26H19.15C15.35 26 11.75 31.4 10.65 33.5C10.45 33.8 10.15 34 9.75 34H6.75V44Z" fill="#9CAFC8"/>
<path d="M58.75 34H55.75C55.15 34 54.75 33.6 54.75 33V5H10.75V33C10.75 33.6 10.35 34 9.75 34H6.75C6.15 34 5.75 33.6 5.75 33V1C5.75 0.4 6.15 0 6.75 0H58.75C59.35 0 59.75 0.4 59.75 1V33C59.75 33.6 59.35 34 58.75 34ZM56.75 32H57.75V2H7.75V32H8.75V4C8.75 3.4 9.15 3 9.75 3H55.75C56.35 3 56.75 3.4 56.75 4V32Z" fill="#9CAFC8"/>
<path d="M32.75 26C32.15 26 31.75 25.6 31.75 25V4C31.75 3.4 32.15 3 32.75 3C33.35 3 33.75 3.4 33.75 4V25C33.75 25.6 33.35 26 32.75 26Z" fill="#9CAFC8"/>
<path d="M19.75 19C16.95 19 14.75 16.8 14.75 14C14.75 11.2 16.95 9 19.75 9C22.55 9 24.75 11.2 24.75 14C24.75 16.8 22.55 19 19.75 19ZM19.75 11C18.05 11 16.75 12.3 16.75 14C16.75 15.7 18.05 17 19.75 17C21.45 17 22.75 15.7 22.75 14C22.75 12.3 21.45 11 19.75 11Z" fill="#9CAFC8"/>
<path d="M19.75 8C19.15 8 18.75 7.6 18.75 7V6C18.75 5.4 19.15 5 19.75 5C20.35 5 20.75 5.4 20.75 6V7C20.75 7.6 20.35 8 19.75 8Z" fill="#9CAFC8"/>
<path d="M27.75 15H26.75C26.15 15 25.75 14.6 25.75 14C25.75 13.4 26.15 13 26.75 13H27.75C28.35 13 28.75 13.4 28.75 14C28.75 14.6 28.35 15 27.75 15Z" fill="#9CAFC8"/>
<path d="M19.75 23C19.15 23 18.75 22.6 18.75 22V21C18.75 20.4 19.15 20 19.75 20C20.35 20 20.75 20.4 20.75 21V22C20.75 22.6 20.35 23 19.75 23Z" fill="#9CAFC8"/>
<path d="M12.75 15H11.75C11.15 15 10.75 14.6 10.75 14C10.75 13.4 11.15 13 11.75 13H12.75C13.35 13 13.75 13.4 13.75 14C13.75 14.6 13.35 15 12.75 15Z" fill="#9CAFC8"/>
<path d="M14.7508 9.9998C14.4508 9.9998 14.2508 9.8998 14.0508 9.6998L13.3508 8.9998C12.9508 8.5998 12.9508 7.9998 13.3508 7.5998C13.7508 7.1998 14.3508 7.1998 14.7508 7.5998L15.4508 8.2998C15.8508 8.6998 15.8508 9.2998 15.4508 9.6998C15.3508 9.9998 15.0508 9.9998 14.7508 9.9998Z" fill="#9CAFC8"/>
<path d="M24.75 9.9998C24.45 9.9998 24.25 9.8998 24.05 9.6998C23.65 9.2998 23.65 8.6998 24.05 8.2998L24.75 7.5998C25.15 7.1998 25.75 7.1998 26.15 7.5998C26.55 7.9998 26.55 8.5998 26.15 8.9998L25.45 9.6998C25.25 9.9998 24.95 9.9998 24.75 9.9998Z" fill="#9CAFC8"/>
<path d="M25.45 20.7C25.15 20.7 24.95 20.6 24.75 20.4L24.05 19.7C23.65 19.3 23.65 18.7 24.05 18.3C24.45 17.9 25.05 17.9 25.45 18.3L26.15 19C26.55 19.4 26.55 20 26.15 20.4C25.95 20.6 25.65 20.7 25.45 20.7Z" fill="#9CAFC8"/>
<path d="M14.0508 20.7C13.7508 20.7 13.5508 20.6 13.3508 20.4C12.9508 20 12.9508 19.4 13.3508 19L14.0508 18.3C14.4508 17.9 15.0508 17.9 15.4508 18.3C15.8508 18.7 15.8508 19.3 15.4508 19.7L14.7508 20.4C14.6508 20.6 14.3508 20.7 14.0508 20.7Z" fill="#9CAFC8"/>
<path d="M42.75 14.0005H38.75C36.55 14.0005 34.75 12.2005 34.75 10.0005C34.75 7.80048 36.55 6.00048 38.75 6.00048C40.25 5.80048 41.65 6.70048 42.45 8.00048H42.75C44.45 8.00048 45.75 9.30048 45.75 11.0005C45.75 12.7005 44.45 14.0005 42.75 14.0005ZM39.05 8.00048C38.95 8.00048 38.95 8.00048 38.85 8.00048C37.65 8.00048 36.75 8.90048 36.75 10.0005C36.75 11.1005 37.65 12.0005 38.75 12.0005H42.75C43.35 12.0005 43.75 11.6005 43.75 11.0005C43.75 10.4005 43.35 10.0005 42.75 10.0005H41.75C41.35 10.0005 40.95 9.70048 40.75 9.30048C40.55 8.50048 39.85 8.00048 39.05 8.00048Z" fill="#9CAFC8"/>
<path d="M55.7501 28.9998C55.3501 28.9998 54.9501 28.7998 54.8501 28.3998L49.8501 16.7998C49.7501 16.3998 49.4501 16.1998 49.1501 16.0998C48.8501 15.9998 48.5501 15.9998 48.2501 16.0998C47.9501 16.1998 47.7501 16.4998 47.6501 16.6998C46.4501 19.5998 43.7501 25.0998 43.6501 25.3998C43.4501 25.8998 42.8501 26.0998 42.3501 25.8998C41.8501 25.6998 41.6501 25.0998 41.8501 24.5998C41.8501 24.4998 44.6501 18.8998 45.8501 16.0998C46.1501 15.3998 46.6501 14.6998 47.4501 14.3998C48.2501 13.9998 49.0501 13.9998 49.8501 14.2998C50.7501 14.5998 51.3501 15.2998 51.7501 16.1998L56.7501 27.6998C56.9501 28.1998 56.7501 28.7998 56.2501 28.9998C56.0501 28.9998 55.8501 28.9998 55.7501 28.9998Z" fill="#9CAFC8"/>
<path d="M46.7495 22.9995C46.5495 22.9995 46.4495 22.9995 46.3495 22.8995L44.3495 21.8995C43.8495 21.6995 43.6495 21.0995 43.9495 20.5995C44.1495 20.0995 44.7495 19.8995 45.2495 20.1995L46.6495 20.8995L48.1495 19.3995C48.5495 18.9995 49.1495 18.9995 49.5495 19.3995L50.5495 20.3995L50.9495 19.5995C51.1495 19.0995 51.7495 18.8995 52.2495 19.1995C52.7495 19.3995 52.9495 19.9995 52.6495 20.4995L51.6495 22.4995C51.5495 22.7995 51.2495 22.9995 50.9495 22.9995C50.6495 23.0995 50.3495 22.8995 50.0495 22.6995L48.7495 21.3995L47.4495 22.6995C47.2495 22.8995 47.0495 22.9995 46.7495 22.9995Z" fill="#9CAFC8"/>
</svg>
