<svg width="63" height="62" viewBox="0 0 63 62" fill="none" xmlns="http://www.w3.org/2000/svg">
<path d="M62.7495 49.607L60.4755 47.158C56.1555 42.507 52.4085 37.431 49.2425 32H56.7495V29.607L54.4755 27.158C47.2645 19.392 41.6135 10.467 37.6785 0.628L37.4265 0H22.0725L21.8205 0.628C17.8855 10.466 12.2345 19.392 5.02346 27.158L2.74946 29.607V32H22.2545C20.7405 34.595 19.0895 37.11 17.3085 39.536C16.9755 38.811 16.7495 38.026 16.7495 37V35.613L15.4335 36.051C15.3145 36.091 13.0885 36.876 12.1575 39.504C11.1985 38.451 10.1465 38.078 10.0665 38.051L8.74946 37.613V39C8.74946 40.502 8.27146 41.491 7.66746 42.523C6.34446 41.041 4.86146 41 4.74946 41H3.74946V42C3.74946 45.138 3.19046 46.785 2.65146 48.377C2.18746 49.745 1.74946 51.037 1.74946 53C1.74946 53.911 2.02546 54.661 2.47446 55.286C2.09146 55.466 1.74546 55.726 1.46346 56.057C0.892463 56.729 0.647463 57.618 0.789463 58.496C1.02146 59.924 2.34046 61 3.85546 61H6.52946C7.07946 61.609 7.86646 62 8.74946 62H16.7495C17.6325 62 18.4195 61.609 18.9695 61H21.6435C23.1595 61 24.4775 59.924 24.7095 58.497C24.8525 57.618 24.6065 56.729 24.0355 56.058C23.7535 55.727 23.4075 55.467 23.0245 55.287C23.4735 54.661 23.7495 53.911 23.7495 53C23.7495 52.644 23.7305 52.316 23.7045 52H62.7495V49.607ZM53.0105 28.52L54.3855 30H48.1195C46.4645 26.977 44.9695 23.857 43.6785 20.628L43.4265 20H36.7495V3.549C40.7185 12.754 46.1685 21.153 53.0105 28.52ZM6.48846 28.52C13.7145 20.739 19.4095 11.819 23.4235 2H33.2395C29.3435 11.316 24.0355 19.913 17.4135 27.554L15.2925 30H5.11346L6.48846 28.52ZM17.9395 30L18.9245 28.863C25.4995 21.278 30.8035 12.769 34.7495 3.56V20H28.0725L27.8205 20.628C26.5345 23.843 25.0455 26.969 23.3845 30H17.9395ZM21.7495 42V41H20.7495C20.6595 41 19.6665 41.024 18.5895 41.821C18.5205 41.697 18.4495 41.577 18.3785 41.456C22.8725 35.466 26.5905 28.93 29.4235 22H30.0875C34.0915 31.812 39.6295 40.85 46.5745 48.863L47.5595 50H42.2305L36.7775 43.184C32.8905 38.325 30.7495 32.223 30.7495 26H28.7495C28.7495 32.223 26.6085 38.325 22.7215 43.184L21.8655 44.254C21.7935 43.592 21.7495 42.855 21.7495 42ZM4.54546 49.019C5.02746 47.596 5.56646 46.011 5.71146 43.414C6.59446 44.063 7.74946 45.728 7.74946 50H9.74946C9.74946 47.54 9.37646 45.77 8.84146 44.471C8.93046 44.319 9.01746 44.166 9.10646 44.015C9.66246 43.09 10.2705 42.075 10.5665 40.727C11.1535 41.33 11.7495 42.348 11.7495 44V45H13.7495V42C13.7495 40.353 14.3455 39.334 14.9335 38.73C15.2295 40.076 15.8375 41.089 16.3925 42.014C16.6795 42.492 16.9385 42.958 17.1645 43.444C16.3665 44.774 15.7495 46.818 15.7495 50H17.7495C17.7495 45.719 18.9095 44.055 19.7875 43.409C19.9335 46.009 20.4715 47.595 20.9535 49.019C21.3805 50.279 21.7495 51.367 21.7495 53C21.7495 55.435 17.5925 55.894 16.2045 55.979C16.5415 55.393 16.7495 54.723 16.7495 54C16.7495 53.141 16.4655 52.289 15.9495 51.6L12.7495 47.333L9.54846 51.6C9.03346 52.289 8.74946 53.141 8.74946 54C8.74946 54.724 8.95746 55.394 9.29546 55.98C8.52446 55.934 6.90746 55.774 5.61146 55.221L5.61346 55.213C5.60346 55.211 5.59446 55.21 5.58446 55.208C4.56046 54.766 3.74946 54.077 3.74946 53C3.74946 51.367 4.11846 50.279 4.54546 49.019ZM10.7495 54C10.7495 53.57 10.8915 53.144 11.1485 52.8L12.7495 50.667L14.3495 52.8C14.6075 53.144 14.7495 53.57 14.7495 54C14.7495 55.103 13.8525 56 12.7495 56C11.6465 56 10.7495 55.103 10.7495 54ZM3.85546 59C3.31846 59 2.83846 58.638 2.76346 58.175C2.71346 57.872 2.79246 57.58 2.98646 57.353C3.17746 57.128 3.45546 57 3.74946 57C4.17146 57 4.59346 57.05 5.00746 57.135C5.37846 57.286 5.76246 57.415 6.15346 57.523C5.90346 57.961 5.74946 58.46 5.74946 59H3.85546ZM16.7495 60H8.74946C8.19746 60 7.74946 59.551 7.74946 59C7.74946 58.449 8.19746 58 8.74946 58H9.74946H15.7495H16.7495C17.3015 58 17.7495 58.449 17.7495 59C17.7495 59.551 17.3015 60 16.7495 60ZM21.6435 59H19.7495C19.7495 58.46 19.5955 57.961 19.3445 57.523C19.7415 57.414 20.1315 57.283 20.5075 57.129C20.9155 57.046 21.3325 57 21.7495 57C22.0435 57 22.3215 57.128 22.5125 57.353C22.7055 57.58 22.7845 57.872 22.7355 58.175C22.6595 58.638 22.1805 59 21.6435 59ZM22.8475 48.377C22.6805 47.885 22.5145 47.382 22.3615 46.837L24.2845 44.433C26.8515 41.224 28.7025 37.506 29.7505 33.567C30.7985 37.507 32.6495 41.224 35.2165 44.433L39.6685 50H23.3555C23.2065 49.441 23.0295 48.914 22.8475 48.377ZM50.2065 50L48.0865 47.554C41.4645 39.913 36.1555 31.316 32.2605 22H42.0765C46.0905 31.819 51.7855 40.739 59.0115 48.52L60.3855 50H50.2065Z" fill="#9CAFC8"/>
</svg>
