<svg width="61" height="60" viewBox="0 0 61 60" fill="none" xmlns="http://www.w3.org/2000/svg">
<path d="M18.75 40H12.75C12.4848 40 12.2304 40.1054 12.0429 40.2929C11.8554 40.4804 11.75 40.7348 11.75 41V47C11.75 47.2652 11.8554 47.5196 12.0429 47.7071C12.2304 47.8946 12.4848 48 12.75 48H18.75C19.0152 48 19.2696 47.8946 19.4571 47.7071C19.6446 47.5196 19.75 47.2652 19.75 47V41C19.75 40.7348 19.6446 40.4804 19.4571 40.2929C19.2696 40.1054 19.0152 40 18.75 40ZM17.75 46H13.75V42H17.75V46Z" fill="#9CAFC8"/>
<path d="M32.75 28H22.75C22.2196 28 21.7109 28.2107 21.3358 28.5858C20.9607 28.9609 20.75 29.4696 20.75 30V34C20.75 34.5304 20.9607 35.0391 21.3358 35.4142C21.7109 35.7893 22.2196 36 22.75 36H32.75C33.2804 36 33.7891 35.7893 34.1642 35.4142C34.5393 35.0391 34.75 34.5304 34.75 34V30C34.75 29.4696 34.5393 28.9609 34.1642 28.5858C33.7891 28.2107 33.2804 28 32.75 28ZM32.75 31H28.75V30H32.75V31ZM26.75 30V31H22.75V30H26.75ZM22.75 33H26.75V34H22.75V33ZM28.75 34V33H32.75V34H28.75Z" fill="#9CAFC8"/>
<path d="M25.75 43H23.75V45H24.75V47H23.75V49H25.75C26.0152 49 26.2696 48.8946 26.4571 48.7071C26.6446 48.5196 26.75 48.2652 26.75 48V44C26.75 43.7348 26.6446 43.4804 26.4571 43.2929C26.2696 43.1054 26.0152 43 25.75 43Z" fill="#9CAFC8"/>
<path d="M48.75 45C49.0152 45 49.2696 45.1054 49.4571 45.2929C49.6446 45.4804 49.75 45.7348 49.75 46H51.75C51.7474 45.3817 51.5539 44.7794 51.1959 44.2753C50.8379 43.7712 50.3329 43.3901 49.75 43.184V42H47.75V43.184C47.0833 43.4188 46.5213 43.882 46.1634 44.4915C45.8055 45.1011 45.6748 45.8176 45.7946 46.5142C45.9144 47.2108 46.2768 47.8425 46.8178 48.2975C47.3587 48.7525 48.0432 49.0013 48.75 49C48.9478 49 49.1411 49.0586 49.3056 49.1685C49.47 49.2784 49.5982 49.4346 49.6739 49.6173C49.7496 49.8 49.7694 50.0011 49.7308 50.1951C49.6922 50.3891 49.597 50.5673 49.4571 50.7071C49.3173 50.847 49.1391 50.9422 48.9451 50.9808C48.7511 51.0194 48.55 50.9996 48.3673 50.9239C48.1846 50.8482 48.0284 50.72 47.9185 50.5556C47.8086 50.3911 47.75 50.1978 47.75 50H45.75C45.7526 50.6183 45.9461 51.2206 46.3041 51.7247C46.6621 52.2288 47.1671 52.6099 47.75 52.816V54H49.75V52.816C50.4167 52.5812 50.9787 52.118 51.3366 51.5085C51.6945 50.8989 51.8252 50.1824 51.7054 49.4858C51.5856 48.7892 51.2232 48.1575 50.6822 47.7025C50.1413 47.2475 49.4568 46.9987 48.75 47C48.4848 47 48.2304 46.8946 48.0429 46.7071C47.8554 46.5196 47.75 46.2652 47.75 46C47.75 45.7348 47.8554 45.4804 48.0429 45.2929C48.2304 45.1054 48.4848 45 48.75 45Z" fill="#9CAFC8"/>
<path d="M48.75 39C46.97 39 45.2299 39.5278 43.7499 40.5168C42.2698 41.5057 41.1163 42.9113 40.4351 44.5559C39.7539 46.2004 39.5757 48.01 39.9229 49.7558C40.2702 51.5016 41.1274 53.1053 42.386 54.364C43.6447 55.6226 45.2484 56.4798 46.9942 56.8271C48.74 57.1743 50.5496 56.9961 52.1942 56.3149C53.8387 55.6337 55.2443 54.4802 56.2332 53.0001C57.2222 51.5201 57.75 49.78 57.75 48C57.7471 45.6139 56.7979 43.3265 55.1107 41.6393C53.4236 39.9521 51.1361 39.0029 48.75 39ZM48.75 55C47.3655 55 46.0122 54.5895 44.861 53.8203C43.7099 53.0511 42.8127 51.9579 42.2828 50.6788C41.753 49.3997 41.6144 47.9922 41.8845 46.6344C42.1546 45.2765 42.8213 44.0292 43.8003 43.0503C44.7792 42.0713 46.0265 41.4046 47.3844 41.1345C48.7422 40.8644 50.1497 41.003 51.4288 41.5328C52.7079 42.0627 53.8011 42.9599 54.5703 44.111C55.3395 45.2622 55.75 46.6155 55.75 48C55.7479 49.8559 55.0097 51.6351 53.6974 52.9474C52.3851 54.2597 50.6059 54.9979 48.75 55Z" fill="#9CAFC8"/>
<path d="M48.75 36C48.0794 36.0043 47.4104 36.0648 46.75 36.181V27.414L48.543 29.207C49.1283 29.7923 49.9222 30.1212 50.75 30.1212C51.5778 30.1212 52.3717 29.7923 52.957 29.207C53.5423 28.6217 53.8712 27.8278 53.8712 27C53.8712 26.1722 53.5423 25.3783 52.957 24.793L46.75 18.586V6C47.2804 6 47.7891 5.78929 48.1642 5.41421C48.5393 5.03914 48.75 4.53043 48.75 4V2C48.75 1.46957 48.5393 0.960859 48.1642 0.585786C47.7891 0.210714 47.2804 0 46.75 0H36.75C36.2196 0 35.7109 0.210714 35.3358 0.585786C34.9607 0.960859 34.75 1.46957 34.75 2V4C34.75 4.53043 34.9607 5.03914 35.3358 5.41421C35.7109 5.78929 36.2196 6 36.75 6V8.586L29.871 1.707C29.2995 1.16159 28.54 0.857283 27.75 0.857283C26.96 0.857283 26.2005 1.16159 25.629 1.707L2.543 24.793C1.95767 25.3783 1.62883 26.1722 1.62883 27C1.62883 27.8278 1.95767 28.6217 2.543 29.207C3.12833 29.7923 3.92221 30.1212 4.75 30.1212C5.57779 30.1212 6.37167 29.7923 6.957 29.207L8.75 27.414V47C7.68913 47 6.67172 47.4214 5.92157 48.1716C5.17143 48.9217 4.75 49.9391 4.75 51C3.68913 51 2.67172 51.4214 1.92157 52.1716C1.17143 52.9217 0.75 53.9391 0.75 55C0.75 55.2652 0.855357 55.5196 1.04289 55.7071C1.23043 55.8946 1.48478 56 1.75 56H39.831C41.1665 57.4886 42.8531 58.6196 44.7372 59.2901C46.6214 59.9605 48.6433 60.1491 50.619 59.8386C52.5946 59.5282 54.4613 58.7285 56.049 57.5125C57.6367 56.2965 58.8951 54.7027 59.7097 52.8762C60.5242 51.0497 60.869 49.0485 60.7127 47.0547C60.5564 45.0609 59.9039 43.1379 58.8147 41.4606C57.7254 39.7834 56.234 38.4052 54.4762 37.4515C52.7183 36.4977 50.7499 35.9988 48.75 36V36ZM36.75 2H46.75V4H36.75V2ZM38.75 6H44.75V16.586L38.75 10.586V6ZM5.543 27.793C5.33268 28.0033 5.04743 28.1215 4.75 28.1215C4.45257 28.1215 4.16732 28.0033 3.957 27.793C3.74668 27.5827 3.62853 27.2974 3.62853 27C3.62853 26.7026 3.74668 26.4173 3.957 26.207L27.043 3.121C27.2305 2.93353 27.4848 2.82821 27.75 2.82821C28.0152 2.82821 28.2695 2.93353 28.457 3.121L51.543 26.207C51.7533 26.4173 51.8715 26.7026 51.8715 27C51.8715 27.2974 51.7533 27.5827 51.543 27.793C51.3327 28.0033 51.0474 28.1215 50.75 28.1215C50.4526 28.1215 50.1673 28.0033 49.957 27.793L29.871 7.707C29.3084 7.14459 28.5455 6.82864 27.75 6.82864C26.9545 6.82864 26.1916 7.14459 25.629 7.707L5.543 27.793ZM27.043 9.121C27.2305 8.93353 27.4848 8.82821 27.75 8.82821C28.0152 8.82821 28.2695 8.93353 28.457 9.121L43.336 24H12.164L27.043 9.121ZM3.019 54C3.27245 53.5627 3.68276 53.2381 4.16671 53.0921C4.65065 52.9462 5.172 52.9897 5.625 53.214C5.81237 53.3063 6.02395 53.3376 6.23004 53.3036C6.43613 53.2695 6.62637 53.1718 6.77408 53.0241C6.92178 52.8764 7.01952 52.6861 7.05359 52.48C7.08765 52.274 7.05632 52.0624 6.964 51.875C6.82611 51.6037 6.75287 51.3043 6.75 51C6.74787 50.5275 6.91376 50.0696 7.21805 49.7082C7.52233 49.3467 7.9452 49.1052 8.41113 49.0267C8.87706 48.9482 9.35572 49.0379 9.76162 49.2798C10.1675 49.5216 10.4742 49.8999 10.627 50.347C10.6976 50.5496 10.8315 50.724 11.0088 50.8447C11.1862 50.9653 11.3977 51.0257 11.612 51.017C11.6586 51.0176 11.705 51.0119 11.75 51C12.6366 51.0013 13.4977 51.2965 14.1986 51.8393C14.8996 52.3821 15.4009 53.142 15.624 54H3.019ZM22.75 54V40H32.75V54H22.75ZM34.75 54V39C34.75 38.7348 34.6446 38.4804 34.4571 38.2929C34.2696 38.1054 34.0152 38 33.75 38H21.75C21.4848 38 21.2304 38.1054 21.0429 38.2929C20.8554 38.4804 20.75 38.7348 20.75 39V54H17.661C17.4369 52.6813 16.7791 51.4752 15.7919 50.5727C14.8046 49.6703 13.5444 49.1231 12.211 49.018C11.8618 48.4067 11.3579 47.898 10.75 47.543V26H44.75V36.7C43.0876 37.283 41.5746 38.226 40.3192 39.4618C39.0637 40.6976 38.0968 42.1954 37.4876 43.8484C36.8784 45.5013 36.642 47.2684 36.7952 49.0233C36.9485 50.7783 37.4876 52.4777 38.374 54H34.75ZM48.75 58C46.7722 58 44.8388 57.4135 43.1943 56.3147C41.5498 55.2159 40.2681 53.6541 39.5112 51.8268C38.7543 49.9996 38.5563 47.9889 38.9421 46.0491C39.328 44.1093 40.2804 42.3275 41.6789 40.9289C43.0775 39.5304 44.8593 38.578 46.7991 38.1921C48.7389 37.8063 50.7496 38.0043 52.5768 38.7612C54.4041 39.5181 55.9659 40.7998 57.0647 42.4443C58.1635 44.0888 58.75 46.0222 58.75 48C58.7471 50.6513 57.6926 53.1931 55.8179 55.0679C53.9431 56.9426 51.4013 57.9971 48.75 58V58Z" fill="#9CAFC8"/>
</svg>
