<svg width="65" height="64" viewBox="0 0 65 64" fill="none" xmlns="http://www.w3.org/2000/svg">
<path d="M51.05 54H14.45C12.45 54 10.75 52.3 10.75 50.3V31.7C10.75 29.7 12.45 28 14.45 28H51.05C53.05 28 54.75 29.7 54.75 31.7V50.3C54.75 52.3 53.05 54 51.05 54ZM14.45 30C13.55 30 12.75 30.8 12.75 31.7V50.3C12.75 51.2 13.55 52 14.45 52H51.05C51.95 52 52.75 51.2 52.75 50.3V31.7C52.75 30.8 51.95 30 51.05 30H14.45Z" fill="#1600FF"/>
<path d="M36.75 30C36.15 30 35.75 29.6 35.75 29V27H29.75V29C29.75 29.6 29.35 30 28.75 30C28.15 30 27.75 29.6 27.75 29V26C27.75 25.4 28.15 25 28.75 25H36.75C37.35 25 37.75 25.4 37.75 26V29C37.75 29.6 37.35 30 36.75 30Z" fill="#1600FF"/>
<path d="M48.75 54C48.15 54 47.75 53.6 47.75 53V29C47.75 28.4 48.15 28 48.75 28C49.35 28 49.75 28.4 49.75 29V53C49.75 53.6 49.35 54 48.75 54Z" fill="#1600FF"/>
<path d="M44.75 54C44.15 54 43.75 53.6 43.75 53V29C43.75 28.4 44.15 28 44.75 28C45.35 28 45.75 28.4 45.75 29V53C45.75 53.6 45.35 54 44.75 54Z" fill="#1600FF"/>
<path d="M16.75 54C16.15 54 15.75 53.6 15.75 53V29C15.75 28.4 16.15 28 16.75 28C17.35 28 17.75 28.4 17.75 29V53C17.75 53.6 17.35 54 16.75 54Z" fill="#1600FF"/>
<path d="M20.75 54C20.15 54 19.75 53.6 19.75 53V29C19.75 28.4 20.15 28 20.75 28C21.35 28 21.75 28.4 21.75 29V53C21.75 53.6 21.35 54 20.75 54Z" fill="#1600FF"/>
<path d="M30.75 38H25.75C25.15 38 24.75 37.6 24.75 37V34C24.75 33.4 25.15 33 25.75 33H30.75C31.35 33 31.75 33.4 31.75 34V37C31.75 37.6 31.35 38 30.75 38ZM26.75 36H29.75V35H26.75V36Z" fill="#1600FF"/>
<path d="M36.75 51C35.05 51 33.75 49.7 33.75 48C33.75 46.3 35.05 45 36.75 45C38.45 45 39.75 46.3 39.75 48C39.75 49.7 38.45 51 36.75 51ZM36.75 47C36.15 47 35.75 47.4 35.75 48C35.75 48.6 36.15 49 36.75 49C37.35 49 37.75 48.6 37.75 48C37.75 47.4 37.35 47 36.75 47Z" fill="#1600FF"/>
<path d="M18.75 56C18.15 56 17.75 55.6 17.75 55V53C17.75 52.4 18.15 52 18.75 52C19.35 52 19.75 52.4 19.75 53V55C19.75 55.6 19.35 56 18.75 56Z" fill="#1600FF"/>
<path d="M46.75 56C46.15 56 45.75 55.6 45.75 55V53C45.75 52.4 46.15 52 46.75 52C47.35 52 47.75 52.4 47.75 53V55C47.75 55.6 47.35 56 46.75 56Z" fill="#1600FF"/>
<path d="M60.75 61H4.75C4.15 61 3.75 60.6 3.75 60V56C3.75 55.4 4.15 55 4.75 55H60.75C61.35 55 61.75 55.4 61.75 56V60C61.75 60.6 61.35 61 60.75 61ZM5.75 59H59.75V57H5.75V59Z" fill="#1600FF"/>
<path d="M11.75 64C10.05 64 8.75 62.7 8.75 61C8.75 60.4 9.15 60 9.75 60C10.35 60 10.75 60.4 10.75 61C10.75 61.6 11.15 62 11.75 62C12.35 62 12.75 61.6 12.75 61C12.75 60.4 13.15 60 13.75 60C14.35 60 14.75 60.4 14.75 61C14.75 62.7 13.45 64 11.75 64Z" fill="#1600FF"/>
<path d="M53.75 64C52.05 64 50.75 62.7 50.75 61C50.75 60.4 51.15 60 51.75 60C52.35 60 52.75 60.4 52.75 61C52.75 61.6 53.15 62 53.75 62C54.35 62 54.75 61.6 54.75 61C54.75 60.4 55.15 60 55.75 60C56.35 60 56.75 60.4 56.75 61C56.75 62.7 55.45 64 53.75 64Z" fill="#1600FF"/>
<path d="M63.75 59H60.75C60.15 59 59.75 58.6 59.75 58C59.75 57.4 60.15 57 60.75 57H62.75V25C62.75 12.3 52.45 2 39.75 2H25.75C13.15 2 2.75 12.4 2.75 25V57H4.75C5.35 57 5.75 57.4 5.75 58C5.75 58.6 5.35 59 4.75 59H1.75C1.15 59 0.75 58.6 0.75 58V25C0.75 11.3 12.05 0 25.75 0H39.75C53.55 0 64.75 11.2 64.75 25V58C64.75 58.6 64.35 59 63.75 59Z" fill="#1600FF"/>
<path d="M32.75 6C32.15 6 31.75 5.6 31.75 5V1C31.75 0.4 32.15 0 32.75 0C33.35 0 33.75 0.4 33.75 1V5C33.75 5.6 33.35 6 32.75 6Z" fill="#1600FF"/>
<path d="M37.75 6H27.75C27.15 6 26.75 5.6 26.75 5C26.75 4.4 27.15 4 27.75 4H37.75C38.35 4 38.75 4.4 38.75 5C38.75 5.6 38.35 6 37.75 6Z" fill="#1600FF"/>
</svg>
