<svg width="64" height="64" viewBox="0 0 64 64" fill="none" xmlns="http://www.w3.org/2000/svg">
<path d="M36.8756 28.8248V20.7373H40.4006L31.7506 12.2373L23.1006 20.7373H26.6256V28.8248H36.8756V28.8248ZM34.8256 26.7748H28.6756V20.7373H34.8256V26.7748ZM31.7506 15.0998L35.3881 18.6873H28.1006L31.7506 15.0998Z" fill="#1600FF"/>
<path d="M63.5 55.5624H57.35V51.4624H46.3125L44.2625 59.6499H20.05L15.9625 52.4874H0V54.5374H6.15V63.7499H8.1875V54.5374H14.775L18.8625 61.6999H45.8625L47.9125 53.5124H55.3125V63.7499H57.35V57.5999H63.5V55.5624Z" fill="#1600FF"/>
<path d="M46.0881 20.7374C46.0881 12.8249 39.6506 6.3999 31.7506 6.3999C23.8506 6.3999 17.4131 12.8374 17.4131 20.7374C17.4131 28.6374 23.8381 35.0749 31.7506 35.0749C39.6631 35.0749 46.0881 28.6374 46.0881 20.7374ZM19.4631 20.7374C19.4631 13.9624 24.9756 8.4499 31.7506 8.4499C38.5256 8.4499 44.0381 13.9624 44.0381 20.7374C44.0381 27.5124 38.5256 33.0249 31.7506 33.0249C24.9756 33.0249 19.4631 27.5124 19.4631 20.7374Z" fill="#1600FF"/>
<path d="M31.7502 58.25C31.7502 58.25 52.2377 32.025 52.2377 20.7375C52.2377 9.4375 43.0502 0.25 31.7502 0.25C20.4502 0.25 11.2627 9.4375 11.2627 20.7375C11.2627 32.125 31.7502 58.25 31.7502 58.25ZM31.7502 2.3C41.9127 2.3 50.1877 10.575 50.1877 20.7375C50.1877 29.7875 35.4127 50.025 31.7502 54.8875C28.0877 50.025 13.3127 29.7875 13.3127 20.7375C13.3127 10.5625 21.5877 2.3 31.7502 2.3Z" fill="#1600FF"/>
<path d="M32.7756 22.7876H30.7256V24.8376H32.7756V22.7876Z" fill="#1600FF"/>
<path d="M32.7756 38.1499H30.7256V40.1999H32.7756V38.1499Z" fill="#1600FF"/>
<path d="M32.7756 42.2373H30.7256V44.2873H32.7756V42.2373Z" fill="#1600FF"/>
<path d="M32.7756 46.3374H30.7256V48.3874H32.7756V46.3374Z" fill="#1600FF"/>
</svg>
