<svg width="61" height="60" viewBox="0 0 61 60" fill="none" xmlns="http://www.w3.org/2000/svg">
<path d="M28.75 29H26.75V31H28.75V29Z" fill="#9CAFC8"/>
<path d="M32.75 29H30.75V31H32.75V29Z" fill="#9CAFC8"/>
<path d="M24.75 29H22.75V31H24.75V29Z" fill="#9CAFC8"/>
<path d="M28.75 33H26.75V35H28.75V33Z" fill="#9CAFC8"/>
<path d="M32.75 33H30.75V35H32.75V33Z" fill="#9CAFC8"/>
<path d="M24.75 33H22.75V35H24.75V33Z" fill="#9CAFC8"/>
<path d="M28.75 37H26.75V39H28.75V37Z" fill="#9CAFC8"/>
<path d="M32.75 37H30.75V39H32.75V37Z" fill="#9CAFC8"/>
<path d="M24.75 37H22.75V39H24.75V37Z" fill="#9CAFC8"/>
<path d="M28.75 41H26.75V43H28.75V41Z" fill="#9CAFC8"/>
<path d="M32.75 41H30.75V43H32.75V41Z" fill="#9CAFC8"/>
<path d="M24.75 41H22.75V43H24.75V41Z" fill="#9CAFC8"/>
<path d="M28.75 25H26.75V27H28.75V25Z" fill="#9CAFC8"/>
<path d="M32.75 25H30.75V27H32.75V25Z" fill="#9CAFC8"/>
<path d="M24.75 25H22.75V27H24.75V25Z" fill="#9CAFC8"/>
<path d="M28.75 21H26.75V23H28.75V21Z" fill="#9CAFC8"/>
<path d="M32.75 21H30.75V23H32.75V21Z" fill="#9CAFC8"/>
<path d="M24.75 21H22.75V23H24.75V21Z" fill="#9CAFC8"/>
<path d="M28.75 17H26.75V19H28.75V17Z" fill="#9CAFC8"/>
<path d="M32.75 17H30.75V19H32.75V17Z" fill="#9CAFC8"/>
<path d="M24.75 17H22.75V19H24.75V17Z" fill="#9CAFC8"/>
<path d="M28.75 13H26.75V15H28.75V13Z" fill="#9CAFC8"/>
<path d="M32.75 13H30.75V15H32.75V13Z" fill="#9CAFC8"/>
<path d="M24.75 13H22.75V15H24.75V13Z" fill="#9CAFC8"/>
<path d="M46.75 23H38.75V25H46.75V23Z" fill="#9CAFC8"/>
<path d="M46.75 27H38.75V29H46.75V27Z" fill="#9CAFC8"/>
<path d="M46.75 31H38.75V33H46.75V31Z" fill="#9CAFC8"/>
<path d="M16.75 27H8.75V29H16.75V27Z" fill="#9CAFC8"/>
<path d="M16.75 31H8.75V33H16.75V31Z" fill="#9CAFC8"/>
<path d="M16.75 35H8.75V37H16.75V35Z" fill="#9CAFC8"/>
<path d="M16.75 39H8.75V41H16.75V39Z" fill="#9CAFC8"/>
<path d="M16.75 43H8.75V45H16.75V43Z" fill="#9CAFC8"/>
<path d="M16.75 47H8.75V49H16.75V47Z" fill="#9CAFC8"/>
<path d="M47.75 44C48.0152 44 48.2696 44.1054 48.4571 44.2929C48.6446 44.4804 48.75 44.7348 48.75 45H50.75C50.7474 44.3817 50.5539 43.7794 50.1959 43.2753C49.8379 42.7712 49.3329 42.3901 48.75 42.184V41H46.75V42.184C46.0833 42.4188 45.5213 42.882 45.1634 43.4915C44.8055 44.1011 44.6748 44.8176 44.7946 45.5142C44.9144 46.2108 45.2768 46.8425 45.8178 47.2975C46.3587 47.7525 47.0432 48.0013 47.75 48C47.9478 48 48.1411 48.0586 48.3056 48.1685C48.47 48.2784 48.5982 48.4346 48.6739 48.6173C48.7496 48.8 48.7694 49.0011 48.7308 49.1951C48.6922 49.3891 48.597 49.5673 48.4571 49.7071C48.3173 49.847 48.1391 49.9422 47.9451 49.9808C47.7511 50.0194 47.55 49.9996 47.3673 49.9239C47.1846 49.8482 47.0284 49.72 46.9185 49.5556C46.8086 49.3911 46.75 49.1978 46.75 49H44.75C44.7526 49.6183 44.9461 50.2206 45.3041 50.7247C45.6621 51.2288 46.1671 51.6099 46.75 51.816V53H48.75V51.816C49.4167 51.5812 49.9787 51.118 50.3366 50.5085C50.6945 49.8989 50.8252 49.1824 50.7054 48.4858C50.5856 47.7892 50.2232 47.1575 49.6822 46.7025C49.1413 46.2475 48.4568 45.9987 47.75 46C47.4848 46 47.2304 45.8946 47.0429 45.7071C46.8554 45.5196 46.75 45.2652 46.75 45C46.75 44.7348 46.8554 44.4804 47.0429 44.2929C47.2304 44.1054 47.4848 44 47.75 44Z" fill="#9CAFC8"/>
<path d="M47.75 37C45.7722 37 43.8388 37.5865 42.1943 38.6853C40.5498 39.7841 39.2681 41.3459 38.5112 43.1732C37.7543 45.0004 37.5563 47.0111 37.9422 48.9509C38.328 50.8907 39.2804 52.6725 40.6789 54.0711C42.0775 55.4696 43.8593 56.422 45.7991 56.8079C47.7389 57.1937 49.7496 56.9957 51.5768 56.2388C53.4041 55.4819 54.9659 54.2002 56.0647 52.5557C57.1635 50.9112 57.75 48.9778 57.75 47C57.7471 44.3487 56.6926 41.8069 54.8179 39.9321C52.9431 38.0574 50.4013 37.0029 47.75 37V37ZM47.75 55C46.1678 55 44.621 54.5308 43.3054 53.6518C41.9899 52.7727 40.9645 51.5233 40.359 50.0615C39.7535 48.5997 39.595 46.9911 39.9037 45.4393C40.2124 43.8874 40.9743 42.462 42.0932 41.3431C43.212 40.2243 44.6374 39.4624 46.1893 39.1537C47.7411 38.845 49.3497 39.0035 50.8115 39.609C52.2733 40.2145 53.5227 41.2398 54.4018 42.5554C55.2808 43.871 55.75 45.4177 55.75 47C55.7476 49.121 54.904 51.1544 53.4042 52.6542C51.9045 54.154 49.871 54.9976 47.75 55V55Z" fill="#9CAFC8"/>
<path d="M50.75 34.363V21H52.75V19H36.75V10C36.75 9.73478 36.6446 9.48043 36.4571 9.29289C36.2696 9.10536 36.0152 9 35.75 9H33.75V6C33.75 5.73478 33.6446 5.48043 33.4571 5.29289C33.2696 5.10536 33.0152 5 32.75 5H28.75V0H26.75V5H22.75C22.4848 5 22.2304 5.10536 22.0429 5.29289C21.8554 5.48043 21.75 5.73478 21.75 6V9H19.75C19.4848 9 19.2304 9.10536 19.0429 9.29289C18.8554 9.48043 18.75 9.73478 18.75 10V23H2.75V25H4.75V55H0.75V57H39.455C40.9614 58.2519 42.7314 59.1469 44.6325 59.6183C46.5336 60.0896 48.5167 60.1251 50.4335 59.7219C52.3503 59.3188 54.1511 58.4875 55.7012 57.2902C57.2514 56.093 58.5108 54.5607 59.3853 52.8081C60.2598 51.0555 60.7268 49.1278 60.7512 47.1693C60.7756 45.2107 60.357 43.272 59.5265 41.4981C58.696 39.7242 57.4752 38.161 55.9554 36.9254C54.4356 35.6898 52.6561 34.8139 50.75 34.363ZM48.75 21V34.051C48.419 34.025 48.088 34 47.75 34C45.55 34.0023 43.3866 34.5633 41.4627 35.6302C39.5387 36.6971 37.9171 38.2351 36.75 40.1V21H48.75ZM23.75 7H31.75V9H23.75V7ZM6.75 25H18.75V55H6.75V25ZM20.75 11H34.75V55H32.75V48C32.75 47.7348 32.6446 47.4804 32.4571 47.2929C32.2696 47.1054 32.0152 47 31.75 47H23.75C23.4848 47 23.2304 47.1054 23.0429 47.2929C22.8554 47.4804 22.75 47.7348 22.75 48V55H20.75V11ZM24.75 55V49H30.75V55H24.75ZM36.75 53.9C36.989 54.2799 37.2477 54.6471 37.525 55H36.75V53.9ZM47.75 58C45.5744 58 43.4477 57.3549 41.6387 56.1462C39.8298 54.9375 38.4199 53.2195 37.5873 51.2095C36.7548 49.1995 36.5369 46.9878 36.9614 44.854C37.3858 42.7202 38.4334 40.7602 39.9718 39.2218C41.5102 37.6834 43.4702 36.6358 45.604 36.2114C47.7378 35.7869 49.9495 36.0048 51.9595 36.8373C53.9695 37.6699 55.6875 39.0798 56.8962 40.8887C58.1049 42.6977 58.75 44.8244 58.75 47C58.7466 49.9163 57.5865 52.7122 55.5244 54.7744C53.4622 56.8365 50.6663 57.9966 47.75 58Z" fill="#9CAFC8"/>
<path d="M54.75 46H52.75V48H54.75V46Z" fill="#9CAFC8"/>
<path d="M42.75 46H40.75V48H42.75V46Z" fill="#9CAFC8"/>
</svg>
