<svg width="63" height="62" viewBox="0 0 63 62" fill="none" xmlns="http://www.w3.org/2000/svg">
<path d="M62.75 13.477V6.323L46.943 0H44.558L28.75 6.323V13.476L32.75 11.876V15H0.75V35H2.75V54H0.75V62H37.75H38.75H52.75H53.75H62.75V54H58.75V11.877L62.75 13.477ZM30.75 7.677L44.942 2H46.558L60.75 7.677V10.524L46.943 5H44.558L30.75 10.523V7.677ZM2.75 17H32.75V33H2.75V17ZM4.75 35H32.75V54H4.75V35ZM36.75 60H34.75V58H32.75V60H30.75V58H28.75V60H22.75V58H20.75V60H18.75V58H16.75V60H14.75V58H12.75V60H10.75V58H8.75V60H6.75V58H4.75V60H2.75V56H32.75H36.75V60ZM38.75 60V56H52.75V58V60H38.75ZM38.75 38V36H52.75V38H38.75ZM50.75 40V54H40.75V40H50.75ZM60.75 56V60H58.75V58H56.75V60H54.75V58V56H58.75H60.75ZM56.75 54H52.75V40H54.75V34H36.75V40H38.75V54H34.75V11.077L44.942 7H46.558L56.75 11.077V54Z" fill="#1600FF"/>
<path d="M44.75 19C44.75 16.794 42.956 15 40.75 15C38.544 15 36.75 16.794 36.75 19V28H44.75V19ZM42.75 26H38.75V19C38.75 17.897 39.647 17 40.75 17C41.853 17 42.75 17.897 42.75 19V26Z" fill="#1600FF"/>
<path d="M54.75 19C54.75 16.794 52.956 15 50.75 15C48.544 15 46.75 16.794 46.75 19V28H54.75V19ZM52.75 26H48.75V19C48.75 17.897 49.647 17 50.75 17C51.853 17 52.75 17.897 52.75 19V26Z" fill="#1600FF"/>
<path d="M12.75 38C10.544 38 8.75 39.794 8.75 42V51H16.75V42C16.75 39.794 14.956 38 12.75 38ZM14.75 49H10.75V42C10.75 40.897 11.647 40 12.75 40C13.853 40 14.75 40.897 14.75 42V49Z" fill="#1600FF"/>
<path d="M24.75 38C22.544 38 20.75 39.794 20.75 42V51H28.75V42C28.75 39.794 26.956 38 24.75 38ZM26.75 49H22.75V42C22.75 40.897 23.647 40 24.75 40C25.853 40 26.75 40.897 26.75 42V49Z" fill="#1600FF"/>
<path d="M54.75 30H36.75V32H54.75V30Z" fill="#1600FF"/>
</svg>
