<svg width="18" height="18" viewBox="0 0 18 18" fill="none" xmlns="http://www.w3.org/2000/svg">
<path fill-rule="evenodd" clip-rule="evenodd" d="M0.63 1.7025C0.24 1.3125 0.24 0.6825 0.63 0.2925C1.03 -0.0975 1.66 -0.0975 2.05 0.2925L17.36 15.6125C17.75 16.0025 17.75 16.6325 17.36 17.0225C16.97 17.4125 16.34 17.4125 15.95 17.0225L14.61 15.6825C13.94 16.2225 13.19 16.6625 12.39 16.9925C11.73 17.2625 11 16.8025 11 16.0825C11 15.6925 11.22 15.3125 11.58 15.1625C12.16 14.9325 12.69 14.6225 13.18 14.2525L9 10.0725V14.2425C9 15.1325 7.92 15.5825 7.29 14.9525L4 11.6625H1C0.45 11.6625 0 11.2125 0 10.6625V6.6625C0 6.1125 0.45 5.6625 1 5.6625H4L4.29 5.3625L0.63 1.7025ZM15.59 11.0025C15.85 10.2725 16 9.4825 16 8.6625C16 5.7225 14.18 3.2025 11.61 2.1625C11.25 2.0225 11 1.6925 11 1.3125V1.1225C11 0.492499 11.63 0.0324992 12.22 0.262499C15.6 1.5525 18 4.8325 18 8.6625C18 10.0525 17.68 11.3625 17.12 12.5325L15.59 11.0025ZM7.29 2.3725L7.12 2.5425L9 4.4225V3.0725C9 2.1825 7.92 1.7425 7.29 2.3725ZM11 4.63251C12.48 5.37251 13.5 6.89251 13.5 8.66251C13.5 8.74251 13.49 8.82251 13.48 8.90251L11 6.42251V4.63251Z" fill="#1600FF"/>
</svg>
