<svg width="32" height="32" viewBox="0 0 32 32" fill="none" xmlns="http://www.w3.org/2000/svg">
<path fill-rule="evenodd" clip-rule="evenodd" d="M2.11711 23.0397C2.2656 23.2579 2.56352 23.3144 2.77951 23.1653L3.95953 22.3581V31.5221C3.95953 31.786 4.17273 32 4.4362 32H19.2776H29.3364C29.5999 32 29.8131 31.786 29.8131 31.5221V17.2838H31.5233C31.7868 17.2838 32 17.0698 32 16.8059V14.4446C32 14.1807 31.7868 13.9668 31.5233 13.9668H27.3902V8.31846L28.7602 6.30592C28.8314 6.20139 28.8584 6.07259 28.8346 5.948C28.8114 5.8234 28.7392 5.71327 28.6349 5.64187L20.5083 0.0830647C20.3463 -0.0275326 20.1331 -0.0275326 19.9712 0.0830647L11.8445 5.64187C11.6272 5.79073 11.5708 6.08799 11.7193 6.30592L13.0888 8.3184V12.2621L12.1252 11.6029C11.9632 11.4923 11.7501 11.4923 11.5881 11.6029L10.2121 12.5442V0.477856C10.2121 0.213962 9.99886 0 9.73539 0H7.85107C7.5876 0 7.3744 0.213962 7.3744 0.477856V0.906479H1.64556C1.38209 0.906479 1.16889 1.12044 1.16889 1.38433V6.20466C1.16889 6.46855 1.38209 6.68251 1.64556 6.68251H7.3744V14.4852L0.208113 19.3872C0.103843 19.4586 0.031691 19.5688 0.0084163 19.6933C-0.0153241 19.8179 0.0116748 19.9467 0.0828954 20.0513L2.11711 23.0397ZM14.3292 31.0441H9.38382V25.9639H10.0867V28.9881C10.0867 29.252 10.2999 29.4659 10.5634 29.4659C10.8268 29.4659 11.04 29.252 11.04 28.9881V25.486C11.04 25.2221 10.8268 25.0082 10.5634 25.0082H9.38382V23.2407H14.3292V31.0441ZM15.2824 31.0439H18.8006V21.7059L11.8563 16.9556L4.91255 21.7055V31.0439H8.43029V22.7626C8.43029 22.4987 8.64349 22.2848 8.90696 22.2848H14.8057C15.0692 22.2848 15.2824 22.4987 15.2824 22.7626V31.0439ZM28.8596 27.7278H25.5471V23.9868H28.8596V27.7278ZM25.0704 23.0308H28.8595V17.2837H20.4298L23.5049 19.3871C23.6092 19.4585 23.6813 19.5687 23.7046 19.6933C23.7283 19.8179 23.7013 19.9467 23.6301 20.0512L21.5959 23.0397C21.5037 23.1752 21.3538 23.2483 21.2016 23.2483C21.109 23.2483 21.0154 23.2214 20.9335 23.1652L19.7539 22.3583V31.0442H28.8595V28.6832H25.0704C24.8069 28.6832 24.5937 28.4692 24.5937 28.2053V23.5086C24.5937 23.2448 24.8069 23.0308 25.0704 23.0308ZM31.0467 14.9224V16.3279H19.033L16.9782 14.9224H31.0467ZM14.0421 12.9142L15.581 13.9668H26.4368V8.42342L20.2397 4.18408L14.0421 8.42342V12.9142ZM12.7753 6.16207L20.2395 1.05615L27.7037 6.16184L26.788 7.50674L20.5081 3.2107C20.4271 3.1554 20.3335 3.12764 20.2395 3.12764C20.1454 3.12764 20.0519 3.1554 19.9709 3.2107L13.6904 7.50674L12.7753 6.16207ZM9.25836 0.955566H8.32737V13.833L9.25836 13.1961V0.955566ZM2.12215 5.72692V1.8623H7.37432V5.72692H2.12215ZM22.5739 19.9073L11.8563 12.5762L1.13876 19.9073L2.63579 22.1065L11.5877 15.9828C11.6687 15.9275 11.7623 15.8997 11.8563 15.8997C11.9503 15.8997 12.0439 15.9275 12.1249 15.9828L21.0768 22.1065L22.5739 19.9073Z" fill="#0073FF"/>
<path fill-rule="evenodd" clip-rule="evenodd" d="M22.5258 7.41602H17.9537C17.6902 7.41602 17.4771 7.62998 17.4771 7.89387V11.3077C17.4771 11.5716 17.6902 11.7855 17.9537 11.7855H22.5258C22.7893 11.7855 23.0025 11.5716 23.0025 11.3077V7.89387C23.0025 7.62998 22.7893 7.41602 22.5258 7.41602ZM19.7628 10.8297H18.4301V8.37158H19.7628V10.8297ZM20.7164 10.8297H22.0491V8.37158H20.7164V10.8297Z" fill="#0073FF"/>
</svg>
