<svg width="71" height="71" viewBox="0 0 71 71" fill="none" xmlns="http://www.w3.org/2000/svg">
<path d="M69.8982 13.2997C70.5067 13.2997 71 12.8065 71 12.198V6.64987C71 4.88121 70.3115 3.21102 69.0572 1.94272C68.2514 1.13686 67.2562 0.557096 66.1565 0.248588C65.9667 0.0933093 65.7242 0 65.4597 0H64.3501H17.7461C14.0793 0 11.0962 2.98312 11.0962 6.64987V57.7003H1.10176C0.493315 57.7003 0 58.1935 0 58.802V64.3501C0 66.1189 0.688366 67.7891 1.94278 69.0573C2.86196 69.9764 4.02711 70.6014 5.31255 70.8652C5.72419 70.9547 6.17416 71 6.64987 71H12.198H43.2673H69.8982C70.3439 71 70.7456 70.7315 70.9162 70.3198C71.0867 69.9082 70.9924 69.4342 70.6774 69.1192L66.5615 65.0034V48.8154C66.5615 43.8952 64.0252 39.296 59.9038 36.6586V13.2997H69.8982ZM68.7965 6.64987V11.0962H59.9038V6.64987C59.9038 4.19812 61.8985 2.20353 64.3501 2.20353C64.6709 2.20353 64.9649 2.23231 65.2243 2.289C65.2293 2.29015 65.2344 2.29117 65.2394 2.29218C66.1034 2.46854 66.8847 2.88648 67.4948 3.49648C68.3342 4.34529 68.7965 5.46514 68.7965 6.64987ZM13.2997 6.64987C13.2997 4.19812 15.2944 2.20353 17.7461 2.20353H59.4094C59.359 2.25947 59.3104 2.31707 59.262 2.37471C59.2475 2.39186 59.2324 2.40833 59.2181 2.42564C59.1526 2.50508 59.0889 2.58611 59.027 2.6686C59.01 2.69126 58.9942 2.71479 58.9775 2.73768C58.9334 2.79809 58.8895 2.85864 58.8474 2.92058C58.8253 2.95302 58.8046 2.98641 58.7831 3.01925C58.748 3.07286 58.7128 3.12639 58.6792 3.18107C58.6567 3.21786 58.6353 3.25548 58.6134 3.29273C58.5829 3.34474 58.5523 3.39669 58.5231 3.44958C58.5013 3.48917 58.4806 3.52943 58.4595 3.56953C58.4323 3.62144 58.4052 3.67338 58.3792 3.72609C58.3588 3.76766 58.3393 3.80972 58.3197 3.85176C58.2953 3.90423 58.2712 3.95683 58.2481 4.01001C58.2293 4.05316 58.2113 4.09665 58.1935 4.14025C58.1717 4.1936 58.1504 4.24719 58.1299 4.3012C58.1131 4.34556 58.0969 4.39013 58.081 4.43491C58.0617 4.48938 58.0432 4.54417 58.0252 4.5993C58.0105 4.64457 57.9961 4.68996 57.9823 4.73568C57.9655 4.79157 57.9497 4.84785 57.9343 4.90435C57.9219 4.95012 57.9094 4.99585 57.8979 5.04199C57.8835 5.09982 57.8704 5.15814 57.8575 5.21657C57.8475 5.26225 57.8371 5.30781 57.828 5.35383C57.816 5.41412 57.8057 5.47496 57.7954 5.53581C57.7878 5.58085 57.7796 5.62572 57.7729 5.67106C57.7634 5.73508 57.7559 5.79969 57.7482 5.86428C57.7432 5.90718 57.7372 5.94982 57.733 5.99299C57.7259 6.06505 57.7212 6.13777 57.7164 6.21049C57.714 6.24683 57.7105 6.28284 57.7087 6.31933C57.7032 6.42888 57.7003 6.53903 57.7003 6.64987V12.198V35.5033C57.6947 35.5009 57.6891 35.4988 57.6835 35.4965C57.6595 35.4866 57.6352 35.4773 57.6111 35.4674C57.5038 35.4236 57.396 35.3811 57.2876 35.3399C57.2457 35.3239 57.2035 35.3084 57.1614 35.2928C57.0638 35.2568 56.9658 35.2219 56.8675 35.188C56.8296 35.1749 56.7918 35.1615 56.7538 35.1487C56.6207 35.1041 56.4871 35.0611 56.3528 35.0203C56.3324 35.0142 56.312 35.0086 56.2916 35.0026C56.176 34.9681 56.0599 34.9351 55.9434 34.9035C55.9007 34.8919 55.8577 34.8808 55.8148 34.8696C55.7142 34.8433 55.6133 34.8182 55.5121 34.7941C55.4722 34.7846 55.4325 34.7748 55.3925 34.7656C55.2551 34.7341 55.1172 34.7042 54.9788 34.6767C54.9635 34.6736 54.9481 34.6711 54.9328 34.6681C54.8088 34.6439 54.6844 34.6215 54.5596 34.6005C54.5161 34.5931 54.4726 34.5863 54.4291 34.5794C54.3262 34.5631 54.2231 34.5479 54.1199 34.5338C54.0785 34.5281 54.0372 34.5222 53.9957 34.5169C53.8549 34.4988 53.7139 34.4822 53.5724 34.4683C53.5638 34.4675 53.5551 34.4669 53.5465 34.4661C53.4132 34.4532 53.2795 34.4426 53.1457 34.4333C53.1027 34.4304 53.0596 34.428 53.0165 34.4254C52.9116 34.4191 52.8065 34.414 52.7012 34.41C52.6588 34.4083 52.6164 34.4065 52.574 34.4052C52.4309 34.401 52.2878 34.3982 52.1443 34.3982H51.913L56.4075 27.207C56.6794 26.7719 56.615 26.2067 56.2521 25.8439C54.839 24.4308 52.6678 24.2256 51.0347 25.2286C49.6788 24.3959 47.9521 24.3959 46.5962 25.2286C45.2403 24.3959 43.5136 24.3959 42.1577 25.2286C40.5244 24.2256 38.3533 24.4308 36.9403 25.8439C36.5774 26.2067 36.513 26.7719 36.7849 27.207L41.2795 34.3982H41.0481C40.8664 34.3982 40.6852 34.4022 40.5045 34.4088C40.4455 34.411 40.3869 34.415 40.328 34.4178C40.2061 34.4238 40.0842 34.4303 39.9629 34.4392C39.8941 34.4443 39.8256 34.4507 39.7571 34.4568C39.6454 34.4666 39.534 34.4772 39.4229 34.4896C39.3519 34.4975 39.2811 34.5061 39.2103 34.515C39.1008 34.5289 38.9917 34.544 38.8828 34.5603C38.8132 34.5707 38.7438 34.5811 38.6745 34.5925C38.5619 34.611 38.4497 34.6315 38.3378 34.6527C38.2739 34.6648 38.2098 34.6762 38.1462 34.6891C38.0175 34.7153 37.8894 34.744 37.7616 34.7737C37.7161 34.7842 37.6702 34.7936 37.6248 34.8046C37.4518 34.8465 37.2797 34.8915 37.1086 34.9399C37.0737 34.9497 37.0393 34.9609 37.0046 34.971C36.8688 35.0105 36.7334 35.0513 36.5989 35.0947C36.5398 35.1139 36.4812 35.1345 36.4223 35.1544C36.3126 35.1915 36.203 35.2292 36.0942 35.2689C36.0295 35.2926 35.9652 35.3172 35.9009 35.3418C35.7981 35.3811 35.6956 35.4213 35.5936 35.463C35.5285 35.4896 35.4635 35.5166 35.3987 35.5442C35.2971 35.5876 35.196 35.6324 35.0953 35.6781C35.0329 35.7064 34.9704 35.7345 34.9084 35.7637C34.8018 35.814 34.6961 35.8663 34.5906 35.9192C34.5364 35.9464 34.4818 35.9728 34.4279 36.0007C34.2935 36.0704 34.1602 36.1427 34.0276 36.2167C34.004 36.2299 33.98 36.2422 33.9564 36.2555C33.8099 36.3384 33.6646 36.4239 33.5206 36.5122C33.4966 36.4791 33.4712 36.447 33.4466 36.4142C33.4228 36.3826 33.3994 36.3508 33.375 36.3196C33.3403 36.275 33.3043 36.2313 33.2684 36.1875C33.2437 36.1574 33.2195 36.1269 33.1943 36.0972C33.1546 36.0503 33.1134 36.0045 33.0723 35.9586C33.0497 35.9333 33.0278 35.9075 33.0047 35.8825C32.94 35.8123 32.8739 35.7431 32.806 35.6752C32.7857 35.6549 32.7654 35.636 32.7445 35.6173C32.7268 35.6015 32.7088 35.5857 32.6892 35.5693C31.6229 34.4972 30.2689 33.8144 28.7975 33.5925C28.4579 33.5413 28.1121 33.5146 27.7622 33.5133C27.7535 33.5133 27.7451 33.5133 27.7363 33.5133C26.0975 33.5133 24.5459 34.0705 23.2973 35.0963C23.1189 35.2428 22.9467 35.3989 22.7814 35.5643L22.6706 35.6751C20.9178 37.4278 20.2018 39.9221 20.7559 42.3506L22.72 50.8391C22.7735 51.0703 22.8018 51.303 22.8062 51.5337C22.8164 52.0722 22.6959 52.6004 22.4589 53.0766C22.2558 53.4848 21.9672 53.8547 21.6018 54.1602L17.3476 57.7003H16.6364H13.2997V6.64987ZM46.5969 34.3982C46.5964 34.3982 46.596 34.3982 46.5955 34.3982H43.878L39.2156 26.9383C39.9417 26.6637 40.7948 26.8184 41.3787 27.4022C41.8089 27.8323 42.5065 27.8323 42.9367 27.4022C43.731 26.608 45.0229 26.608 45.8172 27.4022C46.2474 27.8323 46.945 27.8323 47.3752 27.4022C48.1695 26.608 49.4614 26.608 50.2557 27.4022C50.6859 27.8323 51.3835 27.8323 51.8137 27.4022C52.3976 26.8184 53.2505 26.6637 53.9768 26.9383L49.3144 34.3982H46.5969ZM39.9463 61.0213V62.1387H15.519V61.0213C15.519 60.4051 16.0203 59.9038 16.6364 59.9038H17.7461H37.7192H38.8289C39.445 59.9038 39.9463 60.4051 39.9463 61.0213ZM30.5983 50.3425C30.5096 50.7263 30.4624 51.1123 30.4551 51.4952C30.4307 52.7715 30.8484 54.0127 31.6411 55.0182C31.8789 55.3198 32.1505 55.6002 32.454 55.854L34.6727 57.7003H20.7926L23.0134 55.8523C23.3165 55.5988 23.5878 55.3187 23.8253 55.0173C24.6172 54.0125 25.0346 52.7715 25.0101 51.4952C25.0028 51.1123 24.9556 50.7263 24.8669 50.3425L22.9035 41.8571C22.5438 40.2804 22.9565 38.6627 24.0096 37.4667C24.0798 37.387 24.1528 37.3092 24.2287 37.2333L24.3396 37.1224C25.2463 36.2156 26.4521 35.7168 27.7366 35.7168C27.7425 35.7168 27.7485 35.7169 27.7543 35.7169C29.0398 35.7215 30.243 36.2265 31.1464 37.143C31.1846 37.1813 31.222 37.2146 31.2658 37.2514C31.6383 37.6281 31.9518 38.0747 32.1733 38.5443C32.1764 38.5507 32.1794 38.5571 32.1825 38.5634C32.6799 39.5673 32.8144 40.7379 32.5623 41.8539L30.5983 50.3425ZM5.7758 68.7109C5.77065 68.7098 5.76564 68.7088 5.76049 68.7077C4.89672 68.5315 4.11529 68.1135 3.50508 67.5034C2.66583 66.6548 2.20353 65.5349 2.20353 64.3501V59.9038H12.198H13.5089C13.5066 59.9102 13.505 59.9169 13.5028 59.9233C13.4764 59.9985 13.4526 60.0749 13.4315 60.1524C13.4292 60.161 13.4265 60.1695 13.4242 60.1781C13.4032 60.258 13.3858 60.3394 13.3707 60.4215C13.3679 60.4369 13.3651 60.4523 13.3624 60.4677C13.3487 60.5491 13.3378 60.6313 13.3301 60.7145C13.3289 60.7286 13.328 60.7428 13.3269 60.757C13.32 60.8443 13.3154 60.9322 13.3154 61.0213V62.3266C13.3109 62.3282 13.3066 62.3303 13.3021 62.3319C13.2316 62.3571 13.1623 62.3847 13.0941 62.4145C13.0802 62.4206 13.0665 62.427 13.0527 62.4333C12.9889 62.4621 12.926 62.4926 12.8644 62.5254C12.8579 62.5288 12.8512 62.532 12.8446 62.5355C12.7789 62.571 12.7148 62.6092 12.6517 62.6489C12.6379 62.6576 12.6242 62.6665 12.6105 62.6754C12.5478 62.7162 12.4861 62.7585 12.4264 62.8033C12.4228 62.8061 12.4193 62.809 12.4157 62.8118C12.3587 62.8549 12.3036 62.9003 12.2495 62.947C12.2379 62.957 12.2262 62.9669 12.2147 62.9771C12.1597 63.026 12.1061 63.0765 12.0544 63.1289C12.0458 63.1377 12.0375 63.1467 12.029 63.1556C11.9822 63.204 11.9369 63.2539 11.8931 63.3051C11.8853 63.3142 11.8773 63.323 11.8696 63.3322C11.8224 63.3887 11.7772 63.447 11.7336 63.5066C11.7245 63.5191 11.7156 63.5319 11.7067 63.5445C11.6649 63.6035 11.6245 63.6634 11.5866 63.7251C11.5846 63.7282 11.5825 63.7313 11.5806 63.7344C11.5415 63.7984 11.5052 63.8643 11.4705 63.931C11.4629 63.9456 11.4554 63.9602 11.448 63.9749C11.4144 64.0417 11.3825 64.1095 11.3535 64.1788C11.3503 64.1863 11.3475 64.1941 11.3444 64.2016C11.318 64.266 11.2938 64.3315 11.2713 64.3978C11.2664 64.4124 11.2613 64.4268 11.2565 64.4415C11.2336 64.5127 11.2128 64.5849 11.1946 64.6581C11.1911 64.6723 11.188 64.6866 11.1847 64.7009C11.1689 64.7682 11.1551 64.8362 11.1434 64.905C11.1415 64.9162 11.1392 64.9272 11.1374 64.9383C11.1255 65.014 11.1166 65.0906 11.1098 65.1678C11.1083 65.1853 11.107 65.2027 11.1058 65.2202C11.1001 65.2994 11.0962 65.3791 11.0962 65.4597V68.7965H6.64987C6.32925 68.7965 6.03519 68.7677 5.7758 68.7109ZM13.2997 65.4597C13.2997 64.8436 13.801 64.3423 14.4172 64.3423H41.0481C41.6643 64.3423 42.1656 64.8436 42.1656 65.4597V68.7965H13.2997V65.4597ZM64.358 48.8154V64.358H62.1309C61.5224 64.358 61.0291 64.8512 61.0291 65.4597C61.0291 66.0683 61.5224 66.5615 62.1309 66.5615H65.0033L67.2384 68.7965H44.3691V65.4597C44.3691 65.3791 44.3652 65.2994 44.3595 65.2202C44.3583 65.2027 44.3571 65.1853 44.3555 65.1678C44.3488 65.0906 44.3398 65.014 44.3279 64.9383C44.3261 64.9272 44.3238 64.9162 44.3219 64.905C44.3103 64.8362 44.2964 64.7682 44.2806 64.7009C44.2773 64.6866 44.2742 64.6723 44.2707 64.6581C44.2525 64.5849 44.2318 64.5127 44.2088 64.4415C44.204 64.4268 44.1989 64.4124 44.194 64.3978C44.1715 64.3315 44.1473 64.266 44.1209 64.2016C44.1178 64.1941 44.115 64.1863 44.1119 64.1788C44.0828 64.1095 44.0509 64.0417 44.0173 63.9749C44.01 63.9602 44.0024 63.9456 43.9949 63.931C43.9601 63.8643 43.9238 63.7984 43.8847 63.7344C43.8828 63.7313 43.8807 63.7282 43.8787 63.7251C43.8408 63.6634 43.8004 63.6035 43.7587 63.5445C43.7497 63.5319 43.7408 63.5191 43.7317 63.5066C43.6882 63.447 43.6429 63.3887 43.5957 63.3322C43.588 63.323 43.58 63.3142 43.5722 63.3051C43.5284 63.2539 43.4831 63.204 43.4364 63.1556C43.4278 63.1467 43.4195 63.1377 43.4109 63.1289C43.3592 63.0765 43.3056 63.026 43.2506 62.9771C43.2391 62.9669 43.2274 62.957 43.2158 62.947C43.1618 62.9003 43.1066 62.8549 43.0496 62.8118C43.046 62.809 43.0426 62.8061 43.0389 62.8033C42.9792 62.7585 42.9175 62.7162 42.8548 62.6754C42.8411 62.6665 42.8274 62.6576 42.8136 62.6489C42.7506 62.6092 42.6865 62.571 42.6207 62.5355C42.6142 62.532 42.6074 62.5288 42.6009 62.5254C42.5393 62.4926 42.4764 62.4621 42.4126 62.4333C42.3988 62.427 42.3851 62.4206 42.3712 62.4145C42.303 62.3847 42.2337 62.3571 42.1632 62.3319C42.1587 62.3303 42.1544 62.3282 42.1499 62.3266V61.0213C42.1499 59.4189 41.0092 58.078 39.4973 57.7679C39.2813 57.7235 39.0578 57.7003 38.8289 57.7003H38.1177L33.8655 54.1619C32.8892 53.3456 32.4599 52.0723 32.7452 50.8392L34.7104 42.3449C34.7313 42.2528 34.7497 42.1603 34.7669 42.0677C34.7723 42.0389 34.7769 42.0101 34.7819 41.9812C34.7931 41.9162 34.8036 41.8511 34.8131 41.7859C34.8178 41.7536 34.8222 41.7213 34.8265 41.689C34.835 41.624 34.8425 41.559 34.8493 41.4939C34.8523 41.4646 34.8557 41.4353 34.8584 41.406C34.8665 41.3171 34.8733 41.2282 34.8782 41.1393C34.8784 41.135 34.8788 41.1307 34.8791 41.1264C34.884 41.0332 34.8867 40.9401 34.8881 40.847C34.8885 40.8184 34.8882 40.7899 34.8882 40.7614C34.8884 40.6958 34.8879 40.6302 34.8863 40.5647C34.8855 40.5322 34.8844 40.4998 34.8832 40.4673C34.8808 40.403 34.8774 40.3388 34.8732 40.2747C34.8713 40.2448 34.8697 40.215 34.8674 40.1852C34.8609 40.1014 34.8531 40.0178 34.8437 39.9343C34.8427 39.9255 34.8421 39.9167 34.8411 39.9079C34.8305 39.8163 34.8177 39.7249 34.8036 39.6339C34.7991 39.6054 34.794 39.577 34.7892 39.5486C34.7786 39.4852 34.7673 39.4218 34.755 39.3587C34.7485 39.3257 34.7418 39.2928 34.7349 39.2599C34.7222 39.1994 34.7086 39.1391 34.6943 39.079C34.6869 39.0478 34.6797 39.0166 34.6719 38.9856C34.6532 38.911 34.6331 38.8368 34.6119 38.7629C34.6076 38.7479 34.6039 38.7328 34.5994 38.7178C34.5765 38.6394 34.5521 38.5615 34.5264 38.484C34.5452 38.4721 34.5637 38.4595 34.5826 38.4477C34.6338 38.4157 34.6855 38.3849 34.7371 38.3537C34.8171 38.3054 34.8973 38.2575 34.9782 38.211C35.0327 38.1798 35.0875 38.1493 35.1424 38.1189C35.2222 38.0748 35.3023 38.0315 35.3828 37.9892C35.4386 37.9599 35.4946 37.931 35.5508 37.9026C35.6325 37.8614 35.7148 37.8214 35.7973 37.782C35.8529 37.7555 35.9083 37.729 35.9642 37.7034C36.0505 37.6638 36.1376 37.6259 36.2248 37.5885C36.2775 37.5658 36.3299 37.5425 36.3829 37.5207C36.4816 37.4799 36.5812 37.4413 36.6809 37.4032C36.723 37.3871 36.7646 37.37 36.8069 37.3544C36.9497 37.3016 37.0935 37.2512 37.2383 37.2039C37.2503 37.2 37.2626 37.1966 37.2746 37.1927C37.4069 37.1499 37.5399 37.1093 37.6737 37.0711C37.7221 37.0573 37.7709 37.045 37.8195 37.0318C37.9177 37.0051 38.0159 36.9787 38.1148 36.9544C38.172 36.9404 38.2295 36.9277 38.2869 36.9145C38.3781 36.8936 38.4695 36.8731 38.5613 36.8542C38.6223 36.8417 38.6835 36.8301 38.7447 36.8185C38.8341 36.8015 38.9238 36.7854 39.0138 36.7704C39.0761 36.76 39.1386 36.7501 39.2012 36.7407C39.2916 36.7271 39.3822 36.7147 39.473 36.7031C39.5351 36.6952 39.5971 36.6872 39.6594 36.6803C39.7533 36.6697 39.8475 36.6609 39.9417 36.6526C40.0011 36.6473 40.0603 36.6414 40.1199 36.637C40.2235 36.6293 40.3275 36.6238 40.4316 36.6187C40.482 36.6162 40.5323 36.6127 40.5828 36.6108C40.7375 36.6051 40.8925 36.6018 41.0481 36.6018H43.2673H43.9363L39.1594 41.3787C38.7292 41.8089 38.7292 42.5065 39.1594 42.9368C39.5898 43.3671 40.2871 43.3671 40.7176 42.9368L46.5962 37.0581L52.4748 42.9368C52.69 43.1519 52.9719 43.2595 53.2539 43.2595C53.5359 43.2595 53.8178 43.1519 54.033 42.9368C54.4632 42.5065 54.4632 41.8089 54.033 41.3787L49.2561 36.6018H49.9251H52.1443C52.2791 36.6018 52.4139 36.604 52.5483 36.6083C52.8345 36.6177 53.1196 36.6376 53.4031 36.6666C55.1172 36.8417 56.7725 37.3726 58.2505 38.2291C62.0178 40.4075 64.358 44.4639 64.358 48.8154Z" fill="#1600FF"/>
<path d="M18.8557 19.958H23.2942H27.7326H32.1711C32.7796 19.958 33.2729 19.4647 33.2729 18.8562V14.4177C33.2729 14.1256 33.1568 13.8453 32.9502 13.6387L26.2925 6.98095C25.862 6.55062 25.1647 6.55062 24.7343 6.98095L23.2863 8.42893V7.76C23.2863 7.15148 22.793 6.65824 22.1845 6.65824H18.8557C18.2472 6.65824 17.7539 7.15148 17.7539 7.76V14.4177V18.8562C17.7539 19.4647 18.2472 19.958 18.8557 19.958ZM24.3959 17.7544V16.637C24.3959 16.0208 24.8972 15.5195 25.5134 15.5195C26.1296 15.5195 26.6309 16.0208 26.6309 16.637V17.7544H24.3959ZM25.5134 9.3181L31.0694 14.8741V17.7544H28.8344V16.637C28.8344 14.8057 27.3446 13.316 25.5134 13.316C23.6822 13.316 22.1924 14.8057 22.1924 16.637V17.7544H19.9574V14.8741L22.9637 11.8679C22.9639 11.8677 22.9641 11.8674 22.9643 11.8672L25.5134 9.3181ZM21.0828 8.86177V10.6325L19.9574 11.7578V8.86177H21.0828Z" fill="#1600FF"/>
<path d="M38.8289 19.9574H54.3636C54.972 19.9574 55.4653 19.4642 55.4653 18.8557C55.4653 18.2472 54.972 17.7539 54.3636 17.7539H38.8289C38.2204 17.7539 37.7271 18.2472 37.7271 18.8557C37.7271 19.4642 38.2204 19.9574 38.8289 19.9574Z" fill="#1600FF"/>
<path d="M38.8289 15.519H54.3636C54.972 15.519 55.4653 15.0257 55.4653 14.4172C55.4653 13.8087 54.972 13.3154 54.3636 13.3154H38.8289C38.2204 13.3154 37.7271 13.8087 37.7271 14.4172C37.7271 15.0257 38.2204 15.519 38.8289 15.519Z" fill="#1600FF"/>
<path d="M38.8289 11.0805H54.3636C54.972 11.0805 55.4653 10.5872 55.4653 9.97872C55.4653 9.3702 54.972 8.87695 54.3636 8.87695H38.8289C38.2204 8.87695 37.7271 9.3702 37.7271 9.97872C37.7271 10.5872 38.2204 11.0805 38.8289 11.0805Z" fill="#1600FF"/>
<path d="M46.5962 49.9255H48.8154C49.4282 49.9255 49.9251 49.4288 49.9251 48.8159C49.9251 48.2031 49.4282 47.7063 48.8154 47.7063H47.7058C47.7058 47.0934 47.209 46.5967 46.5962 46.5967C45.9834 46.5967 45.4866 47.0934 45.4866 47.7063V47.8972C44.1951 48.3552 43.2673 49.5886 43.2673 51.0352C43.2673 52.8707 44.7607 54.364 46.5962 54.364C47.208 54.364 47.7058 54.8618 47.7058 55.4736C47.7058 56.0855 47.208 56.5833 46.5962 56.5833H44.377C43.7642 56.5833 43.2673 57.08 43.2673 57.6929C43.2673 58.3057 43.7642 58.8025 44.377 58.8025H45.4866C45.4866 59.4154 45.9834 59.9121 46.5962 59.9121C47.209 59.9121 47.7058 59.4154 47.7058 58.8025V58.6116C48.9973 58.1536 49.9251 56.9202 49.9251 55.4736C49.9251 53.6381 48.4317 52.1448 46.5962 52.1448C45.9844 52.1448 45.4866 51.647 45.4866 51.0352C45.4866 50.4233 45.9844 49.9255 46.5962 49.9255Z" fill="#1600FF"/>
<path d="M40.9592 52.8319C40.9365 52.7658 40.904 52.6992 40.8595 52.6326C40.8151 52.5767 40.7707 52.5215 40.7263 52.4662C40.3047 52.0555 39.5722 52.0555 39.1507 52.4662C39.1063 52.5215 39.051 52.5767 39.0174 52.6326C38.973 52.6992 38.9394 52.7658 38.9177 52.8319C38.8841 52.8986 38.8624 52.9652 38.8505 53.0319C38.8397 53.1093 38.8289 53.1874 38.8289 53.254C38.8289 53.3206 38.8397 53.3981 38.8505 53.4648C38.8624 53.5422 38.8841 53.6089 38.9177 53.6755C38.9394 53.7422 38.973 53.8088 39.0174 53.8641C39.051 53.9307 39.1063 53.986 39.1507 54.0418C39.3609 54.2412 39.6502 54.3636 39.9385 54.3636C40.2267 54.3636 40.515 54.2412 40.7263 54.0418C40.7707 53.986 40.8151 53.9307 40.8595 53.8641C40.904 53.8088 40.9365 53.7422 40.9592 53.6755C40.9928 53.6089 41.0145 53.5422 41.0253 53.4648C41.0373 53.3981 41.0481 53.3206 41.0481 53.254C41.0481 53.1874 41.0373 53.1093 41.0253 53.0319C41.0145 52.9652 40.9928 52.8986 40.9592 52.8319Z" fill="#1600FF"/>
<path d="M54.2747 52.8319C54.253 52.7658 54.2194 52.6992 54.175 52.6326C54.1414 52.5767 54.0861 52.5215 54.0417 52.4662C53.6202 52.0555 52.8876 52.0555 52.4661 52.4662C52.4217 52.5215 52.3773 52.5767 52.3328 52.6326C52.2884 52.6992 52.2559 52.7658 52.2331 52.8319C52.1996 52.8986 52.1779 52.9652 52.167 53.0319C52.1551 53.1093 52.1443 53.1874 52.1443 53.254C52.1443 53.3206 52.1551 53.3981 52.167 53.4648C52.1779 53.5422 52.1996 53.6089 52.2331 53.6755C52.2559 53.7422 52.2884 53.8088 52.3328 53.8641C52.3773 53.9307 52.4217 53.986 52.4661 54.0418C52.6774 54.2412 52.9657 54.3636 53.2539 54.3636C53.5421 54.3636 53.8315 54.2412 54.0417 54.0418C54.0861 53.986 54.1414 53.9307 54.175 53.8641C54.2194 53.8088 54.253 53.7422 54.2747 53.6755C54.3083 53.6089 54.3299 53.5422 54.3419 53.4648C54.3527 53.3981 54.3635 53.3206 54.3635 53.254C54.3635 53.1874 54.3527 53.1093 54.3419 53.0319C54.3299 52.9652 54.3083 52.8986 54.2747 52.8319Z" fill="#1600FF"/>
<path d="M18.8557 31.0536H32.1711C32.7796 31.0536 33.2729 30.5604 33.2729 29.9519V23.2941C33.2729 22.6856 32.7796 22.1924 32.1711 22.1924H18.8557C18.2472 22.1924 17.7539 22.6856 17.7539 23.2941V29.9519C17.7539 30.5604 18.2472 31.0536 18.8557 31.0536ZM19.9574 24.3959H31.0694V28.8501H19.9574V24.3959Z" fill="#1600FF"/>
</svg>
