<?xml version="1.0" encoding="UTF-8"?>
<svg width="547px" height="487px" viewBox="0 0 547 487" version="1.1" xmlns="http://www.w3.org/2000/svg" xmlns:xlink="http://www.w3.org/1999/xlink">
    <!-- Generator: Sketch 43.1 (39012) - http://www.bohemiancoding.com/sketch -->
    <title>Group</title>
    <desc>Created with Sketch.</desc>
    <defs>
        <path d="M528.478172,95.7935514 C527.651262,100.190541 524.983567,104.024962 521.146017,106.330739 L350.257559,210.268982 C341.688243,215.480465 331.848648,218.236722 321.816747,218.235655 L97.7634884,218.235655 C99.3852594,213.860016 100.23781,209.237786 100.28375,204.571791 L100.28375,40.6054163 C100.217512,39.0799739 100.063668,37.5588013 99.8232868,36.0504389 L116.678803,36.0504389 C133.500132,36.0717887 149.816126,41.7903294 162.965501,52.2720081 C179.347733,65.3348759 199.679693,72.4614352 220.638779,72.4881225 L268.322892,72.4881225 C281.126119,72.525485 292.98171,79.2367905 299.594858,90.1902994 L300.404675,91.5289311 C305.382165,99.8179864 304.847985,110.292193 299.054268,118.033626 L243.642707,118.033626 C225.642978,118.015478 208.042815,123.341183 193.078296,133.333952 L186.396773,137.78218 C183.670318,139.579832 182.113717,142.697969 182.318842,145.954879 C182.522899,149.212857 184.456631,152.112158 187.387142,153.554336 C190.317654,154.997582 193.796234,154.762734 196.506664,152.939463 L203.188187,148.491234 C215.162366,140.496806 229.242283,136.236455 243.643776,136.2514 L324.678883,136.2514 C329.578383,136.2514 334.444763,135.462526 339.093197,133.915734 L455.409825,95.1744076 C457.877737,95.2235119 459.846725,94.4869447 461.414009,93.1739325 L507.849209,77.7081457 C514.348043,75.5400751 521.504986,77.7882077 525.592532,83.281508 C528.298688,86.8490576 529.347817,91.4029677 528.478172,95.7935514 Z" id="path-1"></path>
    </defs>
    <g id="Page-1" stroke="none" stroke-width="1" fill="none" fill-rule="evenodd">
        <g id="Group">
            <path d="M378.109376,260.003906 L378.109376,416.277344 L351.375,422.398438 C348.5,423.054688 345.59375,423.574219 342.671876,423.980469 C331.53125,425.515625 320.164063,425.191406 309.140626,423.007812 C309.09375,422.996094 309.046876,422.988281 309,422.976562 L309,407.8125 C316.625,396.4375 319.152344,382.015625 315.15625,368.851562 C314.042969,365.179688 312.460938,361.636719 310.449219,358.367188 C309.992188,357.625 309.515626,356.898438 309.019532,356.1875 C309.015626,356.175781 309.007813,356.167969 309,356.15625 L309,260 L378.109376,260 L378.109376,260.003906 Z" id="Path" stroke="#4431F4" stroke-width="15" fill="#DDD9FF" stroke-linecap="round" stroke-linejoin="round"></path>
            <polygon id="Path" stroke="#4431F4" stroke-width="15" fill="#DDD9FF" stroke-linecap="round" stroke-linejoin="round" points="220 143 289.105469 143.230469 289.105469 340.324219 250.484375 324.339843 220 311.71875"></polygon>
            <path d="M131,209 L200.105469,209 L200.105469,303.917968 L187.703126,298.785156 C186.488282,298.28125 185.1875,298.023437 183.878907,298.023437 L131,298.023437 L131,209 Z" id="Path" stroke="#4431F4" stroke-width="15" fill="#DDD9FF" stroke-linecap="round" stroke-linejoin="round"></path>
            <g id="ico-fund" transform="translate(0.000000, 241.000000)">
                <path d="M93.3383412,18.2692807 C85.7348232,6.89197869 72.9497589,0.0579110674 59.258725,0.0504389137 L41.0250247,0.0504389137 C18.3779291,0.0749910968 0.0245722805,18.4133919 0,41.0420326 L0,205.008406 C0.0245722805,227.637047 18.3779291,245.975448 41.0250247,246 L59.258725,246 C68.5406369,245.960503 77.5276818,242.745225 84.7262916,236.891113 L93.3383412,18.2692807 Z M82.0500495,205.008406 C82.0350924,217.579162 71.8397325,227.766213 59.258725,227.781158 L41.0250247,227.781158 C28.4440171,227.766213 18.2475892,217.579162 18.2337005,205.008406 L18.2337005,41.0420326 C18.2486575,28.4712769 28.4440171,18.2842256 41.0250247,18.2692807 L59.258725,18.2692807 C71.8397325,18.2842256 82.0361611,28.4712769 82.0500495,41.0420326 L82.0500495,205.008406 Z M528.478172,96.231235 C527.651262,100.628224 524.983567,104.462646 521.146017,106.768423 L350.257559,210.706665 C341.688243,215.918148 331.848648,218.674406 321.816747,218.673339 L97.7634884,218.673339 C99.3852594,214.297699 100.23781,209.67547 100.28375,205.009474 L100.28375,41.0430999 C100.217512,39.5176575 100.063668,37.9964849 99.8232868,36.4881225 L116.678803,36.4881225 C133.500132,36.5094722 149.816126,42.228013 162.965501,52.7096917 C179.347733,65.7725595 199.679693,72.8991187 220.638779,72.9258061 L268.322892,72.9258061 C281.126119,72.9631686 292.98171,79.6744741 299.594858,90.627983 L300.404675,91.9666147 C305.382165,100.25567 304.847985,110.729876 299.054268,118.471309 L243.642707,118.471309 C225.642978,118.453162 208.042815,123.778867 193.078296,133.771635 L186.396773,138.219864 C183.670318,140.017516 182.113717,143.135652 182.318842,146.392562 C182.522899,149.65054 184.456631,152.549842 187.387142,153.99202 C190.317654,155.435266 193.796234,155.200418 196.506664,153.377146 L203.188187,148.928918 C215.162366,140.93449 229.242283,136.674139 243.643776,136.689084 L324.678883,136.689084 C329.578383,136.689084 334.444763,135.900209 339.093197,134.353417 L455.409825,95.6120911 C455.558328,95.6195639 455.683326,95.6974901 455.832896,95.6974901 C457.877737,95.6611955 459.846725,94.9246283 461.414009,93.6116161 L507.849209,78.1458293 C514.348043,75.9777587 521.504986,78.2258913 525.592532,83.7191915 C528.298688,87.2867412 529.347817,91.8406513 528.478172,96.231235 Z" id="Shape" fill="#4431F4" fill-rule="nonzero"></path>
                <g id="Shape-path">
                    <use fill="#FFFFFF" fill-rule="evenodd" xlink:href="#path-1"></use>
                    <path stroke="#4431F4" stroke-width="18" d="M537.315057,97.4996194 C538.669319,90.5987704 537.01428,83.446855 532.763006,77.842363 C526.404412,69.2963308 515.186654,65.7726884 505.00104,69.1707028 L458.570046,84.6350873 L456.946264,85.1759068 L455.752647,86.1758754 C455.714788,86.1770086 455.661232,86.1776285 455.588864,86.1761886 L454.037745,86.1453257 L452.565816,86.635578 L336.249187,125.376904 C332.51866,126.618257 328.611707,127.2514 324.678883,127.2514 L243.643776,127.2514 C227.470184,127.234612 211.647657,132.021853 198.190848,141.006142 L191.519114,145.447844 C191.447266,145.496051 191.401556,145.499134 191.363479,145.480382 C191.325683,145.46178 191.303512,145.428538 191.301241,145.392284 C191.298867,145.354591 191.316972,145.318313 191.350882,145.295955 L198.065846,140.82557 C211.558579,131.815618 227.416079,127.017271 243.633634,127.033621 L299.054268,127.033626 L303.560021,127.033626 L306.259786,123.426261 C314.244805,112.756859 314.980567,98.3199126 308.120445,86.8956933 L307.295397,85.5317903 C299.061454,71.8937153 284.294852,63.5346937 268.349156,63.4881608 L220.638779,63.4881225 C201.725328,63.4640326 183.367348,57.0291281 168.576508,45.2352051 C153.834801,33.4842408 135.545252,27.0743771 116.690226,27.0504462 L99.8232868,27.0504389 L89.2754259,27.0504389 L90.935443,37.4668545 C91.1121678,38.5757822 91.2284695,39.6931866 91.2837498,40.8132042 L91.2837498,204.571791 C91.2484644,208.111371 90.585561,211.705379 89.3244808,215.107852 L84.8294762,227.235655 L97.7634884,227.235655 L321.816747,227.235655 C333.49732,227.236898 344.955029,224.027417 354.934055,217.95861 L525.822886,114.020141 C531.808786,110.423689 536.00387,104.404873 537.315057,97.4996194 L537.315057,97.4996194 Z"></path>
                </g>
                <path d="M82,205.174192 C81.9849999,217.774235 71.7602997,227.98502 59.1430866,228 L40.8569132,228 C28.2397,227.98502 18.0139286,217.774235 18,205.174192 L18,40.8258081 C18.0150001,28.2257649 28.2397,18.0149797 40.8569132,18 L59.1430866,18 C71.7602997,18.0149797 81.9860716,28.2257649 82,40.8258081 L82,205.174192 Z" id="Path" fill="#DDD9FF" fill-rule="nonzero"></path>
            </g>
            <g id="popular" transform="translate(309.000000, 0.000000)">
                <path d="M134.612802,62.5833613 C132.968324,59.8713033 129.708898,58.5823864 126.645112,59.4336969 C123.57948,60.2850074 121.460669,63.0650966 121.460669,66.2349867 C121.460669,74.8528957 114.423189,81.8619561 105.774452,81.8619561 C97.1238703,81.8619561 90.0882358,74.8528957 90.0882358,66.2349867 L90.0882358,7.06064043 C90.0882358,4.20516531 88.3607033,1.63100863 85.7121892,0.536991919 C83.063675,-0.555186224 80.014654,0.0497409497 77.9881257,2.06861503 C77.1944941,2.86108767 58.2931478,21.7976876 39.1463291,50.4112776 C27.8564614,67.283036 18.8459769,84.018732 12.3677298,100.153179 C4.16195073,120.591982 0,140.161089 0,158.312571 C0,203.906402 37.2342316,241 82.999077,241 C128.765769,241 166,203.906402 166,158.312571 C166,129.128989 155.439166,96.920773 134.612802,62.5833613 L134.612802,62.5833613 Z M82.999077,226.878912 C45.0505775,226.878912 14.1746256,196.119578 14.1746256,158.312571 C14.1746256,121.09762 34.0836995,83.4799975 50.7868713,58.4739039 C59.8398064,44.9209693 68.9628756,33.4990684 75.9117642,25.3757651 L75.9117642,66.2349867 C75.9117642,82.6378807 89.3075239,95.9830442 105.772606,95.9830442 C115.838806,95.9830442 124.758853,90.996535 130.170312,83.3715155 C144.54796,110.343161 151.825374,135.500027 151.825374,158.312571 C151.825374,196.119578 120.951268,226.878912 82.999077,226.878912 Z" id="Shape" fill="#4431F4" fill-rule="nonzero"></path>
                <path d="M82.999077,226.878912 C45.0505775,226.878912 14.1746256,196.119578 14.1746256,158.312571 C14.1746256,121.09762 34.0836995,83.4799975 50.7868713,58.4739039 C59.8398064,44.9209693 68.9628756,33.4990684 75.9117642,25.3757651 L75.9117642,66.2349867 C75.9117642,82.6378807 89.3075239,95.9830442 105.772606,95.9830442 C115.838806,95.9830442 124.758853,90.996535 130.170312,83.3715155 C144.54796,110.343161 151.825374,135.500027 151.825374,158.312571 C151.825374,196.119578 120.951268,226.878912 82.999077,226.878912 Z" id="Path" fill="#DDD9FF"></path>
                <path d="M122.922664,119 L92.6007018,119 C88.691579,119 85.5233655,122.143632 85.5233655,126.020596 C85.5215221,129.899388 88.691579,133.04485 92.5988584,133.04485 L105.837532,133.04485 L75.6003504,163.045599 L59.1639739,146.736749 C56.4012324,143.995443 51.9189195,143.995443 49.1561779,146.736749 L33.0736688,162.692649 C30.3090843,165.435784 30.3090843,169.88149 33.0718258,172.624625 C35.8364103,175.36776 40.3168803,175.365931 43.0814643,172.624625 L54.1600759,161.633799 L70.5946089,177.942649 C71.9216095,179.259353 73.7222759,180 75.6003504,180 C77.4765815,180 79.2772473,179.259353 80.6042479,177.942649 L115.845328,142.976825 L115.845328,156.109126 C115.845328,159.986089 119.013541,163.131551 122.922664,163.131551 C126.831787,163.131551 130,159.986089 130,156.109126 L130,126.022425 C130,122.143632 126.831787,119 122.922664,119 L122.922664,119 Z" id="Shape" fill="#4431F4" fill-rule="nonzero"></path>
            </g>
        </g>
    </g>
</svg>