<svg width="40" height="34" viewBox="0 0 40 34" fill="none" xmlns="http://www.w3.org/2000/svg">
<path fill-rule="evenodd" clip-rule="evenodd" d="M31.6129 16.7742C31.091 16.7742 30.5755 16.8387 30.0665 16.9335L29.6774 16V7.74194H30.3226V6.45161H35.4839C35.8394 6.45161 36.129 6.74129 36.129 7.09677C36.129 7.45226 35.8394 7.74194 35.4839 7.74194H33.5484C32.4813 7.74194 31.6129 8.61032 31.6129 9.67742C31.6129 10.7445 32.4813 11.6129 33.5484 11.6129H35.4839C37.9742 11.6129 40 9.5871 40 7.09677C40 4.60645 37.9742 2.58065 35.4839 2.58065H30.3226C30.3226 1.15742 29.1652 0 27.7419 0C26.3187 0 25.1613 1.15742 25.1613 2.58065V7.74194H25.8065V10.9677H16.2697L15.6555 8.3871H18.0645C19.1316 8.3871 20 7.51871 20 6.45161C20 5.38452 19.1316 4.51613 18.0645 4.51613H14.4981C14.3987 4.51613 14.2981 4.49226 14.2097 4.44839L10.8832 2.78516C10.6161 2.65097 10.3168 2.58065 10.0181 2.58065H9.03226C7.96516 2.58065 7.09677 3.44903 7.09677 4.51613V6.45161C7.09677 7.51871 7.96516 8.3871 9.03226 8.3871H11.5168L12.2781 11.5097L9.71677 16.88C9.28129 16.8103 8.83419 16.7742 8.3871 16.7742C3.76258 16.7742 0 20.5368 0 25.1613C0 29.7858 3.76258 33.5484 8.3871 33.5484C11.9961 33.5484 15.1252 31.2877 16.2929 27.9542C16.6413 28.1342 17.02 28.2613 17.4194 28.329V30.9677H15.4839V32.2581H20.6452V30.9677H18.7097V28.329C19.5903 28.1806 20.369 27.7348 20.9419 27.0968H23.4574C24.3426 30.8652 27.6852 33.5484 31.6129 33.5484C36.2374 33.5484 40 29.7858 40 25.1613C40 20.5368 36.2374 16.7742 31.6129 16.7742ZM21.7206 23.2548C21.6135 22.9452 21.4703 22.6523 21.2929 22.3839L25.8065 16.1774V16.2613L26.7103 18.369C25.0774 19.5497 23.9252 21.2723 23.4626 23.2252H21.7206V23.2548ZM25.1845 14.8387H23.5542L19.2058 20.8174C19.6387 20.951 20.0374 21.1626 20.391 21.4297L25.1845 14.8387ZM18.3671 19.7774L17.1916 14.8387H21.9587L18.3671 19.7774ZM32.9032 25.1613C32.9032 24.4497 32.3245 23.871 31.6129 23.871C30.9013 23.871 30.3226 24.4497 30.3226 25.1613C30.3226 25.8729 30.9013 26.4516 31.6129 26.4516C32.3245 26.4516 32.9032 25.8729 32.9032 25.1613ZM27.229 19.58L27.76 20.8187C27.0252 21.4723 26.4652 22.3026 26.1381 23.2258H24.7845C25.1916 21.7865 26.0484 20.5084 27.229 19.58ZM28.7916 23.2258L28.3065 22.0935C27.9942 22.4303 27.7368 22.8129 27.5394 23.2258H28.7916ZM29.9239 27.0968C30.3774 27.4935 30.9639 27.7419 31.6129 27.7419C33.0361 27.7419 34.1936 26.5845 34.1936 25.1613C34.1936 24.0465 33.4794 23.1032 32.4871 22.7432L31.6129 20.6452C34.1032 20.6452 36.129 22.6716 36.129 25.1613C36.129 27.651 34.1032 29.6774 31.6129 29.6774C29.8432 29.6774 28.2735 28.6477 27.5381 27.0968H29.9239ZM38.7097 7.09677C38.7097 5.31806 37.2626 3.87097 35.4839 3.87097H30.3226V5.16129H35.4839C36.551 5.16129 37.4194 6.02968 37.4194 7.09677C37.4194 8.16387 36.551 9.03226 35.4839 9.03226H33.5484C33.1929 9.03226 32.9032 9.32194 32.9032 9.67742C32.9032 10.0329 33.1929 10.3226 33.5484 10.3226H35.4839C37.2626 10.3226 38.7097 8.87548 38.7097 7.09677ZM26.4516 2.58065C26.4516 1.86903 27.0303 1.29032 27.7419 1.29032C28.4535 1.29032 29.0323 1.86903 29.0323 2.58065V6.45161H26.4516V2.58065ZM28.3871 16.2581V7.74194H27.0968V15.9968L30.1239 23.0606C30.3981 22.8658 30.7103 22.7232 31.049 22.6471L28.3871 16.2581ZM25.8065 12.2581V13.5484H16.8845L16.5774 12.2581H25.8065ZM8.3871 4.51613V6.45161C8.3871 6.8071 8.67677 7.09677 9.03226 7.09677H18.0645C18.42 7.09677 18.7097 6.8071 18.7097 6.45161C18.7097 6.09613 18.42 5.80645 18.0645 5.80645H14.4981C14.1994 5.80645 13.9 5.73613 13.6329 5.60194L10.3065 3.93871C10.2181 3.89484 10.1174 3.87097 10.0181 3.87097H9.03226C8.67677 3.87097 8.3871 4.16065 8.3871 4.51613ZM14.329 8.3871L17.2677 20.7284C16.8032 20.8258 16.3703 21.009 15.9832 21.2574L12.8452 8.3871H14.329ZM13.1006 18.2284C13.4613 18.4735 13.7987 18.7477 14.1148 19.0445L13.6413 17.1019L13.1006 18.2284ZM12.5348 19.4065C13.5613 20.1484 14.3742 21.1555 14.8832 22.3155C14.6897 22.5942 14.5342 22.9 14.4187 23.2258H13.8568C13.4884 22.1806 12.8348 21.2748 11.9645 20.5942L12.5348 19.4065ZM12.4665 23.2258C12.2077 22.6794 11.8452 22.191 11.3923 21.7884L10.7026 23.2258H12.4665ZM9.67742 25.1613C9.67742 25.8729 9.09871 26.4516 8.3871 26.4516C7.67548 26.4516 7.09677 25.8729 7.09677 25.1613C7.09677 24.4497 7.67548 23.871 8.3871 23.871C9.09871 23.871 9.67742 24.4497 9.67742 25.1613ZM5.80645 25.1613C5.80645 24.3935 6.15032 23.7103 6.68387 23.2374L7.90839 20.671C5.64258 20.9116 3.87097 22.8329 3.87097 25.1613C3.87097 27.651 5.89677 29.6774 8.3871 29.6774C10.1581 29.6774 11.7265 28.6484 12.4619 27.0968H10.0761C9.62193 27.4935 9.03548 27.7419 8.3871 27.7419C6.96387 27.7419 5.80645 26.5845 5.80645 25.1613ZM10.8761 25.8065C10.9303 25.5987 10.9677 25.3852 10.9677 25.1613C10.9677 24.9374 10.9303 24.7239 10.8761 24.5161H14.1935C14.1935 24.969 14.2761 25.4019 14.4194 25.8065H10.8761ZM9.46452 22.8239L13.1594 15.1239L12.7619 13.4929L8.42516 22.5845C8.79613 22.5897 9.14645 22.6768 9.46452 22.8239ZM8.3871 32.2581C4.47419 32.2581 1.29032 29.0742 1.29032 25.1613C1.29032 21.2484 4.47419 18.0645 8.3871 18.0645C8.63677 18.0645 8.88452 18.0819 9.13097 18.1077L8.53419 19.3594C8.51583 19.3589 8.49756 19.3581 8.47928 19.3574H8.47924H8.47919H8.47914C8.44865 19.3561 8.41813 19.3548 8.3871 19.3548C5.18581 19.3548 2.58065 21.9594 2.58065 25.1613C2.58065 28.3632 5.18581 30.9677 8.3871 30.9677C10.869 30.9677 13.051 29.4 13.8626 27.0968H15.1877L15.2052 27.1161C14.3387 30.1594 11.5865 32.2581 8.3871 32.2581ZM18.7097 25.1613V27.0052C19.8194 26.7168 20.6452 25.7155 20.6452 24.5161C20.6452 23.0929 19.4877 21.9355 18.0645 21.9355C16.6413 21.9355 15.4839 23.0929 15.4839 24.5161C15.4839 25.7155 16.3097 26.7168 17.4194 27.0052V25.1613H18.7097ZM21.9355 24.5161H29.1239C29.0697 24.7239 29.0323 24.9374 29.0323 25.1613C29.0323 25.3852 29.0697 25.5987 29.1239 25.8065H21.7097C21.8529 25.4019 21.9355 24.969 21.9355 24.5161ZM24.7871 27.0968C25.6374 30.1277 28.3935 32.2581 31.6129 32.2581C35.5258 32.2581 38.7097 29.0742 38.7097 25.1613C38.7097 21.2484 35.5258 18.0645 31.6129 18.0645C31.2632 18.0645 30.9161 18.0974 30.5723 18.1484L31.0852 19.3787C31.2606 19.3626 31.4374 19.3548 31.6129 19.3548C34.8142 19.3548 37.4194 21.9594 37.4194 25.1613C37.4194 28.3632 34.8142 30.9677 31.6129 30.9677C29.1323 30.9677 26.949 29.3994 26.1374 27.0968H24.7871Z" fill="#9CAFC8"/>
</svg>
