<svg width="26" height="26" viewBox="0 0 26 26" fill="none" xmlns="http://www.w3.org/2000/svg">
<line x1="1.29289" y1="25.2929" x2="25.2929" y2="1.29289" stroke="#1600FF" stroke-width="2"/>
<path d="M7.8334 23.879H6.8334V25.8428L8.42158 24.6877L7.8334 23.879ZM13.667 19.6364V18.6364C13.4557 18.6364 13.2498 18.7033 13.0789 18.8276L13.667 19.6364ZM7.30307 18.6364H5.12109V20.6364H7.30307V18.6364ZM5.12109 18.6364V5.78711H3.12109V18.6364H5.12109ZM5.12109 5.78711H21.622V3.78711H5.12109V5.78711ZM22.213 18.6364H13.667V20.6364H22.213V18.6364ZM13.0789 18.8276L7.24523 23.0703L8.42158 24.6877L14.2552 20.4451L13.0789 18.8276ZM22.213 7.96909V18.6364H24.213V7.96909H22.213ZM8.8334 23.879V22.288H6.8334V23.879H8.8334ZM22.213 20.6364C23.3175 20.6364 24.213 19.7409 24.213 18.6364H22.213V18.6364V20.6364ZM5.12109 5.78711L5.12109 5.78711V3.78711C4.01652 3.78711 3.12109 4.68254 3.12109 5.78711H5.12109ZM5.12109 18.6364H5.12109H3.12109C3.12109 19.7409 4.01652 20.6364 5.12109 20.6364V18.6364Z" fill="#1600FF"/>
</svg>
