<svg width="20" height="18" viewBox="0 0 20 18" fill="none" xmlns="http://www.w3.org/2000/svg">
<path d="M0 17L0 1C0 0.450001 0.45 0 1 0C1.55 0 2 0.450001 2 1L2 17C2 17.55 1.55 18 1 18C0.45 18 0 17.55 0 17Z" fill="#1600FF"/>
<path d="M1 0H11C11.55 0 12 0.45 12 1C12 1.55 11.55 2 11 2H1C0.45 2 0 1.55 0 1C0 0.45 0.45 0 1 0Z" fill="#1600FF"/>
<path d="M10 6.41667L10 0.583333C10 0.2625 10.45 -1.96701e-08 11 -4.37114e-08C11.55 -6.77527e-08 12 0.2625 12 0.583333L12 6.41667C12 6.7375 11.55 7 11 7C10.45 7 10 6.7375 10 6.41667Z" fill="#1600FF"/>
<path d="M16.01 10.2994H5C4.45 10.2994 4 10.7494 4 11.2994C4 11.8494 4.45 12.2994 5 12.2994H16.01V14.0894C16.01 14.5394 16.55 14.7594 16.86 14.4394L19.64 11.6494C19.83 11.4494 19.83 11.1394 19.64 10.9394L16.86 8.14939C16.55 7.82939 16.01 8.05939 16.01 8.49939V10.2994Z" fill="#1600FF"/>
</svg>
