<?xml version="1.0" encoding="UTF-8"?>
<svg width="614px" height="614px" viewBox="0 0 614 614" version="1.1" xmlns="http://www.w3.org/2000/svg" xmlns:xlink="http://www.w3.org/1999/xlink">
    <!-- Generator: Sketch 43.1 (39012) - http://www.bohemiancoding.com/sketch -->
    <title>innovation</title>
    <desc>Created with Sketch.</desc>
    <defs></defs>
    <g id="Page-1" stroke="none" stroke-width="1" fill="none" fill-rule="evenodd">
        <g id="innovation">
            <path d="M70,168 L89.3333333,168 C89.3333333,162.664 93.664,158.333333 99,158.333333 L99,139 C83.0113333,139 70,152.011333 70,168 Z" id="Shape" fill="#000000" fill-rule="nonzero"></path>
            <path d="M157,188 C157,172.011333 143.988667,159 128,159 L128,178.333333 C133.336,178.333333 137.666667,182.664 137.666667,188 L157,188 Z" id="Shape" fill="#000000" fill-rule="nonzero"></path>
            <path d="M60,226.666667 L60,246 C75.9886667,246 89,232.988667 89,217 L69.6666667,217 C69.6666667,222.336 65.336,226.666667 60,226.666667 Z" id="Shape" fill="#000000" fill-rule="nonzero"></path>
            <path d="M535,565 C551.54,565 565,551.54 565,535 C565,518.46 551.54,505 535,505 C518.46,505 505,518.46 505,535 C505,551.54 518.46,565 535,565 Z M535,525 C540.52,525 545,529.48 545,535 C545,540.52 540.52,545 535,545 C529.48,545 525,540.52 525,535 C525,529.48 529.48,525 535,525 Z" id="Shape" fill="#4431F4" fill-rule="nonzero"></path>
            <path d="M535,337 C551.54,337 565,323.54 565,307 C565,290.46 551.54,277 535,277 C518.46,277 505,290.46 505,307 C505,323.54 518.46,337 535,337 Z M535,297 C540.52,297 545,301.48 545,307 C545,312.52 540.52,317 535,317 C529.48,317 525,312.52 525,307 C525,301.48 529.48,297 535,297 Z" id="Shape" fill="#4431F4" fill-rule="nonzero"></path>
            <path d="M535,110 C551.54,110 565,96.54 565,80 C565,63.46 551.54,50 535,50 C518.46,50 505,63.46 505,80 C505,96.54 518.46,110 535,110 Z M535,70 C540.52,70 545,74.48 545,80 C545,85.52 540.52,90 535,90 C529.48,90 525,85.52 525,80 C525,74.48 529.48,70 535,70 Z" id="Shape" fill="#4431F4" fill-rule="nonzero"></path>
            <path d="M456.23171,316.903226 C461.133806,355.921935 494.448258,386.225806 534.774194,386.225806 C578.457323,386.225806 614,350.683129 614,307 C614,263.316871 578.457323,227.774194 534.774194,227.774194 C494.448258,227.774194 461.133806,258.078065 456.23171,297.096774 L349.435323,297.096774 C351.307032,290.610161 352.822226,284.00471 353.961097,277.290323 L386.225806,277.290323 C402.605742,277.290323 415.935484,263.960581 415.935484,247.580645 L415.935484,207.967742 C415.935484,202.501161 420.372129,198.064516 425.83871,198.064516 L437.564129,198.064516 C441.664065,209.562161 452.557613,217.870968 465.451613,217.870968 C481.831548,217.870968 495.16129,204.541226 495.16129,188.16129 C495.16129,171.781355 481.831548,158.451613 465.451613,158.451613 C452.557613,158.451613 441.664065,166.760419 437.564129,178.258065 L425.83871,178.258065 C409.458774,178.258065 396.129032,191.587806 396.129032,207.967742 L396.129032,247.580645 C396.129032,253.047226 391.692387,257.483871 386.225806,257.483871 L356.209129,257.483871 C356.387387,254.196 356.516129,250.898226 356.516129,247.580645 C356.516129,211.651742 345.533452,177.931258 326.806452,149.608032 L326.806452,99.0322581 C326.806452,93.5656774 331.243097,89.1290323 336.709677,89.1290323 L456.23171,89.1290323 C461.133806,128.147742 494.448258,158.451613 534.774194,158.451613 C578.457323,158.451613 614,122.908935 614,79.2258065 C614,35.5426774 578.457323,0 534.774194,0 C494.448258,0 461.133806,30.303871 456.23171,69.3225806 L336.709677,69.3225806 C320.329742,69.3225806 307,82.6523226 307,99.0322581 L307,124.741032 C279.875065,96.2593548 243.510419,76.4826129 202.263484,70.9269032 C193.736806,69.778129 185.021968,72.3727742 178.505645,78.0572258 C175.475258,80.7013871 173.11829,83.9397419 171.405032,87.4751935 C160.59071,76.3043548 145.478387,69.3225806 128.741935,69.3225806 C107.301452,69.3225806 87.7821935,80.7905161 77.2649677,99.0619677 C45.4062903,100.101806 19.8064516,126.345355 19.8064516,158.451613 C19.8064516,165.859226 21.2622258,173.247032 24.0945484,180.23871 C9.03174194,191.340226 0,208.819419 0,227.774194 C0,247.263742 9.46748387,264.534968 24.0054194,275.369097 C21.2919355,282.261742 19.8064516,289.609935 19.8064516,297.096774 C19.8064516,326.836161 41.7916129,351.475387 70.3525161,355.78329 C73.2640645,371.093677 82.2066774,387.622161 87.3365484,396.129032 L79.2258065,396.129032 C62.845871,396.129032 49.516129,409.458774 49.516129,425.83871 C49.516129,439.534871 58.8746774,450.983 71.5012903,454.399613 C70.1247419,457.826129 69.3225806,461.539839 69.3225806,465.451613 C69.3225806,479.147774 78.681129,490.595903 91.3077419,494.012516 C89.9311935,497.439032 89.1290323,501.152742 89.1290323,505.064516 C89.1290323,517.958516 97.4378387,528.852065 108.935484,532.952 L108.935484,544.677419 C108.935484,582.893968 140.041516,614 178.258065,614 C216.474613,614 247.580645,582.893968 247.580645,544.677419 L247.580645,532.952 C259.07829,528.852065 267.387097,517.958516 267.387097,505.064516 C267.387097,501.152742 266.584935,497.439032 265.208387,494.012516 C277.835,490.586 287.193548,479.147774 287.193548,465.451613 C287.193548,461.539839 286.391387,457.826129 285.014839,454.399613 C297.641452,450.973097 307,439.534871 307,425.83871 C307,409.458774 293.670258,396.129032 277.290323,396.129032 L346.612903,396.129032 C352.079484,396.129032 356.516129,400.565677 356.516129,406.032258 L356.516129,514.967742 C356.516129,531.347677 369.845871,544.677419 386.225806,544.677419 L456.23171,544.677419 C461.133806,583.696129 494.448258,614 534.774194,614 C578.457323,614 614,578.457323 614,534.774194 C614,491.091065 578.457323,455.548387 534.774194,455.548387 C494.448258,455.548387 461.133806,485.852258 456.23171,524.870968 L386.225806,524.870968 C380.759226,524.870968 376.322581,520.434323 376.322581,514.967742 L376.322581,406.032258 C376.322581,389.652323 362.992839,376.322581 346.612903,376.322581 L301.493806,376.322581 C307.940806,370.152871 313.862935,363.51771 319.28,356.516129 L386.225806,356.516129 C391.692387,356.516129 396.129032,360.952774 396.129032,366.419355 L396.129032,406.032258 C396.129032,422.412194 409.458774,435.741935 425.83871,435.741935 L437.564129,435.741935 C441.664065,447.239581 452.557613,455.548387 465.451613,455.548387 C481.831548,455.548387 495.16129,442.218645 495.16129,425.83871 C495.16129,409.458774 481.831548,396.129032 465.451613,396.129032 C452.557613,396.129032 441.664065,404.437839 437.564129,415.935484 L425.83871,415.935484 C420.372129,415.935484 415.935484,411.498839 415.935484,406.032258 L415.935484,366.419355 C415.935484,350.039419 402.605742,336.709677 386.225806,336.709677 L332.560226,336.709677 C336.254129,330.322097 339.542,323.716645 342.423839,316.903226 L456.23171,316.903226 Z M534.774194,247.580645 C567.543968,247.580645 594.193548,274.230226 594.193548,307 C594.193548,339.769774 567.543968,366.419355 534.774194,366.419355 C502.004419,366.419355 475.354839,339.769774 475.354839,307 C475.354839,274.230226 502.004419,247.580645 534.774194,247.580645 Z M465.451613,178.258065 C470.918194,178.258065 475.354839,182.69471 475.354839,188.16129 C475.354839,193.627871 470.918194,198.064516 465.451613,198.064516 C459.985032,198.064516 455.548387,193.627871 455.548387,188.16129 C455.548387,182.69471 459.985032,178.258065 465.451613,178.258065 Z M534.774194,19.8064516 C567.543968,19.8064516 594.193548,46.4560323 594.193548,79.2258065 C594.193548,111.995581 567.543968,138.645161 534.774194,138.645161 C502.004419,138.645161 475.354839,111.995581 475.354839,79.2258065 C475.354839,46.4560323 502.004419,19.8064516 534.774194,19.8064516 Z M534.774194,475.354839 C567.543968,475.354839 594.193548,502.004419 594.193548,534.774194 C594.193548,567.543968 567.543968,594.193548 534.774194,594.193548 C502.004419,594.193548 475.354839,567.543968 475.354839,534.774194 C475.354839,502.004419 502.004419,475.354839 534.774194,475.354839 Z M465.451613,415.935484 C470.918194,415.935484 475.354839,420.372129 475.354839,425.83871 C475.354839,431.30529 470.918194,435.741935 465.451613,435.741935 C459.985032,435.741935 455.548387,431.30529 455.548387,425.83871 C455.548387,420.372129 459.985032,415.935484 465.451613,415.935484 Z M188.16129,435.741935 L188.16129,233.072419 L206.710032,220.713194 L226.575903,240.579065 C228.101,242.104161 229.705323,243.540129 231.388871,244.877065 L199.57971,435.741935 L188.16129,435.741935 Z M79.2258065,415.935484 L108.935484,415.935484 L108.935484,393.108548 L107.271742,390.612935 C103.191613,384.492742 93.9717097,368.558452 90.5352903,355.406968 C117.907806,350.108742 138.645161,325.994387 138.645161,297.096774 L118.83871,297.096774 C118.83871,318.94329 101.072323,336.709677 79.2258065,336.709677 C57.3792903,336.709677 39.6129032,318.94329 39.6129032,297.096774 C39.6129032,292.778968 40.3952581,288.55029 41.7420968,284.509774 C47.3275161,286.252742 53.2694516,287.193548 59.4193548,287.193548 C92.189129,287.193548 118.83871,260.543968 118.83871,227.774194 L99.0322581,227.774194 C99.0322581,249.62071 81.265871,267.387097 59.4193548,267.387097 C37.5728387,267.387097 19.8064516,249.62071 19.8064516,227.774194 C19.8064516,212.998581 28.1053548,199.55 41.4747097,192.696968 L50.9025806,187.85429 L45.4260968,178.773032 C41.5638387,172.375548 39.6129032,165.542323 39.6129032,158.451613 C39.6129032,136.605097 57.3792903,118.83871 79.2258065,118.83871 C79.5922258,118.848613 79.9586452,118.917935 80.3151613,118.967452 C80.9984839,119.066484 81.7016129,119.155613 82.4047419,119.205129 L89.5053548,119.769613 L92.2980645,113.223581 C98.547,98.5866129 112.857161,89.1290323 128.741935,89.1290323 C150.588452,89.1290323 168.354839,106.895419 168.354839,128.741935 L168.354839,435.741935 L99.0322581,435.741935 L79.2258065,435.741935 C73.7592258,435.741935 69.3225806,431.30529 69.3225806,425.83871 C69.3225806,420.372129 73.7592258,415.935484 79.2258065,415.935484 Z M178.258065,594.193548 C150.954871,594.193548 128.741935,571.980613 128.741935,544.677419 L128.741935,534.774194 L227.774194,534.774194 L227.774194,544.677419 C227.774194,571.980613 205.561258,594.193548 178.258065,594.193548 Z M237.677419,514.967742 L118.83871,514.967742 C113.372129,514.967742 108.935484,510.531097 108.935484,505.064516 C108.935484,499.597935 113.372129,495.16129 118.83871,495.16129 L237.677419,495.16129 C243.144,495.16129 247.580645,499.597935 247.580645,505.064516 C247.580645,510.531097 243.144,514.967742 237.677419,514.967742 Z M257.483871,475.354839 L237.677419,475.354839 L118.83871,475.354839 L99.0322581,475.354839 C93.5656774,475.354839 89.1290323,470.918194 89.1290323,465.451613 C89.1290323,459.985032 93.5656774,455.548387 99.0322581,455.548387 L257.483871,455.548387 C262.950452,455.548387 267.387097,459.985032 267.387097,465.451613 C267.387097,470.918194 262.950452,475.354839 257.483871,475.354839 Z M252.809548,387.374581 L247.580645,390.16729 L247.580645,415.935484 L277.290323,415.935484 C282.756903,415.935484 287.193548,420.372129 287.193548,425.83871 C287.193548,431.30529 282.756903,435.741935 277.290323,435.741935 L257.483871,435.741935 L219.653548,435.741935 L249.828677,254.720871 C255.483419,256.523258 261.405548,257.483871 267.387097,257.483871 C283.767032,257.483871 297.096774,244.154129 297.096774,227.774194 C297.096774,211.394258 283.767032,198.064516 267.387097,198.064516 L264.35671,198.064516 C250.294129,198.064516 238.331032,207.759774 235.350161,221.347 L209.215548,195.22229 L188.16129,209.265065 L188.16129,100.398903 C188.16129,97.5170645 189.359581,94.8729032 191.53829,92.9714839 C193.776419,91.0106452 196.678065,90.1490645 199.609419,90.565 C277.775581,101.082226 336.709677,168.582613 336.709677,247.580645 C336.709677,306.148323 304.563806,359.714871 252.809548,387.374581 L252.809548,387.374581 Z M253.146258,234.874806 L254.592129,226.140161 C255.384387,221.356903 259.494226,217.870968 264.35671,217.870968 L267.387097,217.870968 C272.853677,217.870968 277.290323,222.307613 277.290323,227.774194 C277.290323,233.240774 272.853677,237.677419 267.387097,237.677419 C262.485,237.677419 257.642323,236.697 253.146258,234.874806 L253.146258,234.874806 Z" id="Shape" fill="#4431F4" fill-rule="nonzero"></path>
            <path d="M465.451613,178.258065 C470.918194,178.258065 475.354839,182.69471 475.354839,188.16129 C475.354839,193.627871 470.918194,198.064516 465.451613,198.064516 C459.985032,198.064516 455.548387,193.627871 455.548387,188.16129 C455.548387,182.69471 459.985032,178.258065 465.451613,178.258065 Z" id="Path" fill="#FFFFFF"></path>
            <path d="M465.903226,415.935484 C471.369806,415.935484 475.806452,420.372129 475.806452,425.83871 C475.806452,431.30529 471.369806,435.741935 465.903226,435.741935 C460.436645,435.741935 456,431.30529 456,425.83871 C456,420.372129 460.436645,415.935484 465.903226,415.935484 Z" id="Path" fill="#FFFFFF"></path>
            <g id="Group-2" transform="translate(475.000000, 19.000000)">
                <path d="M59.7741935,0.806451613 C92.5439677,0.806451613 119.193548,27.4560323 119.193548,60.2258065 C119.193548,92.9955806 92.5439677,119.645161 59.7741935,119.645161 C27.0044194,119.645161 0.35483871,92.9955806 0.35483871,60.2258065 C0.35483871,27.4560323 27.0044194,0.806451613 59.7741935,0.806451613 Z" id="Path" fill="#DDD9FF"></path>
                <path d="M60,91 C76.54,91 90,77.54 90,61 C90,44.46 76.54,31 60,31 C43.46,31 30,44.46 30,61 C30,77.54 43.46,91 60,91 Z M60,51 C65.52,51 70,55.48 70,61 C70,66.52 65.52,71 60,71 C54.48,71 50,66.52 50,61 C50,55.48 54.48,51 60,51 Z" id="Shape" fill="#4431F4" fill-rule="nonzero"></path>
            </g>
            <g id="Group-2" transform="translate(475.000000, 247.000000)">
                <path d="M59.7741935,0.806451613 C92.5439677,0.806451613 119.193548,27.4560323 119.193548,60.2258065 C119.193548,92.9955806 92.5439677,119.645161 59.7741935,119.645161 C27.0044194,119.645161 0.35483871,92.9955806 0.35483871,60.2258065 C0.35483871,27.4560323 27.0044194,0.806451613 59.7741935,0.806451613 Z" id="Path" fill="#DDD9FF"></path>
                <path d="M60,91 C76.54,91 90,77.54 90,61 C90,44.46 76.54,31 60,31 C43.46,31 30,44.46 30,61 C30,77.54 43.46,91 60,91 Z M60,51 C65.52,51 70,55.48 70,61 C70,66.52 65.52,71 60,71 C54.48,71 50,66.52 50,61 C50,55.48 54.48,51 60,51 Z" id="Shape" fill="#4431F4" fill-rule="nonzero"></path>
            </g>
            <g id="Group-2" transform="translate(475.000000, 475.000000)">
                <path d="M59.7741935,0.806451613 C92.5439677,0.806451613 119.193548,27.4560323 119.193548,60.2258065 C119.193548,92.9955806 92.5439677,119.645161 59.7741935,119.645161 C27.0044194,119.645161 0.35483871,92.9955806 0.35483871,60.2258065 C0.35483871,27.4560323 27.0044194,0.806451613 59.7741935,0.806451613 Z" id="Path" fill="#DDD9FF"></path>
                <path d="M60,91 C76.54,91 90,77.54 90,61 C90,44.46 76.54,31 60,31 C43.46,31 30,44.46 30,61 C30,77.54 43.46,91 60,91 Z M60,51 C65.52,51 70,55.48 70,61 C70,66.52 65.52,71 60,71 C54.48,71 50,66.52 50,61 C50,55.48 54.48,51 60,51 Z" id="Shape" fill="#4431F4" fill-rule="nonzero"></path>
            </g>
            <path d="M535,70 C540.52,70 545,74.48 545,80 C545,85.52 540.52,90 535,90 C529.48,90 525,85.52 525,80 C525,74.48 529.48,70 535,70 Z" id="Path" fill="#FFFFFF"></path>
            <path d="M79.2258065,415.935484 L108.935484,415.935484 L108.935484,393.108548 L107.271742,390.612935 C103.191613,384.492742 93.9717097,368.558452 90.5352903,355.406968 C117.907806,350.108742 138.645161,325.994387 138.645161,297.096774 L118.83871,297.096774 C118.83871,318.94329 101.072323,336.709677 79.2258065,336.709677 C57.3792903,336.709677 39.6129032,318.94329 39.6129032,297.096774 C39.6129032,292.778968 40.3952581,288.55029 41.7420968,284.509774 C47.3275161,286.252742 53.2694516,287.193548 59.4193548,287.193548 C92.189129,287.193548 118.83871,260.543968 118.83871,227.774194 L99.0322581,227.774194 C99.0322581,249.62071 81.265871,267.387097 59.4193548,267.387097 C37.5728387,267.387097 19.8064516,249.62071 19.8064516,227.774194 C19.8064516,212.998581 28.1053548,199.55 41.4747097,192.696968 L50.9025806,187.85429 L45.4260968,178.773032 C41.5638387,172.375548 39.6129032,165.542323 39.6129032,158.451613 C39.6129032,136.605097 57.3792903,118.83871 79.2258065,118.83871 C79.5922258,118.848613 79.9586452,118.917935 80.3151613,118.967452 C80.9984839,119.066484 81.7016129,119.155613 82.4047419,119.205129 L89.5053548,119.769613 L92.2980645,113.223581 C98.547,98.5866129 112.857161,89.1290323 128.741935,89.1290323 C150.588452,89.1290323 168.354839,106.895419 168.354839,128.741935 L168.354839,435.741935 L99.0322581,435.741935 L79.2258065,435.741935 C73.7592258,435.741935 69.3225806,431.30529 69.3225806,425.83871 C69.3225806,420.372129 73.7592258,415.935484 79.2258065,415.935484 Z" id="Path" fill="#DDD9FF"></path>
        </g>
    </g>
</svg>