<svg width="32" height="32" viewBox="0 0 32 32" fill="none" xmlns="http://www.w3.org/2000/svg">
<circle cx="15.6445" cy="16" r="15" fill="white" stroke="#1600FF"/>
<mask id="mask0" mask-type="alpha" maskUnits="userSpaceOnUse" x="9" y="3" width="12" height="13">
<path fill-rule="evenodd" clip-rule="evenodd" d="M9.80371 3.00098H20.3037V15.001H9.80371V3.00098Z" fill="#1600FF"/>
</mask>
<g mask="url(#mask0)">
<path fill-rule="evenodd" clip-rule="evenodd" d="M15.0947 8.93751C13.3649 8.93751 11.9573 7.60628 11.9573 5.96923C11.9573 4.33218 13.3649 3 15.0947 3C16.8245 3 18.2322 4.33218 18.2322 5.96923C18.2322 7.60628 16.8245 8.93751 15.0947 8.93751ZM15.0946 3.71054C13.779 3.71054 12.7075 4.72364 12.7075 5.96965C12.7075 7.21472 13.779 8.22782 15.0946 8.22782C16.4102 8.22782 17.4817 7.21472 17.4817 5.96965C17.4817 4.72364 16.4102 3.71054 15.0946 3.71054ZM19.8374 15.0003H19.8454C20.0495 15.0003 20.2166 14.8459 20.2206 14.6528L20.3036 12.5489C20.3036 10.8399 18.834 9.45 17.0281 9.45H16.667C16.613 9.45 16.5599 9.46042 16.5109 9.4822C15.6155 9.87229 14.582 9.87418 13.6776 9.4822C13.6286 9.46042 13.5746 9.45 13.5215 9.45H13.1614C11.3556 9.45 9.88589 10.8399 9.88589 12.5414L9.80378 14.6376C9.79985 14.8336 9.96392 14.9955 10.171 15.0003H10.179C10.3831 15.0003 10.5502 14.8459 10.5542 14.6528L10.6362 12.5489C10.6362 11.2319 11.7687 10.1601 13.1614 10.1601H13.4415C14.498 10.5947 15.6995 10.5928 16.747 10.1601H17.0281C18.4198 10.1601 19.5533 11.2319 19.5533 12.5414L19.4703 14.6376C19.4663 14.8336 19.6303 14.9955 19.8374 15.0003Z" fill="#1600FF"/>
</g>
<mask id="mask1" mask-type="alpha" maskUnits="userSpaceOnUse" x="5" y="14" width="11" height="12">
<path fill-rule="evenodd" clip-rule="evenodd" d="M5.30469 14.25H15.3227V25.9489H5.30469V14.25Z" fill="white"/>
</mask>
<g mask="url(#mask1)">
<path fill-rule="evenodd" clip-rule="evenodd" d="M10.3525 20.0386C8.70205 20.0386 7.35901 18.7408 7.35901 17.1448C7.35901 15.5488 8.70205 14.25 10.3525 14.25C12.0029 14.25 13.3459 15.5488 13.3459 17.1448C13.3459 18.7408 12.0029 20.0386 10.3525 20.0386ZM10.3523 14.943C9.09703 14.943 8.07471 15.9307 8.07471 17.1454C8.07471 18.3593 9.09703 19.347 10.3523 19.347C11.6075 19.347 12.6298 18.3593 12.6298 17.1454C12.6298 15.9307 11.6075 14.943 10.3523 14.943ZM14.878 25.9498H14.8856C15.0803 25.9498 15.2397 25.7993 15.2435 25.611L15.3228 23.5599C15.3228 21.8938 13.9205 20.5387 12.1976 20.5387H11.853C11.8015 20.5387 11.7509 20.5489 11.7041 20.5701C10.8498 20.9504 9.86373 20.9523 9.00082 20.5701C8.95405 20.5489 8.9025 20.5387 8.85191 20.5387H8.50828C6.78532 20.5387 5.38309 21.8938 5.38309 23.5526L5.30475 25.5963C5.301 25.7873 5.45755 25.9452 5.65514 25.9498H5.66278C5.8575 25.9498 6.01691 25.7993 6.02073 25.611L6.099 23.5599C6.099 22.2759 7.17955 21.231 8.50828 21.231H8.77555C9.78355 21.6547 10.93 21.6529 11.9294 21.231H12.1976C13.5254 21.231 14.6069 22.2759 14.6069 23.5526L14.5276 25.5963C14.5238 25.7873 14.6804 25.9452 14.878 25.9498Z" fill="#1600FF"/>
</g>
<mask id="mask2" mask-type="alpha" maskUnits="userSpaceOnUse" x="15" y="14" width="11" height="12">
<path fill-rule="evenodd" clip-rule="evenodd" d="M15.583 14.25H25.3064V25.9489H15.583V14.25Z" fill="#1600FF"/>
</mask>
<g mask="url(#mask2)">
<path fill-rule="evenodd" clip-rule="evenodd" d="M20.4824 20.0386C18.8805 20.0386 17.577 18.7408 17.577 17.1448C17.577 15.5488 18.8805 14.25 20.4824 14.25C22.0843 14.25 23.3878 15.5488 23.3878 17.1448C23.3878 18.7408 22.0843 20.0386 20.4824 20.0386ZM20.482 14.943C19.2637 14.943 18.2715 15.9307 18.2715 17.1454C18.2715 18.3593 19.2637 19.347 20.482 19.347C21.7004 19.347 22.6926 18.3593 22.6926 17.1454C22.6926 15.9307 21.7004 14.943 20.482 14.943ZM24.8747 25.9498H24.8821C25.0711 25.9498 25.2258 25.7993 25.2295 25.611L25.3064 23.5599C25.3064 21.8938 23.9455 20.5387 22.2732 20.5387H21.9387C21.8887 20.5387 21.8396 20.5489 21.7942 20.5701C20.965 20.9504 20.008 20.9523 19.1704 20.5701C19.125 20.5489 19.075 20.5387 19.0259 20.5387H18.6924C17.0201 20.5387 15.6591 21.8938 15.6591 23.5526L15.5831 25.5963C15.5794 25.7873 15.7314 25.9452 15.9232 25.9498H15.9306C16.1196 25.9498 16.2743 25.7993 16.278 25.611L16.354 23.5599C16.354 22.2759 17.4027 21.231 18.6924 21.231H18.9518C19.9301 21.6547 21.0428 21.6529 22.0128 21.231H22.2732C23.5619 21.231 24.6116 22.2759 24.6116 23.5526L24.5347 25.5963C24.531 25.7873 24.6829 25.9452 24.8747 25.9498Z" fill="#1600FF"/>
</g>
</svg>
