<svg width="12" height="16" viewBox="0 0 12 16" fill="none" xmlns="http://www.w3.org/2000/svg">
<path fill-rule="evenodd" clip-rule="evenodd" d="M8.35444 7.57895C8.35444 8.97684 7.22602 10.1053 5.82812 10.1053C4.43023 10.1053 3.30181 8.97684 3.30181 7.57895V2.52632C3.30181 1.12842 4.43023 0 5.82812 0C7.22602 0 8.35444 1.12842 8.35444 2.52632V7.57895ZM9.97969 8.29474C10.0471 7.88211 10.3923 7.57895 10.805 7.57895C11.3186 7.57895 11.7313 8.03368 11.6471 8.53895C11.2344 11.0653 9.21338 13.0442 6.67022 13.4063V15.1579C6.67022 15.6211 6.29127 16 5.82811 16C5.36496 16 4.98601 15.6211 4.98601 15.1579V13.4063C2.44285 13.0442 0.421798 11.0653 0.00916627 8.53895C-0.0666232 8.03368 0.337587 7.57895 0.851272 7.57895C1.2639 7.57895 1.60917 7.88211 1.67653 8.29474C2.0218 10.2737 3.74811 11.7895 5.82811 11.7895C7.90811 11.7895 9.63443 10.2737 9.97969 8.29474Z" fill="#1600FF"/>
</svg>
