<svg width="186" height="40" viewBox="0 0 186 40" fill="none" xmlns="http://www.w3.org/2000/svg">
<path d="M39.9042 14.1161C39.8628 13.8719 39.7732 13.6384 39.6405 13.4291C39.5079 13.2199 39.3349 13.039 39.1316 12.897C39.0653 12.8521 25.9261 3.70111 21.2833 0.488033C20.8182 0.166024 20.2646 -0.00442484 19.6985 8.73251e-05C19.1325 0.00459949 18.5817 0.183852 18.1218 0.513233C13.5745 3.77356 0.637276 12.9938 0.563092 13.0458C0.380397 13.2211 0.236074 13.4322 0.139227 13.6658C0.0423804 13.8995 -0.00488935 14.1507 0.000399539 14.4035V37.8243C-0.000889501 38.0603 0.0450292 38.2941 0.135464 38.5121C0.225899 38.7301 0.359031 38.9278 0.527056 39.0938C0.695081 39.2598 0.894619 39.3906 1.11397 39.4787C1.33333 39.5667 1.56809 39.6102 1.80449 39.6065H9.01532L8.84644 39.438C8.64514 39.2362 8.53212 38.9631 8.53212 38.6784C8.53212 38.3937 8.64514 38.1206 8.84644 37.9188L9.70271 37.0644L10.1147 36.6533L8.84644 35.3878C8.80029 35.3411 8.7583 35.2905 8.72095 35.2365C8.57848 35.0298 8.51302 34.7798 8.53594 34.53C8.55886 34.2801 8.66871 34.0461 8.84644 33.8686L9.74611 32.9709L10.1147 32.6031L9.52988 32.0951C9.25366 31.8549 8.85591 31.614 8.71148 31.2682C8.51577 30.7957 8.62073 30.1484 8.62073 29.6459V29.5971C6.86149 28.8107 5.36684 27.5348 4.3159 25.9222C3.26497 24.3096 2.70235 22.4288 2.69549 20.5052C2.65682 15.0162 7.10311 10.5313 12.603 10.4738C15.4551 10.4415 18.1218 11.681 19.9677 13.5687C19.7191 13.7916 19.4642 14.0239 19.2409 14.2649C17.672 15.9596 16.736 18.1237 16.736 20.4328C16.736 22.4756 17.4644 24.405 18.8415 26.0793C18.9702 26.2368 19.1043 26.3872 19.2417 26.5352C19.4682 26.7802 19.7033 27.0755 19.9519 27.3047C19.0507 28.2436 17.9736 28.9971 16.7817 29.5223C16.7608 29.5318 16.7431 29.5471 16.7307 29.5664C16.7182 29.5856 16.7116 29.6081 16.7115 29.631V39.4907C16.7114 39.5064 16.7144 39.5219 16.7204 39.5364C16.7263 39.5508 16.7351 39.564 16.7462 39.5751C16.7573 39.5861 16.7704 39.5949 16.7849 39.6008C16.7995 39.6067 16.815 39.6097 16.8307 39.6096H23.171C23.2026 39.6096 23.233 39.5971 23.2553 39.5748C23.2776 39.5525 23.2902 39.5223 23.2902 39.4907V29.6278C23.29 29.6048 23.2832 29.5824 23.2706 29.5631C23.258 29.5439 23.2402 29.5286 23.2192 29.5192C22.0193 28.9918 20.9354 28.2337 20.0293 27.2881C20.2739 27.0613 20.5107 26.7723 20.7324 26.5321C20.8698 26.384 21.0039 26.232 21.1326 26.0761C22.5105 24.4019 23.2381 22.4724 23.2381 20.4296C23.2381 18.1206 22.3021 15.9565 20.7332 14.2618C20.513 14.0255 20.2597 13.7955 20.0103 13.575C21.857 11.685 24.5348 10.4383 27.3916 10.4706C32.8915 10.5313 37.3354 15.0162 37.2991 20.5052C37.2922 22.4276 36.7302 24.3072 35.6805 25.9191C34.6308 27.531 33.1378 28.8069 31.3802 29.594V29.6105C31.3802 30.0318 31.4181 30.4689 31.3336 30.8894C31.2963 31.0975 31.2156 31.2955 31.0969 31.4706C30.9532 31.6738 30.7441 31.8258 30.5626 31.9928C30.3369 32.1991 30.1085 32.4031 29.8776 32.6047L30.4497 33.1756L31.1458 33.8702C31.3229 34.0468 31.4327 34.2795 31.4563 34.5282C31.4799 34.7768 31.4159 35.026 31.2752 35.2326C31.2371 35.289 31.1937 35.3417 31.1458 35.3901L29.8776 36.6557L30.4411 37.2187L31.1458 37.9212C31.1545 37.9299 31.1616 37.9393 31.1703 37.948C31.2078 37.9882 31.2424 38.0311 31.2737 38.0763C31.395 38.2544 31.4599 38.4647 31.4599 38.68C31.4599 38.8953 31.395 39.1056 31.2737 39.2836C31.2355 39.34 31.1921 39.3927 31.1442 39.4411L30.9753 39.6096H38.1341C38.6194 39.6096 39.0732 39.4829 39.4126 39.1245C39.7444 38.7741 39.9281 38.3096 39.9255 37.8275V14.4035C39.9257 14.3073 39.9184 14.2111 39.9035 14.1161" fill="url(#paint0_linear)"/>
<path d="M75.6049 33.422C75.5678 33.385 75.5237 33.3556 75.4752 33.3358C75.4266 33.3159 75.3746 33.3059 75.3221 33.3063C75.2697 33.3068 75.2178 33.3176 75.1696 33.3383C75.1214 33.359 75.0778 33.3891 75.0414 33.4268C72.965 35.5712 70.3852 36.6139 67.1574 36.6139C64.0338 36.6139 61.1698 35.4972 59.0926 33.4685C57.0155 31.4399 55.8719 28.6418 55.8719 25.5886C55.8719 22.5354 57.0155 19.7381 59.0926 17.7095C61.1698 15.6808 64.0338 14.5633 67.1574 14.5633C70.3765 14.5633 72.9563 15.5942 75.0438 17.7134C75.0804 17.7504 75.1241 17.7798 75.1723 17.7999C75.2205 17.8199 75.2721 17.8303 75.3243 17.8303C75.3765 17.8303 75.4282 17.8199 75.4763 17.7999C75.5245 17.7798 75.5682 17.7504 75.6049 17.7134L77.4595 15.8627C77.531 15.791 77.5722 15.6946 77.5744 15.5934C77.5766 15.4922 77.5397 15.3941 77.4713 15.3193C75.0295 12.6465 71.3385 11.1738 67.0785 11.1738C62.947 11.1738 59.1692 12.6276 56.4409 15.2689C53.7127 17.9103 52.2022 21.577 52.2022 25.5854C52.2022 29.5939 53.7017 33.2582 56.4354 35.9019C59.1692 38.5456 62.9249 39.997 67.039 39.997C71.3006 39.997 75.0098 38.511 77.4713 35.813C77.5397 35.7382 77.5766 35.6401 77.5744 35.5389C77.5722 35.4377 77.531 35.3413 77.4595 35.2696L75.6049 33.422Z" fill="#1600FF"/>
<path d="M110.227 11.6494H107.347C107.242 11.6494 107.142 11.6909 107.068 11.7647C106.994 11.8386 106.952 11.9387 106.952 12.0432V23.9347H90.4582V12.0432C90.4582 11.9387 90.4166 11.8386 90.3426 11.7647C90.2686 11.6909 90.1683 11.6494 90.0636 11.6494H87.1436C87.039 11.6494 86.9386 11.6909 86.8646 11.7647C86.7906 11.8386 86.749 11.9387 86.749 12.0432V39.6064C86.749 39.7108 86.7906 39.8109 86.8646 39.8848C86.9386 39.9586 87.039 40.0001 87.1436 40.0001H90.0636C90.1683 40.0001 90.2686 39.9586 90.3426 39.8848C90.4166 39.8109 90.4582 39.7108 90.4582 39.6064V27.2817H106.952V39.6064C106.952 39.7108 106.994 39.8109 107.068 39.8848C107.142 39.9586 107.242 40.0001 107.347 40.0001H110.227C110.332 40.0001 110.432 39.9586 110.506 39.8848C110.58 39.8109 110.622 39.7108 110.622 39.6064V12.0432C110.622 11.9387 110.58 11.8386 110.506 11.7647C110.432 11.6909 110.332 11.6494 110.227 11.6494Z" fill="#1600FF"/>
<path d="M142.25 36.6925H126.034V27.2423H139.924C140.029 27.2423 140.129 27.2008 140.203 27.127C140.277 27.0531 140.318 26.953 140.318 26.8485V24.3679C140.318 24.2634 140.277 24.1633 140.203 24.0894C140.129 24.0156 140.029 23.9741 139.924 23.9741H126.034V14.957H141.66C141.765 14.957 141.865 14.9155 141.939 14.8417C142.013 14.7678 142.055 14.6677 142.055 14.5632V12.0432C142.055 11.9387 142.013 11.8386 141.939 11.7647C141.865 11.6909 141.765 11.6494 141.66 11.6494H122.72C122.615 11.6494 122.515 11.6909 122.441 11.7647C122.367 11.8386 122.325 11.9387 122.325 12.0432V39.6064C122.325 39.7108 122.367 39.8109 122.441 39.8848C122.515 39.9586 122.615 40.0001 122.72 40.0001H142.252C142.357 40.0001 142.457 39.9586 142.531 39.8848C142.605 39.8109 142.647 39.7108 142.647 39.6064V37.0863C142.647 37.0345 142.636 36.9831 142.616 36.9352C142.596 36.8874 142.567 36.8439 142.53 36.8073C142.494 36.7707 142.45 36.7418 142.402 36.7221C142.354 36.7024 142.302 36.6923 142.25 36.6925Z" fill="#1600FF"/>
<path d="M177.633 39.3756L171.192 30.3562C175.119 28.8985 177.272 25.7704 177.272 21.4934C177.272 18.4788 176.183 15.9745 174.123 14.2482C172.086 12.5456 169.136 11.6494 165.592 11.6494H155.254C155.149 11.6494 155.049 11.6909 154.975 11.7647C154.901 11.8386 154.859 11.9387 154.859 12.0432V39.6064C154.859 39.7108 154.901 39.8109 154.975 39.8848C155.049 39.9586 155.149 40.0001 155.254 40.0001H158.174C158.279 40.0001 158.379 39.9586 158.453 39.8848C158.527 39.8109 158.569 39.7108 158.569 39.6064V31.2587H165.592C166.267 31.2605 166.942 31.2284 167.614 31.1626L173.794 39.8347C173.831 39.8858 173.879 39.9275 173.935 39.9563C173.991 39.9851 174.053 40.0001 174.116 40.0001H177.312C177.384 40.0001 177.455 39.9801 177.517 39.9425C177.579 39.9048 177.629 39.8509 177.662 39.7867C177.695 39.7224 177.71 39.6503 177.705 39.5782C177.7 39.5061 177.675 39.4369 177.633 39.378V39.3756ZM173.563 21.491C173.563 25.6807 170.705 27.9881 165.513 27.9881H158.569V14.957H165.513C168.15 14.957 170.182 15.5358 171.555 16.6777C172.888 17.7858 173.563 19.4065 173.563 21.4934V21.491Z" fill="#1600FF"/>
<path d="M184.994 10.9559L184.43 10.3197C184.773 10.2168 184.962 9.99617 184.962 9.69444C184.962 9.48178 184.867 9.30511 184.686 9.18333C184.508 9.06322 184.25 9 183.94 9H183.035C183.025 9 183.017 9.00293 183.01 9.00814C183.004 9.01335 183 9.02041 183 9.02778V10.9722C183 10.9796 183.004 10.9867 183.01 10.9919C183.017 10.9971 183.025 11 183.035 11H183.29C183.299 11 183.308 10.9971 183.315 10.9919C183.321 10.9867 183.325 10.9796 183.325 10.9722V10.3833H183.94C183.999 10.3835 184.058 10.3812 184.117 10.3766L184.658 10.9883C184.661 10.9919 184.665 10.9949 184.67 10.9969C184.675 10.9989 184.68 11 184.686 11H184.965C184.972 11 184.978 10.9986 184.983 10.9959C184.989 10.9933 184.993 10.9895 184.996 10.9849C184.999 10.9804 185 10.9753 185 10.9702C184.999 10.9652 184.997 10.9601 184.994 10.9559ZM184.637 9.69428C184.637 9.98983 184.387 10.1526 183.933 10.1526H183.325V9.23333H183.933C184.163 9.23333 184.341 9.27417 184.462 9.35472C184.578 9.43289 184.637 9.54706 184.637 9.69428Z" fill="#1600FF"/>
<circle cx="184" cy="10" r="1.9" stroke="#1600FF" stroke-width="0.2"/>
<defs>
<linearGradient id="paint0_linear" x1="19.9628" y1="0" x2="19.9628" y2="39.6096" gradientUnits="userSpaceOnUse">
<stop stop-color="#113CE7"/>
<stop offset="1" stop-color="#051C9E"/>
</linearGradient>
</defs>
</svg>
