<svg width="26" height="27" viewBox="0 0 26 27" fill="none" xmlns="http://www.w3.org/2000/svg">
<path d="M5.66667 25H4.66667V26.9638L6.25484 25.8087L5.66667 25ZM5.66667 19.6667H6.66667C6.66667 19.1144 6.21895 18.6667 5.66667 18.6667V19.6667ZM1 19.6667H0C0 20.219 0.447715 20.6667 1 20.6667L1 19.6667ZM1 1V0C0.447715 0 0 0.447715 0 1L1 1ZM25 1H26C26 0.447715 25.5523 0 25 0V1ZM25 19.6667V20.6667C25.5523 20.6667 26 20.219 26 19.6667H25ZM13 19.6667V18.6667C12.7887 18.6667 12.5827 18.7336 12.4118 18.8579L13 19.6667ZM6.66667 25V19.6667H4.66667V25H6.66667ZM5.66667 18.6667H1V20.6667H5.66667V18.6667ZM2 19.6667V1H0V19.6667H2ZM1 2H25V0H1V2ZM24 1V19.6667H26V1H24ZM25 18.6667H13V20.6667H25V18.6667ZM12.4118 18.8579L5.0785 24.1913L6.25484 25.8087L13.5882 20.4754L12.4118 18.8579Z" fill="#1600FF"/>
</svg>
