<?xml version="1.0" encoding="utf-8"?>
<!-- Generator: Adobe Illustrator 23.1.1, SVG Export Plug-In . SVG Version: 6.00 Build 0)  -->
<svg version="1.1" id="Layer_1" xmlns="http://www.w3.org/2000/svg" xmlns:xlink="http://www.w3.org/1999/xlink" x="0px" y="0px"
	 width="77px" height="85px" viewBox="0 0 77 85" style="enable-background:new 0 0 77 85;" xml:space="preserve">
<style type="text/css">
	.st0{fill-rule:evenodd;clip-rule:evenodd;}
	.st1{fill-rule:evenodd;clip-rule:evenodd;fill:#FFFFFF;stroke:#DAE0FF;stroke-width:1.6327;}
	.st2{fill-rule:evenodd;clip-rule:evenodd;fill:#F6F6F6;}
	.st3{fill-rule:evenodd;clip-rule:evenodd;fill:#FAFAFA;}
	.st4{fill:none;stroke:#D0D0D0;stroke-width:5.7143;stroke-linecap:round;}
	.st5{fill:none;stroke:#F7F5F5;stroke-width:3.2653;stroke-linecap:round;}
	.st6{fill:none;stroke:#E3E3E3;stroke-width:10.6122;}
	.st7{fill:none;stroke:#FFFFFF;stroke-width:6.5306;}
	.st8{fill-rule:evenodd;clip-rule:evenodd;fill:#0A2799;}
	.st9{fill-rule:evenodd;clip-rule:evenodd;fill:#C3C3C3;}
	.st10{fill-rule:evenodd;clip-rule:evenodd;fill:#1600FF;}
	.st11{fill-rule:evenodd;clip-rule:evenodd;fill:#FFFFFF;}
	.st12{fill-rule:evenodd;clip-rule:evenodd;fill:#484848;}
</style>
<title>Group 17</title>
<desc>Created with Sketch.</desc>
<g id="Cherapp">
	<g id="desktop_property-logged-out_modal" transform="translate(-751.000000, -385.000000)">
		<g id="Padding-Group-16" transform="translate(42.000000, 357.000000)">
			<g id="Group-6" transform="translate(714.000000, 28.000000)">
				<g id="Rectangle">
					<g>
						<path id="path-1" class="st0" d="M5.1,13.2h55.7c4.5,0,8.2,3.7,8.2,8.2V64c0,4.5-3.7,8.2-8.2,8.2H5.1c-4.5,0-8.2-3.7-8.2-8.2
							V21.4C-3.1,16.9,0.6,13.2,5.1,13.2z"/>
					</g>
					<path class="st1" d="M4.3,12.4h57.3c4.5,0,8.2,3.7,8.2,8.2v44.3c0,4.5-3.7,8.2-8.2,8.2H4.3c-4.5,0-8.2-3.7-8.2-8.2V20.6
						C-3.9,16-0.2,12.4,4.3,12.4z"/>
				</g>
				<path id="Rectangle-Copy-5" class="st2" d="M4.7,14.2h57.6c3.2,0,5.7,2.6,5.7,5.7v44.6c0,3.2-2.6,5.7-5.7,5.7H4.7
					c-3.2,0-5.7-2.6-5.7-5.7V19.9C-1.1,16.8,1.5,14.2,4.7,14.2z"/>
				<circle id="Oval" class="st3" cx="32.9" cy="39.2" r="17"/>
				<g id="Path-6">
					<g>
						<polyline id="path-3" class="st4" points="7.9,64.2 32.2,64.2 32.2,40.4 57.9,40.4 57.9,23.2 						"/>
					</g>
					<g>
						<polyline class="st5" points="7.9,64.2 32.2,64.2 32.2,40.4 57.9,40.4 57.9,23.2 						"/>
					</g>
				</g>
				<g id="Path-6-Copy">
					<g>
						<polyline id="path-4" class="st6" points="32.9,55.2 32.9,40.2 49.9,40.2 						"/>
					</g>
					<g>
						<polyline class="st7" points="32.9,55.2 32.9,40.2 49.9,40.2 						"/>
					</g>
				</g>
				<path id="Shape-Copy" class="st8" d="M58.9,10.2c2.2,0,4,1.9,4,4.2c0,1.5-1.3,4.1-4,7.8l-0.2-0.3c-2.5-3.5-3.8-6-3.8-7.5
					C54.9,12.1,56.7,10.2,58.9,10.2z M58.9,12.7c-0.8,0-1.5,0.7-1.5,1.5s0.7,1.5,1.5,1.5s1.5-0.7,1.5-1.5S59.8,12.7,58.9,12.7z"/>
				<path id="Shape-Copy-2" class="st8" d="M8.9,52.2c2.2,0,4,1.9,4,4.2c0,1.5-1.3,4.1-4,7.8l-0.2-0.3c-2.5-3.5-3.8-6-3.8-7.5
					C4.9,54.1,6.7,52.2,8.9,52.2z M8.9,54.7c-0.8,0-1.5,0.7-1.5,1.5s0.7,1.5,1.5,1.5s1.5-0.7,1.5-1.5S9.8,54.7,8.9,54.7z"/>
				<ellipse class="st9" cx="32.9" cy="40.2" rx="2" ry="1"/>
				<path id="Shape" class="st8" d="M33.4,7.2c4.7,0,8.5,3.7,8.5,8.3c0,3.1-2.8,8.3-8.5,15.7L33,30.6c-5.4-7.1-8.1-12.1-8.1-15.1
					C24.9,10.9,28.7,7.2,33.4,7.2z M33.2,12.6c-1.8,0-3.2,1.4-3.2,3.2s1.5,3.2,3.2,3.2s3.2-1.4,3.2-3.2S35,12.6,33.2,12.6z"/>
				<path id="Combined-Shape" class="st10" d="M32.9,20.2c4.1,0,7.9,1.3,11,3.6c-2.4,4.5-6.1,9.9-11,16.4l-0.8-1
					c-4.6-6-8-11.1-10.2-15.4C25,21.6,28.8,20.2,32.9,20.2z"/>
				<g>
					<g>
						<path id="path-5" class="st0" d="M33.3,19.2c10.7,0,19.3,8.6,19.3,19.2c0,4.6-1.6,8.7-4.3,12l8.6,8.6l-3.1,3.1l-8.6-8.7
							c-3.3,2.6-7.5,4.1-12,4.1c-10.7,0-19.3-8.6-19.3-19.2S22.6,19.2,33.3,19.2z M33.3,22.7c-8.8,0-15.9,7-15.9,15.7
							s7.1,15.7,15.9,15.7s15.9-7,15.9-15.7S42,22.7,33.3,22.7z"/>
					</g>
					<g>
						<path class="st11" d="M33.3,19.2c10.7,0,19.3,8.6,19.3,19.2c0,4.6-1.6,8.7-4.3,12l8.6,8.6l-3.1,3.1l-8.6-8.7
							c-3.3,2.6-7.5,4.1-12,4.1c-10.7,0-19.3-8.6-19.3-19.2S22.6,19.2,33.3,19.2z M33.3,22.7c-8.8,0-15.9,7-15.9,15.7
							s7.1,15.7,15.9,15.7s15.9-7,15.9-15.7S42,22.7,33.3,22.7z"/>
					</g>
				</g>
				<path class="st12" d="M50.6,52.5L70.2,70c1.6,1.5,1.8,4,0.3,5.6c-0.1,0.1-0.1,0.1-0.2,0.2c-1.6,1.6-4.1,1.5-5.6,0
					c-0.1-0.1-0.1-0.1-0.2-0.2L47.1,56l0,0L50.6,52.5z"/>
			</g>
		</g>
	</g>
</g>
</svg>
