<svg width="40" height="40" viewBox="0 0 40 40" fill="none" xmlns="http://www.w3.org/2000/svg">
<path d="M40 4C40 1.8 38.2 0 36 0H4C1.8 0 0 1.8 0 4V28C0 30.2 1.8 32 4 32H32L40 40V4Z" fill="#1600FF"/>
<path d="M19.4 5.0195C14.62 5.3295 11 9.5195 11 14.3095V20.9995C11 22.6595 12.34 23.9995 14 23.9995H15C16.1 23.9995 17 23.0995 17 21.9995V17.9995C17 16.8995 16.1 15.9995 15 15.9995H13V14.2895C13 10.4495 15.96 7.1095 19.79 6.9995C23.76 6.8895 27 10.0595 27 13.9995V15.9995H25C23.9 15.9995 23 16.8995 23 17.9995V21.9995C23 23.0995 23.9 23.9995 25 23.9995H27V24.9995H21C20.45 24.9995 20 25.4495 20 25.9995C20 26.5495 20.45 26.9995 21 26.9995H26C27.66 26.9995 29 25.6595 29 23.9995V13.9995C29 8.8295 24.64 4.6795 19.4 5.0195Z" fill="white"/>
</svg>
