<?xml version="1.0" encoding="utf-8"?>
<!-- Generator: Adobe Illustrator 23.1.1, SVG Export Plug-In . SVG Version: 6.00 Build 0)  -->
<svg version="1.1" id="Layer_1" xmlns="http://www.w3.org/2000/svg" xmlns:xlink="http://www.w3.org/1999/xlink" x="0px" y="0px"
	 width="30px" height="30px" viewBox="0 0 30 30" style="enable-background:new 0 0 30 30;" xml:space="preserve">
<style type="text/css">
	.st0{fill:#1600FF;}
</style>
<title>noun_Blueprint_2006582</title>
<desc>Created with Sketch.</desc>
<g id="Cherapp">
	<g id="desktop_property" transform="translate(-1075.000000, -745.000000)">
		<g transform="translate(1075.000000, 745.000000)">
			<g id="Group">
				<path id="Path" class="st0" d="M28.9,26.4c-1,0.4-2.7,1.1-3.3,1.1c-0.4,0-1-0.3-1.6-0.5c-0.7-0.3-1.4-0.6-1.9-0.6
					c-0.6,0-1.3,0.3-2.1,0.6c-0.5,0.2-1.2,0.5-1.5,0.5c-0.3,0-1-0.3-1.6-0.5c-0.7-0.3-1.4-0.6-2-0.6s-1.3,0.3-2,0.6
					c-0.6,0.3-1.2,0.5-1.6,0.5c-0.3,0-1-0.3-1.6-0.5c-0.7-0.3-1.4-0.6-2-0.6c-0.6,0-1.3,0.3-2,0.6c-0.6,0.3-1.2,0.5-1.6,0.5
					c-0.6,0-2.4-0.7-3.3-1.1c-0.3-0.1-0.6,0-0.8,0.3c-0.1,0.3,0,0.6,0.3,0.7c0.5,0.2,2.8,1.2,3.8,1.2c0.6,0,1.3-0.3,2-0.6
					c0.6-0.3,1.2-0.5,1.6-0.5c0.3,0,1,0.3,1.6,0.5c0.7,0.3,1.4,0.6,2,0.6s1.3-0.3,2-0.6c0.6-0.3,1.2-0.5,1.6-0.5
					c0.3,0,1,0.3,1.6,0.5c0.7,0.3,1.4,0.6,2,0.6c0.6,0,1.3-0.3,2-0.6c0.6-0.3,1.2-0.6,1.6-0.5c0.4,0,1,0.3,1.5,0.5
					c0.8,0.3,1.5,0.6,2.1,0.6c1,0,3.4-1,3.8-1.2c0.3-0.1,0.4-0.5,0.3-0.7C29.6,26.4,29.2,26.3,28.9,26.4z"/>
				<path class="st0" d="M0.3,23.9c0.5,0.2,2.8,1.2,3.8,1.2c0.6,0,1.3-0.3,2-0.6C6.7,24.3,7.4,24,7.7,24c0.3,0,1,0.3,1.6,0.5
					c0.7,0.3,1.4,0.6,2,0.6c0.6,0,1.3-0.3,2-0.6c0.6-0.3,1.2-0.5,1.6-0.5c0.3,0,1,0.3,1.6,0.5c0.7,0.3,1.4,0.6,2,0.6
					c0.6,0,1.3-0.3,2-0.6C21,24.3,21.7,24,22,24c0.4,0,1,0.3,1.5,0.5c0.8,0.3,1.5,0.6,2.1,0.6c1,0,3.4-1,3.8-1.2
					c0.3-0.1,0.4-0.5,0.3-0.7c-0.1-0.3-0.5-0.4-0.8-0.3c-1,0.4-2.7,1.1-3.3,1.1c-0.4,0-1-0.3-1.6-0.5c-0.7-0.3-1.4-0.6-1.9-0.6
					c-0.6,0-1.3,0.3-2.1,0.6c-0.5,0.2-1.2,0.5-1.5,0.5c-0.3,0-1-0.3-1.6-0.5c-0.7-0.3-1.4-0.6-2-0.6s-1.3,0.3-2,0.6
					c-0.6,0.3-1.2,0.5-1.6,0.5c-0.3,0-1-0.3-1.6-0.5c-0.7-0.3-1.4-0.6-2-0.6c-0.6,0-1.3,0.3-2,0.6C5.1,23.8,4.5,24,4.1,24
					c-0.6,0-2.4-0.7-3.3-1.1c-0.3-0.1-0.6,0-0.8,0.3C-0.1,23.5,0,23.8,0.3,23.9z"/>
				<path id="Shape" class="st0" d="M16.1,21.7c0.3,0,0.6-0.3,0.6-0.6v-2.9h4.8v2.9c0,0.3,0.3,0.6,0.6,0.6s0.6-0.3,0.6-0.6V10.6
					c0-0.3,0.3-0.6,0.6-0.6c0.3,0,0.6,0.3,0.6,0.6c0,0.3,0.3,0.6,0.6,0.6s0.6-0.3,0.6-0.6c0-1-0.8-1.7-1.8-1.7
					c-0.9,0-1.7,0.7-1.8,1.6c0,0,0,0.1,0,0.1v2.9h-4.8v-2.9c0-0.3,0.3-0.6,0.6-0.6s0.6,0.3,0.6,0.6c0,0.3,0.3,0.6,0.6,0.6
					s0.6-0.3,0.6-0.6c0-1-0.8-1.7-1.8-1.7c-0.9,0-1.7,0.7-1.8,1.6c0,0,0,0.1,0,0.1v10.5C15.5,21.4,15.8,21.7,16.1,21.7z M21.5,14.7
					V17h-4.8v-2.4H21.5z"/>
			</g>
		</g>
	</g>
</g>
</svg>
