<svg width="23" height="24" viewBox="0 0 23 24" fill="none" xmlns="http://www.w3.org/2000/svg">
<path fill-rule="evenodd" clip-rule="evenodd" d="M13.935 8C13.935 8.62857 13.4124 9.14286 12.7737 9.14286C12.135 9.14286 11.6125 8.62857 11.6125 8V5.71429H9.28992C8.65122 5.71429 8.12865 5.2 8.12865 4.57143C8.12865 3.94286 8.65122 3.42857 9.28992 3.42857H11.6125V1.14286C11.6125 0.514286 12.135 0 12.7737 0C13.4124 0 13.935 0.514286 13.935 1.14286V3.42857H16.2575C16.8962 3.42857 17.4188 3.94286 17.4188 4.57143C17.4188 5.2 16.8962 5.71429 16.2575 5.71429H13.935V8ZM4.6566 21.7142C4.6566 20.4571 5.69013 19.4285 6.96753 19.4285C8.24493 19.4285 9.29007 20.4571 9.29007 21.7142C9.29007 22.9714 8.24493 24 6.96753 24C5.69013 24 4.6566 22.9714 4.6566 21.7142ZM18.5806 19.4285C17.3032 19.4285 16.2697 20.4571 16.2697 21.7142C16.2697 22.9714 17.3032 24 18.5806 24C19.858 24 20.9032 22.9714 20.9032 21.7142C20.9032 20.4571 19.858 19.4285 18.5806 19.4285ZM16.8965 13.7143H8.24502L6.96762 16H19.7416C20.3803 16 20.9029 16.5143 20.9029 17.1428C20.9029 17.7714 20.3803 18.2857 19.7416 18.2857H6.96762C5.20249 18.2857 4.08767 16.4228 4.9354 14.8914L6.50312 12.1028L2.32254 3.42855H1.16127C0.522572 3.42855 0 2.91426 0 2.28569C0 1.65712 0.522572 1.14283 1.16127 1.14283H3.06575C3.50704 1.14283 3.9251 1.39426 4.1109 1.79426L8.74437 11.4285H16.8965L20.8332 4.42283C21.1351 3.87426 21.8435 3.67998 22.4009 3.97712C22.9583 4.28569 23.1674 4.98283 22.8538 5.5314L18.9287 12.5371C18.5339 13.2457 17.7674 13.7143 16.8965 13.7143Z" fill="#1600FF"/>
</svg>
