<svg width="24" height="24" viewBox="0 0 24 24" fill="none" xmlns="http://www.w3.org/2000/svg">
<path fill-rule="evenodd" clip-rule="evenodd" d="M12.9798 3.91194L4.71464 11.9351C2.58443 14.0029 2.58443 17.3556 4.71464 19.4234C6.84484 21.4912 10.2986 21.4912 12.4288 19.4234L21.796 10.3305L24 12.47L14.6328 21.5629C11.2854 24.8124 5.85806 24.8124 2.5106 21.5629C-0.836865 18.3135 -0.836865 13.0451 2.5106 9.7956L10.7758 1.77243C13.2103 -0.59081 17.1574 -0.59081 19.5919 1.77243C22.0264 4.13567 22.0264 7.96724 19.5919 10.3305L11.3268 18.3536C9.80519 19.8307 7.33823 19.8307 5.81666 18.3536C4.29508 16.8766 4.29508 14.4819 5.81666 13.0049L14.0818 4.9817L16.2859 7.12121L8.0207 15.1444C7.71638 15.4398 7.71638 15.9187 8.0207 16.2141C8.32501 16.5095 8.81841 16.5095 9.12272 16.2141L17.3879 8.19096C18.6051 7.00934 18.6051 5.09356 17.3879 3.91194C16.1706 2.73032 14.1971 2.73032 12.9798 3.91194Z" fill="#1600FF"/>
</svg>
