<svg width="10" height="10" viewBox="0 0 10 10" fill="none" xmlns="http://www.w3.org/2000/svg">
<path d="M4.67525 7.44104L0.879487 3.64526C0.696421 3.4622 0.696421 3.1654 0.879487 2.98235L1.3222 2.53964C1.50496 2.35689 1.80115 2.35653 1.98433 2.53886L5.00671 5.54708L8.02908 2.53886C8.21226 2.35653 8.50845 2.35689 8.69121 2.53964L9.13392 2.98235C9.31699 3.16542 9.31699 3.46222 9.13392 3.64526L5.33818 7.44104C5.15511 7.62409 4.85832 7.62409 4.67525 7.44104Z" fill="black"/>
<mask id="mask0" mask-type="alpha" maskUnits="userSpaceOnUse" x="0" y="2" width="10" height="6">
<path d="M4.67525 7.44104L0.879487 3.64526C0.696421 3.4622 0.696421 3.1654 0.879487 2.98235L1.3222 2.53964C1.50496 2.35689 1.80115 2.35653 1.98433 2.53886L5.00671 5.54708L8.02908 2.53886C8.21226 2.35653 8.50845 2.35689 8.69121 2.53964L9.13392 2.98235C9.31699 3.16542 9.31699 3.46222 9.13392 3.64526L5.33818 7.44104C5.15511 7.62409 4.85832 7.62409 4.67525 7.44104Z" fill="white"/>
</mask>
<g mask="url(#mask0)">
<rect width="10" height="10" fill="#1600FF"/>
</g>
</svg>
