<svg width="56" height="40" viewBox="0 0 56 40" fill="none" xmlns="http://www.w3.org/2000/svg">
<path fill-rule="evenodd" clip-rule="evenodd" d="M24 40L36.1736 32.3163H52C54.2091 32.3163 56 30.5077 56 28.2768V4.03954C56 1.80856 54.2091 0 52 0H4C1.79086 0 0 1.80856 0 4.03954V28.2768C0 30.5077 1.79086 32.3163 4 32.3163H24V40ZM35.0264 28.2768L28 32.7117V28.2768H4V4.03954H52V28.2768H35.0264ZM36 14.1384V8.0791H40V14.1384H46V18.1779H40V24.2373H36V18.1779H30V14.1384H36ZM22.5664 15.696C21.7824 14.832 20.6544 14.28 19.1824 14.04L22.9744 9.72V7.2H11.2144V10.32H18.3664L14.9104 14.232V16.8H16.6864C18.7824 16.8 19.8304 17.488 19.8304 18.864C19.8304 19.552 19.5504 20.088 18.9904 20.472C18.4304 20.84 17.6624 21.024 16.6864 21.024C15.8064 21.024 14.9424 20.896 14.0944 20.64C13.2624 20.368 12.5264 19.992 11.8864 19.512L10.3744 22.488C11.1744 23.064 12.1424 23.512 13.2784 23.832C14.4304 24.136 15.5984 24.288 16.7824 24.288C18.3024 24.288 19.5824 24.04 20.6224 23.544C21.6784 23.048 22.4624 22.392 22.9744 21.576C23.4864 20.744 23.7424 19.84 23.7424 18.864C23.7424 17.6 23.3504 16.544 22.5664 15.696Z" fill="#1600FF"/>
</svg>
