<?xml version="1.0" encoding="UTF-8"?>
<svg width="30px" height="30px" viewBox="0 0 30 30" version="1.1" xmlns="http://www.w3.org/2000/svg" xmlns:xlink="http://www.w3.org/1999/xlink">
    <title>noun_Pie Chart_1960162</title>
    <g id="Page-1" stroke="none" stroke-width="1" fill="none" fill-rule="evenodd">
        <g id="pdp" transform="translate(-905.000000, -1116.000000)" fill="#1600FF" fill-rule="nonzero">
            <g id="noun_Pie-Chart_1960162" transform="translate(905.000000, 1116.000000)">
                <path d="M29.4833506,11.1190754 C28.4463562,7.25013627 25.965843,4.0155196 22.4969097,2.01233128 C20.2178423,0.695861636 17.6303367,0 15.0139443,0 C9.66631554,0 4.68618757,2.87475897 2.01583023,7.50186083 C0.0127399551,10.9698575 -0.519058071,15.0119269 0.517057453,18.8818624 C1.55358313,22.7517392 4.03450647,25.9854181 7.50256085,27.9885479 C9.78209704,29.3032592 12.3696026,30 14.9855263,30 C20.333155,30 25.3141619,27.1251824 27.9841091,22.4990769 C29.9876681,19.0292633 30.5185872,14.987194 29.4833506,11.1190754 Z M28.7492865,12.7853806 C28.8756149,13.5571406 28.9350877,14.3445491 28.9277635,15.125452 L28.926826,15.2618932 L24.3860935,19.8047743 L22.2269091,18.5578146 L28.6439933,12.1399225 L28.7492865,12.7853806 Z M27.5475847,8.95207563 C27.8276048,9.53435352 28.069246,10.1404266 28.2651253,10.7538257 L28.327352,10.9479379 L21.2704813,18.006658 L19.1122344,16.7578228 L27.3425061,8.52727944 L27.5475847,8.95207563 Z M25.555803,5.90793738 C25.7471707,6.13041618 25.9319757,6.35928333 26.1105113,6.59459745 C26.295375,6.83899591 26.4702191,7.08896221 26.637739,7.34437913 L26.7877979,7.57324628 L18.1566269,16.2067248 L15.9965636,14.9597651 L25.3197283,5.63417593 L25.555803,5.90793738 Z M15.5325001,1.07306752 L15.8889853,1.0950458 C16.4523068,1.13073853 17.0179721,1.20124485 17.5708053,1.30562703 L18.1950645,1.42284452 L15.5325001,4.08520539 L15.5325001,1.07306752 L15.5325001,1.07306752 Z M15.5325001,5.59391172 L19.3593248,1.76611594 L19.5588369,1.83474678 C20.1610648,2.045328 20.7551481,2.29799031 21.3226884,2.58734168 L21.7336659,2.79792291 L15.5325001,8.99966593 L15.5325001,5.59391172 Z M15.5325001,10.5084309 L22.6708749,3.36918235 L22.9005629,3.52760179 C23.3957398,3.86817721 23.8689439,4.24075301 24.3092183,4.63630343 L24.5727736,4.87249667 L15.5325001,13.9151228 L15.5325001,10.5084309 Z M26.5910397,22.7215557 C26.0592416,23.5235578 25.4441817,24.2697643 24.7632037,24.9398967 C23.8982409,25.7904268 22.9215981,26.5264941 21.862631,27.1243033 C19.7684272,28.3080827 17.3895744,28.9325003 14.9855849,28.9325003 C13.7910901,28.9325003 12.601693,28.778711 11.4493272,28.4747074 C10.2612778,28.1598026 9.11301356,27.6855406 8.03711279,27.0647568 C6.40744129,26.1227384 5.01208671,24.8913101 3.88901788,23.4045234 C2.80438662,21.9698985 2.01676773,20.3558137 1.54766515,18.6062254 C1.07903133,16.8548203 0.95410918,15.0622718 1.17653154,13.2769908 C1.40534063,11.4294673 1.99801769,9.66616459 2.93844941,8.03467293 C3.57091172,6.93968574 4.34435089,5.93999637 5.23679423,5.06104101 C6.10081954,4.20963176 7.07646618,3.4753814 8.13642941,2.87663445 C9.95559351,1.84851984 12.0213792,1.23324522 14.1091962,1.09686267 L14.4670291,1.07488439 L14.4679666,14.961582 C14.4533181,15.1675917 14.5553886,15.3588907 14.7333968,15.4623937 L26.7886768,22.4240577 L26.5910397,22.7215557 Z M27.3232287,21.5002667 L25.3416424,20.3558723 L28.8555172,16.8447982 L28.61288,17.9590677 C28.3731138,19.0667729 27.9923708,20.1508003 27.481608,21.1798527 L27.3232287,21.5002667 Z" id="Shape"></path>
            </g>
        </g>
    </g>
</svg>