<svg width="32" height="32" viewBox="0 0 32 32" fill="none" xmlns="http://www.w3.org/2000/svg">
<path fill-rule="evenodd" clip-rule="evenodd" d="M30.645 24.4777C30.1921 24.33 29.7392 24.2808 29.1857 24.33V16.5027H30.9469C31.2488 16.5027 31.4501 16.3058 31.4501 16.0104C31.4501 15.8627 31.3998 15.715 31.2991 15.6658L29.6386 13.4998V8.33076C29.6386 8.18307 29.5882 8.08462 29.4876 7.98616C29.387 7.8877 29.2863 7.83847 29.1354 7.83847H26.2168C25.9149 7.83847 25.7136 8.03539 25.7136 8.33076V9.85684L24.053 8.33076C24.053 8.23779 24.0642 8.13385 24.0761 8.02411L24.0761 8.02404L24.0761 8.02401C24.0893 7.90135 24.1034 7.77145 24.1034 7.64156C24.204 4.0971 21.2351 1.24185 17.6121 1.24185C16.9579 1.24185 16.3037 1.3403 15.6999 1.53722C14.0393 -0.382694 11.0704 -0.53038 9.25891 1.24185C8.10154 2.3741 7.69898 4.04788 8.20218 5.57396L1.71089 11.9244C1.61024 12.0229 1.55992 12.1214 1.55992 12.269L1.5096 14.4843C1.5096 14.7797 1.71089 14.9766 2.01281 14.9766L4.27721 14.9274C4.47849 14.9274 4.67977 14.7797 4.73009 14.5828L5.18298 13.1059L6.39066 12.9582C6.59194 12.909 6.7429 12.7613 6.79322 12.5644L7.04482 11.5798L7.95058 11.4322C8.15186 11.3829 8.30282 11.2352 8.35314 11.0383L8.60475 10.0538L9.56083 9.85684C9.66147 9.85684 9.76211 9.80762 9.81243 9.70916L11.0704 8.47845C11.322 10.4476 12.4794 12.2198 14.1903 13.2044L11.6743 15.6658C11.5233 15.8135 11.473 16.0104 11.5736 16.2073C11.6743 16.4042 11.8252 16.5027 12.0265 16.5027H13.7877V19.9979C12.1775 19.4072 10.215 19.8995 8.60475 20.5394L8.55443 20.2933C8.5041 20.0472 8.2525 19.8502 8.0009 19.8502L0.452881 20.6871C0.15096 20.7364 0 20.9825 0 21.2286L1.15736 30.6313C1.20768 30.8774 1.40896 31.0744 1.66056 31.0744H1.71089L9.30923 30.1882C9.61115 30.139 9.76211 29.8929 9.76211 29.6467L9.66147 29.0068C12.3589 29.584 15.7271 30.8175 16.7796 31.2029L16.7799 31.203C16.9838 31.2777 17.1007 31.3205 17.1089 31.3205C19.6249 32.4035 22.3925 32.1082 24.9085 31.0251C25.3277 30.8428 25.8197 30.6474 26.3464 30.4381L26.3465 30.4381C28.0958 29.7431 30.2279 28.896 31.3495 27.8745C32.4565 26.8899 32.1043 24.9208 30.645 24.4777ZM18.6187 22.6074V19.3091H24.4056V25.4134L24.154 25.5119C23.867 24.354 22.1998 23.8213 20.5368 23.29L20.5368 23.29C19.8665 23.0759 19.197 22.8619 18.6187 22.6074ZM9.15826 8.87215L10.5672 7.49375C10.7182 7.3953 10.9195 7.34607 11.1208 7.3953C12.3284 7.83835 13.7877 7.64144 14.7941 6.65687C15.8508 5.62307 16.0521 3.9493 15.2973 2.66936C15.2485 2.69324 15.1967 2.71713 15.1434 2.74172L15.1434 2.74172L15.1434 2.74173L15.1434 2.74173C14.9769 2.81849 14.7956 2.90211 14.6432 3.01396C14.9451 3.75239 14.7941 4.54004 14.2406 5.08156C13.5361 5.81998 12.3284 5.81998 11.5736 5.08156C10.8188 4.34313 10.8188 3.21087 11.5736 2.47244C12.2278 1.83247 13.2342 1.78324 13.989 2.27553C14.0594 2.2342 14.1259 2.19288 14.1906 2.15263L14.1906 2.15262C14.3572 2.04904 14.5123 1.9526 14.6935 1.8817C13.2845 0.650987 11.2214 0.700215 9.96339 1.93093C9.0073 2.86627 8.70538 4.2939 9.20858 5.52461C9.30923 5.72153 9.2589 5.91844 9.10794 6.06613L2.56633 12.4658L2.51601 13.9427L3.87465 13.8935L4.27721 12.4166C4.32753 12.2197 4.47849 12.072 4.67977 12.072L5.83713 11.9243L6.08874 10.9398C6.13906 10.7921 6.29002 10.6444 6.4913 10.5952L7.39706 10.4475L7.64866 9.4629C7.69898 9.31521 7.84994 9.16753 8.05122 9.1183L9.15826 8.87215ZM13.5357 3.21109C13.888 3.55569 13.888 4.0972 13.5357 4.4418C13.1835 4.7864 12.63 4.7864 12.2777 4.4418C11.9255 4.0972 11.9255 3.55569 12.2777 3.21109C12.63 2.86649 13.1835 2.86649 13.5357 3.21109ZM12.4293 8.62627H12.1273C12.3789 10.2508 13.4357 11.6292 14.9453 12.4661L21.185 6.2633C21.3862 6.06639 21.6882 6.06639 21.8894 6.2633L23.1978 7.44479C23.0468 4.5403 20.6314 2.22656 17.6122 2.22656C17.1593 2.22656 16.7065 2.27579 16.3039 2.37425C17.1593 3.99879 16.8574 6.06639 15.4988 7.39556C14.6937 8.18322 13.5866 8.62627 12.4293 8.62627ZM13.2843 15.5185L15.1461 13.6478C15.9009 13.9432 16.7564 14.1401 17.6118 14.1401C18.4169 14.1401 19.1717 13.9924 19.9265 13.6971C20.3291 14.1401 20.8826 14.4355 21.5368 14.4355C22.6941 14.4355 23.6502 13.5002 23.6502 12.3679C23.6502 11.2356 22.6941 10.3003 21.5368 10.3003C20.3794 10.3003 19.4233 11.2356 19.4233 12.3679C19.4233 12.5156 19.4233 12.6633 19.4736 12.7617C18.3163 13.1556 17.0583 13.1556 15.9512 12.811L21.5368 7.29736L25.9146 11.3341C26.0656 11.4818 26.2669 11.4818 26.4681 11.4326C26.6694 11.3341 26.7701 11.1864 26.7701 10.9895V8.82345H28.6822V13.6478C28.6822 13.7463 28.7326 13.8448 28.7829 13.9432L29.9906 15.5185H28.7326C28.4306 15.5185 28.2294 15.7154 28.2294 16.0108V24.4289C27.5752 24.5274 26.5688 24.7243 25.4114 25.1181V18.8168C25.4114 18.5215 25.2101 18.3246 24.9082 18.3246H18.115C17.8131 18.3246 17.6118 18.5215 17.6118 18.8168V22.1152C16.9576 21.7706 15.1461 20.786 14.8442 20.5398V16.0108C14.8442 15.7154 14.6429 15.5185 14.341 15.5185H13.2843ZM21.537 11.2847C20.9332 11.2847 20.43 11.777 20.43 12.3677C20.43 12.9584 20.9332 13.4507 21.537 13.4507C22.1409 13.4507 22.6441 12.9584 22.6441 12.3677C22.6441 11.777 22.1409 11.2847 21.537 11.2847ZM2.06302 30.0407L1.05661 21.6226L7.69887 20.835C7.86442 22.2054 7.98807 23.2258 8.08614 24.0351L8.08617 24.0354C8.3756 26.4239 8.44218 26.9734 8.70527 29.253L2.06302 30.0407ZM26.3323 29.3648C27.9689 28.7169 29.7144 28.0259 30.6451 27.1854C31.249 26.6439 31.0477 25.6101 30.3935 25.4132C28.733 24.9209 25.4118 26.0532 23.8519 26.7424C22.3423 28.0715 20.2792 28.2192 18.367 26.9885C17.2096 26.2993 15.7504 26.0039 15.7504 26.0039C15.4988 25.9547 15.2975 25.6593 15.3478 25.4132C15.3981 25.1671 15.7 24.9701 15.9516 25.0194C16.002 25.0194 17.6122 25.3147 18.9205 26.1516C20.4301 27.1362 21.9901 26.9885 23.1474 26.0039C23.1977 25.8563 23.1977 25.7578 23.1474 25.7086C22.9461 25.1671 21.5372 24.5763 20.5811 24.3302C18.9708 23.8871 17.6625 23.2471 16.2032 22.4595C15.0792 21.8485 14.5503 21.5166 14.2165 21.3071C13.8779 21.0946 13.7401 21.0081 13.3853 20.8842C11.9763 20.4411 10.1145 20.9334 8.75586 21.5241L9.51066 27.9731C12.8318 28.6131 17.26 30.3361 17.4612 30.4345C20.3295 31.616 23.0468 30.7791 24.4557 30.1391C25.0222 29.8834 25.6683 29.6276 26.3323 29.3648Z" fill="#0073FF"/>
</svg>
