<svg width="24" height="24" viewBox="0 0 24 24" fill="none" xmlns="http://www.w3.org/2000/svg">
<path fill-rule="evenodd" clip-rule="evenodd" d="M16 4.40736V11.0846H21.3333C22.8 11.0846 24 12.247 24 13.6677V21.4169C24 22.8376 22.8 24 21.3333 24H2.66667C1.2 24 0 22.8376 0 21.4169V8.50154C0 7.08084 1.2 5.91846 2.66667 5.91846H8V4.40736C8 3.72284 8.28 3.06416 8.78667 2.57337L11.0533 0.377756C11.3024 0.135912 11.6406 0 11.9933 0C12.346 0 12.6842 0.135912 12.9333 0.377756L15.2133 2.58629C15.72 3.06416 16 3.72284 16 4.40736ZM2.66667 21.4169H5.33333V18.8339H2.66667V21.4169ZM5.33333 16.2508H2.66667V13.6677H5.33333V16.2508ZM2.66667 11.0846H5.33333V8.50155H2.66667V11.0846ZM13.3333 21.4169H10.6667V18.8339H13.3333V21.4169ZM10.6667 16.2508H13.3333V13.6677H10.6667V16.2508ZM13.3333 11.0846H10.6667V8.50155H13.3333V11.0846ZM10.6667 5.91845H13.3333V3.33537H10.6667V5.91845ZM21.3333 21.4169H18.6667V18.8339H21.3333V21.4169ZM18.6667 16.2508H21.3333V13.6677H18.6667V16.2508Z" fill="#1600FF"/>
</svg>
