<svg width="16" height="16" viewBox="0 0 16 16" fill="none" xmlns="http://www.w3.org/2000/svg">
<path fill-rule="evenodd" clip-rule="evenodd" d="M0 8C0 12.4183 3.58172 16 8 16C12.4183 16 16 12.4183 16 8C16 3.58172 12.4183 0 8 0C3.58172 0 0 3.58172 0 8ZM14.5459 8.00042C14.5459 11.6154 11.6154 14.5459 8.00042 14.5459C4.38546 14.5459 1.45496 11.6154 1.45496 8.00042C1.45496 4.38546 4.38546 1.45496 8.00042 1.45496C11.6154 1.45496 14.5459 4.38546 14.5459 8.00042ZM8.00144 11.6353C8.40323 11.6353 8.72895 11.3097 8.72895 10.9081C8.72895 10.5064 8.40323 10.1808 8.00144 10.1808C7.59964 10.1808 7.27393 10.5064 7.27393 10.9081C7.27393 11.3097 7.59964 11.6353 8.00144 11.6353ZM7.27191 9.45441H8.72645C8.72645 8.87379 8.81767 8.76737 9.41533 8.46854C10.454 7.94919 10.9083 7.41925 10.9083 6.18168C10.9083 4.59669 9.66052 3.63623 7.99918 3.63623C6.39253 3.63623 5.09009 4.93867 5.09009 6.54532H6.54463C6.54463 5.742 7.19586 5.09078 7.99918 5.09078C8.92802 5.09078 9.45372 5.49544 9.45372 6.18168C9.45372 6.7623 9.36251 6.86872 8.76484 7.16756C7.72615 7.6869 7.27191 8.21685 7.27191 9.45441Z" fill="#0073FF"/>
</svg>
