<svg width="23" height="28" viewBox="0 0 23 28" fill="none" xmlns="http://www.w3.org/2000/svg">
<path d="M0.687012 28L11.6794 23.2469L22.6717 28V0.000164041L0.687012 0V28Z" fill="#1600FF"/>
<path d="M11.6793 16.0333L15.3336 18.8434C15.9129 19.2987 16.7002 18.6864 16.4774 17.9643L15.081 13.4273L18.6907 10.7113C19.2849 10.2718 18.9878 9.28272 18.2599 9.28272H13.8332L12.3923 4.54162C12.1695 3.81946 11.204 3.81946 10.9811 4.54162L9.52539 9.28272H5.09869C4.37081 9.28272 4.07372 10.2718 4.6679 10.7113L8.27759 13.4273L6.88125 17.9643C6.65843 18.6864 7.44573 19.283 8.02506 18.8434L11.6793 16.0333Z" fill="white"/>
</svg>
