<svg width="71" height="71" viewBox="0 0 71 71" fill="none" xmlns="http://www.w3.org/2000/svg">
<path d="M25.5141 39.9355C23.6834 39.9355 22.194 41.425 22.194 43.2556V45.4742C22.194 46.0825 22.6871 46.5757 23.2955 46.5757H27.7327C28.3411 46.5757 28.8342 46.0825 28.8342 45.4742V43.2556C28.8342 41.425 27.3448 39.9355 25.5141 39.9355ZM26.6313 44.3728H24.3969V43.2556C24.3969 42.6396 24.8981 42.1385 25.5141 42.1385C26.1301 42.1385 26.6313 42.6396 26.6313 43.2556V44.3728Z" fill="#1600FF"/>
<path d="M66.5586 13.3039H48.8018V7.75731C48.8018 7.14903 48.3087 6.65586 47.7003 6.65586H41.0445H37.0634L34.3807 3.97318V1.10146C34.3807 0.493177 33.8876 0 33.2793 0H31.0308C29.2923 0 27.7241 0.954261 27.0355 2.43122C26.3894 3.81728 26.546 5.43145 27.3924 6.65586H25.5141C23.6834 6.65586 22.194 8.14527 22.194 9.97593V13.3039H11.0931C8.64637 13.3039 6.65586 15.2944 6.65586 17.7411V33.9323L4.76772 35.8205C4.56114 36.0271 4.44509 36.3073 4.44509 36.5994V48.8018H1.10931C0.49663 48.8018 0 49.2985 0 49.9111V53.239C0 55.6857 1.99051 57.6762 4.43724 57.6762H39.943V69.8786C39.943 70.3242 40.2114 70.7258 40.623 70.8963C41.0346 71.0668 41.5083 70.9725 41.8233 70.6575L46.591 65.8898L51.3587 70.6575C51.5694 70.8682 51.8512 70.9801 52.1378 70.9801C52.2797 70.9801 52.4228 70.9528 52.559 70.8963C52.9706 70.7258 53.239 70.3242 53.239 69.8786V57.6762H59.8935C59.8954 57.6762 59.8973 57.6764 59.8993 57.6764C59.9763 57.6764 60.0538 57.6745 60.1314 57.6706C62.4914 57.5518 64.34 55.5251 64.34 53.0563V22.1783H69.8865C70.4992 22.1783 70.9958 21.6816 70.9958 21.069V17.7411C70.9958 15.2944 69.0053 13.3039 66.5586 13.3039ZM46.5989 14.2858C46.5941 14.3277 46.591 14.37 46.591 14.4132V17.7411H42.1459V8.85877H46.5989V14.2858ZM29.0321 3.36205C29.3604 2.6579 30.1449 2.20291 31.0308 2.20291H32.1778V4.42938C32.1778 4.72147 32.2939 5.00164 32.5005 5.20828L35.8284 8.53621C36.035 8.74272 36.3151 8.85877 36.6072 8.85877H39.943V17.7411H33.2714V9.97593C33.2714 9.87904 33.2664 9.78337 33.2582 9.68858C33.2573 9.67822 33.2568 9.66776 33.2558 9.65744C33.2472 9.56766 33.2345 9.4791 33.2189 9.39149C33.2164 9.37734 33.214 9.36318 33.2113 9.3491C33.1949 9.26355 33.1751 9.17926 33.1522 9.09618C33.1483 9.08183 33.1441 9.06758 33.14 9.05329C33.1159 8.97015 33.089 8.88822 33.0587 8.80785C33.0543 8.79621 33.0495 8.78477 33.045 8.77315C33.0127 8.69052 32.978 8.6091 32.9394 8.52978C32.9368 8.52447 32.934 8.51935 32.9314 8.51407C32.8922 8.43465 32.85 8.35706 32.8049 8.28136C32.8015 8.27574 32.7985 8.26999 32.7951 8.2644C32.7499 8.18955 32.7013 8.11711 32.6505 8.04625C32.6431 8.03599 32.6361 8.02564 32.6286 8.01548C32.5787 7.9475 32.526 7.88172 32.4712 7.81778C32.4617 7.80667 32.4521 7.79557 32.4424 7.78456C32.3871 7.72173 32.3295 7.66097 32.2697 7.60247C32.2597 7.59275 32.2496 7.58334 32.2396 7.57376C32.1778 7.51485 32.1141 7.45791 32.0479 7.40388C32.0403 7.39765 32.0324 7.3918 32.0247 7.38564C31.9554 7.33001 31.8842 7.27663 31.8105 7.22663C31.8093 7.22581 31.8082 7.22493 31.807 7.22412C31.7331 7.17409 31.6566 7.12771 31.5786 7.08363C31.5691 7.07828 31.5598 7.07259 31.5503 7.06735C31.4755 7.02608 31.3988 6.98809 31.3207 6.95262C31.3074 6.94656 31.2942 6.94043 31.2808 6.93454C31.2035 6.90062 31.1247 6.86968 31.0444 6.84161C31.0299 6.83653 31.0154 6.83169 31.0008 6.82682C30.9195 6.79963 30.8369 6.77519 30.753 6.75427C30.7403 6.75112 30.7276 6.74848 30.7149 6.74547C30.6274 6.72478 30.5389 6.70684 30.4489 6.69323C30.4473 6.69299 30.4457 6.69252 30.4441 6.69228L29.4322 5.68047C28.8186 5.06691 28.6616 4.15693 29.0321 3.36205ZM25.5141 8.85877H29.9514C30.5674 8.85877 31.0685 9.35993 31.0685 9.97593V17.7411H25.5141C24.9025 17.7411 24.4048 17.2435 24.4048 16.6318V14.4132C24.4048 14.37 24.4017 14.3277 24.397 14.2858V9.97593C24.397 9.35993 24.8981 8.85877 25.5141 8.85877ZM13.3196 48.8018H11.0852V38.818C11.0852 38.202 11.5864 37.7008 12.2024 37.7008C12.8184 37.7008 13.3196 38.202 13.3196 38.818V48.8018ZM19.9676 48.8018V37.7008H31.0685V48.8018H19.9676ZM19.3256 35.4979L14.8727 31.045H25.0579L29.5109 35.4979H19.3256ZM6.648 37.0556L8.4695 35.2341C8.49659 35.2117 8.52436 35.1904 8.54955 35.1652L12.2024 31.5123L17.749 37.0588V48.8018H15.5225V38.818C15.5225 36.9873 14.0331 35.4979 12.2024 35.4979C10.3717 35.4979 8.88233 36.9873 8.88233 38.818V48.8018H6.648V37.0556ZM39.9351 55.4576H4.43724C3.21391 55.4576 2.21862 54.4623 2.21862 53.239V51.0204H18.8583H39.9351V55.4576ZM38.0062 36.4263C37.6901 36.2088 37.509 35.8681 37.509 35.4901C37.509 35.1118 37.6902 34.771 38.0064 34.5537C39.2234 33.7565 39.9495 32.3991 39.9495 30.9197C39.9495 30.634 39.9192 30.345 39.8584 30.0563C39.8452 29.9947 39.8385 29.9194 39.8385 29.8325C39.8385 29.5049 39.9884 29.1949 40.2495 28.9822C40.4002 28.8592 40.7197 28.6671 41.1612 28.7582C41.4451 28.8181 41.7343 28.8484 42.0207 28.8484C43.5001 28.8484 44.8576 28.1223 45.6546 26.9054C45.872 26.5892 46.2128 26.408 46.591 26.408C46.9692 26.408 47.31 26.5892 47.5274 26.9054C48.3244 28.1223 49.6819 28.8484 51.1614 28.8484C51.4478 28.8484 51.7369 28.8181 52.0246 28.7574C52.0863 28.7443 52.1616 28.7375 52.2485 28.7375C52.5761 28.7375 52.886 28.8873 53.0988 29.1485C53.2216 29.2992 53.4138 29.6186 53.3226 30.0606C53.2628 30.345 53.2325 30.634 53.2325 30.9197C53.2325 32.3991 53.9586 33.7565 55.1756 34.5537C55.4918 34.771 55.673 35.1118 55.673 35.4901C55.673 35.8687 55.4913 36.2099 55.1743 36.4272C53.7035 37.3978 52.9756 39.1543 53.3197 40.9051C53.3209 40.9113 53.3222 40.9174 53.3236 40.9237C53.3368 40.9853 53.3435 41.0606 53.3435 41.1475C53.3435 41.4489 53.22 41.7319 52.9959 41.9445C52.795 42.1349 52.5402 42.2387 52.2733 42.2439C52.2647 42.2429 52.2564 42.241 52.2478 42.2402C52.1573 42.2311 52.0786 42.2231 52.004 42.2102C51.7248 42.1528 51.4415 42.1237 51.1614 42.1237C49.6791 42.1237 48.3192 42.8511 47.5207 44.0704C47.3049 44.3843 46.9665 44.5641 46.591 44.5641C46.2155 44.5641 45.8771 44.3843 45.6613 44.0704C44.8629 42.8511 43.5029 42.1237 42.0207 42.1237C41.7405 42.1237 41.4572 42.1528 41.178 42.2102C41.1034 42.2231 41.0247 42.2311 40.9342 42.2402C40.9303 42.2406 40.9266 42.2414 40.9227 42.2418C40.5991 42.2385 40.2937 42.0898 40.0832 41.8315C39.9604 41.6808 39.7682 41.3613 39.8593 40.9195C39.9192 40.6352 39.9495 40.3461 39.9495 40.0604C39.9495 38.5809 39.2233 37.2233 38.0062 36.4263ZM47.3698 63.5532C47.1548 63.3382 46.8729 63.2306 46.591 63.2306C46.3091 63.2306 46.0272 63.3382 45.8122 63.5532L42.1459 67.2195V56.6943C42.1507 56.6524 42.1538 56.6101 42.1538 56.5669V49.9111V44.3462C42.834 44.3863 43.4456 44.7331 43.8087 45.2912C43.8124 45.297 43.8163 45.3028 43.8202 45.3085C44.4459 46.2316 45.4817 46.7827 46.591 46.7827C47.7003 46.7827 48.7361 46.2316 49.3618 45.3085C49.3657 45.3028 49.3696 45.297 49.3733 45.2912C49.7364 44.7331 50.348 44.3863 51.0282 44.3462V49.9111V56.5669C51.0282 56.6101 51.0313 56.6524 51.0361 56.6943V67.2195L47.3698 63.5532ZM53.2469 51.0204H55.4655V53.239C55.4655 53.3318 55.4692 53.424 55.4748 53.5158C55.476 53.5365 55.4778 53.5571 55.4794 53.5777C55.4853 53.6576 55.4933 53.7369 55.5034 53.8157C55.5047 53.8257 55.5058 53.8357 55.5072 53.8457C55.5843 54.4189 55.7707 54.9638 56.0565 55.4576H53.2469V51.0204ZM62.1213 53.0563C62.1213 54.3206 61.1787 55.3964 60.02 55.4546C59.9622 55.4576 59.9051 55.4562 59.848 55.4548C59.8078 55.4538 59.7679 55.4519 59.7282 55.4488C59.695 55.4462 59.662 55.4429 59.6291 55.4389C59.5838 55.4333 59.5389 55.4266 59.4944 55.4184C59.47 55.4139 59.4458 55.4089 59.4216 55.4036C59.3687 55.3918 59.3163 55.3787 59.2649 55.3632C59.2509 55.359 59.2371 55.3546 59.2233 55.3502C59.1634 55.3309 59.1044 55.3097 59.0469 55.2855C59.042 55.2835 59.0372 55.2814 59.0324 55.2794C58.2405 54.9402 57.6841 54.1535 57.6841 53.239V49.9111C57.6841 49.2985 57.1875 48.8018 56.5748 48.8018H53.2469V44.2912C53.7143 44.1411 54.1488 43.8871 54.5117 43.543C55.1693 42.9195 55.5464 42.0464 55.5464 41.1475C55.5464 40.9063 55.5246 40.6855 55.4798 40.4727C55.3121 39.6041 55.6695 38.7374 56.3917 38.2632C56.3962 38.2602 56.4008 38.2572 56.4053 38.2543C57.3261 37.6299 57.8759 36.5965 57.8759 35.4901C57.8759 34.3834 57.3261 33.3501 56.4053 32.7257C56.3995 32.7219 56.3937 32.718 56.3878 32.7142C55.7915 32.3261 55.4354 31.6553 55.4354 30.9197C55.4354 30.786 55.4499 30.6496 55.4792 30.5099C55.6809 29.5327 55.4358 28.5292 54.8067 27.7571C54.1737 26.9802 53.2412 26.5346 52.2485 26.5346C52.0032 26.5346 51.7789 26.5571 51.5665 26.6027C51.4317 26.6311 51.2954 26.6455 51.1614 26.6455C50.4256 26.6455 49.7548 26.2895 49.3668 25.6931C49.363 25.6873 49.3591 25.6815 49.3552 25.6758C48.7309 24.7549 47.6975 24.2051 46.591 24.2051C45.4845 24.2051 44.4511 24.7549 43.8268 25.6758C43.8229 25.6815 43.819 25.6873 43.8152 25.6931C43.4272 26.2895 42.7564 26.6455 42.0207 26.6455C41.8866 26.6455 41.7503 26.6311 41.611 26.6018C40.6333 26.3999 39.6303 26.6452 38.8581 27.2744C38.0812 27.9073 37.6356 28.8397 37.6356 29.8325C37.6356 30.0778 37.6582 30.3021 37.7036 30.514C37.7321 30.6496 37.7466 30.786 37.7466 30.9197C37.7466 31.6553 37.3905 32.3261 36.7942 32.7142C36.7883 32.718 36.7825 32.7219 36.7768 32.7257C35.8559 33.3501 35.3061 34.3834 35.3061 35.4901C35.3061 36.5965 35.8559 37.6299 36.7768 38.2543C36.7825 38.258 36.7883 38.262 36.7942 38.2658C37.3905 38.6539 37.7466 39.3247 37.7466 40.0604C37.7466 40.1941 37.7322 40.3304 37.7028 40.47C37.5011 41.4473 37.7462 42.4507 38.3753 43.2229C38.7893 43.7309 39.3318 44.0962 39.9351 44.2889V48.8018H33.2714V36.5994C33.2714 36.5872 33.27 36.5753 33.2696 36.5632C33.2692 36.55 33.2685 36.5369 33.2676 36.5237C33.2645 36.4783 33.2594 36.4334 33.2509 36.3897C33.2505 36.3876 33.2504 36.3854 33.25 36.3833C33.2403 36.3349 33.2268 36.288 33.2111 36.2421C33.208 36.2333 33.2046 36.2245 33.2014 36.2157C33.1853 36.1727 33.1673 36.1307 33.1462 36.0903C33.1446 36.0873 33.1433 36.0841 33.1417 36.081C33.1189 36.0383 33.0928 35.9977 33.0647 35.9586C33.0582 35.9496 33.0515 35.9408 33.0448 35.932C33.0151 35.8932 32.9839 35.8557 32.9495 35.8212C32.9492 35.821 32.949 35.8207 32.9488 35.8205L26.293 29.1646C26.0864 28.9581 25.8063 28.842 25.5141 28.842H12.3275C12.0035 28.8055 11.6665 28.9106 11.418 29.1591L8.87448 31.7027V17.7411C8.87448 16.5178 9.86977 15.5225 11.0931 15.5225H22.1862V16.6318C22.1862 18.4668 23.6791 19.9597 25.5141 19.9597H47.7003C48.313 19.9597 48.8096 19.463 48.8096 18.8504V15.5225H62.7168C62.7094 15.5353 62.7031 15.5487 62.6958 15.5616C62.6647 15.6165 62.6349 15.6721 62.6061 15.7284C62.5952 15.7496 62.584 15.7705 62.5735 15.7919C62.536 15.8683 62.5003 15.9457 62.4671 16.0245C62.4619 16.0366 62.4575 16.0492 62.4525 16.0614C62.4247 16.129 62.3987 16.1974 62.3742 16.2666C62.3653 16.2918 62.3569 16.3173 62.3484 16.3427C62.3282 16.4033 62.3094 16.4644 62.2918 16.5261C62.285 16.5501 62.2778 16.5739 62.2713 16.5981C62.2489 16.6821 62.2283 16.7669 62.2108 16.8529C62.2092 16.8606 62.2081 16.8685 62.2066 16.8763C62.191 16.9548 62.1778 17.034 62.1665 17.114C62.1627 17.1407 62.1595 17.1676 62.1562 17.1945C62.1482 17.2592 62.1417 17.3242 62.1365 17.3897C62.1344 17.4164 62.132 17.4431 62.1304 17.4699C62.125 17.5597 62.1213 17.65 62.1213 17.7411V21.069V53.0563ZM68.7772 19.9597H64.34V17.7411C64.34 16.5178 65.3352 15.5225 66.5586 15.5225C67.7819 15.5225 68.7772 16.5178 68.7772 17.7411V19.9597Z" fill="#1600FF"/>
<path d="M46.591 42.1027C50.237 42.1027 53.2033 39.1365 53.2033 35.4903C53.2033 31.8442 50.237 28.8779 46.591 28.8779C42.945 28.8779 39.9787 31.8442 39.9787 35.4903C39.9787 39.1365 42.945 42.1027 46.591 42.1027ZM46.591 31.0808C49.0224 31.0808 51.0004 33.059 51.0004 35.4903C51.0004 37.9217 49.0224 39.8998 46.591 39.8998C44.1597 39.8998 42.1816 37.9217 42.1816 35.4903C42.1816 33.059 44.1597 31.0808 46.591 31.0808Z" fill="#1600FF"/>
</svg>
