<svg width="24" height="40" viewBox="0 0 24 40" fill="none" xmlns="http://www.w3.org/2000/svg">
<path d="M12.5629 37.5453H11.4371C11.0073 37.5453 10.6584 37.1953 10.6584 36.7641C10.6584 36.3328 11.0073 35.9828 11.4371 35.9828H12.5629C12.9927 35.9828 13.3416 36.3328 13.3416 36.7641C13.3416 37.1961 12.9927 37.5453 12.5629 37.5453Z" fill="#9CAFC8"/>
<path d="M21.1549 0H2.84506C1.27615 0 0 1.28047 0 2.85391V37.1461C0 38.7195 1.27615 40 2.84506 40H21.1549C22.7239 40 24 38.7195 24 37.1461V2.85391C24 1.28047 22.7239 0 21.1549 0ZM1.55723 5.73594H22.4428V33.3719H1.55723V5.73594ZM1.55723 2.85391C1.55723 2.14141 2.13496 1.5625 2.84506 1.5625H21.1549C21.865 1.5625 22.4428 2.14219 22.4428 2.85391V4.17344H1.55723V2.85391ZM22.4428 37.1461C22.4428 37.8578 21.865 38.4375 21.1549 38.4375H2.84506C2.13496 38.4375 1.55723 37.8578 1.55723 37.1461V34.9352H22.4428V37.1461Z" fill="#9CAFC8"/>
<path d="M12 7.20856C7.13215 7.20856 3.17212 11.182 3.17212 16.0664C3.17212 19.2211 4.8656 22.1625 7.59153 23.7414C8.92607 24.5148 10.4506 24.9234 12 24.9234C13.5495 24.9234 15.074 24.5148 16.4086 23.7414C19.1345 22.1625 20.828 19.2211 20.828 16.0664C20.828 11.182 16.8679 7.20856 12 7.20856ZM15.2406 22.5984C14.2393 23.0984 13.1275 23.3617 12 23.3617C10.8726 23.3617 9.76075 23.0992 8.75945 22.5984V20.8578C8.75945 20.6804 8.90272 20.5367 9.07946 20.5367H14.9206C15.0974 20.5367 15.2406 20.6804 15.2406 20.8578V22.5984ZM16.7979 21.5461V20.857C16.7979 19.8187 15.9554 18.9734 14.9206 18.9734H9.07946C8.04468 18.9734 7.20222 19.8187 7.20222 20.857V21.5461C5.65123 20.1742 4.72935 18.1781 4.72935 16.0664C4.72935 12.0437 7.99096 8.77106 12 8.77106C16.0091 8.77106 19.2707 12.0437 19.2707 16.0664C19.2707 18.1789 18.3489 20.1742 16.7979 21.5461Z" fill="#9CAFC8"/>
<path d="M12 10.2344C9.75372 10.2344 7.92554 12.0688 7.92554 14.3227C7.92554 16.5766 9.75372 18.4109 12 18.4109C14.2463 18.4109 16.0745 16.5766 16.0745 14.3227C16.0745 12.0688 14.2463 10.2344 12 10.2344ZM12 16.8477C10.6118 16.8477 9.48277 15.7148 9.48277 14.3219C9.48277 12.9289 10.6118 11.7961 12 11.7961C13.3883 11.7961 14.5173 12.9289 14.5173 14.3219C14.5173 15.7148 13.3883 16.8477 12 16.8477Z" fill="#9CAFC8"/>
<path d="M4.46228 31.1364C4.14227 31.1364 3.84717 30.931 3.73427 30.6302C3.61904 30.3231 3.71169 29.9638 3.96474 29.7544C4.20611 29.5544 4.55337 29.5185 4.829 29.6669C5.1202 29.8231 5.28449 30.156 5.23077 30.4833C5.16926 30.8552 4.83757 31.1364 4.46228 31.1364Z" fill="#9CAFC8"/>
<path d="M19.5379 31.1344H7.96538C7.53559 31.1344 7.18677 30.7844 7.18677 30.3531C7.18677 29.9219 7.53559 29.5719 7.96538 29.5719H19.5379C19.9677 29.5719 20.3165 29.9219 20.3165 30.3531C20.3165 30.7844 19.9677 31.1344 19.5379 31.1344Z" fill="#9CAFC8"/>
<path d="M4.46237 27.9286C4.14158 27.9286 3.84805 27.7239 3.73437 27.4239C3.61835 27.1169 3.71179 26.7568 3.96484 26.5466C4.20621 26.3466 4.55347 26.3107 4.8291 26.4591C5.12264 26.6169 5.28693 26.9536 5.22853 27.2825C5.16391 27.6513 4.83611 27.9286 4.46237 27.9286Z" fill="#9CAFC8"/>
<path d="M19.5379 27.9266H7.96538C7.53559 27.9266 7.18677 27.5766 7.18677 27.1454C7.18677 26.7141 7.53559 26.3641 7.96538 26.3641H19.5379C19.9677 26.3641 20.3165 26.7141 20.3165 27.1454C20.3165 27.5766 19.9677 27.9266 19.5379 27.9266Z" fill="#9CAFC8"/>
</svg>
