<svg width="40" height="40" viewBox="0 0 40 40" fill="none" xmlns="http://www.w3.org/2000/svg">
<path fill-rule="evenodd" clip-rule="evenodd" d="M34.0298 7.61588C34.4927 7.61588 35.0838 7.70857 35.8375 7.90096C37.9124 8.42794 39.3702 10.2825 39.3816 12.4102C39.3695 13.0883 39.2717 13.7498 39.0889 14.3911C38.4267 16.7073 36.7206 18.567 34.4876 19.4286L34.9333 20.5435C35.346 21.5759 35.5556 22.6635 35.5556 23.7759C35.5556 24.0457 35.5314 24.3181 35.4825 24.5854L34.541 29.76C34.3721 30.6959 34.2857 31.6514 34.2857 32.6V38.0952C34.2857 39.1454 33.4311 40 32.381 40H29.746C28.7479 40 27.9365 39.1879 27.9365 38.1905C27.9365 37.4965 28.32 36.8762 28.9365 36.5676L29.207 36.4324L29.2076 36.1352C29.2127 33.4527 28.3676 30.8521 26.8089 28.6952C25.2781 29.0292 23.7117 29.2064 22.1441 29.2064H18.7365L18.6311 29.3122C18.5792 29.3643 18.5279 29.416 18.4775 29.466L18.4762 29.4673L18.4762 29.4673L18.4761 29.4674L18.4761 29.4674L18.4761 29.4674C18.3223 29.6206 18.1723 29.77 18.0298 29.9181C17.4578 30.5149 17.1429 31.2959 17.1429 32.1175V38.0952C17.1429 39.1454 16.2883 40 15.2381 40H12.6032C11.6051 40 10.7937 39.1879 10.7937 38.1905C10.7937 37.4965 11.1771 36.8762 11.7937 36.5676L12.0635 36.433V30.1467C10.6108 31.3575 8.53016 32.4127 7.60254 32.854C7.60435 32.8732 7.60697 32.8923 7.60959 32.9114C7.61431 32.9458 7.61905 32.9803 7.61905 33.0159C7.61905 34.066 6.76444 34.9206 5.71429 34.9206H5.24063C3.75111 34.9206 2.53968 33.7092 2.53968 32.2197C2.53968 31.3244 2.97968 30.4902 3.7181 29.9892C6.79492 27.8978 9.05143 25.9257 9.87175 24.626C9.64254 24.2298 9.43111 23.8235 9.2381 23.4057L8.88889 23.7549L7.61841 22.4844C7.20889 22.0756 6.98413 21.5321 6.98413 20.9537C6.98413 20.3727 7.20889 19.8292 7.61841 19.4203L7.79619 19.2425L7.15048 17.1429H4.44444C2.87746 17.1429 1.57968 15.9987 1.32381 14.5029C0.55873 14.2559 0 13.5448 0 12.6984V11.1505C0 10.2749 0.593651 9.51429 1.44254 9.30223L2.68254 8.99238L3.0019 8.03619C3.16698 7.53905 3.45079 7.08 3.82159 6.70921C4.46349 6.06794 5.31619 5.71429 6.22349 5.71429H6.41841C6.62032 4.98477 7.28317 4.44445 8.07619 4.44445H10.2559C11.2527 4.44445 12.0635 5.25524 12.0635 6.25207C12.0635 6.35238 12.0546 6.45143 12.0387 6.54857L11.7714 8.15429L13.9454 12.5048C14.007 12.6285 14.0791 12.7464 14.151 12.8641L14.151 12.8641L14.16 12.8787L14.6032 12.4356L15.5556 13.3879L28.7575 0.186035L29.6552 1.08381L16.4533 14.2857L17.2927 15.1257C17.6324 15.2006 17.9784 15.2425 18.3295 15.2425H18.334L30.179 15.2387C31.5721 15.2381 32.9479 15.0146 34.2679 14.5746C35.0502 14.3143 35.5549 13.6102 35.5549 12.8121C35.5549 11.9238 34.9568 11.1949 34.1327 11.0298L33.7302 10.9492C32.9486 10.7937 32.3803 10.101 32.3803 9.30223C32.3803 8.35937 33.12 7.61588 34.0298 7.61588ZM10.2565 5.71429H8.07683C7.82413 5.71429 7.61905 5.91937 7.61905 6.17207C7.61905 6.22032 7.6273 6.27111 7.64381 6.3181L8.56698 9.08953C8.65333 9.34984 8.89587 9.52381 9.16952 9.52381H9.7181C10.0298 9.52381 10.2933 9.30032 10.3441 8.99429L10.786 6.34096C10.7911 6.31175 10.7937 6.28191 10.7937 6.25207C10.7937 5.95556 10.5524 5.71429 10.2565 5.71429ZM8.08762 15.873H4.44444C3.61778 15.873 2.91937 15.3403 2.65651 14.6032H5.07937V13.3333H1.90476C1.55429 13.3333 1.26984 13.0489 1.26984 12.6984V11.1505C1.26984 10.8584 1.46794 10.6057 1.75048 10.534L3.6673 10.0552L4.20698 8.43746C4.31048 8.12699 4.48762 7.83937 4.72 7.60699C5.12064 7.20572 5.65524 6.98413 6.22349 6.98413H6.52698L7.36254 9.49143C7.62222 10.2705 8.34794 10.7937 9.16889 10.7937H9.71746C10.3556 10.7937 10.92 10.4775 11.2673 9.9873L12.8095 13.0724C12.9359 13.3251 13.0838 13.5644 13.2425 13.7968L8.8127 18.2267L8.08762 15.873ZM8.51619 20.3181C8.34921 20.4851 8.25397 20.7156 8.25397 20.9511C8.25397 21.1892 8.34921 21.4197 8.51619 21.5867L8.88889 21.9594L15.6102 15.2381L14.6032 14.2311L8.51619 20.3181ZM7.08254 31.6965C6.73587 31.3371 6.25206 31.1111 5.71429 31.1111H5.07937V32.381H5.71429C6.06476 32.381 6.34921 32.6654 6.34921 33.0159C6.34921 33.3664 6.06476 33.6508 5.71429 33.6508H5.24063C4.45143 33.6508 3.80952 33.0089 3.80952 32.2197C3.80952 31.7454 4.0419 31.3048 4.43111 31.04C6.22286 29.8222 9.17651 27.6629 10.6102 25.7803C11.0514 26.4038 11.5257 27.0057 12.0629 27.5613V28.3594C11.1105 29.6083 8.48635 31.0279 7.08254 31.6965ZM33.7473 18.346C35.7473 17.68 37.2883 16.0705 37.8673 14.0432C38.0197 13.5086 38.1022 12.9562 38.1117 12.4025C38.1041 10.8679 37.04 9.51683 35.5251 9.13143C34.727 8.92826 34.2717 8.88572 34.0305 8.88572C33.8216 8.88572 33.6508 9.05905 33.6508 9.27238C33.6508 9.49715 33.7892 9.66603 33.9797 9.70477L34.3822 9.7854C35.7975 10.0679 36.8254 11.3213 36.8254 12.7644C36.8254 14.1575 35.9714 15.3454 34.701 15.7689C33.2203 16.2622 31.7092 16.5079 30.179 16.5086L18.3346 16.5124H18.3295C17.6832 16.5124 17.0502 16.4057 16.4387 16.2051L10.1987 22.4451C10.894 24.0952 11.8762 25.5816 13.1473 26.8527L13.3333 27.0387V37.2178L12.3619 37.7035C12.1778 37.7956 12.0635 37.981 12.0635 38.1867C12.0635 38.4883 12.3054 38.7302 12.6032 38.7302H15.2381C15.5886 38.7302 15.873 38.4457 15.873 38.0952V32.1175C15.873 30.9664 16.3137 29.8737 17.1137 29.0387C17.2618 28.8842 17.4188 28.7279 17.5802 28.5671L17.5816 28.5657L17.5827 28.5646C18.4751 27.6761 19.3976 26.7575 19.6946 25.2717L20.9397 25.5213C20.7441 26.5003 20.3302 27.28 19.8483 27.9365H22.1441C23.4102 27.9365 24.6756 27.8146 25.9187 27.5835C25.1524 26.654 24.7333 25.4787 24.7467 24.2533L24.7479 24.1371C24.7575 23.1702 25.0463 22.2349 25.5835 21.4298L26.1378 20.5994L27.1943 21.3035L26.64 22.1346C26.2406 22.734 26.0254 23.4305 26.0178 24.1505L26.0165 24.2667C26.0063 25.2292 26.3454 26.1524 26.9702 26.866L27.0273 26.9314C29.261 29.4832 30.4851 32.7511 30.4775 36.1384L30.4762 37.2178L29.5048 37.7035C29.3206 37.7956 29.2064 37.981 29.2064 38.1867C29.2064 38.4883 29.4483 38.7302 29.746 38.7302H32.381C32.7314 38.7302 33.0159 38.4457 33.0159 38.0952V32.6C33.0159 31.5752 33.1086 30.5435 33.2921 29.5327L34.2337 24.3587C34.2686 24.1664 34.2857 23.9702 34.2857 23.7759C34.2857 22.826 34.1067 21.8971 33.7537 21.0146L32.8114 18.6584L33.7473 18.346Z" fill="#9CAFC8"/>
</svg>
