<?xml version="1.0" encoding="utf-8"?>
<!-- Generator: Adobe Illustrator 23.1.1, SVG Export Plug-In . SVG Version: 6.00 Build 0)  -->
<svg version="1.1" id="Layer_1" xmlns="http://www.w3.org/2000/svg" xmlns:xlink="http://www.w3.org/1999/xlink" x="0px" y="0px"
	 viewBox="0 0 100 96" style="enable-background:new 0 0 100 96;" xml:space="preserve">
<style type="text/css">
	.st0{fill:#1600FF;}
</style>
<g>
	<path class="st0" d="M66.8,28.8H15.4c-2,0-3.6,1.6-3.6,3.6v52.8c0,2,1.6,3.6,3.6,3.6h51.4c2,0,3.6-1.6,3.6-3.6V32.4
		C70.4,30.4,68.8,28.8,66.8,28.8z M67.9,86.4H14.3V31.3h53.6V86.4z"/>
	<path class="st0" d="M92.6,85.8l-4.8,4.8v-64l5,5c0.5,0.5,1.3,0.5,1.8,0c0.5-0.5,0.5-1.3,0-1.8l-7.1-7.1c-0.5-0.5-1.3-0.5-1.8,0
		l-7.1,7.1c-0.5,0.5-0.5,1.3,0,1.8c0.5,0.5,1.3,0.5,1.8,0l5-5v64.2l-5.1-5.1c-0.5-0.5-1.3-0.5-1.8,0c-0.5,0.5-0.5,1.3,0,1.8l7.1,7.1
		c0.5,0.5,1.3,0.5,1.8,0l7.1-7.1c0.5-0.5,0.5-1.3,0-1.8C93.9,85.3,93.1,85.3,92.6,85.8z"/>
	<path class="st0" d="M78.9,12.6l-7.1-7.1C71.3,5,70.5,5,70,5.5c-0.5,0.5-0.5,1.3,0,1.8l4.8,4.8H9.4l5-5c0.5-0.5,0.5-1.3,0-1.8
		c-0.5-0.5-1.3-0.5-1.8,0l-7.1,7.1c-0.5,0.5-0.5,1.3,0,1.8l7.1,7.1c0.5,0.5,1.3,0.5,1.8,0c0.5-0.5,0.5-1.3,0-1.8l-4.9-4.9H75
		L70,19.7c-0.5,0.5-0.5,1.3,0,1.8c0.5,0.5,1.3,0.5,1.8,0l7.1-7.1C79.3,13.9,79.3,13.1,78.9,12.6z"/>
</g>
</svg>
