<svg width="24" height="24" viewBox="0 0 24 24" fill="none" xmlns="http://www.w3.org/2000/svg">
<path fill-rule="evenodd" clip-rule="evenodd" d="M12 0C5.376 0 0 5.376 0 12C0 18.624 5.376 24 12 24C18.624 24 24 18.624 24 12C24 5.376 18.624 0 12 0ZM12.0003 3.59998C13.9923 3.59998 15.6003 5.20798 15.6003 7.19998C15.6003 9.19198 13.9923 10.8 12.0003 10.8C10.0083 10.8 8.40031 9.19198 8.40031 7.19998C8.40031 5.20798 10.0083 3.59998 12.0003 3.59998ZM4.79985 16.776C6.34785 19.104 8.99985 20.64 11.9998 20.64C14.9998 20.64 17.6518 19.104 19.1998 16.776C19.1638 14.388 14.3878 13.08 11.9998 13.08C9.59985 13.08 4.83585 14.388 4.79985 16.776Z" fill="#1600FF"/>
</svg>
