<svg width="24" height="32" viewBox="0 0 24 32" fill="none" xmlns="http://www.w3.org/2000/svg">
<path fill-rule="evenodd" clip-rule="evenodd" d="M13.6689 0L13.6374 0.464844C13.6228 0.683644 13.5131 0.843788 13.3 0.992188C13.0869 1.14069 12.7752 1.24147 12.4952 1.25977H9.85172C8.09259 1.25977 6.66579 2.68509 6.66579 4.43359V6.8125C6.66579 6.8805 6.66776 6.8988 6.66776 6.8418C6.6677 6.8078 6.66579 6.80305 6.66579 6.87305V7.91016C6.66244 7.94328 6.66244 7.97665 6.66579 8.00977V10.082C6.66579 11.3791 7.15149 12.5514 7.92635 13.4746V16.1758L2.34358 19.3809C0.895443 20.1978 0 21.7192 0 23.3652V29.7891H9.87342L12 32L14.1266 29.7871H24V23.2539C24 21.6741 23.1379 20.2143 21.7472 19.4316L16.194 16.1758V13.332C16.8987 12.4307 17.3342 11.3126 17.3342 10.082V8.36328C17.3371 8.33275 17.3371 8.30202 17.3342 8.27148V6.87305C17.3342 6.81805 17.3327 6.82366 17.3322 6.84766C17.3326 6.86766 17.3342 6.87836 17.3342 6.81836V3.30273L17.3303 3.26953C17.2124 2.37783 16.9342 1.57355 16.407 0.96875C15.8799 0.36405 15.0895 -0.00059375 14.1384 0.00390625V0H13.6689ZM14.3239 1.07422C14.8935 1.11822 15.338 1.26649 15.6437 1.61719C15.989 2.01339 16.2222 2.62772 16.3242 3.38672V6.81445C16.3242 6.76245 16.323 6.77884 16.3223 6.83984C16.3223 6.91684 16.3242 6.91509 16.3242 6.87109V7.14648C16.0417 6.99064 15.7391 6.88169 15.4326 6.82617C14.7325 6.69927 14.0061 6.75225 13.306 6.78125C12.6059 6.81025 11.9356 6.81522 11.3866 6.66602C10.8375 6.51662 10.404 6.24996 10.0412 5.63086C9.94642 5.46784 9.7673 5.37124 9.57758 5.38086C9.35997 5.39283 9.17466 5.54165 9.11794 5.75C9.13087 5.702 9.03088 5.90812 8.86346 6.10352C8.69599 6.29892 8.46748 6.52823 8.22627 6.74023C8.03899 6.90485 7.8531 7.03554 7.67589 7.1582V6.87109C7.67589 6.92609 7.67786 6.90775 7.67786 6.84375C7.67786 6.76675 7.67589 6.77045 7.67589 6.81445V4.43555C7.67589 3.21985 8.63872 2.26172 9.85179 2.26172H12.5445H12.5603C13.0165 2.23172 13.4853 2.09075 13.882 1.81445C14.1112 1.65485 14.183 1.33767 14.3239 1.07617V1.07422ZM9.66832 6.69531C10.0993 7.14581 10.5878 7.48401 11.1202 7.62891C11.8653 7.83161 12.6312 7.81075 13.3474 7.78125C14.0636 7.75225 14.7341 7.71559 15.2511 7.80859C15.7342 7.89643 16.0612 8.06236 16.3242 8.46094V10.0801C16.3242 12.4817 14.4019 14.3965 12.0001 14.3965C9.5983 14.3965 7.67589 12.4817 7.67589 10.0801V8.33984C7.80654 8.28076 7.92771 8.2069 8.05859 8.125C8.33665 7.9509 8.62375 7.72838 8.89699 7.48828C9.17023 7.24808 9.42713 6.9922 9.63479 6.75C9.65014 6.732 9.65348 6.71331 9.66832 6.69531ZM15.1841 14.3262V16.2812L11.9548 18.9844L8.93656 16.459V14.4238C9.80441 15.0335 10.8569 15.3984 12.0002 15.3984C13.1987 15.3984 14.2939 14.9906 15.1841 14.3262ZM15.7775 17.0957L16.8664 17.7344L14.9292 20.9434L13.6627 19.9531L12.994 19.4258L15.7775 17.0957ZM8.21605 17.1641L10.9187 19.4277L10.3742 19.8613L8.98147 20.9434L7.09161 17.8105L8.21605 17.1641ZM17.7348 18.2441L21.2442 20.3008H21.2482C22.3261 20.9075 22.9901 22.0332 22.9901 23.2539V28.7871H20.108V26.2188H19.0979V28.7871H14.4601L13.5566 22.082C13.7147 21.8855 13.8416 21.667 13.9156 21.4258L15.2077 22.4336L17.7348 18.2441ZM6.21788 18.3125L8.70152 22.4316L10.0627 21.375C10.1352 21.6361 10.2736 21.8713 10.4434 22.082L9.53795 28.7891H5.06779V26.2188H4.05776V28.7891H1.00992V23.3652C1.00992 22.0769 1.70897 20.8883 2.84651 20.248H2.84849L6.21788 18.3125ZM11.9565 19.8867L12.9981 20.709V20.8516C12.9981 21.2058 12.8088 21.5319 12.499 21.709C12.1892 21.886 11.8106 21.886 11.5008 21.709C11.1911 21.5319 10.9998 21.2058 10.9998 20.8516V20.6465L11.0017 20.6445L11.9565 19.8867ZM11.3726 22.7285C11.781 22.8622 12.2167 22.8616 12.6253 22.7285L13.4716 29.0195L11.9999 30.5488L10.5263 29.0195L11.3726 22.7285Z" fill="#0073FF"/>
</svg>
