<svg width="14" height="15" viewBox="0 0 14 15" fill="none" xmlns="http://www.w3.org/2000/svg">
<path fill-rule="evenodd" clip-rule="evenodd" d="M7.35297 1.93342C7.98918 2.14679 8.57647 2.34375 9.19226 2.34375C10.1621 2.34375 11.1889 1.97194 12.1706 1.51817C13.0358 1.11823 14 1.80111 14 2.81066V9.8395C14 10.314 13.777 10.7567 13.4063 11.0162C12.6796 11.5249 11.4903 12.1875 9.8913 12.1875C8.87518 12.1875 8.05508 11.9125 7.30328 11.6603C6.66707 11.447 6.07978 11.25 5.46399 11.25C3.91724 11.25 3.00423 11.5805 1.96875 12.0866V14.5313C1.96875 14.7901 1.77289 15 1.53125 15H1.09375C0.852113 15 0.65625 14.7901 0.65625 14.5313V2.62389C0.264059 2.38072 0 1.92668 0 1.40625C0 0.598566 0.635523 -0.0500961 1.40003 0.00304842C2.028 0.0467008 2.5448 0.573488 2.6163 1.24339C2.63848 1.44796 2.61849 1.65524 2.55773 1.85063C3.17073 1.59615 3.90906 1.40625 4.76495 1.40625C5.78107 1.40625 6.60117 1.68129 7.35297 1.93342ZM9.89129 10.7813C11.0243 10.7813 12.0919 10.2953 12.6875 9.8438V2.81255C11.826 3.24128 10.3754 3.75005 9.19225 3.75005C8.37327 3.75005 7.6763 3.51574 6.97924 3.2814C6.28198 3.04699 5.58462 2.81255 4.76494 2.81255C3.6319 2.81255 2.5644 3.29853 1.96874 3.75005V10.5469C2.82862 10.1193 4.27833 9.8438 5.46398 9.8438C6.28296 9.8438 6.97993 10.0781 7.67699 10.3125C8.37425 10.5469 9.07161 10.7813 9.89129 10.7813Z" fill="#1600FF"/>
</svg>
