<svg width="24" height="9" viewBox="0 0 24 9" fill="none" xmlns="http://www.w3.org/2000/svg">
<path d="M4.46389 8.495L6.46389 6.905C6.94389 6.525 7.22389 5.945 7.22389 5.335V2.735C10.2439 1.755 13.5139 1.745 16.5439 2.735V5.345C16.5439 5.955 16.8239 6.535 17.3039 6.915L19.2939 8.495C20.0939 9.125 21.2339 9.065 21.9539 8.345L23.1739 7.125C23.9739 6.325 23.9739 4.995 23.1239 4.245C16.7139 -1.415 7.05389 -1.415 0.643892 4.245C-0.206108 4.995 -0.206108 6.325 0.593892 7.125L1.81389 8.345C2.52389 9.065 3.66389 9.125 4.46389 8.495Z" fill="#FE5F55"/>
</svg>
