<svg width="71" height="71" viewBox="0 0 71 71" fill="none" xmlns="http://www.w3.org/2000/svg">
<path d="M69.8906 26.6243H62.125H58.7969V17.7495H59.9062C60.519 17.7495 61.0156 17.2528 61.0156 16.6402V11.0935C61.0156 10.7992 60.8988 10.5171 60.6907 10.309L56.6974 6.31577L57.6544 2.48777C57.7489 2.10968 57.6381 1.70979 57.3626 1.43421L56.2532 0.324868C56.0452 0.116866 55.763 0 55.4688 0H52.1406C51.8464 0 51.5642 0.116866 51.3562 0.324868L50.2468 1.43421C49.9712 1.70979 49.8605 2.10968 49.955 2.48777L50.7304 5.58921C50.5493 5.6403 50.3822 5.73621 50.2468 5.8716L45.0249 11.0935H42.1562V9.98411H43.2656C43.7143 9.98411 44.1189 9.71381 44.2906 9.2993C44.4623 8.88478 44.3673 8.40757 44.0501 8.09029L42.1562 6.1966V1.10935C42.1562 0.496714 41.6596 0 41.0469 0H37.7188C37.243 0 36.8373 0.29941 36.6796 0.720018L36.2844 0.324868C35.8512 -0.108199 35.1488 -0.108199 34.7156 0.324868L26.9499 8.09029C26.6327 8.40757 26.5377 8.88478 26.7094 9.2993C26.8811 9.71381 27.2857 9.98411 27.7344 9.98411H28.8438V11.0935H25.9751L20.7532 5.8716C20.6178 5.73621 20.4507 5.6403 20.2696 5.58921L21.045 2.48777C21.1395 2.10968 21.0288 1.70979 20.7532 1.43421L19.6438 0.324868C19.4358 0.116866 19.1536 0 18.8594 0H15.5312C15.237 0 14.9548 0.116866 14.7468 0.324868L13.6374 1.43421C13.3619 1.70979 13.2511 2.10968 13.3456 2.48777L14.3026 6.31577L10.3093 10.309C10.1012 10.5171 9.98438 10.7992 9.98438 11.0935V16.6402C9.98438 17.2528 10.481 17.7495 11.0938 17.7495H12.2031V26.6243H8.875H1.10938C0.496659 26.6243 0 27.121 0 27.7336V52.1392C0 52.7519 0.496659 53.2486 1.10938 53.2486H8.875H12.853L30.2779 70.675C30.486 70.8831 30.7682 71 31.0624 71C31.3567 71 31.6389 70.8831 31.8469 70.675L35.4913 67.0303L39.1548 70.6769C39.3713 70.8923 39.6544 71 39.9375 71C40.2214 71 40.5054 70.8917 40.7219 70.6751L57.5461 53.8495L58.1471 53.2486H62.125H69.8906C70.5033 53.2486 71 52.7519 71 52.1392V27.7336C71 27.121 70.5033 26.6243 69.8906 26.6243ZM61.0156 51.0299H58.1471L42.9407 35.8239C42.7326 35.6159 42.4504 35.4991 42.1561 35.4991C41.8618 35.4991 41.5797 35.6161 41.3716 35.8242L36.9341 40.2635C36.501 40.6967 36.5011 41.399 36.9343 41.8322L42.806 47.7036L40.2727 50.2361C40.2694 50.2394 40.2657 50.2421 40.2624 50.2454L37.7188 52.789L25.1907 40.2613L23.7564 38.8271L33.7408 28.843H48.8125H51.0312H55.4688H57.6875H61.0156V51.0299ZM23.7559 61.0145L33.2812 51.4895L35.7954 54.0035L36.1498 54.3579L26.6243 63.8832L23.7559 61.0145ZM19.3186 56.5769L28.8435 47.0523L31.7122 49.9207L22.1871 59.4456L19.3186 56.5769ZM14.8814 52.1393L24.4059 42.615L27.2746 45.4834L17.7498 55.0079L14.8814 52.1393ZM30.1668 15.5308H33.2812H37.7188H40.8332L46.1817 17.6702C46.3128 17.7226 46.4526 17.7495 46.5938 17.7495H47.7031V26.6243H33.2812H23.2969V17.7495H24.4062C24.5474 17.7495 24.6873 17.7226 24.8183 17.6702L30.1668 15.5308ZM36.6094 13.3121H34.3906V8.87476H36.6094V13.3121ZM52.4521 26.6243L53.25 23.4329L54.0479 26.6243H52.4521ZM54.2645 11.8383L53.25 12.8527L52.2355 11.8383L53.0501 7.76542H53.4499L54.2645 11.8383ZM52.6001 2.21869H55.0093L55.3495 2.559L54.6026 5.54673H54.3594H53.0068L52.2599 2.559L52.6001 2.21869ZM45.4844 13.3121C45.7786 13.3121 46.0608 13.1953 46.2688 12.9873L50.6115 8.64462L49.9434 11.9852C49.8707 12.3489 49.9845 12.725 50.2468 12.9873L52.4656 15.206C52.6822 15.4225 52.9661 15.5308 53.25 15.5308C53.5339 15.5308 53.8178 15.4225 54.0344 15.206L56.2532 12.9873C56.5155 12.725 56.6293 12.3489 56.5566 11.9852L55.8885 8.64459L58.7969 11.5529V15.5308H57.6875C57.0748 15.5308 56.5781 16.0275 56.5781 16.6402V26.6243H56.3349L54.3263 18.5898C54.2028 18.0959 53.759 17.7495 53.25 17.7495C52.741 17.7495 52.2972 18.0959 52.1737 18.5898L50.1651 26.6243H49.9219V16.6402C49.9219 16.0275 49.4252 15.5308 48.8125 15.5308H46.8074L42.1562 13.6705V13.3121H45.4844ZM35.5 2.67816L36.9343 4.11251C37.2515 4.4298 37.7287 4.52486 38.1433 4.35288C38.5578 4.18117 38.8281 3.77668 38.8281 3.32804V2.21869H39.9375V6.65607C39.9375 6.95034 40.0544 7.23241 40.2624 7.44055L40.6576 7.8357C40.2369 7.99333 39.9375 8.39904 39.9375 8.87476V12.2028V13.3121H38.8281V7.76542C38.8281 7.15279 38.3315 6.65607 37.7188 6.65607H33.2812C32.6685 6.65607 32.1719 7.15279 32.1719 7.76542V13.3121H31.0625V12.2028V8.87476C31.0625 8.39904 30.7631 7.99333 30.3424 7.8357L35.5 2.67816ZM18.7645 11.8383L17.75 12.8527L16.7355 11.8383L17.5501 7.76542H17.9499L18.7645 11.8383ZM15.9907 2.21869H18.3999L18.7401 2.559L17.9932 5.54673H16.6406H16.3974L15.6505 2.559L15.9907 2.21869ZM13.3125 15.5308H12.2031V11.5529L15.1115 8.64459L14.4434 11.9852C14.3707 12.3489 14.4845 12.725 14.7468 12.9873L16.9656 15.206C17.1822 15.4225 17.4661 15.5308 17.75 15.5308C18.0339 15.5308 18.3178 15.4225 18.5344 15.206L20.7532 12.9873C21.0155 12.725 21.1293 12.3489 21.0566 11.9852L20.3885 8.64462L24.7312 12.9873C24.9392 13.1953 25.2214 13.3121 25.5156 13.3121H28.8438V13.6705L24.1926 15.5308H22.1875C21.5748 15.5308 21.0781 16.0275 21.0781 16.6402V26.6243H20.8349L18.8263 18.5898C18.7028 18.0959 18.2591 17.7495 17.75 17.7495C17.2409 17.7495 16.7972 18.0959 16.6737 18.5898L14.6651 26.6243H14.4219V16.6402C14.4219 16.0275 13.9252 15.5308 13.3125 15.5308ZM18.5479 26.6243H16.9521L17.75 23.4329L18.5479 26.6243ZM2.21875 28.843H7.76562V51.0299H2.21875V28.843ZM9.98438 28.843H13.3125H15.5312H19.9688H22.1875H30.6029L21.4031 38.0426C20.9698 38.476 20.9698 39.1782 21.4031 39.6116L22.8373 41.0458L12.8529 51.0299H9.98438V28.843ZM31.0624 68.3217L28.1931 65.4522L38.6241 55.0215L41.0468 52.6002L43.9153 55.4674L34.7156 64.6669C34.7111 64.6714 34.7073 64.6763 34.7029 64.6809L31.0624 68.3217ZM39.9357 68.3236L37.0601 65.4613L45.7347 56.7858L46.2688 56.2518C46.2958 56.2247 46.3211 56.1963 46.345 56.1669C46.5051 55.97 46.5938 55.7232 46.5938 55.4671C46.5938 55.1729 46.4767 54.8907 46.2687 54.6827L42.6156 51.0312L45.1594 48.4882C45.3674 48.2802 45.4844 47.998 45.4844 47.7039C45.4844 47.4096 45.3675 47.1274 45.1594 46.9193L39.2875 41.0475L42.1565 38.1774L56.1186 52.1392L54.6843 53.5734C54.678 53.5798 54.6727 53.5867 54.6665 53.5932L39.9357 68.3236ZM68.7812 51.0299H63.2344V28.843H68.7812V51.0299Z" fill="#1600FF"/>
</svg>
