<svg width="15" height="15" viewBox="0 0 15 15" fill="none" xmlns="http://www.w3.org/2000/svg">
<path fill-rule="evenodd" clip-rule="evenodd" d="M14.7417 5.55954C14.2232 3.62507 12.9829 2.00776 11.2485 1.00617C10.1089 0.347931 8.81517 0 7.50697 0C4.83316 0 2.34309 1.43738 1.00792 3.75093C0.00636995 5.48493 -0.259529 7.50596 0.258529 9.44093C0.776792 11.3759 2.01725 12.9927 3.75128 13.9943C4.89105 14.6516 6.1848 15 7.49276 15C10.1666 15 12.6571 13.5626 13.9921 11.2495C14.9938 9.51463 15.2593 7.4936 14.7417 5.55954ZM14.3746 6.39269C14.4378 6.77857 14.4675 7.17227 14.4639 7.56273L14.4634 7.63095L12.193 9.90239L11.1135 9.27891L14.322 6.06996L14.3746 6.39269ZM14.1326 5.37691C14.0346 5.07021 13.9138 4.76718 13.7738 4.47604L13.6713 4.26364L9.55612 8.37891L10.6352 9.00333L14.1637 5.47397L14.1326 5.37691ZM12.7779 2.95397C12.8736 3.06521 12.966 3.17964 13.0553 3.2973C13.1477 3.4195 13.2351 3.54448 13.3189 3.67219L13.3939 3.78662L9.07831 8.10336L7.99828 7.47988L12.6599 2.81709L12.7779 2.95397ZM7.94449 0.547523L7.76625 0.536534V2.0426L9.09753 0.711422L8.7854 0.652814C8.50899 0.600622 8.22615 0.565369 7.94449 0.547523ZM7.76625 2.79696L9.67966 0.883058L9.77942 0.917373C10.0805 1.02266 10.3776 1.149 10.6613 1.29367L10.8668 1.39896L7.76625 4.49983V2.79696ZM11.3354 1.68459L7.76625 5.25422V6.95756L12.2864 2.43625L12.1546 2.31815C11.9345 2.12038 11.6979 1.93409 11.4503 1.7638L11.3354 1.68459ZM13.2955 11.3608C13.0296 11.7618 12.7221 12.1349 12.3816 12.4699C11.9491 12.8952 11.4608 13.2632 10.9313 13.5622C9.88421 14.154 8.69479 14.4663 7.49279 14.4663C6.89555 14.4663 6.30085 14.3894 5.72466 14.2374C5.13064 14.0799 4.55651 13.8428 4.01856 13.5324C3.20372 13.0614 2.50604 12.4457 1.94451 11.7023C1.40219 10.9849 1.00838 10.1779 0.773833 9.30311C0.539516 8.42741 0.477055 7.53114 0.588266 6.6385C0.70267 5.71473 0.999009 4.83308 1.46922 4.01734C1.78546 3.46984 2.17218 2.97 2.6184 2.53052C3.05041 2.10482 3.53823 1.73769 4.06821 1.43832C4.9778 0.92426 6.01069 0.616623 7.0546 0.548431L7.23351 0.537442L7.23398 7.48079C7.22666 7.5838 7.27769 7.67945 7.3667 7.7312L13.3943 11.212L13.2955 11.3608ZM12.6708 10.1779L13.6616 10.7501L13.7408 10.5899C13.9962 10.0754 14.1866 9.53339 14.3064 8.97953L14.4278 8.4224L12.6708 10.1779Z" fill="#1600FF"/>
</svg>
