<?xml version="1.0"?>
<svg xmlns="http://www.w3.org/2000/svg" xmlns:xlink="http://www.w3.org/1999/xlink" version="1.1" id="Layer_1" x="0px" y="0px" viewBox="0 0 512 512" style="enable-background:new 0 0 512 512;" xml:space="preserve" width="512px" height="512px"><g><g>
	<path d="M401.941,0H110.059c-22.056,0-40,17.944-40,40v432c0,22.056,17.944,40,40,40h291.883c22.056,0,40-17.944,40-40V40   C441.941,17.944,423.998,0,401.941,0z M411.941,472c0,5.514-4.486,10-10,10H110.059c-5.514,0-10-4.486-10-10V40   c0-5.514,4.486-10,10-10h291.883c5.514,0,10,4.486,10,10V472z" data-original="#000000" class="active-path" data-old_color="#000000" fill="#4431F4"/>
	<path d="M339.014,204.252H172.986c-8.284,0-15,6.716-15,15s6.716,15,15,15h166.028c8.284,0,15-6.716,15-15   S347.298,204.252,339.014,204.252z" data-original="#000000" class="active-path" data-old_color="#000000" fill="#4431F4"/>
	<path d="M339.014,267.573H172.986c-8.284,0-15,6.716-15,15s6.716,15,15,15h166.028c8.284,0,15-6.716,15-15   S347.298,267.573,339.014,267.573z" data-original="#000000" class="active-path" data-old_color="#000000" fill="#4431F4"/>
	<path d="M339.014,330.896H172.986c-8.284,0-15,6.716-15,15s6.716,15,15,15h166.028c8.284,0,15-6.716,15-15   S347.298,330.896,339.014,330.896z" data-original="#000000" class="active-path" data-old_color="#000000" fill="#4431F4"/>
	<path d="M200.14,157.087c23.244,0,42.155-18.91,42.155-42.154s-18.911-42.154-42.155-42.154s-42.154,18.91-42.154,42.154   S176.896,157.087,200.14,157.087z M200.14,102.778c6.702,0,12.155,5.452,12.155,12.154s-5.453,12.154-12.155,12.154   s-12.154-5.452-12.154-12.154S193.438,102.778,200.14,102.778z" data-original="#000000" class="active-path" data-old_color="#000000" fill="#4431F4"/>
	<path d="M338.412,388.455h-56c-8.284,0-15,6.716-15,15s6.716,15,15,15h56c8.284,0,15-6.716,15-15S346.696,388.455,338.412,388.455z   " data-original="#000000" class="active-path" data-old_color="#000000" fill="#4431F4"/>
</g></g> </svg>
