<svg width="36" height="12" viewBox="0 0 36 12" fill="none" xmlns="http://www.w3.org/2000/svg">
<path d="M23.5566 0C24.9051 0 26.1987 0.505466 26.1987 0.505466L25.7795 2.99527C24.5224 2.28359 21.6616 2.1152 21.6616 3.42569C21.6616 4.73618 25.7611 5.01682 25.7611 8.03101C25.7611 10.9333 22.7366 12 20.7323 12C18.728 12 17.4163 11.3451 17.4163 11.3451L17.8533 8.74238C19.0557 9.7344 22.7001 10.016 22.7001 8.44314C22.7001 6.8703 18.6371 6.83309 18.6371 3.83782C18.6371 0.654935 22.0989 0 23.5566 0ZM4.6841 0.207458C5.83476 0.207458 6.04362 1.05926 6.07327 1.22413L6.07716 1.24838L6.07757 1.25157L7.0657 6.46407L7.39708 8.1811L10.1976 0.207458H13.3591L8.68551 11.8006H5.62485L3.07274 1.72913C1.4161 0.706411 0 0.403752 0 0.403752L0.054326 0.207458H4.6841ZM17.4426 0.207458L15.6063 11.8003H12.6688L14.5047 0.207458H17.4426ZM33.6483 0.207148L36 11.8003H33.3027L32.9584 10.0783H29.224L28.6117 11.8003H25.5498L29.9306 1.07109C29.9306 1.07109 30.1962 0.207148 31.2866 0.207148H33.6483ZM31.6138 3.36119L30.0703 7.69951H32.4821L31.6138 3.36119Z" fill="#333333"/>
</svg>
