<svg width="14" height="14" viewBox="0 0 14 14" fill="none" xmlns="http://www.w3.org/2000/svg">
<path d="M9.19226 2.1875C7.8488 2.1875 6.64095 1.3125 4.76495 1.3125C3.90906 1.3125 3.17073 1.48974 2.55773 1.72725C2.61849 1.54489 2.63848 1.35143 2.6163 1.1605C2.5448 0.535255 2.028 0.0435874 1.40003 0.00284519C0.635523 -0.0467564 0 0.558662 0 1.3125C0 1.79824 0.264059 2.22201 0.65625 2.44896V13.5625C0.65625 13.8041 0.852113 14 1.09375 14H1.53125C1.77289 14 1.96875 13.8041 1.96875 13.5625V11.2809C3.00423 10.8084 3.91724 10.5 5.46399 10.5C6.80745 10.5 8.0153 11.375 9.8913 11.375C11.4903 11.375 12.6796 10.7566 13.4063 10.2818C13.777 10.0396 14 9.6264 14 9.18354V2.62328C14 1.68104 13.0358 1.04369 12.1706 1.41695C11.1889 1.84048 10.1621 2.1875 9.19226 2.1875ZM12.6875 9.1875C12.0919 9.60892 11.0243 10.0625 9.8913 10.0625C8.25218 10.0625 7.10218 9.1875 5.46399 9.1875C4.27834 9.1875 2.82863 9.44462 1.96875 9.84375V3.5C2.56441 3.07858 3.63191 2.625 4.76495 2.625C6.40407 2.625 7.55407 3.5 9.19226 3.5C10.3754 3.5 11.826 3.02515 12.6875 2.625V9.1875Z" fill="#9CAFC8"/>
</svg>
