<svg width="32" height="32" viewBox="0 0 32 32" fill="none" xmlns="http://www.w3.org/2000/svg">
<path d="M30.8755 10.0779L29.3764 9.02852L29.3556 7.20715C29.3529 6.98981 29.218 6.79514 29.0139 6.71647L27.3054 6.05379L26.8476 4.28976C26.7932 4.07908 26.6146 3.92241 26.3978 3.89441L24.5798 3.65508L23.7118 2.05038C23.6078 1.85904 23.3976 1.74904 23.1801 1.77237L21.3568 1.97237L20.1256 0.621013C19.9786 0.459676 19.747 0.403008 19.5416 0.478343L17.8203 1.10836L16.2997 0.0910019C16.1185 -0.030334 15.8808 -0.030334 15.6996 0.0910019L14.1784 1.10836L12.4571 0.478343C12.2517 0.403008 12.0201 0.459676 11.873 0.621013L10.6418 1.97171L8.81853 1.77237C8.60102 1.74837 8.39022 1.85837 8.28617 2.05038L7.41815 3.65508L5.59954 3.89441C5.3827 3.92308 5.20413 4.07975 5.14975 4.29042L4.69258 6.05446L2.98406 6.71714C2.77998 6.79648 2.64505 6.99048 2.64236 7.20782L2.62155 9.02919L1.12249 10.0785C0.943244 10.2039 0.858657 10.4252 0.909006 10.6366L1.32993 12.4099L0.130943 13.7866C-0.0120484 13.9513 -0.0409152 14.1853 0.0591118 14.3786L0.89558 16L0.0591118 17.6207C-0.0409152 17.814 -0.0120484 18.0487 0.130943 18.2127L1.33127 19.5901L0.910349 21.3634C0.86 21.5755 0.944586 21.7961 1.12383 21.9215L2.62289 22.9708L2.6437 24.7922C2.64639 25.0095 2.78132 25.2042 2.98541 25.2829L4.69392 25.9455L5.15176 27.7096C5.20614 27.9202 5.38471 28.0769 5.60155 28.1049L7.41949 28.3443L8.28751 29.949C8.39157 30.1403 8.60169 30.2503 8.81987 30.227L10.6432 30.0276L11.8744 31.3783C12.0214 31.5397 12.253 31.5963 12.4584 31.521L14.1797 30.891L15.7009 31.909C15.8822 32.0303 16.1198 32.0303 16.3011 31.909L17.8223 30.891L19.5436 31.521C19.749 31.5963 19.9806 31.5397 20.1276 31.3783L21.3588 30.0276L23.1821 30.2276C23.3997 30.2516 23.6104 30.1416 23.7138 29.9496L24.5819 28.3449L26.3998 28.1056C26.6166 28.0769 26.7952 27.9202 26.8496 27.7096L27.3067 25.9455L29.0153 25.2829C29.2193 25.2035 29.3543 25.0095 29.357 24.7922L29.3778 22.9708L30.8768 21.9215C31.0561 21.7961 31.1407 21.5748 31.0903 21.3634L30.6694 19.5901L31.8691 18.2127C32.012 18.048 32.0409 17.814 31.9409 17.6207L31.1037 16L31.9402 14.3793C32.0402 14.186 32.0114 13.9513 31.8684 13.7873L30.6681 12.4099L31.089 10.6366C31.1393 10.4239 31.0547 10.2032 30.8755 10.0779ZM30.8191 14.2126L30.0222 15.7567C29.943 15.9093 29.943 16.0907 30.0222 16.2433L30.8191 17.7874L29.6758 19.0987C29.5631 19.2281 29.5194 19.4034 29.559 19.5701L29.9598 21.2581L28.5326 22.2575C28.3916 22.3561 28.307 22.5161 28.305 22.6875L28.2849 24.4215L26.6576 25.0522C26.4965 25.1149 26.3763 25.2502 26.3327 25.4162L25.897 27.0962L24.1656 27.3242C23.9944 27.3469 23.8447 27.4496 23.7628 27.6009L22.9371 29.1283L21.2011 28.9383C21.0299 28.9196 20.86 28.9836 20.7439 29.1103L19.5718 30.3963L17.9331 29.7963C17.7713 29.737 17.5907 29.759 17.447 29.8543L15.9983 30.8236L14.5496 29.8543C14.4066 29.7583 14.226 29.737 14.0636 29.7963L12.4249 30.3963L11.2527 29.1109C11.1373 28.9843 10.9668 28.9203 10.7956 28.9389L9.05953 29.1289L8.23515 27.6002C8.15325 27.4489 8.00354 27.3462 7.83235 27.3236L6.10101 27.0956L5.66533 25.4155C5.62236 25.2495 5.50152 25.1142 5.34041 25.0515L3.71312 24.4208L3.69365 22.6868C3.69164 22.5155 3.60705 22.3555 3.46607 22.2568L2.03884 21.2574L2.43962 19.5694C2.47923 19.4027 2.43559 19.2274 2.32281 19.0981L1.17955 17.7867L1.97641 16.2427C2.05562 16.09 2.05562 15.9087 1.97641 15.756L1.17955 14.212L2.32281 12.9006C2.43559 12.7713 2.47923 12.5959 2.43962 12.4293L2.03884 10.7412L3.46607 9.74187C3.60705 9.6432 3.69164 9.4832 3.69365 9.31186L3.71379 7.57782L5.34108 6.94714C5.50219 6.88448 5.62236 6.74914 5.666 6.58314L6.10169 4.9031L7.83303 4.6751C8.00421 4.65243 8.15392 4.54976 8.23582 4.39843L9.06155 2.87039L10.7976 3.0604C10.9688 3.07906 11.1386 3.01506 11.2548 2.88839L12.4269 1.60303L14.0656 2.20305C14.2274 2.26238 14.408 2.24038 14.5516 2.14504L16.0003 1.17502L17.4491 2.14438C17.592 2.24038 17.7726 2.26171 17.9351 2.20238L19.5738 1.60237L20.7459 2.88773C20.8614 3.0144 21.0319 3.0784 21.2031 3.05973L22.9391 2.86973L23.7642 4.39976C23.8461 4.5511 23.9958 4.65376 24.167 4.67643L25.8983 4.90444L26.334 6.58447C26.377 6.75047 26.4978 6.88581 26.6589 6.94848L28.2862 7.57916L28.3057 9.31319C28.3077 9.48453 28.3923 9.64453 28.5333 9.7432L29.9605 10.7426L29.5597 12.4306C29.5201 12.5973 29.5637 12.7726 29.6765 12.9019L30.8191 14.2126Z" fill="#0073FF"/>
<path d="M25.6659 15.9998V16.0224H26.7401V15.9998C26.7401 15.6278 26.7206 15.2557 26.6823 14.8857L25.6143 14.9957C25.6485 15.3298 25.6659 15.6644 25.6659 15.9998Z" fill="#0073FF"/>
<path d="M7.16116 19.8945L6.17969 20.3279C6.33208 20.6679 6.50259 21.0006 6.68989 21.3232L7.62035 20.7905C7.45184 20.4992 7.29811 20.2005 7.16116 19.8945Z" fill="#0073FF"/>
<path d="M8.80176 23.9173C9.07969 24.1667 9.37104 24.402 9.67381 24.6213L10.3069 23.76C10.0343 23.5627 9.77249 23.3506 9.52209 23.126L8.80176 23.9173Z" fill="#0073FF"/>
<path d="M23.1846 9.57761C23.4101 9.82694 23.6229 10.0876 23.8217 10.3583L24.6903 9.73094C24.4695 9.43027 24.2338 9.14093 23.9828 8.86426L23.1846 9.57761Z" fill="#0073FF"/>
<path d="M12.665 26.142C13.0215 26.2573 13.384 26.354 13.7512 26.432L13.9755 25.3886C13.6458 25.3186 13.3196 25.2319 12.9987 25.1279L12.665 26.142Z" fill="#0073FF"/>
<path d="M25.4577 14.0044L26.5084 13.7838C26.4305 13.4191 26.3338 13.0591 26.2183 12.7051L25.1973 13.0344C25.3006 13.3524 25.3879 13.6764 25.4577 14.0044Z" fill="#0073FF"/>
<path d="M24.8349 12.0957L25.8157 11.6617C25.6626 11.3217 25.4921 10.989 25.3048 10.667L24.375 11.201C24.5442 11.491 24.6972 11.7897 24.8349 12.0957Z" fill="#0073FF"/>
<path d="M14.8604 26.6076C15.2329 26.6462 15.6075 26.6662 15.9821 26.6669L15.9841 25.6002C15.6465 25.5995 15.3095 25.5822 14.9731 25.5469L14.8604 26.6076Z" fill="#0073FF"/>
<path d="M8.17112 21.6328L7.30176 22.2595C7.52195 22.5608 7.75759 22.8502 8.00866 23.1275L8.80753 22.4142C8.58197 22.1648 8.36983 21.9042 8.17112 21.6328Z" fill="#0073FF"/>
<path d="M23.1897 8.07444C22.9111 7.8251 22.6197 7.59043 22.317 7.37109L21.6846 8.23378C21.9571 8.43112 22.2196 8.64245 22.47 8.86646L23.1897 8.07444Z" fill="#0073FF"/>
<path d="M21.3742 6.76289C21.0499 6.57622 20.7156 6.40689 20.3733 6.25488L19.9355 7.2289C20.2437 7.36557 20.5444 7.51824 20.8365 7.68558L21.3742 6.76289Z" fill="#0073FF"/>
<path d="M13.0176 6.86527L12.6867 5.85059C12.3295 5.96525 11.9791 6.09926 11.6367 6.25059L12.0738 7.22528C12.3812 7.08861 12.6967 6.96861 13.0176 6.86527Z" fill="#0073FF"/>
<path d="M14.9949 6.451L14.8848 5.38965C14.5115 5.42765 14.141 5.48565 13.7744 5.56232L13.996 6.60634C14.3256 6.53701 14.6592 6.48567 14.9949 6.451Z" fill="#0073FF"/>
<path d="M17.1273 5.39101C16.7548 5.35234 16.3802 5.33301 16.0056 5.33301L16.0049 6.3997C16.3426 6.3997 16.6796 6.4177 17.0152 6.45236L17.1273 5.39101Z" fill="#0073FF"/>
<path d="M19.3247 5.8541C18.9682 5.73877 18.6057 5.64276 18.2385 5.56543L18.0156 6.60878C18.3459 6.67879 18.6715 6.76545 18.9924 6.86879L19.3247 5.8541Z" fill="#0073FF"/>
<path d="M23.8105 21.6571L24.6779 22.2864C24.8988 21.9858 25.1042 21.6738 25.2928 21.3524L24.3644 20.8164C24.1945 21.1057 24.0099 21.3864 23.8105 21.6571Z" fill="#0073FF"/>
<path d="M20.8184 24.324L21.3547 25.248C21.6797 25.062 21.9945 24.8594 22.298 24.6407L21.6676 23.7773C21.3944 23.9747 21.1104 24.1567 20.8184 24.324Z" fill="#0073FF"/>
<path d="M10.6152 25.2313C10.9395 25.4179 11.2731 25.588 11.6155 25.74L12.0545 24.7666C11.7464 24.6299 11.4463 24.4766 11.1543 24.3086L10.6152 25.2313Z" fill="#0073FF"/>
<path d="M22.4541 23.1468L23.1717 23.9402C23.4503 23.6915 23.7162 23.4289 23.9679 23.1528L23.1711 22.4375C22.9448 22.6862 22.7058 22.9228 22.4541 23.1468Z" fill="#0073FF"/>
<path d="M24.8262 19.9233L25.8063 20.36C25.96 20.02 26.095 19.6727 26.2118 19.3186L25.1907 18.9873C25.086 19.3053 24.9638 19.6173 24.8262 19.9233Z" fill="#0073FF"/>
<path d="M18.9717 25.1383L19.3013 26.1536C19.6584 26.039 20.0089 25.9063 20.3519 25.755L19.9162 24.7803C19.6081 24.9156 19.2926 25.0356 18.9717 25.1383Z" fill="#0073FF"/>
<path d="M6.54487 13.9928L5.49425 13.7715C5.41637 14.1355 5.35797 14.5035 5.31836 14.8742L6.38643 14.9855C6.42201 14.6522 6.47505 14.3208 6.54487 13.9928Z" fill="#0073FF"/>
<path d="M6.33193 15.9996V15.9883H5.25781V15.9996C5.25781 16.3676 5.27661 16.7356 5.31487 17.1016L6.38362 16.9923C6.34871 16.663 6.33193 16.3316 6.33193 15.9996Z" fill="#0073FF"/>
<path d="M16.9941 25.5505L17.1029 26.6118C17.4762 26.5738 17.8467 26.5165 18.2133 26.4405L17.9931 25.3965C17.6634 25.4645 17.3298 25.5165 16.9941 25.5505Z" fill="#0073FF"/>
<path d="M7.1701 12.0867L6.18929 11.6514C6.03623 11.9914 5.9013 12.3394 5.78516 12.6934L6.80624 13.0241C6.91096 12.7054 7.03247 12.3927 7.1701 12.0867Z" fill="#0073FF"/>
<path d="M6.53957 17.9854L5.48828 18.2047C5.56548 18.5694 5.66215 18.9294 5.77762 19.284L6.79937 18.956C6.69599 18.6374 6.60939 18.3134 6.53957 17.9854Z" fill="#0073FF"/>
<path d="M25.4531 18.0164L26.5037 18.2398C26.5823 17.8758 26.6414 17.5078 26.681 17.1371L25.6129 17.0244C25.5766 17.3578 25.5236 17.6891 25.4531 18.0164Z" fill="#0073FF"/>
<path d="M9.53727 8.86007L8.81895 8.06738C8.54036 8.31672 8.27518 8.57939 8.02344 8.85607L8.82097 9.57075C9.0472 9.32141 9.28619 9.08474 9.53727 8.86007Z" fill="#0073FF"/>
<path d="M8.18278 10.3513L7.31476 9.72266C7.0939 10.0233 6.88914 10.3353 6.70117 10.6573L7.63028 11.1927C7.79946 10.9027 7.98407 10.622 8.18278 10.3513Z" fill="#0073FF"/>
<path d="M11.172 7.68086L10.6349 6.75684C10.31 6.94351 9.99582 7.14618 9.69238 7.36485L10.3241 8.22753C10.5967 8.03086 10.88 7.84819 11.172 7.68086Z" fill="#0073FF"/>
<path d="M24.5921 16.0003C24.5921 11.2875 20.7448 7.4668 15.9992 7.4668C11.2536 7.4668 7.40625 11.2875 7.40625 16.0003C7.40625 20.7131 11.2536 24.5338 15.9992 24.5338C20.7427 24.5285 24.5867 20.7111 24.5921 16.0003ZM15.9992 23.4671C11.8464 23.4671 8.48037 20.1244 8.48037 16.0003C8.48037 11.8762 11.8464 8.53349 15.9992 8.53349C20.152 8.53349 23.518 11.8762 23.518 16.0003C23.5133 20.1224 20.15 23.4625 15.9992 23.4671Z" fill="#0073FF"/>
<path d="M20.8979 12.7356C20.2682 12.1116 19.2491 12.1116 18.6194 12.7356L13.851 17.471L12.842 16.469C12.213 15.8443 11.1926 15.8443 10.5636 16.469C9.93454 17.0937 9.93454 18.107 10.5636 18.7317L12.7118 20.8651C13.3408 21.4898 14.3612 21.4898 14.9903 20.8651L20.8979 14.9983C21.5269 14.3736 21.5276 13.3603 20.8979 12.7356ZM20.1386 14.2443L14.231 20.1111C14.0216 20.3191 13.6812 20.3191 13.4717 20.1111L11.3235 17.9777C11.1161 17.767 11.1201 17.4297 11.3322 17.2237C11.541 17.021 11.8747 17.021 12.0834 17.2237L13.4724 18.6024C13.6819 18.8104 14.0222 18.8104 14.2317 18.6024L19.38 13.4903C19.5861 13.2783 19.9258 13.2723 20.1393 13.4769C20.3528 13.6816 20.3588 14.0189 20.1527 14.231C20.1474 14.2356 20.1427 14.2396 20.1386 14.2443Z" fill="#0073FF"/>
<path d="M15.9997 3.2002C8.89245 3.2002 3.11035 8.94231 3.11035 16.0005C3.11035 23.0586 8.89245 28.8007 15.9997 28.8007C23.107 28.8007 28.8891 23.0586 28.8891 16.0005C28.8891 8.94231 23.107 3.2002 15.9997 3.2002ZM15.9997 27.734C9.48456 27.734 4.18447 22.4706 4.18447 16.0005C4.18447 9.53033 9.48456 4.26688 15.9997 4.26688C22.5149 4.26688 27.815 9.53033 27.815 16.0005C27.815 22.4706 22.5149 27.734 15.9997 27.734Z" fill="#0073FF"/>
</svg>
