<svg width="350" height="481" viewBox="0 0 350 481" fill="none" xmlns="http://www.w3.org/2000/svg">
<path d="M281.729 417.5L205.729 330.001" stroke="#B8D3EB" stroke-width="3"/>
<path d="M205.729 125.499L281.729 37.9996" stroke="#B8D3EB" stroke-width="3"/>
<path d="M287 233L143.729 233" stroke="#B8D3EB" stroke-width="3"/>
<circle cx="282" cy="416" r="38.5" fill="white" stroke="#B8D3EB" stroke-width="3"/>
<path fill-rule="evenodd" clip-rule="evenodd" d="M284.086 396L284.047 396.581C284.029 396.855 283.891 397.055 283.625 397.24C283.359 397.426 282.969 397.552 282.619 397.575H279.315C277.116 397.575 275.332 399.356 275.332 401.542V404.516C275.332 404.601 275.335 404.623 275.335 404.552C275.335 404.51 275.332 404.504 275.332 404.591V405.888C275.328 405.929 275.328 405.971 275.332 406.012V408.603C275.332 410.224 275.939 411.689 276.908 412.843V416.22L269.929 420.226C268.119 421.247 267 423.149 267 425.207V433.236H279.342L282 436L284.658 433.234H297V425.067C297 423.093 295.922 421.268 294.184 420.29L287.242 416.22V412.665C288.123 411.538 288.668 410.141 288.668 408.603V406.454C288.671 406.416 288.671 406.378 288.668 406.339V404.591C288.668 404.523 288.666 404.53 288.665 404.56C288.666 404.585 288.668 404.598 288.668 404.523V400.128L288.663 400.087C288.515 398.972 288.168 397.967 287.509 397.211C286.85 396.455 285.862 395.999 284.673 396.005V396H284.086ZM284.905 397.343C285.617 397.398 286.173 397.583 286.555 398.021C286.986 398.517 287.278 399.285 287.405 400.233V404.518C287.405 404.453 287.404 404.474 287.403 404.55C287.403 404.646 287.405 404.644 287.405 404.589V404.933C287.052 404.738 286.674 404.602 286.291 404.533C285.416 404.374 284.508 404.44 283.632 404.477C282.757 404.513 281.92 404.519 281.233 404.333C280.547 404.146 280.005 403.812 279.551 403.039C279.433 402.835 279.209 402.714 278.972 402.726C278.7 402.741 278.468 402.927 278.397 403.187C278.414 403.127 278.289 403.385 278.079 403.629C277.87 403.874 277.584 404.16 277.283 404.425C277.049 404.631 276.816 404.794 276.595 404.948V404.589C276.595 404.658 276.597 404.635 276.597 404.555C276.597 404.458 276.595 404.463 276.595 404.518V401.544C276.595 400.025 277.798 398.827 279.315 398.827H282.681H282.7C283.271 398.79 283.857 398.613 284.353 398.268C284.639 398.069 284.729 397.672 284.905 397.345V397.343ZM279.085 404.369C279.624 404.932 280.235 405.355 280.9 405.536C281.832 405.79 282.789 405.763 283.684 405.727C284.58 405.69 285.418 405.644 286.064 405.761C286.668 405.871 287.076 406.078 287.405 406.576V408.6C287.405 411.602 285.002 413.996 282 413.996C278.998 413.996 276.595 411.602 276.595 408.6V406.425C276.758 406.351 276.91 406.259 277.073 406.156C277.421 405.939 277.78 405.66 278.121 405.36C278.463 405.06 278.784 404.74 279.043 404.438C279.063 404.415 279.067 404.392 279.085 404.369ZM285.98 413.913V416.357L281.943 419.736L278.171 416.579V414.035C279.255 414.797 280.571 415.253 282 415.253C283.498 415.253 284.867 414.744 285.98 413.913ZM286.722 417.369L288.083 418.167L285.662 422.179L284.079 420.941L283.243 420.282L286.722 417.369ZM277.271 417.455L280.649 420.285L279.968 420.827L278.227 422.179L275.865 418.263L277.271 417.455ZM289.168 418.806L293.555 421.376H293.56C294.908 422.135 295.738 423.542 295.738 425.068V431.984H292.135V428.774H290.872V431.984H285.075L283.946 423.603C284.143 423.357 284.302 423.084 284.395 422.783L286.01 424.042L289.168 418.806ZM274.772 418.891L277.877 424.04L279.578 422.719C279.669 423.045 279.842 423.339 280.054 423.603L278.923 431.986H273.335V428.773H272.072V431.986H268.263V425.207C268.263 423.596 269.136 422.11 270.558 421.31H270.561L274.772 418.891ZM281.946 420.857L283.248 421.885V422.063C283.248 422.506 283.011 422.914 282.624 423.135C282.237 423.357 281.763 423.357 281.376 423.135C280.989 422.914 280.75 422.506 280.75 422.063V421.807L280.752 421.805L281.946 420.857ZM281.216 424.41C281.726 424.577 282.271 424.576 282.782 424.41L283.839 432.274L282 434.186L280.158 432.274L281.216 424.41Z" fill="#0F00AA"/>
<circle cx="282" cy="40" r="38.5" fill="white" stroke="#B8D3EB" stroke-width="3"/>
<g clip-path="url(#clip0)">
<path d="M262.119 36.6597L281.503 22.2822L300.887 36.6597L298.386 38.2643L281.503 25.6257L264.621 38.2643L262.119 36.6597Z" stroke="#0F00AA" stroke-width="1.5" stroke-miterlimit="10" stroke-linejoin="round"/>
<path d="M267.212 36.9863V59.3613L295.788 59.3611V54.4066" stroke="#0F00AA" stroke-width="1.5" stroke-miterlimit="10"/>
<path d="M300.374 38.7891H270.054V54.4068H300.374V38.7891Z" stroke="#0F00AA" stroke-width="1.5" stroke-miterlimit="10"/>
<path d="M285.386 54.4132C289.606 54.4132 293.027 50.9156 293.027 46.6011C293.027 42.2866 289.606 38.7891 285.386 38.7891C281.166 38.7891 277.745 42.2866 277.745 46.6011C277.745 50.9156 281.166 54.4132 285.386 54.4132Z" stroke="#0F00AA" stroke-width="1.5" stroke-miterlimit="10"/>
<path d="M287.65 49.7654C287.206 50.2001 286.556 50.4622 285.705 50.5517V51.8431H284.78V50.5645C284.223 50.5261 283.698 50.4238 283.204 50.2512C282.71 50.085 282.316 49.8677 282.022 49.6056L282.529 48.4421C282.804 48.6722 283.141 48.864 283.542 49.0238C283.942 49.1836 284.355 49.2795 284.78 49.3179V47.0165C284.248 46.8886 283.804 46.7416 283.448 46.5817C283.091 46.4219 282.791 46.1918 282.554 45.8913C282.316 45.5909 282.191 45.1881 282.191 44.6895C282.191 44.0694 282.41 43.5388 282.854 43.104C283.298 42.6693 283.936 42.4072 284.78 42.3241V41.0264H285.705V42.3049C286.124 42.3305 286.537 42.4008 286.937 42.5223C287.337 42.6438 287.687 42.8036 287.987 43.0081L287.525 44.1716C286.956 43.8328 286.349 43.6283 285.699 43.5515V45.8785C286.237 46.0064 286.687 46.1534 287.043 46.3069C287.4 46.4603 287.7 46.6904 287.944 46.9909C288.188 47.2914 288.306 47.6941 288.306 48.1927C288.325 48.8065 288.1 49.3307 287.65 49.7654ZM283.942 45.2393C284.136 45.3927 284.417 45.5205 284.786 45.6292V43.5835C284.405 43.6474 284.117 43.7689 283.929 43.9543C283.742 44.1397 283.648 44.3634 283.648 44.6319C283.654 44.8813 283.748 45.0858 283.942 45.2393ZM286.593 48.9407C286.787 48.7617 286.881 48.5444 286.881 48.2822C286.881 48.0201 286.781 47.8156 286.574 47.6557C286.374 47.4959 286.08 47.3681 285.705 47.2594V49.2987C286.112 49.2412 286.405 49.1197 286.593 48.9407Z" fill="#0F00AA"/>
<path d="M267.747 32.4977V23.5605H275.25V26.9424" stroke="#0F00AA" stroke-width="1.5" stroke-miterlimit="10"/>
<path d="M276.501 20.6396H266.496V23.5612H276.501V20.6396Z" stroke="#0F00AA" stroke-width="1.5" stroke-miterlimit="10"/>
</g>
<circle cx="310" cy="233" r="38.5" fill="white" stroke="#B8D3EB" stroke-width="3"/>
<path d="M301.201 227.847H294.402V248.274H301.201V227.847ZM301.648 221.528C301.604 219.526 300.172 218 297.846 218C295.521 218 294 219.526 294 221.528C294 223.49 295.476 225.059 297.758 225.059H297.801C300.172 225.059 301.648 223.49 301.648 221.528ZM325.719 236.562C325.719 230.288 322.365 227.368 317.891 227.368C314.282 227.368 312.666 229.35 311.763 230.741V227.848H304.964C305.053 229.765 304.964 248.275 304.964 248.275H311.763V236.867C311.763 236.256 311.807 235.647 311.987 235.21C312.479 233.991 313.597 232.728 315.476 232.728C317.937 232.728 318.921 234.601 318.921 237.346V248.274H325.719L325.719 236.562Z" fill="#0F00AA"/>
<path d="M284.311 292.558H288.049V294H282.659V284.914H284.311V292.558ZM289.717 287.182H291.369V294H289.717V287.182ZM289.521 284.998C289.521 284.699 289.61 284.466 289.787 284.298C289.965 284.121 290.217 284.032 290.543 284.032C290.861 284.032 291.108 284.121 291.285 284.298C291.472 284.466 291.565 284.699 291.565 284.998C291.565 285.297 291.472 285.535 291.285 285.712C291.108 285.88 290.861 285.964 290.543 285.964C290.217 285.964 289.965 285.88 289.787 285.712C289.61 285.535 289.521 285.297 289.521 284.998ZM295.795 288.372C296.243 287.467 296.962 287.014 297.951 287.014C298.791 287.014 299.421 287.289 299.841 287.84C300.27 288.391 300.485 289.119 300.485 290.024V294H298.833V290.024C298.833 289.52 298.712 289.142 298.469 288.89C298.226 288.629 297.886 288.498 297.447 288.498C297.008 288.498 296.63 288.694 296.313 289.086C296.005 289.478 295.842 290.066 295.823 290.85V294H294.171V287.196H295.613L295.795 288.372ZM305.302 290.682L304.546 291.312V294H302.894V284.396H304.546V289.59L307.234 287.196H309.474L306.464 289.716L309.642 294H307.626L305.302 290.682ZM315.693 288.008C315.926 288.307 316.099 288.652 316.211 289.044C316.332 289.436 316.393 289.795 316.393 290.122C316.393 290.449 316.374 290.743 316.337 291.004H311.941C311.959 291.555 312.095 292.003 312.347 292.348C312.599 292.693 312.981 292.866 313.495 292.866C314.176 292.866 314.582 292.567 314.713 291.97H316.379C316.267 292.651 315.954 293.188 315.441 293.58C314.909 293.991 314.26 294.196 313.495 294.196C312.599 294.196 311.847 293.869 311.241 293.216C310.615 292.535 310.303 291.662 310.303 290.598C310.303 289.506 310.615 288.629 311.241 287.966C311.838 287.331 312.589 287.014 313.495 287.014C314.437 287.014 315.17 287.345 315.693 288.008ZM313.509 288.33C313.042 288.33 312.678 288.484 312.417 288.792C312.155 289.091 312.001 289.478 311.955 289.954H314.853C314.853 289.217 314.619 288.722 314.153 288.47C313.975 288.377 313.761 288.33 313.509 288.33ZM322.808 292.95C322.388 293.781 321.744 294.196 320.876 294.196C320.008 294.196 319.28 293.865 318.692 293.202C318.086 292.511 317.782 291.634 317.782 290.57C317.782 289.506 318.072 288.643 318.65 287.98C319.22 287.336 319.929 287.014 320.778 287.014C321.628 287.014 322.267 287.355 322.696 288.036V284.396H324.362V294H323.004L322.808 292.95ZM321.086 288.498C320.62 288.498 320.228 288.689 319.91 289.072C319.602 289.445 319.448 289.949 319.448 290.584C319.448 291.219 319.607 291.732 319.924 292.124C320.242 292.507 320.643 292.698 321.128 292.698C321.53 292.698 321.889 292.539 322.206 292.222C322.533 291.895 322.696 291.485 322.696 290.99V290.108C322.678 289.623 322.514 289.226 322.206 288.918C321.926 288.638 321.553 288.498 321.086 288.498ZM326.97 284.914H328.622V294H326.97V284.914ZM332.846 288.372C333.294 287.467 334.013 287.014 335.002 287.014C335.842 287.014 336.472 287.289 336.892 287.84C337.321 288.391 337.536 289.119 337.536 290.024V294H335.884V290.024C335.884 289.52 335.763 289.142 335.52 288.89C335.277 288.629 334.937 288.498 334.498 288.498C334.059 288.498 333.681 288.694 333.364 289.086C333.056 289.478 332.893 290.066 332.874 290.85V294H331.222V287.196H332.664L332.846 288.372Z" fill="#0F00AA"/>
<path d="M246.188 91.914V95.708H250.15V91.914H251.802V101H250.15V97.15H246.188V101H244.536V91.914H246.188ZM257.095 94.014C257.552 94.014 257.982 94.0887 258.383 94.238C258.784 94.378 259.13 94.5973 259.419 94.896C260.063 95.5493 260.385 96.4547 260.385 97.612C260.385 98.7507 260.063 99.6467 259.419 100.3C258.84 100.897 258.066 101.196 257.095 101.196C256.124 101.196 255.34 100.897 254.743 100.3C254.099 99.656 253.777 98.76 253.777 97.612C253.777 96.4453 254.099 95.54 254.743 94.896C255.331 94.308 256.115 94.014 257.095 94.014ZM258.733 97.598C258.733 96.8793 258.593 96.3427 258.313 95.988C258.033 95.624 257.641 95.442 257.137 95.442C256.642 95.442 256.236 95.624 255.919 95.988C255.602 96.3427 255.443 96.8793 255.443 97.598C255.443 98.3167 255.583 98.858 255.863 99.222C256.152 99.5767 256.544 99.754 257.039 99.754C257.534 99.754 257.94 99.5767 258.257 99.222C258.574 98.858 258.733 98.3167 258.733 97.598ZM268.399 95.484C268.837 94.504 269.607 94.014 270.709 94.014C271.521 94.014 272.151 94.2893 272.599 94.84C273.028 95.3627 273.243 96.0907 273.243 97.024V101H271.577V97.024C271.577 96.52 271.455 96.142 271.213 95.89C270.97 95.6287 270.629 95.498 270.191 95.498C269.752 95.498 269.393 95.6893 269.113 96.072C268.833 96.4547 268.683 97.0333 268.665 97.808V101H267.013V97.024C267.013 96.52 266.891 96.142 266.649 95.89C266.406 95.6287 266.065 95.498 265.627 95.498C265.188 95.498 264.81 95.694 264.493 96.086C264.185 96.478 264.021 97.066 264.003 97.85V101H262.351V94.196H263.793L263.975 95.372C264.423 94.4667 265.141 94.014 266.131 94.014C266.7 94.014 267.171 94.1447 267.545 94.406C267.927 94.6673 268.212 95.0267 268.399 95.484ZM280.386 95.008C280.619 95.3067 280.792 95.652 280.904 96.044C281.025 96.436 281.086 96.7953 281.086 97.122C281.086 97.4487 281.067 97.7427 281.03 98.004H276.634C276.653 98.5547 276.788 99.0027 277.04 99.348C277.292 99.6933 277.675 99.866 278.188 99.866C278.869 99.866 279.275 99.5673 279.406 98.97H281.072C280.96 99.6513 280.647 100.188 280.134 100.58C279.602 100.991 278.953 101.196 278.188 101.196C277.292 101.196 276.541 100.869 275.934 100.216C275.309 99.5347 274.996 98.662 274.996 97.598C274.996 96.506 275.309 95.6287 275.934 94.966C276.531 94.3313 277.283 94.014 278.188 94.014C279.131 94.014 279.863 94.3453 280.386 95.008ZM278.202 95.33C277.735 95.33 277.371 95.484 277.11 95.792C276.849 96.0907 276.695 96.478 276.648 96.954H279.546C279.546 96.2167 279.313 95.722 278.846 95.47C278.669 95.3767 278.454 95.33 278.202 95.33ZM286.605 91.396H288.257V101H286.605V91.396ZM293.531 94.014C293.988 94.014 294.417 94.0887 294.819 94.238C295.22 94.378 295.565 94.5973 295.855 94.896C296.499 95.5493 296.821 96.4547 296.821 97.612C296.821 98.7507 296.499 99.6467 295.855 100.3C295.276 100.897 294.501 101.196 293.531 101.196C292.56 101.196 291.776 100.897 291.179 100.3C290.535 99.656 290.213 98.76 290.213 97.612C290.213 96.4453 290.535 95.54 291.179 94.896C291.767 94.308 292.551 94.014 293.531 94.014ZM295.169 97.598C295.169 96.8793 295.029 96.3427 294.749 95.988C294.469 95.624 294.077 95.442 293.573 95.442C293.078 95.442 292.672 95.624 292.355 95.988C292.037 96.3427 291.879 96.8793 291.879 97.598C291.879 98.3167 292.019 98.858 292.299 99.222C292.588 99.5767 292.98 99.754 293.475 99.754C293.969 99.754 294.375 99.5767 294.693 99.222C295.01 98.858 295.169 98.3167 295.169 97.598ZM301.026 97.024C301.568 97.024 302.193 97.1127 302.902 97.29V96.618C302.902 96.142 302.804 95.792 302.608 95.568C302.422 95.3347 302.109 95.218 301.67 95.218C301.241 95.218 300.91 95.3067 300.676 95.484C300.443 95.652 300.326 95.8947 300.326 96.212H298.52C298.52 95.4373 298.791 94.8773 299.332 94.532C299.883 94.1867 300.648 94.014 301.628 94.014C303.028 94.014 303.934 94.504 304.344 95.484C304.484 95.82 304.554 96.2167 304.554 96.674V101H303.112L302.986 100.09C302.548 100.827 301.876 101.196 300.97 101.196C300.093 101.196 299.412 100.981 298.926 100.552C298.478 100.141 298.254 99.6233 298.254 98.998C298.254 98.3633 298.502 97.878 298.996 97.542C299.491 97.1967 300.168 97.024 301.026 97.024ZM302.902 98.34C302.352 98.1907 301.838 98.116 301.362 98.116C300.466 98.116 300.018 98.4147 300.018 99.012C300.018 99.264 300.121 99.4833 300.326 99.67C300.532 99.8473 300.858 99.936 301.306 99.936C301.764 99.936 302.137 99.7867 302.426 99.488C302.725 99.18 302.884 98.7973 302.902 98.34ZM308.586 95.372C309.034 94.4667 309.753 94.014 310.742 94.014C311.582 94.014 312.212 94.2893 312.632 94.84C313.061 95.3907 313.276 96.1187 313.276 97.024V101H311.624V97.024C311.624 96.52 311.503 96.142 311.26 95.89C311.017 95.6287 310.677 95.498 310.238 95.498C309.799 95.498 309.421 95.694 309.104 96.086C308.796 96.478 308.633 97.066 308.614 97.85V101H306.962V94.196H308.404L308.586 95.372ZM316.609 98.928C316.627 99.572 317.099 99.894 318.023 99.894C318.377 99.894 318.667 99.8193 318.891 99.67C319.124 99.5113 319.241 99.3293 319.241 99.124C319.241 98.9187 319.171 98.76 319.031 98.648C318.891 98.536 318.671 98.4333 318.373 98.34L316.889 97.808C315.787 97.4253 315.237 96.8 315.237 95.932C315.237 95.3533 315.493 94.8913 316.007 94.546C316.529 94.1913 317.225 94.014 318.093 94.014C318.97 94.014 319.642 94.2053 320.109 94.588C320.585 94.9707 320.832 95.4513 320.851 96.03H319.297C319.278 95.806 319.171 95.6287 318.975 95.498C318.779 95.3673 318.499 95.302 318.135 95.302C317.771 95.302 317.486 95.3767 317.281 95.526C317.085 95.666 316.987 95.8293 316.987 96.016C316.987 96.3427 317.262 96.5853 317.813 96.744L319.423 97.346C319.955 97.5233 320.361 97.752 320.641 98.032C320.93 98.3027 321.075 98.6573 321.075 99.096C321.075 99.656 320.809 100.141 320.277 100.552C319.726 100.981 318.998 101.196 318.093 101.196C317.187 101.196 316.459 101 315.909 100.608C315.358 100.207 315.078 99.6467 315.069 98.928H316.609Z" fill="#0F00AA"/>
<path d="M224.527 467.914C225.908 467.914 227.024 468.325 227.873 469.146C228.732 469.967 229.161 471.073 229.161 472.464C229.161 473.845 228.732 474.947 227.873 475.768C227.024 476.589 225.908 477 224.527 477H221.573V467.914H224.527ZM223.239 475.502H224.527C225.386 475.502 226.081 475.213 226.613 474.634C227.117 474.074 227.369 473.351 227.369 472.464C227.369 471.559 227.117 470.826 226.613 470.266C226.09 469.697 225.395 469.412 224.527 469.412H223.239V475.502ZM235.931 471.008C236.164 471.307 236.337 471.652 236.449 472.044C236.57 472.436 236.631 472.795 236.631 473.122C236.631 473.449 236.612 473.743 236.575 474.004H232.179C232.197 474.555 232.333 475.003 232.585 475.348C232.837 475.693 233.219 475.866 233.733 475.866C234.414 475.866 234.82 475.567 234.951 474.97H236.617C236.505 475.651 236.192 476.188 235.679 476.58C235.147 476.991 234.498 477.196 233.733 477.196C232.837 477.196 232.085 476.869 231.479 476.216C230.853 475.535 230.541 474.662 230.541 473.598C230.541 472.506 230.853 471.629 231.479 470.966C232.076 470.331 232.827 470.014 233.733 470.014C234.675 470.014 235.408 470.345 235.931 471.008ZM233.747 471.33C233.28 471.33 232.916 471.484 232.655 471.792C232.393 472.091 232.239 472.478 232.193 472.954H235.091C235.091 472.217 234.857 471.722 234.391 471.47C234.213 471.377 233.999 471.33 233.747 471.33ZM243.047 475.95C242.627 476.781 241.983 477.196 241.115 477.196C240.247 477.196 239.519 476.865 238.931 476.202C238.324 475.511 238.021 474.634 238.021 473.57C238.021 472.506 238.31 471.643 238.889 470.98C239.458 470.336 240.167 470.014 241.017 470.014C241.866 470.014 242.505 470.355 242.935 471.036V467.396H244.601V477H243.243L243.047 475.95ZM241.325 471.498C240.858 471.498 240.466 471.689 240.149 472.072C239.841 472.445 239.687 472.949 239.687 473.584C239.687 474.219 239.845 474.732 240.163 475.124C240.48 475.507 240.881 475.698 241.367 475.698C241.768 475.698 242.127 475.539 242.445 475.222C242.771 474.895 242.935 474.485 242.935 473.99V473.108C242.916 472.623 242.753 472.226 242.445 471.918C242.165 471.638 241.791 471.498 241.325 471.498ZM247.348 470.182H249V477H247.348V470.182ZM247.152 467.998C247.152 467.699 247.241 467.466 247.418 467.298C247.596 467.121 247.848 467.032 248.174 467.032C248.492 467.032 248.739 467.121 248.916 467.298C249.103 467.466 249.196 467.699 249.196 467.998C249.196 468.297 249.103 468.535 248.916 468.712C248.739 468.88 248.492 468.964 248.174 468.964C247.848 468.964 247.596 468.88 247.418 468.712C247.241 468.535 247.152 468.297 247.152 467.998ZM254.392 470.014C254.821 470.014 255.204 470.089 255.54 470.238C255.885 470.378 256.175 470.565 256.408 470.798C256.875 471.246 257.15 471.811 257.234 472.492L255.568 472.534C255.493 472.235 255.353 471.988 255.148 471.792C254.952 471.596 254.723 471.498 254.462 471.498C254.201 471.498 253.977 471.54 253.79 471.624C253.603 471.699 253.44 471.82 253.3 471.988C252.983 472.38 252.824 472.921 252.824 473.612C252.824 474.303 252.973 474.825 253.272 475.18C253.571 475.525 253.93 475.698 254.35 475.698C254.779 475.698 255.087 475.6 255.274 475.404C255.47 475.199 255.568 474.923 255.568 474.578H257.234C257.234 475.325 256.987 475.945 256.492 476.44C255.988 476.944 255.283 477.196 254.378 477.196C253.482 477.196 252.731 476.869 252.124 476.216C251.48 475.516 251.158 474.643 251.158 473.598C251.158 472.497 251.48 471.615 252.124 470.952C252.731 470.327 253.487 470.014 254.392 470.014ZM261.466 473.024C262.007 473.024 262.632 473.113 263.342 473.29V472.618C263.342 472.142 263.244 471.792 263.048 471.568C262.861 471.335 262.548 471.218 262.11 471.218C261.68 471.218 261.349 471.307 261.116 471.484C260.882 471.652 260.766 471.895 260.766 472.212H258.96C258.96 471.437 259.23 470.877 259.772 470.532C260.322 470.187 261.088 470.014 262.068 470.014C263.468 470.014 264.373 470.504 264.784 471.484C264.924 471.82 264.994 472.217 264.994 472.674V477H263.552L263.426 476.09C262.987 476.827 262.315 477.196 261.41 477.196C260.532 477.196 259.851 476.981 259.366 476.552C258.918 476.141 258.694 475.623 258.694 474.998C258.694 474.363 258.941 473.878 259.436 473.542C259.93 473.197 260.607 473.024 261.466 473.024ZM263.342 474.34C262.791 474.191 262.278 474.116 261.802 474.116C260.906 474.116 260.458 474.415 260.458 475.012C260.458 475.264 260.56 475.483 260.766 475.67C260.971 475.847 261.298 475.936 261.746 475.936C262.203 475.936 262.576 475.787 262.866 475.488C263.164 475.18 263.323 474.797 263.342 474.34ZM271.238 476.832C270.622 477.075 270.136 477.196 269.782 477.196C269.427 477.196 269.114 477.154 268.844 477.07C268.582 476.986 268.349 476.86 268.144 476.692C267.714 476.309 267.5 475.782 267.5 475.11V471.302H266.548V470.196H267.5V468.404H269.152V470.196H271V471.302H269.152V475.054C269.152 475.614 269.418 475.894 269.95 475.894C270.22 475.894 270.57 475.819 271 475.67L271.238 476.832ZM277.671 471.008C277.904 471.307 278.077 471.652 278.189 472.044C278.31 472.436 278.371 472.795 278.371 473.122C278.371 473.449 278.352 473.743 278.315 474.004H273.919C273.938 474.555 274.073 475.003 274.325 475.348C274.577 475.693 274.96 475.866 275.473 475.866C276.154 475.866 276.56 475.567 276.691 474.97H278.357C278.245 475.651 277.932 476.188 277.419 476.58C276.887 476.991 276.238 477.196 275.473 477.196C274.577 477.196 273.826 476.869 273.219 476.216C272.594 475.535 272.281 474.662 272.281 473.598C272.281 472.506 272.594 471.629 273.219 470.966C273.816 470.331 274.568 470.014 275.473 470.014C276.416 470.014 277.148 470.345 277.671 471.008ZM275.487 471.33C275.02 471.33 274.656 471.484 274.395 471.792C274.134 472.091 273.98 472.478 273.933 472.954H276.831C276.831 472.217 276.598 471.722 276.131 471.47C275.954 471.377 275.739 471.33 275.487 471.33ZM284.787 475.95C284.367 476.781 283.723 477.196 282.855 477.196C281.987 477.196 281.259 476.865 280.671 476.202C280.064 475.511 279.761 474.634 279.761 473.57C279.761 472.506 280.05 471.643 280.629 470.98C281.198 470.336 281.908 470.014 282.757 470.014C283.606 470.014 284.246 470.355 284.675 471.036V467.396H286.341V477H284.983L284.787 475.95ZM283.065 471.498C282.598 471.498 282.206 471.689 281.889 472.072C281.581 472.445 281.427 472.949 281.427 473.584C281.427 474.219 281.586 474.732 281.903 475.124C282.22 475.507 282.622 475.698 283.107 475.698C283.508 475.698 283.868 475.539 284.185 475.222C284.512 474.895 284.675 474.485 284.675 473.99V473.108C284.656 472.623 284.493 472.226 284.185 471.918C283.905 471.638 283.532 471.498 283.065 471.498ZM293.414 474.928C293.432 475.572 293.904 475.894 294.828 475.894C295.182 475.894 295.472 475.819 295.696 475.67C295.929 475.511 296.046 475.329 296.046 475.124C296.046 474.919 295.976 474.76 295.836 474.648C295.696 474.536 295.476 474.433 295.178 474.34L293.694 473.808C292.592 473.425 292.042 472.8 292.042 471.932C292.042 471.353 292.298 470.891 292.812 470.546C293.334 470.191 294.03 470.014 294.898 470.014C295.775 470.014 296.447 470.205 296.914 470.588C297.39 470.971 297.637 471.451 297.656 472.03H296.102C296.083 471.806 295.976 471.629 295.78 471.498C295.584 471.367 295.304 471.302 294.94 471.302C294.576 471.302 294.291 471.377 294.086 471.526C293.89 471.666 293.792 471.829 293.792 472.016C293.792 472.343 294.067 472.585 294.618 472.744L296.228 473.346C296.76 473.523 297.166 473.752 297.446 474.032C297.735 474.303 297.88 474.657 297.88 475.096C297.88 475.656 297.614 476.141 297.082 476.552C296.531 476.981 295.803 477.196 294.898 477.196C293.992 477.196 293.264 477 292.714 476.608C292.163 476.207 291.883 475.647 291.874 474.928H293.414ZM304.394 475.768C303.965 476.673 303.274 477.126 302.322 477.126C301.118 477.126 300.325 476.655 299.942 475.712C299.802 475.385 299.732 474.989 299.732 474.522V470.182H301.384V474.354C301.384 474.802 301.492 475.138 301.706 475.362C301.921 475.577 302.182 475.684 302.49 475.684C302.808 475.684 303.074 475.642 303.288 475.558C303.503 475.465 303.69 475.329 303.848 475.152C304.194 474.751 304.376 474.214 304.394 473.542V470.182H306.046V477H304.394V475.768ZM310.162 471.12C310.591 470.383 311.244 470.014 312.122 470.014C312.962 470.014 313.68 470.331 314.278 470.966C314.912 471.638 315.23 472.515 315.23 473.598C315.23 474.69 314.908 475.572 314.264 476.244C313.666 476.879 312.952 477.196 312.122 477.196C311.291 477.196 310.684 476.949 310.302 476.454V480.318H308.65V470.196H310.008L310.162 471.12ZM311.828 475.698C312.024 475.698 312.224 475.656 312.43 475.572C312.644 475.488 312.836 475.357 313.004 475.18C313.377 474.788 313.564 474.265 313.564 473.612C313.564 472.949 313.4 472.431 313.074 472.058C312.756 471.685 312.364 471.498 311.898 471.498C311.44 471.498 311.062 471.633 310.764 471.904C310.474 472.165 310.32 472.543 310.302 473.038V474.256C310.302 474.695 310.456 475.049 310.764 475.32C311.053 475.572 311.408 475.698 311.828 475.698ZM318.707 471.12C319.136 470.383 319.789 470.014 320.667 470.014C321.507 470.014 322.225 470.331 322.823 470.966C323.457 471.638 323.775 472.515 323.775 473.598C323.775 474.69 323.453 475.572 322.809 476.244C322.211 476.879 321.497 477.196 320.667 477.196C319.836 477.196 319.229 476.949 318.847 476.454V480.318H317.195V470.196H318.553L318.707 471.12ZM320.373 475.698C320.569 475.698 320.769 475.656 320.975 475.572C321.189 475.488 321.381 475.357 321.549 475.18C321.922 474.788 322.109 474.265 322.109 473.612C322.109 472.949 321.945 472.431 321.619 472.058C321.301 471.685 320.909 471.498 320.443 471.498C319.985 471.498 319.607 471.633 319.309 471.904C319.019 472.165 318.865 472.543 318.847 473.038V474.256C318.847 474.695 319.001 475.049 319.309 475.32C319.598 475.572 319.953 475.698 320.373 475.698ZM328.414 470.014C328.871 470.014 329.3 470.089 329.702 470.238C330.103 470.378 330.448 470.597 330.738 470.896C331.382 471.549 331.704 472.455 331.704 473.612C331.704 474.751 331.382 475.647 330.738 476.3C330.159 476.897 329.384 477.196 328.414 477.196C327.443 477.196 326.659 476.897 326.062 476.3C325.418 475.656 325.096 474.76 325.096 473.612C325.096 472.445 325.418 471.54 326.062 470.896C326.65 470.308 327.434 470.014 328.414 470.014ZM330.052 473.598C330.052 472.879 329.912 472.343 329.632 471.988C329.352 471.624 328.96 471.442 328.456 471.442C327.961 471.442 327.555 471.624 327.238 471.988C326.92 472.343 326.762 472.879 326.762 473.598C326.762 474.317 326.902 474.858 327.182 475.222C327.471 475.577 327.863 475.754 328.358 475.754C328.852 475.754 329.258 475.577 329.576 475.222C329.893 474.858 330.052 474.317 330.052 473.598ZM335.321 471.54C335.732 470.56 336.348 470.07 337.169 470.07C337.328 470.07 337.529 470.103 337.771 470.168L337.743 471.82C337.482 471.764 337.225 471.736 336.973 471.736C335.872 471.736 335.321 472.497 335.321 474.018V477H333.669V470.182H335.321V471.54ZM343.329 476.832C342.713 477.075 342.228 477.196 341.873 477.196C341.519 477.196 341.206 477.154 340.935 477.07C340.674 476.986 340.441 476.86 340.235 476.692C339.806 476.309 339.591 475.782 339.591 475.11V471.302H338.639V470.196H339.591V468.404H341.243V470.196H343.091V471.302H341.243V475.054C341.243 475.614 341.509 475.894 342.041 475.894C342.312 475.894 342.662 475.819 343.091 475.67L343.329 476.832Z" fill="#0F00AA"/>
<path d="M67.9999 417.5L144 330.001" stroke="#B8D3EB" stroke-width="3"/>
<path d="M144 125.499L68.0001 37.9996" stroke="#B8D3EB" stroke-width="3"/>
<path d="M46 233L206 233" stroke="#B8D3EB" stroke-width="3"/>
<circle cx="68" cy="416" r="41.5" fill="white" stroke="#B8D3EB" stroke-width="3"/>
<g clip-path="url(#clip1)">
<path fill-rule="evenodd" clip-rule="evenodd" d="M40 430V410.117H45.7004V402H63.854V410.117H97.3969V430H40ZM96.949 429.466V410.652H63.8602V423.655H45.7066V410.652H40.5308V429.462H96.949V429.466ZM66.8454 423.805L69.1127 416.513H72.1899L72.5489 419.501L74.4572 416.513H77.6541L75.5555 423.805H73.2422L74.0307 420.645L71.8371 423.805H70.4534L70.3337 420.717L69.1648 423.805H66.8454ZM84.7597 421.176H87.1466C87.6712 421.736 87.8615 421.858 88.2664 421.858C88.696 421.858 88.9813 421.664 88.9813 421.298C88.9813 421.054 88.742 420.81 88.3616 420.692L87.0484 420.304C86.2599 420.06 85.7138 419.404 85.7138 418.507C85.7138 417.047 87.2172 416.075 89.1961 416.075C91.5339 416.075 92.7519 417.047 92.7519 418.482V418.823H90.2944C90.0551 418.335 89.7943 417.972 89.2452 417.972C88.9107 417.972 88.5763 418.216 88.5763 418.507C88.5763 418.726 88.7205 418.919 89.2697 419.091L90.5583 419.504C91.4173 419.795 91.942 420.379 91.942 421.254C91.942 422.811 90.3681 423.927 88.2695 423.927C85.8795 423.924 84.8763 422.83 84.7597 421.176ZM77.4117 423.805L79.5348 416.513H82.3267L81.0627 421.129H83.2563L82.5415 423.802H77.4117V423.805ZM93.7521 423.058C95.28 423.058 96.3753 424.199 96.3753 425.78C96.3753 427.337 95.3015 428.528 93.7981 428.528C92.1997 428.528 91.0553 427.434 91.0553 425.83C91.0553 424.224 92.3193 423.058 93.7521 423.058ZM96.0378 425.774C96.0378 424.364 95.0836 423.392 93.7245 423.392C92.4359 423.392 91.4112 424.414 91.4112 425.824C91.4112 427.259 92.3654 428.181 93.7981 428.181C95.1082 428.181 96.0378 427.137 96.0378 425.774ZM93.5619 424.927H94.062L94.467 426.021L94.8474 424.927H95.3475V426.652H94.9671V425.655L94.6081 426.652H94.3044L93.9454 425.655V426.652H93.565V424.927H93.5619ZM92.0371 424.927H93.3502V425.243H92.8716V426.652H92.4911V425.243H92.0371V424.927ZM69.5146 414.912L69.7048 413.746H70.0392L70.1343 414.525L70.5148 413.746H70.8492L70.659 414.912H70.4442L70.5884 414.062L70.1589 414.912H69.9686L69.8735 414.062L69.7293 414.912H69.5146ZM82.612 414.912L82.8023 413.721H83.017L83.376 414.547L83.4956 413.721H83.735L83.5202 414.912H83.33L82.9495 414.134L82.8299 414.912H82.612ZM84.4007 414.522L84.4253 414.303H84.9253L84.8057 414.909H84.5909L84.6155 414.859C84.4958 414.931 84.4498 414.931 84.3302 414.931C84.0448 414.931 83.8546 414.712 83.8546 414.372C83.8546 413.984 84.0939 413.715 84.4283 413.715C84.7137 413.715 84.8824 413.884 84.9284 414.128H84.7137C84.6676 414.006 84.594 413.959 84.4283 413.959C84.2136 413.959 84.0694 414.081 84.0694 414.372C84.0694 414.59 84.189 414.712 84.3792 414.712C84.5695 414.712 84.6185 414.662 84.6646 414.518H84.4007V414.522ZM91.4173 414.497H91.6321C91.5615 414.765 91.3928 414.959 91.132 414.959C90.8221 414.959 90.6411 414.74 90.6411 414.4C90.6411 413.962 90.8927 413.696 91.2026 413.696C91.4419 413.696 91.6075 413.89 91.6566 414.109H91.4419C91.3713 413.987 91.3222 413.94 91.1811 413.94C91.0154 413.94 90.8712 414.062 90.8712 414.403C90.8712 414.597 90.9663 414.718 91.1351 414.718C91.2977 414.715 91.3682 414.643 91.4173 414.497ZM86.7386 414.912L86.9533 413.721H87.7449L87.7081 413.94H87.1251L87.0853 414.184H87.6314L87.5976 414.403H87.0484L86.9993 414.693H87.5853L87.5485 414.912H86.7386ZM76.3624 414.912L76.5772 413.746H77.3657L77.3289 413.965H76.7429L76.6938 414.184H77.246L77.2123 414.403H76.6723L76.6232 414.693H77.2092L77.1724 414.912H76.3624ZM70.9934 414.45L71.113 413.746H71.3278L71.2081 414.5C71.1959 414.665 71.2787 414.743 71.3983 414.743C71.4935 414.743 71.5886 414.647 71.6131 414.55L71.7573 413.746H71.9721L71.8524 414.525C71.8033 414.84 71.6622 414.962 71.3983 414.962C71.0885 414.959 70.9627 414.8 70.9934 414.45ZM80.0564 414.547H80.2711C80.2957 414.693 80.3417 414.715 80.535 414.715C80.6301 414.715 80.7007 414.69 80.7007 414.618C80.7007 414.568 80.6761 414.522 80.6055 414.472L80.3202 414.325C80.2006 414.253 80.1545 414.156 80.1545 414.034C80.1545 413.865 80.2742 413.693 80.535 413.693C80.8203 413.693 80.94 413.84 81.0136 414.081H80.7743C80.7497 413.959 80.6792 413.912 80.535 413.912C80.4153 413.912 80.3693 413.962 80.3693 414.034C80.3693 414.084 80.3939 414.131 80.489 414.181L80.7528 414.303C80.8479 414.353 80.9185 414.472 80.9185 414.593C80.9185 414.787 80.7743 414.934 80.5135 414.934C80.2251 414.934 80.0809 414.765 80.0564 414.547ZM85.7108 414.547H85.9255C85.9501 414.643 85.9961 414.74 86.1648 414.74C86.2845 414.74 86.3796 414.69 86.3796 414.618C86.3796 414.568 86.3305 414.522 86.2354 414.472L85.9715 414.35C85.8274 414.278 85.8059 414.181 85.8059 414.059C85.8059 413.865 85.9501 413.693 86.2109 413.693C86.4962 413.693 86.5913 413.84 86.6649 414.081H86.4256C86.4011 413.959 86.3305 413.934 86.1863 413.934C86.0667 413.934 86.0206 413.959 86.0206 414.031C86.0206 414.103 86.0452 414.128 86.1403 414.178L86.4041 414.325C86.4993 414.375 86.5698 414.472 86.5698 414.593C86.5698 414.787 86.4256 414.934 86.1648 414.934C85.8795 414.934 85.7353 414.765 85.7108 414.547ZM74.3805 414.912L74.5707 413.746H75.0002C75.215 413.746 75.3592 413.868 75.3592 414.062C75.3592 414.378 75.1444 414.45 74.9051 414.45H74.6658L74.5952 414.912H74.3805ZM74.7487 413.962L74.7057 414.231H74.9542C75.0739 414.231 75.1444 414.181 75.1444 414.084C75.1444 413.987 75.0739 413.962 74.9297 413.962H74.7487ZM87.9106 414.912L88.1069 413.721H88.5794C88.7696 413.721 88.8893 413.868 88.8893 414.037C88.8893 414.184 88.8187 414.281 88.699 414.353C88.7696 414.403 88.7941 414.403 88.7941 414.475V414.79C88.7941 414.862 88.7942 414.862 88.8187 414.912H88.699C88.6039 414.912 88.5794 414.887 88.5794 414.765V414.547C88.5794 414.475 88.5303 414.425 88.4597 414.425H88.2266L88.1499 414.912H87.9106ZM88.2971 413.99L88.2542 414.259H88.5027C88.5978 414.259 88.6684 414.187 88.6684 414.112C88.6684 414.04 88.5978 413.99 88.5027 413.99H88.2971ZM89.0979 413.721H89.3126L89.4323 414.572L89.8373 413.721H90.052L89.5029 414.912H89.2636L89.0979 413.721ZM81.1087 413.94L81.1578 413.721H81.9678L81.9432 413.94H81.6333L81.4891 414.912H81.2498L81.4186 413.94H81.1087ZM73.0213 413.965L73.0459 413.746H73.8804L73.8559 413.965H73.546L73.3803 414.912H73.1655L73.3312 413.965H73.0213ZM72.0457 414.912L72.2359 413.746H72.4507L72.285 414.693H72.8587L72.8097 414.912H72.0457ZM75.4083 414.912L75.5985 413.746H75.8133L75.6691 414.693H76.2182L76.1692 414.912H75.4083ZM78.553 414.912L78.7432 413.721H78.958L78.7923 414.693H79.3661L79.317 414.912H78.553ZM82.0138 414.912L82.204 413.721H82.4188L82.2285 414.912H82.0138ZM79.5072 414.912L79.6974 413.721H79.9122L79.722 414.912H79.5072ZM73.9049 414.912L74.0952 413.746H74.3099L74.1197 414.912H73.9049ZM90.1011 414.912L90.2914 413.721H90.5061L90.3159 414.912H90.1011ZM91.8039 414.912L92.0187 413.721H92.8102L92.7734 413.94H92.1905L92.1506 414.184H92.6967L92.663 414.403H92.1138L92.0647 414.693H92.6507L92.6139 414.912H91.8039ZM46.1361 402.422V423.252H63.4552V402.422H46.1361ZM48.4034 404.851H61.0008V418H48.4034V404.851ZM59.8533 416.416L55.1531 411.627V416.416H59.8533ZM55.8925 406.479C55.6286 406.479 55.4138 406.479 55.1531 406.504V411.34C57.3007 411.34 58.6844 410.78 58.6844 408.811C58.6813 407.182 57.5124 406.479 55.8925 406.479ZM50.2166 406.498V416.416H53.6988V406.498H50.2166ZM62.1451 417.438C62.7649 417.438 63.2895 417.972 63.2895 418.629C63.2895 419.31 62.7894 419.82 62.1451 419.82C61.5254 419.82 61.0008 419.285 61.0008 418.604C61.0008 417.947 61.5008 417.438 62.1451 417.438ZM63.0502 418.632C63.0502 418.122 62.6452 417.685 62.1451 417.685C61.645 417.685 61.2401 418.097 61.2401 418.61C61.2401 419.144 61.6696 419.582 62.1451 419.582C62.6452 419.579 63.0502 419.166 63.0502 418.632ZM61.7586 419.185V417.994H62.093C62.4028 417.994 62.6023 418.066 62.6023 418.335C62.6023 418.529 62.5225 418.579 62.4028 418.651L62.6176 419.185H62.3783L62.1881 418.722H61.9733V419.185H61.7586ZM61.9764 418.216V418.507H62.1421C62.2863 418.507 62.3323 418.457 62.3323 418.36C62.3323 418.238 62.2617 418.213 62.1175 418.213H61.9764V418.216ZM58.1597 418.991C58.6598 418.991 59.1139 419.429 59.1139 420.013C59.1139 420.598 58.6598 421.057 58.1597 421.057C57.6597 421.057 57.2056 420.595 57.2056 420.013C57.2056 419.429 57.6597 418.991 58.1597 418.991ZM58.8746 420.017C58.8746 419.554 58.5402 419.238 58.1597 419.238C57.7793 419.238 57.4449 419.554 57.4449 420.017C57.4449 420.479 57.7793 420.82 58.1597 420.82C58.5402 420.82 58.8746 420.479 58.8746 420.017ZM52.4072 421.01H52.1433L52.8827 419.041H53.1466L53.8369 421.01H53.5761L53.3859 420.404H52.6219L52.4072 421.01ZM53.2908 420.157L53.0054 419.332L52.7201 420.157H53.2908ZM59.4974 421.01V419.041H60.2614C60.74 419.041 61.0253 419.113 61.0253 419.529C61.0253 419.723 60.9547 419.845 60.7614 419.992C61.0959 420.21 60.9056 420.745 61.0713 421.014C60.427 421.014 61.0713 420.138 60.1172 420.138H59.7582V421.014H59.4974V421.01ZM59.7551 419.288V419.895H60.2092C60.473 419.895 60.7584 419.895 60.7584 419.579C60.7584 419.288 60.5682 419.288 60.1847 419.288H59.7551ZM48.4985 421.01V419.041H49.2624C49.741 419.041 50.0509 419.113 50.0509 419.529C50.0509 419.723 49.9558 419.845 49.7656 419.992C50.1 420.21 49.9313 420.745 50.1 421.014C49.4557 421.014 50.1 420.138 49.1458 420.138H48.7654V421.014H48.4985V421.01ZM48.7593 419.288V419.895H49.2133C49.4772 419.895 49.7625 419.895 49.7625 419.579C49.7625 419.288 49.5723 419.288 49.1888 419.288H48.7593ZM55.4384 419.041H56.9878V419.285H56.322V421.01H56.0827V419.285H55.4384V419.041ZM50.4283 421.01V419.041H51.812V419.285H50.6676V419.891H51.7169V420.135H50.6676V420.767H51.812V421.01H50.4283ZM54.1989 421.01V419.041H54.4382V420.767H55.4415V421.01H54.1989Z" fill="#0F00AA"/>
</g>
<circle cx="40" cy="233" r="38.5" fill="white" stroke="#B8D3EB" stroke-width="3"/>
<path d="M33.8223 243.408C33.701 243.473 33.6039 243.457 33.5068 243.36L30.801 240.121C30.7282 240.032 30.7201 239.983 30.8172 239.845C32.9082 236.769 37.1713 231.979 39.8933 229.956C39.9418 229.923 39.9257 229.883 39.869 229.907C37.0338 230.833 28.9809 234.315 26 236.006V247H54.9919V236.412C51.0403 237.086 39.2057 240.625 33.8223 243.408ZM45.6084 223.63C45.754 223.597 45.8187 223.646 45.9077 223.744C46.4092 224.304 48.0149 226.271 48.4517 226.807C48.5326 226.905 48.476 227.01 48.4113 227.067C45.1715 229.606 41.5678 233.202 39.5616 235.77C39.5212 235.827 39.5536 235.827 39.5859 235.819C43.0845 234.307 51.2992 231.89 55 231.215V226.506L40.5162 215L26.0081 226.498V231.646C30.5017 228.964 40.8964 224.808 45.6084 223.63Z" fill="#0F00AA"/>
<path d="M38.3772 91.914H44.1032V93.342H40.0292V95.736H43.7532V97.15H40.0292V101H38.3772V91.914ZM47.9316 97.024C48.473 97.024 49.0983 97.1127 49.8076 97.29V96.618C49.8076 96.142 49.7096 95.792 49.5136 95.568C49.327 95.3347 49.0143 95.218 48.5756 95.218C48.1463 95.218 47.815 95.3067 47.5816 95.484C47.3483 95.652 47.2316 95.8947 47.2316 96.212H45.4256C45.4256 95.4373 45.6963 94.8773 46.2376 94.532C46.7883 94.1867 47.5536 94.014 48.5336 94.014C49.9336 94.014 50.839 94.504 51.2496 95.484C51.3896 95.82 51.4596 96.2167 51.4596 96.674V101H50.0176L49.8916 100.09C49.453 100.827 48.781 101.196 47.8756 101.196C46.9983 101.196 46.317 100.981 45.8316 100.552C45.3836 100.141 45.1596 99.6233 45.1596 98.998C45.1596 98.3633 45.407 97.878 45.9016 97.542C46.3963 97.1967 47.073 97.024 47.9316 97.024ZM49.8076 98.34C49.257 98.1907 48.7436 98.116 48.2676 98.116C47.3716 98.116 46.9236 98.4147 46.9236 99.012C46.9236 99.264 47.0263 99.4833 47.2316 99.67C47.437 99.8473 47.7636 99.936 48.2116 99.936C48.669 99.936 49.0423 99.7867 49.3316 99.488C49.6303 99.18 49.789 98.7973 49.8076 98.34ZM56.4574 94.014C56.8868 94.014 57.2694 94.0887 57.6054 94.238C57.9508 94.378 58.2401 94.5647 58.4734 94.798C58.9401 95.246 59.2154 95.8107 59.2994 96.492L57.6334 96.534C57.5588 96.2353 57.4188 95.988 57.2134 95.792C57.0174 95.596 56.7888 95.498 56.5274 95.498C56.2661 95.498 56.0421 95.54 55.8554 95.624C55.6688 95.6987 55.5054 95.82 55.3654 95.988C55.0481 96.38 54.8894 96.9213 54.8894 97.612C54.8894 98.3027 55.0388 98.8253 55.3374 99.18C55.6361 99.5253 55.9954 99.698 56.4154 99.698C56.8448 99.698 57.1528 99.6 57.3394 99.404C57.5354 99.1987 57.6334 98.9233 57.6334 98.578H59.2994C59.2994 99.3247 59.0521 99.9453 58.5574 100.44C58.0534 100.944 57.3488 101.196 56.4434 101.196C55.5474 101.196 54.7961 100.869 54.1894 100.216C53.5454 99.516 53.2234 98.6433 53.2234 97.598C53.2234 96.4967 53.5454 95.6147 54.1894 94.952C54.7961 94.3267 55.5521 94.014 56.4574 94.014ZM66.0373 95.008C66.2706 95.3067 66.4433 95.652 66.5553 96.044C66.6766 96.436 66.7373 96.7953 66.7373 97.122C66.7373 97.4487 66.7186 97.7427 66.6813 98.004H62.2853C62.3039 98.5547 62.4393 99.0027 62.6913 99.348C62.9433 99.6933 63.3259 99.866 63.8393 99.866C64.5206 99.866 64.9266 99.5673 65.0573 98.97H66.7233C66.6113 99.6513 66.2986 100.188 65.7853 100.58C65.2533 100.991 64.6046 101.196 63.8393 101.196C62.9433 101.196 62.1919 100.869 61.5853 100.216C60.9599 99.5347 60.6473 98.662 60.6473 97.598C60.6473 96.506 60.9599 95.6287 61.5853 94.966C62.1826 94.3313 62.9339 94.014 63.8393 94.014C64.7819 94.014 65.5146 94.3453 66.0373 95.008ZM63.8533 95.33C63.3866 95.33 63.0226 95.484 62.7613 95.792C62.4999 96.0907 62.3459 96.478 62.2993 96.954H65.1973C65.1973 96.2167 64.9639 95.722 64.4973 95.47C64.3199 95.3767 64.1053 95.33 63.8533 95.33ZM74.4271 94.994C75.0058 95.6473 75.2951 96.506 75.2951 97.57C75.2951 98.634 74.9918 99.5113 74.3851 100.202C73.7971 100.865 73.0644 101.196 72.1871 101.196C71.7671 101.196 71.3798 101.084 71.0251 100.86C70.6798 100.636 70.4044 100.291 70.1991 99.824L69.7931 101H68.7151V91.396H70.3671V95.05C70.7964 94.3593 71.4358 94.014 72.2851 94.014C73.1438 94.014 73.8578 94.3407 74.4271 94.994ZM70.3671 97.178V98.074C70.3858 98.55 70.5584 98.942 70.8851 99.25C71.1931 99.5487 71.5664 99.698 72.0051 99.698C72.4531 99.698 72.8358 99.5067 73.1531 99.124C73.4704 98.732 73.6291 98.2187 73.6291 97.584C73.6291 96.9493 73.4704 96.4453 73.1531 96.072C72.8451 95.6893 72.4578 95.498 71.9911 95.498C71.5244 95.498 71.1371 95.652 70.8291 95.96C70.5211 96.268 70.3671 96.674 70.3671 97.178ZM79.9887 94.014C80.446 94.014 80.8754 94.0887 81.2767 94.238C81.678 94.378 82.0234 94.5973 82.3127 94.896C82.9567 95.5493 83.2787 96.4547 83.2787 97.612C83.2787 98.7507 82.9567 99.6467 82.3127 100.3C81.734 100.897 80.9594 101.196 79.9887 101.196C79.018 101.196 78.234 100.897 77.6367 100.3C76.9927 99.656 76.6707 98.76 76.6707 97.612C76.6707 96.4453 76.9927 95.54 77.6367 94.896C78.2247 94.308 79.0087 94.014 79.9887 94.014ZM81.6267 97.598C81.6267 96.8793 81.4867 96.3427 81.2067 95.988C80.9267 95.624 80.5347 95.442 80.0307 95.442C79.536 95.442 79.13 95.624 78.8127 95.988C78.4954 96.3427 78.3367 96.8793 78.3367 97.598C78.3367 98.3167 78.4767 98.858 78.7567 99.222C79.046 99.5767 79.438 99.754 79.9327 99.754C80.4274 99.754 80.8334 99.5767 81.1507 99.222C81.468 98.858 81.6267 98.3167 81.6267 97.598ZM87.9184 94.014C88.3757 94.014 88.805 94.0887 89.2064 94.238C89.6077 94.378 89.953 94.5973 90.2424 94.896C90.8864 95.5493 91.2084 96.4547 91.2084 97.612C91.2084 98.7507 90.8864 99.6467 90.2424 100.3C89.6637 100.897 88.889 101.196 87.9184 101.196C86.9477 101.196 86.1637 100.897 85.5664 100.3C84.9224 99.656 84.6004 98.76 84.6004 97.612C84.6004 96.4453 84.9224 95.54 85.5664 94.896C86.1544 94.308 86.9384 94.014 87.9184 94.014ZM89.5564 97.598C89.5564 96.8793 89.4164 96.3427 89.1364 95.988C88.8564 95.624 88.4644 95.442 87.9604 95.442C87.4657 95.442 87.0597 95.624 86.7424 95.988C86.425 96.3427 86.2664 96.8793 86.2664 97.598C86.2664 98.3167 86.4064 98.858 86.6864 99.222C86.9757 99.5767 87.3677 99.754 87.8624 99.754C88.357 99.754 88.763 99.5767 89.0804 99.222C89.3977 98.858 89.5564 98.3167 89.5564 97.598ZM95.5821 97.682L94.8261 98.312V101H93.1741V91.396H94.8261V96.59L97.5141 94.196H99.7541L96.7441 96.716L99.9221 101H97.9061L95.5821 97.682Z" fill="#0F00AA"/>
<path d="M21.3013 292.572L26.1033 286.44L21.3013 286.426V284.914H28.1753V286.328L23.3873 292.474L28.1753 292.488V294H21.3013V292.572ZM30.526 287.182H32.178V294H30.526V287.182ZM30.33 284.998C30.33 284.699 30.4187 284.466 30.596 284.298C30.7733 284.121 31.0253 284.032 31.352 284.032C31.6693 284.032 31.9167 284.121 32.094 284.298C32.2807 284.466 32.374 284.699 32.374 284.998C32.374 285.297 32.2807 285.535 32.094 285.712C31.9167 285.88 31.6693 285.964 31.352 285.964C31.0253 285.964 30.7733 285.88 30.596 285.712C30.4187 285.535 30.33 285.297 30.33 284.998ZM34.9797 284.396H36.6317V294H34.9797V284.396ZM39.2317 284.396H40.8837V294H39.2317V284.396ZM46.1576 287.014C46.615 287.014 47.0443 287.089 47.4456 287.238C47.847 287.378 48.1923 287.597 48.4816 287.896C49.1256 288.549 49.4476 289.455 49.4476 290.612C49.4476 291.751 49.1256 292.647 48.4816 293.3C47.903 293.897 47.1283 294.196 46.1576 294.196C45.187 294.196 44.403 293.897 43.8056 293.3C43.1616 292.656 42.8396 291.76 42.8396 290.612C42.8396 289.445 43.1616 288.54 43.8056 287.896C44.3936 287.308 45.1776 287.014 46.1576 287.014ZM47.7956 290.598C47.7956 289.879 47.6556 289.343 47.3756 288.988C47.0956 288.624 46.7036 288.442 46.1996 288.442C45.705 288.442 45.299 288.624 44.9816 288.988C44.6643 289.343 44.5056 289.879 44.5056 290.598C44.5056 291.317 44.6456 291.858 44.9256 292.222C45.215 292.577 45.607 292.754 46.1016 292.754C46.5963 292.754 47.0023 292.577 47.3196 292.222C47.637 291.858 47.7956 291.317 47.7956 290.598ZM52.0153 287.196L53.3873 292.054L54.6893 287.574H56.1873L57.4893 292.068L58.8753 287.196H60.5273L58.2873 294H56.6633L55.4033 289.926L54.1713 294H52.5333L50.2793 287.196H52.0153Z" fill="#0F00AA"/>
<path d="M40.4736 467.914H47.7536V469.342H44.9396V477H43.2876V469.342H40.4736V467.914ZM50.7948 471.302C51.2615 470.443 51.9428 470.014 52.8388 470.014C53.7348 470.014 54.3928 470.289 54.8128 470.84C55.2422 471.391 55.4568 472.119 55.4568 473.024V477H53.8048V473.024C53.8048 472.52 53.6835 472.142 53.4408 471.89C53.1982 471.629 52.8575 471.498 52.4188 471.498C51.9802 471.498 51.6022 471.694 51.2848 472.086C50.9768 472.478 50.8135 473.066 50.7948 473.85V477H49.1428V467.396H50.7948V471.302ZM62.6115 471.008C62.8448 471.307 63.0175 471.652 63.1295 472.044C63.2508 472.436 63.3115 472.795 63.3115 473.122C63.3115 473.449 63.2928 473.743 63.2555 474.004H58.8595C58.8781 474.555 59.0135 475.003 59.2655 475.348C59.5175 475.693 59.9001 475.866 60.4135 475.866C61.0948 475.866 61.5008 475.567 61.6315 474.97H63.2975C63.1855 475.651 62.8728 476.188 62.3595 476.58C61.8275 476.991 61.1788 477.196 60.4135 477.196C59.5175 477.196 58.7661 476.869 58.1595 476.216C57.5341 475.535 57.2215 474.662 57.2215 473.598C57.2215 472.506 57.5341 471.629 58.1595 470.966C58.7568 470.331 59.5081 470.014 60.4135 470.014C61.3561 470.014 62.0888 470.345 62.6115 471.008ZM60.4275 471.33C59.9608 471.33 59.5968 471.484 59.3355 471.792C59.0741 472.091 58.9201 472.478 58.8735 472.954H61.7715C61.7715 472.217 61.5381 471.722 61.0715 471.47C60.8941 471.377 60.6795 471.33 60.4275 471.33ZM71.1963 467.914L73.6883 473.318L76.1803 467.914H78.4623V477H76.7963V470.098L74.2203 476.006H73.1423L70.4823 469.902V477H68.8303V467.914H71.1963ZM82.7186 475.558H86.4566V477H81.0666V467.914H82.7186V475.558ZM92.7586 470.42C92.6093 469.627 92.0493 469.23 91.0786 469.23C90.6026 469.23 90.2293 469.328 89.9586 469.524C89.6973 469.711 89.5666 469.939 89.5666 470.21C89.5666 470.481 89.6506 470.695 89.8186 470.854C89.996 471.003 90.2666 471.143 90.6306 471.274L92.6046 472.044C93.2766 472.305 93.7946 472.637 94.1586 473.038C94.5226 473.43 94.7046 473.925 94.7046 474.522C94.7046 475.343 94.3966 475.997 93.7806 476.482C93.1646 476.958 92.2873 477.196 91.1486 477.196C90.1406 477.196 89.324 476.949 88.6986 476.454C87.9986 475.913 87.63 475.147 87.5926 474.158H89.2306C89.2306 474.905 89.618 475.376 90.3926 475.572C90.626 475.637 90.934 475.67 91.3166 475.67C91.6993 475.67 92.054 475.577 92.3806 475.39C92.7073 475.194 92.8706 474.937 92.8706 474.62C92.8706 474.293 92.782 474.046 92.6046 473.878C92.4273 473.701 92.138 473.537 91.7366 473.388L89.9306 472.674C89.2306 472.403 88.694 472.086 88.3206 471.722C87.9473 471.358 87.7606 470.854 87.7606 470.21C87.7606 469.454 88.0546 468.857 88.6426 468.418C89.24 467.961 90.0473 467.732 91.0646 467.732C92.0913 467.732 92.88 467.97 93.4306 468.446C93.9906 468.913 94.3126 469.571 94.3966 470.42H92.7586Z" fill="#0F00AA"/>
<circle cx="68" cy="40" r="38.5" fill="white" stroke="#B8D3EB" stroke-width="3"/>
<path d="M70.9743 57V40.9981H75.4119L76 35.4838H70.9743L70.9819 32.7238C70.9819 31.2856 71.1192 30.515 73.1944 30.515H75.9686V25H71.5304C66.1994 25 64.323 27.675 64.323 32.1736V35.4844H61V40.9988H64.323V57H70.9743Z" fill="#0F00AA"/>
<g clip-path="url(#clip2)">
<rect x="117.5" y="348.5" width="242" height="115" rx="10" transform="rotate(-90 117.5 348.5)" fill="white"/>
<path d="M218.532 101.5L131.465 101.5C121.542 101.5 113.5 109.587 113.5 119.556L113.5 335.444C113.5 345.417 121.542 353.5 131.465 353.5L218.532 353.5C228.454 353.5 236.496 345.417 236.496 335.444L236.496 119.559C236.5 109.587 228.454 101.5 218.532 101.5ZM187.905 108.681C188.62 108.681 189.201 109.265 189.201 109.983C189.201 110.701 188.62 111.285 187.905 111.285C187.19 111.285 186.609 110.701 186.609 109.983C186.609 109.265 187.19 108.681 187.905 108.681ZM168.673 108.681L182.232 108.681C182.947 108.681 183.528 109.265 183.528 109.983C183.528 110.701 182.947 111.285 182.232 111.285L168.673 111.285C167.958 111.285 167.377 110.701 167.377 109.983C167.377 109.265 167.958 108.681 168.673 108.681ZM229.574 335.391C229.574 340.933 225.106 345.424 219.592 345.424L130.405 345.424C124.891 345.424 120.423 340.933 120.423 335.391L120.423 118.006C120.423 112.464 124.891 107.973 130.405 107.973L144.954 107.973L144.954 108.341C144.954 112.772 148.528 116.367 152.94 116.367L197.056 116.367C201.465 116.367 205.042 112.775 205.042 108.341L205.042 107.973L219.592 107.973C225.106 107.973 229.574 112.464 229.574 118.006L229.574 335.391Z" fill="#B8D3EB"/>
</g>
<path d="M186.859 209.634C186.835 209.487 186.781 209.347 186.702 209.222C186.622 209.096 186.519 208.987 186.397 208.902C186.358 208.875 178.502 203.385 175.726 201.457C175.448 201.264 175.117 201.161 174.778 201.164C174.44 201.167 174.11 201.274 173.835 201.472C171.116 203.428 163.381 208.96 163.337 208.992C163.227 209.097 163.141 209.223 163.083 209.364C163.025 209.504 162.997 209.654 163 209.806V223.859C162.999 224 163.027 224.14 163.081 224.271C163.135 224.402 163.215 224.521 163.315 224.62C163.416 224.72 163.535 224.798 163.666 224.851C163.797 224.904 163.938 224.93 164.079 224.928H168.39L168.289 224.827C168.169 224.706 168.102 224.542 168.102 224.371C168.102 224.2 168.169 224.036 168.289 223.915L168.801 223.403L169.048 223.156L168.289 222.397C168.262 222.369 168.237 222.338 168.214 222.306C168.129 222.182 168.09 222.032 168.104 221.882C168.117 221.732 168.183 221.592 168.289 221.485L168.827 220.947L169.048 220.726L168.698 220.421C168.533 220.277 168.295 220.132 168.209 219.925C168.092 219.641 168.154 219.253 168.154 218.952V218.922C167.103 218.45 166.209 217.685 165.581 216.717C164.952 215.75 164.616 214.621 164.612 213.467C164.589 210.174 167.247 207.483 170.536 207.448C172.241 207.429 173.835 208.173 174.939 209.305C174.79 209.439 174.638 209.578 174.504 209.723C173.566 210.74 173.007 212.038 173.007 213.424C173.007 214.649 173.442 215.807 174.266 216.812C174.343 216.906 174.423 216.996 174.505 217.085C174.64 217.232 174.781 217.409 174.93 217.547C174.391 218.11 173.747 218.562 173.034 218.877C173.022 218.883 173.011 218.892 173.004 218.904C172.996 218.915 172.992 218.929 172.992 218.943V224.858C172.992 224.868 172.994 224.877 172.997 224.886C173.001 224.895 173.006 224.902 173.013 224.909C173.019 224.916 173.027 224.921 173.036 224.925C173.045 224.928 173.054 224.93 173.063 224.93H176.854C176.873 224.93 176.891 224.922 176.905 224.909C176.918 224.896 176.926 224.877 176.926 224.858V218.941C176.925 218.927 176.921 218.913 176.914 218.902C176.906 218.89 176.896 218.881 176.883 218.876C176.166 218.559 175.518 218.104 174.976 217.537C175.122 217.401 175.264 217.227 175.396 217.083C175.478 216.994 175.559 216.903 175.636 216.81C176.459 215.805 176.894 214.648 176.894 213.422C176.894 212.036 176.335 210.738 175.397 209.721C175.265 209.579 175.114 209.441 174.965 209.309C176.069 208.175 177.67 207.427 179.378 207.446C182.666 207.483 185.323 210.174 185.302 213.467C185.298 214.621 184.962 215.748 184.334 216.716C183.706 217.683 182.814 218.448 181.763 218.92V218.93C181.763 219.183 181.785 219.445 181.735 219.698C181.713 219.823 181.664 219.941 181.593 220.046C181.507 220.168 181.382 220.26 181.274 220.36C181.139 220.483 181.002 220.606 180.864 220.727L181.206 221.069L181.623 221.486C181.728 221.592 181.794 221.732 181.808 221.881C181.822 222.03 181.784 222.18 181.7 222.304C181.677 222.337 181.651 222.369 181.623 222.398L180.864 223.157L181.201 223.495L181.623 223.917C181.628 223.922 181.632 223.928 181.637 223.933C181.66 223.957 181.68 223.983 181.699 224.01C181.772 224.117 181.81 224.243 181.81 224.372C181.81 224.501 181.772 224.627 181.699 224.734C181.676 224.768 181.65 224.8 181.622 224.829L181.521 224.93H185.801C186.091 224.93 186.363 224.854 186.565 224.639C186.764 224.428 186.874 224.15 186.872 223.861V209.806C186.872 209.748 186.868 209.691 186.859 209.634" fill="#1600FF"/>
<path d="M148.993 245.217C148.971 245.195 148.944 245.177 148.915 245.165C148.886 245.153 148.855 245.147 148.824 245.148C148.792 245.148 148.761 245.154 148.733 245.167C148.704 245.179 148.678 245.197 148.656 245.22C147.414 246.507 145.872 247.132 143.942 247.132C142.074 247.132 140.362 246.462 139.12 245.245C137.878 244.028 137.194 242.349 137.194 240.517C137.194 238.685 137.878 237.007 139.12 235.79C140.362 234.572 142.074 233.902 143.942 233.902C145.867 233.902 147.409 234.52 148.657 235.792C148.679 235.814 148.705 235.832 148.734 235.844C148.763 235.856 148.794 235.862 148.825 235.862C148.856 235.862 148.887 235.856 148.916 235.844C148.945 235.832 148.971 235.814 148.993 235.792L150.102 234.681C150.145 234.638 150.169 234.581 150.17 234.52C150.172 234.459 150.15 234.4 150.109 234.355C148.649 232.752 146.442 231.868 143.895 231.868C141.425 231.868 139.166 232.74 137.534 234.325C135.903 235.91 135 238.11 135 240.515C135 242.92 135.897 245.119 137.531 246.705C139.166 248.291 141.411 249.162 143.871 249.162C146.419 249.162 148.637 248.27 150.109 246.652C150.15 246.607 150.172 246.548 150.17 246.487C150.169 246.426 150.145 246.369 150.102 246.326L148.993 245.217Z" fill="#1600FF"/>
<path d="M169.694 232.154H167.972C167.91 232.154 167.849 232.179 167.805 232.223C167.761 232.268 167.736 232.328 167.736 232.391V239.525H157.874V232.391C157.874 232.328 157.849 232.268 157.805 232.223C157.761 232.179 157.701 232.154 157.638 232.154H155.892C155.83 232.154 155.77 232.179 155.725 232.223C155.681 232.268 155.656 232.328 155.656 232.391V248.928C155.656 248.991 155.681 249.051 155.725 249.095C155.77 249.14 155.83 249.165 155.892 249.165H157.638C157.701 249.165 157.761 249.14 157.805 249.095C157.849 249.051 157.874 248.991 157.874 248.928V241.534H167.736V248.928C167.736 248.991 167.761 249.051 167.805 249.095C167.849 249.14 167.91 249.165 167.972 249.165H169.694C169.757 249.165 169.817 249.14 169.861 249.095C169.905 249.051 169.93 248.991 169.93 248.928V232.391C169.93 232.328 169.905 232.268 169.861 232.223C169.817 232.179 169.757 232.154 169.694 232.154Z" fill="#1600FF"/>
<path d="M188.842 247.18H179.146V241.51H187.45C187.513 241.51 187.573 241.485 187.617 241.441C187.662 241.397 187.686 241.336 187.686 241.274V239.785C187.686 239.723 187.662 239.663 187.617 239.618C187.573 239.574 187.513 239.549 187.45 239.549H179.146V234.139H188.489C188.551 234.139 188.611 234.114 188.655 234.07C188.7 234.025 188.725 233.965 188.725 233.903V232.391C188.725 232.328 188.7 232.268 188.655 232.223C188.611 232.179 188.551 232.154 188.489 232.154H177.164C177.101 232.154 177.041 232.179 176.997 232.223C176.953 232.268 176.928 232.328 176.928 232.391V248.928C176.928 248.991 176.953 249.051 176.997 249.095C177.041 249.14 177.101 249.165 177.164 249.165H188.842C188.905 249.165 188.965 249.14 189.009 249.095C189.054 249.051 189.078 248.991 189.078 248.928V247.416C189.078 247.385 189.072 247.354 189.06 247.326C189.048 247.297 189.031 247.271 189.009 247.249C188.987 247.227 188.961 247.21 188.932 247.198C188.903 247.186 188.873 247.18 188.842 247.18Z" fill="#1600FF"/>
<path d="M209.997 248.79L206.146 243.378C208.494 242.504 209.781 240.627 209.781 238.061C209.781 236.252 209.13 234.749 207.898 233.714C206.68 232.692 204.917 232.154 202.798 232.154H196.616C196.554 232.154 196.494 232.179 196.449 232.223C196.405 232.268 196.38 232.328 196.38 232.391V248.928C196.38 248.991 196.405 249.051 196.449 249.095C196.494 249.14 196.554 249.165 196.616 249.165H198.362C198.425 249.165 198.485 249.14 198.529 249.095C198.573 249.051 198.598 248.991 198.598 248.928V243.92H202.798C203.202 243.921 203.605 243.902 204.007 243.862L207.702 249.065C207.724 249.096 207.753 249.121 207.786 249.138C207.819 249.156 207.856 249.165 207.894 249.165H209.805C209.848 249.165 209.891 249.153 209.928 249.13C209.965 249.108 209.995 249.075 210.015 249.037C210.035 248.998 210.043 248.955 210.04 248.912C210.037 248.868 210.022 248.827 209.997 248.791V248.79ZM207.564 238.059C207.564 240.573 205.855 241.957 202.751 241.957H198.598V234.139H202.751C204.327 234.139 205.542 234.486 206.363 235.171C207.16 235.836 207.564 236.809 207.564 238.061V238.059Z" fill="#1600FF"/>
<path d="M214.192 233.273C214.195 233.225 214.187 233.178 214.168 233.134C214.15 233.09 214.122 233.051 214.087 233.02C214.015 232.96 213.909 232.93 213.771 232.93H213.408V233.613H213.771C214.042 233.613 214.192 233.492 214.192 233.273Z" fill="#1600FF"/>
<path d="M213.811 232.309C213.576 232.309 213.346 232.378 213.15 232.509C212.955 232.64 212.802 232.826 212.712 233.044C212.622 233.261 212.599 233.501 212.645 233.732C212.691 233.963 212.804 234.175 212.97 234.341C213.136 234.508 213.348 234.621 213.579 234.667C213.81 234.713 214.049 234.69 214.266 234.599C214.483 234.509 214.669 234.357 214.8 234.161C214.93 233.965 215 233.735 215 233.499C215 233.184 214.875 232.881 214.652 232.657C214.429 232.434 214.126 232.309 213.811 232.309ZM214.406 234.232C214.404 234.235 214.402 234.238 214.398 234.24C214.395 234.242 214.391 234.243 214.388 234.243H214.221C214.217 234.243 214.214 234.242 214.211 234.241C214.208 234.239 214.205 234.237 214.204 234.234L213.881 233.78C213.846 233.783 213.812 233.784 213.775 233.784H213.408V234.222C213.408 234.225 213.407 234.228 213.406 234.23C213.405 234.233 213.404 234.235 213.402 234.237C213.4 234.239 213.398 234.24 213.395 234.241C213.393 234.243 213.39 234.243 213.387 234.243H213.235C213.229 234.243 213.224 234.241 213.22 234.237C213.216 234.233 213.214 234.228 213.214 234.222V232.777C213.214 232.771 213.216 232.766 213.22 232.762C213.224 232.758 213.229 232.756 213.235 232.756H213.775C213.96 232.756 214.114 232.803 214.221 232.893C214.275 232.939 214.318 232.998 214.346 233.063C214.374 233.128 214.388 233.199 214.385 233.271C214.39 233.372 214.362 233.473 214.305 233.557C214.247 233.64 214.164 233.703 214.068 233.735L214.404 234.208C214.407 234.211 214.409 234.215 214.409 234.219C214.409 234.224 214.408 234.228 214.406 234.232Z" fill="#1600FF"/>
<defs>
<clipPath id="clip0">
<rect width="41" height="40" fill="white" transform="translate(261 20)"/>
</clipPath>
<clipPath id="clip1">
<rect width="57.4" height="28" fill="white" transform="translate(40 402)"/>
</clipPath>
<clipPath id="clip2">
<rect width="252" height="123" fill="white" transform="translate(113.5 353.5) rotate(-90)"/>
</clipPath>
</defs>
</svg>
