<svg width="12" height="12" viewBox="0 0 12 12" fill="none" xmlns="http://www.w3.org/2000/svg">
<path fill-rule="evenodd" clip-rule="evenodd" d="M0.5 6C0.5 9.03757 2.96243 11.5 6 11.5C9.03757 11.5 11.5 9.03757 11.5 6C11.5 2.96243 9.03757 0.5 6 0.5C2.96243 0.5 0.5 2.96243 0.5 6ZM10.5 6C10.5 8.48529 8.48525 10.5 5.99997 10.5C3.51469 10.5 1.49997 8.48529 1.49997 6C1.49997 3.51472 3.51469 1.5 5.99997 1.5C8.48525 1.5 10.5 3.51472 10.5 6ZM6.5018 6.99918H7.00147V7.99918H5.00148V6.99918H5.50148V5.99918H5.00148V4.99918H6.5018V6.99918ZM6.50036 3.99918C6.50036 4.27532 6.27643 4.49918 6.00019 4.49918C5.72396 4.49918 5.50003 4.27532 5.50003 3.99918C5.50003 3.72303 5.72396 3.49918 6.00019 3.49918C6.27643 3.49918 6.50036 3.72303 6.50036 3.99918Z" fill="#1600FF"/>
</svg>
