<svg width="17" height="16" viewBox="0 0 17 16" fill="none" xmlns="http://www.w3.org/2000/svg">
<path fill-rule="evenodd" clip-rule="evenodd" d="M0.255389 1.48648C-0.0851297 1.14596 -0.0851297 0.595895 0.255389 0.255376C0.418516 0.0918815 0.639985 0 0.870942 0C1.1019 0 1.32337 0.0918815 1.4865 0.255376L15.7359 14.5135C16.0764 14.854 16.0764 15.4041 15.7359 15.7446C15.3954 16.0851 14.8453 16.0851 14.5048 15.7446L12.3394 13.5793C12.1997 13.6666 12.0426 13.7364 11.8592 13.7364H1.38172C0.901501 13.7364 0.508595 13.3435 0.508595 12.8633V4.13205C0.508595 3.65183 0.901501 3.25893 1.38172 3.25893H2.0191L0.255389 1.48648ZM16.225 5.79966V10.4185C16.225 11.1956 15.282 11.5885 14.7407 11.0384L6.96112 3.25887H11.8594C12.3396 3.25887 12.7325 3.65178 12.7325 4.132V7.18793L14.7319 5.17974C15.282 4.62968 16.225 5.02258 16.225 5.79966Z" fill="#FE5F55"/>
</svg>
