<svg width="143" height="120" viewBox="0 0 143 120" fill="none" xmlns="http://www.w3.org/2000/svg">
<path d="M41.5161 110.769H101.484V117.692H41.5161V110.769Z" fill="#DBE1FE"/>
<path d="M2.30664 93.4616C2.30664 96.6462 4.88698 99.2309 8.06989 99.2309H8.07277H134.928C138.111 99.2309 140.694 96.6491 140.694 93.4645V93.4616V87.6924H2.30664V93.4616Z" fill="#DBE1FE"/>
<path d="M134.927 0H8.07258C3.61536 0.00576923 0.00576613 3.61731 0 8.07692V93.4615C0.00576613 97.9212 3.61536 101.533 8.07258 101.538H54.8474L53.4635 108.462H41.5161C40.2418 108.462 39.2097 109.494 39.2097 110.769V117.692C39.2097 118.967 40.2418 120 41.5161 120H101.484C102.758 120 103.79 118.967 103.79 117.692V110.769C103.79 109.494 102.758 108.462 101.484 108.462H89.5364L88.1526 101.538H134.927C139.385 101.533 142.994 97.9212 143 93.4615V8.07692C142.994 3.61731 139.385 0.00576923 134.927 0ZM99.1774 113.077V115.385H43.8226V113.077H99.1774ZM58.1687 108.462L59.5526 101.538H83.4474L84.8313 108.462H58.1687ZM138.387 93.4615C138.384 95.374 136.839 96.9202 134.927 96.9231H8.07258C6.16111 96.9202 4.61579 95.374 4.6129 93.4615V90H138.387V93.4615ZM138.387 85.3846H4.6129V8.07692C4.61579 6.16442 6.16111 4.61827 8.07258 4.61538H134.927C136.839 4.61827 138.384 6.16442 138.387 8.07692V85.3846Z" fill="#1600FF"/>
<path d="M81.5392 19.298C81.6344 19.2518 81.7295 19.2057 81.8247 19.1566L81.5162 19.2172C81.0607 17.3682 80.1208 15.672 78.7975 14.3047C76.8946 12.3028 74.2595 11.1633 71.4975 11.1489C65.7948 11.1518 61.1733 15.7758 61.1704 21.4816V23.2903C61.1733 23.2903 69.3093 25.3239 81.5392 19.298Z" fill="#DBE1FE"/>
<path d="M52.9126 54.5451H90.0868C90.0868 48.8393 85.4624 44.2124 79.7597 44.2124H75.6283C75.6283 46.4941 73.7802 48.3461 71.4968 48.3461C69.2135 48.3461 67.3654 46.497 67.3654 44.2124H63.234C57.537 44.2124 52.9126 48.8364 52.9126 54.5451Z" fill="#DBE1FE"/>
<path d="M55.2395 52.4768C56.1852 48.8306 59.4748 46.2835 63.24 46.2777H65.6618C66.8035 49.5056 70.3439 51.196 73.5701 50.0537C75.3316 49.4306 76.7184 48.0431 77.344 46.2777H79.7658C83.531 46.2835 86.8177 48.8306 87.7663 52.4768H55.2395ZM63.24 25.6354C63.7244 25.6672 64.2693 25.6873 64.8776 25.6873C68.2191 25.6873 73.3827 25.0816 79.76 22.3845V29.7489C79.76 34.3123 76.061 38.0133 71.5 38.0133C66.939 38.0133 63.24 34.3123 63.24 29.7489V25.6354ZM63.24 21.4902V21.4816C63.2458 16.9181 66.9419 13.22 71.5 13.2172C74.7665 13.2172 77.6611 15.2941 78.9902 18.2104C73.867 20.4922 69.6635 21.2537 66.9304 21.47C65.7022 21.5739 64.4682 21.5797 63.24 21.4902ZM71.5 42.1441C72.192 42.1441 72.8839 42.0835 73.5643 41.9681V44.2095C73.5643 45.3518 72.6388 46.2748 71.5 46.2748C70.3612 46.2748 69.4357 45.3489 69.4357 44.2095V41.9681C70.1161 42.0864 70.8081 42.1441 71.5 42.1441ZM50.8486 54.545C50.8486 55.6873 51.7741 56.6104 52.9129 56.6104H90.0871C91.2288 56.6104 92.1514 55.6845 92.1514 54.545C92.0217 52.096 89.2799 46.8806 88.02 45.3143C85.751 43.2748 82.8103 42.1441 79.76 42.147H77.6957V40.4797C81.5273 38.2643 83.8885 34.1768 83.8914 29.7489V21.4816C83.8914 21.421 83.8885 21.3633 83.8828 21.3056C83.7732 18.1441 82.4931 15.1354 80.2847 12.8681C77.9956 10.4566 74.8213 9.08927 71.4971 9.0835C64.6556 9.09215 59.1144 14.6364 59.1057 21.4816V29.746C59.1086 34.1739 61.4698 38.2614 65.3014 40.4768V42.1441H63.2372C60.1869 42.1412 57.2433 43.2691 54.9772 45.3114C53.0917 46.9643 51.2465 51.2854 50.8486 54.545Z" fill="#1600FF"/>
<path d="M129.576 67.9499C129.628 67.9239 129.683 67.898 129.735 67.8691L129.562 67.9037C129.308 66.871 128.783 65.9249 128.042 65.1605C126.979 64.0412 125.508 63.4066 123.966 63.3979C120.783 63.3979 118.2 65.9826 118.2 69.1672V70.1768C118.205 70.1768 122.746 71.3133 129.576 67.9499Z" fill="#DBE1FE"/>
<path d="M113.593 87.6291H134.351C134.351 84.4416 131.771 81.8599 128.585 81.8599H126.279C126.279 83.1349 125.247 84.1676 123.972 84.1676C122.698 84.1676 121.666 83.1349 121.666 81.8599H119.359C116.174 81.8599 113.593 84.4445 113.593 87.6291Z" fill="#DBE1FE"/>
<path d="M113.593 88.7827H134.351C134.988 88.7827 135.504 88.2664 135.504 87.6289V59.9366C135.504 59.2991 134.988 58.7827 134.351 58.7827H113.593C112.956 58.7827 112.439 59.2991 112.439 59.9366V87.6289C112.439 88.2664 112.956 88.7827 113.593 88.7827ZM114.893 86.475C115.421 84.4385 117.257 83.0164 119.359 83.0135H120.711C121.348 84.8164 123.326 85.7596 125.128 85.1221C126.111 84.7731 126.887 84 127.235 83.0135H128.585C130.686 83.0164 132.523 84.4385 133.05 86.475H114.893ZM119.359 71.4866C119.63 71.5039 119.933 71.5154 120.273 71.5154C122.138 71.5154 125.021 71.1779 128.585 69.6721V73.7827C128.585 76.3327 126.52 78.3981 123.972 78.3981C121.423 78.3981 119.359 76.3327 119.359 73.7827V71.4866ZM119.359 69.1731V69.1673C119.362 66.6202 121.426 64.5548 123.972 64.5519C125.797 64.5519 127.411 65.7116 128.155 67.3414C125.295 68.6164 122.948 69.0404 121.42 69.1616C120.734 69.2193 120.045 69.2221 119.359 69.1731ZM123.972 80.7058C124.358 80.7058 124.744 80.6712 125.125 80.6077V81.8596C125.125 82.4971 124.609 83.0135 123.972 83.0135C123.335 83.0135 122.818 82.4971 122.818 81.8596V80.6077C123.199 80.6741 123.585 80.7058 123.972 80.7058ZM133.198 61.0904V82.4741C131.932 81.3346 130.289 80.7058 128.585 80.7058H127.431V79.7741C129.571 78.5366 130.888 76.2548 130.891 73.7827V69.1673C130.891 69.1356 130.888 69.101 130.888 69.0693C130.828 67.3039 130.113 65.6221 128.879 64.3587C127.601 63.0116 125.828 62.25 123.972 62.2443C120.152 62.2471 117.055 65.3452 117.052 69.1673V73.7827C117.055 76.2548 118.373 78.5394 120.512 79.7741V80.7058H119.359C117.655 80.7058 116.012 81.3346 114.746 82.4741V61.0904H133.198Z" fill="#1600FF"/>
<path d="M27.0866 67.9499C27.1385 67.9239 27.1933 67.898 27.2481 67.8691L27.0751 67.9037C26.8214 66.871 26.2967 65.9249 25.5586 65.1605C24.4948 64.0412 23.0244 63.4066 21.482 63.3979C18.299 63.3979 15.7158 65.9826 15.7158 69.1672V70.1768C15.7158 70.1768 20.2567 71.3133 27.0866 67.9499Z" fill="#DBE1FE"/>
<path d="M11.1035 87.6291H31.8616C31.8616 84.4416 29.2812 81.8599 26.0955 81.8599H23.789C23.789 83.1349 22.7569 84.1676 21.4826 84.1676C20.2082 84.1676 19.1761 83.1349 19.1761 81.8599H16.8696C13.6839 81.8599 11.1035 84.4445 11.1035 87.6291Z" fill="#DBE1FE"/>
<path d="M11.1029 88.7827H31.861C32.4982 88.7827 33.0142 88.2664 33.0142 87.6289V59.9366C33.0142 59.2991 32.4982 58.7827 31.861 58.7827H11.1029C10.4658 58.7827 9.94971 59.2991 9.94971 59.9366V87.6289C9.94971 88.2664 10.4658 88.7827 11.1029 88.7827ZM12.4003 86.475C12.9279 84.4385 14.7644 83.0164 16.8662 83.0135H18.2183C18.8555 84.8164 20.8333 85.7596 22.6352 85.1221C23.6183 84.7731 24.3939 84 24.7427 83.0135H26.0949C28.1966 83.0164 30.0331 84.4385 30.5607 86.475H12.4003ZM16.8691 71.4866C17.1401 71.5039 17.4428 71.5154 17.783 71.5154C19.6483 71.5154 22.5314 71.1779 26.0949 69.6721V73.7827C26.0949 76.3327 24.0306 78.3981 21.482 78.3981C18.9333 78.3981 16.8691 76.3327 16.8691 73.7827V71.4866ZM16.8691 69.1731V69.1673C16.8719 66.6202 18.9362 64.5548 21.482 64.5519C23.3069 64.5519 24.9215 65.7116 25.6624 67.3414C22.8024 68.6164 20.4556 69.0404 18.9276 69.1616C18.2443 69.2193 17.5552 69.2221 16.8691 69.1731ZM21.482 80.7058C21.8683 80.7058 22.2546 80.6712 22.6352 80.6077V81.8596C22.6352 82.4971 22.1191 83.0135 21.482 83.0135C20.8448 83.0135 20.3287 82.4971 20.3287 81.8596V80.6077C20.7093 80.6741 21.0956 80.7058 21.482 80.7058ZM30.7078 61.0904V82.4741C29.4421 81.3346 27.7988 80.7058 26.0949 80.7058H24.9416V79.7741C27.0809 78.5366 28.3984 76.2548 28.4013 73.7827V69.1673C28.4013 69.1356 28.4013 69.101 28.3984 69.0693C28.3379 67.3039 27.6229 65.6221 26.3889 64.3587C25.1117 63.0116 23.3387 62.25 21.482 62.2443C17.6619 62.2471 14.5655 65.3452 14.5626 69.1673V73.7827C14.5655 76.2548 15.8831 78.5394 18.0223 79.7741V80.7058H16.8691C15.1652 80.7058 13.5218 81.3346 12.2562 82.4741V61.0904H30.7078Z" fill="#1600FF"/>
<path d="M61.2506 67.9499C61.3025 67.9239 61.3573 67.898 61.4092 67.8691L61.2362 67.9037C60.9825 66.871 60.4578 65.9249 59.7197 65.1605C58.6559 64.0412 57.1855 63.4066 55.6431 63.3979C52.4602 63.3979 49.877 65.9826 49.877 69.1672V70.1768C49.877 70.1768 54.4207 71.3133 61.2506 67.9499Z" fill="#DBE1FE"/>
<path d="M45.2646 87.6291H66.0227C66.0227 84.4416 63.4424 81.8599 60.2566 81.8599H57.9501C57.9501 83.1349 56.918 84.1676 55.6437 84.1676C54.3694 84.1676 53.3372 83.1349 53.3372 81.8599H51.0308C47.8479 81.8599 45.2646 84.4445 45.2646 87.6291Z" fill="#DBE1FE"/>
<path d="M45.2641 88.7827H66.0221C66.6593 88.7827 67.1754 88.2664 67.1754 87.6289V59.9366C67.1754 59.2991 66.6593 58.7827 66.0221 58.7827H45.2641C44.6269 58.7827 44.1108 59.2991 44.1108 59.9366V87.6289C44.1108 88.2664 44.6269 88.7827 45.2641 88.7827ZM46.5643 86.475C47.0919 84.4385 48.9284 83.0164 51.0302 83.0135H52.3824C53.0195 84.8164 54.9973 85.7596 56.7992 85.1221C57.7823 84.7731 58.5579 84 58.9067 83.0135H60.256C62.3578 83.0164 64.1943 84.4385 64.7219 86.475H46.5643ZM51.0302 71.4866C51.3012 71.5039 51.6039 71.5154 51.9441 71.5154C53.8095 71.5154 56.6925 71.1779 60.256 69.6721V73.7827C60.256 76.3327 58.1917 78.3981 55.6431 78.3981C53.0945 78.3981 51.0302 76.3327 51.0302 73.7827V71.4866ZM51.0302 69.1731V69.1673C51.0331 66.6202 53.0974 64.5548 55.6431 64.5519C57.4681 64.5519 59.0826 65.7116 59.8264 67.3414C56.9664 68.6164 54.6196 69.0404 53.0916 69.1616C52.4054 69.2193 51.7164 69.2221 51.0302 69.1731ZM55.6431 80.7058C56.0294 80.7058 56.4158 80.6712 56.7963 80.6077V81.8596C56.7963 82.4971 56.2803 83.0135 55.6431 83.0135C55.0059 83.0135 54.4899 82.4971 54.4899 81.8596V80.6077C54.8733 80.6741 55.2568 80.7058 55.6431 80.7058ZM64.8689 61.0904V82.4741C63.6032 81.3346 61.9599 80.7058 60.256 80.7058H59.1028V79.7741C61.242 78.5366 62.5596 76.2548 62.5624 73.7827V69.1673C62.5624 69.1356 62.5625 69.101 62.5596 69.0693C62.499 67.3039 61.784 65.6221 60.5501 64.3587C59.2729 63.0116 57.4998 62.25 55.6431 62.2443C51.823 62.2471 48.7266 65.3452 48.7237 69.1673V73.7827C48.7266 76.2548 50.0442 78.5394 52.1834 79.7741V80.7058H51.0302C49.3263 80.7058 47.683 81.3346 46.4173 82.4741V61.0904H64.8689Z" fill="#1600FF"/>
<path d="M95.4152 67.9499C95.4671 67.9239 95.5219 67.898 95.5737 67.8691L95.4008 67.9037C95.1471 66.871 94.6223 65.9249 93.8843 65.1605C92.8204 64.0412 91.3501 63.4066 89.8076 63.3979C86.6247 63.3979 84.0415 65.9826 84.0415 69.1672V70.1768C84.0415 70.1768 88.5852 71.3133 95.4152 67.9499Z" fill="#DBE1FE"/>
<path d="M79.4292 87.6291H100.187C100.187 84.4416 97.6069 81.8599 94.4211 81.8599H92.1147C92.1147 83.1349 91.0825 84.1676 89.8082 84.1676C88.5339 84.1676 87.5018 83.1349 87.5018 81.8599H85.1953C82.0124 81.8599 79.4292 84.4445 79.4292 87.6291Z" fill="#DBE1FE"/>
<path d="M79.4286 88.7827H100.187C100.824 88.7827 101.34 88.2664 101.34 87.6289V59.9366C101.34 59.2991 100.824 58.7827 100.187 58.7827H79.4286C78.7915 58.7827 78.2754 59.2991 78.2754 59.9366V87.6289C78.2754 88.2664 78.7915 88.7827 79.4286 88.7827ZM80.7289 86.475C81.2565 84.4385 83.093 83.0164 85.1947 83.0135H86.5469C87.1841 84.8164 89.1618 85.7596 90.9638 85.1221C91.9469 84.7731 92.7224 84 93.0713 83.0135H94.4234C96.5252 83.0164 98.3617 84.4385 98.8893 86.475H80.7289ZM85.1947 71.4866C85.4657 71.5039 85.7685 71.5154 86.1087 71.5154C87.974 71.5154 90.8571 71.1779 94.4205 69.6721V73.7827C94.4205 76.3327 92.3563 78.3981 89.8076 78.3981C87.259 78.3981 85.1947 76.3327 85.1947 73.7827V71.4866ZM85.1947 69.1731V69.1673C85.1976 66.6202 87.2619 64.5548 89.8076 64.5519C91.6326 64.5519 93.2471 65.7116 93.991 67.3414C91.131 68.6164 88.7842 69.0404 87.2561 69.1616C86.57 69.2193 85.8809 69.2221 85.1947 69.1731ZM89.8076 80.7058C90.194 80.7058 90.5803 80.6712 90.9609 80.6077V81.8596C90.9609 82.4971 90.4448 83.0135 89.8076 83.0135C89.1705 83.0135 88.6544 82.4971 88.6544 81.8596V80.6077C89.035 80.6741 89.4213 80.7058 89.8076 80.7058ZM99.0334 61.0904V82.4741C97.7678 81.3346 96.1244 80.7058 94.4205 80.7058H93.2673V79.7741C95.4065 78.5366 96.7241 76.2548 96.727 73.7827V69.1673C96.727 69.1356 96.7241 69.101 96.7241 69.0693C96.6636 67.3039 95.9486 65.6221 94.7146 64.3587C93.4374 63.0116 91.6643 62.25 89.8076 62.2443C85.9876 62.2471 82.8912 65.3452 82.8883 69.1673V73.7827C82.8912 76.2548 84.2087 78.5394 86.348 79.7741V80.7058H85.1947C83.4909 80.7058 81.8475 81.3346 80.5818 82.4741V61.0904H99.0334Z" fill="#1600FF"/>
</svg>
