<svg width="15" height="16" viewBox="0 0 15 16" fill="none" xmlns="http://www.w3.org/2000/svg">
<path fill-rule="evenodd" clip-rule="evenodd" d="M7.20028 16C7.64028 16 8.00028 15.64 8.00028 15.2V0.8C8.00028 0.36 7.64028 0 7.20028 0C6.76028 0 6.40028 0.36 6.40028 0.8V15.2C6.40028 15.64 6.76028 16 7.20028 16ZM3.99945 12.8001C4.43945 12.8001 4.79945 12.4401 4.79945 12.0001V4.00014C4.79945 3.56014 4.43945 3.20014 3.99945 3.20014C3.55945 3.20014 3.19945 3.56014 3.19945 4.00014V12.0001C3.19945 12.4401 3.55945 12.8001 3.99945 12.8001ZM1.6 8.80028C1.6 9.24028 1.24 9.60028 0.8 9.60028C0.36 9.60028 0 9.24028 0 8.80028V7.20028C0 6.76028 0.36 6.40028 0.8 6.40028C1.24 6.40028 1.6 6.76028 1.6 7.20028V8.80028ZM10.3997 12.8001C10.8397 12.8001 11.1997 12.4401 11.1997 12.0001V4.00014C11.1997 3.56014 10.8397 3.20014 10.3997 3.20014C9.95972 3.20014 9.59972 3.56014 9.59972 4.00014V12.0001C9.59972 12.4401 9.95972 12.8001 10.3997 12.8001ZM12.8006 8.80028V7.20028C12.8006 6.76028 13.1606 6.40028 13.6006 6.40028C14.0406 6.40028 14.4006 6.76028 14.4006 7.20028V8.80028C14.4006 9.24028 14.0406 9.60028 13.6006 9.60028C13.1606 9.60028 12.8006 9.24028 12.8006 8.80028Z" fill="#97CB5C"/>
</svg>
