<svg width="34" height="34" viewBox="0 0 34 34" fill="none" xmlns="http://www.w3.org/2000/svg">
<path fill-rule="evenodd" clip-rule="evenodd" d="M10.3333 6.99992H7V5.33325H3.6665V10.3333H30.3332V5.33325H26.9998V6.99992H23.6665V5.33325H10.3333V6.99992ZM30.3332 13.6666H3.6665V30.3332H30.3332V13.6666ZM23.6665 2H10.3333V0.333252H7V2H3.66659C1.82564 2 0.333252 3.49238 0.333252 5.33333V30.3333C0.333252 32.1743 1.82564 33.6667 3.66659 33.6667H30.3333C32.1742 33.6667 33.6666 32.1743 33.6666 30.3333V5.33333C33.6666 3.49238 32.1742 2 30.3333 2H26.9998V0.333252H23.6665V2ZM11.9998 20.3333H8.6665V17H11.9998V20.3333ZM15.3333 20.3333H18.6666V17H15.3333V20.3333ZM25.3333 20.3333H22V17H25.3333V20.3333ZM8.6665 26.9998H11.9998V23.6665H8.6665V26.9998ZM18.6666 26.9998H15.3333V23.6665H18.6666V26.9998Z" fill="#333333"/>
</svg>
