<svg width="34" height="34" viewBox="0 0 34 34" fill="none" xmlns="http://www.w3.org/2000/svg">
<path fill-rule="evenodd" clip-rule="evenodd" d="M10.3331 6.99992H6.99976V5.33325H3.66626V10.3333H30.3329V5.33325H26.9996V6.99992H23.6663V5.33325H10.3331V6.99992ZM30.3329 13.6666H3.66626V30.3332H30.3329V13.6666ZM23.6663 2H10.3331V0.333252H6.99976V2H3.66634C1.82539 2 0.333008 3.49238 0.333008 5.33333V30.3333C0.333008 32.1743 1.82539 33.6667 3.66634 33.6667H30.333C32.174 33.6667 33.6663 32.1743 33.6663 30.3333V5.33333C33.6663 3.49238 32.174 2 30.333 2H26.9996V0.333252H23.6663V2ZM11.9996 20.3333H8.66626V17H11.9996V20.3333ZM15.333 20.3333H18.6663V17H15.333V20.3333ZM25.3331 20.3333H21.9998V17H25.3331V20.3333ZM8.66626 26.9998H11.9996V23.6665H8.66626V26.9998ZM18.6663 26.9998H15.333V23.6665H18.6663V26.9998Z" fill="#1600FF"/>
</svg>
