<svg width="35" height="35" viewBox="0 0 35 35" fill="none" xmlns="http://www.w3.org/2000/svg">
<path fill-rule="evenodd" clip-rule="evenodd" d="M30.4839 4.51613C30.4839 3.27081 31.4966 2.25806 32.7419 2.25806C33.9873 2.25806 35 3.27081 35 4.51613V16.0865C35 17.1788 34.2204 18.1125 33.1461 18.3084L29.2538 19.0157C28.9856 19.0648 28.7903 19.2985 28.7903 19.5712V27.7335L29.684 29.82C29.8403 30.1841 29.9194 30.5691 29.9194 30.9648C29.9194 32.5669 28.6153 33.871 27.0132 33.871H22.0161C22.0161 34.4936 21.5098 35 20.8871 35H14.1129C13.4902 35 12.9839 34.4936 12.9839 33.871H7.98677C6.38468 33.871 5.08065 32.5669 5.08065 30.9648C5.08065 30.5691 5.15968 30.1841 5.31548 29.82L6.20968 27.7335V19.5712C6.20968 19.298 6.01492 19.0648 5.74621 19.0157L1.85444 18.3084C0.779597 18.1125 0 17.1788 0 16.0865V4.51613C0 3.27081 1.01274 2.25806 2.25806 2.25806C3.50339 2.25806 4.51613 3.27081 4.51613 4.51613V13.5484H9.15589L9.55331 11.9576C9.04524 11.5404 8.63202 11.016 8.34637 10.4193L7.64637 9.83556C6.37452 8.77597 5.64516 7.21847 5.64516 5.56274C5.64516 2.49516 8.14032 0 11.2073 0H13.6308C15.1375 0 16.581 0.624355 17.6214 1.69411C18.5359 0.657661 19.8693 0 21.3562 0H27.6613C28.595 0 29.3548 0.759839 29.3548 1.69355V4.45968C29.3548 6.3604 28.4765 8.1725 27.0053 9.36589C26.797 10.399 26.2359 11.3078 25.4461 11.957L25.8441 13.5484H30.4839V4.51613ZM33.871 4.51613C33.871 3.89347 33.3646 3.3871 32.7419 3.3871C32.1193 3.3871 31.6129 3.89347 31.6129 4.51613V5.64516H33.871V4.51613ZM24.2341 26.8868L23.1858 27.3062L24.0049 29.3548H22.0161V25.9677C22.0161 25.3451 21.5098 24.8387 20.8871 24.8387H19.6158C19.8173 24.5406 19.9664 24.2019 20.029 23.826L20.2289 22.6264L23.9056 22.9606C24.9392 23.0543 25.8351 23.7052 26.2444 24.6598L27.2119 26.9178L24.6801 28.0028L24.2341 26.8868ZM16.371 30.4839C16.371 31.1065 16.8773 31.6129 17.5 31.6129C18.1227 31.6129 18.629 31.1065 18.629 30.4839C18.629 29.8612 18.1227 29.3548 17.5 29.3548C16.8773 29.3548 16.371 29.8612 16.371 30.4839ZM19.6231 29.7432C19.3144 28.8626 18.4845 28.2258 17.5 28.2258C16.5155 28.2258 15.6856 28.8626 15.3769 29.7432C15.0161 29.4982 14.5809 29.3548 14.1129 29.3548V28.2258H15.2419V27.0968H14.1129V25.9677H20.8871V27.0968H19.7581V28.2258H20.8871V29.3548C20.4191 29.3548 19.9839 29.4982 19.6231 29.7432ZM10.3199 28.0023L10.7659 26.8868L11.8142 27.3062L10.9951 29.3543H12.9839V25.9672C12.9839 25.3445 13.4902 24.8381 14.1129 24.8381H15.3842C15.1827 24.5406 15.0336 24.2014 14.971 23.8254L14.7711 22.6258L11.0944 22.96C10.0608 23.0537 9.16492 23.7052 8.75564 24.6592L7.78806 26.9173L10.3199 28.0023ZM10.1613 15.2871L10.7258 15.7387V16.4404L10.1613 16.6662V15.2871ZM23.1452 15.2419C23.1452 12.1292 20.6127 9.59677 17.5 9.59677C14.3873 9.59677 11.8548 12.1292 11.8548 15.2419V21.757L14.8231 21.4872L15.0731 20.7375C13.8188 19.9342 12.9839 18.5319 12.9839 16.9355V14.2365L13.4112 14.1298C14.7892 13.7855 16.0486 13.0725 17.0529 12.0682L17.5 11.6211L17.9471 12.0682C18.9514 13.0725 20.2108 13.7855 21.5888 14.1298L22.0161 14.2365V16.9355C22.0161 18.5319 21.1812 19.9342 19.9269 20.7375L20.1769 21.4872L23.1452 21.757V15.2419ZM16.9355 8.46774V7.26476C16.9531 7.29886 16.9699 7.3334 16.9866 7.36793L16.9866 7.36795C17.0163 7.42944 17.0461 7.49091 17.0811 7.54984L17.636 8.47452C17.6143 8.47425 17.5927 8.4727 17.5712 8.47115C17.5476 8.46944 17.5239 8.46774 17.5 8.46774C17.3092 8.46774 17.1212 8.48073 16.9344 8.49653L16.9346 8.48726L16.9349 8.48214C16.9352 8.47734 16.9355 8.47254 16.9355 8.46774ZM14.1129 16.9355C14.1129 18.8035 15.632 20.3226 17.5 20.3226C19.368 20.3226 20.8871 18.8035 20.8871 16.9355V15.107C19.6322 14.7265 18.476 14.0751 17.5 13.1995C16.524 14.0751 15.3678 14.7265 14.1129 15.107V16.9355ZM16.0848 23.6397L15.8217 22.0613L16.1 21.2264C16.5415 21.3709 17.0111 21.4516 17.5 21.4516C17.9889 21.4516 18.4585 21.3709 18.9 21.2269L19.1783 22.0619L18.9152 23.6402C18.7995 24.3346 18.2045 24.8387 17.5 24.8387C16.7955 24.8387 16.2005 24.3346 16.0848 23.6397ZM24.8387 15.2871L24.2742 15.7387V16.4404L24.8387 16.6662V15.2871ZM24.7676 13.8984L24.2076 14.346C24.1365 13.8115 24.0032 13.2972 23.8147 12.8094C24.0303 12.7485 24.2381 12.6723 24.4385 12.5819L24.7676 13.8984ZM23.3015 11.7628C24.8404 11.4286 25.9677 10.0766 25.9677 8.46774V6.47444C25.9677 5.63726 25.3428 4.91637 24.5135 4.79839L22.8217 4.55677C22.3723 5.05863 21.783 5.43911 21.0915 5.61185L19.6215 5.97935C19.3697 6.04202 19.1935 6.26726 19.1935 6.52694V8.46774C19.1935 8.51605 19.1989 8.56347 19.2043 8.61097V8.611V8.61102V8.61105V8.61107V8.6111V8.61112V8.61115V8.61118V8.6112V8.61123V8.61125V8.61127V8.61129C19.2075 8.63917 19.2107 8.66709 19.2127 8.69524C19.6796 8.81774 20.1273 8.9871 20.5495 9.20105L21.3923 8.77992L21.4516 8.89903C21.6667 9.32919 22.0991 9.59677 22.5806 9.59677C23.0622 9.59677 23.4946 9.32919 23.7097 8.89903L23.769 8.77935L24.7789 9.2846L24.7196 9.40371C24.312 10.2194 23.4923 10.7258 22.5806 10.7258C22.5717 10.7258 22.5629 10.725 22.5539 10.7241C22.5466 10.7234 22.5392 10.7227 22.5315 10.7224C22.82 11.0431 23.078 11.3908 23.3015 11.7628ZM21.3562 1.12903H27.6613C27.9723 1.12903 28.2258 1.3825 28.2258 1.69355V4.45968C28.2258 5.63613 27.8143 6.77137 27.0968 7.68081V6.475C27.0968 5.07952 26.0552 3.87823 24.6739 3.68064L23.4686 3.50847C23.6205 3.11726 23.7097 2.69782 23.7097 2.25806H22.5806C22.5806 3.32839 21.8558 4.25645 20.8177 4.51613L19.3477 4.88363C18.5923 5.07218 18.0645 5.7479 18.0645 6.52694V6.99435L18.0493 6.96895C17.6897 6.37 17.5 5.68411 17.5 4.98524C17.5 2.85871 19.2297 1.12903 21.3562 1.12903ZM11.2079 1.12903C8.76298 1.12903 6.77419 3.11782 6.77419 5.56274C6.77419 6.66298 7.1829 7.70508 7.90548 8.51234C7.90526 8.50616 7.90484 8.50017 7.90443 8.49422L7.90443 8.4942C7.90382 8.48546 7.90323 8.4768 7.90323 8.46774V5.74677L9.18355 5.49048C10.3227 5.26242 11.305 4.60476 11.9497 3.63831L12.1173 3.3871H13.5484C14.7282 3.3871 15.7681 3.99452 16.3749 4.91185C16.3868 4.09274 16.5956 3.32048 16.9586 2.64194C16.1169 1.67944 14.9258 1.12903 13.6314 1.12903H11.2079ZM9.03226 8.46774V6.67258L9.4054 6.59806C10.7388 6.33161 11.9023 5.59661 12.7112 4.51613H13.5484C14.7937 4.51613 15.8065 5.52887 15.8065 6.77419V8.46774C15.8065 8.51416 15.8012 8.56038 15.796 8.60663C15.7926 8.63632 15.7892 8.66602 15.7873 8.69581C15.3204 8.81831 14.8733 8.9871 14.451 9.20105L13.6082 8.77992L13.5484 8.89903C13.3333 9.32919 12.9009 9.59677 12.4194 9.59677C11.9378 9.59677 11.5054 9.32919 11.2903 8.89903L11.231 8.77992L10.2211 9.28516L10.2804 9.40427C10.688 10.2194 11.5077 10.7258 12.4194 10.7258C12.4283 10.7258 12.4371 10.725 12.4461 10.7241C12.4534 10.7234 12.4608 10.7227 12.4685 10.7224C12.18 11.0436 11.922 11.3914 11.6985 11.7628C10.159 11.4292 9.03226 10.0772 9.03226 8.46774ZM10.7919 14.3466C10.863 13.812 10.9962 13.2977 11.1848 12.81C10.9697 12.749 10.7619 12.6723 10.561 12.5825L10.2319 13.899L10.7919 14.3466ZM2.25806 3.3871C2.88073 3.3871 3.3871 3.89347 3.3871 4.51613V5.64516H1.12903V4.51613C1.12903 3.89347 1.6354 3.3871 2.25806 3.3871ZM2.05597 17.1974L5.94831 17.9048C6.75387 18.0521 7.33871 18.7527 7.33871 19.5712V25.0995L7.71806 24.2144C8.25435 22.9623 9.39355 22.0918 10.7258 21.8784V17.6564L9.03226 18.3338V14.6774H3.3871V6.77419H1.12903V16.0865C1.12903 16.6323 1.51855 17.0998 2.05597 17.1974ZM7.98677 32.7419C7.00734 32.7419 6.20968 31.9443 6.20968 30.9648C6.20968 30.7227 6.25823 30.4873 6.35306 30.2648L7.34266 27.9554L9.89992 29.0511L9.77911 29.3548H8.46774V30.4839H14.1129C14.7356 30.4839 15.2419 30.9902 15.2419 31.6129C15.2419 32.2356 14.7356 32.7419 14.1129 32.7419H7.98677ZM16.236 32.3535C15.9273 33.2342 15.0974 33.871 14.1129 33.871H20.8871C19.9026 33.871 19.0727 33.2342 18.764 32.3535C18.4032 32.5985 17.968 32.7419 17.5 32.7419C17.032 32.7419 16.5968 32.5985 16.236 32.3535ZM27.0132 32.7419H20.8871C20.2644 32.7419 19.7581 32.2356 19.7581 31.6129C19.7581 30.9902 20.2644 30.4839 20.8871 30.4839H26.5323V29.3548H25.2209L25.099 29.0506L27.6562 27.9548L28.6458 30.2643C28.7418 30.4873 28.7903 30.7227 28.7903 30.9648C28.7903 31.9443 27.9927 32.7419 27.0132 32.7419ZM29.0517 17.9048L32.944 17.1974C33.4815 17.0998 33.871 16.6323 33.871 16.0865V6.77419H31.6129V14.6774H25.9677V18.3338L24.2742 17.6564V21.8784C25.6065 22.0918 26.7456 22.9623 27.2819 24.2144L27.6613 25.0995V19.5712C27.6613 18.7527 28.2461 18.0521 29.0517 17.9048Z" fill="#9CAFC8"/>
<circle cx="20.8873" cy="7.33869" r="0.564516" fill="#9CAFC8"/>
<circle cx="24.274" cy="7.33869" r="0.564516" fill="#9CAFC8"/>
<circle cx="14.1129" cy="7.33869" r="0.564516" fill="#9CAFC8"/>
<circle cx="10.7256" cy="7.33869" r="0.564516" fill="#9CAFC8"/>
<circle cx="15.8062" cy="15.8065" r="0.564516" fill="#9CAFC8"/>
<circle cx="19.1934" cy="15.8065" r="0.564516" fill="#9CAFC8"/>
<path d="M18.629 17.3667C18.4139 17.7969 17.9815 18.0645 17.5 18.0645C17.0185 18.0645 16.586 17.7969 16.371 17.3667L16.3117 17.2476L15.3018 17.7529L15.361 17.872C15.7686 18.6872 16.5883 19.1935 17.5 19.1935C18.4117 19.1935 19.2314 18.6872 19.6389 17.8714L19.6982 17.7523L18.6883 17.2471L18.629 17.3667Z" fill="#9CAFC8"/>
</svg>
