<svg width="22" height="22" viewBox="0 0 22 22" fill="none" xmlns="http://www.w3.org/2000/svg">
<path d="M15.8082 14.1694C15.6097 14.3971 15.388 14.6034 15.125 14.7559V15.7416C17.9833 16.1429 19.9375 16.9469 19.9375 17.875C19.9375 19.204 15.9362 20.2812 11 20.2812C6.06375 20.2812 2.0625 19.204 2.0625 17.875C2.0625 16.9469 4.01672 16.1434 6.875 15.7416V14.7559C6.61203 14.6034 6.39031 14.3971 6.1918 14.1694C2.52957 14.8388 0 16.2443 0 17.875C0 20.1532 4.92508 22 11 22C17.0749 22 22 20.1532 22 17.875C22 16.2443 19.4704 14.8388 15.8082 14.1694ZM11 5.5C12.5189 5.5 13.75 4.26895 13.75 2.75C13.75 1.23105 12.5189 0 11 0C9.48105 0 8.25 1.23105 8.25 2.75C8.25 4.26895 9.48105 5.5 11 5.5ZM8.25 13.75V17.875C8.25 18.6343 8.86574 19.25 9.625 19.25H12.375C13.1343 19.25 13.75 18.6343 13.75 17.875V13.75C14.5093 13.75 15.125 13.1343 15.125 12.375V8.25C15.125 7.1109 14.2016 6.1875 13.0625 6.1875H12.5555C12.0798 6.40363 11.556 6.53125 11 6.53125C10.444 6.53125 9.9202 6.40363 9.44453 6.1875H8.9375C7.7984 6.1875 6.875 7.1109 6.875 8.25V12.375C6.875 13.1343 7.49074 13.75 8.25 13.75Z" fill="#1600FF"/>
</svg>
