<svg width="16" height="21" viewBox="0 0 16 21" fill="none" xmlns="http://www.w3.org/2000/svg">
<path fill-rule="evenodd" clip-rule="evenodd" d="M8 0.501534V2.29153C12.42 2.29153 16 5.87153 16 10.2915C16 11.3315 15.8 12.3315 15.43 13.2415C15.16 13.9115 14.3 14.0915 13.79 13.5815C13.52 13.3115 13.41 12.9015 13.56 12.5415C13.85 11.8515 14 11.0815 14 10.2915C14 6.98153 11.31 4.29153 8 4.29153V6.08153C8 6.53153 7.46 6.75153 7.14 6.44153L4.35 3.65153C4.15 3.45153 4.15 3.14153 4.35 2.94153L7.15 0.151534C7.46 -0.168466 8 0.0515344 8 0.501534ZM2 10.2915C2 13.6015 4.69 16.2915 8 16.2915V14.5015C8 14.0515 8.54 13.8315 8.85 14.1415L11.64 16.9315C11.84 17.1315 11.84 17.4415 11.64 17.6415L8.85 20.4315C8.54 20.7515 8 20.5315 8 20.0815V18.2915C3.58 18.2915 0 14.7115 0 10.2915C0 9.25153 0.2 8.25153 0.57 7.34153C0.84 6.67153 1.7 6.49153 2.21 7.00153C2.48 7.27153 2.59 7.68153 2.44 8.04153C2.15 8.73153 2 9.50153 2 10.2915Z" fill="#1600FF"/>
</svg>
