<?xml version="1.0" encoding="utf-8"?>
<!-- Generator: Adobe Illustrator 23.1.1, SVG Export Plug-In . SVG Version: 6.00 Build 0)  -->
<svg version="1.1" id="Capa_1" xmlns="http://www.w3.org/2000/svg" xmlns:xlink="http://www.w3.org/1999/xlink" x="0px" y="0px"
	 width="512px" height="512px" viewBox="0 0 512 512" style="enable-background:new 0 0 512 512;" xml:space="preserve">
<style type="text/css">
	.st0{fill:#FFFFFF;}
</style>
<g>
	<g>
		<g>
			<g>
				<path class="st0" d="M416.4,353.6l-37.6-25.1l-33.4-22.3c-6.4-4.3-15.1-2.9-19.9,3.2L304.9,336c-4.4,5.8-12.4,7.4-18.8,3.9
					c-14-7.8-30.6-15.1-67.2-51.8s-44-53.2-51.8-67.2c-3.5-6.4-1.9-14.4,3.9-18.8l26.6-20.7c6.1-4.8,7.5-13.4,3.2-19.9l-21.6-32.4
					l-25.7-38.6c-4.4-6.6-13.2-8.5-19.9-4.5l-29.7,17.8c-8,4.7-13.9,12.4-16.5,21.3c-8.1,29.6-9.8,94.9,94.9,199.5
					s169.9,103,199.5,94.9c9-2.5,16.6-8.4,21.3-16.5l17.8-29.7C425,366.7,423,357.9,416.4,353.6z"/>
				<path class="st0" d="M276.9,136.6c54.8,0.1,99.3,44.5,99.4,99.4c0,3.2,2.6,5.8,5.8,5.8c3.2,0,5.8-2.6,5.8-5.8
					c-0.1-61.3-49.7-111-111.1-111.1c-3.2,0-5.8,2.6-5.8,5.8C271,134,273.6,136.6,276.9,136.6z"/>
				<path class="st0" d="M276.9,171.7c35.5,0,64.3,28.8,64.3,64.3c0,3.2,2.6,5.8,5.8,5.8c3.2,0,5.8-2.6,5.8-5.8
					c0-41.9-34-75.9-76-76c-3.2,0-5.8,2.6-5.8,5.8S273.6,171.7,276.9,171.7z"/>
				<path class="st0" d="M276.9,206.7c16.1,0,29.2,13.1,29.2,29.2c0,3.2,2.6,5.8,5.8,5.8c3.2,0,5.8-2.6,5.8-5.8
					c0-22.6-18.3-40.9-40.9-40.9c-3.2,0-5.8,2.6-5.8,5.8C271,204.1,273.6,206.7,276.9,206.7z"/>
			</g>
		</g>
	</g>
</g>
</svg>
