<svg width="11" height="20" viewBox="0 0 11 20" fill="none" xmlns="http://www.w3.org/2000/svg">
<path d="M5.49862 16.8633C6.72217 16.8633 7.71404 15.936 7.71404 14.792C7.71404 13.6481 6.72217 12.7207 5.49862 12.7207C4.27508 12.7207 3.2832 13.6481 3.2832 14.792C3.2832 15.936 4.27508 16.8633 5.49862 16.8633Z" stroke="#1600FF" stroke-miterlimit="10"/>
<path d="M7.74988 11.1479C9.09508 11.8751 10 13.235 10 14.7925C10 17.1163 7.98526 19 5.49977 19C3.01427 19 1 17.1159 1 14.7921C1 13.235 1.90492 11.8751 3.25012 11.1474V3.10375C3.25012 1.94206 4.25772 1 5.50023 1C6.74275 1 7.75035 1.94206 7.75035 3.10375L7.74988 11.1479Z" stroke="#1600FF" stroke-miterlimit="10"/>
<path d="M5.51172 6.96094V12.7211" stroke="#1600FF" stroke-miterlimit="10"/>
</svg>
