<?xml version="1.0" encoding="UTF-8"?>
<svg width="1120px" height="362px" viewBox="0 0 1120 362" version="1.1" xmlns="http://www.w3.org/2000/svg" xmlns:xlink="http://www.w3.org/1999/xlink">
    <!-- Generator: Sketch 43.1 (39012) - http://www.bohemiancoding.com/sketch -->
    <title>Group</title>
    <desc>Created with Sketch.</desc>
    <defs></defs>
    <g id="Page-1" stroke="none" stroke-width="1" fill="none" fill-rule="evenodd">
        <g id="Group" fill="#4431F4">
            <path d="M588.23716,287.32 L556.71016,287.32 L556.71016,328 L479.07916,328 L479.07916,287.32 L356.02216,287.32 L356.02216,236.47 L456.70516,90.7 L538.74316,90.7 L449.24716,225.283 L481.45216,225.283 L481.45216,189.01 L556.71016,189.01 L556.71016,225.283 L588.23716,225.283 L588.23716,287.32 Z M678.53022,318.6775 C662.371139,308.846451 649.715266,294.608593 640.56222,275.9635 C631.409174,257.318407 626.83272,235.114129 626.83272,209.35 C626.83272,183.585871 631.409174,161.381593 640.56222,142.7365 C649.715266,124.091407 662.371139,109.853549 678.53022,100.0225 C694.689301,90.1914508 713.277615,85.276 734.29572,85.276 C755.313825,85.276 773.902139,90.1914508 790.06122,100.0225 C806.220301,109.853549 818.876174,124.091407 828.02922,142.7365 C837.182266,161.381593 841.75872,183.585871 841.75872,209.35 C841.75872,235.114129 837.182266,257.318407 828.02922,275.9635 C818.876174,294.608593 806.220301,308.846451 790.06122,318.6775 C773.902139,328.508549 755.313825,333.424 734.29572,333.424 C713.277615,333.424 694.689301,328.508549 678.53022,318.6775 Z M761.41572,209.35 C761.41572,169.3478 752.37581,149.347 734.29572,149.347 C716.21563,149.347 707.17572,169.3478 707.17572,209.35 C707.17572,249.3522 716.21563,269.353 734.29572,269.353 C752.37581,269.353 761.41572,249.3522 761.41572,209.35 Z M1119.01028,287.32 L1087.48328,287.32 L1087.48328,328 L1009.85228,328 L1009.85228,287.32 L886.79528,287.32 L886.79528,236.47 L987.47828,90.7 L1069.51628,90.7 L980.02028,225.283 L1012.22528,225.283 L1012.22528,189.01 L1087.48328,189.01 L1087.48328,225.283 L1119.01028,225.283 L1119.01028,287.32 Z" id="404"></path>
            <g id="question" fill-rule="nonzero">
                <path d="M278.499648,26 C264.989864,26 254,36.9779657 254,50.4722575 C254,53.3868613 256.364934,55.7497873 259.283589,55.7497873 C262.202243,55.7497873 264.567177,53.3868613 264.567177,50.4722575 C264.567177,42.7980255 270.81731,36.5550596 278.499648,36.5550596 C286.18269,36.5550596 292.432823,42.7980255 292.432823,50.4722575 C292.432823,58.1464895 286.18269,64.3894554 278.499648,64.3894554 L275.14633,64.3894554 C272.227676,64.3894554 269.862742,66.7523815 269.862742,69.6669852 L269.862742,87.7224702 C269.862742,90.637074 272.227676,93 275.14633,93 C278.064985,93 280.429919,90.637074 280.429919,87.7224702 L280.429919,74.8692223 C293.040083,73.882676 303,63.3170614 303,50.4722575 C303,36.9779657 292.008727,26 278.499648,26 L278.499648,26 Z" id="Shape"></path>
                <path d="M274.5,101 C271.4618,101 269,103.343199 269,106.233471 L269,107.766529 C269,110.656801 271.4618,113 274.5,113 C277.5382,113 280,110.656801 280,107.766529 L280,106.233471 C280,103.343199 277.537467,101 274.5,101 Z" id="Shape"></path>
                <path d="M324.806844,0 L231.627146,0 C218.842274,0 208.441777,10.3869758 208.441777,23.1552282 L208.441777,65.1146228 C190.968858,40.0482929 161.913166,23.6077273 129.08056,23.6077273 L105.34299,23.6077273 C77.5849703,23.6077273 51.7327529,38.2015309 37.3479128,61.8368323 C17.826186,67.9498126 4.7822036,86.1098748 5.37546586,106.759389 L6.71632354,153.030959 C2.58685003,156.899826 0,162.391327 0,168.478855 L0,173.456345 C0,185.136478 9.51768248,194.63896 21.2172675,194.63896 L35.4506062,194.63896 C39.0738954,203.589251 44.3460005,211.939981 51.1833835,219.548329 C47.4199203,224.753483 28.0829685,251.496888 26.896444,253.139318 C26.512027,253.671712 26.2295549,254.27198 26.0638945,254.906893 L1.57377329,348.998428 C0.757506713,352.134105 1.4272276,355.403411 3.41231996,357.966395 C5.39670437,360.529378 8.39628936,362 11.6401172,362 L209.156807,362 C212.697974,362 216.11171,360.515237 218.523696,357.926801 C220.93639,355.337658 222.175303,351.828668 221.921149,348.293519 L219.91057,320.807026 C219.405802,313.850559 217.556636,307.193166 214.413337,301.019381 C213.083099,298.409027 209.885996,297.368279 207.273659,298.696081 C204.659907,300.023176 203.618512,303.216123 204.947335,305.826477 C207.446399,310.734678 208.916812,316.032453 209.318927,321.576981 L211.329506,349.060646 C211.388974,349.885043 210.991814,350.443597 210.751111,350.70237 C210.510408,350.961143 209.981569,351.395259 209.156807,351.395259 L184.666686,351.395259 L184.666686,329.728329 C184.666686,326.799811 182.290097,324.425605 179.357059,324.425605 C176.424021,324.425605 174.047433,326.799811 174.047433,329.728329 L174.047433,351.393845 L57.7892668,351.393845 L71.3373098,299.345134 C71.3819107,299.174033 71.5362438,299.054545 71.7132313,299.054545 L95.1725771,299.054545 C99.9335422,299.054545 104.421239,297.870977 108.365229,295.791602 C111.774717,296.409546 115.267744,296.727002 118.779884,296.727002 C133.670909,296.727002 147.881593,291.046017 158.284921,281.036596 L158.304744,281.040131 C159.341183,281.255068 158.555358,281.096693 174.284596,283.569177 C180.051558,284.469226 185.45251,286.518905 190.340199,289.660946 C191.229384,290.232933 192.224762,290.505847 193.209521,290.505847 C194.954618,290.505847 196.664318,289.647512 197.67881,288.072957 C199.266035,285.611079 198.553837,282.329046 196.088046,280.743885 C189.947994,276.79583 183.163707,274.221535 175.926332,273.091701 C162.302539,270.810116 161.052299,271.015154 158.871104,270.178031 C155.038262,268.701046 152.41743,265.057014 152.351591,260.802815 C158.630401,258.111152 163.062169,251.982617 163.118097,244.868483 C163.135796,242.911424 162.83067,241.004564 162.235992,239.201638 C174.795736,231.765805 192.804573,217.69379 202.114826,194.638253 L212.108959,194.638253 C223.804297,194.638253 233.319147,185.135771 233.319147,173.455638 L233.319147,168.478148 C233.319147,161.967816 230.362039,156.135527 225.722842,152.245449 L225.722842,138.601893 C227.639971,139.106713 229.625063,139.369728 231.627854,139.369728 L248.34893,139.369728 C250.280926,139.369728 251.853283,140.939334 251.853283,142.869526 L251.853283,157.929262 C251.853283,161.672985 254.144918,164.874416 257.692457,166.085558 C258.636862,166.407964 259.597551,166.564218 260.541956,166.564218 C263.144381,166.564218 265.623623,165.377822 267.304297,163.209361 L284.872081,140.603495 C285.482334,139.819399 286.401253,139.369728 287.392383,139.369728 L324.814631,139.369728 C337.599504,139.369728 348,128.982752 348,116.2145 L348,23.1552282 C348,10.3869758 337.595964,4.0189995e-14 324.806844,4.0189995e-14 L324.806844,0 Z M10.619253,173.455638 L10.619253,168.478148 C10.619253,162.642323 15.3731386,157.89391 21.2172675,157.89391 L29.8330214,157.89391 C29.4677191,167.114287 29.7070063,174.707081 32.0128001,184.032805 L21.2172675,184.032805 C15.3731386,184.032805 10.619253,179.287927 10.619253,173.455638 Z M118.962536,286.116605 C121.845309,281.684235 123.527398,276.404843 123.527398,270.737292 L123.527398,262.263539 L141.79039,262.263539 C142.193213,267.560606 144.550688,272.321038 148.207958,275.78195 C140.135202,282.366519 129.789218,286.07489 118.962536,286.116605 Z M145.232444,251.657383 L122.325299,251.657383 C117.132484,251.657383 112.908145,255.876231 112.908145,261.062295 L112.908145,270.736584 C112.908145,280.502788 104.952201,288.449097 95.1725771,288.449097 L71.7132313,288.449097 C66.7016519,288.449097 62.3208561,291.832235 61.0599967,296.676803 L46.8167467,351.393845 L11.9232973,351.393845 L36.0913012,258.537491 C37.9638294,255.946227 72.4034828,208.315745 76.7474652,202.299628 C77.8497437,200.773858 79.480153,199.769168 81.3378143,199.471509 C83.2174221,199.169607 85.1140207,199.625641 86.6679714,200.75194 L86.9270811,200.940717 C88.6141265,202.163172 89.6116283,204.053769 89.6668484,206.171324 C89.714989,207.605887 89.302962,208.98601 88.4697046,210.170285 L78.5725608,224.292499 C76.7283506,226.91558 76.5025144,230.312152 77.9821304,233.156533 C79.4631622,236.002328 82.379209,237.77061 85.592595,237.77061 L145.546066,237.77061 C147.404435,237.77061 149.151656,238.493901 150.467027,239.806856 C151.793726,241.132537 152.515835,242.895869 152.498844,244.77869 C152.469111,248.571905 149.209,251.657383 145.232444,251.657383 L145.232444,251.657383 Z M222.699894,173.455638 C222.699894,179.287927 217.94884,184.032805 212.108959,184.032805 L205.554048,184.032805 C207.088176,177.82791 207.874709,171.421513 207.874709,164.900576 C207.874709,162.536268 207.824445,160.196 207.733827,157.89391 L212.108959,157.89391 C217.94884,157.89391 222.699894,162.642323 222.699894,168.478148 L222.699894,173.455638 Z M212.108959,147.288462 L206.974196,147.288462 C206.351908,141.332443 205.403255,135.564493 204.1339,130.08784 C201.653243,119.429364 192.234673,111.553052 181.228172,110.934401 C160.656555,109.782649 139.675743,104.455886 120.550468,95.5289267 C115.195533,93.0345253 108.728408,94.7568501 105.50511,99.536372 C104.288144,101.342126 101.731028,102.655788 99.4507202,102.604175 C95.7332737,102.561046 91.6455692,100.521265 86.5893889,96.1864645 C83.1799007,93.2579468 79.7442184,89.8295589 76.0904874,85.7089888 C73.4632842,82.7387564 69.6835381,81.0334003 65.7204329,81.0298652 L65.7069819,81.0298652 C61.767239,81.0298652 58.0094393,82.7168384 55.3942713,85.6609108 C50.2849947,91.4189621 45.8525185,98.0296913 42.220026,105.307857 C40.9117341,107.928817 41.978615,111.112572 44.6029864,112.41987 C47.2280657,113.726461 50.4152575,112.660967 51.7242575,110.040008 C54.9418911,103.593309 58.8504842,97.7574848 63.3410123,92.6972721 C64.1608186,91.7745981 65.1738954,91.6360202 65.7076898,91.6360202 C66.2556433,91.6445046 67.2892505,91.7781332 68.1366669,92.7361587 C72.116763,97.2243843 75.8880137,100.983662 79.6691757,104.23105 C84.1108552,108.039113 90.9815119,113.113467 99.324705,113.209623 C105.233965,113.26972 111.092253,110.238683 114.313427,105.460575 C114.634128,104.984744 115.418537,104.841217 116.057816,105.138877 C136.394393,114.630753 158.724559,120.296183 180.632077,121.523587 C186.959736,121.879223 192.3706,126.387952 193.789332,132.484671 C195.280983,138.920764 196.302555,145.814305 196.824314,152.986416 C197.110326,156.810741 197.255456,160.8196 197.255456,164.901283 C197.255456,172.729518 195.971942,180.361199 193.440312,187.58563 C185.50773,210.235332 167.754463,223.765055 155.9678,230.58153 C152.965384,228.364284 149.347758,227.165869 145.546066,227.165869 L89.5210107,227.165869 L97.1633331,216.26064 C99.3282448,213.183646 100.405745,209.572138 100.280438,205.85811 C100.14168,200.454987 97.5470421,195.53406 93.169078,192.361616 L92.9106762,192.173547 C89.0509317,189.377243 84.3437709,188.251652 79.6564326,189.001104 C74.9917487,189.748434 70.9005045,192.268289 68.1345431,196.096855 C66.1367076,198.86417 62.2203271,204.28214 57.5627228,210.725303 C51.5366507,203.629552 47.025592,195.869899 44.12512,187.584923 C40.0374156,175.923172 39.8094556,165.449232 40.741826,152.977932 C41.2763284,145.654516 42.3361299,138.605429 43.8914965,132.027223 C44.5654651,129.177185 42.7984214,126.320785 39.9439661,125.647692 C37.0902189,124.9746 34.2301001,126.739346 33.5561315,129.590091 C32.2244772,135.222291 31.2354707,141.160634 30.592652,147.289876 L21.2172675,147.289876 C19.8381805,147.289876 18.4916592,147.426333 17.1847831,147.678743 L15.9904712,106.455366 C15.5175604,90.0183359 26.2925625,75.6359343 42.1931239,71.4793057 C43.5743348,71.1180134 44.7523639,70.2165504 45.4603141,68.977834 C57.7121003,47.5336181 80.6581821,34.2131754 105.34299,34.2131754 L129.08056,34.2131754 C176.513931,34.2131754 215.103589,72.7526665 215.103589,120.124375 L215.103589,147.503399 C214.124493,147.364822 213.125576,147.288462 212.108959,147.288462 L212.108959,147.288462 Z M337.380747,116.2145 C337.380747,123.134908 331.74334,128.76428 324.814631,128.76428 L287.392383,128.76428 C283.100789,128.76428 279.127773,130.705784 276.487119,134.095992 L262.472536,152.130203 L262.472536,142.869526 C262.472536,135.092197 256.13709,128.76428 248.34893,128.76428 L231.627146,128.76428 C229.52595,128.76428 227.522451,128.255925 225.722134,127.29083 L225.722134,120.124375 C225.722134,107.703274 223.358996,95.8237582 219.06103,84.907924 L219.06103,23.1552282 C219.06103,16.2348199 224.698438,10.605448 231.627146,10.605448 L324.806844,10.605448 C331.7398,10.605448 337.380747,16.2348199 337.380747,23.1552282 L337.380747,116.2145 Z" id="Shape"></path>
                <path d="M92.5,171 C95.5374667,171 98,168.557714 98,165.545221 L98,159.454779 C98,156.442286 95.5374667,154 92.5,154 C89.4625333,154 87,156.442286 87,159.454779 L87,165.545221 C87,168.557714 89.4625333,171 92.5,171 Z" id="Shape"></path>
                <path d="M171.5,171 C174.5382,171 177,168.557714 177,165.545221 L177,159.454779 C177,156.442286 174.5382,154 171.5,154 C168.462533,154 166,156.442286 166,159.454779 L166,165.545221 C166,168.557714 168.462533,171 171.5,171 Z" id="Shape"></path>
                <path d="M122.944843,196.299139 C130.146887,192.212103 136.853817,192.212103 144.055862,196.299139 C144.892555,196.773962 145.808129,197.000068 146.712434,196.999383 C148.529496,196.999383 150.297962,196.086052 151.279739,194.449182 C152.749587,191.997645 151.898104,188.851347 149.378163,187.421399 C138.990626,181.5262 128.009374,181.5262 117.621837,187.421399 C115.101896,188.851347 114.250413,191.998331 115.720261,194.449182 C117.190109,196.901403 120.425606,197.729088 122.944843,196.299139 L122.944843,196.299139 Z" id="Shape"></path>
            </g>
        </g>
    </g>
</svg>