<svg width="32" height="32" viewBox="0 0 32 32" fill="none" xmlns="http://www.w3.org/2000/svg">
<circle cx="15.8711" cy="16" r="15" fill="#1600FF" stroke="#1600FF"/>
<mask id="mask0" mask-type="alpha" maskUnits="userSpaceOnUse" x="10" y="10" width="12" height="12">
<path fill-rule="evenodd" clip-rule="evenodd" d="M10.6211 10H21.1211V22H10.6211V10Z" fill="white"/>
</mask>
<g mask="url(#mask0)">
<path fill-rule="evenodd" clip-rule="evenodd" d="M15.9121 15.9375C14.1823 15.9375 12.7747 14.6063 12.7747 12.9692C12.7747 11.3322 14.1823 10 15.9121 10C17.6419 10 19.0495 11.3322 19.0495 12.9692C19.0495 14.6063 17.6419 15.9375 15.9121 15.9375ZM15.912 10.7105C14.5964 10.7105 13.5249 11.7236 13.5249 12.9696C13.5249 14.2147 14.5964 15.2278 15.912 15.2278C17.2276 15.2278 18.2991 14.2147 18.2991 12.9696C18.2991 11.7236 17.2276 10.7105 15.912 10.7105ZM20.6548 22.0002H20.6628C20.8669 22.0002 21.034 21.8459 21.038 21.6527L21.121 19.5489C21.121 17.8399 19.6514 16.4499 17.8455 16.4499H17.4844C17.4303 16.4499 17.3773 16.4604 17.3283 16.4821C16.4329 16.8722 15.3994 16.8741 14.495 16.4821C14.446 16.4604 14.392 16.4499 14.3389 16.4499H13.9788C12.1729 16.4499 10.7033 17.8399 10.7033 19.5413L10.6212 21.6376C10.6172 21.8336 10.7813 21.9955 10.9884 22.0002H10.9964C11.2005 22.0002 11.3676 21.8459 11.3716 21.6527L11.4536 19.5489C11.4536 18.2319 12.5861 17.1601 13.9788 17.1601H14.2589C15.3154 17.5946 16.5169 17.5928 17.5644 17.1601H17.8455C19.2372 17.1601 20.3707 18.2319 20.3707 19.5413L20.2876 21.6376C20.2836 21.8336 20.4477 21.9955 20.6548 22.0002Z" fill="white"/>
</g>
</svg>
