<svg width="30" height="32" viewBox="0 0 30 32" fill="none" xmlns="http://www.w3.org/2000/svg">
<path fill-rule="evenodd" clip-rule="evenodd" d="M1.60715 0H21.9644C22.8516 0.000964113 23.5706 0.716744 23.5716 1.6V30.4C23.5706 31.2833 22.8516 31.999 21.9644 32H1.60715C0.719949 31.999 0.000968423 31.2833 0 30.4V1.6C0.000968423 0.716744 0.719949 0.000964113 1.60715 0ZM21.9642 30.9331C22.2599 30.9328 22.4996 30.6942 22.4999 30.3997V1.59974C22.4996 1.30531 22.2599 1.0667 21.9642 1.06641H1.60689C1.31115 1.0667 1.07147 1.30531 1.07117 1.59974V30.3997C1.07147 30.6942 1.31115 30.9328 1.60689 30.9331H21.9642Z" fill="#0073FF"/>
<ellipse cx="20.3566" cy="3.19948" rx="1.07144" ry="1.06667" fill="#0073FF"/>
<path fill-rule="evenodd" clip-rule="evenodd" d="M4.28711 12.7993C4.28711 11.6211 5.24651 10.666 6.42998 10.666C7.61293 10.6673 8.57159 11.6217 8.57285 12.7993C8.57285 13.9776 7.61346 14.9327 6.42998 14.9327C5.24651 14.9327 4.28711 13.9776 4.28711 12.7993ZM5.35783 12.7991C5.35783 13.3882 5.83753 13.8658 6.42927 13.8658C7.02073 13.8651 7.50003 13.3879 7.5007 12.7991C7.5007 12.21 7.02101 11.7324 6.42927 11.7324C5.83753 11.7324 5.35783 12.21 5.35783 12.7991Z" fill="#0073FF"/>
<path fill-rule="evenodd" clip-rule="evenodd" d="M4.28711 18.1333C4.28711 16.9551 5.24651 16 6.42998 16C7.61293 16.0013 8.57159 16.9556 8.57285 18.1333C8.57285 19.3115 7.61346 20.2667 6.42998 20.2667C5.24651 20.2667 4.28711 19.3115 4.28711 18.1333ZM5.35783 18.1331C5.35783 18.7222 5.83753 19.1997 6.42927 19.1997C7.02073 19.1991 7.50003 18.7219 7.5007 18.1331C7.5007 17.544 7.02101 17.0664 6.42927 17.0664C5.83753 17.0664 5.35783 17.544 5.35783 18.1331Z" fill="#0073FF"/>
<path fill-rule="evenodd" clip-rule="evenodd" d="M4.28711 23.4673C4.28711 22.2891 5.24651 21.334 6.42998 21.334C7.61293 21.3352 8.57159 22.2896 8.57285 23.4673C8.57285 24.6455 7.61346 25.6007 6.42998 25.6007C5.24651 25.6007 4.28711 24.6455 4.28711 23.4673ZM5.35783 23.4671C5.35783 24.0562 5.83753 24.5337 6.42927 24.5337C7.02073 24.5331 7.50003 24.0559 7.5007 23.4671C7.5007 22.878 7.02101 22.4004 6.42927 22.4004C5.83753 22.4004 5.35783 22.878 5.35783 23.4671Z" fill="#0073FF"/>
<rect x="9.64258" y="12.8008" width="8.57149" height="1.06667" fill="#0073FF"/>
<rect x="9.64258" y="18.1328" width="8.57149" height="1.06667" fill="#0073FF"/>
<rect x="9.64258" y="23.4668" width="8.57149" height="1.06667" fill="#0073FF"/>
<path fill-rule="evenodd" clip-rule="evenodd" d="M26.2496 2.13281H29.4639C29.606 2.13278 29.7423 2.18895 29.8427 2.28898C29.9432 2.38901 29.9996 2.52469 29.9996 2.66615V25.5995C29.9977 25.637 29.9936 25.6744 29.9876 25.7115L29.0634 29.9985C28.9247 30.5417 28.4372 30.9247 27.8743 30.9327C27.3114 30.9408 26.813 30.5718 26.6587 30.0328L25.7259 25.7115C25.7198 25.6744 25.7158 25.637 25.7139 25.5995V2.66615C25.7138 2.52469 25.7703 2.38901 25.8707 2.28898C25.9712 2.18895 26.1075 2.13278 26.2496 2.13281ZM27.698 29.7759C27.7236 29.8551 27.9823 29.8895 28.0252 29.7415L28.342 28.2676H27.3728L27.698 29.7759ZM28.5705 27.1995H27.1417L26.9118 26.1328H28.8004L28.5705 27.1995ZM26.7852 25.0668H28.9281V7.4668H26.7852V25.0668ZM28.9281 6.40065H26.7852V5.33398H28.9281V6.40065ZM26.7852 4.26589H28.9281V3.19922H26.7852V4.26589Z" fill="#0073FF"/>
<path fill-rule="evenodd" clip-rule="evenodd" d="M18.2141 5.33281H20.8927C21.0348 5.33278 21.1711 5.38896 21.2716 5.48898C21.372 5.58901 21.4285 5.72469 21.4284 5.86615V26.1328C21.4214 26.1904 21.41 26.2474 21.3943 26.3033C21.3623 26.3771 21.321 26.4464 21.2715 26.5099L18.0571 29.7099C17.9566 29.8097 17.8204 29.8659 17.6784 29.8661H2.6783C2.5362 29.8662 2.39992 29.81 2.29945 29.71C2.19897 29.61 2.14254 29.4743 2.14258 29.3328V5.86615C2.14254 5.72469 2.19897 5.58901 2.29945 5.48898C2.39992 5.38896 2.5362 5.33278 2.6783 5.33281H5.35689C5.35756 4.74399 5.83686 4.26682 6.42832 4.26615H7.7323C8.64583 2.93145 10.1632 2.13281 11.7855 2.13281C13.4078 2.13281 14.9252 2.93145 15.8387 4.26615H17.1427C17.7341 4.26682 18.2134 4.74399 18.2141 5.33281ZM8.03616 5.33255H6.42901V7.46588H17.1434V5.33255H15.5362C15.3341 5.33262 15.1492 5.21942 15.058 5.03984C14.3672 3.898 13.1262 3.19964 11.7873 3.19922C10.4484 3.19879 9.20695 3.89636 8.51538 5.03776C8.42463 5.21846 8.23909 5.33259 8.03616 5.33255ZM18.2139 28.0452V26.666H19.5992L18.2139 28.0452ZM17.6779 25.6004H20.3565V6.40039H18.2136V8.00039C18.2137 8.14185 18.1572 8.27753 18.0568 8.37755C17.9563 8.47758 17.82 8.53376 17.6779 8.53372H5.89211C5.75002 8.53376 5.61374 8.47758 5.51326 8.37755C5.41279 8.27753 5.35636 8.14185 5.35639 8.00039V6.40039H3.21352V28.8004H17.1422V26.1337C17.1422 25.9923 17.1986 25.8566 17.2991 25.7566C17.3995 25.6565 17.5358 25.6004 17.6779 25.6004Z" fill="#0073FF"/>
</svg>
