<svg width="32" height="32" viewBox="0 0 32 32" fill="none" xmlns="http://www.w3.org/2000/svg">
<path d="M18.5802 23.2262C18.5802 21.801 17.4248 20.6455 15.9996 20.6455C14.5744 20.6455 13.4189 21.801 13.4189 23.2262C13.4189 24.6513 14.5744 25.8068 15.9996 25.8068C17.4241 25.8055 18.5789 24.6507 18.5802 23.2262ZM15.9996 24.7745C15.1448 24.7745 14.4512 24.081 14.4512 23.2262C14.4512 22.3713 15.1448 21.6778 15.9996 21.6778C16.8544 21.6778 17.548 22.3713 17.548 23.2262C17.5467 24.081 16.8544 24.7733 15.9996 24.7745Z" fill="#0073FF"/>
<path d="M18.1932 25.8066H13.8061C12.4526 25.8079 11.3558 26.9047 11.3545 28.2583V31.4841C11.3545 31.7692 11.5855 32.0002 11.8706 32.0002H20.1287C20.4138 32.0002 20.6448 31.7692 20.6448 31.4841V28.2583C20.6435 26.9047 19.5468 25.8079 18.1932 25.8066ZM19.6126 30.9679H18.5803V28.9034C18.5803 28.6183 18.3493 28.3873 18.0642 28.3873C17.779 28.3873 17.548 28.6183 17.548 28.9034V30.9679H14.4513V28.9034C14.4513 28.6183 14.2203 28.3873 13.9351 28.3873C13.65 28.3873 13.419 28.6183 13.419 28.9034V30.9679H12.3868V28.2583C12.3874 27.475 13.0229 26.8395 13.8061 26.8389H18.1932C18.9764 26.8395 19.6119 27.475 19.6126 28.2583V30.9679Z" fill="#0073FF"/>
<path d="M18.5802 2.58065C18.5802 1.15548 17.4248 0 15.9996 0C14.5744 0 13.4189 1.15548 13.4189 2.58065C13.4189 4.00581 14.5744 5.16129 15.9996 5.16129C17.4241 5.16 18.5789 4.00516 18.5802 2.58065ZM15.9996 4.12903C15.1448 4.12903 14.4512 3.43548 14.4512 2.58065C14.4512 1.72581 15.1448 1.03226 15.9996 1.03226C16.8544 1.03226 17.548 1.72581 17.548 2.58065C17.5467 3.43548 16.8544 4.12774 15.9996 4.12903Z" fill="#0073FF"/>
<path d="M18.1932 5.16113H13.8061C12.4526 5.16242 11.3558 6.2592 11.3545 7.61275V10.8386C11.3545 11.1237 11.5855 11.3547 11.8706 11.3547H20.1287C20.4138 11.3547 20.6448 11.1237 20.6448 10.8386V7.61275C20.6435 6.2592 19.5468 5.16242 18.1932 5.16113ZM19.6126 10.3224H18.5803V8.25791C18.5803 7.97275 18.3493 7.74178 18.0642 7.74178C17.779 7.74178 17.548 7.97275 17.548 8.25791V10.3224H14.4513V8.25791C14.4513 7.97275 14.2203 7.74178 13.9351 7.74178C13.65 7.74178 13.419 7.97275 13.419 8.25791V10.3224H12.3868V7.61275C12.3874 6.82952 13.0229 6.19404 13.8061 6.19339H18.1932C18.9764 6.19404 19.6119 6.82952 19.6126 7.61275V10.3224Z" fill="#0073FF"/>
<path d="M7.22574 12.9029C7.22574 11.4777 6.07026 10.3223 4.6451 10.3223C3.21994 10.3223 2.06445 11.4777 2.06445 12.9029C2.06445 14.3281 3.21994 15.4836 4.6451 15.4836C6.06961 15.4823 7.22445 14.3274 7.22574 12.9029ZM4.6451 14.4513C3.79026 14.4513 3.09671 13.7577 3.09671 12.9029C3.09671 12.0481 3.79026 11.3545 4.6451 11.3545C5.49994 11.3545 6.19349 12.0481 6.19349 12.9029C6.19219 13.7577 5.49994 14.45 4.6451 14.4513Z" fill="#0073FF"/>
<path d="M8.77419 21.6769C9.05935 21.6769 9.29032 21.446 9.29032 21.1608V17.935C9.28903 16.5815 8.19226 15.4847 6.83871 15.4834H2.45161C1.09806 15.4847 0.00129032 16.5815 0 17.935V21.1608C0 21.446 0.230968 21.6769 0.516129 21.6769H8.77419ZM1.03226 17.935C1.0329 17.1518 1.66839 16.5163 2.45161 16.5157H6.83871C7.62194 16.5163 8.25742 17.1518 8.25806 17.935V20.6447H7.22581V18.5802C7.22581 18.295 6.99484 18.064 6.70968 18.064C6.42452 18.064 6.19355 18.295 6.19355 18.5802V20.6447H3.09677V18.5802C3.09677 18.295 2.86581 18.064 2.58065 18.064C2.29548 18.064 2.06452 18.295 2.06452 18.5802V20.6447H1.03226V17.935Z" fill="#0073FF"/>
<path d="M29.9357 12.9029C29.9357 11.4777 28.7802 10.3223 27.3551 10.3223C25.9299 10.3223 24.7744 11.4777 24.7744 12.9029C24.7744 14.3281 25.9299 15.4836 27.3551 15.4836C28.7796 15.4823 29.9344 14.3274 29.9357 12.9029ZM27.3551 14.4513C26.5002 14.4513 25.8067 13.7577 25.8067 12.9029C25.8067 12.0481 26.5002 11.3545 27.3551 11.3545C28.2099 11.3545 28.9034 12.0481 28.9034 12.9029C28.9022 13.7577 28.2099 14.45 27.3551 14.4513Z" fill="#0073FF"/>
<path d="M29.5487 15.4834H25.1616C23.808 15.4847 22.7113 16.5815 22.71 17.935V21.1608C22.71 21.446 22.9409 21.6769 23.2261 21.6769H31.4842C31.7693 21.6769 32.0003 21.446 32.0003 21.1608V17.935C31.999 16.5815 30.9022 15.4847 29.5487 15.4834ZM30.968 20.6447H29.9358V18.5802C29.9358 18.295 29.7048 18.064 29.4196 18.064C29.1345 18.064 28.9035 18.295 28.9035 18.5802V20.6447H25.8067V18.5802C25.8067 18.295 25.5758 18.064 25.2906 18.064C25.0054 18.064 24.7745 18.295 24.7745 18.5802V20.6447H23.7422V17.935C23.7429 17.1518 24.3783 16.5163 25.1616 16.5157H29.5487C30.3319 16.5163 30.9674 17.1518 30.968 17.935V20.6447Z" fill="#0073FF"/>
<path d="M9.55996 26.5835C8.21351 25.7635 7.03673 24.6944 6.09092 23.4338C5.91996 23.206 5.59608 23.1596 5.36834 23.3312C5.1406 23.5022 5.09415 23.826 5.26576 24.0538C6.28963 25.4196 7.56448 26.577 9.02254 27.4647C9.26577 27.6131 9.58383 27.5364 9.73222 27.2931C9.88061 27.0499 9.80254 26.7318 9.55996 26.5835Z" fill="#0073FF"/>
<path d="M26.6328 23.329C26.4051 23.158 26.0812 23.2038 25.9102 23.4315C24.9644 24.6928 23.787 25.7625 22.4406 26.5825C22.1973 26.7309 22.1206 27.0483 22.269 27.2922C22.4173 27.5361 22.7348 27.6122 22.9786 27.4638C24.4367 26.5754 25.7122 25.4173 26.7361 24.0515C26.907 23.8238 26.8606 23.4999 26.6328 23.329Z" fill="#0073FF"/>
<path d="M20.4595 4.4391C22.6279 5.27717 24.5169 6.70749 25.9111 8.56749C26.0821 8.79523 26.4059 8.84169 26.6337 8.67007C26.8614 8.4991 26.9079 8.17523 26.7362 7.94749C25.2259 5.9333 23.1801 4.38362 20.8311 3.47652C20.5666 3.37072 20.2659 3.4991 20.1601 3.76362C20.0543 4.02814 20.1827 4.32878 20.4472 4.43459C20.4511 4.43588 20.455 4.43781 20.4595 4.4391Z" fill="#0073FF"/>
<path d="M5.36709 8.6713C5.59483 8.84226 5.9187 8.79646 6.08967 8.56871C7.48386 6.70871 9.3729 5.27839 11.5413 4.44033C11.8084 4.34097 11.9445 4.0442 11.8458 3.7771C11.7464 3.51001 11.4497 3.37388 11.1826 3.47259C11.1781 3.47388 11.1742 3.47581 11.1697 3.47775C8.82128 4.38484 6.77483 5.93388 5.26451 7.94871C5.09354 8.17646 5.13935 8.50033 5.36709 8.6713Z" fill="#0073FF"/>
<path d="M16.0001 18.0646C17.1401 18.0646 18.0646 17.1401 18.0646 16.0001C18.0646 14.8601 17.1401 13.9355 16.0001 13.9355C14.8601 13.9355 13.9355 14.8601 13.9355 16.0001C13.9368 17.1394 14.8607 18.0633 16.0001 18.0646ZM16.0001 14.9678C16.5704 14.9678 17.0323 15.4297 17.0323 16.0001C17.0323 16.5704 16.5704 17.0323 16.0001 17.0323C15.4297 17.0323 14.9678 16.5704 14.9678 16.0001C14.9685 15.4304 15.4304 14.9685 16.0001 14.9678Z" fill="#0073FF"/>
</svg>
