<?xml version="1.0" encoding="utf-8"?>
<!-- Generator: Adobe Illustrator 23.1.1, SVG Export Plug-In . SVG Version: 6.00 Build 0)  -->
<svg version="1.1" id="Layer_1" xmlns="http://www.w3.org/2000/svg" xmlns:xlink="http://www.w3.org/1999/xlink" x="0px" y="0px"
	 viewBox="0 0 151.7 44.3" style="enable-background:new 0 0 151.7 44.3;" xml:space="preserve">
<style type="text/css">
	.st0{fill:#FFFFFF;}
</style>
<path class="st0" d="M47.8,23.1c0-2.5,0-5.1,0-7.6c0-0.8,0.2-1.5,0.9-1.7c0.8-0.3,1.3,0.1,1.8,0.8c1.4,2.2,2.8,4.3,4.2,6.5
	c0.4,0.6,0.5,0.5,0.9,0c1.4-2.1,2.8-4.2,4.2-6.4c0.4-0.6,0.9-1.1,1.7-0.9c0.8,0.2,1.2,0.8,1.2,1.7c0,5.2,0,10.3,0,15.5
	c0,1.1-0.5,1.6-1.4,1.6c-0.9,0-1.4-0.6-1.4-1.7c0-3.3,0-6.6,0-9.9c0-0.2,0.2-0.6-0.2-0.6c-0.1,0-0.3,0.3-0.4,0.4
	c-0.9,1.4-1.8,2.7-2.7,4.1c-0.9,1.4-1.9,1.4-2.8,0c-0.8-1.3-1.7-2.6-2.5-3.9c-0.1-0.2-0.2-0.6-0.5-0.5c-0.1,0-0.1,0.5-0.1,0.7
	c0,3.2,0,6.4,0,9.5c0,1.2-0.4,1.8-1.2,1.9c-1,0.1-1.6-0.4-1.6-1.7C47.8,28.2,47.8,25.7,47.8,23.1z"/>
<path class="st0" d="M86.7,23.1c0-2.4,0-4.9,0-7.3c0-1.4,0.4-2.1,1.3-2.1c0.9,0,1.4,0.7,1.4,2.2c0,2.4,0,4.8,0,7.2
	c0,0.3-0.1,0.7,0.2,0.8c0.3,0.1,0.5-0.2,0.6-0.4c1.3-1.4,2.5-2.7,3.7-4.1c0.3-0.3,0.6-0.7,1.1-0.8c0.6-0.1,1.2,0,1.5,0.7
	c0.4,0.7,0.3,1.3-0.2,1.9c-0.9,1-1.7,2-2.6,2.9c-1,1.1-1,1.1,0,2.3c0.9,1.1,1.7,2.2,2.5,3.4c0.7,1,0.7,1.8,0,2.5
	c-0.7,0.6-1.5,0.4-2.2-0.5c-0.8-1.1-1.6-2.2-2.5-3.3c-0.3-0.3-0.5-1-0.9-0.8c-0.6,0.3-1.1,0.8-1.2,1.6c0,0.6,0,1.1,0,1.7
	c-0.1,1.1-0.5,1.7-1.4,1.7c-0.9,0-1.3-0.5-1.4-1.7C86.7,28.2,86.7,25.7,86.7,23.1z"/>
<path class="st0" d="M103,26.8c-1.1,0-2.2,0-3.3,0c-0.8,0-0.9,0.2-0.5,1c0.9,1.7,3.2,2.4,4.9,1.5c0.2-0.1,0.4-0.3,0.6-0.4
	c0.8-0.5,1.5-0.3,1.9,0.3c0.4,0.8,0.1,1.4-0.5,1.9c-3,2.6-8.8,1.8-9.9-3.9c-0.7-3.6,1.5-7.3,4.8-8c3.2-0.7,6.3,1.6,6.9,5.2
	c0.3,1.8-0.1,2.4-1.7,2.4C105,26.8,104,26.8,103,26.8z M102,24.5c0.9,0,1.9,0,2.8,0c0.5,0,0.7-0.1,0.5-0.7c-0.4-1.1-2.1-2.2-3.4-2.1
	c-1.3,0-2.5,0.9-3,2.1c-0.2,0.5-0.1,0.7,0.4,0.7C100.2,24.4,101.1,24.5,102,24.5z"/>
<path class="st0" d="M139.8,23c0-2.6,0-5.2,0-7.8c0-0.7,0.1-1.3,0.8-1.5c0.7-0.2,1.3,0.3,1.3,1.2c0,1.3,0,2.6,0,3.9
	c0,1.3,0,1.3,1.1,0.8c2-0.9,3.8-0.7,5.5,0.7c2.6,2,3.3,5.9,1.7,9.1c-1.4,2.9-4.5,3.9-7.4,2.6c-0.4-0.2-0.7-0.5-1.1,0.1
	c-0.3,0.5-0.9,0.5-1.4,0.3c-0.5-0.2-0.6-0.7-0.6-1.3C139.8,28.4,139.8,25.7,139.8,23z M141.6,25.8c0,2.3,0.8,3.8,2.4,4.4
	c1.5,0.6,3.1,0.1,4.1-1.3c1.3-1.7,1.1-5.1-0.3-6.6c-1.4-1.5-3.7-1.5-5.1,0.1C141.9,23.3,141.6,24.5,141.6,25.8z"/>
<path class="st0" d="M66.3,23.8c0,1,0,2.1,0,3.1c0.1,1.5,1,2.6,2.4,2.7c1.4,0.1,2.5-1,2.6-2.6c0.1-2,0-4,0-6c0-1.3,0.4-1.9,1.2-1.9
	c0.9,0,1.4,0.6,1.4,1.9c0,2,0.1,3.9,0,5.9c-0.1,3.2-2.5,5.7-5.3,5.7c-2.9-0.1-5.1-2.5-5.1-5.8c0-1.9,0-3.8,0-5.7c0-1.3,0.4-2,1.3-2
	c0.9,0,1.3,0.6,1.4,2C66.3,21.9,66.3,22.9,66.3,23.8C66.3,23.8,66.3,23.8,66.3,23.8z"/>
<path class="st0" d="M138.9,25.8c0,1.7,0,3.3,0,5c0,0.6,0,1.3-0.6,1.6c-0.6,0.3-1.2,0.2-1.6-0.4c-0.2-0.4-0.5-0.2-0.8-0.1
	c-2.9,1.5-6.2,0.1-7.5-2.5c-1.4-2.7-1-6.5,1.2-8.7c1.8-1.7,3.8-2.1,6-1.1c0.5,0.2,0.9,0.6,1.4-0.2c0.3-0.5,0.8-0.4,1.3-0.3
	c0.5,0.2,0.6,0.7,0.6,1.3C138.8,22.2,138.8,24,138.9,25.8C138.8,25.8,138.9,25.8,138.9,25.8z M129.6,26c0,1.5,0.4,2.9,1.8,3.8
	c1.3,0.9,2.7,0.9,4,0c1.6-1.2,1.8-3,1.6-4.9c-0.2-1.6-0.9-2.9-2.5-3.4c-0.6-0.2-1.1-0.3-1.7-0.2C130.7,21.7,129.6,23.3,129.6,26z"/>
<path class="st0" d="M81.2,32.5c-2.8,0-5.1-1.8-6-4.6c-0.8-2.7,0-5.7,2.1-7.5c2.2-1.8,5.1-1.9,7.3-0.3c0.9,0.7,1.2,1.5,0.7,2.3
	c-0.5,0.8-1.1,0.9-2.1,0.3c-2.5-1.6-5.5-0.1-5.7,2.8c-0.2,2.8,2.6,4.9,5,3.7c0.4-0.2,0.7-0.5,1-0.6c0.7-0.3,1.3-0.2,1.8,0.5
	s0.3,1.4-0.3,1.9C83.9,32.1,82.6,32.6,81.2,32.5z"/>
<path class="st0" d="M117.5,23c0-2.6,0-5.1,0-7.7c0-0.8,0-1.6,1-1.7c0.8,0,1.1,0.5,1.1,1.7c0,4.5,0,9.1,0,13.6c0,1.3,0,1.3,1.2,1.3
	c2,0,4,0,6,0c0.7,0,1.3,0.1,1.3,1c0,1-0.6,1.1-1.3,1.1c-2.7,0-5.4,0-8.1,0c-1.1,0-1.3-0.2-1.3-1.5C117.5,28.4,117.5,25.7,117.5,23z"
	/>
<path class="st0" d="M108.6,25.8c0-1.6,0-3.2,0-4.8c0-0.8,0.1-1.6,0.9-1.9c0.8-0.3,1.4,0,1.8,0.8c0.3,0.6,0.5,0.2,0.7,0
	c0.8-0.5,1.7-0.9,2.6-0.9c0.9,0,1.5,0.4,1.6,1.3c0.1,0.8-0.4,1.4-1.3,1.6c-1.9,0.4-3.5,2.5-3.6,4.6c0,1.4,0,2.7,0,4.1
	c0,1.2-0.4,1.8-1.4,1.8c-0.9,0-1.4-0.6-1.4-1.8C108.6,29.1,108.6,27.4,108.6,25.8z"/>
<path class="st0" d="M18.9,23c0,1.1,0,2.2,0,3.3c0,1.3,0.7,2.1,1.7,2c1,0,1.6-0.8,1.6-2c0-2.1,0.1-4.1,0-6.2c-0.1-2.9,2-5.7,5-5.7
	c2.9,0,5.1,2.3,5.1,5.6c0,1.7,0,3.4,0,5.1c0,1,0.5,1.7,1.3,1.8c0.9,0.1,1.5-0.2,1.7-1.2c0.4-1.6,0.3-3.3,0.1-4.9
	c-0.8-7.1-5.3-12.6-11.6-14.2c-8.2-2.1-16.7,4.2-18,13.3C4.5,29.4,10.4,38,19.2,39c4.4,0.5,8.4-0.9,11.6-4.4c0.7-0.8,1.4-1,2.1-0.7
	c1.2,0.6,1.4,2.2,0.4,3.3c-2,2.2-4.3,3.7-6.9,4.7C15.6,45.7,4.2,38.3,2.4,26C0.6,13.9,8.4,4,18,2.6c9.9-1.5,19,5.7,20.8,16.6
	c0.4,2.3,0.4,4.6,0.1,6.8c-0.5,3.1-2.7,4.9-5.4,4.6c-2.7-0.3-4.6-2.6-4.6-5.6c0-1.6,0-3.2,0-4.9c0-1.3-0.7-2.1-1.7-2.1
	c-1,0.1-1.6,0.9-1.6,2.2c0,2.4,0.2,4.7-0.1,7.1c-0.3,2.7-2.4,4.7-5,4.6c-2.5,0-4.7-2.1-5-4.7c-0.2-2.4-0.1-4.8-0.1-7.2
	c0-0.6-0.1-1.2-0.6-1.6c-0.5-0.4-1.1-0.6-1.6-0.2c-0.6,0.3-1,0.9-1,1.7c0,2.1,0,4.2,0,6.3c0,0.9-0.3,1.5-1,1.9
	c-1,0.5-2.1-0.1-2.3-1.3c-0.1-0.6-0.1-1.1-0.1-1.7c0-2-0.2-4.1,0.1-6.1c0.4-2.9,2.7-4.7,5.5-4.5c2.5,0.2,4.5,2.5,4.5,5.3
	C18.9,20.9,18.9,21.9,18.9,23z"/>
</svg>
