<svg width="32" height="32" viewBox="0 0 32 32" fill="none" xmlns="http://www.w3.org/2000/svg">
<circle cx="15.6445" cy="16" r="15" fill="#1600FF" stroke="#1600FF"/>
<mask id="mask0" mask-type="alpha" maskUnits="userSpaceOnUse" x="6" y="10" width="11" height="12">
<path fill-rule="evenodd" clip-rule="evenodd" d="M6.71289 10H16.7309V21.6989H6.71289V10Z" fill="white"/>
</mask>
<g mask="url(#mask0)">
<path fill-rule="evenodd" clip-rule="evenodd" d="M11.7612 15.7886C10.1108 15.7886 8.76772 14.4908 8.76772 12.8948C8.76772 11.2988 10.1108 10 11.7612 10C13.4116 10 14.7546 11.2988 14.7546 12.8948C14.7546 14.4908 13.4116 15.7886 11.7612 15.7886ZM11.7609 10.6925C10.5057 10.6925 9.4834 11.6802 9.4834 12.895C9.4834 14.1088 10.5057 15.0965 11.7609 15.0965C13.0162 15.0965 14.0385 14.1088 14.0385 12.895C14.0385 11.6802 13.0162 10.6925 11.7609 10.6925ZM16.2866 21.6993H16.2943C16.489 21.6993 16.6484 21.5489 16.6522 21.3606L16.7315 19.3095C16.7315 17.6433 15.3292 16.2883 13.6063 16.2883H13.2617C13.2101 16.2883 13.1596 16.2984 13.1128 16.3197C12.2585 16.7 11.2724 16.7018 10.4095 16.3197C10.3627 16.2984 10.3112 16.2883 10.2606 16.2883H9.91697C8.19401 16.2883 6.79179 17.6433 6.79179 19.3021L6.71344 21.3458C6.7097 21.5369 6.86624 21.6947 7.06383 21.6993H7.07147C7.2662 21.6993 7.4256 21.5489 7.42942 21.3606L7.5077 19.3095C7.5077 18.0255 8.58824 16.9806 9.91697 16.9806H10.1842C11.1922 17.4043 12.3386 17.4024 13.3381 16.9806H13.6063C14.9341 16.9806 16.0156 18.0255 16.0156 19.3021L15.9363 21.3458C15.9325 21.5369 16.0891 21.6947 16.2866 21.6993Z" fill="white"/>
</g>
<mask id="mask1" mask-type="alpha" maskUnits="userSpaceOnUse" x="16" y="10" width="11" height="12">
<path fill-rule="evenodd" clip-rule="evenodd" d="M16.9917 10H26.7151V21.6989H16.9917V10Z" fill="#1600FF"/>
</mask>
<g mask="url(#mask1)">
<path fill-rule="evenodd" clip-rule="evenodd" d="M21.8911 15.7886C20.2892 15.7886 18.9857 14.4908 18.9857 12.8948C18.9857 11.2988 20.2892 10 21.8911 10C23.493 10 24.7965 11.2988 24.7965 12.8948C24.7965 14.4908 23.493 15.7886 21.8911 15.7886ZM21.8907 10.6925C20.6724 10.6925 19.6802 11.6802 19.6802 12.895C19.6802 14.1088 20.6724 15.0965 21.8907 15.0965C23.109 15.0965 24.1013 14.1088 24.1013 12.895C24.1013 11.6802 23.109 10.6925 21.8907 10.6925ZM26.2834 21.6993H26.2908C26.4798 21.6993 26.6345 21.5489 26.6382 21.3606L26.7151 19.3095C26.7151 17.6433 25.3542 16.2883 23.6819 16.2883H23.3474C23.2974 16.2883 23.2483 16.2984 23.2029 16.3197C22.3737 16.7 21.4167 16.7018 20.5791 16.3197C20.5337 16.2984 20.4837 16.2883 20.4346 16.2883H20.1011C18.4288 16.2883 17.0678 17.6433 17.0678 19.3021L16.9918 21.3458C16.9881 21.5369 17.1401 21.6947 17.3318 21.6993H17.3393C17.5283 21.6993 17.683 21.5489 17.6867 21.3606L17.7627 19.3095C17.7627 18.0255 18.8114 16.9806 20.1011 16.9806H20.3605C21.3388 17.4043 22.4515 17.4024 23.4215 16.9806H23.6819C24.9706 16.9806 26.0203 18.0255 26.0203 19.3021L25.9434 21.3458C25.9397 21.5369 26.0916 21.6947 26.2834 21.6993Z" fill="white"/>
</g>
</svg>
