<?xml version="1.0" encoding="utf-8"?>
<!-- Generator: Adobe Illustrator 24.1.0, SVG Export Plug-In . SVG Version: 6.00 Build 0)  -->
<svg version="1.1" id="Capa_1" xmlns="http://www.w3.org/2000/svg" xmlns:xlink="http://www.w3.org/1999/xlink" x="0px" y="0px"
	 width="548.2px" height="512px" viewBox="0 0 548.2 512" style="enable-background:new 0 0 548.2 512;" xml:space="preserve">
<style type="text/css">
	.st0{fill:#FFFFFF;}
</style>
<g>
	<g>
		<g>
			<g>
				<path class="st0" d="M436.5,234.1c-17.3,0-33.5-7.1-45.6-19.9c-11.9-12.6-18.6-29.3-18.8-47.1c-0.1-17.8,6.2-34.6,18-47.4
					c12.1-13.2,28.4-20.5,45.8-20.7l0.5,0c35.2,0,64.1,30.1,64.4,67c0.1,17.8-6.2,34.6-18,47.4c-12.1,13.2-28.4,20.5-45.8,20.7
					L436.5,234.1z M436.5,119.1l-0.4,0c-11.8,0.1-22.9,5.1-31.2,14.2c-8.3,9-12.8,21-12.7,33.7c0.1,12.7,4.8,24.6,13.3,33.5
					c8.4,8.8,19.4,13.7,31.1,13.7l0.4,0c11.8-0.1,22.9-5.1,31.2-14.2c8.3-9,12.8-21,12.7-33.7C480.6,140.2,460.7,119.1,436.5,119.1z
					"/>
			</g>
		</g>
	</g>
	<g>
		<g>
			<g>
				<path class="st0" d="M534.2,383.4H417.9c-5.3,0-9.7-4.2-10-9.5c-0.7-13.1-3.6-25.8-8.7-37.8c-5.7-13.4-13.8-25.4-24.1-35.7
					c-3.5-3.5-7.2-6.8-11.1-9.7c-2.4-1.8-3.8-4.6-3.9-7.5c-0.1-3,1.1-5.8,3.3-7.8c19.4-17.5,44.4-27.1,70.4-27.1h5.3
					c57.9,0,105,47.1,105,105v20.2C544.2,378.9,539.7,383.4,534.2,383.4z M427.1,363.4h97.1v-10.2c0-46.9-38.1-85-85-85h-5.3
					c-17.2,0-33.9,5.2-47.9,14.8c1.1,1.1,2.3,2.1,3.3,3.2c12.1,12.1,21.7,26.3,28.4,42.1C422.4,339.5,425.6,351.3,427.1,363.4z"/>
			</g>
		</g>
	</g>
</g>
<g>
	<g>
		<g>
			<path class="st0" d="M274.1,258.3c-40.4,0-73.3-34.6-73.3-77.1c0-42.5,32.9-77.1,73.3-77.1c40.4,0,73.3,34.6,73.3,77.1
				C347.4,223.7,314.5,258.3,274.1,258.3z M274.1,124.1c-29.4,0-53.3,25.6-53.3,57.1s23.9,57.1,53.3,57.1
				c29.4,0,53.3-25.6,53.3-57.1S303.5,124.1,274.1,124.1z"/>
		</g>
	</g>
</g>
<g>
	<g>
		<g>
			<path class="st0" d="M379.3,411.3H168.8c-5.5,0-10-4.5-10-10v-12.1c0-61.8,50.3-112.1,112.1-112.1h6.3c24.3,0,47.5,7.7,66.9,22.2
				c26.5,19.8,42.9,50,44.9,82.9c0.1,2.3,0.2,4.7,0.2,7.1v12.1C389.3,406.8,384.8,411.3,379.3,411.3z M178.8,391.3h190.5v-2.1
				c0-1.9-0.1-3.9-0.2-5.8c0,0,0,0,0,0c-1.7-27-15.1-51.8-36.9-68.1c-16-11.9-35-18.2-54.9-18.2h-6.3c-50.8,0-92.1,41.3-92.1,92.1
				V391.3z"/>
		</g>
	</g>
</g>
<g>
	<g>
		<g>
			<path class="st0" d="M112.8,234.1l-0.5,0c-17.5-0.1-33.8-7.5-45.9-20.7c-11.7-12.8-18.1-29.6-18-47.4l0,0
				c0.3-36.9,29.2-67,64.4-67l0.5,0c17.5,0.1,33.8,7.5,45.9,20.7c11.7,12.8,18.1,29.6,18,47.4c-0.1,17.8-6.8,34.5-18.8,47.1
				C146.2,227.1,130,234.1,112.8,234.1z M68.4,166.2c-0.1,12.7,4.4,24.7,12.7,33.7c8.3,9,19.4,14.1,31.3,14.2l0.4,0
				c11.7,0,22.8-4.9,31.1-13.7c8.4-8.9,13.2-20.8,13.3-33.5c0.1-12.7-4.4-24.7-12.7-33.7c-8.3-9-19.4-14.1-31.3-14.2l-0.3,0
				C88.6,119.1,68.7,140.2,68.4,166.2L68.4,166.2z"/>
		</g>
	</g>
</g>
<g>
	<g>
		<g>
			<path class="st0" d="M131.4,383.4H15.1c-5.5,0-10-4.5-10-10v-20.2c0-57.9,47.1-105,105-105h5.3c26,0,51,9.6,70.4,27.1
				c2.2,2,3.4,4.9,3.3,7.8c-0.1,3-1.6,5.7-3.9,7.5c-3.8,3-7.6,6.2-11.1,9.7c-10.3,10.3-18.4,22.3-24.1,35.7c-5.1,12-8,24.8-8.7,37.8
				C141.1,379.2,136.7,383.4,131.4,383.4z M25.1,363.4h97.1c1.5-12.1,4.7-23.9,9.4-35.1c6.7-15.8,16.2-29.9,28.4-42.1
				c1.1-1.1,2.2-2.2,3.3-3.2c-14.1-9.6-30.7-14.8-47.9-14.8h-5.3c-46.9,0-85,38.1-85,85V363.4z"/>
		</g>
	</g>
</g>
</svg>
