<svg width="45" height="32" viewBox="0 0 45 32" fill="none" xmlns="http://www.w3.org/2000/svg">
<path fill-rule="evenodd" clip-rule="evenodd" d="M5.563 3.55615H8.75504C9.56772 3.55704 10.2263 4.20044 10.2272 4.99439V20.4036C10.2263 21.1976 9.5677 21.8409 8.75504 21.8419H5.563C4.75034 21.8409 4.09178 21.1976 4.09082 20.4036V4.99439C4.09173 4.20044 4.75031 3.55704 5.563 3.55615ZM8.7551 20.7631C8.95836 20.7631 9.12314 20.6021 9.12314 20.4036V4.99432C9.12314 4.79575 8.95836 4.63477 8.7551 4.63477H5.56305C5.35979 4.63477 5.19501 4.79575 5.19501 4.99432V20.4036C5.19501 20.6021 5.35979 20.7631 5.56305 20.7631H8.7551Z" fill="#0073FF"/>
<path fill-rule="evenodd" clip-rule="evenodd" d="M11.25 5.07929C11.2499 3.95722 12.1655 3.04751 13.2952 3.04736C14.4245 3.04846 15.3397 3.95742 15.3409 5.07911C15.3409 6.20118 14.4252 7.11081 13.2956 7.11086C12.1659 7.11091 11.2501 6.20136 11.25 5.07929ZM12.3455 5.07923C12.3454 5.6004 12.7706 6.02299 13.2953 6.02314C13.8199 6.02274 14.245 5.60057 14.2456 5.07953C14.2457 4.55836 13.8204 4.13583 13.2957 4.13574C12.771 4.13566 12.3456 4.55806 12.3455 5.07923Z" fill="#0073FF"/>
<path fill-rule="evenodd" clip-rule="evenodd" d="M16.8755 5.07911C16.8755 3.95701 17.7913 3.04736 18.921 3.04736C20.0501 3.04866 20.9651 3.95755 20.9664 5.07911C20.9664 6.20121 20.0506 7.11086 18.921 7.11086C17.7913 7.11086 16.8755 6.20121 16.8755 5.07911ZM18.0425 5.44059C18.1895 5.79323 18.536 6.02317 18.9202 6.02317C19.4447 6.02257 19.8697 5.60047 19.8703 5.07956C19.8703 4.69786 19.6389 4.35373 19.2839 4.20763C18.9289 4.06154 18.5202 4.14225 18.2485 4.41214C17.9767 4.68203 17.8954 5.08794 18.0425 5.44059Z" fill="#0073FF"/>
<path fill-rule="evenodd" clip-rule="evenodd" d="M22.4995 5.07911C22.4995 3.95701 23.4153 3.04736 24.545 3.04736C25.6742 3.04856 26.5892 3.9575 26.5904 5.07911C26.5904 6.20121 25.6747 7.11086 24.545 7.11086C23.4153 7.11086 22.4995 6.20121 22.4995 5.07911ZM23.6676 5.44059C23.8146 5.79323 24.1611 6.02317 24.5454 6.02317C25.0698 6.02262 25.4948 5.60049 25.4954 5.07956C25.4955 4.69786 25.264 4.35373 24.909 4.20763C24.554 4.06154 24.1453 4.14225 23.8736 4.41214C23.6019 4.68203 23.5206 5.08794 23.6676 5.44059Z" fill="#0073FF"/>
<path d="M26.6448 23.873H26.0251C25.7726 23.873 25.5679 24.1005 25.5679 24.381C25.5679 24.6615 25.7726 24.8889 26.0251 24.8889H26.6448C26.8973 24.8889 27.102 24.6615 27.102 24.381C27.102 24.1005 26.8973 23.873 26.6448 23.873Z" fill="#0073FF"/>
<path d="M22.9721 23.873H16.4035C16.0992 23.873 15.8525 24.1005 15.8525 24.381C15.8525 24.6615 16.0992 24.8889 16.4035 24.8889H22.9721C23.2764 24.8889 23.523 24.6615 23.523 24.381C23.523 24.1005 23.2764 23.873 22.9721 23.873Z" fill="#0073FF"/>
<path d="M27.0683 20.3174H19.4667C19.1653 20.3174 18.9209 20.5448 18.9209 20.8253C18.9209 21.1058 19.1653 21.3333 19.4667 21.3333H27.0683C27.3697 21.3333 27.6141 21.1058 27.6141 20.8253C27.6141 20.5448 27.3697 20.3174 27.0683 20.3174Z" fill="#0073FF"/>
<path d="M16.8671 21.3333H16.8832C17.1612 21.3333 17.3865 21.1058 17.3865 20.8253C17.3865 20.5448 17.1612 20.3174 16.8832 20.3174H16.8671C16.5891 20.3174 16.3638 20.5448 16.3638 20.8253C16.3638 21.1058 16.5891 21.3333 16.8671 21.3333Z" fill="#0073FF"/>
<path d="M26.6008 17.2695H25.559C25.2818 17.2695 25.0571 17.4969 25.0571 17.7775C25.0571 18.058 25.2818 18.2854 25.559 18.2854H26.6008C26.8779 18.2854 27.1026 18.058 27.1026 17.7775C27.1026 17.4969 26.8779 17.2695 26.6008 17.2695Z" fill="#0073FF"/>
<path d="M16.3977 18.2854H22.4666C22.7676 18.2854 23.0117 18.058 23.0117 17.7775C23.0117 17.4969 22.7676 17.2695 22.4666 17.2695H16.3977C16.0966 17.2695 15.8525 17.4969 15.8525 17.7775C15.8525 18.058 16.0966 18.2854 16.3977 18.2854Z" fill="#0073FF"/>
<path fill-rule="evenodd" clip-rule="evenodd" d="M37.8445 17.6367V2.50315C37.8429 1.12135 36.7023 0.00158344 35.2948 0H2.54975C1.14223 0.00158344 0.00161292 1.12135 0 2.50315V22.8019C0.00161292 24.1837 1.14223 25.3035 2.54975 25.3051H13.7401V28.7934C13.7401 29.0909 13.9858 29.3321 14.2888 29.3321H29.2962C29.5992 29.3321 29.8449 29.0909 29.8449 28.7934V25.3051H30.3846C30.6531 29.179 34.0091 32.1421 37.9615 31.9947C41.9138 31.8474 45.0313 28.643 44.9998 24.7603C44.9683 20.8775 41.7992 17.7223 37.845 17.6368L37.8445 17.6367ZM12.3362 12.114V9.2627H31.2482V12.114H12.3362ZM14.8373 13.1909V28.2542H28.747V13.1909H14.8373ZM29.8451 13.1915H31.7974C32.1004 13.1915 32.3461 12.9503 32.3461 12.6527V8.72393C32.3461 8.42638 32.1004 8.18517 31.7974 8.18517H11.7878C11.4847 8.18517 11.239 8.42638 11.239 8.72393V12.6527C11.239 12.9503 11.4847 13.1915 11.7878 13.1915H13.7402V24.2277H2.54987C1.74821 24.2269 1.09854 23.5891 1.09769 22.8021V2.50327C1.09885 1.71639 1.74833 1.07877 2.54987 1.07764H35.2949C36.0964 1.07877 36.7459 1.71639 36.7471 2.50327V17.6936C33.326 18.1314 30.6794 20.8526 30.392 24.2277H29.8451V13.1915ZM31.463 24.8159C31.463 28.1881 34.2476 30.9218 37.6826 30.9218C41.1159 30.9179 43.8983 28.1865 43.9021 24.8159C43.9021 21.4437 41.1175 18.71 37.6826 18.71C34.2476 18.71 31.463 21.4437 31.463 24.8159Z" fill="#0073FF"/>
<path d="M40.9869 22.5133L36.3182 27.13L34.1783 25.0139C34.0393 24.8764 33.8367 24.8227 33.6467 24.873C33.4568 24.9234 33.3084 25.07 33.2575 25.2578C33.2066 25.4456 33.2609 25.646 33.4 25.7835L35.9287 28.2845C36.1436 28.497 36.4921 28.497 36.707 28.2845L41.7655 23.2828C41.9077 23.146 41.9644 22.9441 41.9139 22.7543C41.8634 22.5646 41.7135 22.4165 41.5216 22.3665C41.3298 22.3166 41.1256 22.3727 40.9872 22.5133H40.9869Z" fill="#0073FF"/>
</svg>
