<?xml version="1.0" encoding="utf-8"?>
<!-- Generator: Adobe Illustrator 23.1.1, SVG Export Plug-In . SVG Version: 6.00 Build 0)  -->
<svg version="1.1" id="Layer_1" xmlns="http://www.w3.org/2000/svg" xmlns:xlink="http://www.w3.org/1999/xlink" x="0px" y="0px"
	 width="77px" height="85px" viewBox="0 0 77 85" style="enable-background:new 0 0 77 85;" xml:space="preserve">
<style type="text/css">
	.st0{fill-rule:evenodd;clip-rule:evenodd;}
	.st1{fill-rule:evenodd;clip-rule:evenodd;fill:#FFFFFF;}
	.st2{filter:url(#Adobe_OpacityMaskFilter);}
	.st3{mask:url(#mask-2_2_);fill-rule:evenodd;clip-rule:evenodd;fill:#484848;}
	.st4{fill:none;stroke:#DAE0FF;stroke-width:1.6327;}
	.st5{fill-rule:evenodd;clip-rule:evenodd;fill-opacity:0.1;}
	.st6{fill-rule:evenodd;clip-rule:evenodd;fill:#E3E3E3;}
	.st7{fill-rule:evenodd;clip-rule:evenodd;fill:#0A2799;}
	.st8{fill-rule:evenodd;clip-rule:evenodd;fill:#000D40;}
	.st9{fill-rule:evenodd;clip-rule:evenodd;fill:#1600FF;}
	.st10{fill-rule:evenodd;clip-rule:evenodd;fill:#D8D8D8;}
	.st11{fill-rule:evenodd;clip-rule:evenodd;fill:#C3C2C2;}
	.st12{fill-rule:evenodd;clip-rule:evenodd;fill:#D0D0D0;}
</style>
<g id="Cherapp">
	<g id="desktop_property-logged-out_modal" transform="translate(-1070.000000, -376.000000)">
		<g id="Padding-Group-16" transform="translate(42.000000, 357.000000)">
			<g id="Group-4" transform="translate(1028.000000, 20.000000)">
				<g id="Rectangle-Copy-6" transform="translate(10.000000, 0.000000)">
					<g id="Combined-Shape">
						<g>
							<path class="st0" d="M8.4,68.9v-4.3l1.8,0l0-63.8h43.6l0,63.8l1.8,0v4.3H8.4z"/>
						</g>
						<g>
							<path class="st1" d="M8.4,68.9v-4.3l1.8,0l0-63.8h43.6l0,63.8l1.8,0v4.3H8.4z"/>
						</g>
					</g>
					<defs>
						<filter id="Adobe_OpacityMaskFilter" filterUnits="userSpaceOnUse" x="13.3" y="4.4" width="37.5" height="64.5">
							<feColorMatrix  type="matrix" values="1 0 0 0 0  0 1 0 0 0  0 0 1 0 0  0 0 0 1 0"/>
						</filter>
					</defs>
					<mask maskUnits="userSpaceOnUse" x="13.3" y="4.4" width="37.5" height="64.5" id="mask-2_2_">
						<g class="st2">
							<path id="path-1_2_" class="st1" d="M8.4,68.9v-4.3l1.8,0l0-63.8h43.6l0,63.8l1.8,0v4.3H8.4z"/>
						</g>
					</mask>
					<rect x="13.3" y="4.4" class="st3" width="37.5" height="64.5"/>
				</g>
				<polyline id="Path-8" class="st4" points="18.4,69 18.4,64.6 20.3,64.6 20.3,0.7 64.1,0.7 64.1,64.6 65.9,64.6 65.9,69 				"/>
				<polygon id="Path-7" class="st5" points="36,83.3 23.2,69 61.1,69 				"/>
				<polygon id="Rectangle" class="st1" points="35.5,15.6 59.5,4.5 61.1,4.5 38,17.1 38,82.3 35.5,81.4 				"/>
				<polygon id="Rectangle-Copy-7" class="st6" points="37.4,16.2 61.1,4.5 61.1,69.1 37.4,83.3 				"/>
				<g id="Group-3" transform="translate(32.000000, 54.000000)">
					<ellipse id="Oval" class="st7" cx="8.4" cy="1.3" rx="1.1" ry="1.9"/>
					<ellipse id="Oval-Copy-2" class="st8" cx="8.6" cy="1.3" rx="0.9" ry="0.9"/>
					<path class="st9" d="M13.7-0.4c0.1,0.2,0,0.5-0.2,0.6l-3,1.7C10,2.2,9.5,2.2,9,2L8.9,2C8.5,1.8,8.4,1.5,8.5,1.1
						C8.5,0.9,8.8,0.8,9,0.8c0,0,0.1,0,0.1,0.1l0,0c0.3,0.2,0.8,0.2,1.1,0l2.8-1.6C13.3-0.7,13.5-0.6,13.7-0.4
						C13.6-0.4,13.7-0.4,13.7-0.4z"/>
				</g>
				<path class="st9" d="M23,27.3l9.6,9l-9.6,9l0-4.9l-14.1,0v-9l14.1,0L23,27.3z"/>
				<rect x="61.1" y="13" class="st10" width="0.9" height="1.9"/>
				<polygon id="Rectangle-Copy-8" class="st11" points="61.1,13 60.2,13.6 60.2,15.9 61.1,15.3 				"/>
				<rect id="Rectangle-Copy-10" x="61.1" y="58.6" class="st10" width="0.9" height="1.9"/>
				<polygon id="Rectangle-Copy-9" class="st11" points="61.1,58.6 60.2,59.2 60.2,61.4 61.1,60.9 				"/>
				<g>
					<g>
						<path id="path-4" class="st12" d="M55.4,14.9v30.7l-1,0.5c-0.9-1.7-2.9-2.6-4.8-1.9c-3.1,1-5.2,3.9-5.3,7.1l-1.2,0.6V21.2
							l2.3-1.1c0.5-2.1,2.1-3.9,4.2-4.7c1.3-0.5,2.6-0.1,3.5,0.8L55.4,14.9z"/>
					</g>
					<g>
						<path class="st0" d="M55.4,14.9v30.7l-1,0.5c-0.9-1.7-2.9-2.6-4.8-1.9c-3.1,1-5.2,3.9-5.3,7.1l-1.2,0.6V21.2l2.3-1.1
							c0.5-2.1,2.1-3.9,4.2-4.7c1.3-0.5,2.6-0.1,3.5,0.8L55.4,14.9z"/>
					</g>
				</g>
				<g id="Combined-Shape-Copy-2">
					<g>
						<path id="path-6" class="st12" d="M55.4,14.9v30.7l-1.8,0.9c-1-0.7-2.3-0.9-3.5-0.5c-2.3,0.8-4,2.5-4.8,4.7l-2.3,1.2V21.2
							l2.3-1.1c0.5-2.1,2.1-3.9,4.2-4.7c1.3-0.5,2.6-0.1,3.5,0.8L55.4,14.9z"/>
					</g>
					<g>
						<path class="st0" d="M55.4,14.9v30.7l-1.8,0.9c-1-0.7-2.3-0.9-3.5-0.5c-2.3,0.8-4,2.5-4.8,4.7l-2.3,1.2V21.2l2.3-1.1
							c0.5-2.1,2.1-3.9,4.2-4.7c1.3-0.5,2.6-0.1,3.5,0.8L55.4,14.9z"/>
					</g>
				</g>
				<g id="Combined-Shape-Copy">
					<g>
						<path id="path-8" class="st12" d="M55.4,51.9v13.5l-12.3,7.4V58.1l3-1.5c0.6-1.9,2.1-3.5,4.1-4.3c1.2-0.4,2.4-0.2,3.3,0.6
							L55.4,51.9z"/>
					</g>
					<g>
						<path class="st0" d="M55.4,51.9v13.5l-12.3,7.4V58.1l3-1.5c0.6-1.9,2.1-3.5,4.1-4.3c1.2-0.4,2.4-0.2,3.3,0.6L55.4,51.9z"/>
					</g>
				</g>
			</g>
		</g>
	</g>
</g>
</svg>
