<svg width="72" height="80" viewBox="0 0 72 80" fill="none" xmlns="http://www.w3.org/2000/svg">
<path d="M14.9031 56.8219L22.3297 54.3469L24.9953 49.0141C22.5938 46.5688 20.925 43.3344 20.3641 39.9609L20.0312 37.9688H17.1875C14.6031 37.9688 12.5 35.8656 12.5 33.2812V23.4375C12.5 10.5141 23.0141 0 35.9375 0C48.8937 0 59.375 10.4844 59.375 23.4375V33.2812C59.375 35.3187 58.0688 37.0547 56.25 37.7V39.5312C56.25 42.1156 54.1469 44.2188 51.5625 44.2188H50.1906C49.5125 45.6906 48.6359 47.0531 47.5703 48.2766C47.3484 48.5312 47.1187 48.7781 46.8812 49.0172L49.5453 54.3469L56.9719 56.8219C65.6078 59.7016 71.875 68.7922 71.875 78.4375C71.875 79.3 71.175 80 70.3125 80H1.5625C0.699997 80 0 79.3 0 78.4375C0 68.7922 6.26719 59.7016 14.9031 56.8219ZM15.625 33.2812C15.625 34.1422 16.3266 34.8438 17.1875 34.8438H19.5719C19.175 31.7672 18.9094 28.4937 18.8031 25.2687C18.8 25.1781 18.7969 25.0891 18.7953 25H15.625V33.2812ZM54.6875 34.8438C55.5484 34.8438 56.25 34.1422 56.25 33.2812V25H53.0781C53.0734 25.1625 53.0672 25.3266 53.0609 25.4922C53.0609 25.4984 53.0609 25.5031 53.0609 25.5094V25.5109C52.9516 28.6469 52.6906 31.8359 52.3016 34.8453L54.6875 34.8438ZM51.5625 41.0938C52.4234 41.0938 53.125 40.3922 53.125 39.5312V37.9688H51.8438L51.5109 39.9625C51.4469 40.3406 51.3703 40.7188 51.2797 41.0938H51.5625ZM53.1219 21.875H56.1906C55.3984 11.4031 46.6594 3.125 35.9375 3.125C25.2625 3.125 16.4844 11.4016 15.6844 21.875H18.7531C18.8656 13.2453 25.8922 6.25 34.5391 6.25H37.3359C45.9828 6.25 53.0094 13.2453 53.1219 21.875ZM37.3359 9.375H34.5391C27.5375 9.375 21.8703 15.1016 21.875 22.0953C21.875 22.5875 21.8781 23.0156 21.8875 23.4047C21.8875 23.4094 21.8875 23.4156 21.8875 23.4203L23.8422 23.1406C29.1516 22.3828 34.1641 19.8766 37.9578 16.0828C38.2516 15.7891 38.6484 15.625 39.0625 15.625C43.2594 15.625 47.275 17.5375 49.9312 20.7672C49.2766 14.4047 43.8984 9.375 37.3359 9.375ZM48.0406 41.0938C48.8234 38.4922 49.7172 30.8359 49.9156 25.9297L47.8125 23.125C45.8813 20.55 42.8766 18.9516 39.6797 18.7672C35.4734 22.7703 30.0328 25.4125 24.2828 26.2344L21.9828 26.5625C22.1359 29.825 22.45 33.1 22.9016 36.1125C22.9016 36.1141 22.9016 36.1141 22.9016 36.1156C23.0453 37.0844 23.1578 37.7062 23.4453 39.4469C24.2734 44.4094 27.9766 48.8984 32.8656 50.1203C34.8781 50.6219 36.9969 50.6219 39.0078 50.1203C42.0609 49.3578 44.8594 47.2453 46.6656 44.2172H43.4797C42.8344 46.0359 41.0984 47.3422 39.0609 47.3422H35.9359C33.3453 47.3422 31.2484 45.2453 31.2484 42.6547C31.2484 40.0703 33.3516 37.9672 35.9359 37.9672H39.0609C41.1438 37.9672 42.8547 39.3125 43.4828 41.0922H48.0406V41.0938ZM39.1937 53.2844C38.1219 53.5109 37.0297 53.625 35.9375 53.625C35.0828 53.625 34.2281 53.5531 33.3828 53.4141L36.1438 56.3344L39.1937 53.2844ZM38.2922 58.6062L43.2484 63.8469C44.6125 61.2359 45.7859 58.5172 46.7469 55.7344L44.8859 52.0125L38.2922 58.6062ZM27.2547 51.4828L25.1297 55.7344C26.0922 58.5219 27.2656 61.2406 28.6281 63.8484L33.9328 58.5437L27.2547 51.4828ZM40.625 42.6562C40.625 41.7938 39.925 41.0938 39.0625 41.0938H35.9375C35.0766 41.0938 34.375 41.7953 34.375 42.6562C34.375 43.5187 35.075 44.2188 35.9375 44.2188H39.0625C39.9234 44.2188 40.625 43.5172 40.625 42.6562ZM68.6875 76.875C68.0688 69.1344 62.9172 62.0984 55.9844 59.7875L49.4078 57.5953C48.2031 60.9281 46.7094 64.1656 44.9609 67.2422C44.9578 67.2469 44.9547 67.2531 44.9516 67.2578C43.6734 69.5062 42.2344 71.7031 40.675 73.7891L38.7531 76.875H68.6875ZM35.9375 75.4828L38.0563 72.0813C38.0797 72.0438 38.1047 72.0062 38.1328 71.9703C39.3984 70.2828 40.5781 68.5172 41.6531 66.7109L36.0812 60.8187L30.2094 66.6906C31.2922 68.5109 32.4766 70.2828 33.7422 71.9719C33.8187 72.0703 33.7094 71.9094 35.9375 75.4828ZM33.1234 76.875L31.2016 73.7891C29.6344 71.6953 28.1859 69.4812 26.8953 67.2063C26.8875 67.1922 26.8797 67.1781 26.8719 67.1641C26.8703 67.1625 26.8703 67.1609 26.8687 67.1594C25.1422 64.1125 23.6641 60.9016 22.4688 57.5953L15.8922 59.7875C8.95937 62.1 3.80782 69.1344 3.18906 76.875H33.1234Z" fill="#1600FF"/>
</svg>
