<svg width="24" height="24" viewBox="0 0 24 24" fill="none" xmlns="http://www.w3.org/2000/svg">
<path fill-rule="evenodd" clip-rule="evenodd" d="M22 20V13H20V20H4V3.99997H11V1.99997H4C2.89543 1.99997 2 2.8954 2 3.99997V20C2 21.1045 2.89543 22 4 22H20C21.1046 22 22 21.1045 22 20ZM19.1781 2.7234C18.7197 2.26139 18.0921 1.99997 17.4374 1.99997C16.7834 1.99997 16.1564 2.2608 15.6954 2.7246L7.3265 11.0934C6.57867 11.7523 6.08844 12.7328 6.00325 13.7873L6 17.0023V18.0023H10.1346C11.2689 17.9245 12.259 17.4295 12.9575 16.6237L21.279 8.30581C21.7407 7.84413 22.0001 7.21796 22.0001 6.56505C22.0001 5.91214 21.7407 5.28597 21.279 4.8243L19.1781 2.7234ZM10.064 16.0048C10.5982 15.967 11.0955 15.7183 11.4948 15.2616L17.5567 9.19968L14.8024 6.44523L8.6961 12.5495C8.29095 12.9079 8.04031 13.4092 8 13.8678V16.0029L10.064 16.0048ZM16.2168 5.03125L18.9709 7.78547L19.8648 6.89157C19.9514 6.80496 20.0001 6.6875 20.0001 6.56503C20.0001 6.44255 19.9514 6.32509 19.8648 6.23848L17.7611 4.1348C17.6755 4.04849 17.5589 3.99995 17.4374 3.99995C17.3158 3.99995 17.1992 4.04849 17.1136 4.1348L16.2168 5.03125Z" fill="#1600FF"/>
</svg>
