<svg width="24" height="24" viewBox="0 0 24 24" fill="none" xmlns="http://www.w3.org/2000/svg">
<path fill-rule="evenodd" clip-rule="evenodd" d="M13.1096 22.7732C13.1096 23.5549 13.8236 24.1412 14.5738 23.9702C19.9827 22.7487 24 17.8507 24 12C24 6.14927 19.9827 1.25127 14.5738 0.0298243C13.8236 -0.141178 13.1096 0.445116 13.1096 1.22684V22.7732ZM10.6533 1.22684V9.54489C10.6533 10.2167 10.1087 10.7663 9.44322 10.7663H1.22705C0.452621 10.7663 -0.128201 10.0457 0.0412064 9.27617C1.06974 4.68354 4.63936 1.06805 9.17701 0.0298243C9.93933 -0.141178 10.6533 0.445116 10.6533 1.22684ZM10.6533 22.7732V14.4551C10.6533 13.7833 10.1087 13.2337 9.43112 13.2214H1.21494C0.452621 13.2214 -0.140299 13.9543 0.0291061 14.7116C1.05764 19.3042 4.62726 22.9319 9.17701 23.9702C9.93933 24.1412 10.6533 23.5549 10.6533 22.7732Z" fill="#1600FF"/>
</svg>
