<?xml version="1.0" encoding="UTF-8"?>
<svg width="1095px" height="1095px" viewBox="0 0 1095 1095" version="1.1" xmlns="http://www.w3.org/2000/svg" xmlns:xlink="http://www.w3.org/1999/xlink">
    <!-- Generator: Sketch 43.1 (39012) - http://www.bohemiancoding.com/sketch -->
    <title>Group 3</title>
    <desc>Created with Sketch.</desc>
    <defs></defs>
    <g id="Page-1" stroke="none" stroke-width="1" fill="none" fill-rule="evenodd">
        <g id="Group-3" fill-rule="nonzero">
            <g id="ico-search">
                <path d="M39.3821247,385.880881 C39.3821247,194.514902 194.514902,39.3821247 385.880881,39.3821247 C577.24686,39.3821247 732.379637,194.514902 732.379637,385.880881 C732.379637,577.24686 577.24686,732.379637 385.880881,732.379637 C194.602396,732.168574 39.593188,577.159367 39.3821247,385.880881 L39.3821247,385.880881 Z" id="Path" fill="#DDD9FF"></path>
                <path d="M386,76 L386,76 C557.129119,76.190942 695.809058,214.870881 696,386 C696,557.208272 557.208272,696 386,696 C214.791728,696 76,557.208272 76,386 C76,214.791728 214.791728,76 386,76 Z M386,659.529412 C536.995303,659.358574 659.358574,536.995303 659.529412,386 C659.529412,234.933877 537.066123,112.470588 386,112.470588 C234.933877,112.470588 112.470588,234.933877 112.470588,386 C112.470588,537.066123 234.933877,659.529412 386,659.529412 Z" id="Shape" fill="#4431F4"></path>
                <path d="M759.096515,630.144268 C751.862069,623.303231 740.544159,623.303231 733.309713,630.144268 L720.416312,643.019432 L692.258729,614.788902 C813.08708,453.322246 788.610124,225.933925 636.186214,93.8811973 C483.762304,-38.1715305 255.20646,-29.9986287 112.603916,112.603916 C-29.9986287,255.20646 -38.1715305,483.762304 93.8811973,636.186214 C225.933925,788.610124 453.322246,813.08708 614.788902,692.258729 L643.019432,720.416312 L630.144268,733.309713 C623.024959,740.431172 623.024959,751.975057 630.144268,759.096515 L939.622367,1068.57461 C975.276792,1103.9181 1032.79356,1103.79215 1068.29286,1068.29286 C1103.79215,1032.79356 1103.9181,975.276792 1068.57461,939.622367 L759.096515,630.144268 Z M39.3821247,385.880881 C39.3821247,194.514902 194.514902,39.3821247 385.880881,39.3821247 C577.24686,39.3821247 732.379637,194.514902 732.379637,385.880881 C732.379637,577.24686 577.24686,732.379637 385.880881,732.379637 C194.602396,732.168574 39.593188,577.159367 39.3821247,385.880881 L39.3821247,385.880881 Z M668.842708,643.019432 L694.556563,668.733287 L668.733287,694.556563 L643.019432,668.842708 C652.052715,660.660474 660.660474,652.052715 668.842708,643.019432 Z M1042.78781,1042.78781 C1021.12615,1063.43301 987.070832,1063.43301 965.409169,1042.78781 L668.824471,746.203114 L746.203114,668.824471 L1042.78781,965.409169 C1053.04999,975.669613 1058.81537,989.586804 1058.81537,1004.09849 C1058.81537,1018.61018 1053.04999,1032.52737 1042.78781,1042.78781 L1042.78781,1042.78781 Z M386,76 L386,76 C557.129119,76.190942 695.809058,214.870881 696,386 C696,557.208272 557.208272,696 386,696 C214.791728,696 76,557.208272 76,386 C76,214.791728 214.791728,76 386,76 Z M386,659.529412 C536.995303,659.358574 659.358574,536.995303 659.529412,386 C659.529412,234.933877 537.066123,112.470588 386,112.470588 C234.933877,112.470588 112.470588,234.933877 112.470588,386 C112.470588,537.066123 234.933877,659.529412 386,659.529412 Z" id="Combined-Shape" fill="#4431F4"></path>
                <path d="M1042.78781,1042.78781 C1021.12615,1063.43301 987.070832,1063.43301 965.409169,1042.78781 L668.824471,746.203114 L746.203114,668.824471 L1042.78781,965.409169 C1053.04999,975.669613 1058.81537,989.586804 1058.81537,1004.09849 C1058.81537,1018.61018 1053.04999,1032.52737 1042.78781,1042.78781 L1042.78781,1042.78781 Z" id="Shape" fill="#DDD9FF"></path>
                <path d="M386,659.529412 C234.933877,659.529412 112.470588,537.066123 112.470588,386 C112.470588,234.933877 234.933877,112.470588 386,112.470588 C537.066123,112.470588 659.529412,234.933877 659.529412,386 C659.358574,536.995303 536.995303,659.358574 386,659.529412 Z" id="Shape" fill="#FFFFFF"></path>
                <polygon id="Shape" fill="#4431F4" transform="translate(997.000000, 997.000000) rotate(-45.000000) translate(-997.000000, -997.000000) " points="979 979 1015 979 1015 1015 979 1015"></polygon>
                <polygon id="Shape" fill="#4431F4" transform="translate(907.000000, 907.000000) rotate(-45.000000) translate(-907.000000, -907.000000) " points="889 834 925 834 925 980 889 980"></polygon>
                <path d="M386,367.6 C355.845253,367.6 331.4,343.154747 331.4,313 C331.4,282.845253 355.845253,258.4 386,258.4 C416.154747,258.4 440.6,282.845253 440.6,313 C440.6,343.154747 416.154747,367.6 386,367.6 Z" id="Path" fill="#FFFFFF"></path>
            </g>
            <g id="binary" transform="translate(231.000000, 238.000000)" fill="#4431F4">
                <path d="M109.555556,203 L98.4444444,203 C87.7217883,203 79,211.791563 79,222.6 L79,267.4 C79,278.208437 87.7217883,287 98.4444444,287 L109.555556,287 C120.278212,287 129,278.208437 129,267.4 L129,222.6 C129,211.791563 120.278212,203 109.555556,203 Z M112.333333,267.4 C112.333333,268.944375 111.087673,270.2 109.555556,270.2 L98.4444444,270.2 C96.9123267,270.2 95.6666667,268.944375 95.6666667,267.4 L95.6666667,222.6 C95.6666667,221.055625 96.9123267,219.8 98.4444444,219.8 L109.555556,219.8 C111.087673,219.8 112.333333,221.055625 112.333333,222.6 L112.333333,267.4 Z" id="Shape"></path>
                <path d="M41.6666667,270.2 L33.3333333,270.2 L33.3333333,211.4 C33.3333333,206.760313 29.6028644,203 25,203 L8.33333333,203 C3.73046889,203 0,206.760313 0,211.4 C0,216.039687 3.73046889,219.8 8.33333333,219.8 L16.6666667,219.8 L16.6666667,270.2 L8.33333333,270.2 C3.73046889,270.2 0,273.960313 0,278.6 C0,283.239687 3.73046889,287 8.33333333,287 L41.6666667,287 C46.2695311,287 50,283.239687 50,278.6 C50,273.960313 46.2695311,270.2 41.6666667,270.2 Z" id="Shape"></path>
                <path d="M266.555556,203 L255.444444,203 C244.721788,203 236,211.791563 236,222.6 L236,267.4 C236,278.208437 244.721788,287 255.444444,287 L266.555556,287 C277.278212,287 286,278.208437 286,267.4 L286,222.6 C286,211.791563 277.278212,203 266.555556,203 Z M269.333333,267.4 C269.333333,268.944375 268.087673,270.2 266.555556,270.2 L255.444444,270.2 C253.912327,270.2 252.666667,268.944375 252.666667,267.4 L252.666667,222.6 C252.666667,221.055625 253.912327,219.8 255.444444,219.8 L266.555556,219.8 C268.087673,219.8 269.333333,221.055625 269.333333,222.6 L269.333333,267.4 Z" id="Shape"></path>
                <path d="M198.666667,270.2 L190.333333,270.2 L190.333333,211.4 C190.333333,206.760313 186.602864,203 182,203 L165.333333,203 C160.730469,203 157,206.760313 157,211.4 C157,216.039687 160.730469,219.8 165.333333,219.8 L173.666667,219.8 L173.666667,270.2 L165.333333,270.2 C160.730469,270.2 157,273.960313 157,278.6 C157,283.239687 160.730469,287 165.333333,287 L198.666667,287 C203.269531,287 207,283.239687 207,278.6 C207,273.960313 203.269531,270.2 198.666667,270.2 Z" id="Shape"></path>
                <path d="M109.555556,101 L98.4444444,101 C87.7217883,101 79,109.791563 79,120.6 L79,165.4 C79,176.208437 87.7217883,185 98.4444444,185 L109.555556,185 C120.278212,185 129,176.208437 129,165.4 L129,120.6 C129,109.791563 120.278212,101 109.555556,101 Z M112.333333,165.4 C112.333333,166.944375 111.087673,168.2 109.555556,168.2 L98.4444444,168.2 C96.9123267,168.2 95.6666667,166.944375 95.6666667,165.4 L95.6666667,120.6 C95.6666667,119.055625 96.9123267,117.8 98.4444444,117.8 L109.555556,117.8 C111.087673,117.8 112.333333,119.055625 112.333333,120.6 L112.333333,165.4 Z" id="Shape"></path>
                <path d="M41.6666667,168.2 L33.3333333,168.2 L33.3333333,109.4 C33.3333333,104.760313 29.6028644,101 25,101 L8.33333333,101 C3.73046889,101 0,104.760313 0,109.4 C0,114.039687 3.73046889,117.8 8.33333333,117.8 L16.6666667,117.8 L16.6666667,168.2 L8.33333333,168.2 C3.73046889,168.2 0,171.960313 0,176.6 C0,181.239687 3.73046889,185 8.33333333,185 L41.6666667,185 C46.2695311,185 50,181.239687 50,176.6 C50,171.960313 46.2695311,168.2 41.6666667,168.2 Z" id="Shape"></path>
                <path d="M187.555556,101 L176.444444,101 C165.721788,101 157,109.791563 157,120.6 L157,165.4 C157,176.208437 165.721788,185 176.444444,185 L187.555556,185 C198.278212,185 207,176.208437 207,165.4 L207,120.6 C207,109.791563 198.278212,101 187.555556,101 Z M190.333333,165.4 C190.333333,166.944375 189.087673,168.2 187.555556,168.2 L176.444444,168.2 C174.912327,168.2 173.666667,166.944375 173.666667,165.4 L173.666667,120.6 C173.666667,119.055625 174.912327,117.8 176.444444,117.8 L187.555556,117.8 C189.087673,117.8 190.333333,119.055625 190.333333,120.6 L190.333333,165.4 Z" id="Shape"></path>
                <path d="M277.666667,168.2 L269.333333,168.2 L269.333333,109.4 C269.333333,104.760313 265.602864,101 261,101 L244.333333,101 C239.730469,101 236,104.760313 236,109.4 C236,114.039687 239.730469,117.8 244.333333,117.8 L252.666667,117.8 L252.666667,168.2 L244.333333,168.2 C239.730469,168.2 236,171.960313 236,176.6 C236,181.239687 239.730469,185 244.333333,185 L277.666667,185 C282.269531,185 286,181.239687 286,176.6 C286,171.960313 282.269531,168.2 277.666667,168.2 Z" id="Shape"></path>
                <path d="M30.5555556,0 L19.4444444,0 C8.72178833,0 0,8.79156264 0,19.6 L0,64.4 C0,75.2084374 8.72178833,84 19.4444444,84 L30.5555556,84 C41.2782117,84 50,75.2084374 50,64.4 L50,19.6 C50,8.79156264 41.2782117,0 30.5555556,0 Z M33.3333333,64.4 C33.3333333,65.9443747 32.0876733,67.2 30.5555556,67.2 L19.4444444,67.2 C17.9123267,67.2 16.6666667,65.9443747 16.6666667,64.4 L16.6666667,19.6 C16.6666667,18.0556253 17.9123267,16.8 19.4444444,16.8 L30.5555556,16.8 C32.0876733,16.8 33.3333333,18.0556253 33.3333333,19.6 L33.3333333,64.4 Z" id="Shape"></path>
                <path d="M120.666667,67.2 L112.333333,67.2 L112.333333,8.4 C112.333333,3.76031264 108.602864,0 104,0 L87.3333333,0 C82.7304689,0 79,3.76031264 79,8.4 C79,13.0396874 82.7304689,16.8 87.3333333,16.8 L95.6666667,16.8 L95.6666667,67.2 L87.3333333,67.2 C82.7304689,67.2 79,70.9603126 79,75.6 C79,80.2396874 82.7304689,84 87.3333333,84 L120.666667,84 C125.269531,84 129,80.2396874 129,75.6 C129,70.9603126 125.269531,67.2 120.666667,67.2 Z" id="Shape"></path>
                <path d="M266.555556,0 L255.444444,0 C244.721788,0 236,8.79156264 236,19.6 L236,64.4 C236,75.2084374 244.721788,84 255.444444,84 L266.555556,84 C277.278212,84 286,75.2084374 286,64.4 L286,19.6 C286,8.79156264 277.278212,0 266.555556,0 Z M269.333333,64.4 C269.333333,65.9443747 268.087673,67.2 266.555556,67.2 L255.444444,67.2 C253.912327,67.2 252.666667,65.9443747 252.666667,64.4 L252.666667,19.6 C252.666667,18.0556253 253.912327,16.8 255.444444,16.8 L266.555556,16.8 C268.087673,16.8 269.333333,18.0556253 269.333333,19.6 L269.333333,64.4 Z" id="Shape"></path>
                <path d="M198.666667,67.2 L190.333333,67.2 L190.333333,8.4 C190.333333,3.76031264 186.602864,0 182,0 L165.333333,0 C160.730469,0 157,3.76031264 157,8.4 C157,13.0396874 160.730469,16.8 165.333333,16.8 L173.666667,16.8 L173.666667,67.2 L165.333333,67.2 C160.730469,67.2 157,70.9603126 157,75.6 C157,80.2396874 160.730469,84 165.333333,84 L198.666667,84 C203.269531,84 207,80.2396874 207,75.6 C207,70.9603126 203.269531,67.2 198.666667,67.2 Z" id="Shape"></path>
            </g>
        </g>
    </g>
</svg>