<svg width="40" height="40" viewBox="0 0 40 40" fill="none" xmlns="http://www.w3.org/2000/svg">
<path d="M37.4194 33.5484V13.5484C37.4194 11.7677 35.9742 10.3226 34.1935 10.3226H32.2581V0H7.74194V10.3226H5.80645C4.02581 10.3226 2.58065 11.7677 2.58065 13.5484V33.5484H0V37.3613C0 38.8194 1.18065 40 2.63871 40H37.3677C38.8194 40 40.0065 38.8194 40.0065 37.3613V33.5484H37.4194ZM34.1935 11.6129C35.2581 11.6129 36.129 12.4839 36.129 13.5484V33.5484H34.8387V12.9032H32.2581V11.6129H34.1935ZM16.7742 34.8387H23.2258V36.129H16.7742V34.8387ZM6.45161 33.5484V14.1935H7.74194V30.3226H32.2581V14.1935H33.5484V33.5484H6.45161ZM9.03226 1.29032H30.9677V29.0323H9.03226V1.29032ZM3.87097 13.5484C3.87097 12.4839 4.74194 11.6129 5.80645 11.6129H7.74194V12.9032H5.16129V33.5484H3.87097V13.5484ZM38.7097 37.3613C38.7097 38.1032 38.1032 38.7097 37.3613 38.7097H2.63871C1.89677 38.7097 1.29032 38.1032 1.29032 37.3613V34.8387H15.4839V37.4194H24.5161V34.8387H38.7097V37.3613Z" fill="#9CAFC8"/>
<path d="M27.7419 10.3226C27.7419 6.05166 24.271 2.58069 20 2.58069C15.729 2.58069 12.2581 6.05166 12.2581 10.3226C12.2581 14.5936 15.729 18.0646 20 18.0646C24.271 18.0646 27.7419 14.5936 27.7419 10.3226ZM16.7742 15.9033V14.8388C16.7742 13.0581 18.2193 11.6129 20 11.6129C21.7806 11.6129 23.2258 13.0581 23.2258 14.8388V15.9033C22.2774 16.4517 21.1742 16.7742 20 16.7742C18.8258 16.7742 17.7226 16.4517 16.7742 15.9033ZM18.0645 8.38714C18.0645 7.32262 18.9355 6.45166 20 6.45166C21.0645 6.45166 21.9355 7.32262 21.9355 8.38714C21.9355 9.45166 21.0645 10.3226 20 10.3226C18.9355 10.3226 18.0645 9.45166 18.0645 8.38714ZM24.5161 14.9226V14.8388C24.5161 13.0968 23.5226 11.5871 22.0774 10.8323C22.7742 10.2388 23.2258 9.36779 23.2258 8.38714C23.2258 6.6065 21.7806 5.16133 20 5.16133C18.2193 5.16133 16.7742 6.6065 16.7742 8.38714C16.7742 9.36779 17.2258 10.2388 17.9226 10.8323C16.4774 11.5871 15.4839 13.0968 15.4839 14.8388V14.9226C14.2903 13.7484 13.5484 12.1226 13.5484 10.3226C13.5484 6.76779 16.4452 3.87101 20 3.87101C23.5548 3.87101 26.4516 6.76779 26.4516 10.3226C26.4516 12.1226 25.7097 13.7484 24.5161 14.9226Z" fill="#9CAFC8"/>
<path d="M10.3226 25.1613H19.3549V18.7097H10.3226V25.1613ZM11.613 20H18.0646V23.871H11.613V20Z" fill="#9CAFC8"/>
<path d="M19.3549 26.4517H10.3226V27.742H19.3549V26.4517Z" fill="#9CAFC8"/>
<path d="M20.6451 25.1613H29.6774V18.7097H20.6451V25.1613ZM21.9355 20H28.3871V23.871H21.9355V20Z" fill="#9CAFC8"/>
<path d="M29.6774 26.4517H28.3871V27.742H29.6774V26.4517Z" fill="#9CAFC8"/>
<path d="M27.0968 26.4517H20.6451V27.742H27.0968V26.4517Z" fill="#9CAFC8"/>
</svg>
