<?xml version="1.0" encoding="UTF-8"?>
<svg width="192px" height="103px" viewBox="0 0 192 103" version="1.1" xmlns="http://www.w3.org/2000/svg" xmlns:xlink="http://www.w3.org/1999/xlink">
    <title>Group 8</title>
    <g id="Onboarding" stroke="none" stroke-width="1" fill="none" fill-rule="evenodd">
        <g id="desktop_onboarding-copy" transform="translate(-545.000000, -178.000000)" fill="#1600FF" fill-rule="nonzero">
            <g id="Group-8" transform="translate(545.000000, 178.000000)">
                <g id="Group" transform="translate(49.000000, 25.000000)">
                    <path d="M1.1,2.6 L1.1,2.6 C2.6,3.3 4.2,3.9 5.8,4.4 L11.5,33.3 C11.5,33.7 11.8,34 12.2,34.1 L12.4,34.1 C12.7,34.1 13,34 13.2,33.7 L31,10.2 L33.4,10.5 L45.1,37.7 C45.3,38.1 45.6,38.3 46,38.3 C46.4,38.3 46.7,38.1 46.9,37.7 L59.5,10.5 L62,10.2 L79.1,34.6 C79.2,34.9 79.6,35 79.9,35 L80.1,35 C80.5,34.9 80.8,34.6 80.9,34.2 L86.9,4.5 C89,3.8 91,3 92.9,2.2 C93.4,2 93.6,1.4 93.5,0.9 C93.3,0.4 92.7,0.1 92.2,0.3 L92.2,0.3 C81.7,4.7 70.6,7.4 59.3,8.5 L58.4,8.6 C54.4,9 50.5,9.2 46.5,9.2 C31.2,9.3 16,6.5 1.8,0.8 C1.3,0.6 0.7,0.8 0.5,1.3 C0.3,1.8 0.6,2.4 1.1,2.6 Z M84.7,5.3 L79.4,31.5 L64.2,9.9 C71.2,9 78,7.5 84.7,5.3 Z M46.5,11.2 C50.2,11.2 53.7,11 57.2,10.7 L46,34.8 L35.7,10.7 C39.2,11 42.8,11.2 46.5,11.2 Z M28.8,10 L13,30.8 L8,5.2 C14.8,7.5 21.7,9.1 28.8,10 Z" id="Shape"></path>
                    <path d="M93.5,40.3 L93.5,40.3 C93.3,39.8 92.7,39.6 92.2,39.8 C81.7,44.1 70.6,46.9 59.3,48 L58.4,48.1 C54.5,48.4 50.5,48.6 46.5,48.6 C31.2,48.7 16,45.9 1.8,40.3 C1.4,40.1 0.8,40.2 0.6,40.6 C0.6,40.7 0.5,40.7 0.5,40.8 C0.3,41.3 0.6,41.9 1.1,42.1 L1.1,42.1 L5.8,43.9 L11.5,72.8 C11.5,73.2 11.8,73.5 12.2,73.6 L12.4,73.6 C12.8,73.6 13.1,73.5 13.2,73.2 L31,49.7 L33.4,50 L45.1,77.2 C45.3,77.6 45.6,77.8 46,77.8 C46.4,77.8 46.7,77.5 46.9,77.2 L59.5,50 L62,49.7 L79.1,74.1 C79.3,74.4 79.6,74.5 79.9,74.5 L80.1,74.5 C80.5,74.4 80.8,74.1 80.9,73.7 L86.9,44 C88.9,43.3 91,42.5 92.9,41.6 C93.4,41.4 93.7,40.8 93.5,40.3 Z M13,70.2 L8,44.7 C14.8,46.9 21.7,48.4 28.8,49.4 L13,70.2 Z M46,74.3 L35.7,50.2 C39.2,50.5 42.8,50.6 46.5,50.6 C50.2,50.6 53.7,50.5 57.2,50.2 L46,74.3 Z M79.4,71 L64.2,49.4 C71.2,48.5 78,46.9 84.7,44.7 L79.4,71 Z" id="Shape"></path>
                </g>
                <g id="Group" transform="translate(0.000000, 6.000000)">
                    <g transform="translate(17.500000, 14.500000) rotate(90.000000) translate(-17.500000, -14.500000) translate(3.000000, -3.000000)">
                        <path d="M5.9995146,34.8681946 C5.7856474,34.8681946 5.5703154,34.7998352 5.3881865,34.6592102 C4.9511748,34.3213196 4.8710967,33.6933899 5.2089873,33.2558899 L14.2739297,21.5381165 C16.2705117,18.9580384 16.0361367,15.2724915 13.7294961,12.9658509 C12.0307647,11.2676087 11.1274444,8.9179993 11.2514678,6.5195618 C11.375003,4.1201477 12.5151397,1.8750305 14.3798867,0.3603821 C14.8076211,0.0127258 15.4375039,0.077179 15.786625,0.5058899 C16.1347695,0.9346008 16.0693398,1.5644837 15.6406289,1.9131165 C14.2153359,3.0713196 13.3432656,4.7871399 13.2485391,6.6221009 C13.1543008,8.4560853 13.8447305,10.2529603 15.1435586,11.5517884 C18.1601602,14.56839 18.4663125,19.3877259 15.8559609,22.7627259 L6.7910185,34.4804993 C6.5937529,34.7344055 6.2983427,34.8681946 5.9995146,34.8681946 Z" id="Path"></path>
                        <path d="M6.99999691,20.1035461 C6.9062529,20.1035461 6.8115263,20.0898742 6.7187529,20.063507 L3.99999691,19.266632 L1.2812529,20.063507 C0.9311552,20.1650695 0.5512724,20.0693664 0.2929716,19.8105773 C0.0341825,19.5517882 -0.0624972,19.172882 0.0405302,18.822296 L0.8369169,16.103546 L0.0405302,13.384796 C-0.0624971,13.0342101 0.0341825,12.6553038 0.2929716,12.3965147 C0.5512724,12.1377256 0.9311552,12.0449522 1.2812529,12.143585 L3.99999691,12.94046 L6.7187529,12.143585 C7.0708037,12.0449522 7.4492217,12.1377256 7.7070342,12.3965147 C7.9658233,12.6553038 8.062503,13.03421 7.9594756,13.384796 L7.1630889,16.103546 L7.9594756,18.822296 C8.0625029,19.1728819 7.9658233,19.5517882 7.7070342,19.8105773 C7.5170927,20.0010071 7.2612333,20.1035461 6.99999691,20.1035461 Z M4.0000029,17.2246399 C4.0947295,17.2246399 4.189456,17.2383118 4.2812529,17.264679 L5.52637,17.6299134 L5.161624,16.3847961 C5.1074248,16.2012023 5.1074248,16.0058898 5.161624,15.8222961 L5.52637,14.577179 L4.2812528,14.9424134 C4.097659,14.9951478 3.9023465,14.9951478 3.7187528,14.9424134 L2.4736357,14.577179 L2.8383818,15.8222962 C2.892581,16.00589 2.892581,16.2012025 2.8383818,16.3847962 L2.4736357,17.6299134 L3.7187529,17.264679 C3.8105497,17.2383118 3.9052763,17.2246399 4.0000029,17.2246399 Z" id="Shape"></path>
                        <path d="M24.757328,10.3457336 C23.1030311,10.3457336 21.757328,9.0000305 21.757328,7.3457336 C21.757328,5.6914367 23.1030311,4.3457336 24.757328,4.3457336 C26.4116249,4.3457336 27.757328,5.6914367 27.757328,7.3457336 C27.757328,9.0000305 26.4116249,10.3457336 24.757328,10.3457336 Z M24.757328,6.3457336 C24.2060585,6.3457336 23.757328,6.7939758 23.757328,7.3457336 C23.757328,7.8974914 24.2060585,8.3457336 24.757328,8.3457336 C25.3085975,8.3457336 25.757328,7.8974914 25.757328,7.3457336 C25.757328,6.7939758 25.3085976,6.3457336 24.757328,6.3457336 Z" id="Shape"></path>
                        <path d="M27.6650429,28.1963196 C27.4091835,28.1963196 27.1533241,28.0986633 26.9580116,27.9033508 L23.2929725,24.2383117 C22.9023475,23.8476867 22.9023475,23.2148742 23.2929725,22.8242492 C23.6835975,22.4336242 24.31641,22.4336242 24.707035,22.8242492 L28.3720741,26.4892883 C28.7626991,26.8799133 28.7626991,27.5127258 28.3720741,27.9033508 C28.1767616,28.0986633 27.9209023,28.1963196 27.6650429,28.1963196 Z" id="Path"></path>
                        <path d="M16.5000037,34.6035461 C16.2441444,34.6035461 15.988285,34.5058898 15.7929725,34.3105773 C15.4023475,33.9199523 15.4023475,33.2871398 15.7929725,32.8965148 L19.2929725,29.3965148 C19.6835975,29.0058898 20.31641,29.0058898 20.707035,29.3965148 C21.09766,29.7871398 21.09766,30.4199523 20.707035,30.8105773 L17.207035,34.3105773 C17.0117226,34.5058899 16.7558632,34.6035461 16.5000037,34.6035461 Z" id="Path"></path>
                    </g>
                    <g transform="translate(174.500000, 55.500000) scale(-1, 1) rotate(90.000000) translate(-174.500000, -55.500000) translate(160.000000, 38.000000)">
                        <path d="M6.3344765,34.8633118 C6.1206093,34.8633118 5.9052773,34.7949524 5.7231484,34.6543274 C5.2861367,34.3164368 5.2060586,33.6885071 5.5439492,33.2510071 L14.6093789,21.5332337 C16.6054727,18.9541321 16.3710977,15.2685853 14.064457,12.9619446 C12.3657265,11.2637024 11.4628945,8.9131155 11.5864297,6.514678 C11.7099649,4.1152639 12.8501016,1.8711233 14.7143594,0.3554983 C15.1430703,0.007842 15.7729532,0.0722952 16.1210977,0.5010061 C16.4697305,0.929717 16.4043008,1.5595999 15.9760782,1.9082327 C14.5502969,3.0664358 13.6782266,4.7832327 13.5839884,6.6172171 C13.4892618,8.452178 14.1796915,10.249054 15.4785197,11.5478821 C18.4951213,14.5644837 18.8017619,19.3838196 16.1914103,22.757843 L7.1259806,34.4756164 C6.9287148,34.7295227 6.6333046,34.8633118 6.3344765,34.8633118 Z" id="Path"></path>
                        <path d="M7.33495881,20.0986633 C7.2412148,20.0986633 7.1464882,20.0849914 7.0537148,20.0586242 L4.33495881,19.2617492 L1.6162148,20.0586242 C1.2661171,20.1601867 0.8862343,20.0644836 0.6279335,19.8056945 C0.3691444,19.5469054 0.2724647,19.1679992 0.3754921,18.8174132 L1.1718788,16.0986632 L0.3754921,13.3799132 C0.2724648,13.0293273 0.3691444,12.650421 0.6279335,12.3916319 C0.8862343,12.1328428 1.2661171,12.0400694 1.6162148,12.1387022 L4.33495881,12.9355772 L7.0537148,12.1387022 C7.4062539,12.0400694 7.783207,12.1328428 8.0419961,12.3916319 C8.3002969,12.650421 8.3974649,13.0293272 8.2944375,13.3799132 L7.4985391,16.0986632 L8.2944375,18.8174132 C8.3974648,19.1679991 8.3002969,19.5469054 8.0419961,19.8056945 C7.8515663,19.9961243 7.5961952,20.0986633 7.33495881,20.0986633 Z M4.3349648,17.2197571 C4.4296914,17.2197571 4.5244179,17.233429 4.6162148,17.2597962 L5.861332,17.6250306 L5.4970742,16.3799134 C5.442875,16.1963196 5.442875,16.0010071 5.4970742,15.8174134 L5.861332,14.5722962 L4.6162148,14.9375306 C4.432621,14.990265 4.2373085,14.990265 4.0537148,14.9375306 L2.8085976,14.5722962 L3.1733437,15.8174134 C3.2275429,16.0010072 3.2275429,16.1963197 3.1733437,16.3799134 L2.8085976,17.6250306 L4.0537148,17.2597962 C4.1455116,17.233429 4.2402382,17.2197571 4.3349648,17.2197571 Z" id="Shape"></path>
                        <path d="M25.0927773,10.3418264 C23.4384804,10.3418264 22.0927773,8.9961233 22.0927773,7.3418264 C22.0927773,5.6875295 23.4384804,4.3418264 25.0927773,4.3418264 C26.7470704,4.3418264 28.0927773,5.6875295 28.0927773,7.3418264 C28.0927773,8.9961233 26.7470703,10.3418264 25.0927773,10.3418264 Z M25.0927773,6.3418264 C24.5415078,6.3418264 24.0927773,6.7900686 24.0927773,7.3418264 C24.0927773,7.8935842 24.5415078,8.3418264 25.0927773,8.3418264 C25.6440468,8.3418264 26.0927773,7.8935842 26.0927773,7.3418264 C26.0927773,6.7900686 25.6440468,6.3418264 25.0927773,6.3418264 Z" id="Shape"></path>
                        <path d="M28,28.1914368 C27.7441406,28.1914368 27.4882812,28.0937805 27.2929687,27.898468 L23.6279335,24.2334289 C23.2373085,23.8428039 23.2373085,23.2099914 23.6279335,22.8193664 C24.0185585,22.4287414 24.651371,22.4287414 25.041996,22.8193664 L28.7070312,26.4844055 C29.0976562,26.8750305 29.0976562,27.507843 28.7070312,27.898468 C28.5117188,28.0937805 28.2558594,28.1914368 28,28.1914368 Z" id="Path"></path>
                        <path d="M16.8349647,34.5986633 C16.5791054,34.5986633 16.323246,34.501007 16.1279335,34.3056945 C15.7373085,33.9150695 15.7373085,33.282257 16.1279335,32.891632 L19.6279335,29.391632 C20.0185585,29.001007 20.651371,29.001007 21.041996,29.391632 C21.432621,29.782257 21.432621,30.4150695 21.041996,30.8056945 L17.541996,34.3056945 C17.3466835,34.5010071 17.0908241,34.5986633 16.8349647,34.5986633 Z" id="Path"></path>
                    </g>
                </g>
                <path d="M154.100769,90.9998577 C153.893704,90.9998577 153.687128,90.93756 153.512783,90.8148524 C153.204628,90.5986983 153.050794,90.2324633 153.115258,89.870004 L153.675407,86.7126435 L151.301976,84.4765338 C151.029471,84.2197917 150.931311,83.8356227 151.049006,83.4854341 C151.166701,83.1361895 151.479739,82.8813352 151.856754,82.8284766 L155.136092,82.3678512 L156.602638,79.4955499 C156.939607,78.8348167 158.059905,78.8348167 158.396874,79.4955499 L159.863419,82.3678512 L163.143246,82.8284766 C163.52026,82.8813352 163.833299,83.1361895 163.950994,83.4854341 C164.068689,83.8356227 163.970529,84.2197917 163.698024,84.4765338 L161.324105,86.7126435 L161.884742,89.870004 C161.948717,90.2324633 161.794396,90.5986983 161.486729,90.8148524 C161.179062,91.0319504 160.770304,91.0602676 160.433336,90.888477 L157.499756,89.3980518 L154.566176,90.888477 C154.420156,90.9630454 154.259974,90.9998577 154.100769,90.9998577 Z M157.499756,87.3393962 C157.65945,87.3393962 157.819632,87.3762084 157.965163,87.4507769 L159.570403,88.2663104 L159.263713,86.5389652 C159.208528,86.2255888 159.315967,85.9056053 159.551357,85.6837877 L160.850395,84.4595436 L159.055671,84.2075211 C158.729935,84.1622137 158.448151,83.9639938 158.302132,83.6789346 L157.499756,82.1073336 L156.69738,83.6789346 C156.55136,83.9639938 156.269576,84.1622137 155.94384,84.2075211 L154.149605,84.4595436 L155.448643,85.6837877 C155.684032,85.9056053 155.79196,86.2255889 155.735799,86.5389652 L155.429597,88.2663104 L157.034349,87.4507769 C157.17988,87.3762084 157.340062,87.3393962 157.499756,87.3393962 Z" id="Shape"></path>
                <path d="M45.8991151,11.9998577 C45.7399037,11.9998577 45.5802039,11.9630455 45.4336904,11.888477 L42.5,10.3980519 L39.5663108,11.888477 C39.2312831,12.0602676 38.8215335,12.0319504 38.5128782,11.8148524 C38.2051989,11.5986983 38.0508712,11.2324634 38.1148488,10.8700041 L38.6755082,7.7126438 L36.3019877,5.47653336 C36.0294725,5.21979137 35.9313083,4.83562231 36.0490076,4.48543377 C36.1667068,4.13618916 36.4797575,3.88133495 36.8567857,3.8284763 L40.1362484,3.36785095 L41.6028491,0.495549847 C41.9398303,-0.165183282 43.0601707,-0.165183282 43.3971518,0.495549847 L44.8637525,3.36785095 L48.1432143,3.8284763 C48.5202425,3.88133495 48.8332931,4.13618916 48.9509924,4.48543377 C49.0686916,4.83562231 48.9705276,5.21979137 48.6980123,5.47653336 L46.3244926,7.7126438 L46.8851512,10.8700041 C46.9491288,11.2324634 46.7948012,11.5986983 46.4871227,11.8148524 C46.3127717,11.93756 46.1061877,11.9998577 45.8991151,11.9998577 Z M42.5000006,8.33939642 C42.6597004,8.33939642 42.8198885,8.37620865 42.9654253,8.45077716 L44.5707255,9.26631057 L44.2640238,7.53896549 C44.2088371,7.22558918 44.3162804,6.90560567 44.5516788,6.68378812 L45.8507657,5.45954321 L44.0559746,5.20752072 C43.7302261,5.16221331 43.4484317,4.96399341 43.3024065,4.67893425 L42.5000006,3.10733339 L41.6975947,4.67893425 C41.5515695,4.96399341 41.2697751,5.16221331 40.9440266,5.20752072 L39.1492355,5.45954321 L40.4483223,6.68378812 C40.6837208,6.90560567 40.791164,7.22558927 40.7359773,7.53896549 L40.4292756,9.26631057 L42.0345759,8.45077716 C42.1801127,8.37620865 42.3403008,8.33939642 42.5000006,8.33939642 Z" id="Shape"></path>
            </g>
        </g>
    </g>
</svg>