<svg width="80" height="80" viewBox="0 0 80 80" fill="none" xmlns="http://www.w3.org/2000/svg">
<path d="M60 75.3337C59.9984 76.437 59.1034 77.332 58 77.3337H22C20.8967 77.332 20.0017 76.437 20 75.3337V62.667H17.3334V75.3337C17.3367 77.9103 19.4234 79.997 22 80.0003H58C60.5767 79.997 62.6634 77.9103 62.6667 75.3337V73.3337H60V75.3337Z" fill="#1600FF"/>
<path d="M45.3333 64.0003H25.3333V62.667H22.6666V65.3337C22.6666 66.0703 23.2633 66.667 24 66.667H45.3333V64.0003Z" fill="#1600FF"/>
<path d="M57.3333 9.33301V6.66634C57.3333 5.92967 56.7366 5.33301 56 5.33301H34.6666V7.99967H54.6666V9.33301H57.3333Z" fill="#1600FF"/>
<path d="M36 72C36 74.2083 37.7917 76 40 76C42.2083 76 44 74.2083 44 72C44 69.7917 42.2083 68 40 68C37.7917 68.0017 36.0017 69.7917 36 72ZM41.3333 72C41.3333 72.7367 40.7367 73.3333 40 73.3333C39.2633 73.3333 38.6667 72.7367 38.6667 72C38.6667 71.2633 39.2633 70.6667 40 70.6667C40.7367 70.6667 41.3333 71.2633 41.3333 72Z" fill="#1600FF"/>
<path d="M38.535 59.2433C38.7567 58.7817 38.695 58.2333 38.375 57.8333L33.3333 51.5317V38C33.33 35.4233 31.2433 33.3367 28.6667 33.3333H25.3333V28H37.3333C38.07 28 38.6667 27.4033 38.6667 26.6667C38.6667 26.355 38.5567 26.0533 38.3583 25.8133L32 18.1833V8.66667C31.9967 6.09 29.91 4.00333 27.3333 4H20.115C20.3983 3.20167 21.1533 2.66833 22 2.66667H58C59.1033 2.66833 59.9983 3.56333 60 4.66667V9.33333H62.6667V4.66667C62.6633 2.09 60.5767 0.00333333 58 0H22C19.6817 0.00333333 17.715 1.705 17.3817 4H7.33333C4.75667 4.00333 2.67 6.09 2.66667 8.66667V23.3333C2.67 25.91 4.75667 27.9967 7.33333 28H14.8333V25.3333H7.33333C6.23 25.3317 5.335 24.4367 5.33333 23.3333V8.66667C5.335 7.56333 6.23 6.66833 7.33333 6.66667H27.3333C28.4367 6.66833 29.3317 7.56333 29.3333 8.66667V18.6667C29.3333 18.9783 29.4433 19.28 29.6417 19.52L34.4867 25.3333H14.6667V28H17.3333V33.3333H4.66667C2.09 33.3367 0.00333333 35.4233 0 38V55.3333C0.00333333 57.91 2.09 59.9967 4.66667 60H37.3333C37.8467 60 38.3133 59.7067 38.535 59.2433ZM20 28H22.6667V33.3333H20V28ZM4.66667 57.3333C3.56333 57.3317 2.66833 56.4367 2.66667 55.3333V38C2.66833 36.8967 3.56333 36.0017 4.66667 36H28.6667C29.77 36.0017 30.665 36.8967 30.6667 38V52C30.6667 52.3033 30.77 52.5967 30.9583 52.8333L34.5583 57.3333H4.66667Z" fill="#1600FF"/>
<path d="M22.6668 41.3339C20.8784 41.3339 19.2101 42.2306 18.2234 43.7206L13.3118 41.7556C13.5484 39.5556 11.9568 37.5806 9.75676 37.3456C7.55676 37.1089 5.58176 38.7006 5.34676 40.9006C5.11176 43.1006 6.70176 45.0756 8.90176 45.3106C10.1034 45.4389 11.3001 45.0189 12.1568 44.1656L17.3518 46.2439C17.3401 46.3839 17.3351 46.5256 17.3351 46.6672C17.3351 46.8089 17.3401 46.9506 17.3518 47.0906L12.1568 49.1689C10.5934 47.6156 8.06843 47.6239 6.51509 49.1872C4.96176 50.7506 4.97009 53.2756 6.53343 54.8289C8.09676 56.3822 10.6218 56.3739 12.1751 54.8106C13.0201 53.9589 13.4384 52.7722 13.3118 51.5789L18.2234 49.6139C19.8501 52.0689 23.1601 52.7406 25.6151 51.1122C28.0701 49.4856 28.7418 46.1756 27.1134 43.7206C26.1251 42.2289 24.4551 41.3339 22.6668 41.3339ZM9.33343 42.6672C8.59676 42.6672 8.00009 42.0706 8.00009 41.3339C8.00009 40.5972 8.59676 40.0006 9.33343 40.0006C10.0701 40.0006 10.6668 40.5972 10.6668 41.3339C10.6668 42.0706 10.0701 42.6672 9.33343 42.6672ZM9.33343 53.3339C8.59676 53.3339 8.00009 52.7372 8.00009 52.0006C8.00009 51.2639 8.59676 50.6672 9.33343 50.6672C10.0701 50.6672 10.6668 51.2639 10.6668 52.0006C10.6668 52.7372 10.0701 53.3339 9.33343 53.3339ZM22.6668 49.3339C21.1934 49.3339 20.0001 48.1406 20.0001 46.6672C20.0001 45.1939 21.1934 44.0006 22.6668 44.0006C24.1401 44.0006 25.3334 45.1939 25.3334 46.6672C25.3318 48.1389 24.1384 49.3322 22.6668 49.3339Z" fill="#1600FF"/>
<path d="M75.3333 12H51.3333C48.7567 12.0033 46.67 14.09 46.6667 16.6667V30.1983L41.625 36.5C41.165 37.075 41.2583 37.9133 41.8317 38.3733C42.0683 38.5633 42.3617 38.6667 42.665 38.6667H54.665V46.6667H42.665C41.9283 46.6667 41.3317 47.2633 41.3317 48C41.3317 48.3117 41.4417 48.6133 41.64 48.8533L48 56.4833V66C48.0033 68.5767 50.09 70.6633 52.6667 70.6667H68.1667V68H52.6667C51.5633 67.9983 50.6683 67.1033 50.6667 66V56C50.6667 55.6883 50.5567 55.3867 50.3583 55.1467L45.5133 49.3333H72.6667C73.77 49.335 74.665 50.23 74.6667 51.3333V66C74.665 67.1033 73.77 67.9983 72.6667 68H68V70.6667H72.6667C75.2433 70.6633 77.33 68.5767 77.3333 66V51.3333C77.33 48.7567 75.2433 46.67 72.6667 46.6667H62.6667V38.6667H75.3333C77.91 38.6633 79.9967 36.5767 80 34V16.6667C79.9967 14.09 77.91 12.0033 75.3333 12ZM60 46.6667H57.3333V38.6667H60V46.6667ZM77.3333 34C77.3317 35.1033 76.4367 35.9983 75.3333 36H45.44L49.04 31.5C49.23 31.2633 49.3333 30.97 49.3333 30.6667V16.6667C49.335 15.5633 50.23 14.6683 51.3333 14.6667H75.3333C76.4367 14.6683 77.3317 15.5633 77.3333 16.6667V34Z" fill="#1600FF"/>
<path d="M73.0916 59.28C73.2916 58.895 73.2916 58.4383 73.0916 58.0533C71.1866 54.3767 67.1133 52 62.7116 52C58.31 52 54.2366 54.3767 52.3316 58.0533C52.1316 58.4383 52.1316 58.895 52.3316 59.28C54.2366 62.9567 58.3116 65.3333 62.7116 65.3333C67.1116 65.3333 71.1866 62.9567 73.0916 59.28ZM62.7116 62.6667C59.5516 62.6667 56.625 61.1167 55.0533 58.6667C56.6233 56.2167 59.5516 54.6667 62.7116 54.6667C65.8716 54.6667 68.7983 56.2167 70.37 58.6667C68.8 61.1167 65.8716 62.6667 62.7116 62.6667Z" fill="#1600FF"/>
<path d="M62.6667 61.3333C64.1394 61.3333 65.3333 60.1394 65.3333 58.6667C65.3333 57.1939 64.1394 56 62.6667 56C61.1939 56 60 57.1939 60 58.6667C60 60.1394 61.1939 61.3333 62.6667 61.3333Z" fill="#1600FF"/>
<path d="M12.4384 23.7497C12.8551 24.0447 13.4034 24.0747 13.8517 23.828L17.3317 21.908L20.8117 23.828C21.4567 24.183 22.2667 23.9497 22.6234 23.3047C22.7684 23.043 22.8201 22.7397 22.7717 22.4447L22.0934 18.293L24.9584 15.363C25.4734 14.8363 25.4634 13.993 24.9367 13.478C24.7367 13.283 24.4817 13.1563 24.2067 13.113L20.2984 12.5163L18.5384 8.77634C18.2251 8.10967 17.4301 7.82467 16.7651 8.138C16.4834 8.26967 16.2584 8.49634 16.1267 8.77634L14.3651 12.5163L10.4567 13.113C9.72839 13.2247 9.22839 13.9047 9.34006 14.633C9.38172 14.908 9.51006 15.1647 9.70506 15.363L12.5701 18.293L11.8917 22.4447C11.8084 22.948 12.0217 23.4547 12.4384 23.7497ZM15.4701 15.0463C15.9101 14.9797 16.2867 14.698 16.4751 14.2963L17.3301 12.478L18.1851 14.2963C18.3751 14.698 18.7517 14.9797 19.1901 15.0463L21.2317 15.358L19.7134 16.9113C19.4167 17.2147 19.2817 17.6397 19.3501 18.0597L19.6951 20.1697L17.9734 19.2197C17.5717 18.998 17.0867 18.998 16.6851 19.2197L14.9634 20.1697L15.3084 18.0597C15.3767 17.6413 15.2417 17.2147 14.9451 16.9113L13.4267 15.358L15.4701 15.0463Z" fill="#1600FF"/>
<path d="M72.0316 24.4079L64.8166 18.6362C64.33 18.2463 63.6383 18.2463 63.15 18.6362L55.935 24.4079C55.36 24.8679 55.2666 25.7062 55.7266 26.2812C56.1733 26.8396 56.975 26.9412 57.5483 26.5279V31.1962C57.5483 31.9329 58.145 32.5296 58.8816 32.5296H69.085C69.8216 32.5296 70.4183 31.9329 70.4183 31.1962V26.5279C70.6533 26.6979 70.925 26.7812 71.1966 26.7812C71.5883 26.7812 71.975 26.6096 72.2383 26.2812C72.7 25.7079 72.6066 24.8679 72.0316 24.4079ZM60.2166 29.8646V24.3996L63.985 21.3846L67.7533 24.3996V29.8646H60.2166Z" fill="#1600FF"/>
</svg>
