<svg width="43" height="43" viewBox="0 0 43 43" fill="none" xmlns="http://www.w3.org/2000/svg">
<path fill-rule="evenodd" clip-rule="evenodd" d="M2.84486 30.9597C3.0444 31.2528 3.44472 31.3287 3.73496 31.1283L5.32062 30.0437V42.3579C5.32062 42.7125 5.60711 43 5.96114 43H25.9042H39.4208C39.7749 43 40.0614 42.7125 40.0614 42.3579V23.2251H42.3595C42.7135 23.2251 43 22.9376 43 22.5829V19.41C43 19.0554 42.7135 18.7679 42.3595 18.7679H36.8056V11.1779L38.6465 8.47358C38.7422 8.33312 38.7784 8.16005 38.7465 7.99262C38.7153 7.82519 38.6183 7.67721 38.4782 7.58126L27.5581 0.111618C27.3404 -0.036997 27.0539 -0.036997 26.8362 0.111618L15.9161 7.58126C15.624 7.7813 15.5483 8.18074 15.7479 8.47358L17.5881 11.1779V16.4771L16.2933 15.5914C16.0756 15.4428 15.7891 15.4428 15.5715 15.5914L13.7225 16.8562V0.642119C13.7225 0.287511 13.436 0 13.0819 0H10.5499C10.1958 0 9.90936 0.287511 9.90936 0.642119V1.21808H2.21122C1.85718 1.21808 1.5707 1.50559 1.5707 1.8602V8.33751C1.5707 8.69212 1.85718 8.97963 2.21122 8.97963H9.90935V19.4645L0.279652 26.0516C0.139538 26.1475 0.0425847 26.2955 0.0113094 26.4629C-0.0205917 26.6304 0.015688 26.8034 0.111391 26.9439L2.84486 30.9597ZM19.2551 31.2299V41.7158H12.6097V34.8892H13.5542V38.9529C13.5542 39.3075 13.8407 39.595 14.1947 39.595C14.5487 39.595 14.8352 39.3075 14.8352 38.9529V34.2471C14.8352 33.8924 14.5487 33.6049 14.1947 33.6049H12.6097V31.2299H19.2551ZM20.5361 41.7158H25.2637V29.1678L15.9324 22.7845L6.60167 29.1673V41.7158H11.3286V30.5878C11.3286 30.2332 11.6151 29.9457 11.9692 29.9457H19.8956C20.2496 29.9457 20.5361 30.2332 20.5361 30.5878V41.7158ZM38.7803 37.2589H34.3292V32.232H38.7803V37.2589ZM33.6887 30.9477H38.7803V23.2251H27.453L31.5851 26.0516C31.7252 26.1475 31.8222 26.2955 31.8534 26.4629C31.8853 26.6304 31.8491 26.8034 31.7534 26.9439L29.0199 30.9596C28.896 31.1418 28.6946 31.2399 28.4901 31.2399C28.3656 31.2399 28.2399 31.2039 28.1298 31.1283L26.5448 30.044V41.7158H38.7803V38.5431H33.6887C33.3346 38.5431 33.0482 38.2556 33.0482 37.901V31.5899C33.0482 31.2352 33.3346 30.9477 33.6887 30.9477ZM41.719 20.0521V21.9408H25.5755L22.8144 20.0521H41.719ZM18.8691 17.3534L20.937 18.7679H35.5246V11.3189L27.1972 5.6223L18.8691 11.3189V17.3534ZM17.1671 8.28045L27.1972 1.41937L37.2272 8.28013L35.9968 10.0873L27.5581 4.31455C27.4492 4.24024 27.3235 4.20293 27.1972 4.20293C27.0708 4.20293 26.9451 4.24024 26.8362 4.31455L18.3969 10.0873L17.1671 8.28045ZM12.4414 1.28424H11.1904V18.5882L12.4414 17.7325V1.28424ZM2.85174 7.69539V2.50232H9.90935V7.69539H2.85174ZM30.3341 26.7504L15.9324 16.8992L1.53067 26.7504L3.5423 29.7055L15.5715 21.4768C15.6803 21.4025 15.806 21.3652 15.9324 21.3652C16.0587 21.3652 16.1845 21.4025 16.2933 21.4768L28.3224 29.7055L30.3341 26.7504Z" fill="#9CAFC8"/>
<path fill-rule="evenodd" clip-rule="evenodd" d="M31.3099 10H24.6901C24.3087 10 24 10.2938 24 10.6562V15.3438C24 15.7062 24.3087 16 24.6901 16H31.3099C31.6913 16 32 15.7062 32 15.3438V10.6562C32 10.2938 31.6913 10 31.3099 10ZM27.3099 14.6877H25.3803V11.3123H27.3099V14.6877ZM28.6901 14.6877H30.6197V11.3123H28.6901V14.6877Z" fill="#9CAFC8"/>
</svg>
