<svg width="24" height="28" viewBox="0 0 24 28" fill="none" xmlns="http://www.w3.org/2000/svg">
<path d="M0 28L12 23.2469L24 28V0.000164041L0 0V28Z" fill="#1600FF"/>
<path d="M16.4538 6.34264C15.8413 5.53604 15.1412 4.78426 14.3537 4.11079C14.0475 3.84454 13.5312 4.09513 13.6188 4.47102C13.785 5.20714 13.96 6.17819 13.96 7.04744C13.96 8.66063 12.7787 9.96842 10.9762 9.96842C9.62875 9.96842 8.52625 9.24013 8.045 8.1986C7.9575 8.04198 7.9225 7.94801 7.87 7.77573C7.77375 7.44682 7.2925 7.34502 7.0825 7.63477C6.925 7.8462 6.77625 8.05764 6.63625 8.28474C5.595 9.88228 5 11.7461 5 13.7352C5 17.1965 8.1325 20 12 20C15.8675 20 19 17.1965 19 13.7352C19 11.0021 18.055 8.46486 16.4538 6.34264Z" fill="white"/>
</svg>
