<svg width="30" height="30" viewBox="0 0 30 30" fill="none" xmlns="http://www.w3.org/2000/svg">
<path d="M14.9999 8.7099C15.5336 8.7099 15.9677 9.14393 15.9677 9.67764H16.9354C16.9354 8.77861 16.3166 8.02716 15.4838 7.81087V6.77441H14.5161V7.81087C13.6833 8.02716 13.0645 8.77861 13.0645 9.67764C13.0645 10.7451 13.9325 11.6131 14.9999 11.6131C15.5336 11.6131 15.9677 12.0472 15.9677 12.5809C15.9677 13.1146 15.5336 13.5486 14.9999 13.5486C14.4662 13.5486 14.0322 13.1146 14.0322 12.5809H13.0645C13.0645 13.4799 13.6833 14.2313 14.5161 14.4476V15.4841H15.4838V14.4476C16.3166 14.2313 16.9354 13.4799 16.9354 12.5809C16.9354 11.5134 16.0674 10.6454 14.9999 10.6454C14.4662 10.6454 14.0322 10.2113 14.0322 9.67764C14.0322 9.14393 14.4662 8.7099 14.9999 8.7099Z" fill="#0073FF"/>
<path fill-rule="evenodd" clip-rule="evenodd" d="M27.0968 12.5806H30V8.70968H27.0968V0H7.52661L2.90323 5.13677V8.70968H0V12.5806H2.90323V14.2215L1.0529 13.5484H0V24.1935H4.22661L4.48016 23.3816L6.525 24.6082L7.88081 24.9615C7.79226 25.156 7.74194 25.3665 7.74194 25.5866C7.74194 26.4015 8.39129 27.0629 9.19887 27.0915C9.22742 27.899 9.88935 28.5484 10.7037 28.5484C10.876 28.5484 11.0444 28.5131 11.205 28.456C11.3981 29.0681 11.9642 29.5161 12.6392 29.5161C12.9615 29.5161 13.2745 29.4063 13.5324 29.2166L13.8905 29.5747C14.1644 29.849 14.5292 30 14.9168 30H15C15.6266 30 16.1565 29.5989 16.3592 29.0419C16.6321 29.3366 17.0139 29.5161 17.4194 29.5161C18.091 29.5161 18.6523 29.0555 18.8173 28.4352C18.9871 28.5034 19.1676 28.5484 19.3548 28.5484C20.0265 28.5484 20.5877 28.0877 20.7527 27.4674C20.9226 27.5356 21.1031 27.5806 21.2903 27.5806C22.0906 27.5806 22.7419 26.9294 22.7419 26.129V25.9679C22.7419 25.6558 22.6389 25.3466 22.4511 25.0969L22.291 24.8835L24.0876 23.446L24.3218 24.1935H30V13.5484H29.0323L27.0968 14.0961V12.5806ZM7.74194 1.20726V4.83871H4.47339L7.74194 1.20726ZM8.70968 5.80645H3.87097V8.70968H6.77419V6.83758L12.4853 10.6452L6.77419 14.4527V12.5806H3.87097V14.5732L6.88984 15.6711L6.54774 16.7652L8.82387 17.9032H12.2318C12.7471 17.9032 13.2498 18.0256 13.7095 18.2487L14.745 17.731C15.15 17.5287 15.5835 17.4111 16.0345 17.3811L22.0674 16.979L21.6484 15.6382L26.129 14.37V12.5806H23.2258V14.4527L17.5147 10.6452L23.2258 6.83758V8.70968H26.129V0.967742H8.70968V5.80645ZM0.967742 11.6129V9.67742H2.90323H3.87097H7.74194V8.64629L10.7405 10.6452L7.74194 12.644V11.6129H0.967742ZM0.967742 23.2258H3.51532L5.69081 16.2644L0.967742 14.5471V23.2258ZM6.96145 23.7416L4.77774 22.4313L6.25597 17.701L8.59548 18.871H12.2323C12.6861 18.871 13.1294 18.9982 13.514 19.2387L16.1453 20.8829C16.3369 21.0029 16.4516 21.21 16.4516 21.4365V21.6053C16.4516 21.9653 16.1589 22.2581 15.7984 22.2581C15.6803 22.2581 15.5647 22.2261 15.4631 22.1652L13.6456 21.075C12.9208 20.641 11.9419 20.7619 11.3444 21.3585L8.56113 24.1418L6.96145 23.7416ZM15 29.0323C15.2671 29.0323 15.4839 28.815 15.4839 28.5484V28.4656C15.4839 28.3365 15.4335 28.2145 15.3421 28.1231L14.9415 27.7224C14.8515 27.6324 14.7266 27.5806 14.5994 27.5806H14.5161C14.249 27.5806 14.0323 27.7979 14.0323 28.0645V28.1473C14.0323 28.2765 14.0826 28.3984 14.174 28.4898L14.5747 28.8905C14.6647 28.9805 14.7895 29.0323 14.9168 29.0323H15ZM17.9032 28.0645C17.9032 28.3311 17.6865 28.5484 17.4194 28.5484C17.2679 28.5484 17.1232 28.4763 17.0323 28.3548L16.0645 27.0644C16.0021 26.9811 15.9677 26.8781 15.9677 26.774V26.6129C15.9677 26.3463 16.1845 26.129 16.4516 26.129C16.6031 26.129 16.7477 26.2011 16.8387 26.3226L17.8065 27.6131C17.8689 27.6963 17.9032 27.7994 17.9032 27.9034V28.0645ZM19.3548 27.5806C19.6219 27.5806 19.8387 27.3634 19.8387 27.0968V26.9356C19.8387 26.8316 19.8044 26.7285 19.7419 26.6453L18.7742 25.3548C18.6832 25.2334 18.5385 25.1613 18.3871 25.1613C18.12 25.1613 17.9032 25.3785 17.9032 25.6452V25.8063C17.9032 25.9103 17.9376 26.0134 18 26.0966L18.9677 27.3871C19.0587 27.5085 19.2034 27.5806 19.3548 27.5806ZM21.7742 26.129C21.7742 26.3956 21.5574 26.6129 21.2903 26.6129C21.1389 26.6129 20.9942 26.5408 20.9032 26.4194L19.9355 25.1289C19.8731 25.0456 19.8387 24.9426 19.8387 24.8385V24.6774C19.8387 24.4108 20.0555 24.1935 20.3226 24.1935C20.474 24.1935 20.6187 24.2656 20.7097 24.3871L21.6774 25.6776C21.7398 25.7608 21.7742 25.8639 21.7742 25.9679V26.129ZM21.4839 23.8065L21.7103 24.1089L23.7779 22.455L22.364 17.9298L16.0984 18.3474C15.7761 18.3687 15.4669 18.4529 15.1776 18.5976L14.6976 18.8376L16.6577 20.0623C17.1344 20.3598 17.4194 20.8737 17.4194 21.4365V21.6053C17.4194 22.499 16.6921 23.2258 15.7984 23.2258C15.5052 23.2258 15.2168 23.146 14.9647 22.995L13.1477 21.9048C12.796 21.6934 12.3189 21.7524 12.0285 22.0427L8.86839 25.2029C8.76581 25.3055 8.70968 25.4415 8.70968 25.5866C8.70968 25.8856 8.95306 26.129 9.2521 26.129C9.39484 26.129 9.53468 26.071 9.63581 25.9703L11.7547 23.8515L12.2385 23.3676L12.9227 24.0518L12.4389 24.5356L10.32 26.6545C10.2174 26.7571 10.1613 26.8931 10.1613 27.0382C10.1613 27.3373 10.4047 27.5806 10.7037 27.5806C10.8465 27.5806 10.9863 27.5226 11.0874 27.4219L11.5713 26.9381L13.6902 24.8192L14.3744 25.5034L12.2555 27.6223C12.1529 27.7248 12.0968 27.8608 12.0968 28.006C12.0968 28.305 12.3402 28.5484 12.6392 28.5484C12.7819 28.5484 12.9218 28.4903 13.0229 28.3897L13.0824 28.3302L13.0777 28.2943C13.0711 28.2455 13.0645 28.197 13.0645 28.1473V28.0645C13.0645 27.2642 13.7158 26.6129 14.5161 26.6129H14.5994C14.7377 26.6129 14.8708 26.6385 15 26.6758V26.6129C15 25.8126 15.6513 25.1613 16.4516 25.1613C16.6389 25.1613 16.8194 25.2063 16.9892 25.2745C17.1542 24.6542 17.7155 24.1935 18.3871 24.1935C18.5744 24.1935 18.7548 24.2385 18.9247 24.3068C19.0897 23.6865 19.651 23.2258 20.3226 23.2258C20.7774 23.2258 21.2115 23.4431 21.4839 23.8065ZM29.0323 14.5355V23.2258H25.0331L22.8677 16.2968L29.0323 14.5355ZM22.2581 12.644V11.6129H29.0323V9.67742H27.0968H26.129H22.2581V8.64629L19.2595 10.6452L22.2581 12.644Z" fill="#0073FF"/>
<rect x="9.67773" y="1.93555" width="15.4839" height="0.967742" fill="#0073FF"/>
<rect x="9.67773" y="3.87109" width="15.4839" height="0.967742" fill="#0073FF"/>
</svg>
