<svg width="655" height="390" viewBox="0 0 655 390" fill="none" xmlns="http://www.w3.org/2000/svg">
<path d="M168 326.5L244 239.001" stroke="#B8D3EB" stroke-width="3"/>
<path d="M486.729 326.5L410.729 239.001" stroke="#B8D3EB" stroke-width="3"/>
<path d="M244 125.499L168 37.9996" stroke="#B8D3EB" stroke-width="3"/>
<path d="M410.729 125.499L486.729 37.9996" stroke="#B8D3EB" stroke-width="3"/>
<path d="M46 182L206 182" stroke="#B8D3EB" stroke-width="3"/>
<path d="M592 182L448.729 182" stroke="#B8D3EB" stroke-width="3"/>
<circle cx="487" cy="325" r="38.5" fill="white" stroke="#B8D3EB" stroke-width="3"/>
<path fill-rule="evenodd" clip-rule="evenodd" d="M489.086 305L489.047 305.581C489.029 305.855 488.891 306.055 488.625 306.24C488.359 306.426 487.969 306.552 487.619 306.575H484.315C482.116 306.575 480.332 308.356 480.332 310.542V313.516C480.332 313.601 480.335 313.623 480.335 313.552C480.335 313.51 480.332 313.504 480.332 313.591V314.888C480.328 314.929 480.328 314.971 480.332 315.012V317.603C480.332 319.224 480.939 320.689 481.908 321.843V325.22L474.929 329.226C473.119 330.247 472 332.149 472 334.207V342.236H484.342L487 345L489.658 342.234H502V334.067C502 332.093 500.922 330.268 499.184 329.29L492.242 325.22V321.665C493.123 320.538 493.668 319.141 493.668 317.603V315.454C493.671 315.416 493.671 315.378 493.668 315.339V313.591C493.668 313.523 493.666 313.53 493.665 313.56C493.666 313.585 493.668 313.598 493.668 313.523V309.128L493.663 309.087C493.515 307.972 493.168 306.967 492.509 306.211C491.85 305.455 490.862 304.999 489.673 305.005V305H489.086ZM489.905 306.343C490.617 306.398 491.173 306.583 491.555 307.021C491.986 307.517 492.278 308.285 492.405 309.233V313.518C492.405 313.453 492.404 313.474 492.403 313.55C492.403 313.646 492.405 313.644 492.405 313.589V313.933C492.052 313.738 491.674 313.602 491.291 313.533C490.416 313.374 489.508 313.44 488.632 313.477C487.757 313.513 486.92 313.519 486.233 313.333C485.547 313.146 485.005 312.812 484.551 312.039C484.433 311.835 484.209 311.714 483.972 311.726C483.7 311.741 483.468 311.927 483.397 312.187C483.414 312.127 483.289 312.385 483.079 312.629C482.87 312.874 482.584 313.16 482.283 313.425C482.049 313.631 481.816 313.794 481.595 313.948V313.589C481.595 313.658 481.597 313.635 481.597 313.555C481.597 313.458 481.595 313.463 481.595 313.518V310.544C481.595 309.025 482.798 307.827 484.315 307.827H487.681H487.7C488.271 307.79 488.857 307.613 489.353 307.268C489.639 307.069 489.729 306.672 489.905 306.345V306.343ZM484.085 313.369C484.624 313.932 485.235 314.355 485.9 314.536C486.832 314.79 487.789 314.763 488.684 314.727C489.58 314.69 490.418 314.644 491.064 314.761C491.668 314.871 492.076 315.078 492.405 315.576V317.6C492.405 320.602 490.002 322.996 487 322.996C483.998 322.996 481.595 320.602 481.595 317.6V315.425C481.758 315.351 481.91 315.259 482.073 315.156C482.421 314.939 482.78 314.66 483.121 314.36C483.463 314.06 483.784 313.74 484.043 313.438C484.063 313.415 484.067 313.392 484.085 313.369ZM490.98 322.913V325.357L486.943 328.736L483.171 325.579V323.035C484.255 323.797 485.571 324.253 487 324.253C488.498 324.253 489.867 323.744 490.98 322.913ZM491.722 326.369L493.083 327.167L490.662 331.179L489.079 329.941L488.243 329.282L491.722 326.369ZM482.271 326.455L485.649 329.285L484.968 329.827L483.227 331.179L480.865 327.263L482.271 326.455ZM494.168 327.806L498.555 330.376H498.56C499.908 331.135 500.738 332.542 500.738 334.068V340.984H497.135V337.774H495.872V340.984H490.075L488.946 332.603C489.143 332.357 489.302 332.084 489.395 331.783L491.01 333.042L494.168 327.806ZM479.772 327.891L482.877 333.04L484.578 331.719C484.669 332.045 484.842 332.339 485.054 332.603L483.923 340.986H478.335V337.773H477.072V340.986H473.263V334.207C473.263 332.596 474.136 331.11 475.558 330.31H475.561L479.772 327.891ZM486.946 329.857L488.248 330.885V331.063C488.248 331.506 488.011 331.914 487.624 332.135C487.237 332.357 486.763 332.357 486.376 332.135C485.989 331.914 485.75 331.506 485.75 331.063V330.807L485.752 330.805L486.946 329.857ZM486.216 333.41C486.726 333.577 487.271 333.576 487.782 333.41L488.839 341.274L487 343.186L485.158 341.274L486.216 333.41Z" fill="#0F00AA"/>
<circle cx="487" cy="40" r="38.5" fill="white" stroke="#B8D3EB" stroke-width="3"/>
<g clip-path="url(#clip0)">
<path d="M467.119 36.6592L486.503 22.2817L505.887 36.6592L503.386 38.2638L486.503 25.6252L469.62 38.2638L467.119 36.6592Z" stroke="#0F00AA" stroke-width="1.5" stroke-miterlimit="10" stroke-linejoin="round"/>
<path d="M472.212 36.9858V59.3608L500.788 59.3606V54.4062" stroke="#0F00AA" stroke-width="1.5" stroke-miterlimit="10"/>
<path d="M505.374 38.7891H475.054V54.4068H505.374V38.7891Z" stroke="#0F00AA" stroke-width="1.5" stroke-miterlimit="10"/>
<path d="M490.386 54.4132C494.606 54.4132 498.027 50.9156 498.027 46.6011C498.027 42.2866 494.606 38.7891 490.386 38.7891C486.166 38.7891 482.745 42.2866 482.745 46.6011C482.745 50.9156 486.166 54.4132 490.386 54.4132Z" stroke="#0F00AA" stroke-width="1.5" stroke-miterlimit="10"/>
<path d="M492.65 49.7654C492.206 50.2001 491.555 50.4622 490.705 50.5517V51.8431H489.78V50.5645C489.223 50.5261 488.698 50.4238 488.204 50.2512C487.71 50.085 487.316 49.8677 487.022 49.6056L487.529 48.4421C487.804 48.6722 488.141 48.864 488.542 49.0238C488.942 49.1836 489.354 49.2795 489.78 49.3179V47.0165C489.248 46.8886 488.804 46.7416 488.448 46.5817C488.091 46.4219 487.791 46.1918 487.554 45.8913C487.316 45.5909 487.191 45.1881 487.191 44.6895C487.191 44.0694 487.41 43.5388 487.854 43.104C488.298 42.6693 488.935 42.4072 489.78 42.3241V41.0264H490.705V42.3049C491.124 42.3305 491.537 42.4008 491.937 42.5223C492.337 42.6438 492.687 42.8036 492.987 43.0081L492.525 44.1716C491.956 43.8328 491.349 43.6283 490.699 43.5515V45.8785C491.237 46.0064 491.687 46.1534 492.043 46.3069C492.4 46.4603 492.7 46.6904 492.944 46.9909C493.187 47.2914 493.306 47.6941 493.306 48.1927C493.325 48.8065 493.1 49.3307 492.65 49.7654ZM488.942 45.2393C489.136 45.3927 489.417 45.5205 489.786 45.6292V43.5835C489.404 43.6474 489.117 43.7689 488.929 43.9543C488.742 44.1397 488.648 44.3634 488.648 44.6319C488.654 44.8813 488.748 45.0858 488.942 45.2393ZM491.593 48.9407C491.787 48.7617 491.881 48.5444 491.881 48.2822C491.881 48.0201 491.781 47.8156 491.574 47.6557C491.374 47.4959 491.08 47.3681 490.705 47.2594V49.2987C491.111 49.2412 491.405 49.1197 491.593 48.9407Z" fill="#0F00AA"/>
<path d="M472.747 32.4977V23.5605H480.25V26.9424" stroke="#0F00AA" stroke-width="1.5" stroke-miterlimit="10"/>
<path d="M481.501 20.6392H471.496V23.5607H481.501V20.6392Z" stroke="#0F00AA" stroke-width="1.5" stroke-miterlimit="10"/>
</g>
<circle cx="168" cy="325" r="41.5" fill="white" stroke="#B8D3EB" stroke-width="3"/>
<g clip-path="url(#clip1)">
<path fill-rule="evenodd" clip-rule="evenodd" d="M140 339V319.117H145.7V311H163.854V319.117H197.397V339H140ZM196.949 338.466V319.652H163.86V332.655H145.707V319.652H140.531V338.462H196.949V338.466ZM166.845 332.805L169.113 325.513H172.19L172.549 328.501L174.457 325.513H177.654L175.556 332.805H173.242L174.031 329.645L171.837 332.805H170.453L170.334 329.717L169.165 332.805H166.845ZM184.76 330.176H187.147C187.671 330.736 187.861 330.858 188.266 330.858C188.696 330.858 188.981 330.664 188.981 330.298C188.981 330.054 188.742 329.81 188.362 329.692L187.048 329.304C186.26 329.06 185.714 328.404 185.714 327.507C185.714 326.047 187.217 325.075 189.196 325.075C191.534 325.075 192.752 326.047 192.752 327.482V327.823H190.294C190.055 327.335 189.794 326.972 189.245 326.972C188.911 326.972 188.576 327.216 188.576 327.507C188.576 327.726 188.721 327.919 189.27 328.091L190.558 328.504C191.417 328.795 191.942 329.379 191.942 330.254C191.942 331.811 190.368 332.927 188.27 332.927C185.88 332.924 184.876 331.83 184.76 330.176ZM177.412 332.805L179.535 325.513H182.327L181.063 330.129H183.256L182.541 332.802H177.412V332.805ZM193.752 332.058C195.28 332.058 196.375 333.199 196.375 334.78C196.375 336.337 195.301 337.528 193.798 337.528C192.2 337.528 191.055 336.434 191.055 334.83C191.055 333.224 192.319 332.058 193.752 332.058ZM196.038 334.774C196.038 333.364 195.084 332.392 193.724 332.392C192.436 332.392 191.411 333.414 191.411 334.824C191.411 336.259 192.365 337.181 193.798 337.181C195.108 337.181 196.038 336.137 196.038 334.774ZM193.562 333.927H194.062L194.467 335.021L194.847 333.927H195.347V335.652H194.967V334.655L194.608 335.652H194.304L193.945 334.655V335.652H193.565V333.927H193.562ZM192.037 333.927H193.35V334.243H192.872V335.652H192.491V334.243H192.037V333.927ZM169.515 323.912L169.705 322.746H170.039L170.134 323.525L170.515 322.746H170.849L170.659 323.912H170.444L170.588 323.062L170.159 323.912H169.969L169.874 323.062L169.729 323.912H169.515ZM182.612 323.912L182.802 322.721H183.017L183.376 323.547L183.496 322.721H183.735L183.52 323.912H183.33L182.95 323.134L182.83 323.912H182.612ZM184.401 323.522L184.425 323.303H184.925L184.806 323.909H184.591L184.615 323.859C184.496 323.931 184.45 323.931 184.33 323.931C184.045 323.931 183.855 323.712 183.855 323.372C183.855 322.984 184.094 322.715 184.428 322.715C184.714 322.715 184.882 322.884 184.928 323.128H184.714C184.668 323.006 184.594 322.959 184.428 322.959C184.214 322.959 184.069 323.081 184.069 323.372C184.069 323.59 184.189 323.712 184.379 323.712C184.569 323.712 184.619 323.662 184.665 323.518H184.401V323.522ZM191.417 323.497H191.632C191.562 323.765 191.393 323.959 191.132 323.959C190.822 323.959 190.641 323.74 190.641 323.4C190.641 322.962 190.893 322.696 191.203 322.696C191.442 322.696 191.608 322.89 191.657 323.109H191.442C191.371 322.987 191.322 322.94 191.181 322.94C191.015 322.94 190.871 323.062 190.871 323.403C190.871 323.597 190.966 323.718 191.135 323.718C191.298 323.715 191.368 323.643 191.417 323.497ZM186.739 323.912L186.953 322.721H187.745L187.708 322.94H187.125L187.085 323.184H187.631L187.598 323.403H187.048L186.999 323.693H187.585L187.549 323.912H186.739ZM176.362 323.912L176.577 322.746H177.366L177.329 322.965H176.743L176.694 323.184H177.246L177.212 323.403H176.672L176.623 323.693H177.209L177.172 323.912H176.362ZM170.993 323.45L171.113 322.746H171.328L171.208 323.5C171.196 323.665 171.279 323.743 171.398 323.743C171.493 323.743 171.589 323.647 171.613 323.55L171.757 322.746H171.972L171.852 323.525C171.803 323.84 171.662 323.962 171.398 323.962C171.088 323.959 170.963 323.8 170.993 323.45ZM180.056 323.547H180.271C180.296 323.693 180.342 323.715 180.535 323.715C180.63 323.715 180.701 323.69 180.701 323.618C180.701 323.568 180.676 323.522 180.606 323.472L180.32 323.325C180.201 323.253 180.155 323.156 180.155 323.034C180.155 322.865 180.274 322.693 180.535 322.693C180.82 322.693 180.94 322.84 181.014 323.081H180.774C180.75 322.959 180.679 322.912 180.535 322.912C180.415 322.912 180.369 322.962 180.369 323.034C180.369 323.084 180.394 323.131 180.489 323.181L180.753 323.303C180.848 323.353 180.918 323.472 180.918 323.593C180.918 323.787 180.774 323.934 180.514 323.934C180.225 323.934 180.081 323.765 180.056 323.547ZM185.711 323.547H185.926C185.95 323.643 185.996 323.74 186.165 323.74C186.284 323.74 186.38 323.69 186.38 323.618C186.38 323.568 186.331 323.522 186.235 323.472L185.972 323.35C185.827 323.278 185.806 323.181 185.806 323.059C185.806 322.865 185.95 322.693 186.211 322.693C186.496 322.693 186.591 322.84 186.665 323.081H186.426C186.401 322.959 186.331 322.934 186.186 322.934C186.067 322.934 186.021 322.959 186.021 323.031C186.021 323.103 186.045 323.128 186.14 323.178L186.404 323.325C186.499 323.375 186.57 323.472 186.57 323.593C186.57 323.787 186.426 323.934 186.165 323.934C185.88 323.934 185.735 323.765 185.711 323.547ZM174.38 323.912L174.571 322.746H175C175.215 322.746 175.359 322.868 175.359 323.062C175.359 323.378 175.144 323.45 174.905 323.45H174.666L174.595 323.912H174.38ZM174.749 322.962L174.706 323.231H174.954C175.074 323.231 175.144 323.181 175.144 323.084C175.144 322.987 175.074 322.962 174.93 322.962H174.749ZM187.911 323.912L188.107 322.721H188.579C188.77 322.721 188.889 322.868 188.889 323.037C188.889 323.184 188.819 323.281 188.699 323.353C188.77 323.403 188.794 323.403 188.794 323.475V323.79C188.794 323.862 188.794 323.862 188.819 323.912H188.699C188.604 323.912 188.579 323.887 188.579 323.765V323.547C188.579 323.475 188.53 323.425 188.46 323.425H188.227L188.15 323.912H187.911ZM188.297 322.99L188.254 323.259H188.503C188.598 323.259 188.668 323.187 188.668 323.112C188.668 323.04 188.598 322.99 188.503 322.99H188.297ZM189.098 322.721H189.313L189.432 323.572L189.837 322.721H190.052L189.503 323.912H189.264L189.098 322.721ZM181.109 322.94L181.158 322.721H181.968L181.943 322.94H181.633L181.489 323.912H181.25L181.419 322.94H181.109ZM173.021 322.965L173.046 322.746H173.88L173.856 322.965H173.546L173.38 323.912H173.166L173.331 322.965H173.021ZM172.046 323.912L172.236 322.746H172.451L172.285 323.693H172.859L172.81 323.912H172.046ZM175.408 323.912L175.598 322.746H175.813L175.669 323.693H176.218L176.169 323.912H175.408ZM178.553 323.912L178.743 322.721H178.958L178.792 323.693H179.366L179.317 323.912H178.553ZM182.014 323.912L182.204 322.721H182.419L182.229 323.912H182.014ZM179.507 323.912L179.697 322.721H179.912L179.722 323.912H179.507ZM173.905 323.912L174.095 322.746H174.31L174.12 323.912H173.905ZM190.101 323.912L190.291 322.721H190.506L190.316 323.912H190.101ZM191.804 323.912L192.019 322.721H192.81L192.773 322.94H192.19L192.151 323.184H192.697L192.663 323.403H192.114L192.065 323.693H192.651L192.614 323.912H191.804ZM146.136 311.422V332.252H163.455V311.422H146.136ZM148.403 313.851H161.001V327H148.403V313.851ZM159.853 325.416L155.153 320.627V325.416H159.853ZM155.892 315.479C155.629 315.479 155.414 315.479 155.153 315.504V320.34C157.301 320.34 158.684 319.78 158.684 317.811C158.681 316.182 157.512 315.479 155.892 315.479ZM150.217 315.498V325.416H153.699V315.498H150.217ZM162.145 326.438C162.765 326.438 163.29 326.972 163.29 327.629C163.29 328.31 162.789 328.82 162.145 328.82C161.525 328.82 161.001 328.285 161.001 327.604C161.001 326.947 161.501 326.438 162.145 326.438ZM163.05 327.632C163.05 327.122 162.645 326.685 162.145 326.685C161.645 326.685 161.24 327.097 161.24 327.61C161.24 328.144 161.67 328.582 162.145 328.582C162.645 328.579 163.05 328.166 163.05 327.632ZM161.759 328.185V326.994H162.093C162.403 326.994 162.602 327.066 162.602 327.335C162.602 327.529 162.523 327.579 162.403 327.651L162.618 328.185H162.378L162.188 327.722H161.973V328.185H161.759ZM161.976 327.216V327.507H162.142C162.286 327.507 162.332 327.457 162.332 327.36C162.332 327.238 162.262 327.213 162.118 327.213H161.976V327.216ZM158.16 327.991C158.66 327.991 159.114 328.429 159.114 329.013C159.114 329.598 158.66 330.057 158.16 330.057C157.66 330.057 157.206 329.595 157.206 329.013C157.206 328.429 157.66 327.991 158.16 327.991ZM158.875 329.017C158.875 328.554 158.54 328.238 158.16 328.238C157.779 328.238 157.445 328.554 157.445 329.017C157.445 329.479 157.779 329.82 158.16 329.82C158.54 329.82 158.875 329.479 158.875 329.017ZM152.407 330.01H152.143L152.883 328.041H153.147L153.837 330.01H153.576L153.386 329.404H152.622L152.407 330.01ZM153.291 329.157L153.005 328.332L152.72 329.157H153.291ZM159.497 330.01V328.041H160.261C160.74 328.041 161.025 328.113 161.025 328.529C161.025 328.723 160.955 328.845 160.761 328.992C161.096 329.21 160.906 329.745 161.071 330.014C160.427 330.014 161.071 329.138 160.117 329.138H159.758V330.014H159.497V330.01ZM159.755 328.288V328.895H160.209C160.473 328.895 160.758 328.895 160.758 328.579C160.758 328.288 160.568 328.288 160.185 328.288H159.755ZM148.498 330.01V328.041H149.262C149.741 328.041 150.051 328.113 150.051 328.529C150.051 328.723 149.956 328.845 149.766 328.992C150.1 329.21 149.931 329.745 150.1 330.014C149.456 330.014 150.1 329.138 149.146 329.138H148.765V330.014H148.498V330.01ZM148.759 328.288V328.895H149.213C149.477 328.895 149.763 328.895 149.763 328.579C149.763 328.288 149.572 328.288 149.189 328.288H148.759ZM155.438 328.041H156.988V328.285H156.322V330.01H156.083V328.285H155.438V328.041ZM150.428 330.01V328.041H151.812V328.285H150.668V328.891H151.717V329.135H150.668V329.767H151.812V330.01H150.428ZM154.199 330.01V328.041H154.438V329.767H155.441V330.01H154.199Z" fill="#0F00AA"/>
</g>
<circle cx="40" cy="182" r="38.5" fill="white" stroke="#B8D3EB" stroke-width="3"/>
<path d="M33.8223 192.408C33.701 192.473 33.6039 192.457 33.5068 192.36L30.801 189.121C30.7282 189.032 30.7201 188.983 30.8172 188.845C32.9082 185.769 37.1713 180.979 39.8933 178.956C39.9418 178.923 39.9257 178.883 39.869 178.907C37.0338 179.833 28.9809 183.315 26 185.006V196H54.9919V185.412C51.0403 186.086 39.2057 189.625 33.8223 192.408ZM45.6084 172.63C45.754 172.597 45.8187 172.646 45.9077 172.744C46.4092 173.304 48.0149 175.271 48.4517 175.807C48.5326 175.905 48.476 176.01 48.4113 176.067C45.1715 178.606 41.5678 182.202 39.5616 184.77C39.5212 184.827 39.5536 184.827 39.5859 184.819C43.0845 183.307 51.2992 180.89 55 180.215V175.506L40.5162 164L26.0081 175.498V180.646C30.5017 177.964 40.8964 173.808 45.6084 172.63Z" fill="#0F00AA"/>
<circle cx="615" cy="182" r="38.5" fill="white" stroke="#B8D3EB" stroke-width="3"/>
<path d="M606.201 176.847H599.402V197.274H606.201V176.847ZM606.648 170.528C606.604 168.526 605.172 167 602.846 167C600.521 167 599 168.526 599 170.528C599 172.49 600.476 174.059 602.758 174.059H602.801C605.172 174.059 606.648 172.49 606.648 170.528ZM630.719 185.562C630.719 179.288 627.365 176.368 622.891 176.368C619.282 176.368 617.666 178.35 616.763 179.741V176.848H609.964C610.053 178.765 609.964 197.275 609.964 197.275H616.763V185.867C616.763 185.256 616.807 184.647 616.987 184.21C617.479 182.991 618.597 181.728 620.476 181.728C622.937 181.728 623.921 183.601 623.921 186.346V197.274H630.719L630.719 185.562Z" fill="#0F00AA"/>
<path d="M138.377 91.914H144.103V93.342H140.029V95.736H143.753V97.15H140.029V101H138.377V91.914ZM147.932 97.024C148.473 97.024 149.098 97.1127 149.808 97.29V96.618C149.808 96.142 149.71 95.792 149.514 95.568C149.327 95.3347 149.014 95.218 148.576 95.218C148.146 95.218 147.815 95.3067 147.582 95.484C147.348 95.652 147.232 95.8947 147.232 96.212H145.426C145.426 95.4373 145.696 94.8773 146.238 94.532C146.788 94.1867 147.554 94.014 148.534 94.014C149.934 94.014 150.839 94.504 151.25 95.484C151.39 95.82 151.46 96.2167 151.46 96.674V101H150.018L149.892 100.09C149.453 100.827 148.781 101.196 147.876 101.196C146.998 101.196 146.317 100.981 145.832 100.552C145.384 100.141 145.16 99.6233 145.16 98.998C145.16 98.3633 145.407 97.878 145.902 97.542C146.396 97.1967 147.073 97.024 147.932 97.024ZM149.808 98.34C149.257 98.1907 148.744 98.116 148.268 98.116C147.372 98.116 146.924 98.4147 146.924 99.012C146.924 99.264 147.026 99.4833 147.232 99.67C147.437 99.8473 147.764 99.936 148.212 99.936C148.669 99.936 149.042 99.7867 149.332 99.488C149.63 99.18 149.789 98.7973 149.808 98.34ZM156.457 94.014C156.887 94.014 157.269 94.0887 157.605 94.238C157.951 94.378 158.24 94.5647 158.473 94.798C158.94 95.246 159.215 95.8107 159.299 96.492L157.633 96.534C157.559 96.2353 157.419 95.988 157.213 95.792C157.017 95.596 156.789 95.498 156.527 95.498C156.266 95.498 156.042 95.54 155.855 95.624C155.669 95.6987 155.505 95.82 155.365 95.988C155.048 96.38 154.889 96.9213 154.889 97.612C154.889 98.3027 155.039 98.8253 155.337 99.18C155.636 99.5253 155.995 99.698 156.415 99.698C156.845 99.698 157.153 99.6 157.339 99.404C157.535 99.1987 157.633 98.9233 157.633 98.578H159.299C159.299 99.3247 159.052 99.9453 158.557 100.44C158.053 100.944 157.349 101.196 156.443 101.196C155.547 101.196 154.796 100.869 154.189 100.216C153.545 99.516 153.223 98.6433 153.223 97.598C153.223 96.4967 153.545 95.6147 154.189 94.952C154.796 94.3267 155.552 94.014 156.457 94.014ZM166.037 95.008C166.271 95.3067 166.443 95.652 166.555 96.044C166.677 96.436 166.737 96.7953 166.737 97.122C166.737 97.4487 166.719 97.7427 166.681 98.004H162.285C162.304 98.5547 162.439 99.0027 162.691 99.348C162.943 99.6933 163.326 99.866 163.839 99.866C164.521 99.866 164.927 99.5673 165.057 98.97H166.723C166.611 99.6513 166.299 100.188 165.785 100.58C165.253 100.991 164.605 101.196 163.839 101.196C162.943 101.196 162.192 100.869 161.585 100.216C160.96 99.5347 160.647 98.662 160.647 97.598C160.647 96.506 160.96 95.6287 161.585 94.966C162.183 94.3313 162.934 94.014 163.839 94.014C164.782 94.014 165.515 94.3453 166.037 95.008ZM163.853 95.33C163.387 95.33 163.023 95.484 162.761 95.792C162.5 96.0907 162.346 96.478 162.299 96.954H165.197C165.197 96.2167 164.964 95.722 164.497 95.47C164.32 95.3767 164.105 95.33 163.853 95.33ZM174.427 94.994C175.006 95.6473 175.295 96.506 175.295 97.57C175.295 98.634 174.992 99.5113 174.385 100.202C173.797 100.865 173.064 101.196 172.187 101.196C171.767 101.196 171.38 101.084 171.025 100.86C170.68 100.636 170.404 100.291 170.199 99.824L169.793 101H168.715V91.396H170.367V95.05C170.796 94.3593 171.436 94.014 172.285 94.014C173.144 94.014 173.858 94.3407 174.427 94.994ZM170.367 97.178V98.074C170.386 98.55 170.558 98.942 170.885 99.25C171.193 99.5487 171.566 99.698 172.005 99.698C172.453 99.698 172.836 99.5067 173.153 99.124C173.47 98.732 173.629 98.2187 173.629 97.584C173.629 96.9493 173.47 96.4453 173.153 96.072C172.845 95.6893 172.458 95.498 171.991 95.498C171.524 95.498 171.137 95.652 170.829 95.96C170.521 96.268 170.367 96.674 170.367 97.178ZM179.989 94.014C180.446 94.014 180.875 94.0887 181.277 94.238C181.678 94.378 182.023 94.5973 182.313 94.896C182.957 95.5493 183.279 96.4547 183.279 97.612C183.279 98.7507 182.957 99.6467 182.313 100.3C181.734 100.897 180.959 101.196 179.989 101.196C179.018 101.196 178.234 100.897 177.637 100.3C176.993 99.656 176.671 98.76 176.671 97.612C176.671 96.4453 176.993 95.54 177.637 94.896C178.225 94.308 179.009 94.014 179.989 94.014ZM181.627 97.598C181.627 96.8793 181.487 96.3427 181.207 95.988C180.927 95.624 180.535 95.442 180.031 95.442C179.536 95.442 179.13 95.624 178.813 95.988C178.495 96.3427 178.337 96.8793 178.337 97.598C178.337 98.3167 178.477 98.858 178.757 99.222C179.046 99.5767 179.438 99.754 179.933 99.754C180.427 99.754 180.833 99.5767 181.151 99.222C181.468 98.858 181.627 98.3167 181.627 97.598ZM187.918 94.014C188.376 94.014 188.805 94.0887 189.206 94.238C189.608 94.378 189.953 94.5973 190.242 94.896C190.886 95.5493 191.208 96.4547 191.208 97.612C191.208 98.7507 190.886 99.6467 190.242 100.3C189.664 100.897 188.889 101.196 187.918 101.196C186.948 101.196 186.164 100.897 185.566 100.3C184.922 99.656 184.6 98.76 184.6 97.612C184.6 96.4453 184.922 95.54 185.566 94.896C186.154 94.308 186.938 94.014 187.918 94.014ZM189.556 97.598C189.556 96.8793 189.416 96.3427 189.136 95.988C188.856 95.624 188.464 95.442 187.96 95.442C187.466 95.442 187.06 95.624 186.742 95.988C186.425 96.3427 186.266 96.8793 186.266 97.598C186.266 98.3167 186.406 98.858 186.686 99.222C186.976 99.5767 187.368 99.754 187.862 99.754C188.357 99.754 188.763 99.5767 189.08 99.222C189.398 98.858 189.556 98.3167 189.556 97.598ZM195.582 97.682L194.826 98.312V101H193.174V91.396H194.826V96.59L197.514 94.196H199.754L196.744 96.716L199.922 101H197.906L195.582 97.682Z" fill="#0F00AA"/>
<path d="M21.3013 241.572L26.1033 235.44L21.3013 235.426V233.914H28.1753V235.328L23.3873 241.474L28.1753 241.488V243H21.3013V241.572ZM30.526 236.182H32.178V243H30.526V236.182ZM30.33 233.998C30.33 233.699 30.4187 233.466 30.596 233.298C30.7733 233.121 31.0253 233.032 31.352 233.032C31.6693 233.032 31.9167 233.121 32.094 233.298C32.2807 233.466 32.374 233.699 32.374 233.998C32.374 234.297 32.2807 234.535 32.094 234.712C31.9167 234.88 31.6693 234.964 31.352 234.964C31.0253 234.964 30.7733 234.88 30.596 234.712C30.4187 234.535 30.33 234.297 30.33 233.998ZM34.9797 233.396H36.6317V243H34.9797V233.396ZM39.2317 233.396H40.8837V243H39.2317V233.396ZM46.1576 236.014C46.615 236.014 47.0443 236.089 47.4456 236.238C47.847 236.378 48.1923 236.597 48.4816 236.896C49.1256 237.549 49.4476 238.455 49.4476 239.612C49.4476 240.751 49.1256 241.647 48.4816 242.3C47.903 242.897 47.1283 243.196 46.1576 243.196C45.187 243.196 44.403 242.897 43.8056 242.3C43.1616 241.656 42.8396 240.76 42.8396 239.612C42.8396 238.445 43.1616 237.54 43.8056 236.896C44.3936 236.308 45.1776 236.014 46.1576 236.014ZM47.7956 239.598C47.7956 238.879 47.6556 238.343 47.3756 237.988C47.0956 237.624 46.7036 237.442 46.1996 237.442C45.705 237.442 45.299 237.624 44.9816 237.988C44.6643 238.343 44.5056 238.879 44.5056 239.598C44.5056 240.317 44.6456 240.858 44.9256 241.222C45.215 241.577 45.607 241.754 46.1016 241.754C46.5963 241.754 47.0023 241.577 47.3196 241.222C47.637 240.858 47.7956 240.317 47.7956 239.598ZM52.0153 236.196L53.3873 241.054L54.6893 236.574H56.1873L57.4893 241.068L58.8753 236.196H60.5273L58.2873 243H56.6633L55.4033 238.926L54.1713 243H52.5333L50.2793 236.196H52.0153Z" fill="#0F00AA"/>
<path d="M589.311 241.558H593.049V243H587.659V233.914H589.311V241.558ZM594.717 236.182H596.369V243H594.717V236.182ZM594.521 233.998C594.521 233.699 594.61 233.466 594.787 233.298C594.965 233.121 595.217 233.032 595.543 233.032C595.861 233.032 596.108 233.121 596.285 233.298C596.472 233.466 596.565 233.699 596.565 233.998C596.565 234.297 596.472 234.535 596.285 234.712C596.108 234.88 595.861 234.964 595.543 234.964C595.217 234.964 594.965 234.88 594.787 234.712C594.61 234.535 594.521 234.297 594.521 233.998ZM600.795 237.372C601.243 236.467 601.962 236.014 602.951 236.014C603.791 236.014 604.421 236.289 604.841 236.84C605.27 237.391 605.485 238.119 605.485 239.024V243H603.833V239.024C603.833 238.52 603.712 238.142 603.469 237.89C603.226 237.629 602.886 237.498 602.447 237.498C602.008 237.498 601.63 237.694 601.313 238.086C601.005 238.478 600.842 239.066 600.823 239.85V243H599.171V236.196H600.613L600.795 237.372ZM610.302 239.682L609.546 240.312V243H607.894V233.396H609.546V238.59L612.234 236.196H614.474L611.464 238.716L614.642 243H612.626L610.302 239.682ZM620.693 237.008C620.926 237.307 621.099 237.652 621.211 238.044C621.332 238.436 621.393 238.795 621.393 239.122C621.393 239.449 621.374 239.743 621.337 240.004H616.941C616.959 240.555 617.095 241.003 617.347 241.348C617.599 241.693 617.981 241.866 618.495 241.866C619.176 241.866 619.582 241.567 619.713 240.97H621.379C621.267 241.651 620.954 242.188 620.441 242.58C619.909 242.991 619.26 243.196 618.495 243.196C617.599 243.196 616.847 242.869 616.241 242.216C615.615 241.535 615.303 240.662 615.303 239.598C615.303 238.506 615.615 237.629 616.241 236.966C616.838 236.331 617.589 236.014 618.495 236.014C619.437 236.014 620.17 236.345 620.693 237.008ZM618.509 237.33C618.042 237.33 617.678 237.484 617.417 237.792C617.155 238.091 617.001 238.478 616.955 238.954H619.853C619.853 238.217 619.619 237.722 619.153 237.47C618.975 237.377 618.761 237.33 618.509 237.33ZM627.808 241.95C627.388 242.781 626.744 243.196 625.876 243.196C625.008 243.196 624.28 242.865 623.692 242.202C623.086 241.511 622.782 240.634 622.782 239.57C622.782 238.506 623.072 237.643 623.65 236.98C624.22 236.336 624.929 236.014 625.778 236.014C626.628 236.014 627.267 236.355 627.696 237.036V233.396H629.362V243H628.004L627.808 241.95ZM626.086 237.498C625.62 237.498 625.228 237.689 624.91 238.072C624.602 238.445 624.448 238.949 624.448 239.584C624.448 240.219 624.607 240.732 624.924 241.124C625.242 241.507 625.643 241.698 626.128 241.698C626.53 241.698 626.889 241.539 627.206 241.222C627.533 240.895 627.696 240.485 627.696 239.99V239.108C627.678 238.623 627.514 238.226 627.206 237.918C626.926 237.638 626.553 237.498 626.086 237.498ZM631.97 233.914H633.622V243H631.97V233.914ZM637.846 237.372C638.294 236.467 639.013 236.014 640.002 236.014C640.842 236.014 641.472 236.289 641.892 236.84C642.321 237.391 642.536 238.119 642.536 239.024V243H640.884V239.024C640.884 238.52 640.763 238.142 640.52 237.89C640.277 237.629 639.937 237.498 639.498 237.498C639.059 237.498 638.681 237.694 638.364 238.086C638.056 238.478 637.893 239.066 637.874 239.85V243H636.222V236.196H637.664L637.846 237.372Z" fill="#0F00AA"/>
<path d="M451.188 91.914V95.708H455.15V91.914H456.802V101H455.15V97.15H451.188V101H449.536V91.914H451.188ZM462.095 94.014C462.552 94.014 462.982 94.0887 463.383 94.238C463.784 94.378 464.13 94.5973 464.419 94.896C465.063 95.5493 465.385 96.4547 465.385 97.612C465.385 98.7507 465.063 99.6467 464.419 100.3C463.84 100.897 463.066 101.196 462.095 101.196C461.124 101.196 460.34 100.897 459.743 100.3C459.099 99.656 458.777 98.76 458.777 97.612C458.777 96.4453 459.099 95.54 459.743 94.896C460.331 94.308 461.115 94.014 462.095 94.014ZM463.733 97.598C463.733 96.8793 463.593 96.3427 463.313 95.988C463.033 95.624 462.641 95.442 462.137 95.442C461.642 95.442 461.236 95.624 460.919 95.988C460.602 96.3427 460.443 96.8793 460.443 97.598C460.443 98.3167 460.583 98.858 460.863 99.222C461.152 99.5767 461.544 99.754 462.039 99.754C462.534 99.754 462.94 99.5767 463.257 99.222C463.574 98.858 463.733 98.3167 463.733 97.598ZM473.399 95.484C473.837 94.504 474.607 94.014 475.709 94.014C476.521 94.014 477.151 94.2893 477.599 94.84C478.028 95.3627 478.243 96.0907 478.243 97.024V101H476.577V97.024C476.577 96.52 476.455 96.142 476.213 95.89C475.97 95.6287 475.629 95.498 475.191 95.498C474.752 95.498 474.393 95.6893 474.113 96.072C473.833 96.4547 473.683 97.0333 473.665 97.808V101H472.013V97.024C472.013 96.52 471.891 96.142 471.649 95.89C471.406 95.6287 471.065 95.498 470.627 95.498C470.188 95.498 469.81 95.694 469.493 96.086C469.185 96.478 469.021 97.066 469.003 97.85V101H467.351V94.196H468.793L468.975 95.372C469.423 94.4667 470.141 94.014 471.131 94.014C471.7 94.014 472.171 94.1447 472.545 94.406C472.927 94.6673 473.212 95.0267 473.399 95.484ZM485.386 95.008C485.619 95.3067 485.792 95.652 485.904 96.044C486.025 96.436 486.086 96.7953 486.086 97.122C486.086 97.4487 486.067 97.7427 486.03 98.004H481.634C481.653 98.5547 481.788 99.0027 482.04 99.348C482.292 99.6933 482.675 99.866 483.188 99.866C483.869 99.866 484.275 99.5673 484.406 98.97H486.072C485.96 99.6513 485.647 100.188 485.134 100.58C484.602 100.991 483.953 101.196 483.188 101.196C482.292 101.196 481.541 100.869 480.934 100.216C480.309 99.5347 479.996 98.662 479.996 97.598C479.996 96.506 480.309 95.6287 480.934 94.966C481.531 94.3313 482.283 94.014 483.188 94.014C484.131 94.014 484.863 94.3453 485.386 95.008ZM483.202 95.33C482.735 95.33 482.371 95.484 482.11 95.792C481.849 96.0907 481.695 96.478 481.648 96.954H484.546C484.546 96.2167 484.313 95.722 483.846 95.47C483.669 95.3767 483.454 95.33 483.202 95.33ZM491.605 91.396H493.257V101H491.605V91.396ZM498.531 94.014C498.988 94.014 499.417 94.0887 499.819 94.238C500.22 94.378 500.565 94.5973 500.855 94.896C501.499 95.5493 501.821 96.4547 501.821 97.612C501.821 98.7507 501.499 99.6467 500.855 100.3C500.276 100.897 499.501 101.196 498.531 101.196C497.56 101.196 496.776 100.897 496.179 100.3C495.535 99.656 495.213 98.76 495.213 97.612C495.213 96.4453 495.535 95.54 496.179 94.896C496.767 94.308 497.551 94.014 498.531 94.014ZM500.169 97.598C500.169 96.8793 500.029 96.3427 499.749 95.988C499.469 95.624 499.077 95.442 498.573 95.442C498.078 95.442 497.672 95.624 497.355 95.988C497.037 96.3427 496.879 96.8793 496.879 97.598C496.879 98.3167 497.019 98.858 497.299 99.222C497.588 99.5767 497.98 99.754 498.475 99.754C498.969 99.754 499.375 99.5767 499.693 99.222C500.01 98.858 500.169 98.3167 500.169 97.598ZM506.026 97.024C506.568 97.024 507.193 97.1127 507.902 97.29V96.618C507.902 96.142 507.804 95.792 507.608 95.568C507.422 95.3347 507.109 95.218 506.67 95.218C506.241 95.218 505.91 95.3067 505.676 95.484C505.443 95.652 505.326 95.8947 505.326 96.212H503.52C503.52 95.4373 503.791 94.8773 504.332 94.532C504.883 94.1867 505.648 94.014 506.628 94.014C508.028 94.014 508.934 94.504 509.344 95.484C509.484 95.82 509.554 96.2167 509.554 96.674V101H508.112L507.986 100.09C507.548 100.827 506.876 101.196 505.97 101.196C505.093 101.196 504.412 100.981 503.926 100.552C503.478 100.141 503.254 99.6233 503.254 98.998C503.254 98.3633 503.502 97.878 503.996 97.542C504.491 97.1967 505.168 97.024 506.026 97.024ZM507.902 98.34C507.352 98.1907 506.838 98.116 506.362 98.116C505.466 98.116 505.018 98.4147 505.018 99.012C505.018 99.264 505.121 99.4833 505.326 99.67C505.532 99.8473 505.858 99.936 506.306 99.936C506.764 99.936 507.137 99.7867 507.426 99.488C507.725 99.18 507.884 98.7973 507.902 98.34ZM513.586 95.372C514.034 94.4667 514.753 94.014 515.742 94.014C516.582 94.014 517.212 94.2893 517.632 94.84C518.061 95.3907 518.276 96.1187 518.276 97.024V101H516.624V97.024C516.624 96.52 516.503 96.142 516.26 95.89C516.017 95.6287 515.677 95.498 515.238 95.498C514.799 95.498 514.421 95.694 514.104 96.086C513.796 96.478 513.633 97.066 513.614 97.85V101H511.962V94.196H513.404L513.586 95.372ZM521.609 98.928C521.627 99.572 522.099 99.894 523.023 99.894C523.377 99.894 523.667 99.8193 523.891 99.67C524.124 99.5113 524.241 99.3293 524.241 99.124C524.241 98.9187 524.171 98.76 524.031 98.648C523.891 98.536 523.671 98.4333 523.373 98.34L521.889 97.808C520.787 97.4253 520.237 96.8 520.237 95.932C520.237 95.3533 520.493 94.8913 521.007 94.546C521.529 94.1913 522.225 94.014 523.093 94.014C523.97 94.014 524.642 94.2053 525.109 94.588C525.585 94.9707 525.832 95.4513 525.851 96.03H524.297C524.278 95.806 524.171 95.6287 523.975 95.498C523.779 95.3673 523.499 95.302 523.135 95.302C522.771 95.302 522.486 95.3767 522.281 95.526C522.085 95.666 521.987 95.8293 521.987 96.016C521.987 96.3427 522.262 96.5853 522.813 96.744L524.423 97.346C524.955 97.5233 525.361 97.752 525.641 98.032C525.93 98.3027 526.075 98.6573 526.075 99.096C526.075 99.656 525.809 100.141 525.277 100.552C524.726 100.981 523.998 101.196 523.093 101.196C522.187 101.196 521.459 101 520.909 100.608C520.358 100.207 520.078 99.6467 520.069 98.928H521.609Z" fill="#0F00AA"/>
<path d="M140.474 376.914H147.754V378.342H144.94V386H143.288V378.342H140.474V376.914ZM150.795 380.302C151.261 379.443 151.943 379.014 152.839 379.014C153.735 379.014 154.393 379.289 154.813 379.84C155.242 380.391 155.457 381.119 155.457 382.024V386H153.805V382.024C153.805 381.52 153.683 381.142 153.441 380.89C153.198 380.629 152.857 380.498 152.419 380.498C151.98 380.498 151.602 380.694 151.285 381.086C150.977 381.478 150.813 382.066 150.795 382.85V386H149.143V376.396H150.795V380.302ZM162.611 380.008C162.845 380.307 163.017 380.652 163.129 381.044C163.251 381.436 163.311 381.795 163.311 382.122C163.311 382.449 163.293 382.743 163.255 383.004H158.859C158.878 383.555 159.013 384.003 159.265 384.348C159.517 384.693 159.9 384.866 160.413 384.866C161.095 384.866 161.501 384.567 161.631 383.97H163.297C163.185 384.651 162.873 385.188 162.359 385.58C161.827 385.991 161.179 386.196 160.413 386.196C159.517 386.196 158.766 385.869 158.159 385.216C157.534 384.535 157.221 383.662 157.221 382.598C157.221 381.506 157.534 380.629 158.159 379.966C158.757 379.331 159.508 379.014 160.413 379.014C161.356 379.014 162.089 379.345 162.611 380.008ZM160.427 380.33C159.961 380.33 159.597 380.484 159.335 380.792C159.074 381.091 158.92 381.478 158.873 381.954H161.771C161.771 381.217 161.538 380.722 161.071 380.47C160.894 380.377 160.679 380.33 160.427 380.33ZM171.196 376.914L173.688 382.318L176.18 376.914H178.462V386H176.796V379.098L174.22 385.006H173.142L170.482 378.902V386H168.83V376.914H171.196ZM182.719 384.558H186.457V386H181.067V376.914H182.719V384.558ZM192.759 379.42C192.609 378.627 192.049 378.23 191.079 378.23C190.603 378.23 190.229 378.328 189.959 378.524C189.697 378.711 189.567 378.939 189.567 379.21C189.567 379.481 189.651 379.695 189.819 379.854C189.996 380.003 190.267 380.143 190.631 380.274L192.605 381.044C193.277 381.305 193.795 381.637 194.159 382.038C194.523 382.43 194.705 382.925 194.705 383.522C194.705 384.343 194.397 384.997 193.781 385.482C193.165 385.958 192.287 386.196 191.149 386.196C190.141 386.196 189.324 385.949 188.699 385.454C187.999 384.913 187.63 384.147 187.593 383.158H189.231C189.231 383.905 189.618 384.376 190.393 384.572C190.626 384.637 190.934 384.67 191.317 384.67C191.699 384.67 192.054 384.577 192.381 384.39C192.707 384.194 192.871 383.937 192.871 383.62C192.871 383.293 192.782 383.046 192.605 382.878C192.427 382.701 192.138 382.537 191.737 382.388L189.931 381.674C189.231 381.403 188.694 381.086 188.321 380.722C187.947 380.358 187.761 379.854 187.761 379.21C187.761 378.454 188.055 377.857 188.643 377.418C189.24 376.961 190.047 376.732 191.065 376.732C192.091 376.732 192.88 376.97 193.431 377.446C193.991 377.913 194.313 378.571 194.397 379.42H192.759Z" fill="#0F00AA"/>
<path d="M429.527 376.914C430.908 376.914 432.024 377.325 432.873 378.146C433.732 378.967 434.161 380.073 434.161 381.464C434.161 382.845 433.732 383.947 432.873 384.768C432.024 385.589 430.908 386 429.527 386H426.573V376.914H429.527ZM428.239 384.502H429.527C430.386 384.502 431.081 384.213 431.613 383.634C432.117 383.074 432.369 382.351 432.369 381.464C432.369 380.559 432.117 379.826 431.613 379.266C431.09 378.697 430.395 378.412 429.527 378.412H428.239V384.502ZM440.931 380.008C441.164 380.307 441.337 380.652 441.449 381.044C441.57 381.436 441.631 381.795 441.631 382.122C441.631 382.449 441.612 382.743 441.575 383.004H437.179C437.197 383.555 437.333 384.003 437.585 384.348C437.837 384.693 438.219 384.866 438.733 384.866C439.414 384.866 439.82 384.567 439.951 383.97H441.617C441.505 384.651 441.192 385.188 440.679 385.58C440.147 385.991 439.498 386.196 438.733 386.196C437.837 386.196 437.085 385.869 436.479 385.216C435.853 384.535 435.541 383.662 435.541 382.598C435.541 381.506 435.853 380.629 436.479 379.966C437.076 379.331 437.827 379.014 438.733 379.014C439.675 379.014 440.408 379.345 440.931 380.008ZM438.747 380.33C438.28 380.33 437.916 380.484 437.655 380.792C437.393 381.091 437.239 381.478 437.193 381.954H440.091C440.091 381.217 439.857 380.722 439.391 380.47C439.213 380.377 438.999 380.33 438.747 380.33ZM448.047 384.95C447.627 385.781 446.983 386.196 446.115 386.196C445.247 386.196 444.519 385.865 443.931 385.202C443.324 384.511 443.021 383.634 443.021 382.57C443.021 381.506 443.31 380.643 443.889 379.98C444.458 379.336 445.167 379.014 446.017 379.014C446.866 379.014 447.505 379.355 447.935 380.036V376.396H449.601V386H448.243L448.047 384.95ZM446.325 380.498C445.858 380.498 445.466 380.689 445.149 381.072C444.841 381.445 444.687 381.949 444.687 382.584C444.687 383.219 444.845 383.732 445.163 384.124C445.48 384.507 445.881 384.698 446.367 384.698C446.768 384.698 447.127 384.539 447.445 384.222C447.771 383.895 447.935 383.485 447.935 382.99V382.108C447.916 381.623 447.753 381.226 447.445 380.918C447.165 380.638 446.791 380.498 446.325 380.498ZM452.348 379.182H454V386H452.348V379.182ZM452.152 376.998C452.152 376.699 452.241 376.466 452.418 376.298C452.596 376.121 452.848 376.032 453.174 376.032C453.492 376.032 453.739 376.121 453.916 376.298C454.103 376.466 454.196 376.699 454.196 376.998C454.196 377.297 454.103 377.535 453.916 377.712C453.739 377.88 453.492 377.964 453.174 377.964C452.848 377.964 452.596 377.88 452.418 377.712C452.241 377.535 452.152 377.297 452.152 376.998ZM459.392 379.014C459.821 379.014 460.204 379.089 460.54 379.238C460.885 379.378 461.175 379.565 461.408 379.798C461.875 380.246 462.15 380.811 462.234 381.492L460.568 381.534C460.493 381.235 460.353 380.988 460.148 380.792C459.952 380.596 459.723 380.498 459.462 380.498C459.201 380.498 458.977 380.54 458.79 380.624C458.603 380.699 458.44 380.82 458.3 380.988C457.983 381.38 457.824 381.921 457.824 382.612C457.824 383.303 457.973 383.825 458.272 384.18C458.571 384.525 458.93 384.698 459.35 384.698C459.779 384.698 460.087 384.6 460.274 384.404C460.47 384.199 460.568 383.923 460.568 383.578H462.234C462.234 384.325 461.987 384.945 461.492 385.44C460.988 385.944 460.283 386.196 459.378 386.196C458.482 386.196 457.731 385.869 457.124 385.216C456.48 384.516 456.158 383.643 456.158 382.598C456.158 381.497 456.48 380.615 457.124 379.952C457.731 379.327 458.487 379.014 459.392 379.014ZM466.466 382.024C467.007 382.024 467.632 382.113 468.342 382.29V381.618C468.342 381.142 468.244 380.792 468.048 380.568C467.861 380.335 467.548 380.218 467.11 380.218C466.68 380.218 466.349 380.307 466.116 380.484C465.882 380.652 465.766 380.895 465.766 381.212H463.96C463.96 380.437 464.23 379.877 464.772 379.532C465.322 379.187 466.088 379.014 467.068 379.014C468.468 379.014 469.373 379.504 469.784 380.484C469.924 380.82 469.994 381.217 469.994 381.674V386H468.552L468.426 385.09C467.987 385.827 467.315 386.196 466.41 386.196C465.532 386.196 464.851 385.981 464.366 385.552C463.918 385.141 463.694 384.623 463.694 383.998C463.694 383.363 463.941 382.878 464.436 382.542C464.93 382.197 465.607 382.024 466.466 382.024ZM468.342 383.34C467.791 383.191 467.278 383.116 466.802 383.116C465.906 383.116 465.458 383.415 465.458 384.012C465.458 384.264 465.56 384.483 465.766 384.67C465.971 384.847 466.298 384.936 466.746 384.936C467.203 384.936 467.576 384.787 467.866 384.488C468.164 384.18 468.323 383.797 468.342 383.34ZM476.238 385.832C475.622 386.075 475.136 386.196 474.782 386.196C474.427 386.196 474.114 386.154 473.844 386.07C473.582 385.986 473.349 385.86 473.144 385.692C472.714 385.309 472.5 384.782 472.5 384.11V380.302H471.548V379.196H472.5V377.404H474.152V379.196H476V380.302H474.152V384.054C474.152 384.614 474.418 384.894 474.95 384.894C475.22 384.894 475.57 384.819 476 384.67L476.238 385.832ZM482.671 380.008C482.904 380.307 483.077 380.652 483.189 381.044C483.31 381.436 483.371 381.795 483.371 382.122C483.371 382.449 483.352 382.743 483.315 383.004H478.919C478.938 383.555 479.073 384.003 479.325 384.348C479.577 384.693 479.96 384.866 480.473 384.866C481.154 384.866 481.56 384.567 481.691 383.97H483.357C483.245 384.651 482.932 385.188 482.419 385.58C481.887 385.991 481.238 386.196 480.473 386.196C479.577 386.196 478.826 385.869 478.219 385.216C477.594 384.535 477.281 383.662 477.281 382.598C477.281 381.506 477.594 380.629 478.219 379.966C478.816 379.331 479.568 379.014 480.473 379.014C481.416 379.014 482.148 379.345 482.671 380.008ZM480.487 380.33C480.02 380.33 479.656 380.484 479.395 380.792C479.134 381.091 478.98 381.478 478.933 381.954H481.831C481.831 381.217 481.598 380.722 481.131 380.47C480.954 380.377 480.739 380.33 480.487 380.33ZM489.787 384.95C489.367 385.781 488.723 386.196 487.855 386.196C486.987 386.196 486.259 385.865 485.671 385.202C485.064 384.511 484.761 383.634 484.761 382.57C484.761 381.506 485.05 380.643 485.629 379.98C486.198 379.336 486.908 379.014 487.757 379.014C488.606 379.014 489.246 379.355 489.675 380.036V376.396H491.341V386H489.983L489.787 384.95ZM488.065 380.498C487.598 380.498 487.206 380.689 486.889 381.072C486.581 381.445 486.427 381.949 486.427 382.584C486.427 383.219 486.586 383.732 486.903 384.124C487.22 384.507 487.622 384.698 488.107 384.698C488.508 384.698 488.868 384.539 489.185 384.222C489.512 383.895 489.675 383.485 489.675 382.99V382.108C489.656 381.623 489.493 381.226 489.185 380.918C488.905 380.638 488.532 380.498 488.065 380.498ZM498.414 383.928C498.432 384.572 498.904 384.894 499.828 384.894C500.182 384.894 500.472 384.819 500.696 384.67C500.929 384.511 501.046 384.329 501.046 384.124C501.046 383.919 500.976 383.76 500.836 383.648C500.696 383.536 500.476 383.433 500.178 383.34L498.694 382.808C497.592 382.425 497.042 381.8 497.042 380.932C497.042 380.353 497.298 379.891 497.812 379.546C498.334 379.191 499.03 379.014 499.898 379.014C500.775 379.014 501.447 379.205 501.914 379.588C502.39 379.971 502.637 380.451 502.656 381.03H501.102C501.083 380.806 500.976 380.629 500.78 380.498C500.584 380.367 500.304 380.302 499.94 380.302C499.576 380.302 499.291 380.377 499.086 380.526C498.89 380.666 498.792 380.829 498.792 381.016C498.792 381.343 499.067 381.585 499.618 381.744L501.228 382.346C501.76 382.523 502.166 382.752 502.446 383.032C502.735 383.303 502.88 383.657 502.88 384.096C502.88 384.656 502.614 385.141 502.082 385.552C501.531 385.981 500.803 386.196 499.898 386.196C498.992 386.196 498.264 386 497.714 385.608C497.163 385.207 496.883 384.647 496.874 383.928H498.414ZM509.394 384.768C508.965 385.673 508.274 386.126 507.322 386.126C506.118 386.126 505.325 385.655 504.942 384.712C504.802 384.385 504.732 383.989 504.732 383.522V379.182H506.384V383.354C506.384 383.802 506.492 384.138 506.706 384.362C506.921 384.577 507.182 384.684 507.49 384.684C507.808 384.684 508.074 384.642 508.288 384.558C508.503 384.465 508.69 384.329 508.848 384.152C509.194 383.751 509.376 383.214 509.394 382.542V379.182H511.046V386H509.394V384.768ZM515.162 380.12C515.591 379.383 516.244 379.014 517.122 379.014C517.962 379.014 518.68 379.331 519.278 379.966C519.912 380.638 520.23 381.515 520.23 382.598C520.23 383.69 519.908 384.572 519.264 385.244C518.666 385.879 517.952 386.196 517.122 386.196C516.291 386.196 515.684 385.949 515.302 385.454V389.318H513.65V379.196H515.008L515.162 380.12ZM516.828 384.698C517.024 384.698 517.224 384.656 517.43 384.572C517.644 384.488 517.836 384.357 518.004 384.18C518.377 383.788 518.564 383.265 518.564 382.612C518.564 381.949 518.4 381.431 518.074 381.058C517.756 380.685 517.364 380.498 516.898 380.498C516.44 380.498 516.062 380.633 515.764 380.904C515.474 381.165 515.32 381.543 515.302 382.038V383.256C515.302 383.695 515.456 384.049 515.764 384.32C516.053 384.572 516.408 384.698 516.828 384.698ZM523.707 380.12C524.136 379.383 524.789 379.014 525.667 379.014C526.507 379.014 527.225 379.331 527.823 379.966C528.457 380.638 528.775 381.515 528.775 382.598C528.775 383.69 528.453 384.572 527.809 385.244C527.211 385.879 526.497 386.196 525.667 386.196C524.836 386.196 524.229 385.949 523.847 385.454V389.318H522.195V379.196H523.553L523.707 380.12ZM525.373 384.698C525.569 384.698 525.769 384.656 525.975 384.572C526.189 384.488 526.381 384.357 526.549 384.18C526.922 383.788 527.109 383.265 527.109 382.612C527.109 381.949 526.945 381.431 526.619 381.058C526.301 380.685 525.909 380.498 525.443 380.498C524.985 380.498 524.607 380.633 524.309 380.904C524.019 381.165 523.865 381.543 523.847 382.038V383.256C523.847 383.695 524.001 384.049 524.309 384.32C524.598 384.572 524.953 384.698 525.373 384.698ZM533.414 379.014C533.871 379.014 534.3 379.089 534.702 379.238C535.103 379.378 535.448 379.597 535.738 379.896C536.382 380.549 536.704 381.455 536.704 382.612C536.704 383.751 536.382 384.647 535.738 385.3C535.159 385.897 534.384 386.196 533.414 386.196C532.443 386.196 531.659 385.897 531.062 385.3C530.418 384.656 530.096 383.76 530.096 382.612C530.096 381.445 530.418 380.54 531.062 379.896C531.65 379.308 532.434 379.014 533.414 379.014ZM535.052 382.598C535.052 381.879 534.912 381.343 534.632 380.988C534.352 380.624 533.96 380.442 533.456 380.442C532.961 380.442 532.555 380.624 532.238 380.988C531.92 381.343 531.762 381.879 531.762 382.598C531.762 383.317 531.902 383.858 532.182 384.222C532.471 384.577 532.863 384.754 533.358 384.754C533.852 384.754 534.258 384.577 534.576 384.222C534.893 383.858 535.052 383.317 535.052 382.598ZM540.321 380.54C540.732 379.56 541.348 379.07 542.169 379.07C542.328 379.07 542.529 379.103 542.771 379.168L542.743 380.82C542.482 380.764 542.225 380.736 541.973 380.736C540.872 380.736 540.321 381.497 540.321 383.018V386H538.669V379.182H540.321V380.54ZM548.329 385.832C547.713 386.075 547.228 386.196 546.873 386.196C546.519 386.196 546.206 386.154 545.935 386.07C545.674 385.986 545.441 385.86 545.235 385.692C544.806 385.309 544.591 384.782 544.591 384.11V380.302H543.639V379.196H544.591V377.404H546.243V379.196H548.091V380.302H546.243V384.054C546.243 384.614 546.509 384.894 547.041 384.894C547.312 384.894 547.662 384.819 548.091 384.67L548.329 385.832Z" fill="#0F00AA"/>
<circle cx="168" cy="40" r="38.5" fill="white" stroke="#B8D3EB" stroke-width="3"/>
<path d="M170.974 57V40.9981H175.412L176 35.4838H170.974L170.982 32.7238C170.982 31.2856 171.119 30.515 173.194 30.515H175.969V25H171.53C166.199 25 164.323 27.675 164.323 32.1736V35.4844H161V40.9988H164.323V57H170.974Z" fill="#0F00AA"/>
<rect x="206" y="125" width="242" height="115" rx="10" fill="white"/>
<path d="M453 226.032V138.965C453 129.042 444.913 121 434.944 121H219.056C209.083 121 201 129.042 201 138.965V226.032C201 235.954 209.083 243.996 219.056 243.996H434.941C444.913 244 453 235.954 453 226.032ZM445.819 195.405C445.819 196.12 445.235 196.701 444.517 196.701C443.799 196.701 443.215 196.12 443.215 195.405C443.215 194.69 443.799 194.109 444.517 194.109C445.235 194.109 445.819 194.69 445.819 195.405ZM445.819 176.173V189.732C445.819 190.447 445.235 191.028 444.517 191.028C443.799 191.028 443.215 190.447 443.215 189.732V176.173C443.215 175.458 443.799 174.877 444.517 174.877C445.235 174.877 445.819 175.458 445.819 176.173ZM219.109 237.074C213.567 237.074 209.076 232.606 209.076 227.092V137.905C209.076 132.391 213.567 127.923 219.109 127.923H436.494C442.036 127.923 446.527 132.391 446.527 137.905V152.454H446.159C441.728 152.454 438.133 156.028 438.133 160.44V204.556C438.133 208.965 441.725 212.542 446.159 212.542H446.527V227.092C446.527 232.606 442.036 237.074 436.494 237.074H219.109Z" fill="#B8D3EB"/>
<path d="M272.904 176.116C272.863 175.872 272.773 175.638 272.641 175.429C272.508 175.22 272.335 175.039 272.132 174.897C272.065 174.852 258.926 165.701 254.283 162.488C253.818 162.166 253.265 161.996 252.699 162C252.132 162.005 251.582 162.184 251.122 162.513C246.574 165.774 233.637 174.994 233.563 175.046C233.38 175.221 233.236 175.432 233.139 175.666C233.042 175.9 232.995 176.151 233 176.404V199.824C232.999 200.06 233.045 200.294 233.135 200.512C233.226 200.73 233.359 200.928 233.527 201.094C233.695 201.26 233.895 201.391 234.114 201.479C234.333 201.567 234.568 201.61 234.804 201.606H242.015L241.846 201.438C241.645 201.236 241.532 200.963 241.532 200.678C241.532 200.394 241.645 200.121 241.846 199.919L242.703 199.064L243.115 198.653L241.846 197.388C241.8 197.341 241.758 197.29 241.721 197.237C241.578 197.03 241.513 196.78 241.536 196.53C241.559 196.28 241.669 196.046 241.846 195.869L242.746 194.971L243.115 194.603L242.53 194.095C242.254 193.855 241.856 193.614 241.711 193.268C241.516 192.796 241.621 192.148 241.621 191.646V191.597C239.861 190.811 238.367 189.535 237.316 187.922C236.265 186.31 235.702 184.429 235.695 182.505C235.657 177.016 240.103 172.531 245.603 172.474C248.455 172.441 251.122 173.681 252.968 175.569C252.719 175.792 252.464 176.024 252.241 176.265C250.672 177.96 249.736 180.124 249.736 182.433C249.736 184.476 250.464 186.405 251.842 188.079C251.97 188.237 252.104 188.387 252.242 188.535C252.468 188.78 252.703 189.075 252.952 189.305C252.051 190.244 250.974 190.997 249.782 191.522C249.761 191.532 249.743 191.547 249.731 191.566C249.718 191.586 249.712 191.608 249.712 191.631V201.491C249.711 201.506 249.714 201.522 249.72 201.536C249.726 201.551 249.735 201.564 249.746 201.575C249.757 201.586 249.77 201.595 249.785 201.601C249.799 201.607 249.815 201.61 249.831 201.61H256.171C256.203 201.61 256.233 201.597 256.255 201.575C256.278 201.553 256.29 201.522 256.29 201.491V191.628C256.29 191.605 256.283 191.582 256.271 191.563C256.258 191.544 256.24 191.529 256.219 191.519C255.019 190.992 253.935 190.234 253.029 189.288C253.274 189.061 253.511 188.772 253.732 188.532C253.87 188.384 254.004 188.232 254.133 188.076C255.51 186.402 256.238 184.472 256.238 182.43C256.238 180.121 255.302 177.956 253.733 176.262C253.513 176.025 253.26 175.796 253.01 175.575C254.857 173.685 257.535 172.438 260.392 172.471C265.891 172.531 270.335 177.016 270.299 182.505C270.292 184.428 269.73 186.307 268.681 187.919C267.631 189.531 266.138 190.807 264.38 191.594V191.611C264.38 192.032 264.418 192.469 264.334 192.889C264.296 193.098 264.216 193.296 264.097 193.471C263.953 193.674 263.744 193.826 263.563 193.993C263.337 194.199 263.109 194.403 262.878 194.605L263.45 195.176L264.146 195.87C264.323 196.047 264.433 196.279 264.456 196.528C264.48 196.777 264.416 197.026 264.275 197.233C264.237 197.289 264.194 197.342 264.146 197.39L262.878 198.656L263.441 199.219L264.146 199.921C264.154 199.93 264.162 199.939 264.17 199.948C264.208 199.988 264.242 200.031 264.274 200.076C264.395 200.254 264.46 200.465 264.46 200.68C264.46 200.895 264.395 201.106 264.274 201.284C264.235 201.34 264.192 201.393 264.144 201.441L263.975 201.61H271.134C271.619 201.61 272.073 201.483 272.413 201.125C272.744 200.774 272.928 200.31 272.926 199.827V176.404C272.926 176.307 272.918 176.211 272.903 176.116" fill="#1600FF"/>
<path d="M308.605 195.422C308.568 195.385 308.524 195.356 308.475 195.336C308.427 195.316 308.375 195.306 308.322 195.306C308.27 195.307 308.218 195.318 308.17 195.338C308.121 195.359 308.078 195.389 308.041 195.427C305.965 197.571 303.385 198.614 300.157 198.614C297.034 198.614 294.17 197.497 292.093 195.469C290.015 193.44 288.872 190.642 288.872 187.589C288.872 184.535 290.015 181.738 292.093 179.709C294.17 177.681 297.034 176.563 300.157 176.563C303.376 176.563 305.956 177.594 308.044 179.713C308.08 179.75 308.124 179.78 308.172 179.8C308.22 179.82 308.272 179.83 308.324 179.83C308.376 179.83 308.428 179.82 308.476 179.8C308.524 179.78 308.568 179.75 308.605 179.713L310.459 177.863C310.531 177.791 310.572 177.695 310.574 177.593C310.577 177.492 310.54 177.394 310.471 177.319C308.03 174.646 304.339 173.174 300.078 173.174C295.947 173.174 292.169 174.628 289.441 177.269C286.713 179.91 285.202 183.577 285.202 187.585C285.202 191.594 286.702 195.258 289.435 197.902C292.169 200.546 295.925 201.997 300.039 201.997C304.301 201.997 308.01 200.511 310.471 197.813C310.54 197.738 310.577 197.64 310.574 197.539C310.572 197.438 310.531 197.341 310.459 197.27L308.605 195.422Z" fill="#1600FF"/>
<path d="M343.227 173.649H340.347C340.242 173.649 340.142 173.691 340.068 173.765C339.994 173.839 339.952 173.939 339.952 174.043V185.935H323.458V174.043C323.458 173.939 323.417 173.839 323.343 173.765C323.269 173.691 323.168 173.649 323.064 173.649H320.144C320.039 173.649 319.939 173.691 319.865 173.765C319.791 173.839 319.749 173.939 319.749 174.043V201.606C319.749 201.711 319.791 201.811 319.865 201.885C319.939 201.959 320.039 202 320.144 202H323.064C323.168 202 323.269 201.959 323.343 201.885C323.417 201.811 323.458 201.711 323.458 201.606V189.282H339.952V201.606C339.952 201.711 339.994 201.811 340.068 201.885C340.142 201.959 340.242 202 340.347 202H343.227C343.332 202 343.432 201.959 343.506 201.885C343.58 201.811 343.622 201.711 343.622 201.606V174.043C343.622 173.939 343.58 173.839 343.506 173.765C343.432 173.691 343.332 173.649 343.227 173.649Z" fill="#1600FF"/>
<path d="M375.25 198.693H359.034V189.242H372.924C373.029 189.242 373.129 189.201 373.203 189.127C373.277 189.053 373.318 188.953 373.318 188.849V186.368C373.318 186.263 373.277 186.163 373.203 186.089C373.129 186.016 373.029 185.974 372.924 185.974H359.034V176.957H374.66C374.765 176.957 374.865 176.916 374.939 176.842C375.013 176.768 375.055 176.668 375.055 176.563V174.043C375.055 173.939 375.013 173.839 374.939 173.765C374.865 173.691 374.765 173.649 374.66 173.649H355.72C355.615 173.649 355.515 173.691 355.441 173.765C355.367 173.839 355.325 173.939 355.325 174.043V201.606C355.325 201.711 355.367 201.811 355.441 201.885C355.515 201.959 355.615 202 355.72 202H375.252C375.357 202 375.457 201.959 375.531 201.885C375.605 201.811 375.647 201.711 375.647 201.606V199.086C375.647 199.034 375.636 198.983 375.616 198.935C375.596 198.887 375.567 198.844 375.53 198.807C375.494 198.771 375.45 198.742 375.402 198.722C375.354 198.702 375.302 198.692 375.25 198.693Z" fill="#1600FF"/>
<path d="M410.633 201.376L404.192 192.356C408.119 190.898 410.272 187.77 410.272 183.493C410.272 180.479 409.183 177.974 407.123 176.248C405.086 174.546 402.136 173.649 398.592 173.649H388.254C388.149 173.649 388.049 173.691 387.975 173.765C387.901 173.839 387.859 173.939 387.859 174.043V201.606C387.859 201.711 387.901 201.811 387.975 201.885C388.049 201.959 388.149 202 388.254 202H391.174C391.279 202 391.379 201.959 391.453 201.885C391.527 201.811 391.569 201.711 391.569 201.606V193.259H398.592C399.267 193.26 399.942 193.228 400.614 193.163L406.794 201.835C406.831 201.886 406.879 201.928 406.935 201.956C406.991 201.985 407.053 202 407.116 202H410.312C410.384 202 410.455 201.98 410.517 201.942C410.579 201.905 410.629 201.851 410.662 201.787C410.695 201.722 410.71 201.65 410.705 201.578C410.7 201.506 410.675 201.437 410.633 201.378V201.376ZM406.563 183.491C406.563 187.681 403.705 189.988 398.513 189.988H391.569V176.957H398.513C401.15 176.957 403.182 177.536 404.555 178.678C405.888 179.786 406.563 181.406 406.563 183.493V183.491Z" fill="#1600FF"/>
<path d="M417.648 175.514C417.653 175.435 417.64 175.356 417.609 175.283C417.579 175.21 417.532 175.145 417.472 175.093C417.352 174.994 417.175 174.942 416.944 174.942H416.337V176.082H416.944C417.398 176.082 417.648 175.88 417.648 175.514Z" fill="#1600FF"/>
<path d="M417.011 173.908C416.618 173.908 416.233 174.025 415.906 174.243C415.579 174.461 415.324 174.771 415.174 175.133C415.023 175.496 414.984 175.895 415.061 176.28C415.137 176.665 415.327 177.018 415.605 177.296C415.883 177.574 416.237 177.763 416.623 177.839C417.009 177.916 417.409 177.876 417.772 177.726C418.136 177.576 418.446 177.322 418.665 176.995C418.883 176.669 419 176.285 419 175.893C419 175.366 418.79 174.862 418.417 174.49C418.044 174.118 417.539 173.908 417.011 173.908ZM418.006 177.113C418.003 177.119 417.999 177.124 417.994 177.127C417.988 177.13 417.982 177.132 417.976 177.132H417.696C417.691 177.132 417.685 177.131 417.68 177.128C417.675 177.126 417.671 177.122 417.668 177.117L417.128 176.36C417.07 176.365 417.014 176.368 416.951 176.368H416.337V177.098C416.337 177.102 416.336 177.107 416.335 177.111C416.333 177.115 416.33 177.119 416.327 177.122C416.324 177.125 416.32 177.128 416.316 177.13C416.312 177.131 416.307 177.132 416.303 177.132H416.048C416.038 177.132 416.03 177.129 416.023 177.122C416.017 177.116 416.013 177.107 416.013 177.098V174.689C416.013 174.679 416.017 174.671 416.023 174.664C416.03 174.658 416.038 174.654 416.048 174.654H416.951C417.261 174.654 417.519 174.733 417.697 174.882C417.787 174.959 417.859 175.056 417.906 175.165C417.954 175.274 417.976 175.393 417.972 175.512C417.98 175.681 417.933 175.848 417.837 175.988C417.741 176.128 417.602 176.232 417.441 176.286L418.003 177.073C418.008 177.079 418.011 177.086 418.011 177.093C418.012 177.1 418.01 177.107 418.006 177.113Z" fill="#1600FF"/>
<defs>
<clipPath id="clip0">
<rect width="41" height="40" fill="white" transform="translate(466 20)"/>
</clipPath>
<clipPath id="clip1">
<rect width="57.4" height="28" fill="white" transform="translate(140 311)"/>
</clipPath>
</defs>
</svg>
