<?xml version="1.0"?>
<svg xmlns="http://www.w3.org/2000/svg" height="512px" viewBox="0 -12 511.99845 511" width="512px" class=""><g><path d="m511.984375 126.195312-.929687-29.351562c-.304688-9.636719-8.089844-17.421875-17.722657-17.726562l-29.351562-.929688c-7.886719-.257812-15.59375 2.804688-21.164063 8.375l-53.140625 53.144531c-3.832031-13.671875-15.628906-24.886719-31.210937-29.183593-2.398438-8.300782-5.554688-16.410157-9.445313-24.199219-1.851562-3.703125-6.355469-5.207031-10.0625-3.355469-3.703125 1.847656-5.207031 6.355469-3.355469 10.058594 4.804688 9.617187 8.371094 19.769531 10.601563 30.171875.023437.101562.042969.1875-.117187.328125-.03125.023437-.054688.039062-.078126.054687-.042968.015625-.085937.035157-.128906.050781-.066406.011719-.125-.007812-.175781-.023437-20.023437-7.136719-39.507813-26.0625-54.863281-53.296875-1.019532-1.8125-2.753906-3.121094-4.777344-3.605469-2.023438-.488281-4.160156-.109375-5.898438 1.039063-45.675781 30.28125-81.929687 36.992187-104.304687 37.285156-18.730469.234375-42.960937-4.488281-54.832031-18.523438-1.488282-1.761718-3.695313-2.730468-6.015625-2.652343-2.304688.085937-4.4375 1.234375-5.792969 3.101562-16.824219 23.296875-33.414062 32.8125-44.367188 36.691407-.03125.011718-.058593.015624-.089843.015624-.011719-.007812-.027344-.011718-.042969-.019531-.03125-.011719-.0625-.023437-.117188-.070312-.183593-.160157-.15625-.285157-.140624-.363281.335937-1.566407.707031-3.117188 1.101562-4.660157.003906-.023437.011719-.042969.015625-.0625 15.292969-59.960937 73.25-102.988281 139.757813-102.988281 44.152343 0 85.226562 18.570312 112.679687 50.945312 2.679687 3.160157 7.410156 3.550782 10.570313.871094 3.160156-2.679687 3.550781-7.414062.871093-10.570312-30.3125-35.746094-75.550781-56.246094-124.121093-56.246094-71.769532 0-134.578126 45.714844-153.144532 110.027344-19.113281 5.273437-32.535156 20.960937-32.535156 38.816406 0 7.992188 2.675781 15.734375 7.625 22.328125-2.253906 4.289063-3.539062 9.164063-3.539062 14.332031 0 15.667969 11.722656 28.636719 26.859374 30.621094-.304687 3.058594-.726562 6.113281-1.257812 9.148438-8.207031-4.367188-18.175781-5.339844-27.550781-1.832032-17.332031 6.492188-26.152344 25.875-19.660157 43.207032 13.273438 35.433593 40.320313 58.226562 74.207032 62.535156 3.703125.472656 7.511718.710937 11.324218.710937 9.140626 0 18.558594-1.386719 27.695313-4.042969 1.953125 19.460938 6.648437 34.710938 14.335937 46.742188v29.183594c0 4.144531 3.359376 7.5 7.5 7.5 4.144532 0 7.5-3.355469 7.5-7.5v-12.558594c9.847657 7.714844 22.160157 12.769531 37.132813 15.238281v29.6875h-37.160156c-.316407-3.855469-3.535157-6.882812-7.472657-6.882812-4.140624 0-7.5 3.359375-7.5 7.5v18.917969c0 18.507812 15.058594 33.566406 33.566407 33.566406 18.507812 0 33.566406-15.058594 33.566406-33.566406v-47.652344c2.761719.136718 5.59375.214844 8.507813.214844 2.902343 0 5.734374-.082032 8.503906-.222657v47.65625c0 18.511719 15.058594 33.566407 33.566406 33.566407s33.566406-15.054688 33.566406-33.566407v-36.09375c27.921875-.460937 54.078125-11.527343 73.894532-31.34375 10.796874-10.796875 19.183593-23.835937 24.527343-38.035156 1.308594.15625 2.636719.242187 3.972657.242187 9.34375 0 18.335937-3.933593 24.667968-10.796874 6.085938-6.585938 9.234375-15.148438 8.878906-24.105469-.355468-8.960938-4.183593-17.246094-10.769531-23.324219-1.710937-1.582031-6.007812-5.503906-8.976562-7.808594-4.894531-3.804687-10.613281-6.128906-16.617188-6.832031-.464843-3.066406.554688-6.214844 2.847657-8.507813l21.011718-21.015624 31.121094 8.644531c6.203125 1.722656 12.625.03125 17.179688-4.519531 4.554687-4.554688 6.242187-10.976563 4.519531-17.179688l-6.265625-22.550781 22.554687 6.261719c6.203125 1.722656 12.625.035156 17.175781-4.519532 4.554688-4.554687 6.242188-10.976562 4.523438-17.179687l-8.644531-31.117188 17.035156-17.039062c5.570313-5.570313 8.625-13.285157 8.375-21.160157zm-330.15625 327.980469c0 10.238281-8.328125 18.566407-18.566406 18.566407-10.234375 0-18.566407-8.328126-18.566407-18.566407v-4.535156h37.132813zm178.832031-326.855469c9.273438 4.5625 15.355469 12.871094 15.355469 22.023438 0 1.519531-.167969 3.03125-.496094 4.519531l-4.910156 4.910157c-4.015625-2.148438-8.472656-3.398438-13.066406-3.621094.082031-1.921875.136719-3.855469.136719-5.808594 0-5.078125-.300782-10.210938-.878907-15.316406 1.859375-1.894532 3.171875-4.210938 3.859375-6.707032zm-4.648437 42.792969h.023437c.996094 0 1.984375.097657 2.953125.28125l-3.695312 3.691407c.261719-1.316407.503906-2.640626.71875-3.972657zm-287.480469-31.925781c.445312-.113281.890625-.242188 1.328125-.398438 16.496094-5.84375 32.382813-17.949218 46.304687-35.210937 12.308594 9.933594 32.371094 17.511719 58.445313 17.507813 29.085937 0 65.640625-9.429688 107.203125-35.546876 20.859375 33.902344 43.292969 47.65625 58.855469 53.199219.484375.175781.972656.3125 1.46875.433594.347656 3.730469.542969 7.46875.542969 11.171875 0 4.535156-.253907 8.972656-.757813 13.3125-.007813.074219-.015625.144531-.023437.21875-1.511719 12.832031-5.226563 24.789062-11.082032 35.691406l-8.210937 8.207032c-2.648438 2.652343-6.582031 3.636718-10.015625 2.511718-38.125-12.5-79.617188-2.867187-108.273438 25.152344-7.730468 7.554688-14.0625 16.007812-19.011718 25.035156-32.796876-3.261718-61.96875-14.707031-82.546876-32.515625-22.746093-19.679687-34.769531-46.519531-34.769531-77.613281.003907-3.699219.199219-7.433594.542969-11.15625zm-2.726562 76.617188c1.65625-.640626 3.25-1.421876 4.769531-2.335938 5.988281 9.46875 13.460937 18.125 22.371093 25.832031 2.9375 2.542969 6.007813 4.960938 9.199219 7.257813h-36.371093c-.261719-.636719-.523438-1.285156-.773438-1.957032-.777344-2.078124-1.746094-4.027343-2.867188-5.847656 1.875-7.550781 3.097657-15.238281 3.671876-22.949218zm34.835937 45.753906c-4.917969 2.089844-10.476563 3.207031-15.832031 2.53125-2.707032-.347656-5.195313-1.191406-7.472656-2.53125zm-65.988281-111.214844c0-9.148438 6.082031-17.457031 15.355468-22.023438.683594 2.503907 1.996094 4.828126 3.859376 6.726563-.578126 5.09375-.875 10.222656-.875 15.296875 0 1.953125.046874 3.886719.128906 5.808594-5.691406.277344-10.984375 2.101562-15.464844 5.0625-1.957031-3.390625-3.003906-7.105469-3.003906-10.871094zm4.089844 36.660156c0-8.761718 7.128906-15.890625 15.890624-15.890625h.019532c1.671875 10.25 4.609375 19.984375 8.765625 29.109375-2.578125 1.71875-5.613281 2.675782-8.785157 2.675782-8.761718 0-15.890624-7.128907-15.890624-15.894532zm75.558593 117.484375c0 2.542969.035157 5.023438.105469 7.449219-11.949219 3.96875-24.574219 5.339844-36.175781 3.867188-28.179688-3.585938-50.796875-22.875-62.050781-52.917969-3.589844-9.585938 1.289062-20.308594 10.875-23.898438 9.585937-3.59375 20.308593 1.285157 23.898437 10.875.890625 2.375 1.96875 4.863281 3.261719 7.339844.039062.078125.082031.15625.121094.234375 5.25 9.941406 14.039062 19.679688 28.582031 21.53125 13.578125 1.726562 27.007812-3.722656 35.960937-11.128906-3.039062 11.730468-4.578125 23.996094-4.578125 36.648437zm19.074219 39.84375c-2-7.988281-3.246094-17.136719-3.777344-27.597656-.003906-.089844-.003906-.183594-.011718-.277344-.1875-3.8125-.285157-7.796875-.285157-11.96875 0-13.800781 2.148438-27.519531 6.234375-40.125 13.292969 5.074219 27.785156 8.601563 43.222656 10.496094-8.207031 22.304687-8.78125 46.835937-1.667968 69.472656zm71.960938 48.40625c-5.371094 0-10.425782-.257812-15.171876-.78125-.03125-.003906-.058593-.007812-.085937-.011719-20.433594-2.265624-35.140625-9.40625-44.71875-21.648437-.660156-.84375-1.300781-1.714844-1.917969-2.613281-.027344-.042969-.058594-.082032-.085937-.121094-1.738281-2.53125-3.304688-5.273438-4.710938-8.230469h44.449219c4.824219 9.824219 11.242188 19.0625 19.269531 27.320313 2.054688 2.113281 4.1875 4.128906 6.382813 6.046875-1.128906.027343-2.261719.039062-3.410156.039062zm60.636718 62.4375c0 10.238281-8.328125 18.566407-18.566406 18.566407s-18.566406-8.328126-18.566406-18.566407v-4.535156h37.132812zm0-19.535156h-37.132812v-29.039063c11.488281 6.128907 24.03125 10.097657 37.132812 11.695313zm121.992188-139.886719c2.585937 2.003906 6.777344 5.851563 8.003906 6.984375 3.644531 3.363281 5.761719 7.945313 5.957031 12.898438.199219 4.957031-1.546875 9.691406-4.910156 13.335937-3.554687 3.851563-8.402344 5.972656-13.648437 5.972656-4.675782 0-9.144532-1.75-12.585938-4.925781-1.878906-1.734375-4.539062-4.105469-5.613281-4.957031-3.914063-3.039062-6.410157-7.421875-7.027344-12.339844-.304687-2.445312-.125-4.875.5-7.183594.011719-.039062.023437-.074218.035156-.113281.640625-2.292969 1.726563-4.464843 3.230469-6.40625 3.039062-3.914062 7.425781-6.410156 12.351562-7.027343.359376-.046876.714844-.078126 1.074219-.101563.046875-.003906.101563-.007813.148438-.011719.378906-.023437.753906-.035156 1.125-.035156 4.101562 0 8.070312 1.351562 11.359375 3.910156zm105.039062-158.003906-20.132812 20.132812c-1.910156 1.910157-2.648438 4.703126-1.921875 7.308594l9.8125 35.335938c.355469 1.285156-.269531 2.152344-.671875 2.558594-.40625.402343-1.273438 1.027343-2.558594.671874l-35.335938-9.8125c-2.605468-.726562-5.398437.011719-7.3125 1.921876-1.910156 1.914062-2.644531 4.707031-1.921874 7.308593l9.8125 35.339844c.355468 1.28125-.265626 2.152344-.671876 2.554687-.402343.40625-1.273437 1.03125-2.558593.675782l-35.335938-9.816406c-2.597656-.722657-5.398437.011718-7.308593 1.925781l-24.109376 24.109375c-5.558593 5.554687-8.113281 13.179687-7.167968 20.710937-4.011719 1.375-7.707032 3.492188-10.921875 6.257813-3.941407-11.066406-10.28125-21.125-18.804688-29.652344-15.15625-15.15625-35.308593-23.503906-56.742187-23.503906-21.4375 0-41.585938 8.347656-56.742188 23.503906s-23.503906 35.308594-23.503906 56.742188c0 21.433593 8.347656 41.585937 23.503906 56.742187 15.644532 15.644531 36.1875 23.464844 56.742188 23.464844 20.546875 0 41.097656-7.824219 56.738281-23.464844 9.070313-9.070313 15.765625-20.144531 19.640625-32.210937.128906.101562.25.210937.382812.3125.472657.378906 2.703126 2.339843 4.691407 4.171874 1.457031 1.347657 3.019531 2.546876 4.664062 3.601563-4.59375 12.117187-11.777343 23.257813-21.011719 32.492187-17.40625 17.40625-40.496093 26.96875-65.089843 26.96875-.222657 0-.445313 0-.664063-.003906-16.109375-.109375-31.535156-4.324218-45.121094-12.132812-.214843-.140625-.441406-.269532-.667968-.386719-7.105469-4.160156-13.695313-9.3125-19.597656-15.382813-7.777344-8-13.800782-17.066406-18.082032-26.722656-.117187-.347656-.257812-.683594-.421875-1.007812-10.4375-24.316406-9.925781-52.226563 1.472657-76.15625.199218-.324219.367187-.667969.515624-1.027344 4.484376-9.113281 10.539063-17.632812 18.199219-25.121094 24.644531-24.089844 60.320313-32.375 93.113281-21.621094 8.890626 2.914063 18.582032.554688 25.296876-6.160156l9.019531-9.015625c.011719-.011719.023437-.023437.035156-.035156l45.289063-45.289063.023437-.023437 65.84375-65.84375c2.652344-2.65625 6.332031-4.105469 10.082031-3.992187l29.347656.929687c1.746094.054687 3.152344 1.464844 3.210938 3.207031l.925781 29.351563c.121094 3.753906-1.332031 7.429687-3.984375 10.082031zm-149.746094 176.839844c.171876 1.378906.4375 2.730468.769532 4.058594-1.515625 14.910156-8.132813 28.898437-18.742188 39.507812-25.4375 25.441406-66.832031 25.441406-92.269531 0-25.441406-25.4375-25.441406-66.828125 0-92.269531 12.320313-12.324219 28.707031-19.109375 46.132813-19.109375 17.429687 0 33.816406 6.785156 46.136718 19.109375 10.191406 10.195312 16.558594 23.074219 18.480469 37.3125-.808594 3.691406-.992187 7.53125-.507813 11.390625zm-209.601562-151.800782c4.144531 0 7.5-3.359374 7.5-7.5v-11.898437c0-4.140625-3.355469-7.5-7.5-7.5-4.140625 0-7.5 3.359375-7.5 7.5v11.898437c0 4.140626 3.359375 7.5 7.5 7.5zm145.628906 107.90625c-2.929687-2.929687-7.679687-2.929687-10.609375 0-2.925781 2.929688-2.925781 7.679688 0 10.605469l41.195313 41.195313c1.464844 1.464844 3.382812 2.195312 5.304687 2.195312 1.917969 0 3.835938-.730468 5.300781-2.195312 2.929688-2.929688 2.929688-7.679688 0-10.605469zm168.003906-137.417968-100.714843 100.714844c-2.929688 2.929687-2.929688 7.675781 0 10.605468 1.464843 1.464844 3.386719 2.199219 5.304687 2.199219 1.917969 0 3.839844-.734375 5.304688-2.199219l100.714844-100.714844c2.925781-2.929687 2.925781-7.679687 0-10.605468-2.929688-2.929688-7.679688-2.929688-10.609376 0zm-241.953124 38.648437c9.410156 0 18.359374-4.078125 24.550781-11.183593 2.722656-3.121094 2.394531-7.859376-.726563-10.582032-3.125-2.71875-7.859375-2.394531-10.582031.726563-3.34375 3.835937-8.167969 6.039062-13.242187 6.039062-5.074219 0-9.898438-2.203125-13.246094-6.039062-2.71875-3.121094-7.457032-3.445313-10.578125-.726563-3.125 2.722656-3.449219 7.460938-.726563 10.582032 6.191406 7.109374 15.140625 11.183593 24.550782 11.183593zm71.675781-9.136719c4.144531 0 7.5-3.359374 7.5-7.5v-11.898437c0-4.140625-3.355469-7.5-7.5-7.5s-7.5 3.359375-7.5 7.5v11.898437c0 4.140626 3.359375 7.5 7.5 7.5zm0 0" data-original="#000000" class="active-path" data-old_color="#000000" fill="#4431F4"/></g> </svg>
