<?xml version="1.0" encoding="UTF-8"?>
<svg width="30px" height="30px" viewBox="0 0 30 30" version="1.1" xmlns="http://www.w3.org/2000/svg" xmlns:xlink="http://www.w3.org/1999/xlink">
    <!-- Generator: Sketch 64 (93537) - https://sketch.com -->
    <title>Group</title>
    <desc>Created with Sketch.</desc>
    <g id="Cherapp" stroke="none" stroke-width="1" fill="none" fill-rule="evenodd">
        <g id="desktop_property" transform="translate(-926.000000, -736.000000)" fill="#1600FF" fill-rule="nonzero">
            <g id="Stacked-Group" transform="translate(866.000000, 581.000000)">
                <g id="Stacked-Group-3" transform="translate(0.000000, 125.000000)">
                    <g id="Stacked-Group-2" transform="translate(60.000000, 0.000000)">
                        <g id="noun_Bathroom_2006574" transform="translate(0.000000, 30.000000)">
                            <g id="Group">
                                <path d="M29.0038889,24.1266667 C29.4244444,23.8855556 30,23.5555556 30,22.7777778 C30,21.8588889 29.2522222,21.1111111 28.3333333,21.1111111 L28.2283333,21.1111111 C28.6516667,20.295 28.8888889,19.33 28.8888889,18.3333333 C28.8888889,15.5761111 27.1438889,13.3333333 25,13.3333333 C22.8561111,13.3333333 21.1111111,15.5761111 21.1111111,18.3333333 C21.1111111,19.33 21.3483333,20.295 21.7716667,21.1111111 L21.6666667,21.1111111 C20.7477778,21.1111111 20,21.8588889 20,22.7777778 C20,23.5555556 20.5755556,23.8855556 20.9961111,24.1266667 C21.1105556,24.1916667 21.23,24.2588889 21.3416667,24.34 C21.5755556,24.5083333 21.9083333,25.5244444 22.1227778,26.6666667 L21.6666667,26.6666667 C20.7477778,26.6666667 20,27.4144444 20,28.3333333 C20,29.2522222 20.7477778,30 21.6666667,30 L28.3333333,30 C29.2522222,30 30,29.2522222 30,28.3333333 C30,27.4144444 29.2522222,26.6666667 28.3333333,26.6666667 L27.8772222,26.6666667 C28.0922222,25.5238889 28.4244444,24.5083333 28.6577778,24.34 C28.77,24.2588889 28.8894444,24.1916667 29.0038889,24.1266667 Z M22.2222222,18.3333333 C22.2222222,16.1894444 23.4683333,14.4444444 25,14.4444444 C26.5316667,14.4444444 27.7777778,16.1894444 27.7777778,18.3333333 C27.7777778,19.38 27.4716667,20.3772222 26.9316667,21.1111111 L23.0688889,21.1111111 C22.5283333,20.3772222 22.2222222,19.38 22.2222222,18.3333333 Z M21.6666667,22.2222222 L22.8005556,22.2222222 L27.1994444,22.2222222 L28.3333333,22.2222222 C28.64,22.2222222 28.8888889,22.4711111 28.8888889,22.7777778 C28.8888889,22.8844444 28.8372222,22.9411111 28.4516667,23.1616667 C28.3605556,23.2144444 28.2683333,23.275 28.1766667,23.3333333 L21.8233333,23.3333333 C21.7311111,23.2755556 21.6394444,23.2144444 21.5483333,23.1616667 C21.1627778,22.9411111 21.1111111,22.8844444 21.1111111,22.7777778 C21.1111111,22.4711111 21.36,22.2222222 21.6666667,22.2222222 Z M28.3333333,27.7777778 C28.64,27.7777778 28.8888889,28.0266667 28.8888889,28.3333333 C28.8888889,28.64 28.64,28.8888889 28.3333333,28.8888889 L21.6666667,28.8888889 C21.36,28.8888889 21.1111111,28.64 21.1111111,28.3333333 C21.1111111,28.0266667 21.36,27.7777778 21.6666667,27.7777778 L22.7777778,27.7777778 C22.9388889,27.7777778 23.0916667,27.7077778 23.1972222,27.5861111 C23.3027778,27.465 23.35,27.3033333 23.3277778,27.1444444 C23.2583333,26.6555556 23.0522222,25.3911111 22.6616667,24.4444444 L27.3383333,24.4444444 C26.9477778,25.3911111 26.7416667,26.6555556 26.6722222,27.1444444 C26.65,27.3033333 26.6972222,27.465 26.8027778,27.5861111 C26.9083333,27.7077778 27.0611111,27.7777778 27.2222222,27.7777778 L28.3333333,27.7777778 Z" id="Shape"></path>
                                <path d="M17.2222222,0 L0.555555556,0 C0.248888889,0 0,0.248888889 0,0.555555556 C0,0.862222222 0.248888889,1.11111111 0.555555556,1.11111111 L1.11111111,1.11111111 L1.11111111,1.84833333 C0.948888889,1.80555556 0.766666667,1.77777778 0.555555556,1.77777778 C0.248888889,1.77777778 0,2.02666667 0,2.33333333 C0,2.41277778 0.0177777778,2.48722222 0.0477777778,2.55555556 C0.0177777778,2.62388889 0,2.69833333 0,2.77777778 L0,27.7777778 C0,27.7972222 0.00944444444,27.8138889 0.0111111111,27.8333333 C0.00944444444,27.8527778 0,27.8694444 0,27.8888889 C0,28.1961111 0.248888889,28.4444444 0.555555556,28.4444444 C0.915555556,28.4444444 1.06722222,28.5661111 1.31833333,28.7666667 C1.61666667,29.0061111 2.02555556,29.3333333 2.77555556,29.3333333 C3.52555556,29.3333333 3.93444444,29.0061111 4.23333333,28.7666667 C4.48444444,28.5661111 4.63611111,28.4444444 4.99666667,28.4444444 C5.35777778,28.4444444 5.51,28.5661111 5.76222222,28.7672222 C6.06111111,29.0061111 6.47,29.3333333 7.22055556,29.3333333 C7.97111111,29.3333333 8.38055556,29.0061111 8.67888889,28.7672222 C8.93111111,28.5661111 9.08333333,28.4444444 9.44444444,28.4444444 C9.75111111,28.4444444 10,28.1961111 10,27.8888889 C10,27.8694444 9.99055556,27.8527778 9.98888889,27.8327778 C9.99055556,27.8138889 10,27.7972222 10,27.7777778 L10,2.5 C10,2.47055556 9.98777778,2.445 9.98333333,2.41666667 C9.98777778,2.38833333 10,2.36277778 10,2.33333333 C10,2.02666667 9.75111111,1.77777778 9.44444444,1.77777778 C9.23333333,1.77777778 9.05111111,1.80555556 8.88888889,1.84777778 L8.88888889,1.11111111 L16.6666667,1.11111111 L16.6666667,3.33333333 L16.1111111,3.33333333 C15.9633333,3.33333333 15.8222222,3.39166667 15.7183333,3.49611111 L13.6588889,5.55555556 L11.6666667,5.55555556 C11.36,5.55555556 11.1111111,5.80444444 11.1111111,6.11111111 C11.1111111,6.41777778 11.36,6.66666667 11.6666667,6.66666667 L15,6.66666667 C15.3066667,6.66666667 15.5555556,6.41777778 15.5555556,6.11111111 C15.5555556,5.87222222 15.4033333,5.67277778 15.1916667,5.59388889 L16.3411111,4.44444444 L16.6666667,4.44444444 L16.6666667,29.4444444 C16.6666667,29.7516667 16.915,30 17.2222222,30 C17.5294444,30 17.7777778,29.7516667 17.7777778,29.4444444 L17.7777778,0.555555556 C17.7777778,0.248888889 17.5294444,0 17.2222222,0 Z M7.98555556,27.8994444 C7.73388889,28.1005556 7.58166667,28.2222222 7.22055556,28.2222222 C6.85944444,28.2222222 6.70722222,28.1005556 6.45555556,27.8994444 C6.15666667,27.6605556 5.74722222,27.3333333 4.99666667,27.3333333 C4.24666667,27.3333333 3.83777778,27.6605556 3.53888889,27.9 C3.28777778,28.1005556 3.13611111,28.2222222 2.77555556,28.2222222 C2.41555556,28.2222222 2.26388889,28.1005556 2.01277778,27.9 C1.79833333,27.7277778 1.525,27.5122222 1.11111111,27.4038889 L1.11111111,3.05611111 C1.17666667,3.10111111 1.24333333,3.15111111 1.31833333,3.21166667 C1.61666667,3.45055556 2.02555556,3.77777778 2.77555556,3.77777778 C3.52555556,3.77777778 3.93444444,3.45055556 4.23333333,3.21166667 C4.48444444,3.01055556 4.63611111,2.88888889 4.99666667,2.88888889 C5.35777778,2.88888889 5.51,3.01055556 5.76222222,3.21166667 C6.06111111,3.45055556 6.47,3.77777778 7.22055556,3.77777778 C7.97111111,3.77777778 8.38055556,3.45055556 8.67888889,3.21166667 C8.755,3.15111111 8.82222222,3.10055556 8.88888889,3.05555556 L8.88888889,27.4038889 C8.47444444,27.5122222 8.2,27.7277778 7.98555556,27.8994444 Z M7.83555556,2.45944444 C7.66055556,2.58944444 7.50444444,2.66666667 7.22055556,2.66666667 C6.85944444,2.66666667 6.70722222,2.545 6.45555556,2.34388889 C6.15666667,2.105 5.74722222,1.77777778 4.99611111,1.77777778 C4.24611111,1.77777778 3.83722222,2.105 3.53833333,2.34388889 C3.28722222,2.545 3.13611111,2.66666667 2.77555556,2.66666667 C2.52444444,2.66666667 2.375,2.60444444 2.22222222,2.50055556 C2.22222222,2.50055556 2.22222222,2.50055556 2.22222222,2.5 L2.22222222,1.11111111 L7.77777778,1.11111111 L7.77777778,2.22222222 C7.77777778,2.30777778 7.80111111,2.38666667 7.83555556,2.45944444 Z" id="Shape"></path>
                                <path d="M2.77777778,5.55555556 C2.47111111,5.55555556 2.22222222,5.80444444 2.22222222,6.11111111 L2.22222222,26.1111111 C2.22222222,26.4183333 2.47111111,26.6666667 2.77777778,26.6666667 C3.08444444,26.6666667 3.33333333,26.4183333 3.33333333,26.1111111 L3.33333333,6.11111111 C3.33333333,5.80444444 3.08444444,5.55555556 2.77777778,5.55555556 Z" id="Path"></path>
                                <path d="M5,3.33333333 C4.69333333,3.33333333 4.44444444,3.58222222 4.44444444,3.88888889 L4.44444444,26.1111111 C4.44444444,26.4183333 4.69333333,26.6666667 5,26.6666667 C5.30666667,26.6666667 5.55555556,26.4183333 5.55555556,26.1111111 L5.55555556,3.88888889 C5.55555556,3.58222222 5.30666667,3.33333333 5,3.33333333 Z" id="Path"></path>
                                <path d="M7.22222222,5.55555556 C6.91555556,5.55555556 6.66666667,5.80444444 6.66666667,6.11111111 L6.66666667,26.1111111 C6.66666667,26.4183333 6.91555556,26.6666667 7.22222222,26.6666667 C7.52888889,26.6666667 7.77777778,26.4183333 7.77777778,26.1111111 L7.77777778,6.11111111 C7.77777778,5.80444444 7.52888889,5.55555556 7.22222222,5.55555556 Z" id="Path"></path>
                            </g>
                        </g>
                    </g>
                </g>
            </g>
        </g>
    </g>
</svg>