<svg width="18" height="24" viewBox="0 0 18 24" fill="none" xmlns="http://www.w3.org/2000/svg">
<path fill-rule="evenodd" clip-rule="evenodd" d="M2.60179e-07 2.18182L7.20079e-08 17.9616C6.33087e-08 18.6911 0.429689 19.3723 1.14506 19.777L8.28681 23.8168C8.71868 24.0611 9.28132 24.0611 9.71319 23.8168L16.8549 19.777C17.5703 19.3723 18 18.6911 18 17.9616L18 2.18182C18 0.976834 16.8487 2.00919e-07 15.4286 1.83984e-07L2.57143 3.0664e-08C1.15127 1.37287e-08 2.74549e-07 0.976833 2.60179e-07 2.18182ZM9.00028 20.3651C9.63146 20.3651 10.1431 20.8535 10.1431 21.456C10.1431 22.0585 9.63146 22.5469 9.00028 22.5469C8.3691 22.5469 7.85742 22.0585 7.85742 21.456C7.85742 20.8535 8.3691 20.3651 9.00028 20.3651Z" fill="#63D398"/>
<path d="M9.24 10.1444C7.424 9.68556 6.84 9.21111 6.84 8.47222C6.84 7.62444 7.648 7.03333 9 7.03333C10.136 7.03333 10.704 7.45333 10.912 8.12222C11.008 8.43333 11.272 8.66667 11.608 8.66667H11.848C12.376 8.66667 12.752 8.16111 12.568 7.67889C12.232 6.76111 11.448 5.99889 10.2 5.70333V5.16667C10.2 4.52111 9.664 4 9 4C8.336 4 7.8 4.52111 7.8 5.16667V5.68C6.248 6.00667 5 6.98667 5 8.48778C5 10.2844 6.528 11.1789 8.76 11.7C10.76 12.1667 11.16 12.8511 11.16 13.5744C11.16 14.1111 10.768 14.9667 9 14.9667C7.68 14.9667 7 14.5078 6.736 13.8544C6.616 13.5511 6.344 13.3333 6.016 13.3333H5.792C5.256 13.3333 4.88 13.8622 5.08 14.3444C5.536 15.4256 6.6 16.0633 7.8 16.3122V16.8333C7.8 17.4789 8.336 18 9 18C9.664 18 10.2 17.4789 10.2 16.8333V16.3278C11.76 16.04 13 15.1611 13 13.5667C13 11.3578 11.056 10.6033 9.24 10.1444Z" fill="#1600FF"/>
</svg>
