<svg width="14" height="16" viewBox="0 0 14 16" fill="none" xmlns="http://www.w3.org/2000/svg">
<path fill-rule="evenodd" clip-rule="evenodd" d="M12.4444 1.6H11.6667V0.8C11.6667 0.36 11.3167 0 10.8889 0C10.4611 0 10.1111 0.36 10.1111 0.8V1.6H3.88889V0.8C3.88889 0.36 3.53889 0 3.11111 0C2.68333 0 2.33333 0.36 2.33333 0.8V1.6H1.55556C0.692222 1.6 0 2.32 0 3.2V14.4C0 15.28 0.7 16 1.55556 16H12.4444C13.3 16 14 15.28 14 14.4V3.2C14 2.32 13.3 1.6 12.4444 1.6ZM6.99981 4C8.29092 4 9.33314 5.072 9.33314 6.4C9.33314 7.728 8.29092 8.8 6.99981 8.8C5.7087 8.8 4.66648 7.728 4.66648 6.4C4.66648 5.072 5.7087 4 6.99981 4ZM2.33324 12.8V13.6H11.6666V12.8C11.6666 11.2 8.55546 10.32 6.9999 10.32C5.44435 10.32 2.33324 11.2 2.33324 12.8Z" fill="#FE5F55"/>
</svg>
