<svg width="29" height="32" viewBox="0 0 29 32" fill="none" xmlns="http://www.w3.org/2000/svg">
<path fill-rule="evenodd" clip-rule="evenodd" d="M19.1398 17.8336C19.1398 18.0879 18.9358 18.2937 18.6836 18.2937H10.3161C10.0639 18.2937 9.85986 18.0879 9.85986 17.8336V16.3133C9.85986 14.8483 10.5566 13.4655 11.7096 12.5843C11.2187 11.956 10.9451 11.1741 10.9451 10.3683C10.9451 8.39103 12.5396 6.78223 14.4998 6.78223C16.4601 6.78223 18.0546 8.39103 18.0546 10.3683C18.0546 11.1741 17.781 11.956 17.2901 12.5843C18.4431 13.4655 19.1398 14.8483 19.1398 16.3133V17.8336ZM12.636 13.0651C11.4861 13.741 10.772 14.9858 10.772 16.3129V17.373H18.2271V16.3129C18.2271 14.9858 17.513 13.741 16.3631 13.0651C16.2379 12.9914 16.155 12.862 16.1395 12.7169C16.1239 12.5713 16.1778 12.4275 16.2842 12.3286C16.8371 11.8163 17.1418 11.1202 17.1418 10.3679C17.1418 8.89797 15.9563 7.70215 14.4995 7.70215C13.0427 7.70215 11.8572 8.89797 11.8572 10.3679C11.8572 11.1202 12.1619 11.8163 12.7148 12.3286C12.8213 12.4275 12.8752 12.5713 12.8596 12.7169C12.844 12.862 12.7612 12.9914 12.636 13.0651Z" fill="#0073FF"/>
<path d="M8.93325 21.0126H20.0674C20.3196 21.0126 20.5236 20.8068 20.5236 20.5525C20.5236 20.2981 20.3196 20.0923 20.0674 20.0923H8.93325C8.68109 20.0923 8.47705 20.2981 8.47705 20.5525C8.47705 20.8068 8.68109 21.0126 8.93325 21.0126Z" fill="#0073FF"/>
<path d="M20.5236 23.155C20.5236 22.9006 20.3196 22.6948 20.0674 22.6948H8.93325C8.68109 22.6948 8.47705 22.9006 8.47705 23.155C8.47705 23.4094 8.68109 23.6152 8.93325 23.6152H20.0674C20.3196 23.6152 20.5236 23.4094 20.5236 23.155Z" fill="#0073FF"/>
<path fill-rule="evenodd" clip-rule="evenodd" d="M29 22.5615V22.8797V32H0V22.8797V22.5615V0H29V22.5615ZM0.911983 23.2275V31.0797H28.0872V23.2275L14.4996 28.4063L0.911983 23.2275ZM4.19832 23.4959V6.19917C4.19832 5.61092 4.67279 5.13232 5.25551 5.13232H23.7451C24.3278 5.13232 24.8022 5.61092 24.8022 6.19917V23.4959L14.5003 27.4224L4.19832 23.4959ZM25.7139 23.1475L28.0872 22.2429V0.919922H0.911983V22.2429L3.28521 23.1475V6.19843C3.28521 5.10282 4.16866 4.21124 5.25481 4.21124H23.7443C24.8305 4.21124 25.7139 5.10282 25.7139 6.19843V23.1475Z" fill="#0073FF"/>
</svg>
