<svg width="81" height="80" viewBox="0 0 81 80" fill="none" xmlns="http://www.w3.org/2000/svg">
<path d="M57.1445 0H22.8588C19.7106 0 17.1445 2.56607 17.1445 5.71429V37.1429C17.1445 38.0911 17.6195 38.9768 18.4017 39.5089C18.882 39.8339 19.4356 40 20.0017 40C20.3624 40 20.7213 39.9321 21.0642 39.7946L34.1606 34.5554L44.441 39.6929C45.166 40.0536 46.0177 40.0875 46.7785 39.7893L61.0642 34.075C62.1499 33.6464 62.8588 32.6 62.8588 31.4286V5.71429C62.8588 2.56607 60.2981 0 57.1445 0ZM57.1445 29.4964L45.841 34.0107L35.566 28.8732C35.1606 28.6732 34.7267 28.5696 34.2856 28.5696C33.9249 28.5696 33.566 28.6375 33.2231 28.775L22.857 32.9232V11.4286H57.1427V29.4964H57.1445Z" fill="#9CAFC8"/>
<path d="M61.6017 40.4908C60.8195 39.9587 59.8195 39.8515 58.9392 40.2051L45.8427 45.439L35.5677 40.3015C34.8427 39.9408 33.9856 39.9015 33.2249 40.2051L18.9392 45.9194C17.8588 46.3479 17.1445 47.4051 17.1445 48.5712V74.2854C17.1445 77.439 19.7106 79.9997 22.8588 79.9997H57.1445C60.2981 79.9997 62.8588 77.439 62.8588 74.2854V42.8569C62.8588 41.9087 62.3892 41.0229 61.6017 40.4908ZM57.1445 68.5711H22.8588V50.5087L34.1552 45.989L44.4356 51.1265C45.1606 51.4872 46.0124 51.5319 46.7731 51.2229L57.1445 47.0747V68.5711Z" fill="#9CAFC8"/>
<path d="M8.57338 34.2856H2.8591C1.28231 34.2856 0.00195312 35.566 0.00195312 37.1428C0.00195312 38.7196 1.28231 39.9999 2.8591 39.9999H8.57338C10.1502 39.9999 11.4305 38.7196 11.4305 37.1428C11.4305 35.566 10.1502 34.2856 8.57338 34.2856Z" fill="#9CAFC8"/>
<path d="M10.5961 23.696L4.88183 17.9763C3.76755 16.8621 1.95684 16.8621 0.84255 17.9763C-0.271735 19.0906 -0.271735 20.9013 0.84255 22.0156L6.55683 27.7299C7.11041 28.2906 7.84255 28.5692 8.57469 28.5692C9.30683 28.5692 10.0372 28.2888 10.5979 27.7353C11.7104 26.6228 11.7104 24.8103 10.5961 23.696Z" fill="#9CAFC8"/>
<path d="M10.5964 46.5537C9.48214 45.4394 7.67143 45.4341 6.55 46.5484L0.835714 52.2627C-0.278571 53.3769 -0.278571 55.1876 0.835714 56.3019C1.39643 56.8626 2.12679 57.1412 2.85893 57.1412C3.59107 57.1412 4.32143 56.8609 4.88214 56.3073L10.5964 50.593C11.7107 49.4805 11.7107 47.668 10.5964 46.5537Z" fill="#9CAFC8"/>
<path d="M77.1447 34.2856H71.4304C69.8536 34.2856 68.5732 35.566 68.5732 37.1428C68.5732 38.7196 69.8536 39.9999 71.4304 39.9999H77.1447C78.7215 39.9999 80.0018 38.7196 80.0018 37.1428C80.0018 35.566 78.7215 34.2856 77.1447 34.2856Z" fill="#9CAFC8"/>
<path d="M79.1674 17.9822C78.0531 16.8679 76.2424 16.8679 75.1281 17.9822L69.4138 23.6965C68.2996 24.8108 68.2996 26.6215 69.4138 27.7358C69.9674 28.2893 70.6996 28.5697 71.4317 28.5697C72.1638 28.5697 72.8942 28.2893 73.4549 27.7358L79.1692 22.0215C80.2817 20.909 80.2817 19.0965 79.1674 17.9822Z" fill="#9CAFC8"/>
<path d="M79.1674 52.2678L73.4531 46.5481C72.3388 45.4338 70.5281 45.4338 69.4138 46.5481C68.2996 47.6624 68.2996 49.4731 69.4138 50.5874L75.1281 56.3017C75.6817 56.8624 76.4138 57.141 77.146 57.141C77.8781 57.141 78.6085 56.8606 79.1692 56.307C80.2817 55.1945 80.2817 53.382 79.1674 52.2678Z" fill="#9CAFC8"/>
</svg>
