<svg width="384" height="240" viewBox="0 0 384 240" fill="none" xmlns="http://www.w3.org/2000/svg">
<mask id="mask0" mask-type="alpha" maskUnits="userSpaceOnUse" x="0" y="0" width="384" height="240">
<path d="M358.8 0H25.2C11.2824 0 0 11.2824 0 25.2V214.8C0 228.718 11.2824 240 25.2 240H358.8C372.718 240 384 228.718 384 214.8V25.2C384 11.2824 372.718 0 358.8 0Z" fill="white"/>
</mask>
<g mask="url(#mask0)">
<path d="M358.8 0H25.2C11.2824 0 0 11.2824 0 25.2V214.8C0 228.718 11.2824 240 25.2 240H358.8C372.718 240 384 228.718 384 214.8V25.2C384 11.2824 372.718 0 358.8 0Z" fill="url(#paint0_linear)"/>
<path style="mix-blend-mode:soft-light" opacity="0.5" fill-rule="evenodd" clip-rule="evenodd" d="M140.026 362.394L403.671 -50.1457L-46.9142 230.609L140.026 362.394Z" fill="url(#paint1_linear)"/>
<path style="mix-blend-mode:soft-light" opacity="0.5" fill-rule="evenodd" clip-rule="evenodd" d="M211.679 257.812L436.31 72.7702C418.481 44.8541 400.623 21.986 382.735 4.16603C364.847 -13.654 325.764 -36.7633 265.486 -65.162L211.679 257.812Z" fill="url(#paint2_linear)"/>
<path style="mix-blend-mode:soft-light" opacity="0.5" fill-rule="evenodd" clip-rule="evenodd" d="M432.111 275.728L311.147 -4.52512H-24.6999L432.111 275.728Z" fill="url(#paint3_linear)"/>
<path style="mix-blend-mode:multiply" opacity="0.5" fill-rule="evenodd" clip-rule="evenodd" d="M-5.79498 249.746L402.271 15.1372V249.746H-5.79498Z" fill="url(#paint4_linear)"/>
</g>
<path d="M34.096 203.296C33.232 203.296 32.4587 203.067 31.776 202.608C31.104 202.149 30.576 201.493 30.192 200.64C29.8187 199.776 29.632 198.763 29.632 197.6C29.632 196.437 29.8187 195.429 30.192 194.576C30.576 193.712 31.104 193.051 31.776 192.592C32.4587 192.133 33.232 191.904 34.096 191.904C34.96 191.904 35.728 192.133 36.4 192.592C37.0827 193.051 37.616 193.712 38 194.576C38.384 195.429 38.576 196.437 38.576 197.6C38.576 198.763 38.384 199.776 38 200.64C37.616 201.493 37.0827 202.149 36.4 202.608C35.728 203.067 34.96 203.296 34.096 203.296ZM34.096 202.24C34.7467 202.24 35.3173 202.059 35.808 201.696C36.3093 201.333 36.6987 200.805 36.976 200.112C37.2533 199.419 37.392 198.581 37.392 197.6C37.392 196.619 37.2533 195.781 36.976 195.088C36.6987 194.395 36.3093 193.867 35.808 193.504C35.3173 193.141 34.7467 192.96 34.096 192.96C33.4453 192.96 32.8693 193.141 32.368 193.504C31.8773 193.867 31.4933 194.395 31.216 195.088C30.9387 195.781 30.8 196.619 30.8 197.6C30.8 198.581 30.9387 199.419 31.216 200.112C31.4933 200.805 31.8773 201.333 32.368 201.696C32.8693 202.059 33.4453 202.24 34.096 202.24ZM44.6897 203.296C43.8257 203.296 43.0524 203.067 42.3697 202.608C41.6977 202.149 41.1697 201.493 40.7857 200.64C40.4124 199.776 40.2257 198.763 40.2257 197.6C40.2257 196.437 40.4124 195.429 40.7857 194.576C41.1697 193.712 41.6977 193.051 42.3697 192.592C43.0524 192.133 43.8257 191.904 44.6897 191.904C45.5537 191.904 46.3217 192.133 46.9937 192.592C47.6764 193.051 48.2097 193.712 48.5937 194.576C48.9777 195.429 49.1697 196.437 49.1697 197.6C49.1697 198.763 48.9777 199.776 48.5937 200.64C48.2097 201.493 47.6764 202.149 46.9937 202.608C46.3217 203.067 45.5537 203.296 44.6897 203.296ZM44.6897 202.24C45.3404 202.24 45.9111 202.059 46.4017 201.696C46.9031 201.333 47.2924 200.805 47.5697 200.112C47.8471 199.419 47.9857 198.581 47.9857 197.6C47.9857 196.619 47.8471 195.781 47.5697 195.088C47.2924 194.395 46.9031 193.867 46.4017 193.504C45.9111 193.141 45.3404 192.96 44.6897 192.96C44.0391 192.96 43.4631 193.141 42.9617 193.504C42.4711 193.867 42.0871 194.395 41.8097 195.088C41.5324 195.781 41.3937 196.619 41.3937 197.6C41.3937 198.581 41.5324 199.419 41.8097 200.112C42.0871 200.805 42.4711 201.333 42.9617 201.696C43.4631 202.059 44.0391 202.24 44.6897 202.24ZM54.555 189.728H55.595L50.315 204.8H49.275L54.555 189.728ZM60.0179 203.296C59.1539 203.296 58.3805 203.067 57.6979 202.608C57.0259 202.149 56.4979 201.493 56.1139 200.64C55.7405 199.776 55.5539 198.763 55.5539 197.6C55.5539 196.437 55.7405 195.429 56.1139 194.576C56.4979 193.712 57.0259 193.051 57.6979 192.592C58.3805 192.133 59.1539 191.904 60.0179 191.904C60.8819 191.904 61.6499 192.133 62.3219 192.592C63.0045 193.051 63.5379 193.712 63.9219 194.576C64.3059 195.429 64.4979 196.437 64.4979 197.6C64.4979 198.763 64.3059 199.776 63.9219 200.64C63.5379 201.493 63.0045 202.149 62.3219 202.608C61.6499 203.067 60.8819 203.296 60.0179 203.296ZM60.0179 202.24C60.6685 202.24 61.2392 202.059 61.7299 201.696C62.2312 201.333 62.6205 200.805 62.8979 200.112C63.1752 199.419 63.3139 198.581 63.3139 197.6C63.3139 196.619 63.1752 195.781 62.8979 195.088C62.6205 194.395 62.2312 193.867 61.7299 193.504C61.2392 193.141 60.6685 192.96 60.0179 192.96C59.3672 192.96 58.7912 193.141 58.2899 193.504C57.7992 193.867 57.4152 194.395 57.1379 195.088C56.8605 195.781 56.7219 196.619 56.7219 197.6C56.7219 198.581 56.8605 199.419 57.1379 200.112C57.4152 200.805 57.7992 201.333 58.2899 201.696C58.7912 202.059 59.3672 202.24 60.0179 202.24ZM70.6116 203.296C69.7476 203.296 68.9743 203.067 68.2916 202.608C67.6196 202.149 67.0916 201.493 66.7076 200.64C66.3343 199.776 66.1476 198.763 66.1476 197.6C66.1476 196.437 66.3343 195.429 66.7076 194.576C67.0916 193.712 67.6196 193.051 68.2916 192.592C68.9743 192.133 69.7476 191.904 70.6116 191.904C71.4756 191.904 72.2436 192.133 72.9156 192.592C73.5983 193.051 74.1316 193.712 74.5156 194.576C74.8996 195.429 75.0916 196.437 75.0916 197.6C75.0916 198.763 74.8996 199.776 74.5156 200.64C74.1316 201.493 73.5983 202.149 72.9156 202.608C72.2436 203.067 71.4756 203.296 70.6116 203.296ZM70.6116 202.24C71.2623 202.24 71.8329 202.059 72.3236 201.696C72.8249 201.333 73.2143 200.805 73.4916 200.112C73.7689 199.419 73.9076 198.581 73.9076 197.6C73.9076 196.619 73.7689 195.781 73.4916 195.088C73.2143 194.395 72.8249 193.867 72.3236 193.504C71.8329 193.141 71.2623 192.96 70.6116 192.96C69.9609 192.96 69.3849 193.141 68.8836 193.504C68.3929 193.867 68.0089 194.395 67.7316 195.088C67.4543 195.781 67.3156 196.619 67.3156 197.6C67.3156 198.581 67.4543 199.419 67.7316 200.112C68.0089 200.805 68.3929 201.333 68.8836 201.696C69.3849 202.059 69.9609 202.24 70.6116 202.24Z" fill="white"/>
<path d="M34.096 160.096C33.232 160.096 32.4587 159.867 31.776 159.408C31.104 158.949 30.576 158.293 30.192 157.44C29.8187 156.576 29.632 155.563 29.632 154.4C29.632 153.237 29.8187 152.229 30.192 151.376C30.576 150.512 31.104 149.851 31.776 149.392C32.4587 148.933 33.232 148.704 34.096 148.704C34.96 148.704 35.728 148.933 36.4 149.392C37.0827 149.851 37.616 150.512 38 151.376C38.384 152.229 38.576 153.237 38.576 154.4C38.576 155.563 38.384 156.576 38 157.44C37.616 158.293 37.0827 158.949 36.4 159.408C35.728 159.867 34.96 160.096 34.096 160.096ZM34.096 159.04C34.7467 159.04 35.3173 158.859 35.808 158.496C36.3093 158.133 36.6987 157.605 36.976 156.912C37.2533 156.219 37.392 155.381 37.392 154.4C37.392 153.419 37.2533 152.581 36.976 151.888C36.6987 151.195 36.3093 150.667 35.808 150.304C35.3173 149.941 34.7467 149.76 34.096 149.76C33.4453 149.76 32.8693 149.941 32.368 150.304C31.8773 150.667 31.4933 151.195 31.216 151.888C30.9387 152.581 30.8 153.419 30.8 154.4C30.8 155.381 30.9387 156.219 31.216 156.912C31.4933 157.605 31.8773 158.133 32.368 158.496C32.8693 158.859 33.4453 159.04 34.096 159.04ZM44.6897 160.096C43.8257 160.096 43.0524 159.867 42.3697 159.408C41.6977 158.949 41.1697 158.293 40.7857 157.44C40.4124 156.576 40.2257 155.563 40.2257 154.4C40.2257 153.237 40.4124 152.229 40.7857 151.376C41.1697 150.512 41.6977 149.851 42.3697 149.392C43.0524 148.933 43.8257 148.704 44.6897 148.704C45.5537 148.704 46.3217 148.933 46.9937 149.392C47.6764 149.851 48.2097 150.512 48.5937 151.376C48.9777 152.229 49.1697 153.237 49.1697 154.4C49.1697 155.563 48.9777 156.576 48.5937 157.44C48.2097 158.293 47.6764 158.949 46.9937 159.408C46.3217 159.867 45.5537 160.096 44.6897 160.096ZM44.6897 159.04C45.3404 159.04 45.9111 158.859 46.4017 158.496C46.9031 158.133 47.2924 157.605 47.5697 156.912C47.8471 156.219 47.9857 155.381 47.9857 154.4C47.9857 153.419 47.8471 152.581 47.5697 151.888C47.2924 151.195 46.9031 150.667 46.4017 150.304C45.9111 149.941 45.3404 149.76 44.6897 149.76C44.0391 149.76 43.4631 149.941 42.9617 150.304C42.4711 150.667 42.0871 151.195 41.8097 151.888C41.5324 152.581 41.3937 153.419 41.3937 154.4C41.3937 155.381 41.5324 156.219 41.8097 156.912C42.0871 157.605 42.4711 158.133 42.9617 158.496C43.4631 158.859 44.0391 159.04 44.6897 159.04ZM55.2835 160.096C54.4195 160.096 53.6462 159.867 52.9635 159.408C52.2915 158.949 51.7635 158.293 51.3795 157.44C51.0062 156.576 50.8195 155.563 50.8195 154.4C50.8195 153.237 51.0062 152.229 51.3795 151.376C51.7635 150.512 52.2915 149.851 52.9635 149.392C53.6462 148.933 54.4195 148.704 55.2835 148.704C56.1475 148.704 56.9155 148.933 57.5875 149.392C58.2702 149.851 58.8035 150.512 59.1875 151.376C59.5715 152.229 59.7635 153.237 59.7635 154.4C59.7635 155.563 59.5715 156.576 59.1875 157.44C58.8035 158.293 58.2702 158.949 57.5875 159.408C56.9155 159.867 56.1475 160.096 55.2835 160.096ZM55.2835 159.04C55.9342 159.04 56.5048 158.859 56.9955 158.496C57.4968 158.133 57.8862 157.605 58.1635 156.912C58.4408 156.219 58.5795 155.381 58.5795 154.4C58.5795 153.419 58.4408 152.581 58.1635 151.888C57.8862 151.195 57.4968 150.667 56.9955 150.304C56.5048 149.941 55.9342 149.76 55.2835 149.76C54.6328 149.76 54.0568 149.941 53.5555 150.304C53.0648 150.667 52.6808 151.195 52.4035 151.888C52.1262 152.581 51.9875 153.419 51.9875 154.4C51.9875 155.381 52.1262 156.219 52.4035 156.912C52.6808 157.605 53.0648 158.133 53.5555 158.496C54.0568 158.859 54.6328 159.04 55.2835 159.04ZM65.8772 160.096C65.0132 160.096 64.2399 159.867 63.5572 159.408C62.8852 158.949 62.3572 158.293 61.9732 157.44C61.5999 156.576 61.4132 155.563 61.4132 154.4C61.4132 153.237 61.5999 152.229 61.9732 151.376C62.3572 150.512 62.8852 149.851 63.5572 149.392C64.2399 148.933 65.0132 148.704 65.8772 148.704C66.7412 148.704 67.5092 148.933 68.1812 149.392C68.8639 149.851 69.3972 150.512 69.7812 151.376C70.1652 152.229 70.3572 153.237 70.3572 154.4C70.3572 155.563 70.1652 156.576 69.7812 157.44C69.3972 158.293 68.8639 158.949 68.1812 159.408C67.5092 159.867 66.7412 160.096 65.8772 160.096ZM65.8772 159.04C66.5279 159.04 67.0986 158.859 67.5892 158.496C68.0906 158.133 68.4799 157.605 68.7572 156.912C69.0346 156.219 69.1732 155.381 69.1732 154.4C69.1732 153.419 69.0346 152.581 68.7572 151.888C68.4799 151.195 68.0906 150.667 67.5892 150.304C67.0986 149.941 66.5279 149.76 65.8772 149.76C65.2266 149.76 64.6506 149.941 64.1492 150.304C63.6586 150.667 63.2746 151.195 62.9972 151.888C62.7199 152.581 62.5812 153.419 62.5812 154.4C62.5812 155.381 62.7199 156.219 62.9972 156.912C63.2746 157.605 63.6586 158.133 64.1492 158.496C64.6506 158.859 65.2266 159.04 65.8772 159.04ZM80.6585 160.096C79.7945 160.096 79.0212 159.867 78.3385 159.408C77.6665 158.949 77.1385 158.293 76.7545 157.44C76.3812 156.576 76.1945 155.563 76.1945 154.4C76.1945 153.237 76.3812 152.229 76.7545 151.376C77.1385 150.512 77.6665 149.851 78.3385 149.392C79.0212 148.933 79.7945 148.704 80.6585 148.704C81.5225 148.704 82.2905 148.933 82.9625 149.392C83.6452 149.851 84.1785 150.512 84.5625 151.376C84.9465 152.229 85.1385 153.237 85.1385 154.4C85.1385 155.563 84.9465 156.576 84.5625 157.44C84.1785 158.293 83.6452 158.949 82.9625 159.408C82.2905 159.867 81.5225 160.096 80.6585 160.096ZM80.6585 159.04C81.3092 159.04 81.8798 158.859 82.3705 158.496C82.8718 158.133 83.2612 157.605 83.5385 156.912C83.8158 156.219 83.9545 155.381 83.9545 154.4C83.9545 153.419 83.8158 152.581 83.5385 151.888C83.2612 151.195 82.8718 150.667 82.3705 150.304C81.8798 149.941 81.3092 149.76 80.6585 149.76C80.0078 149.76 79.4318 149.941 78.9305 150.304C78.4398 150.667 78.0558 151.195 77.7785 151.888C77.5012 152.581 77.3625 153.419 77.3625 154.4C77.3625 155.381 77.5012 156.219 77.7785 156.912C78.0558 157.605 78.4398 158.133 78.9305 158.496C79.4318 158.859 80.0078 159.04 80.6585 159.04ZM91.2522 160.096C90.3882 160.096 89.6149 159.867 88.9322 159.408C88.2602 158.949 87.7322 158.293 87.3482 157.44C86.9749 156.576 86.7882 155.563 86.7882 154.4C86.7882 153.237 86.9749 152.229 87.3482 151.376C87.7322 150.512 88.2602 149.851 88.9322 149.392C89.6149 148.933 90.3882 148.704 91.2522 148.704C92.1162 148.704 92.8842 148.933 93.5562 149.392C94.2389 149.851 94.7722 150.512 95.1562 151.376C95.5402 152.229 95.7322 153.237 95.7322 154.4C95.7322 155.563 95.5402 156.576 95.1562 157.44C94.7722 158.293 94.2389 158.949 93.5562 159.408C92.8842 159.867 92.1162 160.096 91.2522 160.096ZM91.2522 159.04C91.9029 159.04 92.4736 158.859 92.9642 158.496C93.4656 158.133 93.8549 157.605 94.1322 156.912C94.4096 156.219 94.5482 155.381 94.5482 154.4C94.5482 153.419 94.4096 152.581 94.1322 151.888C93.8549 151.195 93.4656 150.667 92.9642 150.304C92.4736 149.941 91.9029 149.76 91.2522 149.76C90.6016 149.76 90.0256 149.941 89.5242 150.304C89.0336 150.667 88.6496 151.195 88.3722 151.888C88.0949 152.581 87.9562 153.419 87.9562 154.4C87.9562 155.381 88.0949 156.219 88.3722 156.912C88.6496 157.605 89.0336 158.133 89.5242 158.496C90.0256 158.859 90.6016 159.04 91.2522 159.04ZM101.846 160.096C100.982 160.096 100.209 159.867 99.526 159.408C98.854 158.949 98.326 158.293 97.942 157.44C97.5687 156.576 97.382 155.563 97.382 154.4C97.382 153.237 97.5687 152.229 97.942 151.376C98.326 150.512 98.854 149.851 99.526 149.392C100.209 148.933 100.982 148.704 101.846 148.704C102.71 148.704 103.478 148.933 104.15 149.392C104.833 149.851 105.366 150.512 105.75 151.376C106.134 152.229 106.326 153.237 106.326 154.4C106.326 155.563 106.134 156.576 105.75 157.44C105.366 158.293 104.833 158.949 104.15 159.408C103.478 159.867 102.71 160.096 101.846 160.096ZM101.846 159.04C102.497 159.04 103.067 158.859 103.558 158.496C104.059 158.133 104.449 157.605 104.726 156.912C105.003 156.219 105.142 155.381 105.142 154.4C105.142 153.419 105.003 152.581 104.726 151.888C104.449 151.195 104.059 150.667 103.558 150.304C103.067 149.941 102.497 149.76 101.846 149.76C101.195 149.76 100.619 149.941 100.118 150.304C99.6273 150.667 99.2433 151.195 98.966 151.888C98.6887 152.581 98.55 153.419 98.55 154.4C98.55 155.381 98.6887 156.219 98.966 156.912C99.2433 157.605 99.6273 158.133 100.118 158.496C100.619 158.859 101.195 159.04 101.846 159.04ZM112.44 160.096C111.576 160.096 110.802 159.867 110.12 159.408C109.448 158.949 108.92 158.293 108.536 157.44C108.162 156.576 107.976 155.563 107.976 154.4C107.976 153.237 108.162 152.229 108.536 151.376C108.92 150.512 109.448 149.851 110.12 149.392C110.802 148.933 111.576 148.704 112.44 148.704C113.304 148.704 114.072 148.933 114.744 149.392C115.426 149.851 115.96 150.512 116.344 151.376C116.728 152.229 116.92 153.237 116.92 154.4C116.92 155.563 116.728 156.576 116.344 157.44C115.96 158.293 115.426 158.949 114.744 159.408C114.072 159.867 113.304 160.096 112.44 160.096ZM112.44 159.04C113.09 159.04 113.661 158.859 114.152 158.496C114.653 158.133 115.042 157.605 115.32 156.912C115.597 156.219 115.736 155.381 115.736 154.4C115.736 153.419 115.597 152.581 115.32 151.888C115.042 151.195 114.653 150.667 114.152 150.304C113.661 149.941 113.09 149.76 112.44 149.76C111.789 149.76 111.213 149.941 110.712 150.304C110.221 150.667 109.837 151.195 109.56 151.888C109.282 152.581 109.144 153.419 109.144 154.4C109.144 155.381 109.282 156.219 109.56 156.912C109.837 157.605 110.221 158.133 110.712 158.496C111.213 158.859 111.789 159.04 112.44 159.04ZM127.221 160.096C126.357 160.096 125.584 159.867 124.901 159.408C124.229 158.949 123.701 158.293 123.317 157.44C122.944 156.576 122.757 155.563 122.757 154.4C122.757 153.237 122.944 152.229 123.317 151.376C123.701 150.512 124.229 149.851 124.901 149.392C125.584 148.933 126.357 148.704 127.221 148.704C128.085 148.704 128.853 148.933 129.525 149.392C130.208 149.851 130.741 150.512 131.125 151.376C131.509 152.229 131.701 153.237 131.701 154.4C131.701 155.563 131.509 156.576 131.125 157.44C130.741 158.293 130.208 158.949 129.525 159.408C128.853 159.867 128.085 160.096 127.221 160.096ZM127.221 159.04C127.872 159.04 128.442 158.859 128.933 158.496C129.434 158.133 129.824 157.605 130.101 156.912C130.378 156.219 130.517 155.381 130.517 154.4C130.517 153.419 130.378 152.581 130.101 151.888C129.824 151.195 129.434 150.667 128.933 150.304C128.442 149.941 127.872 149.76 127.221 149.76C126.57 149.76 125.994 149.941 125.493 150.304C125.002 150.667 124.618 151.195 124.341 151.888C124.064 152.581 123.925 153.419 123.925 154.4C123.925 155.381 124.064 156.219 124.341 156.912C124.618 157.605 125.002 158.133 125.493 158.496C125.994 158.859 126.57 159.04 127.221 159.04ZM137.815 160.096C136.951 160.096 136.177 159.867 135.495 159.408C134.823 158.949 134.295 158.293 133.911 157.44C133.537 156.576 133.351 155.563 133.351 154.4C133.351 153.237 133.537 152.229 133.911 151.376C134.295 150.512 134.823 149.851 135.495 149.392C136.177 148.933 136.951 148.704 137.815 148.704C138.679 148.704 139.447 148.933 140.119 149.392C140.801 149.851 141.335 150.512 141.719 151.376C142.103 152.229 142.295 153.237 142.295 154.4C142.295 155.563 142.103 156.576 141.719 157.44C141.335 158.293 140.801 158.949 140.119 159.408C139.447 159.867 138.679 160.096 137.815 160.096ZM137.815 159.04C138.465 159.04 139.036 158.859 139.527 158.496C140.028 158.133 140.417 157.605 140.695 156.912C140.972 156.219 141.111 155.381 141.111 154.4C141.111 153.419 140.972 152.581 140.695 151.888C140.417 151.195 140.028 150.667 139.527 150.304C139.036 149.941 138.465 149.76 137.815 149.76C137.164 149.76 136.588 149.941 136.087 150.304C135.596 150.667 135.212 151.195 134.935 151.888C134.657 152.581 134.519 153.419 134.519 154.4C134.519 155.381 134.657 156.219 134.935 156.912C135.212 157.605 135.596 158.133 136.087 158.496C136.588 158.859 137.164 159.04 137.815 159.04ZM148.408 160.096C147.544 160.096 146.771 159.867 146.088 159.408C145.416 158.949 144.888 158.293 144.504 157.44C144.131 156.576 143.944 155.563 143.944 154.4C143.944 153.237 144.131 152.229 144.504 151.376C144.888 150.512 145.416 149.851 146.088 149.392C146.771 148.933 147.544 148.704 148.408 148.704C149.272 148.704 150.04 148.933 150.712 149.392C151.395 149.851 151.928 150.512 152.312 151.376C152.696 152.229 152.888 153.237 152.888 154.4C152.888 155.563 152.696 156.576 152.312 157.44C151.928 158.293 151.395 158.949 150.712 159.408C150.04 159.867 149.272 160.096 148.408 160.096ZM148.408 159.04C149.059 159.04 149.63 158.859 150.12 158.496C150.622 158.133 151.011 157.605 151.288 156.912C151.566 156.219 151.704 155.381 151.704 154.4C151.704 153.419 151.566 152.581 151.288 151.888C151.011 151.195 150.622 150.667 150.12 150.304C149.63 149.941 149.059 149.76 148.408 149.76C147.758 149.76 147.182 149.941 146.68 150.304C146.19 150.667 145.806 151.195 145.528 151.888C145.251 152.581 145.112 153.419 145.112 154.4C145.112 155.381 145.251 156.219 145.528 156.912C145.806 157.605 146.19 158.133 146.68 158.496C147.182 158.859 147.758 159.04 148.408 159.04ZM159.002 160.096C158.138 160.096 157.365 159.867 156.682 159.408C156.01 158.949 155.482 158.293 155.098 157.44C154.725 156.576 154.538 155.563 154.538 154.4C154.538 153.237 154.725 152.229 155.098 151.376C155.482 150.512 156.01 149.851 156.682 149.392C157.365 148.933 158.138 148.704 159.002 148.704C159.866 148.704 160.634 148.933 161.306 149.392C161.989 149.851 162.522 150.512 162.906 151.376C163.29 152.229 163.482 153.237 163.482 154.4C163.482 155.563 163.29 156.576 162.906 157.44C162.522 158.293 161.989 158.949 161.306 159.408C160.634 159.867 159.866 160.096 159.002 160.096ZM159.002 159.04C159.653 159.04 160.224 158.859 160.714 158.496C161.216 158.133 161.605 157.605 161.882 156.912C162.16 156.219 162.298 155.381 162.298 154.4C162.298 153.419 162.16 152.581 161.882 151.888C161.605 151.195 161.216 150.667 160.714 150.304C160.224 149.941 159.653 149.76 159.002 149.76C158.352 149.76 157.776 149.941 157.274 150.304C156.784 150.667 156.4 151.195 156.122 151.888C155.845 152.581 155.706 153.419 155.706 154.4C155.706 155.381 155.845 156.219 156.122 156.912C156.4 157.605 156.784 158.133 157.274 158.496C157.776 158.859 158.352 159.04 159.002 159.04ZM173.783 160.096C172.919 160.096 172.146 159.867 171.463 159.408C170.791 158.949 170.263 158.293 169.879 157.44C169.506 156.576 169.319 155.563 169.319 154.4C169.319 153.237 169.506 152.229 169.879 151.376C170.263 150.512 170.791 149.851 171.463 149.392C172.146 148.933 172.919 148.704 173.783 148.704C174.647 148.704 175.415 148.933 176.087 149.392C176.77 149.851 177.303 150.512 177.687 151.376C178.071 152.229 178.263 153.237 178.263 154.4C178.263 155.563 178.071 156.576 177.687 157.44C177.303 158.293 176.77 158.949 176.087 159.408C175.415 159.867 174.647 160.096 173.783 160.096ZM173.783 159.04C174.434 159.04 175.005 158.859 175.495 158.496C175.997 158.133 176.386 157.605 176.663 156.912C176.941 156.219 177.079 155.381 177.079 154.4C177.079 153.419 176.941 152.581 176.663 151.888C176.386 151.195 175.997 150.667 175.495 150.304C175.005 149.941 174.434 149.76 173.783 149.76C173.133 149.76 172.557 149.941 172.055 150.304C171.565 150.667 171.181 151.195 170.903 151.888C170.626 152.581 170.487 153.419 170.487 154.4C170.487 155.381 170.626 156.219 170.903 156.912C171.181 157.605 171.565 158.133 172.055 158.496C172.557 158.859 173.133 159.04 173.783 159.04ZM184.377 160.096C183.513 160.096 182.74 159.867 182.057 159.408C181.385 158.949 180.857 158.293 180.473 157.44C180.1 156.576 179.913 155.563 179.913 154.4C179.913 153.237 180.1 152.229 180.473 151.376C180.857 150.512 181.385 149.851 182.057 149.392C182.74 148.933 183.513 148.704 184.377 148.704C185.241 148.704 186.009 148.933 186.681 149.392C187.364 149.851 187.897 150.512 188.281 151.376C188.665 152.229 188.857 153.237 188.857 154.4C188.857 155.563 188.665 156.576 188.281 157.44C187.897 158.293 187.364 158.949 186.681 159.408C186.009 159.867 185.241 160.096 184.377 160.096ZM184.377 159.04C185.028 159.04 185.599 158.859 186.089 158.496C186.591 158.133 186.98 157.605 187.257 156.912C187.535 156.219 187.673 155.381 187.673 154.4C187.673 153.419 187.535 152.581 187.257 151.888C186.98 151.195 186.591 150.667 186.089 150.304C185.599 149.941 185.028 149.76 184.377 149.76C183.727 149.76 183.151 149.941 182.649 150.304C182.159 150.667 181.775 151.195 181.497 151.888C181.22 152.581 181.081 153.419 181.081 154.4C181.081 155.381 181.22 156.219 181.497 156.912C181.775 157.605 182.159 158.133 182.649 158.496C183.151 158.859 183.727 159.04 184.377 159.04ZM194.971 160.096C194.107 160.096 193.334 159.867 192.651 159.408C191.979 158.949 191.451 158.293 191.067 157.44C190.694 156.576 190.507 155.563 190.507 154.4C190.507 153.237 190.694 152.229 191.067 151.376C191.451 150.512 191.979 149.851 192.651 149.392C193.334 148.933 194.107 148.704 194.971 148.704C195.835 148.704 196.603 148.933 197.275 149.392C197.958 149.851 198.491 150.512 198.875 151.376C199.259 152.229 199.451 153.237 199.451 154.4C199.451 155.563 199.259 156.576 198.875 157.44C198.491 158.293 197.958 158.949 197.275 159.408C196.603 159.867 195.835 160.096 194.971 160.096ZM194.971 159.04C195.622 159.04 196.192 158.859 196.683 158.496C197.184 158.133 197.574 157.605 197.851 156.912C198.128 156.219 198.267 155.381 198.267 154.4C198.267 153.419 198.128 152.581 197.851 151.888C197.574 151.195 197.184 150.667 196.683 150.304C196.192 149.941 195.622 149.76 194.971 149.76C194.32 149.76 193.744 149.941 193.243 150.304C192.752 150.667 192.368 151.195 192.091 151.888C191.814 152.581 191.675 153.419 191.675 154.4C191.675 155.381 191.814 156.219 192.091 156.912C192.368 157.605 192.752 158.133 193.243 158.496C193.744 158.859 194.32 159.04 194.971 159.04ZM205.565 160.096C204.701 160.096 203.927 159.867 203.245 159.408C202.573 158.949 202.045 158.293 201.661 157.44C201.287 156.576 201.101 155.563 201.101 154.4C201.101 153.237 201.287 152.229 201.661 151.376C202.045 150.512 202.573 149.851 203.245 149.392C203.927 148.933 204.701 148.704 205.565 148.704C206.429 148.704 207.197 148.933 207.869 149.392C208.551 149.851 209.085 150.512 209.469 151.376C209.853 152.229 210.045 153.237 210.045 154.4C210.045 155.563 209.853 156.576 209.469 157.44C209.085 158.293 208.551 158.949 207.869 159.408C207.197 159.867 206.429 160.096 205.565 160.096ZM205.565 159.04C206.215 159.04 206.786 158.859 207.277 158.496C207.778 158.133 208.167 157.605 208.445 156.912C208.722 156.219 208.861 155.381 208.861 154.4C208.861 153.419 208.722 152.581 208.445 151.888C208.167 151.195 207.778 150.667 207.277 150.304C206.786 149.941 206.215 149.76 205.565 149.76C204.914 149.76 204.338 149.941 203.837 150.304C203.346 150.667 202.962 151.195 202.685 151.888C202.407 152.581 202.269 153.419 202.269 154.4C202.269 155.381 202.407 156.219 202.685 156.912C202.962 157.605 203.346 158.133 203.837 158.496C204.338 158.859 204.914 159.04 205.565 159.04Z" fill="white"/>
<path d="M39.984 105.6V116.8H39.008L31.808 107.712V116.8H30.624V105.6H31.6L38.816 114.688V105.6H39.984ZM50.6636 113.808H44.4236L43.0796 116.8H41.8476L46.9676 105.6H48.1356L53.2556 116.8H52.0076L50.6636 113.808ZM50.2316 112.848L47.5436 106.832L44.8556 112.848H50.2316ZM66.7404 105.6V116.8H65.6044V107.84L61.2044 115.376H60.6444L56.2444 107.888V116.8H55.1084V105.6H56.0844L60.9484 113.904L65.7644 105.6H66.7404ZM78.3096 115.776V116.8H70.3896V105.6H78.0696V106.624H71.5736V110.608H77.3656V111.616H71.5736V115.776H78.3096ZM85.2802 105.6H86.4642V115.776H92.7362V116.8H85.2802V105.6ZM101.757 113.808H95.5174L94.1734 116.8H92.9414L98.0614 105.6H99.2294L104.349 116.8H103.101L101.757 113.808ZM101.325 112.848L98.6374 106.832L95.9494 112.848H101.325ZM109.29 116.896C108.458 116.896 107.658 116.763 106.89 116.496C106.133 116.229 105.546 115.877 105.13 115.44L105.594 114.528C105.999 114.933 106.538 115.264 107.21 115.52C107.882 115.765 108.575 115.888 109.29 115.888C110.293 115.888 111.045 115.707 111.546 115.344C112.047 114.971 112.298 114.491 112.298 113.904C112.298 113.456 112.159 113.099 111.882 112.832C111.615 112.565 111.285 112.363 110.89 112.224C110.495 112.075 109.946 111.915 109.242 111.744C108.399 111.531 107.727 111.328 107.226 111.136C106.725 110.933 106.293 110.629 105.93 110.224C105.578 109.819 105.402 109.269 105.402 108.576C105.402 108.011 105.551 107.499 105.85 107.04C106.149 106.571 106.607 106.197 107.226 105.92C107.845 105.643 108.613 105.504 109.53 105.504C110.17 105.504 110.794 105.595 111.402 105.776C112.021 105.947 112.554 106.187 113.002 106.496L112.602 107.44C112.133 107.131 111.631 106.901 111.098 106.752C110.565 106.592 110.042 106.512 109.53 106.512C108.549 106.512 107.807 106.704 107.306 107.088C106.815 107.461 106.57 107.947 106.57 108.544C106.57 108.992 106.703 109.355 106.97 109.632C107.247 109.899 107.589 110.107 107.994 110.256C108.41 110.395 108.965 110.549 109.658 110.72C110.479 110.923 111.141 111.125 111.642 111.328C112.154 111.52 112.586 111.819 112.938 112.224C113.29 112.619 113.466 113.157 113.466 113.84C113.466 114.405 113.311 114.923 113.002 115.392C112.703 115.851 112.239 116.219 111.61 116.496C110.981 116.763 110.207 116.896 109.29 116.896ZM118.066 106.624H114.13V105.6H123.186V106.624H119.25V116.8H118.066V106.624ZM134.437 105.6V116.8H133.461L126.261 107.712V116.8H125.077V105.6H126.053L133.269 114.688V105.6H134.437ZM145.117 113.808H138.877L137.533 116.8H136.301L141.421 105.6H142.589L147.709 116.8H146.461L145.117 113.808ZM144.685 112.848L141.997 106.832L139.309 112.848H144.685ZM161.193 105.6V116.8H160.057V107.84L155.657 115.376H155.097L150.697 107.888V116.8H149.561V105.6H150.537L155.401 113.904L160.217 105.6H161.193ZM172.763 115.776V116.8H164.843V105.6H172.523V106.624H166.027V110.608H171.819V111.616H166.027V115.776H172.763Z" fill="white"/>
<path d="M85.3359 28.8C88.5723 28.8 91.6769 30.0132 91.6769 30.0132L90.6707 35.9887C87.6538 34.2807 80.7878 33.8765 80.7878 37.0217C80.7878 40.1669 90.6265 40.8404 90.6265 48.0745C90.6265 55.0398 83.3679 57.6 78.5575 57.6C73.7471 57.6 70.5991 56.0282 70.5991 56.0282L71.648 49.7818C74.5337 52.1626 83.2802 52.8384 83.2802 49.0636C83.2802 45.2888 73.5291 45.1995 73.5291 38.0108C73.5291 30.3719 81.8373 28.8 85.3359 28.8ZM40.0418 29.2979C42.8034 29.2979 43.3047 31.3423 43.3758 31.738L43.3852 31.7962L43.3861 31.8038L45.7577 44.3138L46.553 48.4347L53.2742 29.2979H60.8617L49.6452 57.1215H42.2996L36.1746 32.95C32.1986 30.4954 28.8 29.7691 28.8 29.7691L28.9304 29.2979H40.0418ZM70.6621 29.2979L66.2552 57.1208H59.2051L63.6113 29.2979H70.6621ZM109.556 29.2972L115.2 57.1208H108.727L107.9 52.988H98.9377L97.468 57.1208H90.1195L100.633 31.3707C100.633 31.3707 101.271 29.2972 103.888 29.2972H109.556ZM104.673 36.8669L100.969 47.2789H106.757L104.673 36.8669Z" fill="white"/>
<defs>
<linearGradient id="paint0_linear" x1="384" y1="166.875" x2="144.185" y2="-18.4441" gradientUnits="userSpaceOnUse">
<stop stop-color="#1B40D1"/>
<stop offset="1" stop-color="#0B1A54"/>
</linearGradient>
<linearGradient id="paint1_linear" x1="-59.0106" y1="85.193" x2="277.094" y2="338.995" gradientUnits="userSpaceOnUse">
<stop stop-color="#EEEEEE"/>
<stop offset="1" stop-color="#D8D8D8" stop-opacity="0"/>
</linearGradient>
<linearGradient id="paint2_linear" x1="266.747" y1="30.0788" x2="406.568" y2="195.886" gradientUnits="userSpaceOnUse">
<stop stop-color="#EEEEEE"/>
<stop offset="1" stop-color="#D8D8D8" stop-opacity="0"/>
</linearGradient>
<linearGradient id="paint3_linear" x1="-36.9634" y1="113.966" x2="279.03" y2="273.857" gradientUnits="userSpaceOnUse">
<stop stop-color="#EEEEEE"/>
<stop offset="1" stop-color="#D8D8D8" stop-opacity="0"/>
</linearGradient>
<linearGradient id="paint4_linear" x1="413.226" y1="116.535" x2="129.585" y2="251.033" gradientUnits="userSpaceOnUse">
<stop stop-color="#EEEEEE"/>
<stop offset="1" stop-color="#D8D8D8" stop-opacity="0"/>
</linearGradient>
</defs>
</svg>
