<svg width="16" height="16" viewBox="0 0 16 16" fill="none" xmlns="http://www.w3.org/2000/svg">
<path d="M16.1478 15.2074L12.3013 11.3609C13.2548 10.1984 13.8295 8.70946 13.8295 7.08661C13.8295 3.36416 10.8091 0.34375 7.08661 0.34375C3.36089 0.34375 0.34375 3.36416 0.34375 7.08661C0.34375 10.8091 3.36089 13.8295 7.08661 13.8295C8.70946 13.8295 10.1952 13.258 11.3576 12.3046L15.2042 16.1478C15.4654 16.4091 15.8866 16.4091 16.1478 16.1478C16.4091 15.8899 16.4091 15.4654 16.1478 15.2074ZM7.08661 12.4874C4.10538 12.4874 1.68253 10.0646 1.68253 7.08661C1.68253 4.10865 4.10538 1.68253 7.08661 1.68253C10.0646 1.68253 12.4907 4.10865 12.4907 7.08661C12.4907 10.0646 10.0646 12.4874 7.08661 12.4874Z" fill="#9CAFC8"/>
</svg>
