<?xml version="1.0" encoding="UTF-8"?>
<svg width="30px" height="30px" viewBox="0 0 30 30" version="1.1" xmlns="http://www.w3.org/2000/svg" xmlns:xlink="http://www.w3.org/1999/xlink">
    <!-- Generator: Sketch 64 (93537) - https://sketch.com -->
    <title>noun_doors_2006589</title>
    <desc>Created with Sketch.</desc>
    <g id="Cherapp" stroke="none" stroke-width="1" fill="none" fill-rule="evenodd">
        <g id="desktop_property" transform="translate(-866.000000, -736.000000)" fill="#1600FF" fill-rule="nonzero">
            <g id="Stacked-Group" transform="translate(866.000000, 581.000000)">
                <g id="Stacked-Group-3" transform="translate(0.000000, 125.000000)">
                    <g id="noun_doors_2006589">
                        <g transform="translate(0.000000, 30.000000)">
                            <g id="Group">
                                <path d="M29.4444444,0 L0.555555556,0 C0.248888889,0 0,0.248888889 0,0.555555556 L0,29.4444444 C0,29.7516667 0.248888889,30 0.555555556,30 C0.862222222,30 1.11111111,29.7516667 1.11111111,29.4444444 L1.11111111,26.6666667 L2.22222222,26.6666667 L2.22222222,28.3333333 C2.22222222,28.5022222 2.29888889,28.6611111 2.43055556,28.7666667 C2.52944444,28.8466667 2.65222222,28.8888889 2.77777778,28.8888889 C2.81777778,28.8888889 2.85833333,28.8844444 2.89833333,28.8761111 L12.8983333,26.6538889 C13.1522222,26.5966667 13.3333333,26.3716667 13.3333333,26.1111111 L13.3333333,5 C13.3333333,4.73944444 13.1522222,4.51388889 12.8983333,4.45777778 L2.89833333,2.23555556 C2.73333333,2.19777778 2.56111111,2.23888889 2.43055556,2.34444444 C2.29888889,2.45 2.22222222,2.60944444 2.22222222,2.77777778 L2.22222222,4.44444444 L1.11111111,4.44444444 L1.11111111,1.11111111 L28.8888889,1.11111111 L28.8888889,4.44444444 L27.7777778,4.44444444 L27.7777778,2.77777778 C27.7777778,2.60944444 27.7011111,2.45 27.57,2.34444444 C27.4383333,2.23944444 27.265,2.19833333 27.1016667,2.23555556 L17.1016667,4.45777778 C16.8472222,4.51388889 16.6666667,4.73944444 16.6666667,5 L16.6666667,26.1111111 C16.6666667,26.3716667 16.8472222,26.5966667 17.1016667,26.6538889 L27.1016667,28.8761111 C27.1416667,28.8844444 27.1822222,28.8888889 27.2222222,28.8888889 C27.3477778,28.8888889 27.47,28.8466667 27.57,28.7666667 C27.7011111,28.6611111 27.7777778,28.5022222 27.7777778,28.3333333 L27.7777778,26.6666667 L28.8888889,26.6666667 L28.8888889,29.4444444 C28.8888889,29.7516667 29.1372222,30 29.4444444,30 C29.7516667,30 30,29.7516667 30,29.4444444 L30,0.555555556 C30,0.248888889 29.7516667,0 29.4444444,0 Z M3.33333333,3.47055556 L12.2222222,5.44611111 L12.2222222,25.6661111 L3.33333333,27.6411111 L3.33333333,3.47055556 Z M2.22222222,5.55555556 L2.22222222,25.5555556 L1.11111111,25.5555556 L1.11111111,5.55555556 L2.22222222,5.55555556 Z M26.6666667,27.6405556 L17.7777778,25.6655556 L17.7777778,5.44555556 L26.6666667,3.47 L26.6666667,27.6405556 Z M27.7777778,25.5555556 L27.7777778,5.55555556 L28.8888889,5.55555556 L28.8888889,25.5555556 L27.7777778,25.5555556 Z" id="Shape"></path>
                                <circle id="Oval" cx="10" cy="14.4444444" r="1"></circle>
                                <circle id="Oval" cx="20" cy="14.4444444" r="1"></circle>
                            </g>
                        </g>
                    </g>
                </g>
            </g>
        </g>
    </g>
</svg>