<svg width="24" height="24" viewBox="0 0 24 24" fill="none" xmlns="http://www.w3.org/2000/svg">
<path d="M12 0C5.37281 0 0 5.37281 0 12C0 18.6272 5.37281 24 12 24C18.6272 24 24 18.6272 24 12C24 5.37281 18.6272 0 12 0ZM16.0242 16.6617C15.367 17.3297 14.415 17.7577 13.1677 17.9452V19.7831H11.1806V18.0112C10.3528 17.9559 9.56859 17.8153 8.82891 17.5889C8.08922 17.363 7.47656 17.0841 6.99094 16.7527L8.06719 14.3348C8.58609 14.677 9.1875 14.9531 9.87234 15.1627C10.5567 15.3727 11.2303 15.4772 11.8927 15.4772C13.1512 15.4772 13.7808 15.1627 13.7808 14.5331C13.7808 14.2017 13.6013 13.9566 13.2427 13.7963C12.8836 13.6364 12.307 13.4677 11.512 13.2909C10.6397 13.1034 9.91125 12.9019 9.32625 12.6867C8.74078 12.4716 8.23875 12.1266 7.81922 11.6517C7.39969 11.1773 7.19016 10.5366 7.19016 9.73078C7.19016 8.78156 7.53234 7.96734 8.21672 7.28813C8.90109 6.60938 9.88922 6.19266 11.1811 6.03797V4.21688H13.1681V6.00562C13.7972 6.06094 14.4019 6.17109 14.9813 6.33703C15.5611 6.5025 16.0767 6.71812 16.5295 6.98297L15.5194 9.41719C14.4155 8.82094 13.3444 8.52281 12.3066 8.52281C11.655 8.52281 11.1806 8.61938 10.8825 8.8125C10.5844 9.00562 10.4353 9.25688 10.4353 9.56578C10.4353 9.87516 10.612 10.1067 10.9655 10.2614C11.3184 10.4161 11.887 10.5759 12.6713 10.7419C13.5544 10.9298 14.2861 11.1309 14.8655 11.3461C15.4453 11.5612 15.9473 11.9039 16.3725 12.3727C16.7972 12.8419 17.01 13.4798 17.01 14.2852C17.0095 15.202 16.6809 15.9938 16.0242 16.6617Z" fill="#1600FF"/>
</svg>
