<svg width="40" height="40" viewBox="0 0 40 40" fill="none" xmlns="http://www.w3.org/2000/svg">
<path fill-rule="evenodd" clip-rule="evenodd" d="M37.6445 34.6626C37.4587 35.4058 36.8594 35.9535 36.129 36.0923V38.0645C36.129 38.2916 36.0826 38.5071 36.0103 38.7097H40V40H34.1936H31.6129H20H17.4194H0V38.7097H1.93548V34.8387H3.22581V21.9355H1.93548C0.868387 21.9355 0 21.0671 0 20V10.9677C0 9.90065 0.868387 9.03226 1.93548 9.03226H8.3871C9.45419 9.03226 10.3226 9.90065 10.3226 10.9677V20C10.3226 21.0671 9.45419 21.9355 8.3871 21.9355H7.09677V34.8387H8.3871V38.7097H15.6026C15.5303 38.5071 15.4839 38.2916 15.4839 38.0645V36.0929C14.7529 35.9542 14.1542 35.4065 13.9684 34.6632L12.9032 30.3226V11.6129C12.1916 11.6129 11.6129 11.0342 11.6129 10.3226V9.03226C11.6129 8.32065 12.1916 7.74194 12.9032 7.74194V4.36387L12.971 4.22774C14.2755 1.62 16.8961 0 19.8116 0H31.8013C34.7168 0 37.3374 1.62 38.6419 4.22774L38.7097 4.36387V7.74194C39.4213 7.74194 40 8.32065 40 9.03226V10.3226C40 11.0342 39.4213 11.6129 38.7097 11.6129H38.709L38.6903 30.4787L37.6445 34.6626ZM19.8116 1.29032C17.4381 1.29032 15.2994 2.58194 14.1935 4.67226V7.74194H37.4194V4.67226C36.3135 2.58194 34.1748 1.29032 31.8013 1.29032H19.8116ZM12.9032 9.03226H38.7097V10.3226H12.9032V9.03226ZM37.4194 29.6774V11.6129H14.1935V29.6774H37.4194ZM15.22 34.3497L14.3748 30.9677H37.2387L36.3935 34.3497C36.3206 34.6374 36.0632 34.8387 35.7665 34.8387H29.0323V33.5484C29.0323 32.8368 28.4535 32.2581 27.7419 32.2581H23.871C23.1594 32.2581 22.5806 32.8368 22.5806 33.5484V34.8387H15.8465C15.5497 34.8387 15.2923 34.6374 15.22 34.3497ZM29.6774 36.129H21.9355V38.0645C21.9355 38.2916 21.889 38.5071 21.8168 38.7097H29.7961C29.7239 38.5071 29.6774 38.2916 29.6774 38.0645V36.129ZM27.7419 34.8387H23.871V33.5484H27.7419V34.8387ZM1.29032 10.9677V20C1.29032 20.3555 1.57935 20.6452 1.93548 20.6452H8.3871C8.74323 20.6452 9.03226 20.3555 9.03226 20V10.9677C9.03226 10.6123 8.74323 10.3226 8.3871 10.3226H1.93548C1.57935 10.3226 1.29032 10.6123 1.29032 10.9677ZM4.51613 21.9355H5.80645V34.8387H4.51613V21.9355ZM7.09677 36.129H3.22581V38.7097H7.09677V36.129ZM17.4194 38.7097C17.0632 38.7097 16.7742 38.42 16.7742 38.0645V36.129H20.6452V38.0645C20.6452 38.42 20.3561 38.7097 20 38.7097H17.4194ZM30.9677 38.0645C30.9677 38.42 31.2568 38.7097 31.6129 38.7097H34.1935C34.5497 38.7097 34.8387 38.42 34.8387 38.0645V36.129H30.9677V38.0645Z" fill="#9CAFC8"/>
<rect x="16.1289" y="32.2581" width="3.87097" height="1.29032" fill="#9CAFC8"/>
<rect x="31.6128" y="32.2581" width="3.87097" height="1.29032" fill="#9CAFC8"/>
<path fill-rule="evenodd" clip-rule="evenodd" d="M7.74186 16.7741H2.58057V11.6128H7.74186V16.7741ZM6.45153 12.9031H3.87089V15.4838H6.45153V12.9031Z" fill="#9CAFC8"/>
<rect x="2.58057" y="18.0645" width="1.29032" height="1.29032" fill="#9CAFC8"/>
<rect x="5.16113" y="18.0645" width="2.58065" height="1.29032" fill="#9CAFC8"/>
<path fill-rule="evenodd" clip-rule="evenodd" d="M17.4194 4.51605C17.4194 3.44895 18.2878 2.58057 19.3549 2.58057C20.422 2.58057 21.2904 3.44895 21.2904 4.51605C21.2904 5.58315 20.422 6.45153 19.3549 6.45153C18.2878 6.45153 17.4194 5.58315 17.4194 4.51605ZM18.7098 4.51605C18.7098 4.87153 18.9988 5.16121 19.3549 5.16121C19.711 5.16121 20.0001 4.87153 20.0001 4.51605C20.0001 4.16057 19.711 3.87089 19.3549 3.87089C18.9988 3.87089 18.7098 4.16057 18.7098 4.51605Z" fill="#9CAFC8"/>
<path fill-rule="evenodd" clip-rule="evenodd" d="M23.8711 4.51605C23.8711 3.44895 24.7395 2.58057 25.8066 2.58057C26.8737 2.58057 27.7421 3.44895 27.7421 4.51605C27.7421 5.58315 26.8737 6.45153 25.8066 6.45153C24.7395 6.45153 23.8711 5.58315 23.8711 4.51605ZM25.1614 4.51605C25.1614 4.87153 25.4504 5.16121 25.8066 5.16121C26.1627 5.16121 26.4517 4.87153 26.4517 4.51605C26.4517 4.16057 26.1627 3.87089 25.8066 3.87089C25.4504 3.87089 25.1614 4.16057 25.1614 4.51605Z" fill="#9CAFC8"/>
<path fill-rule="evenodd" clip-rule="evenodd" d="M30.3228 4.51605C30.3228 3.44895 31.1911 2.58057 32.2582 2.58057C33.3253 2.58057 34.1937 3.44895 34.1937 4.51605C34.1937 5.58315 33.3253 6.45153 32.2582 6.45153C31.1911 6.45153 30.3228 5.58315 30.3228 4.51605ZM31.6131 4.51605C31.6131 4.87153 31.9021 5.16121 32.2582 5.16121C32.6144 5.16121 32.9034 4.87153 32.9034 4.51605C32.9034 4.16057 32.6144 3.87089 32.2582 3.87089C31.9021 3.87089 31.6131 4.16057 31.6131 4.51605Z" fill="#9CAFC8"/>
<path fill-rule="evenodd" clip-rule="evenodd" d="M16.7742 28.3872H34.8387C35.5503 28.3872 36.129 27.8085 36.129 27.0969V14.1936C36.129 13.482 35.5503 12.9033 34.8387 12.9033H16.7742C16.0626 12.9033 15.4839 13.482 15.4839 14.1936V27.0969C15.4839 27.8085 16.0626 28.3872 16.7742 28.3872ZM22.5807 18.7098C22.5807 17.6427 23.449 16.7743 24.5161 16.7743C25.5832 16.7743 26.4516 17.6427 26.4516 18.7098C26.4516 19.7769 25.5832 20.6453 24.5161 20.6453C23.449 20.6453 22.5807 19.7769 22.5807 18.7098ZM20.689 27.0969C20.9594 24.9117 22.5697 23.2259 24.5161 23.2259C26.4626 23.2259 28.0729 24.9117 28.3432 27.0969H29.6774C29.6774 24.2511 27.362 21.9356 24.5161 21.9356C21.6703 21.9356 19.3549 24.2511 19.3549 27.0969H20.689ZM27.0445 27.0969H21.9878C22.2278 25.6265 23.2697 24.5162 24.5161 24.5162C25.7626 24.5162 26.8045 25.6265 27.0445 27.0969ZM34.8387 14.1936H16.7742V27.0969H18.0645C18.0645 24.3182 19.8342 21.9504 22.3032 21.0446C21.6826 20.4562 21.2903 19.6304 21.2903 18.7098C21.2903 16.9311 22.7374 15.484 24.5161 15.484C26.2949 15.484 27.742 16.9311 27.742 18.7098C27.742 19.6304 27.3497 20.4562 26.7297 21.0446C29.1981 21.9504 30.9678 24.3175 30.9678 27.0969H34.8387V14.1936Z" fill="#9CAFC8"/>
<rect x="32.2583" y="15.4839" width="1.29032" height="1.29032" fill="#9CAFC8"/>
<rect x="32.2583" y="18.0645" width="1.29032" height="1.29032" fill="#9CAFC8"/>
<rect x="32.2583" y="20.6453" width="1.29032" height="1.29032" fill="#9CAFC8"/>
</svg>
