<svg width="83" height="80" viewBox="0 0 83 80" fill="none" xmlns="http://www.w3.org/2000/svg">
<g clip-path="url(#clip0)">
<path d="M80.966 22.2691C80.941 22.2512 80.916 22.2352 80.891 22.2191L71.1365 15.7179H71.4222V5.71877C71.4222 4.92956 70.783 4.29033 69.9937 4.29033H62.8515C62.0623 4.29033 61.4231 4.92956 61.4231 5.71877V9.23989L47.9314 0.240687C47.4511 -0.078927 46.8262 -0.078927 46.3459 0.240687L13.3881 22.2173C11.3526 23.544 10.7776 26.2705 12.1043 28.306C13.4309 30.3416 16.1575 30.9165 18.193 29.5899C18.218 29.5738 18.2448 29.5559 18.2698 29.5399L22.8551 26.4812V54.2859H19.9982C19.9982 53.4967 19.359 52.8574 18.5698 52.8574H7.14222C6.353 52.8574 5.71378 53.4967 5.71378 54.2859H0V57.1428H5.71378V71.4272H0V74.2841H5.71378C5.71378 75.0733 6.353 75.7125 7.14222 75.7125H18.5698C19.359 75.7125 19.9982 75.0733 19.9982 74.2841V73.7395L30.6633 78.1677C36.4771 80.5407 42.9765 80.6121 48.8421 78.3677L70.908 69.9559C72.215 69.4595 73.2667 68.456 73.8255 67.174C74.4041 65.8741 74.4344 64.3957 73.9095 63.0726C73.4417 61.8906 72.5578 60.921 71.4222 60.3478V26.4812L76.0093 29.5399C78.0162 30.9094 80.7535 30.3916 82.123 28.3828C83.4908 26.3741 82.9729 23.6368 80.966 22.2691ZM17.1413 72.8557H8.57066V55.7143H17.1413V72.8557ZM64.28 7.14722H68.5653V14.0037L64.28 11.1469V7.14722ZM71.2115 66.0206C70.9579 66.6026 70.4812 67.0597 69.8884 67.2865L47.8225 75.7C42.6373 77.6856 36.8913 77.6231 31.7489 75.5251L19.9982 70.6434V57.141H23.6193C28.3564 57.1463 33.0274 58.2498 37.2645 60.3639C38.6644 61.0603 40.2071 61.4245 41.7713 61.4263H52.8524C54.0362 61.4335 54.9897 62.3977 54.9826 63.5815C54.9772 64.5725 54.2916 65.4313 53.3256 65.6563C53.1381 65.6741 52.9542 65.7116 52.7649 65.7116H35.7111V68.5685H52.7631C52.7935 68.5685 52.8221 68.5685 52.8524 68.5685C52.881 68.5685 52.9078 68.5596 52.9381 68.5596C54.072 68.54 55.1915 68.3043 56.2343 67.8632L68.1778 62.7923C68.7474 62.5494 69.3902 62.5494 69.9598 62.7923C70.5508 63.044 71.0151 63.5243 71.2454 64.1243C71.4883 64.7349 71.4758 65.417 71.2115 66.0206ZM52.8524 58.5712H41.7713C40.6499 58.5694 39.5447 58.3087 38.5412 57.8106C34.538 55.8143 30.1759 54.6394 25.712 54.3573V24.5742L47.1386 10.2898L68.5653 24.5742V59.8032C68.0493 59.8461 67.5422 59.9675 67.0619 60.1639L57.8002 64.0975C57.827 63.9225 57.8448 63.7475 57.8538 63.5726C57.852 60.8085 55.6129 58.5712 52.8524 58.5712ZM79.1786 27.2383V27.2347C78.6769 27.5079 78.0662 27.4775 77.5931 27.1597L47.9314 7.38648C47.4511 7.06687 46.8262 7.06687 46.3459 7.38648L16.6842 27.1615C15.9736 27.6347 15.0165 27.4418 14.5433 26.7312C14.3755 26.4776 14.2844 26.1795 14.2844 25.8759C14.2844 25.3599 14.5416 24.876 14.9719 24.5903L47.1386 3.14757L79.3054 24.5957C79.7357 24.8814 79.9929 25.3652 79.9929 25.8813C79.9964 26.4491 79.6822 26.974 79.1786 27.2383Z" fill="#1600FF"/>
<path d="M14.2844 67.1416H11.4275V69.9985H14.2844V67.1416Z" fill="#1600FF"/>
<path d="M51.24 38.9929C50.9115 37.9341 50.1633 37.0556 49.1706 36.5628L46.3869 35.1701C45.7834 34.8683 45.5405 34.1362 45.8405 33.5345C46.0476 33.122 46.469 32.8595 46.9315 32.8595H47.3493C48.0225 32.8613 48.567 33.4059 48.5688 34.0791V34.288H51.4257V34.0791C51.4186 32.3042 50.2633 30.7383 48.5688 30.2098V28.5742H45.7119V30.2098C43.5693 30.8758 42.373 33.1524 43.039 35.295C43.3675 36.3539 44.1157 37.2324 45.1084 37.7252L47.8921 39.1179C48.4956 39.4197 48.7385 40.1518 48.4385 40.7535C48.2314 41.166 47.81 41.4284 47.3475 41.4284H46.9297C46.2565 41.4266 45.7119 40.882 45.7102 40.2089V40H42.8533V40.2089C42.8604 41.9837 44.0157 43.5497 45.7102 44.0782V45.7138H48.567V44.0782C50.7097 43.4122 51.906 41.1356 51.24 38.9929Z" fill="#1600FF"/>
<path d="M47.1387 22.8604C39.2537 22.8693 32.8632 29.2598 32.8542 37.1448C32.8542 45.0334 39.2501 51.4292 47.1387 51.4292C55.0273 51.4292 61.4231 45.0334 61.4231 37.1448C61.4231 29.2544 55.0273 22.8604 47.1387 22.8604ZM47.1387 48.5723C40.8267 48.5723 35.7111 43.4567 35.7111 37.1448C35.7111 30.8329 40.8267 25.7172 47.1387 25.7172C53.4471 25.7244 58.5591 30.8364 58.5662 37.1448C58.5662 43.4549 53.4506 48.5723 47.1387 48.5723Z" fill="#1600FF"/>
</g>
<defs>
<clipPath id="clip0">
<rect width="82.8872" height="80" fill="white"/>
</clipPath>
</defs>
</svg>
