<?xml version="1.0" encoding="utf-8"?>
<!-- Generator: Adobe Illustrator 23.1.1, SVG Export Plug-In . SVG Version: 6.00 Build 0)  -->
<svg version="1.1" id="Layer_1" xmlns="http://www.w3.org/2000/svg" xmlns:xlink="http://www.w3.org/1999/xlink" x="0px" y="0px"
	 width="30px" height="30px" viewBox="0 0 30 30" style="enable-background:new 0 0 30 30;" xml:space="preserve">
<style type="text/css">
	.st0{fill:#1600FF;}
</style>
<g id="Cherapp">
	<g id="desktop_property" transform="translate(-1075.000000, -743.000000)">
		<g transform="translate(1075.000000, 743.000000)">
			<g id="noun_Parking-Garage_451709">
				<g id="Group">
					<path id="Path" class="st0" d="M29.8,13.6L15.3,7c-0.1-0.1-0.3-0.1-0.5,0L0.4,13.6C0.1,13.7,0,14,0.1,14.3
						c0.1,0.3,0.5,0.4,0.7,0.3l14.2-6.5l14.2,6.5c0.1,0,0.2,0,0.2,0c0.2,0,0.4-0.1,0.5-0.3C30.2,14,30.1,13.7,29.8,13.6z"/>
					<path id="Shape" class="st0" d="M25.1,22.3h-1.8l-1-6.1c0-0.3-0.3-0.5-0.5-0.5H8.4c-0.3,0-0.5,0.2-0.5,0.5l-1,6.1H5.1
						c-0.3,0-0.6,0.2-0.6,0.5v4.4c0,0.3,0.2,0.5,0.6,0.5h1.7v1.6c0,0.3,0.2,0.5,0.6,0.5h2.2c0.3,0,0.6-0.2,0.6-0.5v-1.6h10v1.6
						c0,0.3,0.2,0.5,0.6,0.5h2.2c0.3,0,0.6-0.2,0.6-0.5v-1.6h1.7c0.3,0,0.6-0.2,0.6-0.5v-4.4C25.7,22.5,25.4,22.3,25.1,22.3z
						 M8.9,16.8h12.4l0.9,5.5H8L8.9,16.8z M9,28.8H7.9v-1.1H9V28.8z M22.3,28.8h-1.1v-1.1h1.1V28.8z M24.5,26.7H5.7v-3.3h18.9V26.7z
						"/>
					<path class="st0" d="M18.4,24.5h-6.7c-0.3,0-0.6,0.2-0.6,0.5s0.2,0.5,0.6,0.5h6.7c0.3,0,0.6-0.2,0.6-0.5S18.7,24.5,18.4,24.5z"
						/>
					<path class="st0" d="M8.4,24.5H7.3c-0.3,0-0.6,0.2-0.6,0.5s0.2,0.5,0.6,0.5h1.1C8.7,25.6,9,25.3,9,25S8.7,24.5,8.4,24.5z"/>
					<path class="st0" d="M21.8,24.5c-0.3,0-0.6,0.2-0.6,0.5s0.2,0.5,0.6,0.5h1.1c0.3,0,0.6-0.2,0.6-0.5s-0.2-0.5-0.6-0.5H21.8z"/>
				</g>
			</g>
		</g>
	</g>
</g>
</svg>
