<svg width="24" height="24" viewBox="0 0 24 24" fill="none" xmlns="http://www.w3.org/2000/svg">
<path d="M23.9872 8.5531C23.9623 8.40517 23.9084 8.26369 23.8287 8.13689C23.7489 8.01008 23.6449 7.90048 23.5227 7.81445C23.4829 7.78725 15.5847 2.24255 12.7938 0.295705C12.5142 0.100596 12.1814 -0.00268107 11.8412 5.29114e-05C11.5009 0.00278689 11.1698 0.111398 10.8933 0.310975C8.15987 2.28645 0.383079 7.87314 0.338485 7.90463C0.228664 8.01081 0.141909 8.13873 0.0836922 8.28031C0.0254757 8.4219 -0.00293908 8.57409 0.00024017 8.72727V22.9183C-0.000534696 23.0612 0.0270679 23.2029 0.08143 23.335C0.135792 23.467 0.21582 23.5869 0.316823 23.6875C0.417826 23.788 0.537772 23.8673 0.66963 23.9206C0.801488 23.974 0.942606 24.0003 1.08471 23.9981H5.41928L5.31776 23.896C5.19675 23.7737 5.12882 23.6083 5.12882 23.4357C5.12882 23.2632 5.19675 23.0978 5.31776 22.9755L5.83248 22.4578L6.08011 22.2087L5.31776 21.4419C5.29001 21.4136 5.26478 21.383 5.24233 21.3503C5.15668 21.225 5.11733 21.0735 5.13111 20.9221C5.14489 20.7708 5.21092 20.629 5.31776 20.5214L5.85857 19.9775L6.08011 19.7546L5.72858 19.4469C5.56254 19.3013 5.32345 19.1553 5.23663 18.9458C5.11898 18.6595 5.18208 18.2673 5.18208 17.9629V17.9333C4.12457 17.4568 3.2261 16.6837 2.59437 15.7066C1.96263 14.7295 1.62443 13.5899 1.62031 12.4244C1.59706 9.09851 4.26981 6.38103 7.57589 6.3462C9.29036 6.32664 10.8933 7.0777 12.003 8.22147C11.8535 8.35651 11.7003 8.49728 11.566 8.64329C10.6229 9.67016 10.0603 10.9814 10.0603 12.3805C10.0603 13.6182 10.4982 14.7873 11.326 15.8018C11.4033 15.8972 11.484 15.9883 11.5665 16.0781C11.7027 16.2264 11.844 16.4054 11.9935 16.5442C11.4517 17.1132 10.8043 17.5697 10.0878 17.8879C10.0752 17.8937 10.0646 17.903 10.0571 17.9146C10.0496 17.9263 10.0456 17.9399 10.0456 17.9538V23.9279C10.0455 23.9374 10.0473 23.9468 10.0509 23.9556C10.0545 23.9644 10.0598 23.9723 10.0664 23.979C10.0731 23.9857 10.081 23.991 10.0897 23.9946C10.0985 23.9982 10.1078 24.0001 10.1172 24H13.9285C13.9475 24 13.9658 23.9924 13.9792 23.9789C13.9926 23.9654 14.0002 23.9471 14.0002 23.9279V17.9519C14 17.938 13.996 17.9244 13.9884 17.9127C13.9808 17.901 13.9701 17.8918 13.9575 17.886C13.2362 17.5665 12.5846 17.1072 12.04 16.5342C12.187 16.3968 12.3293 16.2217 12.4626 16.0761C12.5452 15.9864 12.6258 15.8943 12.7032 15.7999C13.5315 14.7854 13.9689 13.6163 13.9689 12.3786C13.9689 10.9795 13.4062 9.66825 12.4631 8.64138C12.3308 8.49823 12.1785 8.3589 12.0286 8.22529C13.1387 7.08009 14.7483 6.32473 16.4656 6.34429C19.7717 6.38103 22.443 9.09851 22.4212 12.4244C22.417 13.5892 22.0792 14.728 21.4482 15.7047C20.8172 16.6814 19.9197 17.4545 18.8632 17.9314V17.9414C18.8632 18.1967 18.886 18.4615 18.8352 18.7163C18.8128 18.8424 18.7643 18.9624 18.6929 19.0685C18.6066 19.1916 18.4809 19.2837 18.3717 19.3848C18.2361 19.5098 18.0988 19.6334 17.96 19.7556L18.3039 20.1015L18.7223 20.5224C18.8288 20.6294 18.8948 20.7704 18.909 20.9211C18.9232 21.0717 18.8847 21.2227 18.8001 21.3479C18.7772 21.3821 18.7511 21.414 18.7223 21.4433L17.96 22.2101L18.2987 22.5513L18.7223 22.9769C18.7275 22.9822 18.7318 22.9879 18.737 22.9932C18.7596 23.0175 18.7804 23.0435 18.7992 23.071C18.8721 23.1788 18.9111 23.3063 18.9111 23.4367C18.9111 23.5672 18.8721 23.6946 18.7992 23.8025C18.7762 23.8366 18.7502 23.8686 18.7214 23.8979L18.6198 24H22.9231C23.2149 24 23.4876 23.9232 23.6916 23.7061C23.8911 23.4937 24.0015 23.2123 24 22.9202V8.72727C24.0001 8.66895 23.9957 8.61072 23.9867 8.5531" fill="#1600FF"/>
</svg>
