<?xml version="1.0" encoding="utf-8"?>
<!-- Generator: Adobe Illustrator 23.1.1, SVG Export Plug-In . SVG Version: 6.00 Build 0)  -->
<svg version="1.1" id="Layer_1" xmlns="http://www.w3.org/2000/svg" xmlns:xlink="http://www.w3.org/1999/xlink" x="0px" y="0px"
	 width="12px" height="12px" viewBox="0 0 12 12" style="enable-background:new 0 0 12 12;" xml:space="preserve">
<style type="text/css">
	.st0{fill-rule:evenodd;clip-rule:evenodd;fill:#FFFFFF;}
</style>
<path class="st0" d="M5.3,7.5H5.1c-0.1,0-0.2,0-0.4,0C4.7,7.5,4.6,7.6,4.6,7.7C4.4,7.8,4.3,7.9,4.1,8C3.9,8.1,3.8,8.2,3.6,8.3
	C3.4,8.4,3.2,8.4,3.1,8.5l0,0c-0.1,0-0.1,0-0.2-0.1c0,0-0.1-0.1-0.1-0.1c0,0,0,0,0-0.1C2.9,8.1,3,7.9,3.1,7.7s0.2-0.4,0.2-0.6
	C3.1,7,2.9,6.9,2.7,6.7C2.6,6.6,2.4,6.4,2.3,6.2C2.1,5.8,2,5.4,2,4.9c0-0.3,0.1-0.7,0.3-1C2.4,3.7,2.7,3.4,3,3.2
	C3.3,3,3.6,2.8,4,2.7c0.4-0.1,0.8-0.2,1.3-0.2c0.4,0,0.9,0.1,1.3,0.2c0.4,0.1,0.7,0.3,1,0.5C7.8,3.4,8.1,3.7,8.2,4
	c0.2,0.3,0.3,0.6,0.3,1c0,0.4-0.1,0.7-0.2,1C8.1,6.3,7.9,6.6,7.6,6.8C7.3,7,7,7.2,6.6,7.3C6.2,7.4,5.7,7.5,5.3,7.5L5.3,7.5z M10,7
	c0,0.4-0.1,0.7-0.3,1C9.6,8.2,9.3,8.4,8.9,8.6v0c0,0.2,0,0.3,0.1,0.6s0.1,0.4,0.2,0.5c0,0,0,0,0,0.1c0,0.1-0.1,0.2-0.2,0.2
	c0,0,0,0,0,0h0c-0.3,0-0.6-0.2-0.8-0.4C7.9,9.2,7.7,9.1,7.6,9C7.6,9,7.5,9,7.5,9c0,0-0.1,0-0.1,0H7.2C6.9,9,6.7,9,6.5,8.9
	C6.2,8.9,6,8.8,5.8,8.7C5.4,8.6,5.1,8.3,4.9,8c0,0,3.4,0.4,4.2-2.4c0-0.1,0-0.2,0.1-0.3c0.3,0.2,0.6,0.4,0.7,0.7
	C9.9,6.3,10,6.6,10,7z"/>
</svg>
