<svg width="93" height="80" viewBox="0 0 93 80" fill="none" xmlns="http://www.w3.org/2000/svg">
<path d="M89.3066 42.5642V19.6772C89.3066 8.82698 80.4797 0 69.6294 0C60.5662 0 52.9168 6.15995 50.6429 14.5109C47.2852 14.015 43.7959 14.0817 40.4706 14.7146C39.7439 14.8535 39.2661 15.555 39.4049 16.2817C39.5402 17.0138 40.2633 17.4881 40.972 17.3474C43.96 16.7794 47.0958 16.7108 50.1163 17.1436C50.0099 17.9731 49.954 18.8189 49.954 19.6754V28.0696C49.8242 28.0642 42.7644 28.0606 42.7644 28.0606C38.3698 28.0606 34.6966 31.1983 33.8617 35.3494C33.2071 35.0681 32.5363 34.8246 31.8529 34.6191V32.7545C33.1674 31.2812 34.1394 29.5212 34.684 27.5935C35.9968 26.9317 37.3258 25.4801 38.1138 23.8085C39.2174 21.5346 38.8567 19.2318 36.5936 18.148C36.123 17.9262 35.6451 17.8 35.1763 17.7694V12.0909C35.1763 7.08322 31.1027 3.00965 26.095 3.00965H19.2949C14.2873 3.00965 10.2137 7.08322 10.2137 12.0909V17.7694C9.74484 17.8 9.26697 17.9262 8.79632 18.148C6.53503 19.2318 6.17257 21.5346 7.27797 23.8085C8.0642 25.4801 9.39501 26.9299 10.7078 27.5935C11.2524 29.523 12.2243 31.2812 13.5389 32.7545V34.6191C5.53422 37.0246 0 44.4198 0 52.8428C0 53.9068 0.865567 54.7723 1.92949 54.7723H17.7189C19.5221 59.7403 22.5877 64.1331 26.6396 67.5557C24.6236 70.5978 23.4659 74.2277 23.4659 78.0687C23.4659 79.1326 24.3314 79.9982 25.3954 79.9982H66.9299C67.9939 79.9982 68.8594 79.1326 68.8594 78.0687C68.8594 69.6457 63.3234 62.2487 55.3169 59.8449V57.8036C56.1302 56.893 56.8118 55.8741 57.342 54.7723H71.7392C70.7132 57.3149 69.3139 59.6808 67.5665 61.8285C67.0994 62.4019 67.186 63.2477 67.7612 63.7147C68.0101 63.9167 68.3094 64.0159 68.607 64.0159C68.9965 64.0159 69.3824 63.8464 69.6475 63.5218C71.7934 60.8854 73.4578 57.9443 74.6082 54.7723H90.394C91.4579 54.7723 92.3235 53.9068 92.3235 52.8428C92.3271 49.1011 91.2289 45.5577 89.3066 42.5642ZM52.6355 19.6772C52.6355 10.3057 60.2597 2.68145 69.6312 2.68145C79.0028 2.68145 86.627 10.3057 86.627 19.6772V39.2679C84.4739 37.149 81.8069 35.5297 78.7864 34.6227V32.0674C80.9052 29.6889 82.1116 26.5945 82.1116 23.327V16.9597C82.1116 13.9482 79.661 11.4976 76.6495 11.4976H62.5498C59.5384 11.4976 57.0877 13.9482 57.0877 16.9597V23.327C57.0877 26.627 58.3176 29.752 60.4761 32.1396V34.6191C59.7944 34.8246 59.1218 35.0699 58.4672 35.3512C57.8379 32.2171 55.591 29.6637 52.6373 28.598L52.6355 19.6772ZM74.8012 32.0115L71.5553 34.1935C70.367 34.9923 68.8306 34.9923 67.6404 34.1935L64.3946 32.0115C61.4967 30.064 59.7674 26.8163 59.7674 23.3252V16.9597C59.7674 15.4269 61.0152 14.1791 62.548 14.1791H76.6477C78.1805 14.1791 79.4284 15.4269 79.4284 16.9597V23.327C79.4284 26.8181 77.699 30.064 74.8012 32.0115ZM63.1557 34.4099L66.1455 36.4187C67.195 37.1238 68.396 37.4754 69.5988 37.4754C70.8015 37.4754 72.0025 37.1238 73.052 36.4187L76.1049 34.3666V36.4782C76.1049 40.0487 73.1999 42.9519 69.6312 42.9519C66.0608 42.9519 63.1575 40.0469 63.1575 36.4782L63.1557 34.4099ZM56.7631 50.3273C56.2168 50.5148 55.8074 50.9638 55.6686 51.5337C55.0536 54.0763 53.5191 56.2817 51.3497 57.7405L48.1129 59.917C46.9281 60.7123 45.399 60.7123 44.2142 59.917L40.9774 57.7405C38.8062 56.2817 37.2735 54.0781 36.6567 51.5337C36.5197 50.9656 36.1104 50.5148 35.564 50.3291C34.8841 50.0965 33.7823 49.0668 33.1728 47.7198C32.4353 46.0896 33.6832 45.2186 34.3053 45.6208C34.7164 45.8877 35.2412 45.9003 35.6704 45.664C36.0995 45.4278 36.3664 44.9788 36.3664 44.4883V41.1108C36.3664 39.3851 37.7694 37.9821 39.4951 37.9821H52.8374C54.5632 37.9821 55.9661 39.3851 55.9661 41.1108V44.4883C55.9661 44.977 56.233 45.4278 56.6622 45.664C57.0913 45.9003 57.6143 45.8822 58.0272 45.6208C58.8405 45.28 60.119 45.7722 59.1597 47.7198C58.5249 49.0542 57.4448 50.0947 56.7631 50.3273ZM39.6898 60.1028L42.7193 62.1387C43.7652 62.8419 44.9644 63.1936 46.1636 63.1936C47.3627 63.1936 48.5619 62.8419 49.6096 62.1387L52.6391 60.1028V61.7041C52.6391 65.2745 49.734 68.1778 46.1654 68.1778C42.5967 68.1778 39.6916 65.2727 39.6916 61.7041L39.6898 60.1028ZM42.7644 30.742H49.5627C52.7617 30.742 55.4197 33.1007 55.8886 36.1717C55.0014 35.6199 53.9537 35.3007 52.8338 35.3007H39.4915C38.3717 35.3007 37.3258 35.6199 36.4367 36.1717C36.9074 33.1007 39.5654 30.742 42.7644 30.742ZM16.2222 35.0536L19.2516 37.0895C20.2975 37.7928 21.4967 38.1444 22.6959 38.1444C23.8951 38.1444 25.0942 37.7928 26.1401 37.0895L29.1696 35.0536V36.6549C29.1696 40.2254 26.2645 43.1287 22.6959 43.1287C19.1272 43.1287 16.2222 40.2236 16.2222 36.6549V35.0536ZM19.2985 5.6911H26.0968C29.2958 5.6911 31.9538 8.04977 32.4227 11.1207C31.5337 10.5689 30.4878 10.2498 29.368 10.2498H16.0256C14.9058 10.2498 13.8599 10.5689 12.9709 11.1207C13.4415 8.04977 16.0995 5.6911 19.2985 5.6911ZM12.0981 25.2763C11.4165 25.0437 10.3363 24.0032 9.70697 22.667C9.40222 22.0197 9.29222 21.4715 9.395 21.1198C9.35714 20.7502 10.2173 20.0126 10.8376 20.568C11.2019 20.8944 11.7735 20.8475 12.2027 20.6113C12.6319 20.3751 12.8987 19.9261 12.8987 19.4356V16.0581C12.8987 14.3323 14.3017 12.9294 16.0274 12.9294H29.3698C31.0955 12.9294 32.4984 14.3323 32.4984 16.0581V19.4356C32.4984 19.9243 32.7653 20.3751 33.1945 20.6113C33.6237 20.8457 34.2205 20.9215 34.5596 20.568C35.0284 20.0793 35.8849 20.5825 36.0022 21.1198C36.0815 21.4787 35.9949 22.0215 35.6902 22.667C35.0609 24.005 33.9789 25.0437 33.3009 25.2763C32.7527 25.4639 32.3433 25.9147 32.2063 26.4827C31.5914 29.0253 30.0568 31.2289 27.8857 32.6896L24.6488 34.8661C23.4641 35.6613 21.9349 35.6631 20.7502 34.8661L17.5133 32.6896C15.3422 31.2307 13.8076 29.0253 13.1927 26.4827C13.0538 25.9129 12.6445 25.4639 12.0981 25.2763ZM13.5768 37.4249C13.9699 42.1134 17.9082 45.8101 22.6977 45.8101C27.4872 45.8101 31.4255 42.1152 31.8186 37.4267C32.4569 37.6521 33.0791 37.919 33.6832 38.222V42.8203C33.2143 42.851 32.7365 42.9772 32.2658 43.199C30.6104 43.9798 29.3409 45.875 30.7456 48.8594C31.3588 50.1614 32.3001 51.3263 33.3081 52.0927H2.69768C3.00243 45.4278 7.33207 39.6285 13.5768 37.4249ZM20.5897 54.7741H34.9833C35.5135 55.8759 36.1951 56.8948 37.0084 57.8054V59.8485C33.5551 60.8854 30.5635 62.8528 28.2752 65.4314C24.8778 62.5354 22.2523 58.8874 20.5897 54.7741ZM66.1618 77.3185H26.1654C26.4701 70.6573 30.807 64.8472 37.0571 62.6472C37.5313 67.2545 41.4336 70.8593 46.1636 70.8593C50.8935 70.8593 54.7976 67.2527 55.27 62.6454C61.5238 64.8472 65.8588 70.6519 66.1618 77.3185ZM59.0172 52.0927C60.0234 51.3263 60.9665 50.1614 61.5797 48.8594C62.9844 45.875 61.7167 43.978 60.0613 43.199C59.5907 42.9772 59.1128 42.851 58.6439 42.8203V38.222C59.2534 37.9172 59.881 37.6485 60.5229 37.4231C60.9972 42.0305 64.8995 45.6352 69.6294 45.6352C74.3594 45.6352 78.2635 42.0305 78.7359 37.4231C84.9842 39.6231 89.3229 45.435 89.6276 52.0927H59.0172Z" fill="#1600FF"/>
<path d="M18.1048 21.9998C18.9652 21.9998 19.6628 21.3023 19.6628 20.4418C19.6628 19.5813 18.9652 18.8838 18.1048 18.8838C17.2443 18.8838 16.5468 19.5813 16.5468 20.4418C16.5468 21.3023 17.2443 21.9998 18.1048 21.9998Z" fill="#1600FF"/>
<path d="M27.1427 21.9998C28.0032 21.9998 28.7008 21.3023 28.7008 20.4418C28.7008 19.5813 28.0032 18.8838 27.1427 18.8838C26.2823 18.8838 25.5847 19.5813 25.5847 20.4418C25.5847 21.3023 26.2823 21.9998 27.1427 21.9998Z" fill="#1600FF"/>
<path d="M19.1958 28.2246C20.0343 29.0595 21.3092 29.5391 22.696 29.5391C24.0827 29.5391 25.3594 29.0595 26.1961 28.2246C26.7208 27.7016 26.7208 26.8523 26.1979 26.3293C25.6749 25.8046 24.8256 25.8046 24.3027 26.3275C24.0556 26.5728 23.4876 26.8595 22.6941 26.8595C21.9025 26.8595 21.3327 26.5728 21.0856 26.3275C20.5609 25.8046 19.7134 25.8064 19.1904 26.3311C18.6711 26.8523 18.6729 27.7016 19.1958 28.2246Z" fill="#1600FF"/>
<path d="M41.5724 47.0487C42.4329 47.0487 43.1304 46.3511 43.1304 45.4906C43.1304 44.6302 42.4329 43.9326 41.5724 43.9326C40.712 43.9326 40.0144 44.6302 40.0144 45.4906C40.0144 46.3511 40.712 47.0487 41.5724 47.0487Z" fill="#1600FF"/>
<path d="M50.6086 47.0487C51.469 47.0487 52.1666 46.3511 52.1666 45.4906C52.1666 44.6302 51.469 43.9326 50.6086 43.9326C49.7481 43.9326 49.0505 44.6302 49.0505 45.4906C49.0505 46.3511 49.7481 47.0487 50.6086 47.0487Z" fill="#1600FF"/>
<path d="M47.772 51.3764C47.525 51.6217 46.957 51.9084 46.1635 51.9084C45.3701 51.9084 44.8021 51.6217 44.5568 51.3764C44.0321 50.8535 43.1845 50.8553 42.6616 51.38C42.1386 51.9048 42.1405 52.7523 42.6652 53.2753C43.5037 54.1102 44.7786 54.5898 46.1653 54.5898C47.552 54.5898 48.8288 54.1102 49.6655 53.2753C50.1902 52.7523 50.192 51.903 49.6691 51.38C49.1443 50.8553 48.295 50.8535 47.772 51.3764Z" fill="#1600FF"/>
<path d="M65.0382 21.8231C65.8987 21.8231 66.5963 21.1255 66.5963 20.2651C66.5963 19.4046 65.8987 18.707 65.0382 18.707C64.1778 18.707 63.4802 19.4046 63.4802 20.2651C63.4802 21.1255 64.1778 21.8231 65.0382 21.8231Z" fill="#1600FF"/>
<path d="M74.0762 21.8231C74.9367 21.8231 75.6342 21.1255 75.6342 20.2651C75.6342 19.4046 74.9367 18.707 74.0762 18.707C73.2157 18.707 72.5182 19.4046 72.5182 20.2651C72.5182 21.1255 73.2157 21.8231 74.0762 21.8231Z" fill="#1600FF"/>
<path d="M71.238 26.1499C70.9927 26.3951 70.4229 26.6818 69.6295 26.6818C68.8378 26.6818 68.268 26.3951 68.0209 26.1499C67.4962 25.6269 66.6487 25.6287 66.1257 26.1535C65.6028 26.6782 65.6046 27.5258 66.1293 28.0487C66.9678 28.8836 68.2427 29.3633 69.6295 29.3633C71.0162 29.3633 72.2929 28.8836 73.1296 28.0487C73.6543 27.5258 73.6543 26.6764 73.1332 26.1535C72.6102 25.6287 71.7609 25.6269 71.238 26.1499Z" fill="#1600FF"/>
</svg>
