<?xml version="1.0" encoding="UTF-8"?>
<svg width="267px" height="267px" viewBox="0 0 267 267" version="1.1" xmlns="http://www.w3.org/2000/svg" xmlns:xlink="http://www.w3.org/1999/xlink">
    <!-- Generator: Sketch 43.1 (39012) - http://www.bohemiancoding.com/sketch -->
    <title>architecture-and-city</title>
    <desc>Created with Sketch.</desc>
    <defs></defs>
    <g id="Page-1" stroke="none" stroke-width="1" fill="none" fill-rule="evenodd">
        <g id="architecture-and-city">
            <path d="M253.534051,210.293293 C253.096108,202.25694 247.877453,195.27173 240.29594,192.576648 L240.29594,93.4453314 L246.524921,97.2200745 C248.655566,98.5625225 251.124344,99.2755067 253.644046,99.2755067 C259.608224,99.2775436 264.849286,95.3235358 266.48699,89.5870669 C268.122658,83.8526354 265.755726,77.7270805 260.687805,74.5818006 L140.620033,2.04887627 C136.295597,-0.666575708 130.801954,-0.684909463 126.461222,2.00609734 L6.2366055,74.6184681 C1.66773585,77.494851 -0.71752785,82.8401971 0.190950253,88.163135 C1.09942784,93.4840364 5.12443281,97.7354603 10.3879009,98.9332741 C11.3717458,99.1573552 12.3779968,99.2714327 13.3883219,99.2714327 C15.8672854,99.2755067 18.2953248,98.5747448 20.391342,97.2506311 L26.7058741,93.4453314 L26.7058741,192.576648 C19.1243614,195.27173 13.9036691,202.25694 13.467763,210.293293 C5.42793761,213.090229 0.0300312976,220.660087 0.00762486735,229.175158 C0.0157726507,233.685294 1.57607342,238.056907 4.42576026,241.554604 C1.70032699,243.13743 0.0178095705,246.048444 0.00762486735,249.199835 L0.00762486735,258.099917 C0.00762486735,263.015436 3.99189092,267 8.9070411,267 L258.094773,267 C263.009924,267 266.99419,263.015436 266.99419,258.099917 L266.99419,249.199835 C266.977894,246.046406 265.295376,243.135393 262.569943,241.55053 C265.423704,238.05487 266.984005,233.685294 266.99419,229.175158 C266.971783,220.660087 261.573877,213.090229 253.534051,210.293293 L253.534051,210.293293 Z M244.74463,211.374993 C244.754815,211.821117 244.720187,212.269278 244.642783,212.709292 C244.638709,212.786702 244.638709,212.866148 244.642783,212.945595 C244.642783,213.025042 244.575564,213.088192 244.567416,213.167639 C244.563342,213.389683 244.579638,213.611726 244.616302,213.829696 C244.573527,214.414343 244.701854,214.996953 244.98499,215.508265 C245.082763,215.762902 245.207017,216.007354 245.353677,216.237546 C245.526817,216.469775 245.722364,216.681634 245.938281,216.875158 C246.127716,217.074793 246.337522,217.256095 246.559549,217.417026 C246.816204,217.569808 247.087118,217.694071 247.370253,217.791852 C247.559689,217.895744 247.75931,217.987414 247.963004,218.062786 C248.068926,218.08112 248.174847,218.093343 248.282805,218.097417 C248.331692,218.097417 248.36632,218.138159 248.415207,218.142233 C253.953662,218.869477 258.094773,223.589434 258.094773,229.175158 C258.056071,235.30275 253.098145,240.261047 246.968975,240.299752 L198.021167,240.299752 C191.877738,240.299752 186.897405,235.319046 186.897405,229.175158 C186.889258,226.207106 188.084945,223.363316 190.213553,221.293624 C191.578307,219.902286 193.299526,218.914293 195.187775,218.435575 L195.218329,218.435575 C195.646088,218.323535 196.053477,218.148344 196.428275,217.916115 C196.49142,217.875373 196.521975,217.808149 196.581046,217.769444 C196.827516,217.579994 197.055654,217.364061 197.257312,217.127758 C197.450822,216.944419 197.625999,216.744783 197.782844,216.526814 C197.923393,216.280325 198.039499,216.021614 198.129125,215.752717 C198.24523,215.496042 198.336893,215.229182 198.404113,214.956211 C198.448925,214.381749 198.43874,213.803214 198.377632,213.228752 L198.377632,213.020968 C198.296155,212.807072 198.196344,212.603362 198.080238,212.405764 C198.017093,212.191869 197.937652,211.982048 197.843952,211.778338 C196.497531,209.66383 195.786637,207.207089 195.796822,204.699421 C195.780526,198.282561 200.341248,192.766099 206.645595,191.576433 C212.951979,190.386768 219.20744,193.862058 221.529558,199.842978 C222.183418,201.378951 222.513403,203.031038 222.495071,204.699421 C222.495071,207.044121 221.871765,209.34808 220.690337,211.374993 C219.881669,212.75207 219.873522,214.457122 220.669968,215.840312 C221.464376,217.225539 222.941162,218.079083 224.538127,218.075009 C226.135093,218.070934 227.607805,217.213316 228.396103,215.824015 C230.353608,212.442432 231.38634,208.606576 231.394487,204.699421 C231.390413,203.32438 231.255975,201.953412 230.995246,200.604853 C231.8528,200.380772 232.734797,200.260584 233.620869,200.248361 C239.764298,200.248361 244.74463,205.229066 244.74463,211.374993 L244.74463,211.374993 Z M186.897405,191.348278 L186.897405,173.548113 L195.796822,173.548113 L195.796822,187.013333 C192.96343,189.150249 190.684088,191.932926 189.144156,195.13117 C187.773292,194.363184 186.915738,192.920918 186.897405,191.348278 L186.897405,191.348278 Z M209.146965,146.847864 C211.603522,146.847864 213.595654,148.840147 213.595654,151.296887 L213.595654,164.64803 L204.696238,164.64803 L204.696238,146.847864 L209.146965,146.847864 Z M209.146965,182.448196 C207.651847,182.446158 206.160802,182.594867 204.696238,182.892283 L204.696238,173.548113 L213.595654,173.548113 L213.595654,182.947285 C212.133127,182.631534 210.642083,182.464493 209.146965,182.448196 Z M195.796822,164.64803 L186.897405,164.64803 L186.897405,151.296887 C186.897405,148.840147 188.889538,146.847864 191.348132,146.847864 L195.796822,146.847864 L195.796822,164.64803 Z M15.7246989,89.6807737 C13.6571988,90.9580345 10.9500979,90.3448675 9.63830478,88.2996207 C8.32651166,86.2564109 8.8968565,83.536885 10.9175068,82.1924001 L131.133976,9.57391786 C131.840796,9.12779319 132.661686,8.89148978 133.500907,8.89352675 C134.37272,8.89556372 135.2262,9.14612695 135.961538,9.61465983 L256.033384,82.1516581 C257.371657,83.0092764 258.151808,84.5167292 258.07644,86.1056659 C258.003111,87.6946026 257.086485,89.1226084 255.674882,89.8539269 C254.261241,90.5832084 252.566502,90.5037614 251.228229,89.6461426 L135.804693,19.806263 C134.389016,18.9466073 132.612799,18.9466073 131.195085,19.806263 L15.7246989,89.6807737 Z M133.500907,28.8163487 L231.394487,88.0531319 L231.394487,191.505135 C230.090842,191.653843 228.803492,191.930888 227.554844,192.336271 C226.186016,190.264542 224.477019,188.441339 222.495071,186.942035 L222.495071,151.296887 C222.495071,143.924629 216.518672,137.947782 209.146965,137.947782 L191.348132,137.947782 C183.974388,137.947782 177.997989,143.924629 177.997989,151.296887 L177.997989,191.348278 C178.014284,197.017523 181.617642,202.055267 186.976846,203.902915 C186.976846,204.17385 186.897405,204.42645 186.897405,204.699421 C186.911664,207.113382 187.319053,209.50901 188.107351,211.792598 C186.565383,212.664476 185.151743,213.748212 183.907169,215.009176 C177.107844,221.741786 176.050669,232.357105 181.389504,240.299752 L169.098573,240.299752 L169.098573,146.847864 C169.098573,137.016828 161.130041,129.047699 151.29974,129.047699 L115.702074,129.047699 C105.871774,129.047699 97.901205,137.016828 97.901205,146.847864 L97.901205,240.299752 L85.6123109,240.299752 C87.8244338,237.011875 89.0038255,233.137314 89.0017887,229.175158 C89.0282689,223.878702 86.9200298,218.794104 83.1516803,215.072326 C81.8887733,213.786917 80.4547635,212.684846 78.8883523,211.796671 C79.6786872,209.513084 80.0901506,207.11542 80.102372,204.699421 C80.102372,204.418302 80.0636699,204.169775 80.0534853,203.89273 C85.3923202,202.028785 88.9773449,197.003263 89.0017887,191.348278 L89.0017887,151.296887 C89.0017887,143.924629 83.0253894,137.947782 75.6536823,137.947782 L57.8548498,137.947782 C50.4811059,137.947782 44.5047065,143.924629 44.5047065,151.296887 L44.5047065,186.982777 C42.5472017,188.478007 40.844315,190.280839 39.463266,192.324049 C38.2085073,191.92274 36.9150466,191.645695 35.6052903,191.499023 L35.6052903,88.0531319 L133.500907,28.8163487 Z M160.199156,240.299752 L106.802658,240.299752 L106.802658,146.847864 C106.802658,141.932346 110.786924,137.947782 115.702074,137.947782 L151.29974,137.947782 C156.21489,137.947782 160.199156,141.932346 160.199156,146.847864 L160.199156,240.299752 Z M75.6536823,146.847864 C78.1102392,146.847864 80.102372,148.840147 80.102372,151.296887 L80.102372,164.64803 L71.2029557,164.64803 L71.2029557,146.847864 L75.6536823,146.847864 Z M77.8780271,195.100613 C76.3238378,191.924777 74.0363475,189.164509 71.2029557,187.050001 L71.2029557,173.548113 L80.102372,173.548113 L80.102372,191.348278 C80.0799654,192.904622 79.232596,194.332627 77.8780271,195.100613 Z M62.3035395,164.64803 L53.4041228,164.64803 L53.4041228,151.296887 C53.4041228,148.840147 55.3962561,146.847864 57.8548498,146.847864 L62.3035395,146.847864 L62.3035395,164.64803 Z M53.4041228,173.548113 L62.3035395,173.548113 L62.3035395,182.981915 C59.3662634,182.393194 56.3413989,182.393194 53.4041228,182.981915 L53.4041228,173.548113 Z M18.5947555,218.142233 C18.6436422,218.142233 18.6782701,218.107602 18.7271568,218.097417 C18.8351154,218.089269 18.9410365,218.072972 19.0469577,218.048526 C19.2526891,217.973154 19.4523101,217.881484 19.6437827,217.777592 C19.9228442,217.681849 20.191721,217.557586 20.4443023,217.408878 C20.6744776,217.243873 20.8883568,217.054422 21.0818668,216.846638 C21.2916718,216.661262 21.483145,216.455516 21.6562852,216.233472 C21.8049821,215.993094 21.931273,215.740494 22.0331201,215.477708 C22.3142189,214.966397 22.4405092,214.383787 22.3936594,213.803214 C22.4262505,213.589318 22.4425461,213.371348 22.4425461,213.153379 C22.4425461,213.073932 22.3814379,213.010782 22.3671792,212.931335 C22.352921,212.851889 22.3671792,212.776516 22.3671792,212.695032 C22.2877387,212.259093 22.2510734,211.817043 22.2551476,211.374993 C22.2551476,205.229066 27.2375168,200.248361 33.3809455,200.248361 C34.2690538,200.260584 35.1510513,200.378735 36.0106427,200.604853 C35.7458394,201.953412 35.6114013,203.32438 35.6052903,204.699421 C35.6134381,208.604539 36.6461698,212.440395 38.5996009,215.824015 C39.8278789,217.95482 42.5512753,218.686138 44.681921,217.457768 C46.8125666,216.229398 47.5438297,213.505797 46.3155513,211.374993 C45.130049,209.350116 44.5047065,207.046158 44.5047065,204.699421 C44.4945219,202.984184 44.840803,201.283207 45.5231795,199.710567 C47.6782684,194.35911 53.0354357,191.004009 58.7898081,191.401243 C64.5462168,191.798477 69.3900737,195.858414 70.7894556,201.454323 C71.0787022,202.511577 71.2172145,203.603462 71.2029557,204.699421 C71.2151772,207.200978 70.5103942,209.653644 69.1700841,211.766115 C69.0743475,211.969825 68.9949065,212.181683 68.9337978,212.397616 C68.817692,212.59114 68.7178818,212.79485 68.636404,213.006708 L68.636404,213.216529 C68.5752954,213.788954 68.5651108,214.36749 68.6099238,214.943989 C68.6771429,215.21696 68.7688053,215.48382 68.8849111,215.740494 C68.9745373,216.009391 69.090643,216.268103 69.233229,216.514591 C69.3880369,216.730524 69.5632145,216.932197 69.7567245,217.115535 C69.9604185,217.351839 70.1865196,217.565734 70.43299,217.755184 C70.4920618,217.795927 70.5226161,217.863151 70.585761,217.901855 C70.9605591,218.134085 71.3679482,218.311312 71.7957071,218.423352 L71.8262614,218.423352 C73.74099,218.910219 75.4825788,219.918583 76.8595542,221.33844 C78.9535345,223.404058 80.1247785,226.231551 80.102372,229.175158 C80.102372,235.319046 75.1220395,240.299752 68.9786109,240.299752 L20.0308022,240.299752 C13.9036691,240.261047 8.9457432,235.30275 8.9070411,229.175158 C8.9070411,223.58536 13.052226,218.865403 18.5947555,218.142233 L18.5947555,218.142233 Z M8.9070411,249.199835 L80.102372,249.199835 L80.102372,258.099917 L8.9070411,258.099917 L8.9070411,249.199835 Z M89.0017887,258.099917 L89.0017887,249.199835 L177.997989,249.199835 L177.997989,258.099917 L89.0017887,258.099917 Z M186.897405,258.099917 L186.897405,249.199835 L258.094773,249.199835 L258.094773,258.099917 L186.897405,258.099917 Z" id="Shape" fill="#4431F4" fill-rule="nonzero"></path>
            <path d="M160.199156,240.299752 L106.802658,240.299752 L106.802658,146.847864 C106.802658,141.932346 110.786924,137.947782 115.702074,137.947782 L151.29974,137.947782 C156.21489,137.947782 160.199156,141.932346 160.199156,146.847864 L160.199156,240.299752 Z" id="Path" fill="#DDD9FF"></path>
            <path d="M244.74463,211.374993 C244.754815,211.821117 244.720187,212.269278 244.642783,212.709292 C244.638709,212.786702 244.638709,212.866148 244.642783,212.945595 C244.642783,213.025042 244.575564,213.088192 244.567416,213.167639 C244.563342,213.389683 244.579638,213.611726 244.616302,213.829696 C244.573527,214.414343 244.701854,214.996953 244.98499,215.508265 C245.082763,215.762902 245.207017,216.007354 245.353677,216.237546 C245.526817,216.469775 245.722364,216.681634 245.938281,216.875158 C246.127716,217.074793 246.337522,217.256095 246.559549,217.417026 C246.816204,217.569808 247.087118,217.694071 247.370253,217.791852 C247.559689,217.895744 247.75931,217.987414 247.963004,218.062786 C248.068926,218.08112 248.174847,218.093343 248.282805,218.097417 C248.331692,218.097417 248.36632,218.138159 248.415207,218.142233 C253.953662,218.869477 258.094773,223.589434 258.094773,229.175158 C258.056071,235.30275 253.098145,240.261047 246.968975,240.299752 L198.021167,240.299752 C191.877738,240.299752 186.897405,235.319046 186.897405,229.175158 C186.889258,226.207106 188.084945,223.363316 190.213553,221.293624 C191.578307,219.902286 193.299526,218.914293 195.187775,218.435575 L195.218329,218.435575 C195.646088,218.323535 196.053477,218.148344 196.428275,217.916115 C196.49142,217.875373 196.521975,217.808149 196.581046,217.769444 C196.827516,217.579994 197.055654,217.364061 197.257312,217.127758 C197.450822,216.944419 197.625999,216.744783 197.782844,216.526814 C197.923393,216.280325 198.039499,216.021614 198.129125,215.752717 C198.24523,215.496042 198.336893,215.229182 198.404113,214.956211 C198.448925,214.381749 198.43874,213.803214 198.377632,213.228752 L198.377632,213.020968 C198.296155,212.807072 198.196344,212.603362 198.080238,212.405764 C198.017093,212.191869 197.937652,211.982048 197.843952,211.778338 C196.497531,209.66383 195.786637,207.207089 195.796822,204.699421 C195.780526,198.282561 200.341248,192.766099 206.645595,191.576433 C212.951979,190.386768 219.20744,193.862058 221.529558,199.842978 C222.183418,201.378951 222.513403,203.031038 222.495071,204.699421 C222.495071,207.044121 221.871765,209.34808 220.690337,211.374993 C219.881669,212.75207 219.873522,214.457122 220.669968,215.840312 C221.464376,217.225539 222.941162,218.079083 224.538127,218.075009 C226.135093,218.070934 227.607805,217.213316 228.396103,215.824015 C230.353608,212.442432 231.38634,208.606576 231.394487,204.699421 C231.390413,203.32438 231.255975,201.953412 230.995246,200.604853 C231.8528,200.380772 232.734797,200.260584 233.620869,200.248361 C239.764298,200.248361 244.74463,205.229066 244.74463,211.374993 L244.74463,211.374993 Z" id="Path" fill="#DDD9FF"></path>
            <path d="M66.8472663,211.03079 C66.8574514,211.476914 66.822823,211.925075 66.7454193,212.365089 C66.7413451,212.442499 66.7413451,212.521945 66.7454193,212.601392 C66.7454193,212.680839 66.6782002,212.743989 66.6700519,212.823436 C66.6659783,213.04548 66.6822738,213.267523 66.7189386,213.485493 C66.6761629,214.07014 66.8044906,214.65275 67.0876262,215.164062 C67.1853996,215.418699 67.3096531,215.663151 67.4563132,215.893343 C67.6294535,216.125572 67.8250003,216.337431 68.0409168,216.530955 C68.2303527,216.73059 68.4401582,216.911892 68.6621852,217.072823 C68.9188401,217.225606 69.1897543,217.349868 69.4728894,217.447649 C69.6623257,217.551541 69.8619461,217.643211 70.0656407,217.718583 C70.1715619,217.736917 70.2774831,217.74914 70.3854411,217.753214 C70.4343278,217.753214 70.4689563,217.793956 70.517843,217.79803 C76.0562983,218.525274 80.1974096,223.245231 80.1974096,228.830955 C80.1587075,234.958547 75.2007816,239.916844 69.0716112,239.955549 L20.123803,239.955549 C13.9803743,239.955549 9.00004136,234.974843 9.00004136,228.830955 C8.9918941,225.862903 10.1875809,223.019113 12.3161897,220.949421 C13.6809432,219.558083 15.4021623,218.57009 17.2904112,218.091372 L17.3209655,218.091372 C17.7487239,217.979332 18.156113,217.804141 18.5309111,217.571912 C18.5940565,217.53117 18.6246108,217.463946 18.6836821,217.425241 C18.9301524,217.235791 19.1582904,217.019858 19.3599482,216.783555 C19.5534581,216.600216 19.7286352,216.40058 19.8854799,216.182611 C20.0260296,215.936122 20.1421354,215.677411 20.231761,215.408514 C20.3478668,215.151839 20.4395292,214.884979 20.5067488,214.612008 C20.5515613,214.037546 20.5413767,213.459011 20.4802686,212.884549 L20.4802686,212.676765 C20.3987908,212.462869 20.2989801,212.259159 20.1828743,212.061561 C20.1197288,211.847666 20.0402883,211.637845 19.9465886,211.434135 C18.6001675,209.319627 17.8892735,206.862886 17.8994581,204.355218 C17.8831625,197.938358 22.4438839,192.421896 28.7482314,191.23223 C35.0546157,190.042565 41.3100765,193.517855 43.6321947,199.498775 C44.2860542,201.034748 44.6160397,202.686835 44.5977073,204.355218 C44.5977073,206.699918 43.9744016,209.003877 42.7929731,211.03079 C41.9843057,212.407867 41.9761579,214.112919 42.7726039,215.496109 C43.5670125,216.881336 45.0437981,217.73488 46.6407636,217.730806 C48.2377291,217.726731 49.7104411,216.869113 50.4987393,215.479812 C52.4562441,212.098229 53.4889758,208.262373 53.4971236,204.355218 C53.4930494,202.980177 53.3586112,201.609209 53.0978822,200.26065 C53.9554362,200.036569 54.8374337,199.916381 55.7235052,199.904158 C61.8669339,199.904158 66.8472663,204.884863 66.8472663,211.03079 L66.8472663,211.03079 Z" id="Path" fill="#DDD9FF" transform="translate(44.598705, 215.477774) scale(-1, 1) translate(-44.598705, -215.477774) "></path>
            <path d="M15.7246989,89.6807737 C13.6571988,90.9580345 10.9500979,90.3448675 9.63830478,88.2996207 C8.32651166,86.2564109 8.8968565,83.536885 10.9175068,82.1924001 L131.133976,9.57391786 C131.840796,9.12779319 132.661686,8.89148978 133.500907,8.89352675 C134.37272,8.89556372 135.2262,9.14612695 135.961538,9.61465983 L256.033384,82.1516581 C257.371657,83.0092764 258.151808,84.5167292 258.07644,86.1056659 C258.003111,87.6946026 257.086485,89.1226084 255.674882,89.8539269 C254.261241,90.5832084 252.566502,90.5037614 251.228229,89.6461426 L135.804693,19.806263 C134.389016,18.9466073 132.612799,18.9466073 131.195085,19.806263 L15.7246989,89.6807737 Z" id="Path" fill="#DDD9FF"></path>
            <path d="M152,195.50103 C152,197.985352 149.985351,200 147.49897,200 C145.014649,200 143,197.985352 143,195.50103 C143,193.014648 145.014649,191 147.49897,191 C149.985351,191 152,193.014648 152,195.50103 Z" id="Shape" fill="#4431F4" fill-rule="nonzero"></path>
            <path d="M115.833333,120 L151.166667,120 C156.045319,120 160,116.024747 160,111.125254 L160,75.6242379 C160,60.9196631 148.135958,49 133.5,49 C118.864042,49 107,60.9196631 107,75.6242379 L107,111.125254 C107,116.024747 110.954681,120 115.833333,120 Z M115.833333,93.3737304 L129.082323,93.3737304 L129.082323,111.125254 L115.833333,111.125254 L115.833333,93.3737304 Z M137.915656,111.125254 L137.915656,93.3737304 L151.166667,93.3737304 L151.166667,111.125254 L137.915656,111.125254 Z M151.166667,75.6242379 L151.166667,84.4989839 L137.915656,84.4989839 L137.915656,58.5044485 C145.693599,60.5215289 151.136339,67.5559176 151.166667,75.6242379 Z M129.082323,58.5044485 L129.082323,84.4989839 L115.833333,84.4989839 L115.833333,75.6242379 C115.863661,67.5559176 121.306401,60.5215289 129.082323,58.5044485 Z" id="Shape" fill="#4431F4" fill-rule="nonzero"></path>
            <polygon id="Path" fill="#DDD9FF" points="115.833333 93.3737304 129.082323 93.3737304 129.082323 111.125254 115.833333 111.125254"></polygon>
            <polygon id="Path" fill="#DDD9FF" points="137.915656 111.125254 137.915656 93.3737304 151.166667 93.3737304 151.166667 111.125254"></polygon>
            <path d="M151.166667,75.6242379 L151.166667,84.4989839 L137.915656,84.4989839 L137.915656,58.5044485 C145.693599,60.5215289 151.136339,67.5559176 151.166667,75.6242379 Z" id="Path" fill="#DDD9FF"></path>
            <path d="M129.082323,58.5044485 L129.082323,84.4989839 L115.833333,84.4989839 L115.833333,75.6242379 C115.863661,67.5559176 121.306401,60.5215289 129.082323,58.5044485 Z" id="Path" fill="#DDD9FF"></path>
        </g>
    </g>
</svg>