<?xml version="1.0" encoding="utf-8"?>
<!-- Generator: Adobe Illustrator 23.1.1, SVG Export Plug-In . SVG Version: 6.00 Build 0)  -->
<svg version="1.1" id="Layer_1" xmlns="http://www.w3.org/2000/svg" xmlns:xlink="http://www.w3.org/1999/xlink" x="0px" y="0px"
	 width="77px" height="85px" viewBox="0 0 77 85" style="enable-background:new 0 0 77 85;" xml:space="preserve">
<style type="text/css">
	.st0{fill-rule:evenodd;clip-rule:evenodd;fill:#D0D0D0;}
	.st1{fill-rule:evenodd;clip-rule:evenodd;fill:#DBDADA;}
	.st2{fill-rule:evenodd;clip-rule:evenodd;fill:#1600FF;}
	.st3{fill-rule:evenodd;clip-rule:evenodd;}
	.st4{fill-rule:evenodd;clip-rule:evenodd;fill:#FFFFFF;}
	.st5{fill-rule:evenodd;clip-rule:evenodd;fill:#484848;}
	.st6{fill:none;stroke:#DAE0FF;stroke-width:1.6327;stroke-linejoin:round;}
	.st7{fill:none;stroke:#DAE0FF;stroke-width:1.6327;stroke-linecap:round;}
	.st8{fill:none;stroke:#0A2799;stroke-width:3.63;stroke-linecap:round;}
</style>
<title>Group 17</title>
<desc>Created with Sketch.</desc>
<g id="Cherapp_1_">
	<g id="desktop_property-logged-out_modal_1_" transform="translate(-447.000000, -401.000000)">
		<g id="Padding-Group-16_1_" transform="translate(42.000000, 357.000000)">
			<g id="Group-28" transform="translate(409.000000, 28.000000)">
				<g id="Group-5">
					<path id="Combined-Shape_1_" class="st0" d="M40.9,56.3c2.2,0,4,1.7,4,3.8l0-0.2c2.2,0.3,4.1,1.4,5.5,3c0.2,0,0.3,0,0.5,0
						c2.3,0,4.2,1.6,4.4,3.8c1.9,1.1,3.3,3.1,3.3,5.5c0,3.5-2.8,6.3-6.2,6.3c-1.9,0-3.7-0.9-4.8-2.3c-1.1,0.5-2.3,0.8-3.6,0.8
						c-2.3,0-4.3-0.9-5.8-2.4c-0.8,0.2-1.7,0.4-2.6,0.4c-1.7,0-3.2-0.4-4.6-1.1c-0.4,0.1-0.9,0.1-1.4,0.1c-3.8,0-7-3.1-7-7
						c0-3.7,2.8-6.7,6.4-7c1.7-1.6,4-2.5,6.5-2.5c0.8,0,1.7,0.1,2.4,0.3C38.6,56.8,39.7,56.3,40.9,56.3z"/>
					<g id="Group-16_1_" transform="translate(17.652174, 16.615385)">
						<rect id="Rectangle_1_" x="21.3" y="18.4" class="st1" width="3.7" height="6.8"/>
						<polygon id="Path_1_" class="st2" points="13.1,12.9 29.8,26.9 28.6,28.2 13.1,15.2 -2.6,28.3 -3.7,26.9 						"/>
						<g id="Rectangle-Copy-11_1_">
							<g>
								<polygon id="path-1" class="st1" points="-0.6,27.3 13.4,15.4 27.4,27.3 27.4,53.5 -0.6,53.5 								"/>
							</g>
							<g>
								<polygon class="st3" points="-0.6,27.3 13.4,15.4 27.4,27.3 27.4,53.5 -0.6,53.5 								"/>
							</g>
						</g>
						<rect x="-2.5" y="36.9" class="st4" width="31.7" height="1.8"/>
						<path class="st4" d="M25.7,51.7H25v-3.9h-0.9v3.9h-0.6v-3.9h-0.8v3.9h-0.6v-3.9h-0.9v3.9h-0.6v-3.9h-0.8v3.9h-0.6v-3.9h-0.8
							v3.9h-0.9V38.1h0.9v9h8v-9h0.9v13.5h-0.9v-3.9h-0.8V51.7z M0.3,38.1v9h8v-9h0.9v13.5H8.3v-3.9H7.6v3.9H6.9v-3.9H6v3.9H5.4
							v-3.9H4.6v3.9H4v-3.9H3.1v3.9H2.4v-3.9H1.7v3.9H1.1v-3.9H0.3v3.9h-0.9V38.1H0.3z"/>
						<g id="Rectangle-Copy-16_1_">
							<g>
								<rect id="path-3" x="10.3" y="40" class="st3" width="6.1" height="11.7"/>
							</g>
							<g>
								<rect x="10.3" y="40" class="st4" width="6.1" height="11.7"/>
							</g>
						</g>
						<rect id="Rectangle-Copy-17_1_" x="10.9" y="40.6" class="st5" width="4.9" height="11.1"/>
						<polygon id="Rectangle-Copy-12_1_" class="st2" points="-3.7,36.9 30.4,36.9 27.4,33.8 -0.7,33.8 						"/>
						<g>
							<g>
								<rect id="path-5" x="15.2" y="24.6" class="st3" width="6.1" height="6.2"/>
							</g>
							<g>
								<rect x="15.2" y="24.6" class="st4" width="6.1" height="6.2"/>
							</g>
						</g>
						<g id="Rectangle-Copy-21_1_">
							<g>
								<rect id="path-7" x="19.4" y="40" class="st3" width="6.1" height="6.2"/>
							</g>
							<g>
								<rect x="19.4" y="40" class="st4" width="6.1" height="6.2"/>
							</g>
						</g>
						<rect id="Rectangle-Copy-19_1_" x="16.4" y="25.8" class="st5" width="4.3" height="4.3"/>
						<rect id="Rectangle-Copy-22_1_" x="20.7" y="41.2" class="st5" width="4.3" height="4.3"/>
						<g id="Rectangle-Copy-24_1_">
							<g>
								<rect id="path-9" x="1.2" y="40" class="st3" width="6.1" height="6.2"/>
							</g>
							<g>
								<rect x="1.2" y="40" class="st4" width="6.1" height="6.2"/>
							</g>
						</g>
						<rect id="Rectangle-Copy-23_1_" x="1.8" y="41.2" class="st5" width="4.3" height="4.3"/>
						<g id="Rectangle-Copy-18_1_">
							<g>
								<rect id="path-11" x="4.8" y="24.6" class="st3" width="6.1" height="6.2"/>
							</g>
							<g>
								<rect x="4.8" y="24.6" class="st4" width="6.1" height="6.2"/>
							</g>
						</g>
						<rect id="Rectangle-Copy-20_1_" x="5.4" y="25.8" class="st5" width="4.3" height="4.3"/>
						<rect x="-0.6" y="51.7" class="st5" width="28" height="1.2"/>
					</g>
					<g>
						<g>
							<path id="path-13" class="st3" d="M-3.7,84.5V70h9.9c2.1,0,4.2-0.8,5.7-2.3l0,0l0.8-0.8c2.1-2,4.9-3.2,7.8-3.2l0,0h2.1
								c2.4,0,4.8,0.7,6.8,2s4.4,2,6.8,2l0,0h4c1.6,0,3,1.3,3,3c0,1.6-1.3,3-3,3l0,0h-1c-1.6,0-3.2,0.2-4.7,0.6l0.2,0l9.7,0
								l17.3-5.8c1.2-0.4,2.4,0,3.1,1.1c0.8,1.2,0.5,2.9-0.8,3.7l0,0l-10.3,6.8c-4.7,3.1-10.1,4.7-15.7,4.7l0,0H-3.7z"/>
						</g>
						<g>
							<path class="st4" d="M-3.7,84.5V70h9.9c2.1,0,4.2-0.8,5.7-2.3l0,0l0.8-0.8c2.1-2,4.9-3.2,7.8-3.2l0,0h2.1
								c2.4,0,4.8,0.7,6.8,2s4.4,2,6.8,2l0,0h4c1.6,0,3,1.3,3,3c0,1.6-1.3,3-3,3l0,0h-1c-1.6,0-3.2,0.2-4.7,0.6l0.2,0l9.7,0
								l17.3-5.8c1.2-0.4,2.4,0,3.1,1.1c0.8,1.2,0.5,2.9-0.8,3.7l0,0l-10.3,6.8c-4.7,3.1-10.1,4.7-15.7,4.7l0,0H-3.7z"/>
						</g>
					</g>
					<path class="st6" d="M-3.7,70H7.5c1.2,0,2.4-0.5,3.3-1.3l0.1-0.1l1.8-1.8c2-2,4.7-3.1,7.5-3.2l0.2,0h2.2c2.3,0,4.6,0.6,6.6,1.8
						l0.2,0.1l0.8,0.5c1.4,0.9,3.1,1.4,4.7,1.4l0.2,0h5c1.6,0,2.9,1.3,2.9,2.9l0,0.1v1c0,1.1-0.8,2-1.9,2l-0.1,0h-2.9
						c-0.8,0-1.7,0.1-2.5,0.3l-0.3,0.1L34.8,74h9.7l17.9-6c1.1-0.4,2.3,0.1,3,1.1c0.8,1.2,0.5,2.7-0.7,3.5l-0.1,0.1l-13.6,9
						c-2.7,1.8-5.9,2.8-9.2,2.8H-3.7"/>
					<path id="Path-9" class="st7" d="M41.6,73.8h-2.3c-3.5,0-6.8,1.2-9.5,3.5l0,0l0,0"/>
				</g>
				<g id="Group-27" transform="translate(53.000000, 24.000000)">
					<line id="Line" class="st8" x1="-3.1" y1="43.7" x2="-3.1" y2="13.1"/>
					<path class="st2" d="M-3.4,14.2c0.8,0.8,2.6,1.3,5.4,1.3c4.3,0,6.9-2.5,11.8-2.5c3.2,0,5.3,0.4,6.2,1.3V29
						c-1-0.8-3.1-1.3-6.3-1.3c-4.8,0-7,2.5-11.4,2.5c-2.9,0-4.9-0.4-5.8-1.3V14.2z"/>
				</g>
			</g>
		</g>
	</g>
</g>
</svg>
