<?xml version="1.0"?>
<svg xmlns="http://www.w3.org/2000/svg" xmlns:xlink="http://www.w3.org/1999/xlink" version="1.1" id="Capa_1" x="0px" y="0px" viewBox="0 0 512 512" style="enable-background:new 0 0 512 512;" xml:space="preserve" width="512px" height="512px" class=""><g><g>
	<g>
		<path d="M448.376,120.235h-57.335c-3.522-18.241-19.599-32.063-38.853-32.063c-9.268,0-17.796,3.211-24.548,8.568v-9.069    c0-21.823-17.755-39.577-39.577-39.577c-9.268,0-17.796,3.211-24.548,8.568V39.577C263.515,17.755,245.76,0,223.937,0    S184.36,17.755,184.36,39.577v17.084c-6.752-5.356-15.28-8.568-24.548-8.568c-21.823,0-39.577,17.755-39.577,39.577v32.564H63.624    c-4.151,0-7.515,3.365-7.515,7.515v240.47c0,4.15,3.364,7.515,7.515,7.515h56.611v128.751c0,4.15,3.364,7.515,7.515,7.515    s7.515-3.365,7.515-7.515V280.047c0-13.535,11.012-24.548,24.548-24.548s24.548,11.013,24.548,24.548v88.172    c0,4.15,3.364,7.515,7.515,7.515h112.553h0.668c40.055,0,72.642,32.587,72.642,72.642v56.11c0,4.15,3.364,7.515,7.515,7.515    s7.515-3.365,7.515-7.515l-0.668-128.751h56.277c4.151,0,7.515-3.365,7.515-7.515V127.75    C455.89,123.599,452.527,120.235,448.376,120.235z M352.188,103.202c10.915,0,20.185,7.163,23.367,17.033H328.82    C332.002,110.365,341.273,103.202,352.188,103.202z M263.515,87.671c0-13.535,11.012-24.548,24.548-24.548    s24.548,11.013,24.548,24.548v32.564h-49.096V87.671z M199.389,87.671V39.577c0-13.535,11.012-24.548,24.548-24.548    s24.548,11.013,24.548,24.548v48.094v32.564h-49.096V87.671z M135.264,87.671c0-13.535,11.012-24.548,24.548-24.548    s24.548,11.013,24.548,24.548v32.564h-49.096V87.671z M377.069,398.376c-6.188-8.88-13.971-16.57-22.938-22.642h22.938V398.376z     M440.861,360.704H199.389v-17.033h24.548c4.151,0,7.515-3.365,7.515-7.515V227.612c0-4.15-3.364-7.515-7.515-7.515    s-7.515,3.365-7.515,7.515v101.03h-17.033v-48.595c0-21.823-17.755-39.577-39.577-39.577s-39.577,17.755-39.577,39.577v48.595    h-17.033V167.327h113.221v24.882c0,4.15,3.364,7.515,7.515,7.515s7.515-3.365,7.515-7.515v-32.396c0-4.15-3.364-7.515-7.515-7.515    H95.687c-4.151,0-7.515,3.365-7.515,7.515v176.344c0,4.15,3.364,7.515,7.515,7.515h24.548v17.033H71.139v-225.44h369.722V360.704z    " data-original="#000000" class="active-path" data-old_color="#000000" fill="#F98685"/>
	</g>
</g><g>
	<g>
		<path d="M416.313,160.313H264.016c-4.151,0-7.515,3.365-7.515,7.515c0,4.15,3.364,7.515,7.515,7.515h152.297    c4.151,0,7.515-3.365,7.515-7.515C423.828,163.678,420.464,160.313,416.313,160.313z" data-original="#000000" class="active-path" data-old_color="#000000" fill="#F98685"/>
	</g>
</g><g>
	<g>
		<path d="M320.125,192.376h-56.11c-4.151,0-7.515,3.365-7.515,7.515c0,4.15,3.364,7.515,7.515,7.515h56.11    c4.151,0,7.515-3.365,7.515-7.515C327.64,195.74,324.276,192.376,320.125,192.376z" data-original="#000000" class="active-path" data-old_color="#000000" fill="#F98685"/>
	</g>
</g><g>
	<g>
		<path d="M416.313,192.376h-64.125c-4.151,0-7.515,3.365-7.515,7.515c0,4.15,3.364,7.515,7.515,7.515h64.125    c4.151,0,7.515-3.365,7.515-7.515C423.828,195.74,420.464,192.376,416.313,192.376z" data-original="#000000" class="active-path" data-old_color="#000000" fill="#F98685"/>
	</g>
</g><g>
	<g>
		<path d="M272.031,224.438h-8.016c-4.151,0-7.515,3.365-7.515,7.515c0,4.15,3.364,7.515,7.515,7.515h8.016    c4.151,0,7.515-3.365,7.515-7.515C279.546,227.803,276.182,224.438,272.031,224.438z" data-original="#000000" class="active-path" data-old_color="#000000" fill="#F98685"/>
	</g>
</g><g>
	<g>
		<path d="M304.094,224.438h-8.016c-4.151,0-7.515,3.365-7.515,7.515c0,4.15,3.364,7.515,7.515,7.515h8.016    c4.151,0,7.515-3.365,7.515-7.515C311.609,227.803,308.245,224.438,304.094,224.438z" data-original="#000000" class="active-path" data-old_color="#000000" fill="#F98685"/>
	</g>
</g><g>
	<g>
		<path d="M336.157,224.438h-8.016c-4.151,0-7.515,3.365-7.515,7.515c0,4.15,3.364,7.515,7.515,7.515h8.016    c4.151,0,7.515-3.365,7.515-7.515C343.671,227.803,340.308,224.438,336.157,224.438z" data-original="#000000" class="active-path" data-old_color="#000000" fill="#F98685"/>
	</g>
</g><g>
	<g>
		<path d="M368.219,224.438h-8.016c-4.151,0-7.515,3.365-7.515,7.515c0,4.15,3.364,7.515,7.515,7.515h8.016    c4.151,0,7.515-3.365,7.515-7.515C375.734,227.803,372.37,224.438,368.219,224.438z" data-original="#000000" class="active-path" data-old_color="#000000" fill="#F98685"/>
	</g>
</g><g>
	<g>
		<path d="M400.282,224.438h-8.016c-4.151,0-7.515,3.365-7.515,7.515c0,4.15,3.364,7.515,7.515,7.515h8.016    c4.151,0,7.515-3.365,7.515-7.515C407.796,227.803,404.433,224.438,400.282,224.438z" data-original="#000000" class="active-path" data-old_color="#000000" fill="#F98685"/>
	</g>
</g><g>
	<g>
		<path d="M424.329,224.438h-8.016c-4.151,0-7.515,3.365-7.515,7.515c0,4.15,3.364,7.515,7.515,7.515h8.016    c4.151,0,7.515-3.365,7.515-7.515C431.843,227.803,428.48,224.438,424.329,224.438z" data-original="#000000" class="active-path" data-old_color="#000000" fill="#F98685"/>
	</g>
</g><g>
	<g>
		<path d="M367.679,271.266c-0.369-3.812-3.72-6.749-7.523-6.749h-96.141c-4.09,0-7.515,3.43-7.515,7.515v64.125    c0,4.15,3.364,7.515,7.515,7.515h96.188c4.151,0,7.515-3.365,7.515-7.515v-64.125    C367.718,271.777,367.705,271.518,367.679,271.266z M339.447,279.546l-27.337,22.781l-27.337-22.781H339.447z M352.689,328.642    H271.53v-40.566l35.768,29.807c2.753,2.294,6.868,2.294,9.623,0l35.768-29.807V328.642z" data-original="#000000" class="active-path" data-old_color="#000000" fill="#F98685"/>
	</g>
</g><g>
	<g>
		<path d="M416.313,264.517h-24.047c-4.151,0-7.515,3.365-7.515,7.515s3.364,7.515,7.515,7.515h24.047    c4.151,0,7.515-3.365,7.515-7.515S420.464,264.517,416.313,264.517z" data-original="#000000" class="active-path" data-old_color="#000000" fill="#F98685"/>
	</g>
</g><g>
	<g>
		<path d="M416.313,296.579h-24.047c-4.151,0-7.515,3.365-7.515,7.515s3.364,7.515,7.515,7.515h24.047    c4.151,0,7.515-3.365,7.515-7.515S420.464,296.579,416.313,296.579z" data-original="#000000" class="active-path" data-old_color="#000000" fill="#F98685"/>
	</g>
</g><g>
	<g>
		<path d="M416.313,328.642h-24.047c-4.151,0-7.515,3.365-7.515,7.515s3.364,7.515,7.515,7.515h24.047    c4.151,0,7.515-3.365,7.515-7.515S420.464,328.642,416.313,328.642z" data-original="#000000" class="active-path" data-old_color="#000000" fill="#F98685"/>
	</g>
</g></g> </svg>
