<svg width="14" height="15" viewBox="0 0 14 15" fill="none" xmlns="http://www.w3.org/2000/svg">
<path d="M9.19226 2.28754C7.8488 2.28754 6.64095 1.41254 4.76495 1.41254C3.90906 1.41254 3.17073 1.58978 2.55773 1.82729C2.61849 1.64493 2.63848 1.45146 2.6163 1.26053C2.5448 0.635292 2.028 0.143624 1.40003 0.102882C0.635523 0.0532802 0 0.658698 0 1.41254C0 1.89827 0.264059 2.32205 0.65625 2.549V13.6625C0.65625 13.9042 0.852113 14.1 1.09375 14.1H1.53125C1.77289 14.1 1.96875 13.9042 1.96875 13.6625V11.3809C3.00423 10.9085 3.91724 10.6 5.46399 10.6C6.80745 10.6 8.0153 11.475 9.8913 11.475C11.4903 11.475 12.6796 10.8566 13.4063 10.3818C13.777 10.1396 14 9.72643 14 9.28357V2.72332C14 1.78108 13.0358 1.14372 12.1706 1.51699C11.1889 1.94052 10.1621 2.28754 9.19226 2.28754ZM12.6875 9.28754C12.0919 9.70896 11.0243 10.1625 9.8913 10.1625C8.25218 10.1625 7.10218 9.28754 5.46399 9.28754C4.27834 9.28754 2.82863 9.54465 1.96875 9.94379V3.60004C2.56441 3.17862 3.63191 2.72504 4.76495 2.72504C6.40407 2.72504 7.55407 3.60004 9.19226 3.60004C10.3754 3.60004 11.826 3.12519 12.6875 2.72504V9.28754Z" fill="#9CAFC8"/>
</svg>
