<?xml version="1.0" encoding="UTF-8"?>
<svg width="30px" height="30px" viewBox="0 0 30 30" version="1.1" xmlns="http://www.w3.org/2000/svg" xmlns:xlink="http://www.w3.org/1999/xlink">
    <!-- Generator: Sketch 64 (93537) - https://sketch.com -->
    <title>noun_Blueprint_2006582</title>
    <desc>Created with Sketch.</desc>
    <g id="Cherapp" stroke="none" stroke-width="1" fill="none" fill-rule="evenodd">
        <g id="desktop_property" transform="translate(-986.000000, -736.000000)" fill="#1600FF" fill-rule="nonzero">
            <g id="Stacked-Group" transform="translate(866.000000, 581.000000)">
                <g id="Stacked-Group-3" transform="translate(0.000000, 125.000000)">
                    <g id="Stacked-Group" transform="translate(120.000000, 0.000000)">
                        <g id="noun_Blueprint_2006582" transform="translate(0.000000, 30.000000)">
                            <g id="Group">
                                <path d="M27.8288889,13.9333333 C27.1988889,13.3033333 26.1,13.3044444 25.4722222,13.9333333 L23.9016667,15.5038889 C23.9016667,15.5038889 23.9011111,15.5044444 23.9005556,15.5044444 C23.9,15.5044444 23.9,15.505 23.8994444,15.5055556 L17.615,21.79 C17.5677778,21.8372222 17.5338889,21.8938889 17.5061111,21.9538889 C17.4977778,21.9727778 17.4927778,21.9911111 17.4861111,22.0111111 C17.4788889,22.0322222 17.4677778,22.0516667 17.4633333,22.0738889 L16.6777778,26.0022222 C16.6416667,26.1844444 16.6983333,26.3727778 16.8294444,26.5038889 C16.9344444,26.6088889 17.0761111,26.6666667 17.2222222,26.6666667 C17.2583333,26.6666667 17.295,26.6627778 17.3311111,26.6555556 L21.2594444,25.87 C21.2816667,25.8655556 21.3011111,25.8544444 21.3222222,25.8472222 C21.3416667,25.8405556 21.36,25.8355556 21.3794444,25.8272222 C21.4394444,25.7994444 21.4961111,25.7655556 21.5433333,25.7183333 L29.4,17.8616667 C29.7144444,17.5472222 29.8883333,17.1283333 29.8883333,16.6827778 C29.8883333,16.2377778 29.715,15.8188889 29.4,15.5044444 L27.8288889,13.9333333 Z M21.1505556,24.54 L18.7933333,22.1827778 L24.2933333,16.6838889 L26.65,19.0405556 L21.1505556,24.54 Z M18.3488889,23.3094444 L20.0238889,24.9844444 L17.93,25.4033333 L18.3488889,23.3094444 Z M28.6144444,17.0755556 L27.4361111,18.2544444 L25.0794444,15.8977778 L26.2583333,14.7183333 C26.4672222,14.5088889 26.8322222,14.5083333 27.0433333,14.7183333 L28.6144444,16.2894444 C28.7188889,16.3944444 28.7772222,16.5338889 28.7772222,16.6822222 C28.7772222,16.8316667 28.7194444,16.9705556 28.6144444,17.0755556 Z" id="Shape"></path>
                                <path d="M24.6861111,18.6472222 C24.4688889,18.43 24.1177778,18.43 23.9005556,18.6472222 L20.7583333,21.7894444 C20.5411111,22.0066667 20.5411111,22.3577778 20.7583333,22.575 C20.8666667,22.6833333 21.0088889,22.7377778 21.1511111,22.7377778 C21.2933333,22.7377778 21.4355556,22.6833333 21.5438889,22.575 L24.6861111,19.4327778 C24.9027778,19.2161111 24.9027778,18.8644444 24.6861111,18.6472222 Z" id="Path"></path>
                                <path d="M29.6566667,0.0427777778 C29.5888889,0.0144444444 29.5166667,0 29.4444444,0 L0.555555556,0 C0.248888889,0 0,0.248888889 0,0.555555556 L0,29.4444444 C0,29.7516667 0.248888889,30 0.555555556,30 L29.4444444,30 C29.7516667,30 30,29.7516667 30,29.4444444 L30,22.7777778 C30,22.4705556 29.7516667,22.2222222 29.4444444,22.2222222 C29.1372222,22.2222222 28.8888889,22.4705556 28.8888889,22.7777778 L28.8888889,28.8888889 L10,28.8888889 L10,25 C10,24.6927778 9.75111111,24.4444444 9.44444444,24.4444444 L6.72277778,24.4444444 C6.98111111,23.1783333 8.10277778,22.2222222 9.44444444,22.2222222 C9.75111111,22.2222222 10,21.9738889 10,21.6666667 L10,13.8888889 C10,13.5822222 9.75111111,13.3333333 9.44444444,13.3333333 L6.72277778,13.3333333 C6.98111111,12.0672222 8.10277778,11.1111111 9.44444444,11.1111111 C9.75111111,11.1111111 10,10.8622222 10,10.5555556 L10,8.88888889 L28.8888889,8.88888889 L28.8888889,10.5555556 C28.8888889,10.8622222 29.1372222,11.1111111 29.4444444,11.1111111 C29.7516667,11.1111111 30,10.8622222 30,10.5555556 L30,0.555555556 C30,0.483333333 29.9855556,0.411111111 29.9572222,0.343333333 C29.9005556,0.207777778 29.7927778,0.0994444444 29.6566667,0.0427777778 Z M28.8888889,3.65888889 L24.77,7.77777778 L23.0077778,7.77777778 L28.8888889,1.89666667 L28.8888889,3.65888889 Z M19.6744444,7.77777778 L26.3411111,1.11111111 L28.1033333,1.11111111 L21.4366667,7.77777778 L19.6744444,7.77777778 Z M16.3411111,7.77777778 L23.0077778,1.11111111 L24.77,1.11111111 L18.1033333,7.77777778 L16.3411111,7.77777778 Z M13.0077778,7.77777778 L19.6744444,1.11111111 L21.4366667,1.11111111 L14.77,7.77777778 L13.0077778,7.77777778 Z M10,1.11111111 L11.4366667,1.11111111 L10,2.54777778 L10,1.11111111 Z M10,4.11888889 L13.0077778,1.11111111 L14.77,1.11111111 L10,5.88111111 L10,4.11888889 Z M5.55555556,25 C5.55555556,25.3072222 5.80444444,25.5555556 6.11111111,25.5555556 L8.88888889,25.5555556 L8.88888889,28.8888889 L1.11111111,28.8888889 L1.11111111,17.7777778 L8.88888889,17.7777778 L8.88888889,21.1555556 C7.00722222,21.4261111 5.55555556,23.0444444 5.55555556,25 Z M5.55555556,13.8888889 C5.55555556,14.1955556 5.80444444,14.4444444 6.11111111,14.4444444 L8.88888889,14.4444444 L8.88888889,16.6666667 L1.11111111,16.6666667 L1.11111111,1.11111111 L8.88888889,1.11111111 L8.88888889,10.0444444 C7.00722222,10.315 5.55555556,11.9333333 5.55555556,13.8888889 Z M10,7.45222222 L16.3411111,1.11111111 L18.1033333,1.11111111 L11.4366667,7.77777778 L10,7.77777778 L10,7.45222222 Z M26.3411111,7.77777778 L28.8888889,5.23 L28.8888889,7.77777778 L26.3411111,7.77777778 Z" id="Shape"></path>
                            </g>
                        </g>
                    </g>
                </g>
            </g>
        </g>
    </g>
</svg>