<svg width="15" height="16" viewBox="0 0 15 16" fill="none" xmlns="http://www.w3.org/2000/svg">
<path fill-rule="evenodd" clip-rule="evenodd" d="M9.75371 7.24206V2.5263C9.75371 1.12841 8.6253 0 7.22742 0C5.93058 0 4.87796 0.976835 4.7348 2.23156L9.75371 7.24206ZM12.3474 7.57899C12.0021 7.57899 11.6989 7.83162 11.6484 8.17688C11.6063 8.44635 11.5474 8.71583 11.4632 8.96004L12.5326 10.0295C12.7853 9.52424 12.9705 8.97688 13.0631 8.39583C13.1221 7.96636 12.7853 7.57899 12.3474 7.57899ZM0.246314 2.50121C-0.0821047 2.17279 -0.0821047 1.64227 0.246314 1.31385C0.403645 1.15616 0.617244 1.06755 0.839994 1.06755C1.06274 1.06755 1.27634 1.15616 1.43367 1.31385L14.3431 14.2317C14.6715 14.5601 14.6715 15.0906 14.3431 15.419C14.0146 15.7474 13.4841 15.7474 13.1557 15.419L10.2168 12.4801C9.55993 12.859 8.83573 13.1285 8.06942 13.238V15.158C8.06942 15.6211 7.69047 16.0001 7.22732 16.0001C6.76416 16.0001 6.38522 15.6211 6.38522 15.158V13.238C3.88418 12.859 1.77893 10.8885 1.39157 8.39591C1.33262 7.96644 1.66946 7.57907 2.10735 7.57907C2.45261 7.57907 2.75577 7.8317 2.8063 8.17696C3.11787 10.3833 5.08839 11.8738 7.22732 11.8738C7.90942 11.8738 8.57468 11.7138 9.17257 11.4359L7.77468 10.038C7.261 10.1475 6.70522 10.1391 6.07364 9.77695C5.20628 9.28011 4.70102 8.32854 4.70102 7.32644V6.96434L0.246314 2.50121Z" fill="#1600FF"/>
</svg>
