<svg width="18" height="18" viewBox="0 0 18 18" fill="none" xmlns="http://www.w3.org/2000/svg">
<path d="M17.9904 6.41483C17.9717 6.30388 17.9313 6.19777 17.8715 6.10267C17.8117 6.00756 17.7337 5.92536 17.6421 5.86084C17.6122 5.84044 11.6885 1.68191 9.59533 0.221779C9.38565 0.0754473 9.13607 -0.0020108 8.88086 3.96835e-05C8.62566 0.00209017 8.37734 0.0835487 8.17001 0.233231C6.1199 1.71484 0.287309 5.90485 0.253864 5.92847C0.171498 6.00811 0.106432 6.10404 0.0627691 6.21024C0.0191068 6.31643 -0.00220431 6.43056 0.000180128 6.54545V17.1887C-0.000401022 17.2959 0.0203009 17.4022 0.0610725 17.5012C0.101844 17.6003 0.161865 17.6902 0.237617 17.7656C0.313369 17.841 0.403329 17.9005 0.502222 17.9405C0.601116 17.9805 0.706954 18.0002 0.813534 17.9986H4.06446L3.98832 17.922C3.89756 17.8303 3.84661 17.7062 3.84661 17.5768C3.84661 17.4474 3.89756 17.3233 3.98832 17.2316L4.37436 16.8433L4.56008 16.6565L3.98832 16.0814C3.96751 16.0602 3.94858 16.0372 3.93175 16.0127C3.86751 15.9188 3.838 15.8052 3.84833 15.6916C3.85867 15.5781 3.90819 15.4717 3.98832 15.3911L4.39393 14.9831L4.56008 14.816L4.29644 14.5851C4.17191 14.476 3.99259 14.3665 3.92748 14.2094C3.83924 13.9946 3.88656 13.7005 3.88656 13.4721V13.45C3.09343 13.0926 2.41958 12.5128 1.94578 11.7799C1.47198 11.0471 1.21833 10.1924 1.21523 9.31828C1.1978 6.82388 3.20236 4.78578 5.68191 4.75965C6.96777 4.74498 8.17001 5.30827 9.00222 6.1661C8.89014 6.26738 8.77522 6.37296 8.67453 6.48247C7.9672 7.25262 7.54523 8.23606 7.54523 9.28535C7.54523 10.2137 7.87363 11.0905 8.4945 11.8513C8.55249 11.9229 8.61298 11.9913 8.67488 12.0585C8.777 12.1698 8.88303 12.304 8.9951 12.4082C8.5888 12.8349 8.10321 13.1773 7.56586 13.416C7.55644 13.4203 7.54844 13.4272 7.54283 13.436C7.53722 13.4447 7.53422 13.4549 7.5342 13.4653V17.946C7.53415 17.9531 7.53551 17.9601 7.53819 17.9667C7.54087 17.9733 7.54483 17.9792 7.54983 17.9843C7.55483 17.9893 7.56077 17.9933 7.56731 17.996C7.57385 17.9987 7.58085 18 7.58792 18H10.4464C10.4607 18 10.4743 17.9943 10.4844 17.9842C10.4945 17.974 10.5001 17.9603 10.5001 17.946V13.4639C10.5 13.4535 10.497 13.4433 10.4913 13.4345C10.4856 13.4258 10.4776 13.4188 10.4681 13.4145C9.92716 13.1749 9.43847 12.8304 9.02997 12.4007C9.14027 12.2976 9.24701 12.1663 9.34699 12.0571C9.4089 11.9898 9.46938 11.9208 9.52738 11.8499C10.1486 11.0891 10.4766 10.2123 10.4766 9.28392C10.4766 8.23463 10.0547 7.25118 9.34734 6.48104C9.24807 6.37367 9.13386 6.26917 9.02143 6.16897C9.854 5.31006 11.0612 4.74355 12.3492 4.75822C14.8288 4.78578 16.8323 6.82388 16.8159 9.31828C16.8128 10.1919 16.5594 11.046 16.0862 11.7785C15.6129 12.511 14.9398 13.0908 14.1474 13.4485V13.456C14.1474 13.6475 14.1645 13.8461 14.1264 14.0372C14.1096 14.1318 14.0732 14.2218 14.0197 14.3013C13.9549 14.3937 13.8606 14.4628 13.7788 14.5386C13.677 14.6324 13.5741 14.7251 13.47 14.8167L13.7279 15.0761L14.0417 15.3918C14.1216 15.472 14.1711 15.5778 14.1817 15.6908C14.1924 15.8038 14.1635 15.917 14.1001 16.0109C14.0829 16.0365 14.0633 16.0605 14.0417 16.0825L13.47 16.6576L13.724 16.9135L14.0417 17.2327C14.0457 17.2366 14.0489 17.2409 14.0528 17.2449C14.0697 17.2632 14.0853 17.2827 14.0994 17.3032C14.1541 17.3841 14.1833 17.4797 14.1833 17.5775C14.1833 17.6754 14.1541 17.7709 14.0994 17.8518C14.0822 17.8775 14.0626 17.9014 14.041 17.9234L13.9649 18H17.1923C17.4111 18 17.6157 17.9424 17.7687 17.7795C17.9183 17.6203 18.0011 17.4092 18 17.1901V6.54545C18.0001 6.50172 17.9967 6.45804 17.99 6.41483" fill="#FFE45C"/>
</svg>
