<svg width="18" height="24" viewBox="0 0 18 24" fill="none" xmlns="http://www.w3.org/2000/svg">
<path fill-rule="evenodd" clip-rule="evenodd" d="M18 21.8182V6.03838C18 5.30888 17.5703 4.62765 16.8549 4.223L9.71319 0.183218C9.28132 -0.0610726 8.71868 -0.0610726 8.28681 0.183218L1.14506 4.223C0.429688 4.62765 0 5.30888 0 6.03838V21.8182C0 23.0232 1.15127 24 2.57143 24H15.4286C16.8487 24 18 23.0232 18 21.8182ZM8.99972 3.63494C8.36854 3.63494 7.85686 3.14653 7.85686 2.54403C7.85686 1.94154 8.36854 1.45313 8.99972 1.45313C9.6309 1.45313 10.1426 1.94154 10.1426 2.54403C10.1426 3.14653 9.6309 3.63494 8.99972 3.63494Z" fill="#FE5F55"/>
<path d="M9.24 12.1444C7.424 11.6856 6.84 11.2111 6.84 10.4722C6.84 9.62444 7.648 9.03333 9 9.03333C10.136 9.03333 10.704 9.45333 10.912 10.1222C11.008 10.4333 11.272 10.6667 11.608 10.6667H11.848C12.376 10.6667 12.752 10.1611 12.568 9.67889C12.232 8.76111 11.448 7.99889 10.2 7.70333V7.16667C10.2 6.52111 9.664 6 9 6C8.336 6 7.8 6.52111 7.8 7.16667V7.68C6.248 8.00667 5 8.98667 5 10.4878C5 12.2844 6.528 13.1789 8.76 13.7C10.76 14.1667 11.16 14.8511 11.16 15.5744C11.16 16.1111 10.768 16.9667 9 16.9667C7.68 16.9667 7 16.5078 6.736 15.8544C6.616 15.5511 6.344 15.3333 6.016 15.3333H5.792C5.256 15.3333 4.88 15.8622 5.08 16.3444C5.536 17.4256 6.6 18.0633 7.8 18.3122V18.8333C7.8 19.4789 8.336 20 9 20C9.664 20 10.2 19.4789 10.2 18.8333V18.3278C11.76 18.04 13 17.1611 13 15.5667C13 13.3578 11.056 12.6033 9.24 12.1444Z" fill="white"/>
</svg>
