<svg width="80" height="64" viewBox="0 0 80 64" fill="none" xmlns="http://www.w3.org/2000/svg">
<path d="M64.3484 64C65.2109 64 65.9109 63.2948 65.9109 62.4258V57.7033H78.4375C79.3 57.7033 80 56.998 80 56.1291V45.5474C80 40.4549 76.5656 36.0724 71.65 34.8886L66.4375 33.634V31.5514C69.3313 29.7096 71.2578 26.4604 71.2578 22.7643V16.8973C71.2578 11.1688 66.6312 6.50767 60.9453 6.50767C57.8781 6.50767 55.1203 7.86619 53.2297 10.0134C51.5734 4.2377 46.2766 0 40.0156 0C33.7453 0 28.4406 4.25187 26.7937 10.0433C24.9031 7.87879 22.1344 6.50925 19.0547 6.50925C13.3687 6.50925 8.74219 11.1704 8.74219 16.8989V22.7658C8.74219 26.462 10.6688 29.7111 13.5625 31.5529V33.6356L8.35 34.8902C3.43437 36.0724 0 40.4549 0 45.5474V56.1291C0 56.998 0.7 57.7033 1.5625 57.7033H14.0562V62.4258C14.0562 63.2948 14.7562 64 15.6187 64H64.3484ZM25.7844 60.8516V53.9236C25.7844 53.0547 25.0844 52.3495 24.2219 52.3495C23.3594 52.3495 22.6594 53.0547 22.6594 53.9236V60.8516H17.1812V53.7489C17.1812 48.4109 20.7797 43.8127 25.9328 42.5691L33.6172 40.7131L38.5625 52.0472C38.8125 52.6187 39.3734 52.9886 39.9922 52.9886C40.6125 52.9886 41.1734 52.6202 41.4219 52.0472L46.3609 40.7304L54.0234 42.5754C59.1813 43.8174 62.7844 48.4156 62.7844 53.7568V55.5136C62.7047 55.7025 62.6594 55.9103 62.6594 56.1291C62.6594 56.3479 62.7031 56.5557 62.7844 56.7446V60.8516H57.3375V53.9236C57.3375 53.0547 56.6375 52.3495 55.775 52.3495C54.9125 52.3495 54.2125 53.0547 54.2125 53.9236V60.8516H25.7844ZM60.9453 9.65761C64.9078 9.65761 68.1328 12.9067 68.1328 16.8989V17.2893V17.4482H63.6641C60.2875 17.4482 56.9703 16.5557 54.0469 14.8619C54.9219 11.8567 57.6828 9.65761 60.9453 9.65761ZM53.7578 22.5077C53.7641 22.3471 53.7672 18.2747 53.7672 18.2747C56.8391 19.7969 60.225 20.595 63.6641 20.595H68.1328V22.7658C68.1328 26.758 64.9078 30.0071 60.9453 30.0071C56.9828 30.0071 53.7578 26.758 53.7578 22.7658V22.5077ZM29.3906 13.8528C29.3906 7.94963 34.1578 3.14837 40.0156 3.14837C45.875 3.14837 50.6406 7.9512 50.6406 13.8528V14.0575L44.8422 10.6257C44.1844 10.2353 43.3438 10.3833 42.8531 10.9721C40.6 13.6812 37.2953 15.2349 33.7875 15.2349H29.3906V13.8528ZM11.8672 17.2877V16.8973C11.8672 12.9036 15.0922 9.65604 19.0547 9.65604C22.3156 9.65604 25.0766 11.8552 25.9531 14.8603C23.0297 16.5525 19.7125 17.4467 16.3359 17.4467H11.8672V17.2877ZM11.8672 22.7658V20.595H16.3359C19.7781 20.595 23.1687 19.7954 26.2422 18.2715V22.7658C26.2422 26.758 23.0172 30.0071 19.0547 30.0071C15.0922 30.0071 11.8672 26.758 11.8672 22.7658ZM14.0562 53.7505V54.5565H9.375V47.5624C9.375 46.6934 8.675 45.9882 7.8125 45.9882C6.95 45.9882 6.25 46.6934 6.25 47.5624V54.5565H3.125V45.549C3.125 41.9205 5.57188 38.7957 9.07656 37.9536L14.0297 36.7619L17.2625 44.562C15.2391 47.0901 14.0562 50.2983 14.0562 53.7505ZM19.0562 40.7178L16.6828 34.9909C16.6859 34.9532 16.6875 34.9154 16.6875 34.8776V32.8752C17.4484 33.0563 18.2406 33.1539 19.0547 33.1539C19.8656 33.1539 20.6547 33.0563 21.4125 32.8768V34.7769C21.4109 34.8068 21.4094 34.8367 21.4094 34.865C21.4094 34.9154 21.4141 34.9642 21.4188 35.013L19.0562 40.7178ZM25.2063 39.5073C24.2844 39.7308 23.4016 40.0394 22.5641 40.4219L24.0859 36.7509L29.0391 37.9473C29.4234 38.0401 29.7969 38.1629 30.1594 38.3109L25.2063 39.5073ZM32.9609 36.2267C31.9797 35.6143 30.9031 35.1594 29.7672 34.8855L24.5375 33.623V31.5592C25.8375 30.7328 26.9438 29.623 27.7672 28.3148C28.9453 30.6336 30.7531 32.5746 32.9609 33.9111V36.2267ZM43.8953 38.5643L39.9938 47.5041L36.0859 38.547V35.3011C37.3312 35.6757 38.65 35.8788 40.0156 35.8788C41.3625 35.8788 42.6641 35.682 43.8953 35.3168V38.5643ZM40.0156 32.7288C34.1562 32.7288 29.3906 27.926 29.3906 22.0244V18.3833H33.7875C37.775 18.3833 41.5547 16.795 44.3484 13.985L50.6328 17.7048V22.3943C50.4375 28.1259 45.7516 32.7288 40.0156 32.7288ZM47.0203 33.9394C49.2422 32.6092 51.0641 30.6651 52.25 28.3416C53.0719 29.6371 54.1703 30.7375 55.4609 31.5577V33.6214L50.2313 34.8839C49.0875 35.1594 48.0062 35.6175 47.0203 36.2361V33.9394ZM54.7516 39.5136L49.8109 38.3235C50.1828 38.1692 50.5656 38.0417 50.9609 37.9473L55.9031 36.754L57.4313 40.4423C56.5812 40.0535 55.6875 39.7387 54.7516 39.5136ZM58.5766 35.0382C58.5828 34.9815 58.5875 34.9233 58.5875 34.8666C58.5875 34.8524 58.5875 34.8367 58.5875 34.8225V32.8784C59.3453 33.0578 60.1344 33.1554 60.9453 33.1554C61.7594 33.1554 62.5531 33.0563 63.3125 32.8752V34.8776C63.3125 34.9059 63.3141 34.9343 63.3156 34.9626L60.9297 40.7178L58.5766 35.0382ZM76.875 54.5549H73.75V47.5608C73.75 46.6919 73.05 45.9866 72.1875 45.9866C71.325 45.9866 70.625 46.6919 70.625 47.5608V54.5549H65.9109V53.7568C65.9109 50.3093 64.7312 47.1074 62.7156 44.5793L65.9578 36.7572L70.9219 37.952C74.425 38.7957 76.8734 41.9189 76.8734 45.5474V54.5549H76.875Z" fill="#1600FF"/>
</svg>
