<?xml version="1.0" encoding="utf-8"?>
<!-- Generator: Adobe Illustrator 23.1.1, SVG Export Plug-In . SVG Version: 6.00 Build 0)  -->
<svg version="1.1" id="Layer_1" xmlns="http://www.w3.org/2000/svg" xmlns:xlink="http://www.w3.org/1999/xlink" x="0px" y="0px"
	 viewBox="0 0 100 99.6" style="enable-background:new 0 0 100 99.6;" xml:space="preserve">
<style type="text/css">
	.st0{fill:#1600FF;}
</style>
<title>98all</title>
<path class="st0" d="M91.8,45.7l-4.2-5.5c-0.2-0.2-0.2-0.5-0.2-0.7l0.9-6.6c0.4-3.2-1.3-6.3-4.3-7.5l-6.3-2.5
	c-0.3-0.1-0.5-0.3-0.6-0.6L74.6,16c-1.2-3-4.3-4.8-7.5-4.3l-6.6,0.9c-0.3,0-0.5,0-0.8-0.2l-5.5-4.2c-2.5-1.9-6-1.9-8.5,0l-5.5,4.2
	c-0.2,0.2-0.5,0.2-0.8,0.2l-6.6-0.9c-3.2-0.4-6.3,1.3-7.5,4.3l-2.5,6.3c-0.1,0.3-0.3,0.5-0.6,0.6L16,25.4c-3,1.2-4.8,4.3-4.3,7.5
	l0.9,6.6c0,0.3,0,0.5-0.2,0.7l-4.2,5.5c-1.9,2.5-1.9,6,0,8.5l4.2,5.5c0.2,0.2,0.2,0.5,0.2,0.7l-0.9,6.6c-0.4,3.2,1.3,6.3,4.3,7.5
	l6.3,2.5c0.3,0.1,0.5,0.3,0.6,0.6l2.5,6.3c1.2,3,4.3,4.8,7.5,4.3l6.6-0.9c0.3,0,0.5,0,0.8,0.2l5.5,4.2c2.5,1.9,6,1.9,8.5,0l5.5-4.2
	c0.2-0.2,0.5-0.2,0.8-0.2l6.6,0.9c3.2,0.4,6.3-1.3,7.5-4.3l2.5-6.3c0.1-0.3,0.3-0.5,0.6-0.6l6.3-2.5c3-1.2,4.8-4.3,4.3-7.5l-0.9-6.6
	c0-0.3,0-0.5,0.2-0.7l4.2-5.5C93.7,51.7,93.7,48.3,91.8,45.7z M87,50.6l-4.2,5.5c-1.1,1.5-1.6,3.4-1.4,5.2l0.9,6.6
	c0.1,0.5-0.2,0.9-0.6,1.1l-6.3,2.5c-1.8,0.7-3.2,2.1-3.9,3.9L69,81.7c-0.2,0.4-0.6,0.7-1.1,0.6l-6.6-0.9c-1.9-0.3-3.7,0.2-5.2,1.4
	L50.6,87c-0.4,0.3-0.9,0.3-1.2,0l-5.5-4.2c-1.2-0.9-2.7-1.4-4.3-1.4c-0.3,0-0.6,0-0.9,0.1l-6.6,0.9c-0.5,0.1-0.9-0.2-1.1-0.6
	l-2.5-6.3c-0.7-1.8-2.1-3.2-3.9-3.9L18.3,69c-0.4-0.2-0.7-0.6-0.6-1.1l0.9-6.6c0.3-1.9-0.2-3.7-1.4-5.2L13,50.6
	c-0.3-0.4-0.3-0.9,0-1.2l4.2-5.5c1.1-1.5,1.6-3.4,1.4-5.2l-0.9-6.6c-0.1-0.5,0.2-0.9,0.6-1.1l6.3-2.5c1.8-0.7,3.2-2.1,3.9-3.9
	l2.5-6.3c0.2-0.4,0.6-0.7,1.1-0.6l6.6,0.9c1.9,0.3,3.7-0.2,5.2-1.4l5.5-4.2c0.4-0.3,0.9-0.3,1.2,0l5.5,4.2c1.5,1.1,3.4,1.6,5.2,1.4
	l6.6-0.9c0.5-0.1,0.9,0.2,1.1,0.6l2.5,6.3c0.7,1.8,2.1,3.2,3.9,3.9l6.3,2.5c0.4,0.2,0.7,0.6,0.6,1.1l-0.9,6.6
	c-0.3,1.9,0.2,3.7,1.4,5.2l4.2,5.5C87.3,49.7,87.3,50.3,87,50.6z"/>
<path class="st0" d="M62.6,37.2L45.8,56.7L37,49.6c-1.3-1-3.2-0.8-4.2,0.5c-1,1.3-0.8,3.1,0.4,4.1l11,9c1.3,1,3.1,0.9,4.2-0.4
	l18.7-21.7c1.1-1.3,0.9-3.2-0.4-4.2C65.4,35.9,63.6,36,62.6,37.2L62.6,37.2z"/>
</svg>
