<?xml version="1.0"?>
<svg xmlns="http://www.w3.org/2000/svg" xmlns:xlink="http://www.w3.org/1999/xlink" version="1.1" id="Capa_1" x="0px" y="0px" width="512px" height="512px" viewBox="0 0 440.9 440.9" style="enable-background:new 0 0 440.9 440.9;" xml:space="preserve" class=""><g><g>
	<g>
		<path d="M405.462,261.499h-26.899v112.602l-75.899-75.899c20.8-36.101,15.898-83.2-14.7-113.8c-18.399-18.4-42.8-27.5-66.7-27.5    c-23.9,0-48.3,9.2-66.7,27.5c-37.3,36.701-37.3,96.701,0,134c30.6,30.601,77.7,35.5,113.8,14.701l88.698,88.698    c-5.5,2.4-11,4.301-17.698,4.301h-236.8c-22,0-39.8-17.701-39.8-39.801V262.101h-26.3c-30.6,0-50.8-36.701-23.9-64.301    l159.1-162.2c13.5-14.1,31.2-20.8,49-20.8c17.7,0,35.5,6.7,49,20.8l36.1,36.7V40.5c0-14.1,11.602-25.1,25.7-25.1h21.4    c14.1,0,25.1,11,25.1,25.1V147l50.2,51.4C455.062,224.2,435.462,261.499,405.462,261.499z M187.663,218.7    c-17.7,17.7-17.7,46.5,0,64.299c17.7,17.801,46.5,17.701,64.3,0c17.7-17.699,17.7-47.101,0-64.299c-9.2-9.2-20.8-13.5-32.4-13.5    C208.462,205.2,196.763,209.5,187.663,218.7z" data-original="#000000" class="active-path" data-old_color="#000000" fill="#4431F4"/>
	</g>
</g></g> </svg>
