<svg width="20" height="20" viewBox="0 0 20 20" fill="none" xmlns="http://www.w3.org/2000/svg">
<path fill-rule="evenodd" clip-rule="evenodd" d="M12 4C12 4.28742 12.0303 4.56777 12.0879 4.83801L7.01694 7.3735C6.28363 6.53189 5.20393 6 4 6C1.79086 6 0 7.79086 0 10C0 12.2091 1.79086 14 4 14C5.20393 14 6.28363 13.4681 7.01694 12.6265L12.0879 15.162C12.0303 15.4322 12 15.7126 12 16C12 18.2091 13.7909 20 16 20C18.2091 20 20 18.2091 20 16C20 13.7909 18.2091 12 16 12C14.7961 12 13.7164 12.5319 12.9831 13.3735L7.91208 10.838C7.96968 10.5678 8 10.2874 8 10C8 9.71258 7.96968 9.43223 7.91208 9.16199L12.9831 6.6265C13.7164 7.46811 14.7961 8 16 8C18.2091 8 20 6.20914 20 4C20 1.79086 18.2091 0 16 0C13.7909 0 12 1.79086 12 4ZM6 10C6 11.1046 5.10457 12 4 12C2.89543 12 2 11.1046 2 10C2 8.89543 2.89543 8 4 8C5.10457 8 6 8.89543 6 10ZM16 6C17.1046 6 18 5.10457 18 4C18 2.89543 17.1046 2 16 2C14.8954 2 14 2.89543 14 4C14 5.10457 14.8954 6 16 6ZM18 16C18 17.1046 17.1046 18 16 18C14.8954 18 14 17.1046 14 16C14 14.8954 14.8954 14 16 14C17.1046 14 18 14.8954 18 16Z" fill="white"/>
</svg>
