<svg width="32" height="32" viewBox="0 0 32 32" fill="none" xmlns="http://www.w3.org/2000/svg">
<circle cx="15.6445" cy="16" r="15" fill="white" stroke="#1600FF"/>
<mask id="mask0" mask-type="alpha" maskUnits="userSpaceOnUse" x="5" y="14" width="11" height="13">
<path fill-rule="evenodd" clip-rule="evenodd" d="M5.89453 14.5H15.9126V26.1989H5.89453V14.5Z" fill="white"/>
</mask>
<g mask="url(#mask0)">
<path fill-rule="evenodd" clip-rule="evenodd" d="M10.9423 20.2896C9.2919 20.2896 7.94886 18.9917 7.94886 17.3957C7.94886 15.7997 9.2919 14.501 10.9423 14.501C12.5927 14.501 13.9358 15.7997 13.9358 17.3957C13.9358 18.9917 12.5927 20.2896 10.9423 20.2896ZM10.9421 15.1935C9.68687 15.1935 8.66455 16.1812 8.66455 17.3959C8.66455 18.6098 9.68687 19.5975 10.9421 19.5975C12.1973 19.5975 13.2196 18.6098 13.2196 17.3959C13.2196 16.1812 12.1973 15.1935 10.9421 15.1935ZM15.4678 26.2003H15.4754C15.6702 26.2003 15.8296 26.0498 15.8334 25.8615L15.9126 23.8105C15.9126 22.1443 14.5104 20.7892 12.7874 20.7892H12.4428C12.3913 20.7892 12.3407 20.7994 12.2939 20.8206C11.4396 21.2009 10.4536 21.2028 9.59067 20.8206C9.54389 20.7994 9.49235 20.7892 9.44176 20.7892H9.09812C7.37517 20.7892 5.97294 22.1443 5.97294 23.8031L5.8946 25.8468C5.89085 26.0378 6.04739 26.1957 6.24498 26.2003H6.25262C6.44735 26.2003 6.60676 26.0498 6.61057 25.8615L6.68885 23.8105C6.68885 22.5265 7.76939 21.4815 9.09812 21.4815H9.36539C10.3734 21.9052 11.5198 21.9034 12.5192 21.4815H12.7874C14.1152 21.4815 15.1967 22.5265 15.1967 23.8031L15.1175 25.8468C15.1137 26.0378 15.2702 26.1957 15.4678 26.2003Z" fill="#1600FF"/>
</g>
<mask id="mask1" mask-type="alpha" maskUnits="userSpaceOnUse" x="16" y="14" width="10" height="13">
<path fill-rule="evenodd" clip-rule="evenodd" d="M16.1729 14.5H25.8962V26.1989H16.1729V14.5Z" fill="white"/>
</mask>
<g mask="url(#mask1)">
<path fill-rule="evenodd" clip-rule="evenodd" d="M21.0722 20.2896C19.4704 20.2896 18.1668 18.9917 18.1668 17.3957C18.1668 15.7997 19.4704 14.501 21.0722 14.501C22.6741 14.501 23.9776 15.7997 23.9776 17.3957C23.9776 18.9917 22.6741 20.2896 21.0722 20.2896ZM21.0719 15.1935C19.8536 15.1935 18.8613 16.1812 18.8613 17.3959C18.8613 18.6098 19.8536 19.5975 21.0719 19.5975C22.2902 19.5975 23.2824 18.6098 23.2824 17.3959C23.2824 16.1812 22.2902 15.1935 21.0719 15.1935ZM25.4646 26.2003H25.472C25.661 26.2003 25.8157 26.0498 25.8194 25.8615L25.8963 23.8105C25.8963 22.1443 24.5353 20.7892 22.863 20.7892H22.5286C22.4785 20.7892 22.4294 20.7994 22.384 20.8206C21.5548 21.2009 20.5978 21.2028 19.7603 20.8206C19.7149 20.7994 19.6648 20.7892 19.6157 20.7892H19.2822C17.6099 20.7892 16.249 22.1443 16.249 23.8031L16.1729 25.8468C16.1693 26.0378 16.3212 26.1957 16.513 26.2003H16.5204C16.7094 26.2003 16.8641 26.0498 16.8678 25.8615L16.9438 23.8105C16.9438 22.5265 17.9926 21.4815 19.2822 21.4815H19.5416C20.52 21.9052 21.6327 21.9034 22.6027 21.4815H22.863C24.1517 21.4815 25.2014 22.5265 25.2014 23.8031L25.1245 25.8468C25.1208 26.0378 25.2728 26.1957 25.4646 26.2003Z" fill="#1600FF"/>
</g>
<mask id="mask2" mask-type="alpha" maskUnits="userSpaceOnUse" x="5" y="4" width="11" height="13">
<path fill-rule="evenodd" clip-rule="evenodd" d="M5.89453 4.75H15.9126V16.4489H5.89453V4.75Z" fill="white"/>
</mask>
<g mask="url(#mask2)">
<path fill-rule="evenodd" clip-rule="evenodd" d="M10.9423 10.5386C9.2919 10.5386 7.94886 9.24077 7.94886 7.64477C7.94886 6.04877 9.2919 4.75 10.9423 4.75C12.5927 4.75 13.9358 6.04877 13.9358 7.64477C13.9358 9.24077 12.5927 10.5386 10.9423 10.5386ZM10.9421 5.44307C9.68687 5.44307 8.66455 6.43076 8.66455 7.64553C8.66455 8.85938 9.68687 9.84707 10.9421 9.84707C12.1973 9.84707 13.2196 8.85938 13.2196 7.64553C13.2196 6.43076 12.1973 5.44307 10.9421 5.44307ZM15.4678 16.4499H15.4754C15.6702 16.4499 15.8296 16.2994 15.8334 16.1111L15.9126 14.0601C15.9126 12.3939 14.5104 11.0388 12.7874 11.0388H12.4428C12.3913 11.0388 12.3407 11.049 12.2939 11.0702C11.4396 11.4505 10.4536 11.4524 9.59067 11.0702C9.54389 11.049 9.49235 11.0388 9.44176 11.0388H9.09812C7.37517 11.0388 5.97294 12.3939 5.97294 14.0527L5.8946 16.0964C5.89085 16.2874 6.04739 16.4453 6.24498 16.4499H6.25262C6.44735 16.4499 6.60676 16.2994 6.61057 16.1111L6.68885 14.0601C6.68885 12.7761 7.76939 11.7311 9.09812 11.7311H9.36539C10.3734 12.1548 11.5198 12.153 12.5192 11.7311H12.7874C14.1152 11.7311 15.1967 12.7761 15.1967 14.0527L15.1175 16.0964C15.1137 16.2874 15.2702 16.4453 15.4678 16.4499Z" fill="#1600FF"/>
</g>
<mask id="mask3" mask-type="alpha" maskUnits="userSpaceOnUse" x="16" y="4" width="10" height="13">
<path fill-rule="evenodd" clip-rule="evenodd" d="M16.1729 4.74902H25.8962V16.4479H16.1729V4.74902Z" fill="white"/>
</mask>
<g mask="url(#mask3)">
<path fill-rule="evenodd" clip-rule="evenodd" d="M21.0732 10.5376C19.4714 10.5376 18.1678 9.23979 18.1678 7.64379C18.1678 6.04779 19.4714 4.74902 21.0732 4.74902C22.6751 4.74902 23.9786 6.04779 23.9786 7.64379C23.9786 9.23979 22.6751 10.5376 21.0732 10.5376ZM21.0729 5.44207C19.8546 5.44207 18.8623 6.42976 18.8623 7.64453C18.8623 8.85838 19.8546 9.84607 21.0729 9.84607C22.2912 9.84607 23.2834 8.85838 23.2834 7.64453C23.2834 6.42976 22.2912 5.44207 21.0729 5.44207ZM25.4655 16.4489H25.4729C25.6619 16.4489 25.8167 16.2984 25.8204 16.1101L25.8973 14.0591C25.8973 12.3929 24.5363 11.0378 22.864 11.0378H22.5295C22.4795 11.0378 22.4304 11.048 22.385 11.0692C21.5558 11.4495 20.5988 11.4514 19.7613 11.0692C19.7159 11.048 19.6658 11.0378 19.6167 11.0378H19.2832C17.6109 11.0378 16.2499 12.3929 16.2499 14.0517L16.1739 16.0954C16.1703 16.2864 16.3222 16.4443 16.514 16.4489H16.5214C16.7104 16.4489 16.8651 16.2984 16.8688 16.1101L16.9448 14.0591C16.9448 12.7751 17.9935 11.7301 19.2832 11.7301H19.5426C20.521 12.1538 21.6336 12.152 22.6037 11.7301H22.864C24.1527 11.7301 25.2024 12.7751 25.2024 14.0517L25.1255 16.0954C25.1218 16.2864 25.2738 16.4443 25.4655 16.4489Z" fill="#1600FF"/>
</g>
</svg>
