<svg width="64" height="63" viewBox="0 0 64 63" fill="none" xmlns="http://www.w3.org/2000/svg">
<path d="M19.333 19.99C17.657 19.99 16.294 21.336 16.294 22.99C16.294 24.644 17.657 25.99 19.333 25.99C21.009 25.99 22.372 24.644 22.372 22.99C22.372 21.336 21.009 19.99 19.333 19.99ZM19.333 23.99C18.76 23.99 18.294 23.541 18.294 22.99C18.294 22.439 18.76 21.99 19.333 21.99C19.906 21.99 20.372 22.439 20.372 22.99C20.372 23.541 19.906 23.99 19.333 23.99Z" fill="#1600FF"/>
<path d="M63.414 30.99L61.914 29.49L63 28.404V0.98999H59.474L48.857 16.433L48 15.576L45.435 18.141L29.236 24.812L28.159 23.735L29.43 22.489L7.40702 0.98999H1.00002V31.57L0.572021 31.99L10.157 41.391L11.586 39.99L15.586 43.99L15.293 44.283C13.8 45.776 13.8 48.204 15.293 49.697C16.039 50.444 17.02 50.817 18 50.817C18.064 50.817 18.127 50.802 18.191 50.799C18.139 51.842 18.497 52.902 19.293 53.698C20.039 54.445 21.02 54.818 22 54.818C22.064 54.818 22.127 54.803 22.191 54.8C22.139 55.843 22.497 56.903 23.293 57.699C24.039 58.446 25.02 58.819 26 58.819C26.351 58.819 26.698 58.754 27.038 58.658C27.025 58.787 27 58.916 27 59.049C27 60.101 27.41 61.091 28.154 61.835C28.898 62.58 29.887 62.989 30.94 62.989C31.993 62.989 32.982 62.579 33.726 61.835L36.845 58.716C36.869 58.692 36.885 58.664 36.908 58.639C37.265 58.745 37.63 58.815 37.999 58.815C38.979 58.815 39.96 58.442 40.706 57.695C41.501 56.9 41.86 55.84 41.808 54.796C41.872 54.799 41.935 54.814 41.999 54.814C42.979 54.814 43.96 54.441 44.706 53.694C45.501 52.899 45.86 51.839 45.808 50.795C45.872 50.798 45.935 50.813 45.999 50.813C46.979 50.813 47.96 50.44 48.706 49.693C49.953 48.446 50.143 46.553 49.308 45.091L63.414 30.99ZM60.526 2.98999H61V27.576L60.5 28.076L50.295 17.871L60.526 2.98999ZM60.586 30.99L48 43.576L35.434 31.009C35.446 30.984 35.458 30.96 35.469 30.935L48 18.404L60.586 30.99ZM41.758 21.818L36.835 26.741L36.446 26.157C34.71 27.314 32.864 31.103 30.96 37.421C30.576 38.699 29.213 39.439 27.922 39.07C27.248 38.877 26.704 38.425 26.391 37.797C26.079 37.17 26.044 36.464 26.296 35.809L29.779 26.75L41.758 21.818ZM3.42802 31.99L5.75902 29.704L4.35902 28.276L3.00002 29.608V2.98999H6.59302L18.394 14.51L5.86802 26.795L7.26802 28.223L19.825 15.908L26.57 22.492L10.157 38.589L3.42802 31.99ZM16.707 48.283C15.994 47.57 15.994 46.41 16.707 45.697L19.707 42.697C20.063 42.341 20.532 42.162 21 42.162C21.468 42.162 21.937 42.34 22.293 42.697C23.006 43.41 23.006 44.57 22.293 45.283L19.293 48.283C18.58 48.996 17.42 48.996 16.707 48.283ZM20.707 52.283C19.994 51.57 19.994 50.41 20.707 49.697L23.707 46.697C24.063 46.341 24.532 46.162 25 46.162C25.468 46.162 25.937 46.34 26.293 46.697C27.006 47.41 27.006 48.57 26.293 49.283L23.293 52.283C22.58 52.996 21.42 52.996 20.707 52.283ZM24.707 56.283C23.994 55.57 23.994 54.41 24.707 53.697L27.707 50.697C28.063 50.341 28.532 50.162 29 50.162C29.468 50.162 29.937 50.34 30.293 50.697C31.006 51.41 31.006 52.57 30.293 53.283L27.293 56.283C26.58 56.996 25.42 56.996 24.707 56.283ZM32.312 60.421C31.556 61.178 30.324 61.178 29.568 60.421C28.811 59.664 28.811 58.433 29.568 57.676L32.687 54.557C33.065 54.179 33.562 53.99 34.059 53.99C34.556 53.99 35.053 54.179 35.431 54.557C36.188 55.314 36.188 56.545 35.431 57.302L32.312 60.421ZM47.293 48.283C46.58 48.996 45.42 48.996 44.707 48.283L36.708 40.284L35.707 39.283L34.293 40.697L35.294 41.698L43.293 49.697C44.006 50.41 44.006 51.57 43.293 52.283C42.58 52.996 41.42 52.996 40.707 52.283L32.708 44.284L31.707 43.283L30.293 44.697L31.294 45.698L39.293 53.697C40.006 54.41 40.006 55.57 39.293 56.283C38.909 56.667 38.397 56.837 37.893 56.807C37.958 56.522 38 56.23 38 55.93C38 54.878 37.59 53.888 36.846 53.144C35.791 52.088 34.183 51.796 32.803 52.238C32.872 51.176 32.517 50.092 31.707 49.283C30.912 48.488 29.852 48.129 28.809 48.181C28.861 47.138 28.503 46.078 27.707 45.283C26.912 44.488 25.852 44.129 24.809 44.181C24.861 43.138 24.503 42.078 23.707 41.283C22.215 39.79 19.785 39.79 18.293 41.283L17 42.576L13.013 38.589L26.731 25.135L27.834 26.238L24.428 35.092C23.979 36.259 24.042 37.571 24.6 38.691C25.159 39.811 26.169 40.65 27.372 40.994C27.777 41.11 28.187 41.165 28.591 41.165C30.513 41.165 32.298 39.915 32.874 37.999C33.443 36.11 34.022 34.429 34.588 32.992L47.293 45.697C48.006 46.41 48.006 47.57 47.293 48.283Z" fill="#1600FF"/>
<path d="M41.96 34.3639C43.085 35.4879 44.915 35.4889 46.04 34.3639L47.374 33.0299C47.541 32.8629 47.764 32.7709 48 32.7709C48.236 32.7709 48.458 32.8629 48.626 33.0309C48.971 33.3759 48.971 33.9379 48.626 34.2829L47.293 35.6159C46.948 35.9609 46.387 35.9619 46.04 35.6159L44.626 37.0299C45.188 37.5919 45.928 37.8739 46.666 37.8739C47.387 37.8739 48.106 37.6019 48.663 37.0659L49.293 37.6959L50.707 36.2819L50.077 35.6509C51.161 34.5229 51.152 32.7259 50.04 31.6149C48.915 30.4899 47.085 30.4899 45.96 31.6149L44.626 32.9479C44.28 33.2939 43.72 33.2929 43.374 32.9479C43.029 32.6029 43.029 32.0409 43.374 31.6959L44.707 30.3629C45.052 30.0179 45.613 30.0159 45.96 30.3629L47.374 28.9489C46.262 27.8369 44.464 27.8299 43.337 28.9129L42.707 28.2829L41.293 29.6969L41.923 30.3279C40.84 31.4549 40.849 33.2519 41.96 34.3639Z" fill="#1600FF"/>
</svg>
