<svg width="62" height="62" viewBox="0 0 62 62" fill="none" xmlns="http://www.w3.org/2000/svg">
<path d="M58 52V21C58 18.243 55.757 16 53 16H50V0H12V16H9C6.243 16 4 18.243 4 21V52H0V57.912C0 60.166 1.833 62 4.087 62H57.912C60.167 62 62 60.166 62 57.912V52H58ZM53 18C54.654 18 56 19.346 56 21V52H54V20H50V18H53ZM26 54H36V56H26V54ZM10 52V22H12V47H50V22H52V52H10ZM14 2H48V45H14V2ZM6 21C6 19.346 7.346 18 9 18H12V20H8V52H6V21ZM60 57.912C60 59.063 59.063 60 57.913 60H4.087C2.937 60 2 59.063 2 57.912V54H24V58H38V54H60V57.912Z" fill="#1600FF"/>
<path d="M43 16C43 9.383 37.617 4 31 4C24.383 4 19 9.383 19 16C19 22.617 24.383 28 31 28C37.617 28 43 22.617 43 16ZM26 24.647V23C26 20.243 28.243 18 31 18C33.757 18 36 20.243 36 23V24.647C34.527 25.502 32.822 26 31 26C29.178 26 27.473 25.502 26 24.647ZM28 13C28 11.346 29.346 10 31 10C32.654 10 34 11.346 34 13C34 14.654 32.654 16 31 16C29.346 16 28 14.654 28 13ZM38 23.129V23C38 20.302 36.463 17.96 34.221 16.792C35.3 15.874 36 14.524 36 13C36 10.243 33.757 8 31 8C28.243 8 26 10.243 26 13C26 14.524 26.7 15.874 27.779 16.792C25.537 17.96 24 20.302 24 23V23.129C22.151 21.313 21 18.789 21 16C21 10.486 25.486 6 31 6C36.514 6 41 10.486 41 16C41 18.79 39.849 21.314 38 23.129Z" fill="#1600FF"/>
<path d="M16 39H30V29H16V39ZM18 31H28V37H18V31Z" fill="#1600FF"/>
<path d="M30 41H16V43H30V41Z" fill="#1600FF"/>
<path d="M32 39H46V29H32V39ZM34 31H44V37H34V31Z" fill="#1600FF"/>
<path d="M46 41H44V43H46V41Z" fill="#1600FF"/>
<path d="M42 41H32V43H42V41Z" fill="#1600FF"/>
</svg>
