<svg width="62" height="62" viewBox="0 0 62 62" fill="none" xmlns="http://www.w3.org/2000/svg">
<path d="M31 10C32.654 10 34 8.654 34 7C34 5.346 32.654 4 31 4C29.346 4 28 5.346 28 7C28 8.654 29.346 10 31 10ZM31 6C31.551 6 32 6.448 32 7C32 7.552 31.551 8 31 8C30.449 8 30 7.552 30 7C30 6.448 30.449 6 31 6Z" fill="#1600FF"/>
<path d="M36 24H34V12H26V18H28V24H26V30H36V24ZM34 28H28V26H30V16H28V14H32V26H34V28Z" fill="#1600FF"/>
<path d="M58 14V12H47.247C45.107 5.059 38.634 0 31 0C23.366 0 16.893 5.059 14.753 12H4V14H0V58H26.101C26.565 60.279 28.586 62 31 62C33.414 62 35.435 60.279 35.899 58H62V14H58ZM31 2C39.271 2 46 8.729 46 17C46 24.124 40.937 30.308 33.961 31.705L33.482 31.801L31 36.764L28.519 31.801L28.04 31.705C21.063 30.308 16 24.124 16 17C16 8.729 22.729 2 31 2ZM36 33.24C37.045 32.919 38.046 32.505 38.989 32H52V44H36V33.24ZM6 14H14.281C14.107 14.976 14 15.975 14 17C14 24.908 19.506 31.795 27.163 33.562L31 41.236L34 35.235V46H54V30H41.921C45.659 26.848 48 22.146 48 17C48 15.975 47.893 14.976 47.719 14H56V52H32V43H30V52H6V14ZM60 56H34V57C34 58.654 32.654 60 31 60C29.346 60 28 58.654 28 57V56H2V16H4V54H58V16H60V56Z" fill="#1600FF"/>
<path d="M28 48H8V50H28V48Z" fill="#1600FF"/>
<path d="M28 44H8V46H28V44Z" fill="#1600FF"/>
<path d="M28 40H8V42H28V40Z" fill="#1600FF"/>
<path d="M26 36H8V38H26V36Z" fill="#1600FF"/>
<path d="M54 48H34V50H54V48Z" fill="#1600FF"/>
</svg>
