<svg width="62" height="62" viewBox="0 0 62 62" fill="none" xmlns="http://www.w3.org/2000/svg">
<path d="M6 4H4V6H6V4Z" fill="#1600FF"/>
<path d="M10 4H8V6H10V4Z" fill="#1600FF"/>
<path d="M14 4H12V6H14V4Z" fill="#1600FF"/>
<path d="M12 44H14C15.103 44 16 44.897 16 46H18C18 43.794 16.206 42 14 42V40H12V42C9.794 42 8 43.794 8 46C8 48.206 9.794 50 12 50H14C15.103 50 16 50.897 16 52C16 53.103 15.103 54 14 54H12C10.897 54 10 53.103 10 52H8C8 54.206 9.794 56 12 56V58H14V56C16.206 56 18 54.206 18 52C18 49.794 16.206 48 14 48H12C10.897 48 10 47.103 10 46C10 44.897 10.897 44 12 44Z" fill="#1600FF"/>
<path d="M62 44V0H0V44H1.003C0.359 45.54 0 47.229 0 49C0 56.168 5.832 62 13 62C14.771 62 16.46 61.641 18 60.997V62H43H44H60V54H54V48H46V44H62ZM60 2V8H2V2H60ZM2 10H60V42H46H45H44V36H32V26H43C50.168 26 56 20.168 56 13V12H43C37.6 12 32.961 15.311 31 20.008C29.039 15.311 24.4 12 19 12H6V13C6 20.168 11.832 26 19 26H30V36H18V37.003C16.46 36.359 14.771 36 13 36C8.366 36 4.302 38.444 2 42.104V10ZM23.937 42C23.476 41.282 22.948 40.612 22.359 40H24V38H26V40H28V38H30V40H32V38H34V40H36V38H38V40H40V38H42V42H23.937ZM28 50V52H30V50H32V52H34V50H36V52H38V50H40V54H24.997C25.519 52.753 25.841 51.407 25.949 50H28ZM22 39.641C21.359 39.024 20.653 38.476 19.896 38H22V39.641ZM32.045 24C32.552 18.401 37.271 14 43 14H53.955C53.448 19.599 48.729 24 43 24H32.045ZM29.955 24H19C13.271 24 8.552 19.599 8.045 14H19C24.729 14 29.448 18.401 29.955 24ZM2 49C2 42.935 6.935 38 13 38C19.065 38 24 42.935 24 49C24 55.065 19.065 60 13 60C6.935 60 2 55.065 2 49ZM42 60H20V59.937C20.861 59.384 21.652 58.735 22.359 58H24V56H26V58H28V56H30V58H32V56H34V58H36V56H38V58H40V56H42V60ZM58 60H44V56H46V58H48V56H50V58H52V56H54V58H56V56H58V60ZM52 54H44H43H42V50H44V52H46V50H48V52H50V50H52V54ZM42 48H41H25.949C25.897 47.317 25.791 46.65 25.636 46H26V44H28V46H30V44H32V46H34V44H36V46H38V44H40V46H42V44H44V48H42Z" fill="#1600FF"/>
</svg>
