<svg width="62" height="62" viewBox="0 0 62 62" fill="none" xmlns="http://www.w3.org/2000/svg">
<path d="M18 18C21.86 18 25 14.86 25 11C25 7.14 21.86 4 18 4C14.14 4 11 7.14 11 11C11 14.86 14.14 18 18 18ZM18 6C20.757 6 23 8.243 23 11C23 13.757 20.757 16 18 16C15.243 16 13 13.757 13 11C13 8.243 15.243 6 18 6Z" fill="#1600FF"/>
<path d="M21 20H19V22H21V20Z" fill="#1600FF"/>
<path d="M17 20H15V22H17V20Z" fill="#1600FF"/>
<path d="M56 22V19.899C58.279 19.434 60 17.415 60 15C60 12.243 57.757 10 55 10C52.243 10 50 12.243 50 15C50 17.414 51.721 19.434 54 19.899V22H44V18C44 15.794 42.206 14 40 14H28.705C28.894 13.186 29 12.353 29 11.516V11C29 4.935 24.065 0 18 0C11.935 0 7 4.935 7 11V11.516C7 12.353 7.106 13.186 7.295 14H4C1.794 14 0 15.794 0 18V52C0 54.206 1.794 56 4 56H7V62H17C19.206 62 21 60.206 21 58V50H30H32V58C32 60.206 33.794 62 36 62H62V22H56ZM52 15C52 13.346 53.346 12 55 12C56.654 12 58 13.346 58 15C58 16.654 56.654 18 55 18C53.346 18 52 16.654 52 15ZM60 24V28H56V24H60ZM56 32V30H60V34H54V50H60V54H54V60H50V34H44V30H50V24H54V32H56ZM60 36V48H56V36H60ZM48 24V28H44V24H48ZM23 48H19V42H2V38H30V16H34V38H42V42H23V48ZM17 48H4C3.268 48 2.591 48.212 2 48.556V44H17V48ZM42 18V36H36V16H40C41.103 16 42 16.897 42 18ZM9 11C9 6.038 13.038 2 18 2C22.962 2 27 6.038 27 11V11.516C27 12.978 26.638 14.434 25.954 15.727L18.583 29.648C18.354 30.081 17.645 30.081 17.416 29.648L10.046 15.727C9.362 14.435 9 12.979 9 11.516V11ZM4 16H7.978C8.077 16.222 8.165 16.448 8.278 16.663L15.648 30.583C16.11 31.458 17.011 32 18 32C18.989 32 19.89 31.458 20.352 30.584L27.722 16.663C27.827 16.464 27.908 16.254 28 16.049V36H2V18C2 16.897 2.897 16 4 16ZM17 60H9V56H17C18.103 56 19 56.897 19 58C19 59.103 18.103 60 17 60ZM19 54.556C18.409 54.212 17.732 54 17 54H4C2.897 54 2 53.103 2 52C2 50.897 2.897 50 4 50H19V54.556ZM30 48H25V44H42V48.556C41.409 48.212 40.732 48 40 48H38H36H34H32H30ZM36 50H38H40C41.103 50 42 50.897 42 52C42 53.103 41.103 54 40 54H36C35.268 54 34.591 54.212 34 54.556V50H36ZM34 58C34 56.897 34.897 56 36 56H40C42.206 56 44 54.206 44 52V36H48V60H36C34.897 60 34 59.103 34 58ZM56 60V56H60V60H56Z" fill="#1600FF"/>
<path d="M6 32H4V34H6V32Z" fill="#1600FF"/>
<path d="M10 32H8V34H10V32Z" fill="#1600FF"/>
<path d="M14 32H12V34H14V32Z" fill="#1600FF"/>
<path d="M12 28H4V30H12V28Z" fill="#1600FF"/>
<path d="M12 24H4V26H12V24Z" fill="#1600FF"/>
</svg>
