<svg width="62" height="66" viewBox="0 0 62 66" fill="none" xmlns="http://www.w3.org/2000/svg">
<path d="M5.16667 59.8125H39.2667V61.875H5.16667V59.8125ZM13.4333 6.1875H45.4667V9.28125H47.5333V4.125H11.3667V53.625H39.2667V51.5625H13.4333V6.1875ZM9.3 55.6875H39.2667V57.75H5.16667C4.34 57.75 3.51333 58.0594 2.99667 58.6781C2.37667 59.1938 2.06667 60.0187 2.06667 60.8438C2.06667 61.6688 2.37667 62.4937 2.99667 63.0094C3.61667 63.525 4.34 63.9375 5.16667 63.9375H39.2667V66H5.16667C3.82333 66 2.48 65.4844 1.55 64.4531C0.516667 63.525 0 62.1844 0 60.8438V5.15625C0 3.81562 0.516667 2.475 1.55 1.54688C2.48 0.515625 3.82333 0 5.16667 0H51.6667V9.28125H49.6V2.0625H9.3V55.6875ZM5.16667 55.6875H7.23333V2.0625H5.16667C4.34 2.0625 3.51333 2.37188 2.99667 2.99063C2.37667 3.50625 2.06667 4.33125 2.06667 5.15625V56.7188C2.99667 56.1 4.03 55.6875 5.16667 55.6875ZM51.6667 41.3531V60.8438C51.6667 62.1844 51.15 63.525 50.1167 64.4531C49.1867 65.4844 47.8433 66 46.5 66C45.1567 66 43.8133 65.4844 42.8833 64.4531C41.85 63.525 41.3333 62.1844 41.3333 60.8438V41.3531C38.44 40.3219 35.96 38.4656 34.1 35.9906H17.5667V33.9281H32.7567C32.4467 33.3094 32.1367 32.5875 31.8267 31.8656H17.5667V29.8031H31.31C31.2067 29.0812 31.1033 28.4625 31 27.7406H17.5667V25.6781H31.1033C31.1033 24.9562 31.2067 24.3375 31.4133 23.6156H22.7333V21.5531H31.93C34.1 15.5719 39.7833 11.2406 46.5 11.2406C55.0767 11.2406 62 18.15 62 26.7094C62 33.5156 57.66 39.2906 51.6667 41.3531ZM49.6 41.9719C48.5667 42.1781 47.5333 42.2812 46.5 42.2812C45.4667 42.2812 44.4333 42.1781 43.4 41.9719V60.8438C43.4 61.6688 43.71 62.4937 44.33 63.0094C45.4667 64.1437 47.5333 64.1437 48.67 63.0094C49.29 62.3906 49.6 61.6688 49.6 60.8438V41.9719ZM59.9333 26.8125C59.9333 19.3875 53.94 13.4062 46.5 13.4062C39.06 13.4062 33.0667 19.3875 33.0667 26.8125C33.0667 34.2375 39.06 40.2188 46.5 40.2188C53.94 40.2188 59.9333 34.2375 59.9333 26.8125ZM45.4667 46.4062H47.5333V44.3438H45.4667V46.4062ZM45.4667 50.5312H47.5333V48.4688H45.4667V50.5312ZM45.4667 54.6562H47.5333V52.5938H45.4667V54.6562ZM57.8667 26.8125C57.8667 33.1031 52.8033 38.1562 46.5 38.1562C40.1967 38.1562 35.1333 33.1031 35.1333 26.8125C35.1333 20.5219 40.1967 15.4688 46.5 15.4688C52.8033 15.4688 57.8667 20.5219 57.8667 26.8125ZM55.8 26.8125C55.8 21.6562 51.6667 17.5312 46.5 17.5312C41.3333 17.5312 37.2 21.6562 37.2 26.8125C37.2 31.9688 41.3333 36.0938 46.5 36.0938C51.6667 36.0938 55.8 31.9688 55.8 26.8125ZM45.4667 28.875H47.5333V20.625H45.4667V28.875ZM45.4667 33H47.5333V30.9375H45.4667V33Z" fill="#1600FF"/>
</svg>
