<svg width="62" height="62" viewBox="0 0 62 62" fill="none" xmlns="http://www.w3.org/2000/svg">
<path d="M62 13.477V6.323L46.193 0H43.808L28 6.323V13.476L32 11.876V15H0V35H2V54H0V62H37H38H52H53H62V54H58V11.877L62 13.477ZM30 7.677L44.192 2H45.808L60 7.677V10.524L46.193 5H43.808L30 10.523V7.677ZM2 17H32V33H2V17ZM4 35H32V54H4V35ZM36 60H34V58H32V60H30V58H28V60H22V58H20V60H18V58H16V60H14V58H12V60H10V58H8V60H6V58H4V60H2V56H32H36V60ZM38 60V56H52V58V60H38ZM38 38V36H52V38H38ZM50 40V54H40V40H50ZM60 56V60H58V58H56V60H54V58V56H58H60ZM56 54H52V40H54V34H36V40H38V54H34V11.077L44.192 7H45.808L56 11.077V54Z" fill="#1600FF"/>
<path d="M44 19C44 16.794 42.206 15 40 15C37.794 15 36 16.794 36 19V28H44V19ZM42 26H38V19C38 17.897 38.897 17 40 17C41.103 17 42 17.897 42 19V26Z" fill="#1600FF"/>
<path d="M54 19C54 16.794 52.206 15 50 15C47.794 15 46 16.794 46 19V28H54V19ZM52 26H48V19C48 17.897 48.897 17 50 17C51.103 17 52 17.897 52 19V26Z" fill="#1600FF"/>
<path d="M12 38C9.794 38 8 39.794 8 42V51H16V42C16 39.794 14.206 38 12 38ZM14 49H10V42C10 40.897 10.897 40 12 40C13.103 40 14 40.897 14 42V49Z" fill="#1600FF"/>
<path d="M24 38C21.794 38 20 39.794 20 42V51H28V42C28 39.794 26.206 38 24 38ZM26 49H22V42C22 40.897 22.897 40 24 40C25.103 40 26 40.897 26 42V49Z" fill="#1600FF"/>
<path d="M54 30H36V32H54V30Z" fill="#1600FF"/>
</svg>
