<svg width="62" height="62" viewBox="0 0 62 62" fill="none" xmlns="http://www.w3.org/2000/svg">
<path d="M14 42H12V44C10.346 44 9 45.346 9 47C9 48.654 10.346 50 12 50H14C14.551 50 15 50.449 15 51C15 51.551 14.551 52 14 52H11V51H9V54H12V56H14V54C15.654 54 17 52.654 17 51C17 49.346 15.654 48 14 48H12C11.449 48 11 47.551 11 47C11 46.449 11.449 46 12 46H15V47H17V44H14V42Z" fill="#1600FF"/>
<path d="M53 14C55.757 14 58 11.757 58 9C58 6.243 55.757 4 53 4C50.243 4 48 6.243 48 9C48 11.757 50.243 14 53 14ZM53 6C54.654 6 56 7.346 56 9C56 10.654 54.654 12 53 12C51.346 12 50 10.654 50 9C50 7.346 51.346 6 53 6Z" fill="#1600FF"/>
<path d="M62 9C62 4.038 57.962 0 53 0C49.887 0 47.139 1.59 45.522 4H10V10.685C9.089 10.25 8.075 10 7 10H2V11C2 14.86 5.14 18 9 18H12V23V24V28.586L10.307 26.893L4.67 28.302L7.821 36.704L4.335 39.754C1.58 42.164 0 45.646 0 49.306C0 56.306 5.694 62 12.694 62H13.306C20.306 62 26 56.306 26 49.306C26 47.452 25.592 45.646 24.834 44H32.522C30.899 45.948 30 48.395 30 51C30 57.065 34.935 62 41 62C47.065 62 52 57.065 52 51C52 48.395 51.101 45.948 49.478 44H62V9ZM53 2C56.86 2 60 5.14 60 9C60 12.86 56.86 16 53 16C49.14 16 46 12.86 46 9C46 5.14 49.14 2 53 2ZM50 17.475C50.94 17.809 51.947 18 53 18C54.053 18 55.06 17.809 56 17.475V23.382L53 21.882L50 23.382V17.475ZM9 16C6.585 16 4.565 14.279 4.101 12H7C9.415 12 11.435 13.721 11.899 16H9ZM9.693 29.107L13.108 32.522L16.401 28.131L18.709 28.708L16.279 36H9.693L7.33 29.698L9.693 29.107ZM13.306 60H12.694C6.797 60 2 55.203 2 49.306C2 46.222 3.331 43.289 5.652 41.258L9.375 38H16.624L20.348 41.258C22.669 43.289 24 46.222 24 49.306C24 55.203 19.203 60 13.306 60ZM50 51C50 55.962 45.962 60 41 60C36.038 60 32 55.962 32 51C32 48.25 33.234 45.722 35.38 44H40V46C38.346 46 37 47.346 37 49C37 50.654 38.346 52 40 52H42C42.551 52 43 52.449 43 53C43 53.551 42.551 54 42 54H39V53H37V56H40V58H42V56C43.654 56 45 54.654 45 53C45 51.346 43.654 50 42 50H40C39.449 50 39 49.551 39 49C39 48.449 39.449 48 40 48H43V49H45V46H42V44H46.62C48.766 45.722 50 48.25 50 51ZM23.672 42C23.096 41.183 22.432 40.424 21.666 39.753L18.159 36.685L21.29 27.291L15.599 25.868L14 28V24H17C20.86 24 24 20.86 24 17V16H19C17.042 16 15.272 16.81 14 18.11V18V17C14 15.098 13.235 13.373 12 12.11V6H44.525C44.191 6.94 44 7.947 44 9C44 12.113 45.59 14.861 48 16.478V26.618L53 24.118L58 26.618V16.478C58.756 15.971 59.429 15.351 60 14.644V42H23.672ZM14.101 22C14.565 19.721 16.586 18 19 18H21.899C21.435 20.279 19.414 22 17 22H14.101Z" fill="#1600FF"/>
<path d="M42 8H14V14H42V8ZM40 12H16V10H40V12Z" fill="#1600FF"/>
<path d="M44 16H26V18H44V16Z" fill="#1600FF"/>
<path d="M44 20H26V22H44V20Z" fill="#1600FF"/>
<path d="M28 24H26V26H28V24Z" fill="#1600FF"/>
<path d="M44 24H30V26H44V24Z" fill="#1600FF"/>
<path d="M50 40H58V34H50V40ZM52 36H56V38H52V36Z" fill="#1600FF"/>
<path d="M40 40H48V34H40V40ZM42 36H46V38H42V36Z" fill="#1600FF"/>
<path d="M30 40H38V34H30V40ZM32 36H36V38H32V36Z" fill="#1600FF"/>
<path d="M22 40H28V34H22V40ZM24 36H26V38H24V36Z" fill="#1600FF"/>
<path d="M32 28H30V30H32V28Z" fill="#1600FF"/>
<path d="M28 28H26V30H28V28Z" fill="#1600FF"/>
<path d="M44 28H34V30H44V28Z" fill="#1600FF"/>
</svg>
