<svg width="62" height="62" viewBox="0 0 62 62" fill="none" xmlns="http://www.w3.org/2000/svg">
<path d="M53.7768 11.8278L52.2496 13.1206L53.5418 14.647L55.069 13.3542L53.7768 11.8278Z" fill="#1600FF"/>
<path d="M51.1928 8.77399L49.6656 10.0668L50.9578 11.5932L52.485 10.3004L51.1928 8.77399Z" fill="#1600FF"/>
<path d="M48.613 5.71918L47.0856 7.01202L48.3778 8.53862L49.9052 7.24578L48.613 5.71918Z" fill="#1600FF"/>
<path d="M13.6981 5.35409L12.4059 6.88049L13.9331 8.17334L15.2253 6.64694L13.6981 5.35409Z" fill="#1600FF"/>
<path d="M8.52975 11.461L7.23755 12.9874L8.76471 14.2803L10.0569 12.7539L8.52975 11.461Z" fill="#1600FF"/>
<path d="M11.1136 8.40725L9.82138 9.93365L11.3485 11.2265L12.6407 9.7001L11.1136 8.40725Z" fill="#1600FF"/>
<path d="M62 18V15.634L50.464 2H35.204L35.07 1.847C34.043 0.673 32.56 0 31 0C29.44 0 27.957 0.673 26.93 1.847L26.796 2H11.536L0 15.634V18H4V32H0V62H62V32H58V18H62ZM49.536 4L59.69 16H47.454L36.954 4H49.536ZM28.435 3.163C29.082 2.424 30.018 2 31 2C31.982 2 32.918 2.424 33.564 3.163L44.796 16H41.469L31 3.438L20.531 16H17.204L28.435 3.163ZM38 38V27C38 24.243 35.757 22 33 22H29C26.243 22 24 24.243 24 27V38H20V18H42V38H38ZM40 43C40 47.963 35.963 52 31 52C26.037 52 22 47.963 22 43C22 41.965 22.182 40.96 22.522 40H28V41C28 42.654 29.346 44 31 44C31.552 44 32 44.448 32 45V46H31C30.448 46 30 45.552 30 45H28C28 46.302 28.839 47.402 30 47.816V50H32V48H34V45C34 43.346 32.654 42 31 42C30.448 42 30 41.552 30 41V40H31C31.552 40 32 40.448 32 41H34C34 40.648 33.928 40.314 33.816 40H39.478C39.818 40.96 40 41.964 40 43ZM60 54V56H49.414L51.414 54H60ZM55.09 52C55.513 49.493 57.493 47.514 60 47.09V52H55.09ZM46 56.586L43.414 54H48.586L46 56.586ZM40.586 54L42.586 56H2V54H40.586ZM2 52V47.09C4.507 47.513 6.486 49.493 6.91 52H2ZM36 38H31H28H26V27C26 25.346 27.346 24 29 24H33C34.654 24 36 25.346 36 27V38ZM23.136 16L31 6.562L38.864 16H23.136ZM12.464 4H25.046L14.546 16H2.31L12.464 4ZM18 18V38H6V18H18ZM4 34V40H20.426C20.151 40.971 20 41.973 20 43C20 46.72 21.861 50.008 24.695 52H8.931C8.477 48.388 5.612 45.523 2 45.069V34H4ZM2 60V58H44.586L46 59.414L47.414 58H60V60H2ZM60 34V45.069C56.388 45.522 53.523 48.388 53.069 52H37.305C40.139 50.008 42 46.72 42 43C42 41.972 41.849 40.97 41.573 40H58V34H60ZM56 38H44V18H56V38Z" fill="#1600FF"/>
<path d="M16 20H8V26H16V20ZM14 24H10V22H14V24Z" fill="#1600FF"/>
<path d="M16 36V30H8V36H16ZM10 32H14V34H10V32Z" fill="#1600FF"/>
<path d="M54 20H46V26H54V20ZM52 24H48V22H52V24Z" fill="#1600FF"/>
<path d="M54 36V30H46V36H54ZM48 32H52V34H48V32Z" fill="#1600FF"/>
</svg>
