<svg width="36" height="40" viewBox="0 0 36 40" fill="none" xmlns="http://www.w3.org/2000/svg">
<path d="M35.6848 22.6205C35.5775 22.5524 35.4501 22.5183 35.3294 22.5183V22.5115H31.4799V0.681547C31.4799 0.306696 31.1781 0 30.8092 0H5.19076C4.82191 0 4.52012 0.306696 4.52012 0.681547V22.5183H0.670641V22.5251C0.543219 22.5251 0.422504 22.5592 0.315201 22.6274C0.120715 22.7432 0 22.9613 0 23.1999V39.3253C0 39.7001 0.301788 40.0068 0.670641 40.0068H35.3294C35.6982 40.0068 36 39.7001 36 39.3253V23.1999C36 22.9613 35.8793 22.7432 35.6848 22.6205ZM32.3718 23.8814L31.4799 24.3108V23.8814H32.3718ZM5.8614 1.36309H30.1453V24.9651L18.0067 30.8673L5.86811 24.9651V1.36309H5.8614ZM4.52012 24.3108L3.62817 23.8814H4.52012V24.3108ZM34.6587 38.6369H1.34128V24.2767L17.7116 32.2304C17.8055 32.2713 17.8994 32.2985 18 32.2985C18.1006 32.2985 18.1945 32.2781 18.2884 32.2304L34.6587 24.2767V38.6369Z" fill="#1600FF"/>
<path d="M26.7786 21.4551H9.22119V22.8182H26.7786V21.4551Z" fill="#1600FF"/>
<path d="M23.8679 24.2972H12.125V25.6603H23.8679V24.2972Z" fill="#1600FF"/>
<path d="M12.5344 18.6881H23.4659C23.8347 18.6881 24.1365 18.3814 24.1365 18.0065C24.1365 15.3349 22.4666 13.0517 20.1395 12.1657C21.3198 11.4296 22.1045 10.1142 22.1045 8.60802C22.1045 6.30439 20.2602 4.43695 18.0001 4.43695C15.7334 4.43695 13.8958 6.3112 13.8958 8.60802C13.8958 10.1142 14.6872 11.4296 15.8608 12.1657C13.527 13.0517 11.8638 15.3281 11.8638 18.0065C11.8638 18.3814 12.1656 18.6881 12.5344 18.6881ZM18.0001 5.80686C19.5225 5.80686 20.7632 7.06772 20.7632 8.61483C20.7632 10.1619 19.5225 11.4228 18.0001 11.4228C16.4778 11.4228 15.2371 10.1619 15.2371 8.61483C15.2371 7.06772 16.4778 5.80686 18.0001 5.80686ZM18.0001 13.1335C20.4144 13.1335 22.4197 14.96 22.7483 17.325H13.252C13.5806 14.96 15.5858 13.1335 18.0001 13.1335Z" fill="#1600FF"/>
</svg>
