<svg width="52" height="40" viewBox="0 0 52 40" fill="none" xmlns="http://www.w3.org/2000/svg">
<path d="M41.5055 29.647H10.4877C9.99989 29.647 9.57666 29.2219 9.57666 28.732C9.57666 28.2421 9.99989 27.817 10.4877 27.817H41.5055C41.9933 27.817 42.4165 28.2421 42.4165 28.732C42.4165 29.2219 41.9933 29.647 41.5055 29.647Z" fill="#1600FF"/>
<path d="M36.3477 33.9122H15.7099C15.2221 33.9122 14.7988 33.4871 14.7988 32.9972C14.7988 32.5073 15.2221 32.0822 15.7099 32.0822H36.3477C36.8355 32.0822 37.2588 32.5073 37.2588 32.9972C37.2588 33.4871 36.8355 33.9122 36.3477 33.9122Z" fill="#1600FF"/>
<path d="M36.283 17.6802C36.0391 17.6802 35.7952 17.5577 35.6159 17.4352L33.8584 15.6701C33.4925 15.3027 33.4925 14.7551 33.8584 14.3877C34.2242 14.0202 34.7694 14.0202 35.1352 14.3877L36.2256 15.4828L38.8367 12.8603C39.2026 12.4929 39.7477 12.4929 40.1136 12.8603C40.4794 13.2277 40.4794 13.7753 40.1136 14.1427L36.8999 17.3704C36.7062 17.5577 36.5269 17.6802 36.283 17.6802Z" fill="#1600FF"/>
<path d="M23.084 11.9164C23.0697 11.8155 23.0266 11.7218 22.9764 11.6354C22.919 11.5489 22.8473 11.4769 22.7612 11.4192C22.7325 11.3976 17.2521 7.62962 15.3152 6.30397C15.1216 6.17429 14.892 6.10225 14.6553 6.10225C14.4186 6.10225 14.189 6.1815 13.9953 6.31118C12.0944 7.65124 6.69999 11.4553 6.67129 11.4769C6.59239 11.5489 6.535 11.6354 6.49196 11.729C6.44892 11.8227 6.43457 11.9308 6.43457 12.0316V21.693C6.43457 21.7939 6.45609 21.8875 6.49196 21.974C6.52782 22.0605 6.58521 22.1469 6.65695 22.2118C6.72868 22.2838 6.80759 22.3342 6.90084 22.3703C6.9941 22.4063 7.08735 22.4279 7.18778 22.4207H10.1934L10.1217 22.3486C10.0356 22.2622 9.99258 22.1541 9.99258 22.0388C9.99258 21.9236 10.0428 21.8083 10.1217 21.729L10.4804 21.376L10.6525 21.2031L10.1217 20.6844C10.1002 20.6628 10.0858 20.6412 10.0715 20.6195C10.0141 20.5331 9.9854 20.4322 9.99258 20.3314C9.99975 20.2305 10.05 20.1296 10.1217 20.0576L10.4947 19.6901L10.6454 19.5388L10.4015 19.3299C10.2867 19.229 10.1217 19.1282 10.0571 18.9913C9.97823 18.7968 10.0213 18.5302 10.0213 18.3213V18.2997C9.28958 17.9754 8.6655 17.4495 8.22792 16.7867C7.79034 16.1239 7.55362 15.3458 7.55362 14.5533C7.53927 12.291 9.39001 10.4394 11.6855 10.4178C12.8763 10.4034 13.9882 10.9149 14.7557 11.693C14.6553 11.7867 14.5477 11.8803 14.4544 11.9812C13.8017 12.6801 13.4071 13.5734 13.4071 14.5244C13.4071 15.3674 13.7084 16.1599 14.2823 16.8515C14.3325 16.9164 14.3899 16.9812 14.4473 17.0388C14.5405 17.1397 14.6409 17.2622 14.7414 17.3558C14.3684 17.7449 13.9164 18.0547 13.4215 18.2708C13.4143 18.278 13.4071 18.278 13.3999 18.2924C13.3928 18.2997 13.3928 18.3069 13.3928 18.3213V22.3847C13.3928 22.3919 13.3928 22.3991 13.3999 22.4063C13.3999 22.4135 13.4071 22.4207 13.4143 22.4207C13.4215 22.4279 13.4215 22.4279 13.4286 22.4279C13.4358 22.4279 13.443 22.4351 13.4502 22.4351H16.0971C16.1115 22.4351 16.1258 22.4279 16.133 22.4207C16.1402 22.4135 16.1474 22.3991 16.1474 22.3847V18.3141C16.1474 18.3069 16.1474 18.2924 16.1402 18.2852C16.133 18.278 16.1258 18.2708 16.1187 18.2636C15.6165 18.0475 15.1646 17.7305 14.7844 17.3414C14.8848 17.2478 14.9853 17.1253 15.0785 17.0316C15.1359 16.974 15.1933 16.9092 15.2435 16.8443C15.8174 16.1527 16.1187 15.3602 16.1187 14.5172C16.1187 13.5662 15.7313 12.6729 15.0713 11.974C14.9781 11.8731 14.8705 11.7795 14.7701 11.693C15.5376 10.9149 16.6567 10.3962 17.8475 10.4106C20.1429 10.4322 21.9937 12.2838 21.9793 14.546C21.9793 15.3386 21.7426 16.1167 21.305 16.7795C20.8675 17.4423 20.2434 17.9682 19.5117 18.2924V18.2997C19.5117 18.4726 19.526 18.6527 19.4902 18.8256C19.4758 18.912 19.44 18.9913 19.3897 19.0633C19.3323 19.1498 19.2391 19.2074 19.1674 19.2795C19.0741 19.3659 18.9809 19.4452 18.8804 19.5316L19.1171 19.7694L19.4041 20.0576C19.4758 20.1296 19.526 20.2233 19.5332 20.3314C19.5404 20.4394 19.5189 20.5331 19.4543 20.6195C19.44 20.6412 19.4184 20.6628 19.3969 20.6844L18.8661 21.2031L19.1028 21.4337L19.3969 21.7218C19.4041 21.7218 19.4041 21.729 19.4041 21.7363C19.4184 21.7507 19.4328 21.7723 19.4471 21.7867C19.4973 21.8587 19.526 21.9452 19.526 22.0388C19.526 22.1253 19.4973 22.2118 19.4471 22.291C19.4328 22.3126 19.4113 22.3342 19.3897 22.3558L19.318 22.4279H22.3021C22.503 22.4279 22.6967 22.3775 22.833 22.2262C22.9693 22.0821 23.0482 21.8875 23.0482 21.693V12.0388C23.0912 11.9956 23.0912 11.9596 23.084 11.9164Z" fill="#1600FF"/>
<path d="M47.2153 40H4.78466C2.14485 40 0 37.8386 0 35.1945V4.80548C0 2.15418 2.14485 0 4.78466 0H47.2153C49.8552 0 52 2.15418 52 4.80548V35.1945C52 37.8386 49.848 40 47.2153 40ZM4.78466 1.44092C2.93392 1.44092 1.43468 2.94669 1.43468 4.80548V35.1945C1.43468 37.0461 2.93392 38.5591 4.78466 38.5591H47.2153C49.0589 38.5591 50.5653 37.0533 50.5653 35.1945V4.80548C50.5653 2.95389 49.0661 1.44092 47.2153 1.44092H4.78466Z" fill="#1600FF"/>
<path d="M36.9788 23.3573C32.4667 23.3573 28.7939 19.6686 28.7939 15.1369C28.7939 10.6052 32.4667 6.9164 36.9788 6.9164C41.4909 6.9164 45.1637 10.6052 45.1637 15.1369C45.1637 19.6686 41.4909 23.3573 36.9788 23.3573ZM36.9788 8.35732C33.2558 8.35732 30.2286 11.3977 30.2286 15.1369C30.2286 18.8761 33.2558 21.9164 36.9788 21.9164C40.7018 21.9164 43.729 18.8761 43.729 15.1369C43.729 11.3977 40.7018 8.35732 36.9788 8.35732Z" fill="#1600FF"/>
</svg>
