<svg width="40" height="40" viewBox="0 0 40 40" fill="none" xmlns="http://www.w3.org/2000/svg">
<path d="M20.0001 11.6129C20.7098 11.6129 21.2904 12.1935 21.2904 12.9032H22.5807C22.5807 11.7032 21.7549 10.7032 20.6452 10.4129V9.03222H19.3549V10.4129C18.2452 10.7032 17.4194 11.7032 17.4194 12.9032C17.4194 14.329 18.5743 15.4838 20.0001 15.4838C20.7098 15.4838 21.2904 16.0645 21.2904 16.7742C21.2904 17.4838 20.7098 18.0645 20.0001 18.0645C19.2904 18.0645 18.7098 17.4838 18.7098 16.7742H17.4194C17.4194 17.9742 18.2452 18.9742 19.3549 19.2645V20.6451H20.6452V19.2645C21.7549 18.9742 22.5807 17.9742 22.5807 16.7742C22.5807 15.3483 21.4259 14.1935 20.0001 14.1935C19.2904 14.1935 18.7098 13.6129 18.7098 12.9032C18.7098 12.1935 19.2904 11.6129 20.0001 11.6129Z" fill="#1600FF"/>
<path d="M40 16.7742V11.6129H36.129V0H10.0387L3.87097 6.85161V11.6129H0V16.7742H3.87097V18.9613L1.40645 18.0645H0V32.2581H5.63226L5.96774 31.1742L8.69677 32.8064L10.5032 33.2774C10.3871 33.5419 10.3226 33.8194 10.3226 34.1161C10.3226 35.2 11.1871 36.0839 12.2645 36.1226C12.3032 37.2 13.1871 38.0645 14.271 38.0645C14.5032 38.0645 14.7226 38.0194 14.9419 37.9419C15.2 38.7613 15.9548 39.3548 16.8516 39.3548C17.2839 39.3548 17.6968 39.2065 18.0452 38.9548L18.5226 39.4323C18.8903 39.8 19.3742 40 19.8903 40H20C20.8323 40 21.5419 39.4645 21.8129 38.7226C22.1742 39.1161 22.6839 39.3548 23.2258 39.3548C24.1226 39.3548 24.871 38.7419 25.0903 37.9161C25.3161 38.0065 25.5548 38.0645 25.8064 38.0645C26.7032 38.0645 27.4516 37.4516 27.671 36.6258C27.8968 36.7161 28.1355 36.7742 28.3871 36.7742C29.4516 36.7742 30.3226 35.9032 30.3226 34.8387V34.6258C30.3226 34.2064 30.1871 33.8 29.9355 33.4645L29.7226 33.1806L32.1161 31.2645L32.4258 32.2581H40V18.0645H38.7097L36.129 18.7935V16.7742H40ZM10.3226 1.60645V6.45161H5.96129L10.3226 1.60645ZM5.16129 7.74194H11.6129V1.29032H34.8387V11.6129H30.9677V9.11613L23.3548 14.1935L30.9677 19.271V16.7742H34.8387V19.1613L28.8645 20.8516L29.4258 22.6387L21.3806 23.1742C20.7806 23.2129 20.2 23.3742 19.6581 23.6387L18.2774 24.329C17.6645 24.0323 16.9935 23.871 16.3097 23.871H11.7677L8.73548 22.3548L9.19355 20.8968L5.16129 19.4323V16.7742H9.03226V19.271L16.6452 14.1935L9.03226 9.11613V11.6129H5.16129V7.74194ZM1.29032 15.4839V12.9032H3.87097H5.16129H10.3226V11.529L14.3226 14.1935L10.3226 16.8581V15.4839H1.29032ZM4.69032 30.9677H1.29032V19.3935L7.5871 21.6839L4.69032 30.9677ZM9.28387 31.6581L6.37419 29.9097L8.34839 23.6L11.4581 25.1613H16.3097C16.9161 25.1613 17.5032 25.329 18.0194 25.6516L21.529 27.8452C21.7871 28.0065 21.9355 28.2839 21.9355 28.5806V28.8065C21.9355 29.2903 21.5484 29.6774 21.0645 29.6774C20.9097 29.6774 20.7548 29.6323 20.6194 29.5548L18.1935 28.1032C17.2258 27.5226 15.9226 27.6839 15.1226 28.4839L11.4129 32.1936L9.28387 31.6581ZM20.6452 38.0645C20.6452 38.4194 20.3548 38.7097 20 38.7097H19.8903C19.7226 38.7097 19.5548 38.6387 19.4323 38.5226L18.8968 37.9871C18.7742 37.8645 18.7097 37.7032 18.7097 37.529V37.4194C18.7097 37.0645 19 36.7742 19.3548 36.7742H19.4645C19.6323 36.7742 19.8 36.8452 19.9226 36.9613L20.4581 37.4968C20.5806 37.6194 20.6452 37.7806 20.6452 37.9548V38.0645ZM23.871 37.4194C23.871 37.7742 23.5806 38.0645 23.2258 38.0645C23.0258 38.0645 22.8323 37.9677 22.7097 37.8064L21.4194 36.0839C21.3355 35.9742 21.2903 35.8387 21.2903 35.6968V35.4839C21.2903 35.129 21.5806 34.8387 21.9355 34.8387C22.1355 34.8387 22.329 34.9355 22.4516 35.0968L23.7419 36.8194C23.8258 36.929 23.871 37.0645 23.871 37.2064V37.4194ZM26.4516 36.129C26.4516 36.4839 26.1613 36.7742 25.8064 36.7742C25.6065 36.7742 25.4129 36.6774 25.2903 36.5161L24 34.7935C23.9161 34.6839 23.871 34.5484 23.871 34.4065V34.1935C23.871 33.8387 24.1613 33.5484 24.5161 33.5484C24.7161 33.5484 24.9097 33.6452 25.0323 33.8064L26.3226 35.529C26.4065 35.6387 26.4516 35.7742 26.4516 35.9161V36.129ZM29.0323 34.8387C29.0323 35.1935 28.7419 35.4839 28.3871 35.4839C28.1871 35.4839 27.9935 35.3871 27.871 35.2258L26.5806 33.5032C26.4968 33.3935 26.4516 33.2581 26.4516 33.1161V32.9032C26.4516 32.5484 26.7419 32.2581 27.0968 32.2581C27.2968 32.2581 27.4903 32.3548 27.6129 32.5161L28.9032 34.2387C28.9871 34.3484 29.0323 34.4839 29.0323 34.6258V34.8387ZM28.9484 32.1484L28.6452 31.7419C28.2839 31.2581 27.7032 30.9677 27.0968 30.9677C26.2 30.9677 25.4516 31.5806 25.2323 32.4065C25.0065 32.3161 24.7677 32.2581 24.5161 32.2581C23.6194 32.2581 22.871 32.871 22.6516 33.6968C22.4258 33.6064 22.1871 33.5484 21.9355 33.5484C20.871 33.5484 20 34.4194 20 35.4839V35.5677C19.8258 35.5161 19.6516 35.4839 19.4645 35.4839H19.3548C18.2903 35.4839 17.4194 36.3548 17.4194 37.4194V37.529C17.4194 37.6129 17.4323 37.6903 17.4452 37.7742L17.3677 37.8516C17.2258 37.9871 17.0452 38.0645 16.8516 38.0645C16.4516 38.0645 16.129 37.7419 16.129 37.3419C16.129 37.1484 16.2065 36.9677 16.3419 36.8323L19.1677 34.0065L18.2581 33.0968L15.4323 35.9226L14.7871 36.5677C14.6452 36.6968 14.4645 36.7742 14.271 36.7742C13.871 36.7742 13.5484 36.4516 13.5484 36.0516C13.5484 35.8581 13.6258 35.6774 13.7613 35.5419L16.5871 32.7161L17.2323 32.071L16.3226 31.1613L15.6774 31.8064L12.8516 34.6323C12.7097 34.7613 12.529 34.8387 12.3355 34.8387C11.9355 34.8387 11.6129 34.5161 11.6129 34.1161C11.6129 33.9226 11.6903 33.7419 11.8258 33.6064L16.0387 29.3935C16.4258 29.0065 17.0645 28.929 17.529 29.2129L19.9484 30.6645C20.2839 30.8645 20.671 30.9742 21.0581 30.9742C22.2581 30.9677 23.2258 30 23.2258 28.8065V28.5806C23.2258 27.8323 22.8452 27.1484 22.2129 26.7484L19.6 25.1161L20.2387 24.7935C20.6258 24.6 21.0387 24.4903 21.4645 24.4581L29.8194 23.9032L31.7032 29.9355L28.9484 32.1484ZM38.7097 19.3806V30.9677H33.3806L30.4903 21.729L38.7097 19.3806ZM29.6774 15.4839V16.8581L25.6774 14.1935L29.6774 11.529V12.9032H34.8387H36.129H38.7097V15.4839H29.6774Z" fill="#1600FF"/>
<path d="M33.5485 2.58067H12.9033V3.87099H33.5485V2.58067Z" fill="#1600FF"/>
<path d="M33.5485 5.16132H12.9033V6.45164H33.5485V5.16132Z" fill="#1600FF"/>
</svg>
