<?xml version="1.0" encoding="UTF-8"?>
<svg width="16px" height="19px" viewBox="0 0 16 19" version="1.1" xmlns="http://www.w3.org/2000/svg" xmlns:xlink="http://www.w3.org/1999/xlink">
    <!-- Generator: Sketch 64 (93537) - https://sketch.com -->
    <title>Group 3</title>
    <desc>Created with Sketch.</desc>
    <defs>
        <polygon id="path-1" points="0 0 16 0 16 19 0 19"></polygon>
    </defs>
    <g id="Cherapp" stroke="none" stroke-width="1" fill="none" fill-rule="evenodd">
        <g id="dashboard-v2-copy-7" transform="translate(-764.000000, -4134.000000)">
            <g id="Group-26" transform="translate(763.000000, 3884.000000)">
                <g id="Group-3" transform="translate(1.000000, 250.000000)">
                    <mask id="mask-2" fill="white">
                        <use xlink:href="#path-1"></use>
                    </mask>
                    <g id="Clip-2"></g>
                    <path d="M8.06179788,1.12434906 C6.05704739,1.12434906 4.42428102,2.72842039 4.42428102,4.70127821 C4.42428102,6.67263689 6.05704739,8.27670822 8.06179788,8.27670822 C10.0665484,8.27670822 11.6993147,6.67263689 11.6993147,4.70127821 C11.6993147,2.72842039 10.0665484,1.12434906 8.06179788,1.12434906 M8.06179788,9.40105728 C5.425894,9.40105728 3.2808872,7.29327758 3.2808872,4.70127821 C3.2808872,2.10927884 5.425894,0 8.06179788,0 C10.6977017,0 12.8427085,2.10927884 12.8427085,4.70127821 C12.8427085,7.29327758 10.6977017,9.40105728 8.06179788,9.40105728 M15.3017675,19 L15.2895713,19 C14.9739946,18.9925043 14.7239725,18.7361528 14.7300706,18.4258324 L14.8566062,15.106754 C14.8566062,13.0334543 13.1293193,11.3364368 11.0087049,11.3364368 L10.5803133,11.3364368 C8.98413555,12.0215402 7.15318092,12.0245384 5.54328243,11.3364368 L5.11641541,11.3364368 C2.99427649,11.3364368 1.26851409,13.0334543 1.26851409,15.118747 L1.14350303,18.4498185 C1.13740493,18.7556415 0.882809243,19 0.571806126,19 L0.559609925,19 C0.244033232,18.9925043 -0.00598888202,18.7361528 0,18.4258324 L0.125120275,15.106754 C0.125120275,12.4128136 2.36464763,10.2120877 5.11641541,10.2120877 L5.66524444,10.2120877 C5.74604427,10.2120877 5.82836862,10.2285782 5.90307035,10.2630582 C7.28124103,10.8836989 8.85607545,10.8807006 10.2205254,10.2630582 C10.2952271,10.2285782 10.376027,10.2120877 10.4583513,10.2120877 L11.0087049,10.2120877 C13.7604726,10.2120877 16,12.4128136 16,15.118747 L15.8734644,18.4498185 C15.8673663,18.7556415 15.6127706,19 15.3017675,19" id="Fill-1" fill="#000000" mask="url(#mask-2)"></path>
                </g>
            </g>
        </g>
    </g>
</svg>