<?xml version="1.0" encoding="UTF-8"?>
<svg width="25px" height="25px" viewBox="0 0 25 25" version="1.1" xmlns="http://www.w3.org/2000/svg" xmlns:xlink="http://www.w3.org/1999/xlink">
    <!-- Generator: Sketch 64 (93537) - https://sketch.com -->
    <title>Path</title>
    <desc>Created with Sketch.</desc>
    <g id="Cherapp" stroke="none" stroke-width="1" fill="none" fill-rule="evenodd">
        <g id="dashboard-v2-copy-7" transform="translate(-200.000000, -5827.000000)" fill="#1600FF" fill-rule="nonzero">
            <g id="Group-19" transform="translate(145.000000, 5102.000000)">
                <g id="Group-17" transform="translate(55.000000, 717.000000)">
                    <g id="phone-solid" transform="translate(0.000000, 8.000000)">
                        <path d="M24.0918154,1.20167451 L19.0137937,0.0298242648 C18.4620471,-0.0971261789 17.8956523,0.190953674 17.6710475,0.708520868 L15.3273452,6.17715537 C15.1222713,6.65566088 15.2589872,7.21717246 15.6642524,7.54431399 L18.6231766,9.96613784 C16.8653999,13.7111759 13.7941733,16.8263445 9.97100887,18.6182988 L7.54918313,15.659377 C7.21715864,15.2541121 6.66052934,15.1173962 6.18202345,15.32247 L0.713384696,17.6661705 C0.190934387,17.8956579 -0.09714569,18.4620521 0.0298048524,19.0137983 L1.20165601,24.0918161 C1.32372384,24.6191487 1.79246431,25 2.34421089,25 C14.8488393,25 25,14.8683781 25,2.34422851 C25,1.79736506 24.6240311,1.32374225 24.0918154,1.20167451 Z" id="Path"></path>
                    </g>
                </g>
            </g>
        </g>
    </g>
</svg>