<svg width="42" height="42" viewBox="0 0 42 42" fill="none" xmlns="http://www.w3.org/2000/svg">
<circle cx="21" cy="21" r="20" fill="white" stroke="#00B6C1"/>
<mask id="mask0" mask-type="alpha" maskUnits="userSpaceOnUse" x="8" y="13" width="14" height="16">
<path fill-rule="evenodd" clip-rule="evenodd" d="M8 13H21.3574V28.5985H8V13Z" fill="white"/>
</mask>
<g mask="url(#mask0)">
<path fill-rule="evenodd" clip-rule="evenodd" d="M14.7302 20.7182C12.5296 20.7182 10.7389 18.9877 10.7389 16.8597C10.7389 14.7317 12.5296 13 14.7302 13C16.9307 13 18.7215 14.7317 18.7215 16.8597C18.7215 18.9877 16.9307 20.7182 14.7302 20.7182ZM14.7302 13.9231C13.0565 13.9231 11.6935 15.24 11.6935 16.8597C11.6935 18.4782 13.0565 19.7951 14.7302 19.7951C16.4038 19.7951 17.7669 18.4782 17.7669 16.8597C17.7669 15.24 16.4038 13.9231 14.7302 13.9231ZM20.7642 28.5988H20.7744C21.034 28.5988 21.2465 28.3982 21.2516 28.1471L21.3573 25.4123C21.3573 23.1908 19.4876 21.384 17.1904 21.384H16.7309C16.6622 21.384 16.5947 21.3975 16.5324 21.4258C15.3933 21.9329 14.0785 21.9354 12.928 21.4258C12.8656 21.3975 12.7969 21.384 12.7295 21.384H12.2713C9.974 21.384 8.10436 23.1908 8.10436 25.4025L7.9999 28.1274C7.99491 28.3822 8.20363 28.5926 8.46709 28.5988H8.47727C8.73691 28.5988 8.94945 28.3982 8.95454 28.1471L9.05891 25.4123C9.05891 23.7003 10.4996 22.3071 12.2713 22.3071H12.6276C13.9716 22.872 15.5002 22.8695 16.8327 22.3071H17.1904C18.9607 22.3071 20.4027 23.7003 20.4027 25.4025L20.2971 28.1274C20.292 28.3822 20.5007 28.5926 20.7642 28.5988Z" fill="#00B6C1"/>
</g>
<mask id="mask1" mask-type="alpha" maskUnits="userSpaceOnUse" x="21" y="13" width="14" height="16">
<path fill-rule="evenodd" clip-rule="evenodd" d="M21.7051 13H34.6696V28.5985H21.7051V13Z" fill="white"/>
</mask>
<g mask="url(#mask1)">
<path fill-rule="evenodd" clip-rule="evenodd" d="M28.2374 20.7182C26.1015 20.7182 24.3635 18.9877 24.3635 16.8597C24.3635 14.7317 26.1015 13 28.2374 13C30.3732 13 32.1112 14.7317 32.1112 16.8597C32.1112 18.9877 30.3732 20.7182 28.2374 20.7182ZM28.2374 13.9231C26.613 13.9231 25.29 15.24 25.29 16.8597C25.29 18.4782 26.613 19.7951 28.2374 19.7951C29.8618 19.7951 31.1848 18.4782 31.1848 16.8597C31.1848 15.24 29.8618 13.9231 28.2374 13.9231ZM34.0939 28.5988H34.1038C34.3558 28.5988 34.5621 28.3982 34.567 28.1471L34.6695 25.4123C34.6695 23.1908 32.8549 21.384 30.6252 21.384H30.1792C30.1125 21.384 30.0471 21.3975 29.9865 21.4258C28.881 21.9329 27.6049 21.9354 26.4882 21.4258C26.4277 21.3975 26.361 21.384 26.2955 21.384H25.8508C23.6211 21.384 21.8064 23.1908 21.8064 25.4025L21.705 28.1274C21.7002 28.3822 21.9028 28.5926 22.1585 28.5988H22.1684C22.4204 28.5988 22.6267 28.3982 22.6316 28.1471L22.7329 25.4123C22.7329 23.7003 24.1312 22.3071 25.8508 22.3071H26.1967C27.5011 22.872 28.9847 22.8695 30.2781 22.3071H30.6252C32.3435 22.3071 33.7431 23.7003 33.7431 25.4025L33.6405 28.1274C33.6356 28.3822 33.8382 28.5926 34.0939 28.5988Z" fill="#00B6C1"/>
</g>
</svg>
