<svg width="42" height="42" viewBox="0 0 42 42" fill="none" xmlns="http://www.w3.org/2000/svg">
<circle cx="21" cy="21" r="20" fill="#1600FF" stroke="#1600FF"/>
<mask id="mask0" mask-type="alpha" maskUnits="userSpaceOnUse" x="14" y="13" width="14" height="16">
<path fill-rule="evenodd" clip-rule="evenodd" d="M14 13H28V29H14V13Z" fill="white"/>
</mask>
<g mask="url(#mask0)">
<path fill-rule="evenodd" clip-rule="evenodd" d="M21.0541 20.9167C18.7477 20.9167 16.8708 19.1417 16.8708 16.959C16.8708 14.7762 18.7477 13 21.0541 13C23.3605 13 25.2373 14.7762 25.2373 16.959C25.2373 19.1417 23.3605 20.9167 21.0541 20.9167ZM21.0541 13.9468C19.2999 13.9468 17.8713 15.2976 17.8713 16.959C17.8713 18.6191 19.2999 19.9699 21.0541 19.9699C22.8082 19.9699 24.2369 18.6191 24.2369 16.959C24.2369 15.2976 22.8082 13.9468 21.0541 13.9468ZM27.3783 29H27.389C27.6611 29 27.8839 28.7942 27.8892 28.5367L27.9999 25.7316C27.9999 23.4529 26.0404 21.5997 23.6326 21.5997H23.151C23.079 21.5997 23.0083 21.6135 22.9429 21.6426C21.7491 22.1627 20.3711 22.1652 19.1652 21.6426C19.0998 21.6135 19.0278 21.5997 18.9571 21.5997H18.4769C16.0691 21.5997 14.1096 23.4529 14.1096 25.7215L14.0001 28.5165C13.9949 28.7778 14.2136 28.9937 14.4897 29H14.5004C14.7725 29 14.9953 28.7942 15.0006 28.5367L15.11 25.7316C15.11 23.9755 16.6201 22.5465 18.4769 22.5465H18.8504C20.259 23.1259 21.8611 23.1234 23.2577 22.5465H23.6326C25.4881 22.5465 26.9995 23.9755 26.9995 25.7215L26.8887 28.5165C26.8834 28.7778 27.1022 28.9937 27.3783 29Z" fill="white"/>
</g>
</svg>
