<svg width="42" height="42" viewBox="0 0 42 42" fill="none" xmlns="http://www.w3.org/2000/svg">
<circle cx="21" cy="21" r="20" fill="white" stroke="#00B6C1"/>
<mask id="mask0" mask-type="alpha" maskUnits="userSpaceOnUse" x="13" y="4" width="14" height="16">
<path fill-rule="evenodd" clip-rule="evenodd" d="M13 4H27V20H13V4Z" fill="#00B6C1"/>
</mask>
<g mask="url(#mask0)">
<path fill-rule="evenodd" clip-rule="evenodd" d="M20.0541 11.9167C17.7477 11.9167 15.8708 10.1417 15.8708 7.95897C15.8708 5.77623 17.7477 4 20.0541 4C22.3605 4 24.2373 5.77623 24.2373 7.95897C24.2373 10.1417 22.3605 11.9167 20.0541 11.9167ZM20.0541 4.94682C18.2999 4.94682 16.8713 6.29762 16.8713 7.95897C16.8713 9.61906 18.2999 10.9699 20.0541 10.9699C21.8082 10.9699 23.2369 9.61906 23.2369 7.95897C23.2369 6.29762 21.8082 4.94682 20.0541 4.94682ZM26.3783 20H26.389C26.6611 20 26.8839 19.7942 26.8892 19.5367L26.9999 16.7316C26.9999 14.4529 25.0404 12.5997 22.6326 12.5997H22.151C22.079 12.5997 22.0083 12.6135 21.9429 12.6426C20.7491 13.1627 19.3711 13.1652 18.1652 12.6426C18.0998 12.6135 18.0278 12.5997 17.9571 12.5997H17.4769C15.0691 12.5997 13.1096 14.4529 13.1096 16.7215L13.0001 19.5165C12.9949 19.7778 13.2136 19.9937 13.4897 20H13.5004C13.7725 20 13.9953 19.7942 14.0006 19.5367L14.11 16.7316C14.11 14.9755 15.6201 13.5465 17.4769 13.5465H17.8504C19.259 14.1259 20.8611 14.1234 22.2577 13.5465H22.6326C24.4881 13.5465 25.9995 14.9755 25.9995 16.7215L25.8887 19.5165C25.8834 19.7778 26.1022 19.9937 26.3783 20Z" fill="#00B6C1"/>
</g>
<mask id="mask1" mask-type="alpha" maskUnits="userSpaceOnUse" x="7" y="19" width="14" height="16">
<path fill-rule="evenodd" clip-rule="evenodd" d="M7 19H20.3574V34.5985H7V19Z" fill="#00B6C1"/>
</mask>
<g mask="url(#mask1)">
<path fill-rule="evenodd" clip-rule="evenodd" d="M13.7302 26.7182C11.5296 26.7182 9.73891 24.9877 9.73891 22.8597C9.73891 20.7317 11.5296 19 13.7302 19C15.9307 19 17.7215 20.7317 17.7215 22.8597C17.7215 24.9877 15.9307 26.7182 13.7302 26.7182ZM13.7302 19.9231C12.0565 19.9231 10.6935 21.24 10.6935 22.8597C10.6935 24.4782 12.0565 25.7951 13.7302 25.7951C15.4038 25.7951 16.7669 24.4782 16.7669 22.8597C16.7669 21.24 15.4038 19.9231 13.7302 19.9231ZM19.7642 34.5988H19.7744C20.034 34.5988 20.2465 34.3982 20.2516 34.1471L20.3573 31.4123C20.3573 29.1908 18.4876 27.384 16.1904 27.384H15.7309C15.6622 27.384 15.5947 27.3975 15.5324 27.4258C14.3933 27.9329 13.0785 27.9354 11.928 27.4258C11.8656 27.3975 11.7969 27.384 11.7295 27.384H11.2713C8.974 27.384 7.10436 29.1908 7.10436 31.4025L6.9999 34.1274C6.99491 34.3822 7.20363 34.5926 7.46709 34.5988H7.47727C7.73691 34.5988 7.94945 34.3982 7.95454 34.1471L8.05891 31.4123C8.05891 29.7003 9.49963 28.3071 11.2713 28.3071H11.6276C12.9716 28.872 14.5002 28.8695 15.8327 28.3071H16.1904C17.9607 28.3071 19.4027 29.7003 19.4027 31.4025L19.2971 34.1274C19.292 34.3822 19.5007 34.5926 19.7642 34.5988Z" fill="#00B6C1"/>
</g>
<mask id="mask2" mask-type="alpha" maskUnits="userSpaceOnUse" x="20" y="19" width="14" height="16">
<path fill-rule="evenodd" clip-rule="evenodd" d="M20.7051 19H33.6696V34.5985H20.7051V19Z" fill="#00B6C1"/>
</mask>
<g mask="url(#mask2)">
<path fill-rule="evenodd" clip-rule="evenodd" d="M27.2373 26.7182C25.1015 26.7182 23.3634 24.9877 23.3634 22.8597C23.3634 20.7317 25.1015 19 27.2373 19C29.3731 19 31.1112 20.7317 31.1112 22.8597C31.1112 24.9877 29.3731 26.7182 27.2373 26.7182ZM27.2373 19.9231C25.6129 19.9231 24.2899 21.24 24.2899 22.8597C24.2899 24.4782 25.6129 25.7951 27.2373 25.7951C28.8617 25.7951 30.1847 24.4782 30.1847 22.8597C30.1847 21.24 28.8617 19.9231 27.2373 19.9231ZM33.0938 34.5988H33.1037C33.3557 34.5988 33.562 34.3982 33.567 34.1471L33.6695 31.4123C33.6695 29.1908 31.8548 27.384 29.6251 27.384H29.1792C29.1125 27.384 29.047 27.3975 28.9865 27.4258C27.8809 27.9329 26.6048 27.9354 25.4881 27.4258C25.4276 27.3975 25.3609 27.384 25.2954 27.384H24.8507C22.621 27.384 20.8064 29.1908 20.8064 31.4025L20.705 34.1274C20.7001 34.3822 20.9027 34.5926 21.1584 34.5988H21.1683C21.4203 34.5988 21.6266 34.3982 21.6315 34.1471L21.7328 31.4123C21.7328 29.7003 23.1312 28.3071 24.8507 28.3071H25.1966C26.5011 28.872 27.9847 28.8695 29.278 28.3071H29.6251C31.3434 28.3071 32.743 29.7003 32.743 31.4025L32.6405 34.1274C32.6355 34.3822 32.8381 34.5926 33.0938 34.5988Z" fill="#00B6C1"/>
</g>
</svg>
