<svg width="42" height="42" viewBox="0 0 42 42" fill="none" xmlns="http://www.w3.org/2000/svg">
<circle cx="21" cy="21" r="20" fill="white" stroke="#00B6C1"/>
<mask id="mask0" mask-type="alpha" maskUnits="userSpaceOnUse" x="8" y="19" width="14" height="16">
<path fill-rule="evenodd" clip-rule="evenodd" d="M8 19H21.3574V34.5985H8V19Z" fill="white"/>
</mask>
<g mask="url(#mask0)">
<path fill-rule="evenodd" clip-rule="evenodd" d="M14.7302 26.7182C12.5296 26.7182 10.7389 24.9877 10.7389 22.8597C10.7389 20.7317 12.5296 19 14.7302 19C16.9307 19 18.7215 20.7317 18.7215 22.8597C18.7215 24.9877 16.9307 26.7182 14.7302 26.7182ZM14.7302 19.9231C13.0565 19.9231 11.6935 21.24 11.6935 22.8597C11.6935 24.4782 13.0565 25.7951 14.7302 25.7951C16.4038 25.7951 17.7669 24.4782 17.7669 22.8597C17.7669 21.24 16.4038 19.9231 14.7302 19.9231ZM20.7642 34.5988H20.7744C21.034 34.5988 21.2465 34.3982 21.2516 34.1471L21.3573 31.4123C21.3573 29.1908 19.4876 27.384 17.1904 27.384H16.7309C16.6622 27.384 16.5947 27.3975 16.5324 27.4258C15.3933 27.9329 14.0785 27.9354 12.928 27.4258C12.8656 27.3975 12.7969 27.384 12.7295 27.384H12.2713C9.974 27.384 8.10436 29.1908 8.10436 31.4025L7.9999 34.1274C7.99491 34.3822 8.20363 34.5926 8.46709 34.5988H8.47727C8.73691 34.5988 8.94945 34.3982 8.95454 34.1471L9.05891 31.4123C9.05891 29.7003 10.4996 28.3071 12.2713 28.3071H12.6276C13.9716 28.872 15.5002 28.8695 16.8327 28.3071H17.1904C18.9607 28.3071 20.4027 29.7003 20.4027 31.4025L20.2971 34.1274C20.292 34.3822 20.5007 34.5926 20.7642 34.5988Z" fill="#00B6C1"/>
</g>
<mask id="mask1" mask-type="alpha" maskUnits="userSpaceOnUse" x="21" y="19" width="14" height="16">
<path fill-rule="evenodd" clip-rule="evenodd" d="M21.7051 19H34.6696V34.5985H21.7051V19Z" fill="white"/>
</mask>
<g mask="url(#mask1)">
<path fill-rule="evenodd" clip-rule="evenodd" d="M28.2373 26.7182C26.1015 26.7182 24.3634 24.9877 24.3634 22.8597C24.3634 20.7317 26.1015 19 28.2373 19C30.3731 19 32.1112 20.7317 32.1112 22.8597C32.1112 24.9877 30.3731 26.7182 28.2373 26.7182ZM28.2373 19.9231C26.6129 19.9231 25.2899 21.24 25.2899 22.8597C25.2899 24.4782 26.6129 25.7951 28.2373 25.7951C29.8617 25.7951 31.1847 24.4782 31.1847 22.8597C31.1847 21.24 29.8617 19.9231 28.2373 19.9231ZM34.0938 34.5988H34.1037C34.3557 34.5988 34.562 34.3982 34.567 34.1471L34.6695 31.4123C34.6695 29.1908 32.8548 27.384 30.6251 27.384H30.1792C30.1125 27.384 30.047 27.3975 29.9865 27.4258C28.8809 27.9329 27.6048 27.9354 26.4881 27.4258C26.4276 27.3975 26.3609 27.384 26.2954 27.384H25.8507C23.621 27.384 21.8064 29.1908 21.8064 31.4025L21.705 34.1274C21.7001 34.3822 21.9027 34.5926 22.1584 34.5988H22.1683C22.4203 34.5988 22.6266 34.3982 22.6315 34.1471L22.7328 31.4123C22.7328 29.7003 24.1312 28.3071 25.8507 28.3071H26.1966C27.5011 28.872 28.9847 28.8695 30.278 28.3071H30.6251C32.3434 28.3071 33.743 29.7003 33.743 31.4025L33.6405 34.1274C33.6355 34.3822 33.8381 34.5926 34.0938 34.5988Z" fill="#00B6C1"/>
</g>
<mask id="mask2" mask-type="alpha" maskUnits="userSpaceOnUse" x="8" y="6" width="14" height="16">
<path fill-rule="evenodd" clip-rule="evenodd" d="M8 6H21.3574V21.5985H8V6Z" fill="white"/>
</mask>
<g mask="url(#mask2)">
<path fill-rule="evenodd" clip-rule="evenodd" d="M14.7302 13.7182C12.5296 13.7182 10.7389 11.9877 10.7389 9.85969C10.7389 7.73169 12.5296 6 14.7302 6C16.9307 6 18.7215 7.73169 18.7215 9.85969C18.7215 11.9877 16.9307 13.7182 14.7302 13.7182ZM14.7302 6.92308C13.0565 6.92308 11.6935 8.24 11.6935 9.85969C11.6935 11.4782 13.0565 12.7951 14.7302 12.7951C16.4038 12.7951 17.7669 11.4782 17.7669 9.85969C17.7669 8.24 16.4038 6.92308 14.7302 6.92308ZM20.7642 21.5988H20.7744C21.034 21.5988 21.2465 21.3982 21.2516 21.1471L21.3573 18.4123C21.3573 16.1908 19.4876 14.384 17.1904 14.384H16.7309C16.6622 14.384 16.5947 14.3975 16.5324 14.4258C15.3933 14.9329 14.0785 14.9354 12.928 14.4258C12.8656 14.3975 12.7969 14.384 12.7295 14.384H12.2713C9.974 14.384 8.10436 16.1908 8.10436 18.4025L7.9999 21.1274C7.99491 21.3822 8.20363 21.5926 8.46709 21.5988H8.47727C8.73691 21.5988 8.94945 21.3982 8.95454 21.1471L9.05891 18.4123C9.05891 16.7003 10.4996 15.3071 12.2713 15.3071H12.6276C13.9716 15.872 15.5002 15.8695 16.8327 15.3071H17.1904C18.9607 15.3071 20.4027 16.7003 20.4027 18.4025L20.2971 21.1274C20.292 21.3822 20.5007 21.5926 20.7642 21.5988Z" fill="#00B6C1"/>
</g>
<mask id="mask3" mask-type="alpha" maskUnits="userSpaceOnUse" x="21" y="6" width="14" height="16">
<path fill-rule="evenodd" clip-rule="evenodd" d="M21.7051 6H34.6696V21.5985H21.7051V6Z" fill="white"/>
</mask>
<g mask="url(#mask3)">
<path fill-rule="evenodd" clip-rule="evenodd" d="M28.2373 13.7182C26.1015 13.7182 24.3634 11.9877 24.3634 9.85969C24.3634 7.73169 26.1015 6 28.2373 6C30.3731 6 32.1112 7.73169 32.1112 9.85969C32.1112 11.9877 30.3731 13.7182 28.2373 13.7182ZM28.2373 6.92308C26.6129 6.92308 25.2899 8.24 25.2899 9.85969C25.2899 11.4782 26.6129 12.7951 28.2373 12.7951C29.8617 12.7951 31.1847 11.4782 31.1847 9.85969C31.1847 8.24 29.8617 6.92308 28.2373 6.92308ZM34.0938 21.5988H34.1037C34.3557 21.5988 34.562 21.3982 34.567 21.1471L34.6695 18.4123C34.6695 16.1908 32.8548 14.384 30.6251 14.384H30.1792C30.1125 14.384 30.047 14.3975 29.9865 14.4258C28.8809 14.9329 27.6048 14.9354 26.4881 14.4258C26.4276 14.3975 26.3609 14.384 26.2954 14.384H25.8507C23.621 14.384 21.8064 16.1908 21.8064 18.4025L21.705 21.1274C21.7001 21.3822 21.9027 21.5926 22.1584 21.5988H22.1683C22.4203 21.5988 22.6266 21.3982 22.6315 21.1471L22.7328 18.4123C22.7328 16.7003 24.1312 15.3071 25.8507 15.3071H26.1966C27.5011 15.872 28.9847 15.8695 30.278 15.3071H30.6251C32.3434 15.3071 33.743 16.7003 33.743 18.4025L33.6405 21.1274C33.6355 21.3822 33.8381 21.5926 34.0938 21.5988Z" fill="#00B6C1"/>
</g>
</svg>
