<?xml version="1.0" encoding="UTF-8"?>
<svg width="68px" height="20px" viewBox="0 0 68 20" version="1.1" xmlns="http://www.w3.org/2000/svg" xmlns:xlink="http://www.w3.org/1999/xlink">
    <!-- Generator: Sketch 64 (93537) - https://sketch.com -->
    <title>Group 13</title>
    <desc>Created with Sketch.</desc>
    <defs>
        <polygon id="path-1" points="0.000198373182 0.501846154 16.2198545 0.501846154 16.2198545 20 0.000198373182 20"></polygon>
        <polygon id="path-3" points="0.856392539 0.501846154 16.599 0.501846154 16.599 20 0.856392539 20"></polygon>
        <polygon id="path-5" points="0.219034737 0.501846154 16.4386909 0.501846154 16.4386909 20 0.219034737 20"></polygon>
        <polygon id="path-7" points="0.0695425387 0.501846154 15.8105 0.501846154 15.8105 20 0.0695425387 20"></polygon>
    </defs>
    <g id="Cherapp" stroke="none" stroke-width="1" fill="none" fill-rule="evenodd">
        <g id="dashboard-v2-copy-7" transform="translate(-963.000000, -4133.000000)">
            <g id="Group-26" transform="translate(763.000000, 3884.000000)">
                <g id="Group-13" transform="translate(200.000000, 249.000000)">
                    <g id="Group-3">
                        <mask id="mask-2" fill="white">
                            <use xlink:href="#path-1"></use>
                        </mask>
                        <g id="Clip-2"></g>
                        <path d="M8.17267273,1.65569231 C6.1404,1.65569231 4.48521818,3.30184615 4.48521818,5.32646154 C4.48521818,7.34953846 6.1404,8.99569231 8.17267273,8.99569231 C10.2049455,8.99569231 11.8601273,7.34953846 11.8601273,5.32646154 C11.8601273,3.30184615 10.2049455,1.65569231 8.17267273,1.65569231 M8.17267273,10.1495385 C5.50058182,10.1495385 3.32612727,7.98646154 3.32612727,5.32646154 C3.32612727,2.66646154 5.50058182,0.501846154 8.17267273,0.501846154 C10.8447636,0.501846154 13.0192182,2.66646154 13.0192182,5.32646154 C13.0192182,7.98646154 10.8447636,10.1495385 8.17267273,10.1495385 M15.5120364,20.0003077 L15.4996727,20.0003077 C15.1797636,19.9926154 14.9263091,19.7295385 14.9324909,19.4110769 L15.0607636,16.0049231 C15.0607636,13.8772308 13.3097636,12.1356923 11.1600364,12.1356923 L10.7257636,12.1356923 C9.10767273,12.8387692 7.25158182,12.8418462 5.61958182,12.1356923 L5.18685455,12.1356923 C3.03558182,12.1356923 1.28612727,13.8772308 1.28612727,16.0172308 L1.1594,19.4356923 C1.15321818,19.7495385 0.895127273,20.0003077 0.579854545,20.0003077 L0.567490909,20.0003077 C0.247581818,19.9926154 -0.00587272727,19.7295385 0.000198373182,19.4110769 L0.127036364,16.0049231 C0.127036364,13.2403077 2.39730909,10.9818462 5.18685455,10.9818462 L5.74321818,10.9818462 C5.82512727,10.9818462 5.90858182,10.9987692 5.98430909,11.0341538 C7.3814,11.6710769 8.97785455,11.668 10.3610364,11.0341538 C10.4367636,10.9987692 10.5186727,10.9818462 10.6021273,10.9818462 L11.1600364,10.9818462 C13.9495818,10.9818462 16.2198545,13.2403077 16.2198545,16.0172308 L16.0915818,19.4356923 C16.0854,19.7495385 15.8273091,20.0003077 15.5120364,20.0003077" id="Fill-1" fill="#000000" mask="url(#mask-2)"></path>
                    </g>
                    <g id="Group-6" transform="translate(17.000000, 0.000000)">
                        <mask id="mask-4" fill="white">
                            <use xlink:href="#path-3"></use>
                        </mask>
                        <g id="Clip-5"></g>
                        <path d="M8.7885,1.65569231 C6.816,1.65569231 5.2095,3.30184615 5.2095,5.32646154 C5.2095,7.34953846 6.816,8.99569231 8.7885,8.99569231 C10.761,8.99569231 12.3675,7.34953846 12.3675,5.32646154 C12.3675,3.30184615 10.761,1.65569231 8.7885,1.65569231 M8.7885,10.1495385 C6.195,10.1495385 4.0845,7.98646154 4.0845,5.32646154 C4.0845,2.66646154 6.195,0.501846154 8.7885,0.501846154 C11.382,0.501846154 13.4925,2.66646154 13.4925,5.32646154 C13.4925,7.98646154 11.382,10.1495385 8.7885,10.1495385 M15.912,20.0003077 L15.9,20.0003077 C15.5895,19.9926154 15.3435,19.7295385 15.3495,19.4110769 L15.474,16.0049231 C15.474,13.8772308 13.7745,12.1356923 11.688,12.1356923 L11.2665,12.1356923 C9.696,12.8387692 7.8945,12.8418462 6.3105,12.1356923 L5.8905,12.1356923 C3.8025,12.1356923 2.1045,13.8772308 2.1045,16.0172308 L1.9815,19.4356923 C1.9755,19.7495385 1.725,20.0003077 1.419,20.0003077 L1.407,20.0003077 C1.0965,19.9926154 0.8505,19.7295385 0.856392539,19.4110769 L0.9795,16.0049231 C0.9795,13.2403077 3.183,10.9818462 5.8905,10.9818462 L6.4305,10.9818462 C6.51,10.9818462 6.591,10.9987692 6.6645,11.0341538 C8.0205,11.6710769 9.57,11.668 10.9125,11.0341538 C10.986,10.9987692 11.0655,10.9818462 11.1465,10.9818462 L11.688,10.9818462 C14.3955,10.9818462 16.599,13.2403077 16.599,16.0172308 L16.4745,19.4356923 C16.4685,19.7495385 16.218,20.0003077 15.912,20.0003077" id="Fill-4" fill="#1600FF" mask="url(#mask-4)"></path>
                    </g>
                    <g id="Group-9" transform="translate(34.000000, 0.000000)">
                        <mask id="mask-6" fill="white">
                            <use xlink:href="#path-5"></use>
                        </mask>
                        <g id="Clip-8"></g>
                        <path d="M8.39150909,1.65569231 C6.35923636,1.65569231 4.70405455,3.30184615 4.70405455,5.32646154 C4.70405455,7.34953846 6.35923636,8.99569231 8.39150909,8.99569231 C10.4237818,8.99569231 12.0789636,7.34953846 12.0789636,5.32646154 C12.0789636,3.30184615 10.4237818,1.65569231 8.39150909,1.65569231 M8.39150909,10.1495385 C5.71941818,10.1495385 3.54496364,7.98646154 3.54496364,5.32646154 C3.54496364,2.66646154 5.71941818,0.501846154 8.39150909,0.501846154 C11.0636,0.501846154 13.2380545,2.66646154 13.2380545,5.32646154 C13.2380545,7.98646154 11.0636,10.1495385 8.39150909,10.1495385 M15.7308727,20.0003077 L15.7185091,20.0003077 C15.3986,19.9926154 15.1451455,19.7295385 15.1513273,19.4110769 L15.2796,16.0049231 C15.2796,13.8772308 13.5286,12.1356923 11.3788727,12.1356923 L10.9446,12.1356923 C9.32650909,12.8387692 7.47041818,12.8418462 5.83841818,12.1356923 L5.40569091,12.1356923 C3.25441818,12.1356923 1.50496364,13.8772308 1.50496364,16.0172308 L1.37823636,19.4356923 C1.37205455,19.7495385 1.11396364,20.0003077 0.798690909,20.0003077 L0.786327273,20.0003077 C0.466418182,19.9926154 0.212963636,19.7295385 0.219034737,19.4110769 L0.345872727,16.0049231 C0.345872727,13.2403077 2.61614545,10.9818462 5.40569091,10.9818462 L5.96205455,10.9818462 C6.04396364,10.9818462 6.12741818,10.9987692 6.20314545,11.0341538 C7.60023636,11.6710769 9.19669091,11.668 10.5798727,11.0341538 C10.6556,10.9987692 10.7375091,10.9818462 10.8209636,10.9818462 L11.3788727,10.9818462 C14.1684182,10.9818462 16.4386909,13.2403077 16.4386909,16.0172308 L16.3104182,19.4356923 C16.3042364,19.7495385 16.0461455,20.0003077 15.7308727,20.0003077" id="Fill-7" fill="#1600FF" mask="url(#mask-6)"></path>
                    </g>
                    <g id="Group-12" transform="translate(52.000000, 0.000000)">
                        <mask id="mask-8" fill="white">
                            <use xlink:href="#path-7"></use>
                        </mask>
                        <g id="Clip-11"></g>
                        <path d="M8.00165,1.65569231 C6.02915,1.65569231 4.42265,3.30184615 4.42265,5.32646154 C4.42265,7.34953846 6.02915,8.99569231 8.00165,8.99569231 C9.97415,8.99569231 11.58065,7.34953846 11.58065,5.32646154 C11.58065,3.30184615 9.97415,1.65569231 8.00165,1.65569231 M8.00165,10.1495385 C5.40815,10.1495385 3.29765,7.98646154 3.29765,5.32646154 C3.29765,2.66646154 5.40815,0.501846154 8.00165,0.501846154 C10.59515,0.501846154 12.70565,2.66646154 12.70565,5.32646154 C12.70565,7.98646154 10.59515,10.1495385 8.00165,10.1495385 M15.12515,20.0003077 L15.11315,20.0003077 C14.80265,19.9926154 14.55665,19.7295385 14.56265,19.4110769 L14.68715,16.0049231 C14.68715,13.8772308 12.98765,12.1356923 10.90115,12.1356923 L10.47965,12.1356923 C8.90915,12.8387692 7.10765,12.8418462 5.52365,12.1356923 L5.10365,12.1356923 C3.01565,12.1356923 1.31765,13.8772308 1.31765,16.0172308 L1.19465,19.4356923 C1.18865,19.7495385 0.93815,20.0003077 0.63215,20.0003077 L0.62015,20.0003077 C0.30965,19.9926154 0.06365,19.7295385 0.0695425387,19.4110769 L0.19265,16.0049231 C0.19265,13.2403077 2.39615,10.9818462 5.10365,10.9818462 L5.64365,10.9818462 C5.72315,10.9818462 5.80415,10.9987692 5.87765,11.0341538 C7.23365,11.6710769 8.78315,11.668 10.12565,11.0341538 C10.19915,10.9987692 10.27865,10.9818462 10.35965,10.9818462 L10.90115,10.9818462 C13.60865,10.9818462 15.81215,13.2403077 15.81215,16.0172308 L15.68765,19.4356923 C15.68165,19.7495385 15.43115,20.0003077 15.12515,20.0003077" id="Fill-10" fill="#1600FF" mask="url(#mask-8)"></path>
                    </g>
                </g>
            </g>
        </g>
    </g>
</svg>