<?xml version="1.0" encoding="UTF-8"?>
<svg width="26px" height="22px" viewBox="0 0 26 22" version="1.1" xmlns="http://www.w3.org/2000/svg" xmlns:xlink="http://www.w3.org/1999/xlink">
    <!-- Generator: Sketch 64 (93537) - https://sketch.com -->
    <title>Shape</title>
    <desc>Created with Sketch.</desc>
    <g id="Cherapp" stroke="none" stroke-width="1" fill="none" fill-rule="evenodd">
        <g id="dashboard-v2-copy-7" transform="translate(-414.000000, -5828.000000)" fill="#1600FF" fill-rule="nonzero">
            <g id="Group-19" transform="translate(145.000000, 5102.000000)">
                <g id="Group-18" transform="translate(269.000000, 717.000000)">
                    <g id="comment-dots-solid" transform="translate(0.000000, 9.000000)">
                        <path d="M13,0 C5.81953125,0 0,4.571875 0,10.2142857 C0,12.65 1.08671875,14.8794643 2.89453125,16.6325893 C2.25976562,19.1075893 0.137109375,21.3125 0.11171875,21.3370536 C0,21.45 -0.03046875,21.6169643 0.035546875,21.7642857 C0.1015625,21.9116071 0.24375,22 0.40625,22 C3.77304687,22 6.296875,20.4383929 7.54609375,19.4758929 C9.20664063,20.0799107 11.05,20.4285714 13,20.4285714 C20.1804687,20.4285714 26,15.8566964 26,10.2142857 C26,4.571875 20.1804687,0 13,0 Z M6.5,11.7857143 C5.60117188,11.7857143 4.875,11.0834821 4.875,10.2142857 C4.875,9.34508929 5.60117188,8.64285714 6.5,8.64285714 C7.39882812,8.64285714 8.125,9.34508929 8.125,10.2142857 C8.125,11.0834821 7.39882812,11.7857143 6.5,11.7857143 Z M13,11.7857143 C12.1011719,11.7857143 11.375,11.0834821 11.375,10.2142857 C11.375,9.34508929 12.1011719,8.64285714 13,8.64285714 C13.8988281,8.64285714 14.625,9.34508929 14.625,10.2142857 C14.625,11.0834821 13.8988281,11.7857143 13,11.7857143 Z M19.5,11.7857143 C18.6011719,11.7857143 17.875,11.0834821 17.875,10.2142857 C17.875,9.34508929 18.6011719,8.64285714 19.5,8.64285714 C20.3988281,8.64285714 21.125,9.34508929 21.125,10.2142857 C21.125,11.0834821 20.3988281,11.7857143 19.5,11.7857143 Z" id="Shape"></path>
                    </g>
                </g>
            </g>
        </g>
    </g>
</svg>