<svg width="40" height="40" viewBox="0 0 40 40" fill="none" xmlns="http://www.w3.org/2000/svg">
<path d="M39.3791 15.0009H35.0044H33.1275V9.99829H33.7555C34.1013 9.99829 34.3835 9.71606 34.3835 9.37032V6.2516C34.3835 6.08931 34.32 5.92703 34.2 5.80708L31.9492 3.55624L32.4855 1.39713C32.5419 1.18545 32.4784 0.959662 32.3232 0.804432L31.6952 0.176455C31.5752 0.0635608 31.42 5.75352e-05 31.2507 5.75352e-05H29.3738C29.2115 5.75352e-05 29.0492 0.0635608 28.9293 0.183511L28.3013 0.811488C28.1461 0.966718 28.0826 1.19251 28.139 1.40419L28.5765 3.15405C28.4777 3.18228 28.3789 3.23872 28.3013 3.31634L25.359 6.25866H23.7432V5.62362H24.3711C24.6252 5.62362 24.8509 5.46839 24.9497 5.23555C25.0485 5.0027 24.9921 4.73458 24.8157 4.55112L23.7502 3.48568V0.628034C23.7502 0.282294 23.468 5.75352e-05 23.1222 5.75352e-05H21.2454C20.9772 5.75352e-05 20.7515 0.1694 20.6597 0.402245L20.4339 0.176455C20.187 -0.0705017 19.7919 -0.0705017 19.552 0.176455L15.1773 4.55112C15.0009 4.72752 14.9444 4.99565 15.0432 5.23555C15.142 5.46839 15.3678 5.62362 15.6218 5.62362H16.2498V6.2516H14.634L11.6917 3.30928C11.614 3.23167 11.5223 3.18228 11.4165 3.147L11.8539 1.39713C11.9104 1.18545 11.8469 0.959662 11.6917 0.804432L11.0637 0.176455C10.9508 0.0635608 10.7885 5.75352e-05 10.6262 5.75352e-05H8.74934C8.58705 5.75352e-05 8.42477 0.0635608 8.30482 0.183511L7.67684 0.811488C7.52161 0.966718 7.45811 1.19251 7.51455 1.40419L8.0508 3.5633L5.80702 5.80708C5.69413 5.92703 5.62357 6.08226 5.62357 6.2516V9.37737C5.62357 9.72311 5.9058 10.0054 6.25154 10.0054H6.87952V15.008H5.00265H0.627977C0.282237 15.0009 0 15.2832 0 15.6289V29.3809C0 29.7266 0.282237 30.0089 0.627977 30.0089H5.00265H7.24643L17.0612 39.8307C17.1812 39.9507 17.3364 40.0142 17.5057 40.0142C17.668 40.0142 17.8303 39.9507 17.9503 39.8307L20.0035 37.7774L22.0709 39.8307C22.1909 39.9507 22.3531 40.0142 22.5084 40.0142C22.6707 40.0142 22.8259 39.9507 22.9529 39.8307L32.4219 30.3405L32.7606 30.0018H35.0044H39.3791C39.7248 30.0018 40.0071 29.7196 40.0071 29.3738V15.6289C40 15.2832 39.7248 15.0009 39.3791 15.0009ZM34.3764 28.7529H32.7606L24.1947 20.187C24.0748 20.0671 23.9196 20.0036 23.7502 20.0036C23.5809 20.0036 23.4256 20.0671 23.3057 20.187L20.8079 22.6848C20.5609 22.9318 20.5609 23.3269 20.8079 23.5668L24.1171 26.8761L22.6918 28.3013C22.6918 28.3013 22.6848 28.3013 22.6848 28.3084L21.2524 29.7408L14.1965 22.6848L13.3851 21.8734L19.0086 16.2498H27.4969H28.7458H31.2436H32.4925H34.3694V28.7529H34.3764ZM13.3851 34.3765L18.7546 29.0069L20.1729 30.4252L20.3704 30.6227L15.0009 35.9923L13.3851 34.3765ZM10.8873 31.8787L16.2568 26.5091L17.8726 28.125L12.5031 33.4945L10.8873 31.8787ZM8.38243 29.3738L13.752 24.0043L15.3678 25.6201L9.99824 30.9897L8.38243 29.3738ZM16.9977 8.7494H18.7546H21.2524H23.0094L26.0222 9.95596C26.0928 9.98418 26.1775 9.99829 26.2551 9.99829H26.883V15.0009H18.7476H13.124V9.99829H13.752C13.8296 9.99829 13.9072 9.98418 13.9848 9.95596L16.9977 8.7494ZM20.6244 7.5005H19.3756V5.0027H20.6244V7.5005ZM29.5502 15.0009L30.0018 13.2017L30.4533 15.0009H29.5502ZM30.5733 6.6679L30.0018 7.23943L29.4302 6.6679L29.8889 4.37473H30.1147L30.5733 6.6679ZM29.6349 1.24896H30.9896L31.1801 1.43946L30.7568 3.12583H30.6227H29.8606L29.4373 1.43946L29.6349 1.24896ZM25.6271 7.5005C25.7894 7.5005 25.9517 7.437 26.0716 7.31704L28.52 4.86864L28.1461 6.75257C28.1037 6.95719 28.1672 7.16887 28.3154 7.31704L29.5643 8.56594C29.6842 8.68589 29.8465 8.7494 30.0088 8.7494C30.1711 8.7494 30.3263 8.68589 30.4533 8.56594L31.7022 7.31704C31.8504 7.16887 31.9139 6.95719 31.8716 6.75257L31.4906 4.86864L33.1275 6.50561V8.7494H32.4996C32.1538 8.7494 31.8716 9.03163 31.8716 9.37737V15.0009H31.7375L30.6086 10.471C30.538 10.1959 30.2911 9.99829 30.0018 9.99829C29.7125 9.99829 29.4655 10.1959 29.395 10.471L28.266 15.0009H28.1319V9.37737C28.1319 9.03163 27.8497 8.7494 27.504 8.7494H26.375L23.7573 7.69806V7.49344H25.6271V7.5005ZM20.0035 1.51002L20.815 2.32145C20.9914 2.49785 21.2595 2.5543 21.4994 2.45552C21.7252 2.35673 21.8733 2.13094 21.8733 1.87693V1.24896H22.5013V3.74675C22.5013 3.90904 22.5648 4.07132 22.6848 4.19127L22.9106 4.41706C22.6707 4.50879 22.5013 4.73458 22.5013 5.0027V6.87958V7.50756H21.8733V4.37473C21.8733 4.02899 21.5911 3.74675 21.2454 3.74675H18.7476C18.4018 3.74675 18.1196 4.02899 18.1196 4.37473V7.5005H17.4987V6.87252V5.0027C17.4987 4.73458 17.3293 4.50879 17.0965 4.41706L20.0035 1.51002ZM10.5698 6.6679L9.99824 7.23943L9.42671 6.6679L9.88534 4.37473H10.1111L10.5698 6.6679ZM9.01041 1.24896H10.3651L10.5557 1.43946L10.1323 3.12583H9.37026H9.2362L8.81284 1.43946L9.01041 1.24896ZM7.50044 8.7494H6.87246V6.51267L8.50944 4.8757L8.13547 6.75963C8.09314 6.96425 8.15664 7.17593 8.30482 7.3241L9.55371 8.573C9.67366 8.69295 9.83595 8.75645 9.99824 8.75645C10.1605 8.75645 10.3158 8.69295 10.4428 8.573L11.6917 7.3241C11.8398 7.17593 11.9033 6.96425 11.861 6.75963L11.487 4.86864L13.9354 7.31704C14.0554 7.437 14.2106 7.5005 14.38 7.5005H16.2568V7.70512L13.6391 8.75645H12.5101C12.1644 8.75645 11.8822 9.03869 11.8822 9.38443V15.008H11.7481L10.6192 10.4781C10.5486 10.2029 10.3016 10.0054 10.0123 10.0054C9.72306 10.0054 9.4761 10.2029 9.40554 10.4781L8.27659 15.008H8.14253V9.38443C8.12842 9.03163 7.84618 8.7494 7.50044 8.7494ZM10.4498 15.0009H9.55371L10.0053 13.2017L10.4498 15.0009ZM1.2489 16.2498H4.37467V28.7529H1.2489V16.2498ZM5.62357 16.2498H7.50044H8.74934H11.2471H12.496H17.2376L12.0515 21.4359C11.8046 21.6829 11.8046 22.078 12.0515 22.3179L12.8629 23.1294L7.23937 28.7529H5.62357V16.2498ZM17.4987 38.4972L15.8829 36.8813L21.7605 31.0038L23.1293 29.6349L24.7451 31.2507L19.559 36.4368L19.552 36.4439L17.4987 38.4972ZM22.5013 38.4972L20.8785 36.8813L25.7682 31.9916L26.0716 31.6882C26.0857 31.6741 26.0998 31.66 26.114 31.6388C26.2057 31.5259 26.2551 31.3918 26.2551 31.2437C26.2551 31.0814 26.1916 30.9191 26.0716 30.7991L24.0113 28.7388L25.4436 27.3065C25.5636 27.1865 25.6271 27.0313 25.6271 26.8619C25.6271 26.6997 25.5636 26.5374 25.4436 26.4174L22.1344 23.1082L23.7502 21.4924L31.6176 29.3597L30.8061 30.1712C30.7991 30.1782 30.7991 30.1782 30.7991 30.1853L22.5013 38.4972ZM38.7511 28.7529H35.6253V16.2498H38.7511V28.7529Z" fill="#1600FF"/>
</svg>
