<svg width="40" height="40" viewBox="0 0 40 40" fill="none" xmlns="http://www.w3.org/2000/svg">
<path d="M39.3791 7.49339C39.7248 7.49339 40 7.2182 40 6.87246V3.74669C40 2.75181 39.6119 1.80632 38.9063 1.09367C38.4548 0.642089 37.8903 0.31046 37.2764 0.141118C37.1635 0.0493914 37.0295 0 36.8813 0H36.2533H9.99824C7.93085 0 6.25154 1.67931 6.25154 3.74669V32.5066H0.620921C0.275181 32.5066 0 32.7889 0 33.1275V36.2533C0 37.2482 0.388076 38.1937 1.09367 38.9063C1.60875 39.4214 2.26495 39.7742 2.99171 39.9224C3.22455 39.9718 3.47857 40 3.74669 40H6.87246H24.3782H39.3791C39.6331 40 39.8589 39.8518 39.9506 39.619C40.0494 39.3861 39.9929 39.118 39.8165 38.9416L37.4952 36.6202V27.504C37.4952 24.731 36.0628 22.1415 33.7414 20.6527V7.49339H39.3791ZM38.7582 3.74669V6.25154H33.7485V3.74669C33.7485 2.36373 34.8703 1.24184 36.2533 1.24184C36.4368 1.24184 36.5991 1.25595 36.7472 1.29123H36.7543C37.2411 1.39002 37.6786 1.62286 38.0243 1.9686C38.4971 2.4484 38.7582 3.07638 38.7582 3.74669ZM7.49339 3.74669C7.49339 2.36373 8.61528 1.24184 9.99824 1.24184H33.4733C33.4451 1.27007 33.4168 1.30534 33.3886 1.34062C33.3815 1.34768 33.3745 1.36179 33.3604 1.36885C33.3251 1.41118 33.2898 1.46058 33.2545 1.50291C33.2475 1.51702 33.2334 1.53113 33.2263 1.54525C33.1981 1.58053 33.1769 1.61581 33.1558 1.65108C33.1417 1.67225 33.1346 1.68636 33.1205 1.70753C33.0993 1.73576 33.0781 1.77104 33.064 1.79926C33.0499 1.82043 33.0358 1.84159 33.0288 1.86276C33.0146 1.89099 32.9935 1.91921 32.9794 1.95449C32.9653 1.97566 32.9582 1.99682 32.9441 2.02505C32.93 2.05327 32.9159 2.0815 32.9017 2.11678C32.8876 2.13794 32.8806 2.16617 32.8665 2.18733C32.8524 2.21556 32.8382 2.24378 32.8241 2.27906C32.8171 2.30023 32.803 2.32845 32.7959 2.34962C32.7818 2.37784 32.7747 2.41312 32.7606 2.44135C32.7536 2.46957 32.7395 2.49074 32.7324 2.51896C32.7183 2.54719 32.7112 2.58247 32.7042 2.61069C32.6971 2.63891 32.6901 2.66008 32.683 2.6883C32.676 2.71653 32.6618 2.75181 32.6548 2.78003C32.6477 2.80826 32.6407 2.82942 32.6336 2.85765C32.6266 2.89293 32.6195 2.92115 32.6125 2.95643C32.6054 2.98465 32.5983 3.00582 32.5983 3.03405C32.5913 3.06932 32.5842 3.1046 32.5772 3.13988C32.5701 3.16811 32.5701 3.18928 32.5631 3.2175C32.556 3.25278 32.556 3.28806 32.549 3.32334C32.549 3.34451 32.5419 3.37273 32.5419 3.3939C32.5348 3.43623 32.5348 3.47857 32.5348 3.51385C32.5348 3.53502 32.5348 3.55618 32.5278 3.57735C32.5278 3.64085 32.5207 3.70436 32.5207 3.7608V6.88658V20.0176C32.5207 20.0176 32.5137 20.0176 32.5137 20.0106C32.4996 20.0035 32.4855 19.9965 32.4713 19.9965C32.4078 19.9753 32.3514 19.9471 32.2879 19.9259C32.2667 19.9189 32.2385 19.9047 32.2173 19.8977C32.1609 19.8765 32.1044 19.8554 32.055 19.8412C32.0339 19.8342 32.0127 19.8271 31.9915 19.8201C31.8998 19.7777 31.8222 19.7566 31.7516 19.7283C31.7375 19.7283 31.7305 19.7213 31.7164 19.7213C31.6529 19.7001 31.5893 19.686 31.5188 19.6648C31.4976 19.6578 31.4694 19.6507 31.4482 19.6437C31.3918 19.6296 31.3353 19.6155 31.2789 19.6013C31.2577 19.5943 31.2366 19.5872 31.2083 19.5872C31.1307 19.5661 31.0531 19.552 30.9755 19.5378C30.9684 19.5378 30.9614 19.5378 30.9473 19.5308C30.8767 19.5167 30.8061 19.5026 30.7356 19.4955C30.7144 19.4884 30.6862 19.4884 30.665 19.4814C30.6086 19.4743 30.5521 19.4602 30.4886 19.4532C30.4675 19.4532 30.4392 19.4461 30.4181 19.4461C30.3405 19.4391 30.2558 19.4249 30.1782 19.4179C30.1711 19.4179 30.1711 19.4179 30.1641 19.4179C30.0864 19.4108 30.0159 19.4038 29.9383 19.3967C29.9171 19.3967 29.8889 19.3967 29.8677 19.3897C29.8113 19.3826 29.7478 19.3826 29.6913 19.3826C29.6701 19.3826 29.6419 19.3826 29.6207 19.3826C29.5431 19.3826 29.4585 19.3756 29.3808 19.3756H29.2538L31.7869 15.3255C31.9421 15.0785 31.9069 14.761 31.7022 14.5564C30.9049 13.759 29.6842 13.6461 28.7599 14.2106C27.9979 13.7449 27.0242 13.7449 26.2621 14.2106C25.5001 13.7449 24.5264 13.7449 23.7643 14.2106C22.8471 13.6461 21.6193 13.759 20.822 14.5564C20.6174 14.761 20.5821 15.0785 20.7373 15.3255L23.2704 19.3756H23.1434C23.0376 19.3756 22.9388 19.3756 22.84 19.3826C22.8047 19.3826 22.7765 19.3826 22.7412 19.3897C22.6707 19.3897 22.6072 19.3967 22.5366 19.4038C22.5013 19.4038 22.459 19.4108 22.4237 19.4108C22.3602 19.4179 22.2967 19.4249 22.2332 19.432C22.1909 19.4391 22.1556 19.4391 22.1132 19.4461C22.0497 19.4532 21.9933 19.4602 21.9298 19.4743C21.8875 19.4814 21.8522 19.4884 21.8098 19.4955C21.7463 19.5026 21.6828 19.5167 21.6193 19.5308C21.5841 19.5378 21.5488 19.5449 21.5135 19.552C21.4429 19.5661 21.3653 19.5802 21.2948 19.6013C21.2665 19.6084 21.2454 19.6155 21.2171 19.6155C21.1184 19.6366 21.0196 19.6648 20.9279 19.6931C20.9067 19.7001 20.8855 19.7072 20.8714 19.7072C20.7938 19.7283 20.7162 19.7495 20.6456 19.7777C20.6103 19.7919 20.5821 19.7989 20.5468 19.813C20.4833 19.8342 20.4198 19.8554 20.3634 19.8765C20.3281 19.8906 20.2928 19.9047 20.2575 19.9189C20.2011 19.94 20.1446 19.9612 20.0811 19.9894C20.0459 20.0035 20.0106 20.0176 19.9682 20.0318C19.9118 20.0529 19.8554 20.0811 19.7989 20.1094C19.7636 20.1235 19.7283 20.1446 19.6931 20.1588C19.6296 20.187 19.5731 20.2152 19.5167 20.2434C19.4884 20.2575 19.4532 20.2717 19.4249 20.2928C19.3473 20.3352 19.2768 20.3704 19.1992 20.4128C19.185 20.4198 19.1709 20.4269 19.1568 20.4339C19.0721 20.4833 18.9945 20.5257 18.9099 20.5751C18.8958 20.5539 18.8816 20.5398 18.8675 20.5186C18.8534 20.4974 18.8393 20.4833 18.8252 20.4622C18.804 20.4339 18.7829 20.4128 18.7617 20.3845C18.7476 20.3704 18.7335 20.3493 18.7194 20.3352C18.6982 20.3069 18.677 20.2858 18.6488 20.2575C18.6347 20.2434 18.6206 20.2293 18.6135 20.2152C18.5782 20.1729 18.543 20.1376 18.5006 20.0953C18.4865 20.0811 18.4795 20.0741 18.4653 20.06C18.4583 20.0529 18.4442 20.0388 18.4371 20.0318C17.8374 19.4249 17.0753 19.0439 16.2427 18.9169C16.0522 18.8887 15.8546 18.8746 15.6571 18.8746C15.65 18.8746 15.65 18.8746 15.643 18.8746C14.7186 18.8746 13.8437 19.185 13.1452 19.7636C13.0464 19.8483 12.9476 19.933 12.8559 20.0247L12.7924 20.0882C11.8046 21.076 11.4024 22.4802 11.7128 23.849L12.8206 28.6329C12.8488 28.7599 12.87 28.894 12.87 29.021C12.8771 29.3244 12.8065 29.6207 12.6724 29.8889C12.5595 30.1217 12.3972 30.3263 12.1926 30.5027L9.79362 32.4996H9.39143H7.51455V3.74669H7.49339ZM26.2551 19.3826H24.7239L22.0991 15.1773C22.5084 15.0221 22.9882 15.1067 23.3198 15.4383C23.5597 15.6783 23.9548 15.6783 24.1947 15.4383C24.6393 14.9938 25.3731 14.9938 25.8176 15.4383C26.0575 15.6783 26.4526 15.6783 26.6925 15.4383C27.1371 14.9938 27.8709 14.9938 28.3154 15.4383C28.5553 15.6783 28.9504 15.6783 29.1903 15.4383C29.522 15.1067 30.0018 15.0221 30.411 15.1773L27.7862 19.3826H26.2551ZM22.5084 34.3764V35.0044H8.74228V34.3764C8.74228 34.0307 9.02452 33.7485 9.37026 33.7485H9.99824H21.2524H21.8733C22.2261 33.7485 22.5084 34.0307 22.5084 34.3764ZM17.2376 28.3648C17.1882 28.5835 17.16 28.7952 17.16 29.0139C17.1459 29.7336 17.3787 30.4322 17.8303 30.9967C17.9644 31.166 18.1196 31.3212 18.2889 31.4694L19.5378 32.5066H11.7128L12.9617 31.4623C13.1311 31.3212 13.2863 31.1589 13.4204 30.9896C13.8649 30.4251 14.1048 29.7266 14.0907 29.0069C14.0836 28.7881 14.0624 28.5765 14.0131 28.3577L12.9053 23.5738C12.7007 22.6848 12.9335 21.7746 13.5262 21.0972C13.5685 21.0549 13.6038 21.0055 13.6461 20.9631L13.7097 20.8996C14.2177 20.3916 14.9021 20.1094 15.6218 20.1094H15.6289C16.3556 20.1094 17.033 20.3987 17.541 20.9137C17.5622 20.9349 17.5833 20.9561 17.6116 20.9772C17.8232 21.1889 17.9996 21.4429 18.1196 21.704C18.1196 21.7111 18.1196 21.7111 18.1267 21.7181C18.4089 22.2826 18.4795 22.9458 18.3383 23.5738L17.2376 28.3648ZM3.25278 38.7158H3.24572C2.75886 38.617 2.3214 38.3842 1.97566 38.0385C1.50291 37.5587 1.24184 36.9307 1.24184 36.2604V33.7555H6.87246H7.61334C7.61334 33.7626 7.61334 33.7626 7.61334 33.7696C7.59922 33.812 7.58511 33.8543 7.571 33.8966C7.571 33.9037 7.571 33.9037 7.56394 33.9107C7.54983 33.9531 7.54278 34.0025 7.53572 34.0448C7.53572 34.0519 7.53572 34.0589 7.52867 34.073C7.52161 34.1154 7.51455 34.1648 7.5075 34.2141C7.5075 34.2212 7.5075 34.2283 7.5075 34.2353C7.50044 34.2847 7.50044 34.3341 7.50044 34.3835V35.1173H7.49339C7.45105 35.1314 7.41577 35.1455 7.37343 35.1667C7.36638 35.1667 7.35932 35.1738 7.35227 35.1738C7.31699 35.1879 7.28171 35.209 7.24643 35.2231C7.23937 35.2231 7.23937 35.2302 7.23232 35.2302C7.19704 35.2514 7.16176 35.2725 7.12648 35.2937C7.11942 35.3008 7.11237 35.3008 7.10531 35.3078C7.07003 35.329 7.03475 35.3572 6.99947 35.3784C6.99947 35.3784 6.99242 35.3784 6.99242 35.3854C6.95714 35.4066 6.92891 35.4348 6.90069 35.463C6.89363 35.4701 6.88658 35.4772 6.87952 35.4772C6.8513 35.5054 6.81602 35.5336 6.78779 35.5618C6.78074 35.5689 6.78074 35.5689 6.77368 35.5759C6.74546 35.6042 6.72429 35.6324 6.69607 35.6606C6.68901 35.6677 6.68901 35.6677 6.68195 35.6747C6.65373 35.71 6.63256 35.7382 6.60434 35.7735C6.59728 35.7806 6.59728 35.7876 6.59023 35.7947C6.56906 35.83 6.54084 35.8582 6.51967 35.8935C6.51967 35.8935 6.51967 35.8935 6.51967 35.9005C6.4985 35.9358 6.47733 35.9711 6.45617 36.0134C6.44911 36.0205 6.44911 36.0275 6.44205 36.0416C6.42089 36.0769 6.40677 36.1192 6.38561 36.1545C6.38561 36.1616 6.38561 36.1616 6.37855 36.1686C6.36444 36.2039 6.35033 36.2392 6.33621 36.2815C6.33621 36.2886 6.32916 36.2956 6.32916 36.3027C6.31505 36.345 6.30799 36.3803 6.29388 36.4226C6.29388 36.4297 6.28682 36.4368 6.28682 36.4438C6.27977 36.4791 6.27271 36.5214 6.26566 36.5567C6.26566 36.5638 6.26566 36.5708 6.26566 36.5779C6.2586 36.6202 6.25154 36.6626 6.25154 36.7049C6.25154 36.7119 6.25154 36.7261 6.25154 36.7331C6.25154 36.7754 6.24449 36.8248 6.24449 36.8672V38.744H3.74669C3.56324 38.7582 3.40095 38.744 3.25278 38.7158ZM7.49339 36.8813C7.49339 36.5355 7.77562 36.2533 8.12136 36.2533H23.1222C23.468 36.2533 23.7502 36.5355 23.7502 36.8813V38.7582H7.49339V36.8813ZM36.2604 27.504V36.2604H35.0044C34.6587 36.2604 34.3835 36.5355 34.3835 36.8813C34.3835 37.227 34.6587 37.5022 35.0044 37.5022H36.6202L37.8762 38.7582H24.9991V36.8813C24.9991 36.839 24.9991 36.7896 24.9921 36.7472C24.9921 36.7402 24.9921 36.7261 24.9921 36.719C24.985 36.6767 24.985 36.6343 24.978 36.592C24.978 36.5849 24.978 36.5779 24.978 36.5708C24.9709 36.5355 24.9638 36.4932 24.9568 36.4579C24.9568 36.4509 24.9497 36.4438 24.9497 36.4368C24.9427 36.3944 24.9286 36.3521 24.9144 36.3168C24.9144 36.3098 24.9074 36.3027 24.9074 36.2956C24.8933 36.2604 24.8792 36.218 24.8651 36.1828C24.8651 36.1757 24.8651 36.1757 24.858 36.1686C24.8439 36.1263 24.8227 36.091 24.8016 36.0557C24.7945 36.0487 24.7945 36.0416 24.7874 36.0275C24.7663 35.9922 24.7451 35.9499 24.7239 35.9146C24.7239 35.9146 24.7239 35.9146 24.7239 35.9076C24.7028 35.8723 24.6816 35.837 24.6534 35.8088C24.6463 35.8017 24.6463 35.7947 24.6393 35.7876C24.6181 35.7523 24.5899 35.7241 24.5617 35.6888C24.5546 35.6818 24.5546 35.6818 24.5475 35.6747C24.5264 35.6465 24.4981 35.6183 24.4699 35.5901C24.4629 35.583 24.4629 35.583 24.4558 35.5759C24.4276 35.5477 24.3994 35.5195 24.3641 35.4913C24.357 35.4842 24.35 35.4772 24.3429 35.4772C24.3147 35.4489 24.2794 35.4278 24.2512 35.3995C24.2512 35.3995 24.2441 35.3995 24.2441 35.3925C24.2089 35.3643 24.1736 35.3431 24.1383 35.3219C24.1312 35.3149 24.1242 35.3149 24.1171 35.3078C24.0819 35.2866 24.0466 35.2655 24.0113 35.2443C24.0042 35.2443 24.0042 35.2373 23.9972 35.2373C23.9619 35.2161 23.9266 35.202 23.8913 35.1879C23.8843 35.1808 23.8772 35.1808 23.8702 35.1808C23.8349 35.1667 23.7926 35.1455 23.7502 35.1314H23.7432V34.3976C23.7432 33.4944 23.1011 32.7395 22.2473 32.5631C22.1274 32.5348 22.0004 32.5278 21.8733 32.5278H21.4712L19.0721 30.531C18.5218 30.0723 18.2819 29.3526 18.4442 28.6611L19.552 23.8772C19.5661 23.8278 19.5731 23.7714 19.5872 23.722C19.5872 23.7079 19.5943 23.6867 19.5943 23.6726C19.6013 23.6373 19.6084 23.602 19.6084 23.5597C19.6084 23.5385 19.6155 23.5244 19.6155 23.5033C19.6225 23.468 19.6225 23.4327 19.6296 23.3904C19.6296 23.3763 19.6366 23.3551 19.6366 23.341C19.6437 23.2916 19.6437 23.2422 19.6507 23.1928V23.1857C19.6507 23.1364 19.6578 23.0799 19.6578 23.0305C19.6578 23.0164 19.6578 22.9952 19.6578 22.9811C19.6578 22.9458 19.6578 22.9106 19.6578 22.8682C19.6578 22.8471 19.6578 22.833 19.6578 22.8118C19.6578 22.7765 19.6578 22.7412 19.6507 22.7059C19.6507 22.6918 19.6507 22.6707 19.6507 22.6566C19.6437 22.6072 19.6437 22.5648 19.6366 22.5154C19.6366 22.5084 19.6366 22.5084 19.6366 22.5013C19.6296 22.4519 19.6225 22.3955 19.6155 22.3461C19.6155 22.332 19.6084 22.3108 19.6084 22.2967C19.6013 22.2614 19.5943 22.2261 19.5872 22.1909C19.5802 22.1697 19.5802 22.1556 19.5731 22.1344C19.5661 22.0991 19.559 22.0639 19.552 22.0356C19.5449 22.0215 19.5449 22.0004 19.5378 21.9862C19.5237 21.9439 19.5167 21.9016 19.5026 21.8592C19.5026 21.8522 19.4955 21.8451 19.4955 21.831C19.4814 21.7887 19.4673 21.7463 19.4532 21.6969C19.4673 21.6899 19.4743 21.6828 19.4814 21.6758C19.5096 21.6546 19.5378 21.6405 19.5661 21.6193C19.6084 21.5911 19.6578 21.5629 19.7001 21.5417C19.7283 21.5276 19.7636 21.5064 19.7919 21.4923C19.8342 21.4641 19.8836 21.4429 19.9259 21.4218C19.9541 21.4077 19.9894 21.3865 20.0176 21.3724C20.067 21.3512 20.1094 21.33 20.1588 21.3018C20.187 21.2877 20.2223 21.2736 20.2505 21.2595C20.2999 21.2383 20.3493 21.2171 20.3987 21.196C20.4269 21.1819 20.4551 21.1678 20.4904 21.1607C20.5468 21.1395 20.6033 21.1184 20.6597 21.0972C20.6809 21.0901 20.7091 21.076 20.7303 21.069C20.8079 21.0408 20.8926 21.0125 20.9702 20.9843C20.9772 20.9843 20.9843 20.9772 20.9914 20.9772C21.069 20.9561 21.1395 20.9279 21.2171 20.9067C21.2454 20.8996 21.2736 20.8926 21.3018 20.8855C21.3583 20.8714 21.4147 20.8573 21.4712 20.8432C21.5064 20.8361 21.5347 20.8291 21.5699 20.822C21.6193 20.8079 21.6758 20.8008 21.7252 20.7867C21.7605 20.7797 21.7957 20.7726 21.831 20.7656C21.8804 20.7585 21.9298 20.7444 21.9792 20.7373C22.0145 20.7303 22.0497 20.7232 22.085 20.7232C22.1344 20.7162 22.1838 20.7091 22.2403 20.7021C22.2755 20.695 22.3108 20.695 22.3461 20.688C22.3955 20.6809 22.4519 20.6738 22.5084 20.6738C22.5437 20.6738 22.5719 20.6668 22.6072 20.6668C22.6636 20.6597 22.7271 20.6597 22.7836 20.6597C22.8118 20.6597 22.84 20.6597 22.8682 20.6527C22.9529 20.6527 23.0446 20.6456 23.1293 20.6456H24.3782H24.7522L22.0639 23.3339C21.824 23.5738 21.824 23.969 22.0639 24.2089C22.3038 24.4488 22.6989 24.4488 22.9388 24.2089L26.248 20.8996L29.5572 24.2089C29.6772 24.3288 29.8395 24.3923 29.9947 24.3923C30.157 24.3923 30.3122 24.3288 30.4322 24.2089C30.6721 23.969 30.6721 23.5738 30.4322 23.3339L27.7439 20.6456H28.1178H29.3667C29.4443 20.6456 29.522 20.6456 29.5925 20.6527C29.7548 20.6597 29.9171 20.6668 30.0723 20.688C31.039 20.7867 31.9704 21.0831 32.803 21.5699C34.9409 22.7694 36.2604 25.0485 36.2604 27.504Z" fill="#1600FF"/>
<path d="M10.6262 11.2472H13.124H15.6218H18.1196C18.4654 11.2472 18.7405 10.972 18.7405 10.6263V8.12847C18.7405 7.96618 18.677 7.8039 18.5571 7.691L14.8033 3.93725C14.5634 3.69735 14.1683 3.69735 13.9284 3.93725L13.1099 4.75574V4.37472C13.1099 4.02898 12.8347 3.7538 12.489 3.7538H10.6121C10.2664 3.7538 9.99121 4.02898 9.99121 4.37472V8.12847V10.6263C10.0053 10.9649 10.2805 11.2472 10.6262 11.2472ZM13.745 10.0053V9.37737C13.745 9.03163 14.0272 8.74939 14.3729 8.74939C14.7187 8.74939 15.0009 9.03163 15.0009 9.37737V10.0053H13.745ZM14.3729 5.24965L17.5058 8.38248V10.0053H16.2498V9.37737C16.2498 8.3472 15.4102 7.50755 14.38 7.50755C13.3498 7.50755 12.5102 8.3472 12.5102 9.37737V10.0053H11.2542V8.38248L12.9476 6.68906L14.3729 5.24965ZM11.8751 4.99564V5.99053L11.2401 6.62556V4.99564H11.8751Z" fill="#1600FF"/>
<path d="M21.8729 11.2471H30.6222C30.968 11.2471 31.2431 10.9719 31.2431 10.6262C31.2431 10.2804 30.968 10.0052 30.6222 10.0052H21.8729C21.5271 10.0052 21.252 10.2804 21.252 10.6262C21.252 10.9648 21.5342 11.2471 21.8729 11.2471Z" fill="#1600FF"/>
<path d="M21.8729 8.74231H30.6222C30.968 8.74231 31.2431 8.46713 31.2431 8.12139C31.2431 7.77565 30.968 7.50047 30.6222 7.50047H21.8729C21.5271 7.50047 21.252 7.77565 21.252 8.12139C21.252 8.46713 21.5342 8.74231 21.8729 8.74231Z" fill="#1600FF"/>
<path d="M21.8729 6.24453H30.6222C30.968 6.24453 31.2431 5.96935 31.2431 5.62361C31.2431 5.27787 30.968 5.00269 30.6222 5.00269H21.8729C21.5271 5.00269 21.252 5.27787 21.252 5.62361C21.252 5.96935 21.5342 6.24453 21.8729 6.24453Z" fill="#1600FF"/>
<path d="M26.255 28.1249H27.5039C27.8497 28.1249 28.1319 27.8427 28.1319 27.4969C28.1319 27.1512 27.8497 26.869 27.5039 26.869H26.8759C26.8759 26.5232 26.5937 26.241 26.248 26.241C25.9022 26.241 25.62 26.5232 25.62 26.869V26.9748C24.8932 27.2359 24.3711 27.9273 24.3711 28.7458C24.3711 29.7831 25.2107 30.6227 26.248 30.6227C26.5937 30.6227 26.8759 30.9049 26.8759 31.2507C26.8759 31.5964 26.5937 31.8787 26.248 31.8787H24.9991C24.6533 31.8787 24.3711 32.1609 24.3711 32.5066C24.3711 32.8524 24.6533 33.1346 24.9991 33.1346H25.627C25.627 33.4804 25.9093 33.7626 26.255 33.7626C26.6008 33.7626 26.883 33.4804 26.883 33.1346V33.0217C27.6098 32.7607 28.1319 32.0692 28.1319 31.2507C28.1319 30.2135 27.2922 29.3738 26.255 29.3738C25.9093 29.3738 25.627 29.0916 25.627 28.7458C25.627 28.4072 25.9093 28.1249 26.255 28.1249Z" fill="#1600FF"/>
<path d="M23.0796 29.769C23.0655 29.7337 23.0514 29.6913 23.0232 29.6561C22.9949 29.6278 22.9738 29.5926 22.9455 29.5643C22.7056 29.3315 22.2964 29.3315 22.0565 29.5643C22.0283 29.5926 22.0001 29.6278 21.9789 29.6561C21.9507 29.6913 21.9365 29.7337 21.9224 29.769C21.9013 29.8042 21.8942 29.8466 21.8872 29.8819C21.8801 29.9242 21.873 29.9665 21.873 30.0018C21.873 30.0371 21.8801 30.0865 21.8872 30.1218C21.8942 30.1641 21.9083 30.2064 21.9224 30.2417C21.9365 30.277 21.9507 30.3193 21.9789 30.3475C22.0001 30.3828 22.0283 30.4181 22.0565 30.4463C22.1765 30.5592 22.3387 30.6298 22.501 30.6298C22.6633 30.6298 22.8256 30.5592 22.9455 30.4463C22.9738 30.4181 22.9949 30.3828 23.0232 30.3475C23.0514 30.3193 23.0655 30.277 23.0796 30.2417C23.1008 30.2064 23.1078 30.1641 23.1149 30.1218C23.1219 30.0865 23.129 30.0371 23.129 30.0018C23.129 29.9665 23.1219 29.9171 23.1149 29.8748C23.1078 29.8395 23.0937 29.8042 23.0796 29.769Z" fill="#1600FF"/>
<path d="M30.5806 29.769C30.5665 29.7337 30.5524 29.6913 30.5241 29.6561C30.503 29.6278 30.4747 29.5926 30.4465 29.5643C30.2066 29.3315 29.7974 29.3315 29.5575 29.5643C29.5293 29.5926 29.5081 29.6278 29.4799 29.6561C29.4516 29.6913 29.4375 29.7337 29.4234 29.769C29.4022 29.8042 29.3952 29.8466 29.3881 29.8819C29.3811 29.9242 29.374 29.9665 29.374 30.0089C29.374 30.0441 29.3811 30.0935 29.3881 30.1288C29.3952 30.1712 29.4093 30.2135 29.4234 30.2488C29.4375 30.284 29.4516 30.3264 29.4799 30.3546C29.5081 30.3899 29.5293 30.4252 29.5575 30.4534C29.6774 30.5663 29.8397 30.6368 30.002 30.6368C30.1643 30.6368 30.3266 30.5663 30.4465 30.4534C30.4747 30.4252 30.503 30.3899 30.5241 30.3546C30.5524 30.3264 30.5665 30.284 30.5806 30.2488C30.6018 30.2135 30.6088 30.1712 30.6159 30.1288C30.6229 30.0935 30.63 30.0441 30.63 30.0089C30.63 29.9736 30.6229 29.9242 30.6159 29.8819C30.6088 29.8395 30.5947 29.8042 30.5806 29.769Z" fill="#1600FF"/>
<path d="M10.6258 17.4986H18.1262C18.472 17.4986 18.7472 17.2234 18.7472 16.8777V13.1239C18.7472 12.7782 18.472 12.503 18.1262 12.503H10.6258C10.2801 12.503 10.0049 12.7782 10.0049 13.1239V16.8777C10.0049 17.2164 10.2801 17.4986 10.6258 17.4986ZM11.2467 13.7449H17.5053V16.2568H11.2467V13.7449Z" fill="#1600FF"/>
</svg>
