<svg width="34" height="40" viewBox="0 0 34 40" fill="none" xmlns="http://www.w3.org/2000/svg">
<g clip-path="url(#clip0)">
<path d="M17.0178 19.3524C16.7117 19.3524 16.4622 19.1032 16.4622 18.7973C16.4622 18.4915 16.7117 18.2422 17.0178 18.2422C17.2144 18.2422 17.4222 18.3427 17.6189 18.5325C17.8394 18.7457 18.1911 18.7401 18.4044 18.5198C18.6178 18.2994 18.6122 17.9481 18.3917 17.7349C18.1094 17.4624 17.8278 17.3081 17.5739 17.2242V16.5776C17.5739 16.2712 17.325 16.0225 17.0183 16.0225C16.7117 16.0225 16.4628 16.2712 16.4628 16.5776V17.2281C15.8161 17.4574 15.3517 18.0741 15.3517 18.7979C15.3517 19.716 16.0994 20.4631 17.0183 20.4631C17.3244 20.4631 17.5739 20.7123 17.5739 21.0182C17.5739 21.324 17.3244 21.5732 17.0183 21.5732C16.7811 21.5732 16.525 21.4239 16.2972 21.153C16.1 20.9182 15.7494 20.8883 15.5144 21.0853C15.2794 21.2824 15.2494 21.6326 15.4467 21.8674C15.7439 22.2204 16.0928 22.4663 16.4628 22.5901V23.2379C16.4628 23.5443 16.7117 23.7929 17.0183 23.7929C17.325 23.7929 17.5739 23.5443 17.5739 23.2379V22.5873C18.2206 22.3581 18.685 21.7414 18.685 21.0176C18.6844 20.0995 17.9367 19.3524 17.0178 19.3524Z" fill="#1600FF"/>
<path d="M17.0002 13.8947C13.6308 13.8947 10.8896 16.6334 10.8896 19.9999C10.8896 23.3664 13.6308 26.1056 17.0002 26.1056C20.3697 26.1056 23.1108 23.3669 23.1108 20.0004C23.1108 16.6339 20.3697 13.8947 17.0002 13.8947ZM17.0002 24.9955C14.2435 24.9955 12.0008 22.7547 12.0008 20.0004C12.0008 17.2462 14.2435 15.0053 17.0002 15.0053C19.7569 15.0053 22.0002 17.2456 22.0002 20.0004C22.0002 22.7552 19.7569 24.9955 17.0002 24.9955Z" fill="#1600FF"/>
<path d="M26.3428 23.9442C25.4922 23.9115 24.6972 24.3822 24.3161 25.1426C23.6228 26.5275 22.9667 27.2397 21.7028 27.8925C21.3317 27.1686 20.5744 26.6791 19.7233 26.6791H14.1567C13.8017 26.6791 13.515 26.5281 13.1183 26.3194C12.4833 25.9852 11.6933 25.5689 10.2683 25.5689C7.72278 25.5689 5.25 28.0645 4.22278 29.813L4.09 29.6803C3.87333 29.4639 3.52111 29.4639 3.30444 29.6803L0.162778 32.8209C0.0583333 32.9247 0 33.0663 0 33.2134C0 33.3605 0.0588889 33.502 0.163333 33.6058L6.41444 39.8376C6.63111 40.0535 6.98167 40.0541 7.19889 39.8381L10.3417 36.712C10.5594 36.4955 10.56 36.143 10.3428 35.926L9.83389 35.4176C10.2144 34.8797 11.1839 34.4489 11.8711 34.4489C11.8717 34.4489 11.8717 34.4489 11.8722 34.4489L19.3711 34.4512C19.3722 34.4512 19.3733 34.4512 19.3744 34.4512C20.3439 34.4512 21.2739 34.1825 22.0639 33.6746C24.0906 32.3724 26.9406 30.2537 28.29 26.8989C28.8506 25.5034 27.8189 24.002 26.3428 23.9442ZM6.80722 38.6619L1.34167 33.2134L3.69833 30.8588C5.01167 32.1709 6.39889 33.557 9.16333 36.319L6.80722 38.6619ZM27.2583 26.4865C26.0272 29.5471 23.3611 31.5226 21.4622 32.7421C20.8517 33.1345 20.1294 33.3421 19.3733 33.3421C19.3722 33.3421 19.3717 33.3421 19.3706 33.3421L11.8717 33.3399C11.8711 33.3399 11.8706 33.3399 11.87 33.3399C10.8994 33.3399 9.69778 33.8434 9.04333 34.6293L5.04111 30.6312C5.48167 29.7259 7.78556 26.6796 10.2683 26.6796C11.4183 26.6796 12.0194 26.996 12.6006 27.3019C13.0561 27.5416 13.5272 27.7898 14.1572 27.7898H19.7233C20.2744 27.7898 20.7472 28.2 20.8233 28.7467C20.9183 29.3973 20.4078 30.0095 19.7233 30.0095H14.1567C13.85 30.0095 13.6011 30.2582 13.6011 30.5646C13.6011 30.871 13.85 31.1196 14.1567 31.1196H19.7228C20.9094 31.1196 21.8822 30.1849 21.9422 29.0137C23.5889 28.2166 24.4639 27.3274 25.3089 25.6394C25.495 25.2675 25.8833 25.0377 26.2983 25.0538C27.0306 25.0821 27.5256 25.8215 27.2583 26.4865Z" fill="#1600FF"/>
<path d="M7.65755 16.0559C8.5081 16.0887 9.3031 15.618 9.68421 14.8575C10.3775 13.4732 11.0337 12.7605 12.2975 12.1077C12.6687 12.8315 13.4259 13.3211 14.277 13.3211H19.8437C20.1987 13.3211 20.4853 13.4721 20.882 13.6808C21.517 14.0149 22.307 14.4307 23.732 14.4307C26.2775 14.4307 28.7503 11.9351 29.7775 10.1866L29.9103 10.3193C30.127 10.5357 30.4792 10.5357 30.6959 10.3193L33.8387 7.17923C33.9431 7.07488 34.0014 6.93389 34.0014 6.78624C34.0014 6.63859 33.9425 6.4976 33.8381 6.39381L27.5859 0.162036C27.3692 -0.0538858 27.0187 -0.0544409 26.8014 0.161481L23.6587 3.28763C23.4409 3.50411 23.4403 3.85658 23.6575 4.07361L24.1664 4.58206C23.7859 5.11992 22.8164 5.55065 22.1292 5.55065C22.1287 5.55065 22.1287 5.55065 22.1281 5.55065L14.6292 5.54843C14.6281 5.54843 14.627 5.54843 14.6259 5.54843C13.6564 5.54843 12.7264 5.81709 11.9364 6.32498C9.90977 7.62717 7.05977 9.74587 5.71088 13.1007C5.14977 14.4973 6.18144 15.9982 7.65755 16.0559ZM27.1931 1.33878L32.6587 6.78735L30.302 9.14196C28.9887 7.82977 27.6014 6.44376 24.837 3.68173L27.1931 1.33878ZM6.74199 13.5142C7.9731 10.4536 10.6392 8.47809 12.5381 7.2586C13.1487 6.86617 13.8709 6.65857 14.627 6.65857C14.6281 6.65857 14.6287 6.65857 14.6298 6.65857L22.1287 6.66079C22.1292 6.66079 22.1298 6.66079 22.1303 6.66079C23.1009 6.66079 24.3025 6.15735 24.957 5.37137L28.9592 9.36953C28.5187 10.2749 26.2148 13.3211 23.732 13.3211C22.582 13.3211 21.9809 13.0047 21.3998 12.6988C20.9442 12.4591 20.4731 12.2109 19.8431 12.2109H14.2764C13.7253 12.2109 13.2525 11.8007 13.1764 11.254C13.0814 10.6035 13.592 9.99121 14.2764 9.99121H19.8431C20.1498 9.99121 20.3987 9.74254 20.3987 9.43614C20.3987 9.12974 20.1498 8.88107 19.8431 8.88107H14.2764C13.0898 8.88107 12.117 9.81581 12.057 10.987C10.4103 11.7841 9.53532 12.6733 8.69032 14.3613C8.50421 14.7332 8.11588 14.963 7.70088 14.9469C6.96977 14.918 6.47477 14.1787 6.74199 13.5142Z" fill="#1600FF"/>
</g>
<defs>
<clipPath id="clip0">
<rect width="34" height="40" fill="white"/>
</clipPath>
</defs>
</svg>
