<svg width="40" height="40" viewBox="0 0 40 40" fill="none" xmlns="http://www.w3.org/2000/svg">
<path d="M38.7097 27.1637V11.6129V10.9677V8.3871H36.129V3.22581H34.8387V8.3871H32.2581V4.51613H30.9677V8.3871H29.6774V3.22581V2.58065V0H19.6016L18.3113 2.58065H15.4839V10.3694C15.2048 10.3395 14.9226 10.3226 14.6371 10.3226C12.5145 10.3226 10.5194 11.1492 9.01935 12.6492L8.69677 12.9718C6.98548 13.4823 5.80645 15.0532 5.80645 16.8532V23.2258C5.80645 24.6492 6.96371 25.8064 8.3871 25.8064H9.50887C10.046 26.7556 10.7589 27.6 11.6129 28.2887V28.9992C11.6129 29.5347 11.2895 30.0073 10.7903 30.2016L4.62097 32.6008C1.81452 33.6919 0 36.3435 0 39.3548V40H28.3871V39.3548V39.354C29.404 39.7774 30.5008 40 31.6129 40C36.2371 40 40 36.2371 40 31.6129C40 29.9774 39.5226 28.4556 38.7097 27.1637ZM23.2726 32.4089L20.6452 31.3871V25.7145C21.7556 25.4258 22.5806 24.425 22.5806 23.2258V20H32.2581V23.2589C32.0444 23.2419 31.8306 23.2258 31.6129 23.2258C26.9887 23.2258 23.2258 26.9887 23.2258 31.6129C23.2258 31.879 23.2484 32.1444 23.2726 32.4089ZM16.7742 28.9984V28.2879C17.6282 27.5992 18.3411 26.754 18.8782 25.8056H19.3548V30.8847L17.5976 30.2016C17.0976 30.0073 16.7742 29.5339 16.7742 28.9984ZM19.9863 21.9355H20C20.7113 21.9355 21.2903 22.5145 21.2903 23.2258C21.2903 23.9371 20.7113 24.5161 20 24.5161H19.4726C19.7726 23.6984 19.9492 22.8298 19.9863 21.9355ZM32.2581 17.4194V18.7097H22.5806V18.2661C22.5806 17.9798 22.5637 17.6968 22.5339 17.4194H32.2581ZM25.8064 16.129V12.2581H37.4194V25.575C36.3573 24.554 35.0282 23.8121 33.5484 23.4605V16.129H25.8064ZM37.4194 10.9677H27.0968V9.67742H37.4194V10.9677ZM20.3984 1.29032H28.3871V2.58065H19.7532L20.3984 1.29032ZM16.7742 3.87097H28.3871V8.3871H25.8064V10.9677H24.5161V16.129H22.2798C21.5339 13.4661 19.4363 11.3694 16.7742 10.6234V3.87097ZM9.18871 14.1742L9.3629 14.1306L9.93226 13.5613C11.1887 12.3048 12.8597 11.6121 14.6371 11.6121C18.3056 11.6121 21.2903 14.5968 21.2903 18.2653V21.0024C20.9089 20.7806 20.4726 20.6435 20 20.6435V18.7081H18.8661C17.2734 18.7081 15.7766 18.0879 14.65 16.9613L14.1935 16.5048L13.7371 16.9613C12.6113 18.0895 11.1145 18.7097 9.52097 18.7097H8.3871V20.6452C7.91452 20.6452 7.47823 20.7823 7.09677 21.004V16.854C7.09677 15.5839 7.95645 14.4823 9.18871 14.1742ZM8.3871 24.5161C7.67581 24.5161 7.09677 23.9371 7.09677 23.2258C7.09677 22.5145 7.67581 21.9355 8.3871 21.9355H8.40081C8.4379 22.8298 8.61452 23.6984 8.91452 24.5161H8.3871ZM9.67742 21.5847V19.9992C11.3492 19.9637 12.9274 19.3661 14.1935 18.296C15.4597 19.3661 17.0379 19.9637 18.7097 19.9992V21.5847C18.7097 24.5323 16.9048 27.2161 14.1935 28.3387C11.4823 27.2169 9.67742 24.5323 9.67742 21.5847ZM13.9661 29.6371L14.1935 29.7218L14.421 29.6363C14.7935 29.496 15.1516 29.3282 15.4952 29.1411C15.5258 29.704 15.7331 30.2226 16.0774 30.6379L16.0153 30.8661C15.7919 31.6855 15.0427 32.2581 14.1935 32.2581C13.3444 32.2581 12.5952 31.6855 12.3726 30.8661L12.3105 30.6379C12.654 30.2226 12.8621 29.704 12.8927 29.1403C13.2371 29.3282 13.5935 29.4968 13.9661 29.6371ZM23.2258 38.7097V36.129H21.9355V38.7097H6.45161V36.129H5.16129V38.7097H1.32419C1.55806 36.5065 2.98387 34.621 5.0879 33.8032L11.2065 31.4242C11.6524 32.6823 12.8427 33.5484 14.1935 33.5484C15.5444 33.5484 16.7355 32.6823 17.1798 31.4234L23.2984 33.8024C25.4032 34.621 26.8282 36.5056 27.0621 38.7089L23.2258 38.7097ZM31.6129 38.7097C30.4242 38.7097 29.2629 38.4008 28.2258 37.8363C27.7952 35.796 26.5105 34.0476 24.6685 33.0274C24.5742 32.5629 24.5161 32.0903 24.5161 31.6129C24.5161 27.7 27.7 24.5161 31.6129 24.5161C35.5258 24.5161 38.7097 27.7 38.7097 31.6129C38.7097 35.5258 35.5258 38.7097 31.6129 38.7097Z" fill="#1600FF"/>
</svg>
