<svg width="40" height="40" viewBox="0 0 40 40" fill="none" xmlns="http://www.w3.org/2000/svg">
<path d="M37.474 30.6012C36.9236 30.4177 36.3662 30.3542 35.6888 30.4177V20.6311H37.8409C38.2078 20.6311 38.4548 20.3842 38.4548 20.0173C38.4548 19.8338 38.3913 19.6504 38.2713 19.5869L36.2392 16.8774V10.4142C36.2392 10.2307 36.1757 10.1037 36.0557 9.98376C35.9358 9.86381 35.8088 9.80031 35.6253 9.80031H32.055C31.6881 9.80031 31.4412 10.0473 31.4412 10.4142V12.3193L29.4091 10.4142C29.4091 10.1672 29.4726 9.86381 29.4726 9.55335C29.5996 5.12223 25.9728 1.55194 21.5417 1.55194C20.7444 1.55194 19.94 1.67189 19.2062 1.91885C17.1741 -0.480166 13.5474 -0.66362 11.3318 1.55194C9.91357 2.97018 9.42671 5.05873 10.0406 6.97088L2.09561 14.9088C1.9686 15.0287 1.9051 15.1487 1.9051 15.3392L1.84159 18.1051C1.84159 18.472 2.08855 18.719 2.45546 18.719L5.22138 18.6555C5.46834 18.6555 5.71529 18.472 5.77174 18.2251L6.3221 16.3764L7.79679 16.193C8.04375 16.1295 8.2272 15.946 8.2907 15.6991L8.60116 14.4713L9.70894 14.2879C9.9559 14.2244 10.1394 14.0409 10.2029 13.794L10.5133 12.5662L11.6846 12.3193C11.8046 12.3193 11.9316 12.2558 11.9951 12.1358L13.5333 10.5976C13.8437 13.0601 15.2549 15.2757 17.3505 16.5034L14.2741 19.5798C14.0907 19.7633 14.0272 20.0102 14.1542 20.2572C14.2741 20.5041 14.4646 20.6241 14.7045 20.6241H16.8566V24.9917C14.888 24.2508 12.489 24.8717 10.5204 25.6691L10.4569 25.3586C10.3934 25.0481 10.09 24.8082 9.7795 24.8082L0.550362 25.8596C0.183454 25.9231 0 26.2265 0 26.5369L1.41824 38.2921C1.48174 38.6026 1.7287 38.8425 2.0321 38.8425H2.09561L11.3883 37.7347C11.7552 37.6712 11.9386 37.3678 11.9386 37.0573L11.8187 36.26C15.7559 37.1208 20.8644 39.1529 20.9279 39.1529C24.0042 40.5077 27.3911 40.1408 30.4675 38.786C32.683 37.7982 36.5567 36.507 38.3419 34.8488C39.6895 33.614 39.2591 31.1515 37.474 30.6012ZM22.7694 28.2586V24.1379H29.8465V31.7654L29.5361 31.8853C29.0492 29.8603 25.232 29.3664 22.7694 28.2586ZM12.9264 9.3699L11.2048 11.0915L9.85006 11.402C9.60311 11.4655 9.41965 11.649 9.35615 11.8324L9.04569 13.0601L7.93791 13.2436C7.69095 13.3071 7.5075 13.4906 7.44399 13.674L7.13353 14.9017L5.71529 15.0852C5.46834 15.0852 5.28488 15.2686 5.22138 15.5156L4.72747 17.3643L3.07638 17.4278L3.13988 15.5791L11.1413 7.57769C11.3247 7.39424 11.3883 7.14728 11.2612 6.90032C10.6474 5.36213 11.0143 3.57699 12.1856 2.4057C13.7238 0.867514 16.2498 0.804011 17.9714 2.3422C17.661 2.46215 17.4211 2.65266 17.1106 2.83612C16.1863 2.22225 14.9585 2.28575 14.1542 3.08307C13.2298 4.0074 13.2298 5.41858 14.1542 6.34291C15.0785 7.26723 16.5532 7.26723 17.414 6.34291C18.0914 5.66554 18.2748 4.68477 17.9079 3.76044C18.1549 3.57699 18.4583 3.44998 18.7052 3.33003C19.6296 4.93172 19.3826 7.02027 18.0914 8.31151C16.8636 9.53924 15.0785 9.78619 13.5968 9.23583C13.3569 9.17939 13.1099 9.24289 12.9264 9.3699ZM16.5532 4.01445C16.9836 4.44487 16.9836 5.12223 16.5532 5.55264C16.1228 5.98306 15.4454 5.98306 15.015 5.55264C14.5846 5.12223 14.5846 4.44487 15.015 4.01445C15.4454 3.58404 16.1228 3.58404 16.5532 4.01445ZM14.8315 10.7811C14.9515 10.7811 15.0785 10.7811 15.1984 10.7811C16.6167 10.7811 17.9644 10.2307 18.9522 9.24289C20.6103 7.58475 20.9843 4.99523 19.94 2.96312C20.4339 2.84317 20.9843 2.77967 21.5417 2.77967C25.232 2.77967 28.1884 5.67259 28.3718 9.29934L26.7702 7.82465C26.5232 7.57769 26.1563 7.57769 25.9093 7.82465L18.2748 15.5862C16.4332 14.5348 15.142 12.8132 14.8315 10.7811ZM16.2498 19.3964L18.5288 17.0608C19.4532 17.4278 20.4974 17.6747 21.5417 17.6747C22.5295 17.6747 23.4468 17.4913 24.3711 17.1244C24.8651 17.6747 25.5424 18.0487 26.3397 18.0487C27.758 18.0487 28.9222 16.8774 28.9222 15.4662C28.9222 14.055 27.7509 12.8837 26.3397 12.8837C24.9286 12.8837 23.7573 14.055 23.7573 15.4662C23.7573 15.6497 23.7573 15.8331 23.8208 15.9601C22.4025 16.454 20.8644 16.454 19.5096 16.0236L26.3397 9.12999L31.6952 14.175C31.8786 14.3584 32.1256 14.3584 32.3726 14.2949C32.6195 14.175 32.7395 13.9845 32.7395 13.7446V11.0351H35.075V17.0679C35.075 17.1879 35.1385 17.3149 35.1949 17.4348L36.6696 19.4034H35.1385C34.7716 19.4034 34.5246 19.6504 34.5246 20.0173V30.5376C33.7273 30.6576 32.4925 30.9046 31.0813 31.3985V23.5241C31.0813 23.1572 30.8344 22.9102 30.4675 22.9102H22.1556C21.7887 22.9102 21.5417 23.1572 21.5417 23.5241V27.6447C20.7444 27.2143 18.5288 25.9866 18.1549 25.6761V20.0173C18.1549 19.6504 17.9079 19.4034 17.541 19.4034H16.2498V19.3964ZM24.985 15.4592C24.985 14.7183 25.5989 14.1044 26.3397 14.1044C27.0806 14.1044 27.6945 14.7183 27.6945 15.4592C27.6945 16.2 27.0806 16.8139 26.3397 16.8139C25.5989 16.8139 24.985 16.2 24.985 15.4592ZM2.52602 37.5512L1.29123 27.0309L9.4126 26.043C10.2099 32.8097 10.2099 32.7532 10.6403 36.5634L2.52602 37.5512ZM37.474 33.9809C35.8723 35.4556 32.302 36.5634 29.903 37.6712C28.1813 38.4685 24.858 39.5198 21.3512 38.0381C21.1043 37.9181 15.6924 35.759 11.6282 34.9617L10.7038 26.8968C12.362 26.1559 14.641 25.5421 16.3627 26.0995C17.2235 26.4099 17.04 26.5299 19.806 28.0681C21.5911 29.0559 23.1928 29.8532 25.1614 30.4036C26.3327 30.714 28.0543 31.4479 28.3013 32.1252C28.3648 32.1887 28.3648 32.3087 28.3013 32.4921C26.8831 33.7199 24.978 33.9104 23.1293 32.6756C21.5276 31.6313 19.559 31.2574 19.4955 31.2574C19.185 31.1939 18.8181 31.4408 18.7546 31.7513C18.6911 32.0617 18.9381 32.4286 19.2485 32.4921C19.2485 32.4921 21.0337 32.859 22.4519 33.7199C24.7874 35.2581 27.3135 35.0746 29.1621 33.4094C31.0672 32.5486 35.1314 31.1303 37.1635 31.7513C37.9679 32.0123 38.2149 33.3036 37.474 33.9809Z" fill="#1600FF"/>
</svg>
