<svg width="40" height="40" viewBox="0 0 40 40" fill="none" xmlns="http://www.w3.org/2000/svg">
<path d="M37.4246 2.58247C35.9993 2.58247 34.8421 3.73964 34.8421 5.16493V15.4877H29.5361L29.0845 13.6673C29.9877 12.9264 30.6297 11.8892 30.8696 10.7038C32.549 9.34204 33.5579 7.2676 33.5579 5.09437V1.93332C33.5579 0.867878 32.6901 0 31.6246 0H24.4064C22.7059 0 21.1819 0.754983 20.1376 1.93332C18.9522 0.712648 17.3011 0 15.5795 0H12.8065C9.2997 0 6.44911 2.85059 6.44911 6.35738C6.44911 8.24837 7.28171 10.0265 8.73523 11.2401L9.53255 11.9104C9.85712 12.5948 10.3299 13.1946 10.9084 13.6673L10.4569 15.4877H5.16493V5.16493C5.16493 3.73964 4.00776 2.58247 2.58247 2.58247C1.15717 2.58247 0 3.73964 0 5.16493V18.3877C0 19.6366 0.889046 20.7021 2.11678 20.9279L6.562 21.7393C6.87246 21.7957 7.0912 22.0639 7.0912 22.3743V31.7022L6.07515 34.0801C5.89875 34.4964 5.80702 34.9339 5.80702 35.3854C5.80702 37.22 7.29582 38.7088 9.13036 38.7088H14.8386C14.8386 39.4214 15.4172 40 16.1298 40H23.8702C24.5828 40 25.1614 39.4214 25.1614 38.7088H30.8696C32.7042 38.7088 34.193 37.22 34.193 35.3854C34.193 34.9339 34.1013 34.4964 33.9249 34.0801L32.9017 31.6952V22.3673C32.9017 22.0568 33.1275 21.7887 33.4309 21.7322L37.8762 20.9208C39.1039 20.695 39.9929 19.6296 39.9929 18.3807V5.16493C40 3.73964 38.8428 2.58247 37.4246 2.58247ZM37.4246 3.8737C38.1372 3.8737 38.7158 4.45228 38.7158 5.16493V6.45617H36.1334V5.16493C36.1334 4.45228 36.7119 3.8737 37.4246 3.8737ZM27.6945 30.7285L26.495 31.2083L27.4334 33.5509H25.1614V29.6772C25.1614 28.9645 24.5828 28.386 23.8702 28.386H22.4167C22.6495 28.0473 22.8188 27.6592 22.8894 27.2288L23.1152 25.8599L27.3205 26.241C28.4989 26.3468 29.529 27.0947 29.9947 28.1813L31.1025 30.7638L28.2096 32.0056L27.6945 30.7285ZM20.0035 36.1334C19.2909 36.1334 18.7123 35.5548 18.7123 34.8421C18.7123 34.1295 19.2909 33.5509 20.0035 33.5509C20.7162 33.5509 21.2948 34.1295 21.2948 34.8421C21.2948 35.5548 20.7162 36.1334 20.0035 36.1334ZM22.4308 33.9954C22.078 32.9864 21.1325 32.2597 20.0035 32.2597C18.8746 32.2597 17.9291 32.9864 17.5763 33.9954C17.167 33.7132 16.6661 33.5509 16.1298 33.5509V32.2597H17.4211V30.9684H16.1298V29.6772H23.8702V30.9684H22.5789V32.2597H23.8702V33.5509C23.3339 33.5509 22.84 33.7132 22.4308 33.9954ZM12.3055 30.7285L11.7975 32.0056L8.90457 30.7638L10.0123 28.1813C10.478 27.0877 11.5011 26.3468 12.6865 26.241L16.8919 25.8599L17.1177 27.2288C17.1882 27.6592 17.3576 28.0473 17.5904 28.386H16.1369C15.4242 28.386 14.8457 28.9645 14.8457 29.6772V33.5509H12.5736L13.5121 31.2083L12.3055 30.7285ZM11.614 17.4705L12.2561 17.9855V18.7899L11.614 19.051V17.4705ZM20.0035 10.9649C23.5597 10.9649 26.4526 13.8578 26.4526 17.414V24.858L23.0587 24.5475L22.7694 23.6938C24.2018 22.7765 25.1543 21.1748 25.1543 19.3473V16.2639L24.6675 16.1439C23.094 15.7488 21.6546 14.9374 20.5045 13.7873L19.9965 13.2792L19.4884 13.7873C18.3383 14.9374 16.8989 15.7488 15.3255 16.1439L14.8386 16.2639V19.3473C14.8386 21.1748 15.7911 22.7765 17.2235 23.6938L16.9342 24.5475L13.5403 24.858V17.4211C13.5474 13.8649 16.4403 10.9649 20.0035 10.9649ZM19.3544 9.68072V8.30482C19.4108 8.41066 19.4602 8.52355 19.5237 8.62939L20.1588 9.68778C20.1094 9.68778 20.0529 9.68072 20.0035 9.68072C19.7848 9.68072 19.5731 9.69483 19.3544 9.716C19.3544 9.70189 19.3544 9.68778 19.3544 9.68072ZM20.0035 23.2281C17.8656 23.2281 16.1298 21.4923 16.1298 19.3544V17.2658C17.5622 16.8284 18.8887 16.0875 20.0035 15.0856C21.1184 16.0875 22.4378 16.8284 23.8772 17.2658V19.3544C23.8702 21.4923 22.1344 23.2281 20.0035 23.2281ZM18.3807 27.0171L18.0773 25.2108L18.3948 24.2582C18.9028 24.4205 19.4391 24.5123 19.9965 24.5123C20.5539 24.5123 21.0901 24.4205 21.5982 24.2582L21.9157 25.2108L21.6123 27.0171C21.4782 27.8074 20.8008 28.386 19.9965 28.386C19.1921 28.386 18.5147 27.8144 18.3807 27.0171ZM27.7439 17.9855L28.386 17.4705V19.051L27.7439 18.7899V17.9855ZM28.3083 15.8829L27.6663 16.398C27.5816 15.7841 27.4334 15.1984 27.2147 14.641C27.4616 14.5705 27.7015 14.4858 27.9273 14.38L28.3083 15.8829ZM29.6772 9.68072C29.6772 11.5223 28.386 13.0676 26.629 13.4486C26.375 13.0252 26.0787 12.623 25.747 12.2561C25.7682 12.2561 25.7823 12.2632 25.8035 12.2632C26.8478 12.2632 27.7791 11.6846 28.2448 10.7532L28.3154 10.6192L27.1582 10.0406L27.0877 10.1746C26.8407 10.6685 26.3468 10.972 25.7964 10.972C25.2461 10.972 24.7522 10.6685 24.5052 10.1746L24.4346 10.0406L23.468 10.5204C22.9882 10.2734 22.4731 10.0829 21.9368 9.94179C21.9298 9.85712 21.9157 9.77245 21.9157 9.68072V7.46516C21.9157 7.16881 22.1203 6.90774 22.4025 6.83718L24.0818 6.41383C24.8721 6.21626 25.5424 5.7788 26.0575 5.20727L27.9908 5.48245C28.9363 5.61651 29.656 6.44205 29.656 7.3946V9.68072H29.6772ZM24.4064 1.29123H31.6105C31.9633 1.29123 32.2526 1.58053 32.2526 1.93332V5.09437C32.2526 6.44205 31.7799 7.73329 30.9614 8.77756V7.40166C30.9614 5.80702 29.7689 4.43112 28.1954 4.20533L26.8195 4.00776C26.9959 3.56324 27.0947 3.08344 27.0947 2.57541H25.8035C25.8035 3.79608 24.9779 4.86153 23.7855 5.15788L22.1062 5.58123C21.2454 5.79996 20.6386 6.56906 20.6386 7.45811V7.99436L20.6244 7.96613C20.2152 7.28171 19.9965 6.4985 19.9965 5.70118C20.0035 3.26689 21.9792 1.29123 24.4064 1.29123ZM7.74034 6.35738C7.74034 3.56324 10.0123 1.29123 12.8065 1.29123H15.5795C17.0612 1.29123 18.423 1.91921 19.3826 3.01993C18.9663 3.79608 18.7264 4.67807 18.7123 5.61651C18.0208 4.56518 16.8284 3.8737 15.4807 3.8737H13.8437L13.6532 4.16299C12.9194 5.27077 11.7904 6.0187 10.4922 6.27977L9.03158 6.56906V9.68072C9.03158 9.69483 9.03158 9.716 9.03158 9.73011C8.20603 8.80579 7.74034 7.61334 7.74034 6.35738ZM10.3228 9.68072V7.62745L10.7462 7.54278C12.2702 7.23937 13.5968 6.39972 14.5211 5.16493H15.4807C16.906 5.16493 18.0632 6.3221 18.0632 7.7474V9.68072C18.0632 9.76539 18.049 9.85712 18.042 9.94179C17.5057 10.0829 16.9977 10.2734 16.5179 10.5204L15.5512 10.0406L15.4807 10.1746C15.2337 10.6685 14.7398 10.972 14.1895 10.972C13.6391 10.972 13.1452 10.6685 12.8982 10.1746L12.8277 10.0406L11.6705 10.6192L11.741 10.7532C12.2067 11.6846 13.1452 12.2632 14.1824 12.2632C14.2036 12.2632 14.2177 12.2632 14.2388 12.2561C13.9072 12.623 13.6109 13.0182 13.3569 13.4486C11.614 13.0605 10.3228 11.5153 10.3228 9.68072ZM12.7853 14.641C12.5666 15.1984 12.4184 15.7841 12.3337 16.398L11.6917 15.8829L12.0656 14.38C12.2985 14.4858 12.5384 14.5705 12.7853 14.641ZM2.58247 3.8737C3.29511 3.8737 3.8737 4.45228 3.8737 5.16493V6.45617H1.29123V5.16493C1.29123 4.45228 1.86982 3.8737 2.58247 3.8737ZM6.80191 20.4622L2.35668 19.6507C1.74281 19.5378 1.29829 19.0016 1.29829 18.3807V7.74034H3.88075V16.7719H10.3299V20.949L12.2632 20.1729V24.9991C10.7391 25.2461 9.44082 26.241 8.82695 27.6663L8.39654 28.6753V22.3673C8.38949 21.4359 7.71917 20.6315 6.80191 20.4622ZM9.13036 37.4246C8.00847 37.4246 7.09825 36.5144 7.09825 35.3925C7.09825 35.1173 7.1547 34.8492 7.26054 34.5952L8.38949 31.9563L11.3106 33.2052L11.1695 33.5509H9.67366V34.8421H16.1228C16.8354 34.8421 17.414 35.4207 17.414 36.1334C17.414 36.846 16.8354 37.4246 16.1228 37.4246H9.13036ZM16.1298 38.7088C17.2517 38.7088 18.2043 37.982 18.5571 36.973C18.9663 37.2553 19.4673 37.4175 20.0035 37.4175C20.5398 37.4175 21.0337 37.2553 21.45 36.973C21.8028 37.982 22.7483 38.7088 23.8772 38.7088H16.1298ZM30.8767 37.4246H23.8772C23.1646 37.4246 22.586 36.846 22.586 36.1334C22.586 35.4207 23.1646 34.8421 23.8772 34.8421H30.3263V33.5509H28.8305L28.6894 33.2052L31.6105 31.9563L32.7395 34.5952C32.8524 34.8492 32.9017 35.1173 32.9017 35.3925C32.9017 36.5073 31.9915 37.4246 30.8767 37.4246ZM37.6504 19.6578L33.2052 20.4622C32.2879 20.6315 31.6176 21.4288 31.6176 22.3673V28.6823L31.1872 27.6733C30.5733 26.241 29.275 25.2461 27.7509 25.0062V20.1799L29.6842 20.9561V16.779H36.1334V7.7474H38.7158V18.3877C38.7088 19.0086 38.2642 19.5449 37.6504 19.6578Z" fill="#1600FF"/>
<path d="M23.8706 9.03158C24.2252 9.03158 24.5127 8.74411 24.5127 8.38949C24.5127 8.03488 24.2252 7.7474 23.8706 7.7474C23.516 7.7474 23.2285 8.03488 23.2285 8.38949C23.2285 8.74411 23.516 9.03158 23.8706 9.03158Z" fill="#1600FF"/>
<path d="M27.7436 9.03158C28.0983 9.03158 28.3857 8.74411 28.3857 8.38949C28.3857 8.03488 28.0983 7.7474 27.7436 7.7474C27.389 7.7474 27.1016 8.03488 27.1016 8.38949C27.1016 8.74411 27.389 9.03158 27.7436 9.03158Z" fill="#1600FF"/>
<path d="M16.1294 9.03158C16.484 9.03158 16.7715 8.74411 16.7715 8.38949C16.7715 8.03488 16.484 7.7474 16.1294 7.7474C15.7748 7.7474 15.4873 8.03488 15.4873 8.38949C15.4873 8.74411 15.7748 9.03158 16.1294 9.03158Z" fill="#1600FF"/>
<path d="M12.2563 9.03158C12.611 9.03158 12.8984 8.74411 12.8984 8.38949C12.8984 8.03488 12.611 7.7474 12.2563 7.7474C11.9017 7.7474 11.6143 8.03488 11.6143 8.38949C11.6143 8.74411 11.9017 9.03158 12.2563 9.03158Z" fill="#1600FF"/>
<path d="M18.063 18.7053C18.4176 18.7053 18.7051 18.4178 18.7051 18.0632C18.7051 17.7086 18.4176 17.4211 18.063 17.4211C17.7084 17.4211 17.4209 17.7086 17.4209 18.0632C17.4209 18.4178 17.7084 18.7053 18.063 18.7053Z" fill="#1600FF"/>
<path d="M21.937 18.7053C22.2916 18.7053 22.5791 18.4178 22.5791 18.0632C22.5791 17.7086 22.2916 17.4211 21.937 17.4211C21.5824 17.4211 21.2949 17.7086 21.2949 18.0632C21.2949 18.4178 21.5824 18.7053 21.937 18.7053Z" fill="#1600FF"/>
<path d="M21.2946 19.8483C21.0476 20.3422 20.5537 20.6456 20.0033 20.6456C19.453 20.6456 18.9591 20.3422 18.7121 19.8483L18.6415 19.7143L17.4844 20.2928L17.5549 20.4269C18.0206 21.3583 18.9591 21.9369 19.9963 21.9369C21.0406 21.9369 21.9719 21.3583 22.4376 20.4269L22.5082 20.2928L21.351 19.7143L21.2946 19.8483Z" fill="#1600FF"/>
</svg>
