<svg width="40" height="40" viewBox="0 0 40 40" fill="none" xmlns="http://www.w3.org/2000/svg">
<path d="M39.9483 35.0767L36.6667 27.2V6C36.6667 4.89583 35.7708 4 34.6667 4H26.8517L20.3433 0.095C20.1317 -0.0316667 19.8683 -0.0316667 19.6567 0.095L13.1483 4H5.33333C4.22917 4 3.33333 4.89583 3.33333 6V27.2L0.0516667 35.0767C0.0175 35.1575 0 35.245 0 35.3333V38C0 39.1042 0.895833 40 2 40H38C39.1042 40 40 39.1042 40 38V35.3333C40 35.245 39.9825 35.1575 39.9483 35.0767ZM25.745 34.6667L24.6 32.3683C24.4867 32.1408 24.2542 31.9983 24 32H16C15.7475 32 15.5167 32.1425 15.4033 32.3683L14.255 34.6667H1.66667L4.445 28H35.5558L38.3333 34.6667H25.745ZM24.255 34.6667H15.745L16.4117 33.3333H23.5875L24.255 34.6667ZM20 1.44417L29.3333 7.04417V10.8667C29.3358 15.1008 27.2183 19.055 23.6925 21.4L20 23.8667L16.3075 21.4C12.7817 19.055 10.6642 15.1008 10.6667 10.8667V7.04667L20 1.44417ZM4.66667 6C4.66667 5.63167 4.965 5.33333 5.33333 5.33333H10.9267L9.65667 6.095C9.45583 6.21583 9.33333 6.4325 9.33333 6.66667V10.8667C9.32917 15.5483 11.67 19.9208 15.5683 22.5133L19.63 25.2217C19.8542 25.3708 20.1458 25.3708 20.37 25.2217L24.4317 22.5133C28.3292 19.9208 30.67 15.5483 30.6667 10.8667V6.66667C30.6667 6.4325 30.5442 6.21583 30.3433 6.095L29.0733 5.33333H34.6667C35.035 5.33333 35.3333 5.63167 35.3333 6V26.6667H4.66667V6ZM38 38.6667H2C1.63167 38.6667 1.33333 38.3683 1.33333 38V36H38.6667V38C38.6667 38.3683 38.3683 38.6667 38 38.6667Z" fill="#1600FF"/>
<path d="M5.33301 32H6.66634V33.3333H5.33301V32Z" fill="#1600FF"/>
<path d="M8 32H9.33333V33.3333H8V32Z" fill="#1600FF"/>
<path d="M30.667 32H32.0003V33.3333H30.667V32Z" fill="#1600FF"/>
<path d="M33.333 32H34.6663V33.3333H33.333V32Z" fill="#1600FF"/>
<path d="M8.66699 29.3333H10.0003V30.6666H8.66699V29.3333Z" fill="#1600FF"/>
<path d="M6 29.3333H7.33333V30.6666H6V29.3333Z" fill="#1600FF"/>
<path d="M11.333 29.3333H12.6663V30.6666H11.333V29.3333Z" fill="#1600FF"/>
<path d="M14 29.3333H15.3333V30.6666H14V29.3333Z" fill="#1600FF"/>
<path d="M16.667 29.3333H18.0003V30.6666H16.667V29.3333Z" fill="#1600FF"/>
<path d="M19.333 29.3333H20.6663V30.6666H19.333V29.3333Z" fill="#1600FF"/>
<path d="M22 29.3333H23.3333V30.6666H22V29.3333Z" fill="#1600FF"/>
<path d="M24.667 29.3333H26.0003V30.6666H24.667V29.3333Z" fill="#1600FF"/>
<path d="M27.333 29.3333H28.6663V30.6666H27.333V29.3333Z" fill="#1600FF"/>
<path d="M30 29.3333H31.3333V30.6666H30V29.3333Z" fill="#1600FF"/>
<path d="M32.667 29.3333H34.0003V30.6666H32.667V29.3333Z" fill="#1600FF"/>
<path d="M10.667 32H13.3337V33.3333H10.667V32Z" fill="#1600FF"/>
<path d="M26.667 32H29.3337V33.3333H26.667V32Z" fill="#1600FF"/>
<path d="M26.6044 9.85737L20.6044 5.60737C20.3877 5.45404 20.0985 5.45404 19.8819 5.60737L13.8819 9.85737C13.6594 10.0149 13.5652 10.2974 13.6477 10.5574C13.7302 10.8165 13.971 10.9932 14.2435 10.9932H14.9519V17.3624C14.9519 17.7074 15.2319 17.9874 15.5769 17.9874H18.7535H21.7335H24.9102C25.2552 17.9874 25.5352 17.7074 25.5352 17.3624V10.9932H26.2436C26.5161 10.9932 26.7569 10.8174 26.8394 10.5574C26.9211 10.2974 26.8261 10.0149 26.6044 9.85737ZM20.2427 6.8832L24.2794 9.74237H16.2069L20.2427 6.8832ZM19.3777 16.7365V15.339H21.1077V16.7365H19.3777ZM24.2844 16.7365H22.3577V14.714C22.3577 14.369 22.0777 14.089 21.7327 14.089H18.7527C18.4077 14.089 18.1277 14.369 18.1277 14.714V16.7365H16.201V10.9924H24.2844V16.7365Z" fill="#1600FF"/>
</svg>
