<svg width="34" height="40" viewBox="0 0 34 40" fill="none" xmlns="http://www.w3.org/2000/svg">
<path d="M33.2189 40C33.4259 40 33.6251 39.918 33.7711 39.7711C33.918 39.6242 34 39.4258 34 39.2187L33.9984 36.1578C33.9984 33.6437 32.1815 31.8765 28.8829 31.1805L23.2306 29.8969C21.8434 29.4273 21.5786 29.0156 21.5786 28.4226V25.575C22.6885 24.9547 23.6321 24.0719 24.325 23.0101H25.7068C27.0956 23.0101 28.2673 22.0633 28.6126 20.782H30.1741C32.1269 20.782 33.7149 19.1929 33.7149 17.2406V14.6367C33.7149 12.6836 32.1261 11.0953 30.1741 11.0953H28.7157V10.6265C28.7157 4.76794 23.9501 0.00152588 18.0924 0.00152588H15.9053C10.0476 0.00152588 5.28196 4.76794 5.28196 10.6265V11.0953H3.82517C1.87236 11.0953 0.284329 12.6843 0.284329 14.6367V17.2406C0.284329 19.1937 1.87314 20.782 3.82517 20.782H8.67595C9.23133 22.8422 10.6092 24.5679 12.4355 25.5836C12.4253 25.6344 12.4199 25.6867 12.4199 25.7406V28.4234C12.4199 29.0164 12.1559 29.4281 10.7678 29.8976L5.11558 31.1812C1.8169 31.8765 0 33.6437 0 36.1578V39.2187C0 39.65 0.349944 40 0.781124 40H33.2189ZM1.56225 38.4375V36.1578C1.56225 34.4109 2.86829 33.25 5.44287 32.7086C5.44678 32.7078 5.45069 32.707 5.45537 32.7062L10.4452 31.5726L16.5989 35.2555C16.7223 35.3297 16.8614 35.3664 16.9996 35.3664C17.1379 35.3664 17.2769 35.3297 17.4003 35.2555L23.5532 31.5734L28.5423 32.707C28.5462 32.7078 28.5501 32.7086 28.5548 32.7094C31.1301 33.2508 32.4354 34.4117 32.4354 36.1594L32.4362 38.4391H1.56225V38.4375ZM28.7173 12.6562H30.1756C31.2668 12.6562 32.1542 13.5445 32.1542 14.6351V17.239C32.1542 18.3304 31.2668 19.2179 30.1756 19.2179H28.7173V12.6562ZM5.28353 19.2187H3.82517C2.73394 19.2187 1.84658 18.3304 1.84658 17.2398V14.6359C1.84658 13.5445 2.73394 12.6562 3.82517 12.6562H5.28353V19.2187ZM24.0305 13.9797H23.8438C22.5589 13.9797 21.3364 13.5812 20.3131 12.8461C21.1419 12.2828 21.9191 11.6414 22.6362 10.9242C22.9416 10.6195 22.9416 10.1242 22.6362 9.8195C22.3316 9.51481 21.8363 9.51481 21.5317 9.8195C18.8079 12.5445 15.1858 14.0445 11.3326 14.0445H9.96949V10.9375C9.96949 7.49137 12.7729 4.68747 16.2185 4.68747H17.7807C21.2263 4.68747 24.0297 7.49137 24.0297 10.9375V13.9797H24.0305ZM25.7076 21.4469H25.1124C25.1928 21.2289 25.2631 21.007 25.3241 20.7812H26.9238C26.666 21.1812 26.2177 21.4469 25.7076 21.4469ZM8.42208 19.2187H6.84577V11.875V10.625C6.84577 5.62809 10.9107 1.56246 15.9068 1.56246H18.094C23.09 1.56246 27.155 5.62809 27.155 10.625V11.875V19.2187H25.5787C25.5881 19.0633 25.5928 18.907 25.5928 18.75V10.9375C25.5928 6.62965 22.0886 3.12497 17.7815 3.12497H16.2193C11.9121 3.12497 8.40802 6.62965 8.40802 10.9375V18.75C8.40802 18.907 8.41271 19.0633 8.42208 19.2187ZM9.97027 18.75V15.6062H11.3333C13.4432 15.6062 15.5014 15.1968 17.4511 14.389C17.9424 14.1851 18.4213 13.9586 18.886 13.7101C20.2671 14.8953 22.0058 15.5414 23.8446 15.5414H24.0313V18.75C24.0313 19.7156 23.811 20.6304 23.4189 21.4469H19.9023C19.4711 21.4469 19.1211 21.7969 19.1211 22.2281C19.1211 22.6594 19.4711 23.0094 19.9023 23.0094H22.3495C21.2067 24.2328 19.582 25 17.7815 25H16.2193C12.7737 25 9.97027 22.1961 9.97027 18.75ZM17.0004 33.6734L12.3832 30.9101C13.2791 30.432 13.9821 29.7039 13.9821 28.4219V26.2344C14.6914 26.4469 15.442 26.5617 16.2193 26.5617H17.7815C18.558 26.5617 19.3086 26.4469 20.0171 26.2351V28.4219C20.0171 29.7039 20.7209 30.432 21.6168 30.9101L17.0004 33.6734Z" fill="#1600FF"/>
</svg>
