<svg width="40" height="40" viewBox="0 0 40 40" fill="none" xmlns="http://www.w3.org/2000/svg">
<g clip-path="url(#clip0)">
<path d="M35.3125 9.375C32.7277 9.375 30.625 7.27234 30.625 4.6875C30.625 2.10266 32.7277 0 35.3125 0C37.8973 0 40 2.10266 40 4.6875C40 7.27234 37.8973 9.375 35.3125 9.375ZM35.3125 1.5625C33.5895 1.5625 32.1875 2.96448 32.1875 4.6875C32.1875 6.41052 33.5895 7.8125 35.3125 7.8125C37.0355 7.8125 38.4375 6.41052 38.4375 4.6875C38.4375 2.96448 37.0355 1.5625 35.3125 1.5625Z" fill="#1600FF"/>
<path d="M20.9198 8.62427H0.78125C0.349731 8.62427 0 8.27423 0 7.84302C0 5.14252 2.23785 2.95074 4.95453 3.03375C6.09955 1.1496 8.12408 0 10.3574 0C12.1872 0 13.9316 0.802917 15.1273 2.17224C15.545 2.06848 15.9747 2.0163 16.4108 2.0163C19.3439 2.0163 21.73 4.40247 21.73 7.33521C21.73 7.52838 21.7184 7.72827 21.6962 7.92938C21.6519 8.3252 21.3177 8.62427 20.9198 8.62427ZM1.65741 7.06177H20.1575C20.0168 5.11749 18.3902 3.5788 16.4108 3.5788C15.9656 3.5788 15.5301 3.6557 15.1166 3.80737C14.7888 3.92792 14.4205 3.81561 14.2154 3.53302C13.32 2.29919 11.8777 1.5625 10.3574 1.5625C8.53912 1.5625 6.90491 2.57477 6.09192 4.2041C5.94147 4.50562 5.61432 4.67651 5.28107 4.6286C5.1236 4.60571 4.96552 4.59412 4.8114 4.59412C3.28918 4.59412 2.00806 5.64636 1.65741 7.06177Z" fill="#1600FF"/>
<path d="M34.96 36.6095C34.9094 36.6095 34.8587 36.604 34.8077 36.5936C34.7577 36.5845 34.7086 36.5695 34.6619 36.55C34.6149 36.5305 34.5694 36.5063 34.5273 36.4783C34.4843 36.4493 34.4446 36.4163 34.4086 36.3806C34.3719 36.3446 34.3399 36.3046 34.3109 36.2616C34.2828 36.2195 34.2587 36.1743 34.2392 36.1273C34.2197 36.0797 34.2047 36.0306 34.1946 35.9811C34.1843 35.9305 34.1797 35.8789 34.1797 35.8282C34.1797 35.7773 34.1843 35.7257 34.1946 35.6757C34.2047 35.6259 34.2197 35.5765 34.2392 35.5298C34.2587 35.4822 34.2828 35.4367 34.3109 35.3946C34.339 35.3516 34.3719 35.3119 34.408 35.2759C34.4437 35.2399 34.4843 35.2069 34.5267 35.1788C34.5694 35.1508 34.6149 35.1266 34.6619 35.1071C34.7086 35.0876 34.7577 35.0726 34.8077 35.0626C34.9084 35.0421 35.0125 35.0421 35.1132 35.0626C35.1633 35.0726 35.2124 35.0876 35.2594 35.1071C35.3064 35.1266 35.3516 35.1508 35.3946 35.1788C35.4367 35.2069 35.4773 35.2399 35.5133 35.2759C35.5493 35.3119 35.582 35.3516 35.61 35.3946C35.6384 35.4367 35.6625 35.4822 35.6821 35.5298C35.7016 35.5768 35.7166 35.6259 35.7266 35.6757C35.7367 35.7257 35.7422 35.7773 35.7422 35.8282C35.7422 35.8789 35.7367 35.9305 35.7266 35.9811C35.7166 36.0306 35.7016 36.0797 35.6821 36.1273C35.6625 36.1743 35.6384 36.2195 35.61 36.2616C35.582 36.3046 35.5493 36.3446 35.5133 36.3806C35.4773 36.4163 35.4367 36.4493 35.3946 36.4783C35.3516 36.5063 35.3064 36.5305 35.2594 36.55C35.2124 36.5695 35.1633 36.5845 35.1132 36.5936C35.0626 36.604 35.0116 36.6095 34.96 36.6095Z" fill="#1600FF"/>
<path d="M39.2188 31.6568H37.7713V22.9553L38.0054 23.1271C38.1421 23.2275 38.3044 23.2788 38.468 23.2788C38.5883 23.2788 38.7094 23.251 38.8208 23.1946C39.0836 23.0615 39.2493 22.7921 39.2493 22.4976V18.2196C39.2493 17.9709 39.1309 17.7371 38.9304 17.5897L28.2465 9.74121C27.9712 9.53918 27.5964 9.53918 27.3212 9.74121L22.627 13.1897L20.4626 11.5997C20.1874 11.3974 19.8126 11.3974 19.5374 11.5997L17.3727 13.1897L12.6785 9.74121C12.4036 9.53918 12.0288 9.53918 11.7535 9.74121L1.06934 17.59C0.869141 17.7371 0.750732 17.9709 0.750732 18.2196V22.4976C0.750732 22.7921 0.916443 23.0618 1.1792 23.1946C1.29059 23.251 1.41144 23.2788 1.53198 23.2788C1.69525 23.2788 1.85791 23.2278 1.99432 23.1274L2.2287 22.9553V31.6568H0.78125C0.349731 31.6568 0 32.0065 0 32.438V39.2188C0 39.6503 0.349731 40 0.78125 40H39.2188C39.6503 40 40 39.6503 40 39.2188V32.438C40 32.0065 39.6503 31.6568 39.2188 31.6568ZM36.2088 21.8076L36.2091 31.6568H29.9878L29.9875 24.8135L30.2219 24.9857C30.2258 24.9887 30.2298 24.9915 30.2338 24.9945C30.2353 24.9954 30.2365 24.996 30.2377 24.9969C30.2405 24.9991 30.2432 25.0009 30.2463 25.0027C30.2478 25.004 30.2493 25.0049 30.2509 25.0061C30.2533 25.0076 30.2557 25.0095 30.2585 25.011C30.26 25.0122 30.2618 25.0134 30.2637 25.0143C30.2661 25.0162 30.2689 25.0177 30.2716 25.0195C30.2728 25.0204 30.2744 25.0214 30.2759 25.022C30.2786 25.0238 30.2817 25.0256 30.2847 25.0275C30.2859 25.0281 30.2875 25.029 30.2887 25.0299C30.2924 25.0317 30.2957 25.0339 30.2994 25.036C30.3 25.0363 30.3009 25.0369 30.3015 25.0372C30.3104 25.0421 30.3192 25.047 30.3284 25.0516C30.329 25.0519 30.3293 25.0519 30.3299 25.0522C30.3336 25.0543 30.3375 25.0562 30.3415 25.058C30.3424 25.0586 30.3436 25.0592 30.3445 25.0595C30.3479 25.0613 30.3516 25.0629 30.3552 25.0644C30.3561 25.065 30.3571 25.0653 30.358 25.0659C30.3619 25.0674 30.3656 25.0693 30.3693 25.0711C30.3702 25.0714 30.3708 25.0717 30.3714 25.072C30.5508 25.1505 30.7544 25.1587 30.9406 25.094C30.9412 25.0937 30.9412 25.0937 30.9415 25.0937C30.9549 25.0888 30.968 25.0839 30.9811 25.0784C30.9824 25.0778 30.9836 25.0775 30.9848 25.0769C30.9872 25.076 30.9897 25.0751 30.9921 25.0739C30.9937 25.0732 30.9952 25.0726 30.9967 25.072C30.9988 25.0711 31.0007 25.0702 31.0028 25.0693C31.0049 25.0684 31.0068 25.0674 31.0089 25.0665C31.0107 25.0659 31.0126 25.065 31.0144 25.0641C31.0165 25.0632 31.019 25.062 31.0214 25.0607C31.0229 25.0601 31.0242 25.0595 31.0257 25.0586C31.0297 25.0568 31.0333 25.0549 31.037 25.0531C31.2997 24.92 31.4655 24.6506 31.4655 24.3561V20.0778C31.4655 19.8291 31.347 19.5953 31.1469 19.4482L26.8585 16.2982L27.7838 15.6186L36.2088 21.8076ZM21.7712 35.047H18.2288V30.3867H21.7712V35.047ZM22.5525 28.8242H17.4475C17.0163 28.8242 16.6663 29.1742 16.6663 29.6054V35.047H11.575V23.6658L20 17.4768L28.425 23.6658L28.4253 35.047H23.3337V29.6054C23.3337 29.1742 22.9837 28.8242 22.5525 28.8242ZM27.7838 11.3403L37.6868 18.6151V20.9543L28.2465 14.0192C27.9929 13.833 27.6544 13.8184 27.3877 13.9755C27.3648 13.989 27.3428 14.0036 27.3215 14.0192L25.5389 15.3287L23.9468 14.1589L27.7838 11.3403ZM20 13.1985L29.903 20.4733V22.8125L29.6689 22.6404L20.4626 15.8777C20.441 15.8618 20.419 15.8472 20.3964 15.834C20.152 15.69 19.848 15.69 19.6039 15.834C19.581 15.8475 19.559 15.8618 19.5374 15.8777L10.3311 22.6404L10.097 22.8125V20.4733L20 13.1985ZM2.31323 18.6151L12.2162 11.3403L16.0532 14.1589L14.4611 15.3287L12.6785 14.0195C12.4036 13.8171 12.0288 13.8171 11.7535 14.0195L2.31323 20.9543V18.6151ZM3.7912 21.8076L12.2162 15.6183L13.1415 16.2982L8.85315 19.4482C8.8501 19.4504 8.84705 19.4528 8.84399 19.455C8.68317 19.577 8.57697 19.7549 8.54492 19.9512C8.5437 19.9588 8.54248 19.9664 8.54156 19.9741C8.54065 19.9817 8.53973 19.9893 8.53882 19.9969C8.53607 20.0235 8.53455 20.0507 8.53455 20.0778V24.3561C8.53455 24.6506 8.70026 24.92 8.96301 25.0531C8.96698 25.0549 8.97125 25.0571 8.97522 25.0592C9.06403 25.1019 9.15802 25.127 9.25323 25.1346C9.43726 25.1495 9.62433 25.0989 9.77844 24.9857L10.0125 24.8135V31.6568H3.7915L3.7912 21.8076ZM10.0125 33.2193V35.047H1.5625V33.2193H10.0125ZM38.4375 38.4375H1.5625V36.6095H31.7969C32.2284 36.6095 32.5781 36.2598 32.5781 35.8282C32.5781 35.397 32.2284 35.047 31.7969 35.047H29.9878V33.2193H38.4375V38.4375Z" fill="#1600FF"/>
<path d="M19.9999 27.1851C18.1359 27.1851 16.6191 25.6686 16.6191 23.8043C16.6191 21.9403 18.1359 20.4239 19.9999 20.4239C21.8639 20.4239 23.3806 21.9403 23.3806 23.8043C23.3806 25.6686 21.8639 27.1851 19.9999 27.1851ZM19.9999 21.9861C18.9974 21.9861 18.1816 22.8018 18.1816 23.8043C18.1816 24.8068 18.9974 25.6226 19.9999 25.6226C21.0024 25.6226 21.8181 24.8068 21.8181 23.8043C21.8181 22.8018 21.0024 21.9861 19.9999 21.9861Z" fill="#1600FF"/>
</g>
<defs>
<clipPath id="clip0">
<rect width="40" height="40" fill="white"/>
</clipPath>
</defs>
</svg>
