<svg width="42" height="40" viewBox="0 0 42 40" fill="none" xmlns="http://www.w3.org/2000/svg">
<g clip-path="url(#clip0)">
<path d="M26.3929 0V0.555952V2.99359C23.1456 4.29081 20.8568 7.45545 20.8568 11.2046C20.8568 16.0513 24.7621 20.0428 29.6115 20.0428C34.4181 20.0428 38.3663 16.0513 38.3663 11.2046C38.3663 7.46971 36.0632 4.29081 32.8302 3.00784V0H26.3929ZM27.4944 1.1119H31.743V2.65146C31.0707 2.4804 30.3697 2.38061 29.6401 2.38061H29.6115C28.882 2.38061 28.1667 2.4804 27.4944 2.65146V1.1119ZM29.6115 3.49252C29.869 3.49252 30.1265 3.50677 30.3697 3.53528C30.4126 3.53528 30.4412 3.54954 30.4841 3.54954C30.6415 3.56379 30.8132 3.5923 30.9705 3.62081C31.3568 3.69209 31.7287 3.77762 32.0863 3.90592C35.0904 4.93229 37.2648 7.78332 37.2648 11.2046C37.2648 15.4383 33.8029 18.9309 29.6115 18.9309C25.3486 18.9309 21.9583 15.4526 21.9583 11.2046C21.9583 7.79758 24.104 4.94654 27.1081 3.90592C27.1081 3.90592 27.1081 3.90592 27.1224 3.90592C27.4944 3.77762 27.8663 3.69209 28.2525 3.62081C28.3956 3.5923 28.5386 3.56379 28.696 3.56379C28.7532 3.56379 28.8104 3.54954 28.8677 3.54954C29.1108 3.53528 29.3683 3.50677 29.6115 3.49252ZM29.6115 4.63293C29.5686 4.63293 29.54 4.64718 29.5114 4.64718C25.9923 4.70421 23.2028 7.58375 23.1313 11.0763C23.117 11.1618 23.117 11.2473 23.1313 11.3329C23.2028 14.7969 25.9208 17.6336 29.3826 17.7619C29.54 17.8332 29.7117 17.8332 29.869 17.7619C33.3309 17.6336 36.1204 14.7256 36.1204 11.2046C36.1204 7.64077 33.2594 4.71846 29.7403 4.64718C29.6974 4.64718 29.6544 4.63293 29.6115 4.63293ZM29.0536 5.7876C29.0536 5.7876 29.0679 5.7876 29.0536 5.7876L29.0679 6.81397C29.0393 7.12758 29.2539 7.39843 29.5543 7.4412C29.8547 7.46971 30.1265 7.25588 30.1551 6.94227C30.1551 6.8995 30.1551 6.87099 30.1551 6.82823V5.7876C32.6871 6.04419 34.7185 8.09694 34.976 10.6486H33.946C33.6456 10.6629 33.4024 10.9195 33.4024 11.2188C33.4167 11.5182 33.6456 11.7463 33.946 11.7605H34.976C34.7185 14.3122 32.6871 16.3507 30.1551 16.6215V15.5952C30.1551 15.2815 29.9119 15.0392 29.6115 15.0249H29.5972C29.2968 15.0392 29.0536 15.2815 29.0679 15.5952V16.6215C26.493 16.3649 24.5332 14.3264 24.2757 11.7605H25.2771C25.5775 11.7463 25.8207 11.4897 25.8207 11.1903C25.8064 10.8909 25.5775 10.6629 25.2771 10.6486H24.2757C24.5332 8.09694 26.493 6.05845 29.0536 5.7876ZM29.6115 7.82609C29.3111 7.84034 29.0679 8.08268 29.0822 8.39629V10.9907C29.0536 11.0905 29.0536 11.2046 29.0965 11.2901C29.1252 11.4612 29.2396 11.6037 29.397 11.675L31.4569 13.7562C31.6572 13.9843 32.0005 14.0128 32.2437 13.8133C32.4726 13.6137 32.5012 13.2573 32.3009 13.0292C32.2866 13.0007 32.258 12.9865 32.2437 12.9722L30.198 10.9052V8.39629C30.198 8.08268 29.9549 7.84034 29.6544 7.82609C29.6115 7.82609 29.6115 7.82609 29.6115 7.82609ZM11.4153 21.6679C6.48006 21.6679 2.47461 25.7591 2.47461 30.7912C2.47461 35.8232 6.48006 39.9145 11.4153 39.9145C16.3506 39.9145 20.3418 35.8232 20.3418 30.7912C20.3418 25.7448 16.3363 21.6679 11.4153 21.6679ZM11.4153 22.68C15.807 22.68 19.3547 26.3008 19.3547 30.7912C19.3547 35.2815 15.807 38.9024 11.4153 38.9024C7.02366 38.9024 3.47597 35.2815 3.47597 30.7912C3.46167 26.3008 7.00935 22.68 11.4153 22.68ZM11.4153 23.9202C7.72461 23.9202 4.70622 27.0135 4.70622 30.7769C4.70622 34.5403 7.73891 37.6336 11.4153 37.6336C15.1061 37.6336 18.1245 34.5403 18.1245 30.7769C18.1245 27.0135 15.1061 23.9202 11.4153 23.9202ZM11.4153 24.9465C14.5625 24.9465 17.1231 27.5695 17.1231 30.7912C17.1231 34.0128 14.5625 36.6358 11.4153 36.6358C8.26821 36.6358 5.69327 33.9986 5.69327 30.7912C5.69327 27.5838 8.26821 24.9465 11.4153 24.9465ZM11.4296 26.144C11.2866 26.1582 11.1579 26.1867 11.1865 26.2723V27.0706C10.5713 27.1561 10.1279 27.3414 9.81317 27.712C9.45554 28.0684 9.28387 28.5246 9.28387 29.0805C9.28387 29.4939 9.41262 29.8503 9.59859 30.1639C9.77025 30.3635 9.98483 30.5346 10.2709 30.6771C10.4283 30.7341 10.7573 30.8339 11.0148 30.9195C11.072 30.9337 11.1292 30.9622 11.1722 30.9622C11.444 31.0335 11.5155 31.0335 11.6728 31.062C11.8159 31.0763 12.0019 31.1333 12.1735 31.2188C12.245 31.2616 12.3023 31.2758 12.3595 31.3186C12.4167 31.3614 12.4596 31.3899 12.4882 31.4326L12.5025 31.4469C12.5168 31.4612 12.5168 31.4612 12.5311 31.4897C12.7028 31.6607 12.76 31.8746 12.7314 32.1739C12.7314 32.4305 12.6885 32.6301 12.5884 32.8011C12.5598 32.8439 12.5311 32.8867 12.4882 32.9294C12.4882 32.9294 12.4739 32.9294 12.4739 32.9437C12.4739 32.9437 12.4739 32.9437 12.4596 32.958C12.4453 32.9722 12.431 33.0007 12.4024 33.015C12.3738 33.0292 12.3595 33.0577 12.3309 33.0577C12.3166 33.0577 12.3023 33.072 12.288 33.072C12.245 33.1148 12.1878 33.129 12.1306 33.1433H12.1163C11.9589 33.2003 11.8302 33.2145 11.7301 33.2431C11.7014 33.2431 11.6871 33.2431 11.6585 33.2573C11.5155 33.2573 11.3724 33.2716 11.1722 33.2573C11.0577 33.2573 10.9433 33.2573 10.8288 33.2573C10.6572 33.2431 10.4569 33.186 10.2709 33.1148C10.2423 33.1148 10.228 33.1005 10.1994 33.072C9.98483 33.0007 9.78455 32.9009 9.6272 32.7726C9.6272 32.7726 9.6272 32.7726 9.61289 32.7584C9.48415 32.6728 9.34109 32.5731 9.29818 32.5303C9.18374 32.7441 9.25526 33.2716 9.25526 33.5709C9.48415 33.7135 9.78455 33.8418 10.0993 33.9273C10.414 34.0128 10.7716 34.0699 11.1722 34.0699V35.3243C11.1292 35.4384 11.7158 35.4669 11.6585 35.3243V34.0271C12.2307 33.9843 12.6742 33.7562 13.0318 33.3856C13.3895 33.0292 13.5182 32.5731 13.5182 32.0171C13.5182 31.5182 13.4324 31.1618 13.2035 30.8909C13.0461 30.7341 12.8602 30.5916 12.6456 30.4775C12.5455 30.4205 12.3309 30.3635 12.0591 30.3065C11.7873 30.2495 11.4583 30.1924 11.1579 30.1069C10.9004 30.0356 10.6715 29.9359 10.4855 29.8076C10.4569 29.7933 10.4426 29.7648 10.414 29.7648C10.3997 29.7505 10.3711 29.7505 10.3425 29.722C10.3282 29.7078 10.3282 29.7078 10.3138 29.6793H10.2995L10.2852 29.665C10.1136 29.4939 10.0134 29.2659 10.042 28.9665C10.0564 28.5816 10.1994 28.3108 10.414 28.1112C10.6429 27.9259 10.929 27.8261 11.258 27.8118C11.6585 27.7976 12.102 27.8831 12.5168 28.0684C12.5311 28.0684 12.5455 28.0684 12.5455 28.0827C12.5455 28.0827 12.5598 28.0827 12.5598 28.0969C12.8029 28.211 13.0318 28.325 13.2178 28.4818C13.3036 28.2537 13.2464 27.7691 13.2464 27.4982C13.132 27.3842 12.8745 27.2986 12.5598 27.1989C12.245 27.1133 11.9876 27.0563 11.6728 27.0563V26.258C11.7014 26.201 11.5727 26.144 11.4296 26.144Z" fill="#1600FF"/>
<path d="M20.3706 0.356384L18.9544 0.598722L19.5981 4.33358C17.5525 2.95082 14.9632 2.22381 12.2738 2.33785C8.92643 2.4804 5.72207 3.83465 3.49046 6.05845C1.24455 8.31077 0 11.2901 0 14.4547C0 17.6194 1.24455 20.613 3.49046 22.851L4.50613 21.8389C2.51771 19.8717 1.43052 17.2488 1.43052 14.4547C1.43052 11.6607 2.51771 9.03778 4.50613 7.07057C6.49455 5.0891 9.35559 3.87741 12.3454 3.76337C14.8345 3.66358 17.2091 4.36209 19.0259 5.67356L14.9203 6.51462L15.2064 7.91162L21.4435 6.62866L20.3706 0.356384Z" fill="#1600FF"/>
<path d="M38.5233 17.5054L37.5076 18.5175C41.5989 22.5945 41.5989 29.2231 37.5076 33.2858C33.6452 37.1347 27.1078 37.6479 22.9879 34.6828L27.0935 33.8418L26.8074 32.4448L20.5703 33.7278L21.6432 40L23.0594 39.7577L22.43 36.0228C24.4041 37.3628 26.8074 38.0471 29.2392 38.0471C32.601 38.0471 36.0199 36.7784 38.5376 34.2837C43.1582 29.665 43.1582 22.1383 38.5233 17.5054Z" fill="#1600FF"/>
</g>
<defs>
<clipPath id="clip0">
<rect width="42" height="40" fill="white"/>
</clipPath>
</defs>
</svg>
